<?xml version="1.0" encoding="UTF-8"?>
<svg width="170px" height="142px" viewBox="0 0 170 142" version="1.1" xmlns="http://www.w3.org/2000/svg" xmlns:xlink="http://www.w3.org/1999/xlink">
    <!-- Generator: Sketch 52.3 (67297) - http://www.bohemiancoding.com/sketch -->
    <title>Shape</title>
    <desc>Created with Sketch.</desc>
    <defs>
        <linearGradient x1="50%" y1="0%" x2="50%" y2="100%" id="linearGradient-1">
            <stop stop-color="#88A5F3" offset="0%"></stop>
            <stop stop-color="#50E3C2" offset="100%"></stop>
        </linearGradient>
    </defs>
    <g id="Page-1" stroke="none" stroke-width="1" fill="none" fill-rule="evenodd" stroke-linecap="round" stroke-linejoin="round">
        <g id="New-Zed-2.0" transform="translate(-627.000000, -1115.000000)" fill-rule="nonzero" stroke="url(#linearGradient-1)" stroke-width="2">
            <g id="mid-block" transform="translate(0.000000, 1045.000000)">
                <g id="Group-Copy" transform="translate(564.000000, -17.000000)">
                    <g id="Group-11">
                        <g id="Group-4">
                            <path d="M222.149035,178.954892 L204.745663,151.766842 L200.189592,148.035149 L196.085023,147.830111 L194.648424,145.861746 L189.969216,143.606327 L174.166626,139.751611 L172.31957,140.366725 L171.74493,140.571763 L139.318837,133.436438 L125.158075,113.711775 L122.941608,113.711775 L120.437821,110.431166 L101.269484,98.456942 L91.0491082,97.4727592 L84.8512094,90.5014646 L79.1458588,88 L82.798925,99.5641476 L81.4444173,99.1540715 L64,124.701816 L69.5822135,129.868776 L88.4221842,116.664323 L89.4072807,117.894552 L89.4483264,117.894552 L98.3962863,128.76157 L96.5902761,146.517868 L97.000733,156.236673 L99.627657,162.797891 L100.202297,174.485062 L80.7876863,187.279438 L79.5563157,191.790275 L84.2765698,208.726421 L86.0004886,201.919156 L83.8250672,191.667252 L99.8328854,185.51611 L99.8328854,212.17106 L110.627901,181.087288 L116.8258,178.872876 L119.986318,173.336848 L137.635964,174.936145 L158.979721,179.570006 L167.84559,177.355595 L164.890301,181.169303 L164.890301,188.181605 L168.173956,197.244288 L158.158808,217.173989 L176.054728,198.638547 L178.230149,184.49092 L178.927926,185.106034 L177.327144,192.897481 L185.125825,203.477446 L173.058392,228 L177.860738,226.564733 L191.44686,208.152314 L191.036404,197.285296 L195.879795,186.746339 L195.961886,186.746339 L195.92084,186.623316 L202.447105,172.475688 L202.488151,172.393673 L201.667237,164.930287 L203.92475,169.728178 L215.417542,179.200937 L223.05204,183.219684 L232,180.923257 L222.149035,178.954892 Z M204.608696,152.258078 L201.982413,155.89616 L201.654128,159.372549 L200.956522,149.30719 L204.608696,152.258078 Z M200.086957,148.561272 L200.956522,161.202614 L196.391304,148.392157 L200.086957,148.561272 Z M196.391304,148.963494 L188.684688,163.947712 L182.206049,160.171529 L181.782609,159.930496 L195.290359,147.477124 L196.391304,148.963494 Z M188.565913,164.862745 L195.478261,185.908497 L179.956522,184.620803 L188.565913,164.862745 Z M169.620749,168.221453 L168.228584,170.352941 L167.173913,163.879534 L179.956522,160.287582 L169.620749,168.181981 L169.620749,168.221453 Z M179.043478,160.153532 L166.326457,163.947712 L157.130435,157.542484 L179.043478,160.153532 Z M157.130435,155.754011 L167.143136,151.137255 L179.043478,158.457516 L157.130435,155.754011 Z M166.229385,163.716704 L167.173913,170.352941 L158.043478,157.542484 L166.229385,163.716704 Z M181.107049,159.372549 L187.26087,163.426848 L171.73913,167.607843 L181.107049,159.372549 Z M194.565217,146.68674 L182.695652,158.457516 L190.567048,144.732026 L194.565217,146.68674 Z M189.086957,144.501712 L180.137096,158.457516 L173.565217,141.071895 L189.086957,144.501712 Z M172.347826,140.817834 L174.393043,140.156863 L180.869565,158.457516 L168.086957,150.938963 L172.347826,140.817834 Z M139.582685,134.666667 L170.826087,141.500763 L128.826087,156.627451 L139.582685,134.666667 Z M120.774704,111.79085 L122.974308,114.606335 L123.347826,114.606335 L120.608696,115.45098 L120.774704,111.79085 Z M125.387277,114.535948 L138.869565,133.751634 L100.521739,128.720918 L120.704805,116.102892 L125.387277,114.535948 Z M102.135323,99.8954248 L120.608696,111.209504 L120.401595,115.815951 L99.6086957,128.261438 L102.135323,99.8954248 Z M83.808733,91.3470932 L90.1040306,98.5951152 L99.6086957,99.5221878 L93.5191267,102.640523 L80.4347826,89.8300654 L83.808733,91.3470932 Z M99.6086957,98.9803922 L92.3043478,112.705882 C92.6432093,110.47549 93.3962349,105.671569 93.961004,102.154412 L99.6086957,98.9803922 Z M79.5217391,89.8300654 L92.3043478,102.640523 L82.7173913,100.412617 L79.5217391,89.8300654 Z M83.6749333,100.239638 L94.1304348,102.563075 C93.7876315,104.327166 92.502119,111.383531 92.1593156,113.620915 C90.7024015,111.813797 85.8174541,104.929539 82.2608696,99.8954248 L83.6749333,100.239638 Z M69.5942029,129.176471 L64.9130435,124.922616 L80.4347826,102.640523 L69.5942029,129.176471 Z M88.3970847,115.490592 L70.3913043,128.261438 L81.6803217,99.8954248 C82.4491078,100.959662 90.8248304,112.789067 91.3913043,113.443982 L88.3970847,115.490592 Z M88.6521739,116.208742 L91.3913043,114.535948 L89.5806927,117.281046 L88.6521739,116.208742 Z M90.4782609,117.426803 L101.434783,99.8954248 L98.958021,127.346405 L90.4782609,117.426803 Z M99.5310685,129.176471 L137.956522,133.995204 L97.7826087,145.647059 L99.5310685,129.176471 Z M103.098301,164.260273 L100.521739,163.077978 L137.043478,136.496732 L107.924242,169.437908 L103.098301,164.260273 Z M107.826087,169.324815 L101.061265,174.013072 L100.521739,163.03268 L103.05336,164.184182 L107.826087,169.324815 Z M96.8695652,147.010494 L136.130435,135.581699 L97.2399508,155.712418 L96.8695652,147.010494 Z M100.094399,162.117647 L97.7826087,156.155456 L135.217391,135.581699 L100.094399,162.117647 Z M80.4488294,188.653595 L82.2608696,192.121087 L79.5217391,192.313725 L80.4488294,188.653595 Z M83.9209486,206.954248 L80.4347826,194.143791 L85,202.400365 L83.9209486,206.954248 Z M85,199.633987 L80.4347826,191.562579 L83.2880435,191.398693 L85,199.633987 Z M83.4267047,190.48366 L81.3478261,187.05993 L104.173913,172.183007 L83.4267047,190.48366 Z M100.521739,208.784314 L100.521739,186.022011 L109.652174,182.248366 L100.521739,208.784314 Z M110.112906,180.335116 L100.051383,184.57754 L85,190.48366 L107.94518,169.437908 L107.98608,169.479501 L116.043478,178.255496 L110.112906,180.335116 Z M119.761503,173.36252 L117.168003,177.935021 L116.803293,178.588235 L108.73913,169.892319 L137.956522,136.496732 L119.761503,173.36252 Z M128.321957,156.379882 L170.826087,141.071895 L166.969456,150.809591 L120.608696,172.183007 L128.321957,156.379882 Z M120.608696,173.425142 L156.151827,157.542484 L167.173913,171.840938 L137.368871,174.928105 L120.608696,173.425142 Z M139.782609,174.7219 L155.815573,173.098039 L158.043478,178.588235 L139.782609,174.7219 Z M158.642356,178.588235 L156.217391,173.219691 L167.448808,172.183007 L168.086957,176.514866 L158.642356,178.588235 Z M168.261358,177.673203 L176.304348,183.163399 L165.347826,181.063122 L168.261358,177.673203 Z M165.347826,182.248366 L176.304348,184.385489 L165.347826,187.738562 L165.347826,182.248366 Z M165.347826,188.730878 L177.217391,184.993464 L168.409587,196.888889 L165.347826,188.730878 Z M160.782609,214.27451 L168.948705,197.803922 L175.391304,198.888062 L160.782609,214.27451 Z M175.262769,198.718954 L169,197.668254 L177.217391,185.908497 L175.262769,198.718954 Z M177.8375,182.916648 L177.8375,182.957773 L168.756522,176.007638 L168.086957,171.07263 L169.677174,168.522876 L178.130435,183.163399 L177.8375,182.916648 Z M169.913043,169.208684 L187.26087,164.862745 L178.79057,184.993464 L169.913043,169.208684 Z M179.606974,185.908497 L190.870857,197.502772 L190.913043,198.718954 L178.130435,192.840738 L179.606974,185.908497 Z M177.716036,226.109799 L174.478261,227.084967 L185.830966,204.20915 L190.913043,208.353615 L177.716036,226.109799 Z M185.980758,203.731148 L179.043478,194.143791 L190.512045,199.71593 L190.592244,199.511072 L190.913043,207.869281 L185.980758,203.731148 Z M190.779788,196.888889 L179.956522,185.908497 L195.478261,187.181586 L190.779788,196.888889 Z M195.784553,185.908497 L189.086957,164.862745 L201.869565,172.693722 L195.784553,185.908497 Z M201.869565,172.183007 L188.173913,164.147773 L195.706522,149.30719 L200.88519,163.573828 L200.88519,163.65582 L200.927989,163.696816 L201.869565,172.183007 Z M204.888499,170.218378 L202.782609,165.777778 L212.826087,176.75817 L204.888499,170.218378 Z M200.956522,163.919295 L201.551062,157.542484 L213.73913,177.673203 L200.956522,163.919295 Z M215.809973,178.896598 L204.608696,159.372549 L221.956522,182.248366 L215.809973,178.896598 Z M201.869565,155.402238 L204.227953,152.052288 L221.26527,179.141391 L221.956522,181.333333 L201.869565,155.402238 Z M222.869565,179.503268 L229.26087,181.234411 L223.749805,183.163399 L222.869565,179.503268 Z" id="Shape"></path>
                        </g>
                    </g>
                </g>
            </g>
        </g>
    </g>
</svg>