<?xml version="1.0" encoding="UTF-8"?>
<svg width="24px" height="24px" viewBox="0 0 24 24" version="1.1" xmlns="http://www.w3.org/2000/svg" xmlns:xlink="http://www.w3.org/1999/xlink">
    <!-- Generator: sketchtool 52.3 (67297) - http://www.bohemiancoding.com/sketch -->
    <title>994B6090-9CE3-4936-B153-EC884C8AC72E</title>
    <desc>Created with sketchtool.</desc>
    <g id="00" stroke="none" stroke-width="1" fill="none" fill-rule="evenodd">
        <g id="00-styleboard" transform="translate(-1784.000000, -432.000000)">
            <g id="icn-close-24-copy-2" transform="translate(1784.000000, 432.000000)">
                <g id="round-check_box_outline_blank-24px">
                    <polygon id="Path" points="0 0 24 0 24 24 0 24"></polygon>
                    <path d="M18,19 L6,19 C5.45,19 5,18.55 5,18 L5,6 C5,5.45 5.45,5 6,5 L18,5 C18.55,5 19,5.45 19,6 L19,18 C19,18.55 18.55,19 18,19 Z M19,3 L5,3 C3.9,3 3,3.9 3,5 L3,19 C3,20.1 3.9,21 5,21 L19,21 C20.1,21 21,20.1 21,19 L21,5 C21,3.9 20.1,3 19,3 Z" id="Shape" fill="#F0F8FF" fill-rule="nonzero"></path>
                </g>
            </g>
        </g>
    </g>
</svg>