<?xml version="1.0" encoding="UTF-8"?>
<svg width="24px" height="24px" viewBox="0 0 24 24" version="1.1" xmlns="http://www.w3.org/2000/svg" xmlns:xlink="http://www.w3.org/1999/xlink">
    <!-- Generator: Sketch 53 (72520) - https://sketchapp.com -->
    <title>icn-gen5-24</title>
    <desc>Created with Sketch.</desc>
    <defs>
        <linearGradient x1="50%" y1="0%" x2="50%" y2="100%" id="linearGradient-1">
            <stop stop-color="#A3A9B0" offset="0%"></stop>
            <stop stop-color="#63686F" offset="100%"></stop>
        </linearGradient>
    </defs>
    <g id="Symbols" stroke="none" stroke-width="1" fill="none" fill-rule="evenodd">
        <g id="Icons-/-gen5">
            <g id="icon">
                <polygon id="Path" points="0 0 24 0 24 24 0 24"></polygon>
                <path d="M12.3725167,0.420519692 C12.7251463,0.816308258 21,10.2263346 21,15.0352547 C21,19.9777349 16.961917,24 12,24 C7.03805265,24 3,19.9777349 3,15.0352547 C3,10.2263346 11.2748233,0.816308258 11.6274833,0.420519692 L12,0 C12.1241722,0 12.2483444,0.140173231 12.3725167,0.420519692 Z M11.9999934,3.90651835 C11.0551514,5.02429693 10.12202,6.19597313 9.25952089,7.3714532 C6.91449626,10.5674328 5.5,13.2835757 5.5,14.6598486 C5.5,18.109989 8.42805645,20.9065184 12,20.9065184 L12,3.90651991 Z" id="Shape-Copy-2" fill="url(#linearGradient-1)" fill-rule="nonzero"></path>
            </g>
        </g>
    </g>
</svg>