<?xml version="1.0" encoding="UTF-8"?>
<svg width="24px" height="24px" viewBox="0 0 24 24" version="1.1" xmlns="http://www.w3.org/2000/svg" xmlns:xlink="http://www.w3.org/1999/xlink">
    <!-- Generator: Sketch 55.2 (78181) - https://sketchapp.com -->
    <title>icn-view-list-24</title>
    <desc>Created with Sketch.</desc>
    <g id="Symbols" stroke="none" stroke-width="1" fill="none" fill-rule="evenodd">
        <g id="Icons-/-view-list">
            <g id="icon">
                <polygon id="bounds" points="0 0 24 0 24 24 0 24"></polygon>
                <path d="M4.41666667,14 C3.6375,14 3,13.55 3,13 L3,11 C3,10.45 3.6375,10 4.41666667,10 L18.5833333,10 C19.3625,10 20,10.45 20,11 L20,13 C20,13.55 19.3625,14 18.5833333,14 L4.41666667,14 Z M4.41666667,19 C3.6375,19 3,18.55 3,18 L3,16 C3,15.45 3.6375,15 4.41666667,15 L18.5833333,15 C19.3625,15 20,15.45 20,16 L20,18 C20,18.55 19.3625,19 18.5833333,19 L4.41666667,19 Z M3,6 C3,5.45 3.6375,5 4.41666667,5 L18.5833333,5 C19.3625,5 20,5.45 20,6 L20,8 C20,8.55 19.3625,9 18.5833333,9 L4.41666667,9 C3.6375,9 3,8.55 3,8 L3,6 Z M4.5,13 L5.5,13 C5.775,13 6,12.775 6,12.5 L6,11.5 C6,11.225 5.775,11 5.5,11 L4.5,11 C4.225,11 4,11.225 4,11.5 L4,12.5 C4,12.775 4.225,13 4.5,13 Z M4.5,18 L5.5,18 C5.775,18 6,17.775 6,17.5 L6,16.5 C6,16.225 5.775,16 5.5,16 L4.5,16 C4.225,16 4,16.225 4,16.5 L4,17.5 C4,17.775 4.225,18 4.5,18 Z M4.5,8 L5.5,8 C5.775,8 6,7.775 6,7.5 L6,6.5 C6,6.225 5.775,6 5.5,6 L4.5,6 C4.225,6 4,6.225 4,6.5 L4,7.5 C4,7.775 4.225,8 4.5,8 Z" id="Shape" fill="#F0F8FF" fill-rule="nonzero"></path>
            </g>
        </g>
    </g>
</svg>