<?xml version="1.0" encoding="UTF-8"?>
<svg width="24px" height="24px" viewBox="0 0 24 24" version="1.1" xmlns="http://www.w3.org/2000/svg" xmlns:xlink="http://www.w3.org/1999/xlink">
    <!-- Generator: sketchtool 52.3 (67297) - http://www.bohemiancoding.com/sketch -->
    <title>55B7CE94-10B8-4FBA-B15D-30C0805E905D</title>
    <desc>Created with sketchtool.</desc>
    <g id="03---ui" stroke="none" stroke-width="1" fill="none" fill-rule="evenodd">
        <g id="01-homepage-v2" transform="translate(-1129.000000, -109.000000)">
            <g id="dropdown-nav" transform="translate(854.000000, 78.000000)">
                <g id="Group-2" transform="translate(275.000000, 31.000000)">
                    <g id="Icons-/-icn-horse-24-Copy">
                        <g id="icn-discord-24">
                            <rect id="placeholder" x="0" y="0" width="24" height="24"></rect>
                            <path d="M9.239714,5.00001948 C8.974611,5.00109045 6.7814918,5.06350863 4.4678654,6.78744417 C4.4678654,6.78744417 2,11.2385596 2,16.7207822 C2,16.7207822 3.43956498,19.1954897 7.2270562,19.3157895 C7.2270562,19.3157895 7.8611584,18.5596175 8.3752974,17.9065633 C6.1987752,17.253508 5.376157,15.8958938 5.376157,15.8958938 C5.376157,15.8958938 5.547573,16.0161727 5.8560566,16.1880295 C5.8731944,16.1880295 5.890281,16.2051887 5.924557,16.2223748 C5.9759708,16.2567456 6.027401,16.2739341 6.078815,16.308305 C6.5072642,16.5489042 6.9356996,16.7379707 7.329873,16.8926424 C8.0325296,17.1847988 8.872316,17.4425583 9.8491802,17.6316008 C11.1345274,17.8722003 12.6426414,17.9581155 14.2878866,17.6487735 C15.0933714,17.4941027 15.9160454,17.270714 16.7729438,16.9098151 C17.3727722,16.6864014 18.0411288,16.3599066 18.7437848,15.8958938 C18.7437848,15.8958938 17.8869014,17.2879335 15.6418276,17.9238027 C16.155967,18.5596711 16.7729438,19.2986166 16.7729438,19.2986166 C20.5604346,19.1783183 22,16.7035961 22,16.7207822 C22,11.2385596 19.5321342,6.78744417 19.5321342,6.78744417 C17.0814056,4.94857977 14.7334698,5.00015285 14.7334698,5.00015285 L14.4935864,5.27511532 C17.4070418,6.15158342 18.7609096,7.44053885 18.7609096,7.44053885 C16.9785604,6.47814243 15.2305268,5.99691049 13.60242,5.8078684 C12.3684862,5.67038316 11.1859202,5.70479503 10.1405048,5.84228008 C10.0376774,5.84228008 9.952008,5.85944029 9.8491802,5.87662536 C9.2493514,5.94536849 7.792636,6.1515788 5.9588732,6.95930418 C5.3247686,7.23427438 4.947699,7.44053885 4.947699,7.44053885 C4.947699,7.44053885 6.3530126,6.08282645 9.4378468,5.20635816 L9.2664636,5.00015285 C9.2664636,5.00015285 9.2573876,4.99994829 9.239714,5.00001246 L9.239714,5.00001948 Z M8.84196493,11.3157895 C9.84188069,11.3157895 10.6488397,12.1597791 10.6312983,13.2104927 C10.6312983,14.2612078 9.84188069,15.1052632 8.84196493,15.1052632 C7.85959118,15.1052632 7.05263158,14.2612078 7.05263158,13.2104927 C7.05263158,12.1597791 7.84204877,11.3157895 8.84196493,11.3157895 Z M15.1578947,11.3157895 C16.1403453,11.3157895 16.9473684,12.1597791 16.9473684,13.2104927 C16.9473684,14.2612078 16.1578897,15.1052632 15.1578947,15.1052632 C14.1754444,15.1052632 13.3684211,14.2612078 13.3684211,13.2104927 C13.3684211,12.1597791 14.1579002,11.3157895 15.1578947,11.3157895 Z" id="icon" fill="#F0F8FF" fill-rule="nonzero"></path>
                        </g>
                    </g>
                </g>
            </g>
        </g>
    </g>
</svg>