<?xml version="1.0" encoding="UTF-8"?>
<svg width="24px" height="24px" viewBox="0 0 24 24" version="1.1" xmlns="http://www.w3.org/2000/svg" xmlns:xlink="http://www.w3.org/1999/xlink">
    <!-- Generator: sketchtool 52.3 (67297) - http://www.bohemiancoding.com/sketch -->
    <title>EB2CD312-027A-4935-94CF-B9BBA929DB75</title>
    <desc>Created with sketchtool.</desc>
    <g id="03---ui" stroke="none" stroke-width="1" fill="none" fill-rule="evenodd">
        <g id="01-homepage-v2" transform="translate(-894.000000, -189.000000)">
            <g id="dropdown-nav" transform="translate(854.000000, 78.000000)">
                <g id="Icons-/-icn-horse-24-Copy-6" transform="translate(40.000000, 111.000000)">
                    <g id="icon">
                        <polygon id="Path" points="0 0 24 0 24 24 0 24"></polygon>
                        <path d="M13.5,19 C7.23,13.3641304 4,10.5 4,7.08152174 C4,4.2173913 6.28,2 9.225,2 C10.84,2 12.455,2.73913043 13.5,3.94021739 C14.545,2.73913043 16.16,2 17.775,2 C20.72,2 23,4.2173913 23,7.08152174 C23,10.5923913 19.77,13.4565217 13.5,19 Z M12,19.78125 C5.68695652,14.25 1.95652174,10.96875 1.95652174,6.5625 C1.95652174,6.375 1.95652174,6.1875 1.95652174,6 C1.3826087,6.84375 1,7.875 1,9 C1,12.5625 4.25217391,15.46875 10.5652174,21 L12,19.78125 Z" id="Shape" fill="#F0F8FF" fill-rule="nonzero"></path>
                    </g>
                </g>
            </g>
        </g>
    </g>
</svg>