<?xml version="1.0" encoding="UTF-8"?>
<svg width="24px" height="24px" viewBox="0 0 24 24" version="1.1" xmlns="http://www.w3.org/2000/svg" xmlns:xlink="http://www.w3.org/1999/xlink">
    <!-- Generator: sketchtool 52.3 (67297) - http://www.bohemiancoding.com/sketch -->
    <title>6B6BFA41-46E7-4126-A085-1BCAFAC05818</title>
    <desc>Created with sketchtool.</desc>
    <g id="03---ui" stroke="none" stroke-width="1" fill="none" fill-rule="evenodd">
        <g id="10-buy-2" transform="translate(-870.000000, -894.000000)">
            <g id="Group-2" transform="translate(420.000000, 842.000000)">
                <g id="Group" transform="translate(44.000000, 44.000000)">
                    <g id="Group-14" transform="translate(398.000000, 0.000000)">
                        <g id="img-availability">
                            <g id="icon" transform="translate(8.000000, 8.000000)">
                                <g id="information-outline">
                                    <polygon id="Path" points="0 0 24 0 24 24 0 24"></polygon>
                                    <path d="M21.2515556,5.90344444 L12.3355556,2.083 C12.0791111,1.97233333 11.7893333,1.97233333 11.5328889,2.083 L2.61777778,5.90344444 C2.24266667,6.06388889 2,6.43233333 2,6.83988889 L2,18.0483333 C2,18.4558889 2.24266667,18.8247778 2.61777778,18.9847778 L11.5337778,22.8056667 C11.6622222,22.8612222 11.7982222,22.8887778 11.9346667,22.8887778 C12.0711111,22.8887778 12.2071111,22.8612222 12.336,22.8052222 L21.252,18.9843333 C21.6275556,18.8243333 21.8702222,18.4554444 21.8702222,18.0478889 L21.8702222,6.84033333 C21.8697778,6.43277778 21.6266667,6.06433333 21.2515556,5.90344444 Z M13.8688889,10.9407778 L19.8315556,8.38522222 L19.8315556,15.8812222 L13.8688889,10.9407778 Z M4.03733333,8.38522222 L10,10.9407778 L4.03733333,15.8807778 L4.03733333,8.38522222 Z M10.916,12.8287778 L10.916,20.3238889 L4.95288889,17.7683333 L10.916,12.8287778 Z M11.9346667,4.12744444 L18.264,6.84033333 L11.9346667,9.55277778 L5.60488889,6.83988889 L11.9346667,4.12744444 Z M12.9528889,12.8287778 L18.9164444,17.7683333 L12.9528889,20.3238889 L12.9528889,12.8287778 Z" id="Shape" fill="#F0F8FF" fill-rule="nonzero"></path>
                                </g>
                            </g>
                        </g>
                    </g>
                </g>
            </g>
        </g>
    </g>
</svg>