<?xml version="1.0" encoding="UTF-8"?>
<svg width="24px" height="24px" viewBox="0 0 24 24" version="1.1" xmlns="http://www.w3.org/2000/svg" xmlns:xlink="http://www.w3.org/1999/xlink">
    <!-- Generator: Sketch 53 (72520) - https://sketchapp.com -->
    <title>icn-arrow-back-24</title>
    <desc>Created with Sketch.</desc>
    <g id="Symbols" stroke="none" stroke-width="1" fill="none" fill-rule="evenodd">
        <g id="Icons-/-icn-arrow-back">
            <g id="ic-arrow-back">
                <polygon id="bounds" points="0 0 24 0 24 24 0 24"></polygon>
                <path d="M18.5825,10.5925 L7.4125,10.5925 L12.2925,5.7125 C12.6825,5.3225 12.6825,4.6825 12.2925,4.2925 C11.9025,3.9025 11.2725,3.9025 10.8825,4.2925 L4.2925,10.8825 C3.9025,11.2725 3.9025,11.9025 4.2925,12.2925 L10.8825,18.8825 C11.2725,19.2725 11.9025,19.2725 12.2925,18.8825 C12.6825,18.4925 12.6825,17.8625 12.2925,17.4725 L7.4125,12.5925 L18.5825,12.5925 C19.1325,12.5925 19.5825,12.1425 19.5825,11.5925 C19.5825,11.0425 19.1325,10.5925 18.5825,10.5925 Z" id="Path" fill="#F0F8FF" fill-rule="nonzero"></path>
            </g>
        </g>
    </g>
</svg>