<?xml version="1.0" encoding="UTF-8"?>
<svg width="24px" height="24px" viewBox="0 0 24 24" version="1.1" xmlns="http://www.w3.org/2000/svg" xmlns:xlink="http://www.w3.org/1999/xlink">
    <!-- Generator: sketchtool 52.3 (67297) - http://www.bohemiancoding.com/sketch -->
    <title>C3F76630-9487-4B0C-9413-3AFC6BDEA8A1</title>
    <desc>Created with sketchtool.</desc>
    <g id="00" stroke="none" stroke-width="1" fill="none" fill-rule="evenodd">
        <g id="00-styleboard" transform="translate(-1754.000000, -432.000000)">
            <g id="icn-close-24-copy" transform="translate(1754.000000, 432.000000)">
                <g id="round-check_circle_outline-24px-copy">
                    <polygon id="Path" points="0 0 24 0 24 24 0 24"></polygon>
                    <path d="M18,19 L6,19 C5.45,19 5,18.55 5,18 L5,6 C5,5.45 5.45,5 6,5 L18,5 C18.55,5 19,5.45 19,6 L19,18 C19,18.55 18.55,19 18,19 Z M19,3 L5,3 C3.9,3 3,3.9 3,5 L3,19 C3,20.1 3.9,21 5,21 L19,21 C20.1,21 21,20.1 21,19 L21,5 C21,3.9 20.1,3 19,3 Z" id="Shape" fill="#27B18A" fill-rule="nonzero"></path>
                    <path d="M15.88,8.29 L10,14.17 L8.12,12.29 C7.73,11.9 7.1,11.9 6.71,12.29 C6.32,12.68 6.32,13.31 6.71,13.7 L9.3,16.29 C9.69,16.68 10.32,16.68 10.71,16.29 L17.3,9.7 C17.69,9.31 17.69,8.68 17.3,8.29 C16.91,7.9 16.27,7.9 15.88,8.29 Z" id="Path" fill="#27B18A" fill-rule="nonzero"></path>
                </g>
            </g>
        </g>
    </g>
</svg>
