<?xml version="1.0" encoding="UTF-8"?>
<svg width="24px" height="24px" viewBox="0 0 24 24" version="1.1" xmlns="http://www.w3.org/2000/svg" xmlns:xlink="http://www.w3.org/1999/xlink">
    <!-- Generator: sketchtool 52.3 (67297) - http://www.bohemiancoding.com/sketch -->
    <title>9B8EEBB1-FFF4-4A0F-973C-2E537673DA62</title>
    <desc>Created with sketchtool.</desc>
    <g id="03---ui" stroke="none" stroke-width="1" fill="none" fill-rule="evenodd">
        <g id="06-marketplace-direct" transform="translate(-1125.000000, -189.000000)">
            <g id="Group-5" transform="translate(806.000000, 180.000000)">
                <g id="icon-copy-2" transform="translate(319.000000, 9.000000)">
                    <g id="icon">
                        <polygon id="Path" points="0 0 24 0 24 24 0 24"></polygon>
                        <path d="M18,16.08 C17.24,16.08 16.56,16.38 16.04,16.85 L8.91,12.7 C8.96,12.47 9,12.24 9,12 C9,11.76 8.96,11.53 8.91,11.3 L15.96,7.19 C16.5,7.69 17.21,8 18,8 C19.6568542,8 21,6.65685425 21,5 C21,3.34314575 19.6568542,2 18,2 C16.3431458,2 15,3.34314575 15,5 C15,5.24 15.04,5.47 15.09,5.7 L8.04,9.81 C7.5,9.31 6.79,9 6,9 C4.34314575,9 3,10.3431458 3,12 C3,13.6568542 4.34314575,15 6,15 C6.79,15 7.5,14.69 8.04,14.19 L15.16,18.34 C15.11,18.55 15.08,18.77 15.08,19 C15.08,20.61 16.39,21.91 18,21.91 C19.61,21.91 20.92,20.61 20.92,19 C20.92,17.3873285 19.6126715,16.08 18,16.08 Z" id="Path" fill="#F0F8FF"></path>
                    </g>
                </g>
            </g>
        </g>
    </g>
</svg>