<?xml version="1.0" encoding="UTF-8"?>
<svg width="24px" height="24px" viewBox="0 0 24 24" version="1.1" xmlns="http://www.w3.org/2000/svg" xmlns:xlink="http://www.w3.org/1999/xlink">
    <!-- Generator: Sketch 53 (72520) - https://sketchapp.com -->
    <title>icn-gen2-24</title>
    <desc>Created with Sketch.</desc>
    <defs>
        <linearGradient x1="21.875%" y1="0%" x2="78.125%" y2="100%" id="linearGradient-1">
            <stop stop-color="#9C53FF" offset="0%"></stop>
            <stop stop-color="#7361D8" offset="33.7090386%"></stop>
            <stop stop-color="#408F9C" offset="67.9020957%"></stop>
            <stop stop-color="#29A482" offset="100%"></stop>
        </linearGradient>
    </defs>
    <g id="Symbols" stroke="none" stroke-width="1" fill="none" fill-rule="evenodd">
        <g id="Icons-/-gen2">
            <g id="icon">
                <polygon id="Path" points="0 0 24 0 24 24 0 24"></polygon>
                <path d="M12.3725167,0.420519692 C12.7251463,0.816308258 21,10.2263346 21,15.0352547 C21,19.9777349 16.961917,24 12,24 C7.03805265,24 3,19.9777349 3,15.0352547 C3,10.2263346 11.2748233,0.816308258 11.6274833,0.420519692 L12,0 L12.3725167,0.420519692 Z M12.18,9 L10.2675,13.125 L6.06,15 L10.2675,16.875 L12.18,21 L14.0925,16.875 L18.3,15 L14.0925,13.125 L12.18,9 Z" id="Shape" fill="url(#linearGradient-1)"></path>
            </g>
        </g>
    </g>
</svg>