<?xml version="1.0" encoding="UTF-8"?>
<svg width="24px" height="24px" viewBox="0 0 24 24" version="1.1" xmlns="http://www.w3.org/2000/svg" xmlns:xlink="http://www.w3.org/1999/xlink">
    <!-- Generator: sketchtool 52.3 (67297) - http://www.bohemiancoding.com/sketch -->
    <title>86A10213-A75A-40E0-882B-F44ED3BD8CF2</title>
    <desc>Created with sketchtool.</desc>
    <g id="03---ui" stroke="none" stroke-width="1" fill="none" fill-rule="evenodd">
        <g id="10-buy-horse-unsuported-browser" transform="translate(-711.000000, -643.000000)">
            <g id="Group-21" transform="translate(524.000000, 286.000000)">
                <g id="Group" transform="translate(64.000000, 164.000000)">
                    <g id="Group-2" transform="translate(24.000000, 85.000000)">
                        <g id="icn-close-24" transform="translate(99.000000, 108.000000)">
                            <g id="icon">
                                <polygon id="bounds" points="0 0 24 0 24 24 0 24"></polygon>
                                <path d="M14,3 L14,5 L17.59,5 L7.76,14.83 L9.17,16.24 L19,6.41 L19,10 L21,10 L21,3 L14,3 Z M19,19 L5,19 L5,5 L12,5 L12,3 L5,3 C3.89,3 3,3.9 3,5 L3,19 C3,20.1045695 3.8954305,21 5,21 L19,21 C20.1045695,21 21,20.1045695 21,19 L21,12 L19,12 L19,19 Z" id="Shape" fill="#F0F8FF" fill-rule="nonzero"></path>
                            </g>
                        </g>
                    </g>
                </g>
            </g>
        </g>
    </g>
</svg>