<?xml version="1.0" encoding="UTF-8"?>
<svg width="24px" height="24px" viewBox="0 0 24 24" version="1.1" xmlns="http://www.w3.org/2000/svg" xmlns:xlink="http://www.w3.org/1999/xlink">
    <!-- Generator: sketchtool 52.3 (67297) - http://www.bohemiancoding.com/sketch -->
    <title>D9AAE7DF-2467-4197-A86D-31FB68130060</title>
    <desc>Created with sketchtool.</desc>
    <g id="03---ui" stroke="none" stroke-width="1" fill="none" fill-rule="evenodd">
        <g id="01-homepage-v2" transform="translate(-1129.000000, -189.000000)" fill="#F0F8FF" fill-rule="nonzero">
            <g id="dropdown-nav" transform="translate(854.000000, 78.000000)">
                <g id="Group-2" transform="translate(275.000000, 31.000000)">
                    <g id="Icons-/-icn-horse-24-Copy-3" transform="translate(0.000000, 80.000000)">
                        <g id="icn-reddit-24">
                            <path d="M22,12.1491667 C22,10.9333333 21.0066667,9.945 19.7858333,9.945 C19.19,9.945 18.65,10.1833333 18.2525,10.5666667 C16.7441667,9.57416667 14.7033333,8.9425 12.4433333,8.86166667 L13.6791667,4.97083333 L17.0258333,5.755 L17.0208333,5.80333333 C17.0208333,6.7975 17.8333333,7.60583333 18.8325,7.60583333 C19.8308333,7.60583333 20.6425,6.7975 20.6425,5.80333333 C20.6425,4.80916667 19.83,4 18.8325,4 C18.0658333,4 17.4125,4.47833333 17.1483333,5.14916667 L13.5408333,4.30333333 C13.3833333,4.265 13.2233333,4.35583333 13.1741667,4.51083333 L11.7958333,8.85 C9.43083333,8.87833333 7.28833333,9.515 5.7125,10.5375 C5.3175,10.1725 4.79333333,9.94416667 4.21333333,9.94416667 C2.9925,9.94416667 2,10.9333333 2,12.1491667 C2,12.9575 2.44416667,13.6583333 3.0975,14.0416667 C3.05416667,14.2766667 3.02583333,14.5141667 3.02583333,14.7558333 C3.02583333,18.015 7.0325,20.6666667 11.9583333,20.6666667 C16.8841667,20.6666667 20.8916667,18.015 20.8916667,14.7558333 C20.8916667,14.5275 20.8675,14.3025 20.8291667,14.0808333 C21.5225,13.7083333 22,12.9875 22,12.1491667 Z M7.64666667,13.6625 C7.64666667,12.9391667 8.23833333,12.35 8.965,12.35 C9.69166667,12.35 10.2825,12.9391667 10.2825,13.6625 C10.2825,14.3858333 9.69166667,14.9741667 8.965,14.9741667 C8.23833333,14.9741667 7.64666667,14.3858333 7.64666667,13.6625 Z M15.1975,17.5533333 C14.5333333,18.2141667 13.4908333,18.5358333 12.0108333,18.5358333 L12,18.5333333 L11.9891667,18.5358333 C10.5083333,18.5358333 9.46583333,18.2141667 8.8025,17.5533333 C8.68166667,17.4333333 8.68166667,17.2375 8.8025,17.1175 C8.92333333,16.9966667 9.12,16.9966667 9.24083333,17.1175 C9.7825,17.6566667 10.6816667,17.9183333 11.9891667,17.9183333 L12,17.9208333 L12.0108333,17.9183333 C13.3183333,17.9183333 14.2175,17.6558333 14.7591667,17.1166667 C14.88,16.9958333 15.0766667,16.9966667 15.1975,17.1166667 C15.3183333,17.2375 15.3183333,17.4325 15.1975,17.5533333 Z M15.04,14.9741667 C14.3133333,14.9741667 13.7225,14.3858333 13.7225,13.6625 C13.7225,12.9391667 14.3133333,12.35 15.04,12.35 C15.7666667,12.35 16.3575,12.9391667 16.3575,13.6625 C16.3575,14.3858333 15.7666667,14.9741667 15.04,14.9741667 Z" id="logo"></path>
                        </g>
                    </g>
                </g>
            </g>
        </g>
    </g>
</svg>