<?xml version="1.0" encoding="UTF-8"?>
<svg width="24px" height="24px" viewBox="0 0 24 24" version="1.1" xmlns="http://www.w3.org/2000/svg" xmlns:xlink="http://www.w3.org/1999/xlink">
    <!-- Generator: Sketch 54.1 (76490) - https://sketchapp.com -->
    <title>icn-info-warning-24</title>
    <desc>Created with Sketch.</desc>
    <g id="Symbols" stroke="none" stroke-width="1" fill="none" fill-rule="evenodd">
        <g id="Icons-/-info-warning">
            <g id="information-outline">
                <polygon id="Path" points="0 0 24 0 24 24 0 24"></polygon>
                <path d="M11,11 L13,11 L13,9 L11,9 L11,11 Z M11,18 L13,18 L13,13 L11,13 L11,18 Z" id="Shape" fill="#FFA700" fill-rule="nonzero"></path>
                <path d="M4.09977259,22 L19.9002274,22 C22.2869529,22 23.7719162,19.3994349 22.5825969,17.3271629 L14.6824296,3.5580481 C13.4901888,1.48068552 10.5098112,1.48068552 9.31763048,3.55794344 L1.41734301,17.3272676 C0.228083837,19.3994349 1.71304711,22 4.09977259,22 Z M4.09977259,20 C3.25710817,20 2.72460161,19.0674396 3.15202434,18.3226975 L11.0523118,4.55337333 C11.4757882,3.81550733 12.5242118,3.81550733 12.9477483,4.553478 L20.8479156,18.3225928 C21.2753984,19.0674396 20.7428918,20 19.9002274,20 L4.09977259,20 Z" id="Shape" fill="#FFA700" fill-rule="nonzero"></path>
            </g>
        </g>
    </g>
</svg>