<?xml version="1.0" encoding="UTF-8"?>
<svg width="24px" height="24px" viewBox="0 0 24 24" version="1.1" xmlns="http://www.w3.org/2000/svg" xmlns:xlink="http://www.w3.org/1999/xlink">
    <!-- Generator: Sketch 53 (72520) - https://sketchapp.com -->
    <title>icn-user-cowboy-black-24</title>
    <desc>Created with Sketch.</desc>
    <g id="Symbols" stroke="none" stroke-width="1" fill="none" fill-rule="evenodd">
        <g id="Icons-/-user-cowboy-black">
            <g id="icn-user-24">
                <polygon id="Path" points="0 0 24 0 24 24 0 24"></polygon>
                <path d="M9,13.75 C8.31,13.75 7.75,14.31 7.75,15 C7.75,15.69 8.31,16.25 9,16.25 C9.69,16.25 10.25,15.69 10.25,15 C10.25,14.31 9.69,13.75 9,13.75 Z M15,13.75 C14.31,13.75 13.75,14.31 13.75,15 C13.75,15.69 14.31,16.25 15,16.25 C15.69,16.25 16.25,15.69 16.25,15 C16.25,14.31 15.69,13.75 15,13.75 Z M12,4 C6.48,4 2,8.48 2,14 C2,19.52 6.48,24 12,24 C17.52,24 22,19.52 22,14 C22,8.48 17.52,4 12,4 Z M12,22 C7.59,22 4,18.41 4,14 C4,13.71 4.02,13.42 4.05,13.14 C5.08206754,12.6808174 6.02042456,12.0533384 6.83161706,11.2926897 C7.04490859,11.0926879 5.17706926,10.3813455 4.80078125,9.53289586 C4.39931055,8.62766456 5.48561206,7.58140469 5.67163086,7.33032227 C6.01392974,6.86829783 8.6820083,8.98571591 8.94224192,8.46772389 C9.05667016,8.2399558 9.16271994,8.00724423 9.26,7.77 C10.3847676,9.36083151 17.514137,7.05370986 19.3553467,7.77 C20.4770509,8.20637923 16.1441805,12 17.42,12 C18.2,12 18.95,11.91 19.67,11.74 C19.88,12.45 20,13.21 20,14 C20,18.41 16.41,22 12,22 Z" id="Shape" fill="#F0F8FF" fill-rule="nonzero"></path>
                <path d="M22.3716,5.610731 C21.694,5.610731 20.852,5.80379687 19.6956,6.10618148 L17.9944,2.0358459 C17.8996,1.57971182 17.5292,1.19166222 17.0036,0.997317774 C16.5072,0.813841275 15.888,0.854436249 15.3832,1.09864539 L14.1756,1.68167872 C12.8628,2.31585533 11.1372,2.31585533 9.824,1.68167872 L8.6172,1.09864539 C8.1116,0.854436249 7.4924,0.81416092 6.9968,0.997317774 C6.4708,1.19166222 6.1004,1.57971182 6.0104,2.01538859 L4.3044,6.10618148 C3.148,5.80379687 2.306,5.610731 1.6284,5.610731 C0.548,5.610731 6.03961325e-14,6.11736907 6.03961325e-14,7.11658081 C6.03961325e-14,9.10957031 2.1252,10.8685793 5.3456,11.9016735 C9.824,13.1611549 14.3027472,13.2586771 18.6544,11.9016735 C21.8748,10.8685793 24,9.10957031 24,7.11658081 C24,6.11736907 23.452,5.610731 22.3716,5.610731 Z M5.76229476,7.71971627 L6.70140594,8.16671999 C8.46961917,9.06292761 10.2671682,9.51726528 12.0449155,9.51726528 C13.8241297,9.51726528 15.5938097,9.06219422 17.2923505,8.17075366 L18.2391623,7.71971627 L18.6084263,9.29871383 L16.9641566,10.0816121 C13.7529905,11.7669518 10.3683766,11.770252 7.02483275,10.0753782 L5.39339751,9.29871383 L5.76229476,7.71971627 L5.76229476,7.71971627 Z" id="Shape-Copy" fill="#F0F8FF" fill-rule="nonzero"></path>
            </g>
        </g>
    </g>
</svg>