<?xml version="1.0" encoding="UTF-8"?>
<svg width="24px" height="24px" viewBox="0 0 24 24" version="1.1" xmlns="http://www.w3.org/2000/svg" xmlns:xlink="http://www.w3.org/1999/xlink">
    <!-- Generator: sketchtool 52.3 (67297) - http://www.bohemiancoding.com/sketch -->
    <title>4C7664DA-9462-441D-9583-E8299126440C</title>
    <desc>Created with sketchtool.</desc>
    <g id="00---stylesheet" stroke="none" stroke-width="1" fill="none" fill-rule="evenodd">
        <g id="99-styleboard" transform="translate(-1706.000000, -847.000000)">
            <g id="icon15-copy-4" transform="translate(1706.000000, 847.000000)">
                <g id="icon">
                    <rect id="placeholder" x="0" y="0" width="24" height="24"></rect>
                    <path d="M16.8696691,10.5 L16.8374654,10.4797921 L16.7103942,10.4276557 L16.6633194,10.4062353 L16.6769598,10.3793587 L16.7815705,10.2379033 L16.8134665,10.178492 L16.922795,9.856782 L16.9330509,9.78605429 L16.9313074,9.68430743 L16.9162312,9.46202034 L16.8790021,9.12464917 L16.8337733,8.71988459 L16.8030054,8.4210095 L16.5672211,8.03614972 L16.4074333,8.53488111 L16.3582048,8.76727216 L16.3029252,9.15122258 L16.2490814,9.52506904 L16.1899046,9.92538788 L16.0832427,9.98176797 L16.0445777,10.0171318 L15.8971997,10.2697308 L15.8860207,10.3202506 L15.8872514,10.3734984 L15.8748417,10.3793587 L15.3305583,10.4085592 L15.3372246,10.3834003 L15.4161955,10.2380044 L15.4594756,10.1925365 L15.5312673,10.1143319 L15.7012084,9.84738532 L15.7938197,9.48222826 L15.947659,8.66774816 L15.9673504,8.56782001 L15.9646838,8.48698835 L15.8327923,7.93015919 L15.7431553,7.66887083 L15.5121912,7.1287132 L15.3917863,6.67888497 L14.9093463,6.09012731 L14.8518104,6.10871859 L14.3115268,6.30412915 L14.0698965,6.42062779 L13.6494025,6.64230864 L13.3919781,6.71687586 L12.9202042,6.79012956 L12.7101623,6.8139749 L12.396125,6.83862856 L12.3274101,6.84145766 L11.6135958,6.84145766 L11.3105324,6.84145766 L11.2605859,6.84883355 L11.4637564,8.16012529 L11.4624231,8.26116487 L11.4185276,8.51437007 L11.4234505,8.5859061 L11.7438464,9.73634282 L11.6976946,9.76907964 L11.6669268,9.81080899 L11.5905199,10.0563352 L11.5988273,10.1156454 L11.6911308,10.2588185 L11.7022073,10.3356086 L11.5093953,10.3792577 L11.3155578,10.3863305 L11.2191519,10.3741047 L11.1160796,10.3414689 L11.0770044,10.3260098 L11.0966958,10.3010531 L11.162539,10.2355794 L11.1880763,10.1951636 L11.2605859,9.92831803 L11.2635602,9.89012506 L11.2217159,9.48990727 L11.1939222,9.35269551 L11.041929,8.8158722 L11.0111612,8.72412825 L10.8654241,8.35361609 L10.7709667,8.58792689 L10.7621466,8.64976312 L10.7776331,8.94510183 L10.7925042,9.18709163 L10.8209132,9.583672 L10.8390663,9.8562768 L10.7657362,9.89457081 L10.722251,9.93225857 L10.5446179,10.1943553 L10.5343619,10.2529582 L10.5612325,10.3512697 L10.5731294,10.4010822 L10.5445153,10.4073467 L10.4119058,10.4034062 L10.392317,10.4034062 L10.1631417,10.4103779 L9.99771322,10.4204818 L10.0053026,10.3973438 L10.0993497,10.2381054 L10.1403735,10.1969823 L10.2310362,10.09665 L10.3103147,9.96822866 L10.3308266,9.93316793 L10.3000587,9.89275209 L10.3670301,9.61691403 L10.377286,9.56023082 L10.3760553,9.08534477 L10.3657994,8.99440914 L10.3034432,8.58216764 L10.2801622,8.35058491 L10.2439587,7.96926151 L10.221293,7.72787794 L10.2138062,7.68523924 L9.92828042,6.70717606 L9.88089792,6.65018973 L9.53153483,6.44144195 L9.47440917,6.38405146 L9.37595202,6.20511036 L9.35738875,6.13135146 L9.35810666,5.94705526 L9.34651744,5.81226845 L9.25134219,5.29696657 L9.19596005,5.18026585 L8.88828146,4.81460359 L8.3215375,4.16916272 L8.04647284,3.85846599 L7.98801391,3.80713789 L7.79684295,3.67881761 L7.7597164,3.65527539 L7.65623384,3.7099378 L7.24558548,3.95758583 L7.0574913,4.00497339 L6.90847231,4.0616566 L6.76099171,4.12137099 L6.75381254,4.2038193 L6.71730135,4.29081438 L6.65638099,4.36154209 L6.31444752,4.36154209 L6.15065995,4.31880234 L6.12071257,4.30314121 L6.09086774,4.27798235 L6.05456167,4.22261266 L6.03733167,4.16198891 L6.03076786,4.12915104 L6.02225542,3.97445944 L6.02215286,3.87614792 L6.06892,3.70266295 L6.08256042,3.66659182 L6.28983323,3.27021353 L6.34839472,3.19342345 L6.43762151,3.10329614 L6.66438063,2.81028134 L6.68140551,2.76127714 L6.68048248,2.63043088 L6.7265317,2.49907942 L6.76119683,2.43603072 L6.79975921,2.31599569 L6.83821903,2.25537194 L6.95169067,2.03347778 L6.95169067,1.47393799 L7.26712298,1.90830096 L7.32158209,1.88627433 L7.32158209,1.33651733 L7.5982877,1.82546997 L7.7597164,1.88627433 L7.93722534,1.97341919 L8.13795594,2.08805039 L8.25856595,2.12998181 L8.29323107,2.14685542 L8.35312584,2.17777354 L9.23062517,2.4497721 L9.45235887,2.54030357 L9.54004727,2.56465411 L9.685169,2.63598805 L9.94854187,2.75612412 L10.0054624,2.80745223 L10.2823731,2.96578126 L10.3541648,3.00821789 L10.6413315,3.19635359 L10.7131232,3.22666547 L11.0605948,3.2933516 L11.1868456,3.312246 L11.3453001,3.3418506 L11.6940025,3.47269686 L12.0324489,3.6177897 L12.1430081,3.65820554 L12.4609427,3.74328087 L12.5239142,3.75045468 L12.7303665,3.74136112 L13.2661375,3.71721265 L13.3718764,3.70266295 L14.6929457,3.39560366 L14.7749933,3.37974044 L15.2021538,3.35266183 L15.270561,3.3564003 L15.8368947,3.45683364 L15.9163783,3.48128522 L16.4917373,3.73337899 L16.8640284,3.87392505 L17.0501739,4.12975728 L17.2254481,4.45520578 L17.2822661,4.77822934 L17.3488273,5.3072726 L17.3911843,5.94988437 L17.4270802,6.12528909 L17.5,6.44548353 L17.5,6.51338213 L17.4921029,7.13134023 L17.5,7.18266834 L17.5,7.48336215 L17.4886159,7.51943328 L17.4843084,7.5725801 L17.4574378,7.76940521 L17.4212343,7.91379078 L17.3813386,8.04726407 L17.2735486,8.53033433 L17.2946758,8.79121854 L17.3294435,9.21144217 L17.3764158,9.62570447 L17.4139526,9.74008128 L17.4329261,9.79060107 L17.3452377,9.83495745 L17.2853429,9.89487393 L17.1833987,10.1153423 L17.1781682,10.1943553 L17.2365246,10.4046186 L17.2421653,10.4338191 L17.2121154,10.4420033 L16.9609471,10.4893908 L16.9289485,10.4994948 L16.8696691,10.5 Z M22.6761422,21.3365173 L22.644513,21.3166699 L22.5197088,21.2654637 L22.4734738,21.2444254 L22.4868709,21.2180284 L22.5896153,21.0790966 L22.6209423,21.0207453 L22.7283202,20.7047748 L22.7383932,20.6353089 L22.7366808,20.5353773 L22.7218735,20.3170559 L22.6853086,19.9857037 L22.6408868,19.5881604 L22.6106678,19.2946174 L22.37909,18.9166238 L22.222153,19.4064575 L22.1738027,19.6347025 L22.1195093,20.011803 L22.0666262,20.3789798 L22.0085051,20.7721567 L21.9037461,20.8275309 L21.865771,20.8622638 L21.7210222,21.1103563 L21.7100427,21.1599748 L21.7112514,21.2122726 L21.6990631,21.2180284 L21.1644901,21.2467079 L21.1710375,21.2219979 L21.2485995,21.0791959 L21.2911075,21.0345392 L21.3616183,20.9577298 L21.5285276,20.6955457 L21.6194866,20.3369033 L21.7705813,19.5369541 L21.7899214,19.4388087 L21.7873024,19.3594192 L21.6577639,18.8125242 L21.5697261,18.5558974 L21.3428826,18.0253766 L21.2246258,17.5835736 L20.7507928,17.0053197 L20.6942834,17.0235793 L20.1636388,17.2155036 L19.9263194,17.3299239 L19.5133272,17.5476498 L19.2604954,17.6208867 L18.7971384,17.6928335 L18.5908437,17.7162534 L18.2824091,17.7404672 L18.2149201,17.7432458 L17.5138407,17.7432458 L17.2161842,17.7432458 L17.1671288,17.7504901 L17.3666745,19.0383876 L17.365365,19.1376245 L17.3222527,19.3863124 L17.3270877,19.4565722 L17.6417676,20.5864843 L17.5964392,20.6186371 L17.5662202,20.659622 L17.4911765,20.9007678 L17.4993356,20.9590199 L17.5899925,21.0996387 L17.6008713,21.1750588 L17.4114993,21.2179292 L17.2211199,21.2248757 L17.1264339,21.2128681 L17.0252005,21.1808145 L16.9868224,21.1656313 L17.0061626,21.1411197 L17.0708311,21.0768142 L17.0959128,21.0371194 L17.1671288,20.7750346 L17.1700499,20.737523 L17.1289522,20.3444453 L17.1016544,20.2096815 L16.9523728,19.6824355 L16.9221539,19.5923283 L16.7790169,19.2284264 L16.6862447,19.4585569 L16.677582,19.5192899 L16.6927922,19.8093596 L16.707398,20.0470321 L16.7353001,20.4365372 L16.7531293,20.7042786 L16.6811075,20.7418894 L16.6383981,20.7789048 L16.4639341,21.0363255 L16.4538611,21.0938829 L16.4802523,21.1904405 L16.4919369,21.2393643 L16.4638333,21.245517 L16.3335897,21.2416468 L16.3143503,21.2416468 L16.0892637,21.2484941 L15.9267866,21.2584178 L15.9342406,21.2356926 L16.0266098,21.0792951 L16.0669017,21.0389057 L16.1559469,20.9403633 L16.233811,20.8142332 L16.253957,20.7797979 L16.223738,20.7401031 L16.2895146,20.4691862 L16.2995875,20.4135143 L16.2983788,19.9471005 L16.2883058,19.8577872 L16.2270621,19.4529004 L16.2041964,19.2254492 L16.1686388,18.8509289 L16.1463775,18.6138518 L16.1390243,18.5719738 L15.8585925,17.6113599 L15.8120553,17.5553903 L15.4689251,17.3503667 L15.4128186,17.2940001 L15.316118,17.1182514 L15.2978859,17.0458084 L15.298591,16.8648002 L15.2872085,16.7324181 L15.1937313,16.2263095 L15.1393372,16.1116908 L14.8371478,15.7525522 L14.2805149,15.1186264 L14.0103576,14.8134727 L13.9529416,14.7630604 L13.7651813,14.6370294 L13.7287171,14.6139072 L13.6270807,14.6675944 L13.2237586,14.9108242 L13.0390202,14.9573664 L12.8926598,15.0130383 L12.7478103,15.0716873 L12.7407592,15.1526647 L12.7048994,15.2381077 L12.6450659,15.3075736 L12.3092328,15.3075736 L12.1483673,15.2655964 L12.1189542,15.2502147 L12.0896418,15.2255046 L12.0539835,15.1711228 L12.0370609,15.1115806 L12.0306142,15.0793286 L12.0222536,14.9273968 L12.0221529,14.8308392 L12.0680856,14.6604493 L12.0814827,14.6250217 L12.2850576,14.2357151 L12.3425743,14.160295 L12.4302093,14.0717756 L12.6529229,13.7839884 L12.669644,13.7358585 L12.6687374,13.6073466 L12.7139651,13.4783385 L12.7480118,13.4164147 L12.7858862,13.2985211 L12.8236599,13.238979 L12.9351071,13.0210435 L12.9351071,12.4714863 L13.2449119,12.8981 L13.2983994,12.8764663 L13.2983994,12.3365173 L13.5701684,12.8167467 L13.7287171,12.8764663 L13.9030592,12.9620564 L14.1002086,13.0746425 L14.2186668,13.1158259 L14.2527135,13.1323984 L14.3115397,13.162765 L15.1733839,13.4299109 L15.3911617,13.5188272 L15.4772857,13.5427433 L15.6198183,13.6128046 L15.8784925,13.7307974 L15.9343975,13.7812098 L16.206368,13.9367141 L16.2768788,13.9783936 L16.5589223,14.1631729 L16.6294331,14.192944 L16.9707057,14.2584404 L17.094704,14.2769977 L17.2503316,14.3060741 L17.5928129,14.434586 L17.9252212,14.5770903 L18.033808,14.6167851 L18.3460703,14.7003426 L18.4079184,14.7073884 L18.6106875,14.6984571 L19.1369,14.6747395 L19.2407524,14.6604493 L20.5382529,14.3588682 L20.6188368,14.343288 L21.0383764,14.3166925 L21.1055632,14.3203642 L21.6617931,14.4190058 L21.7398587,14.4430211 L22.3049529,14.6906174 L22.670602,14.828656 L22.8534266,15.079924 L23.0255739,15.3995663 L23.0813782,15.7168269 L23.1467518,16.2364317 L23.1883532,16.8675788 L23.2236086,17.0398542 L23.2952275,17.3543362 L23.2952275,17.4210234 L23.2874713,18.0279567 L23.2952275,18.0783691 L23.2952275,18.3736983 L23.2840465,18.4091259 L23.2798159,18.4613246 L23.2534247,18.6546382 L23.217867,18.7964478 L23.1786831,18.9275399 L23.0728161,19.4019918 L23.0935665,19.6582217 L23.1277139,20.0709482 L23.1738481,20.4778198 L23.2107152,20.5901561 L23.2293502,20.6397746 L23.1432263,20.6833396 L23.0844001,20.7421871 L22.9842746,20.9587222 L22.9791374,21.0363255 L23.0364527,21.2428376 L23.0419928,21.2715171 L23.012479,21.2795553 L22.7657917,21.3260975 L22.734364,21.3360211 L22.6761422,21.3365173 Z M10.6761422,21.3365173 L10.644513,21.3166699 L10.5197088,21.2654637 L10.4734738,21.2444254 L10.4868709,21.2180284 L10.5896153,21.0790966 L10.6209423,21.0207453 L10.7283202,20.7047748 L10.7383932,20.6353089 L10.7366808,20.5353773 L10.7218735,20.3170559 L10.6853086,19.9857037 L10.6408868,19.5881604 L10.6106678,19.2946174 L10.37909,18.9166238 L10.222153,19.4064575 L10.1738027,19.6347025 L10.1195093,20.011803 L10.0666262,20.3789798 L10.0085051,20.7721567 L9.90374609,20.8275309 L9.86577095,20.8622638 L9.72102223,21.1103563 L9.71004268,21.1599748 L9.71125144,21.2122726 L9.69906314,21.2180284 L9.1644901,21.2467079 L9.17103753,21.2219979 L9.24859948,21.0791959 L9.29110745,21.0345392 L9.36161831,20.9577298 L9.52852759,20.6955457 L9.6194866,20.3369033 L9.77058129,19.5369541 L9.78992141,19.4388087 L9.78730244,19.3594192 L9.65776392,18.8125242 L9.56972607,18.5558974 L9.34288257,18.0253766 L9.22462579,17.5835736 L8.75079281,17.0053197 L8.6942834,17.0235793 L8.16363882,17.2155036 L7.92631941,17.3299239 L7.51332724,17.5476498 L7.26049545,17.6208867 L6.79713837,17.6928335 L6.59084375,17.7162534 L6.2824091,17.7404672 L6.21492014,17.7432458 L5.51384074,17.7432458 L5.21618419,17.7432458 L5.16712877,17.7504901 L5.3666745,19.0383876 L5.36536502,19.1376245 L5.32225266,19.3863124 L5.32708769,19.4565722 L5.64176758,20.5864843 L5.59643917,20.6186371 L5.56622024,20.659622 L5.49117654,20.9007678 L5.49933565,20.9590199 L5.58999247,21.0996387 L5.60087129,21.1750588 L5.41149926,21.2179292 L5.22111995,21.2248757 L5.12643394,21.2128681 L5.02520049,21.1808145 L4.98682243,21.1656313 L5.00616256,21.1411197 L5.07083109,21.0768142 L5.09591281,21.0371194 L5.16712877,20.7750346 L5.17004994,20.737523 L5.12895218,20.3444453 L5.1016544,20.2096815 L4.95237284,19.6824355 L4.9221539,19.5923283 L4.77901686,19.2284264 L4.68624472,19.4585569 L4.67758195,19.5192899 L4.69279215,19.8093596 L4.70739797,20.0470321 L4.73530013,20.4365372 L4.7531293,20.7042786 L4.6811075,20.7418894 L4.63839806,20.7789048 L4.46393405,21.0363255 L4.45386107,21.0938829 L4.48025228,21.1904405 L4.49193693,21.2393643 L4.46383332,21.245517 L4.33358969,21.2416468 L4.3143503,21.2416468 L4.08926373,21.2484941 L3.92678657,21.2584178 L3.93424057,21.2356926 L4.0266098,21.0792951 L4.06690172,21.0389057 L4.15594686,20.9403633 L4.23381099,20.8142332 L4.25395695,20.7797979 L4.22373801,20.7401031 L4.28951457,20.4691862 L4.29958755,20.4135143 L4.29837879,19.9471005 L4.28830581,19.8577872 L4.22706209,19.4529004 L4.20419643,19.2254492 L4.16863881,18.8509289 L4.14637753,18.6138518 L4.13902425,18.5719738 L3.85859249,17.6113599 L3.81205533,17.5553903 L3.4689251,17.3503667 L3.4128186,17.2940001 L3.316118,17.1182514 L3.2978859,17.0458084 L3.29859101,16.8648002 L3.28720855,16.7324181 L3.19373129,16.2263095 L3.1393372,16.1116908 L2.83714781,15.7525522 L2.28051494,15.1186264 L2.01035762,14.8134727 L1.95294164,14.7630604 L1.76518129,14.6370294 L1.7287171,14.6139072 L1.62708074,14.6675944 L1.22375862,14.9108242 L1.03902017,14.9573664 L0.892659777,15.0130383 L0.747810326,15.0716873 L0.74075924,15.1526647 L0.704899432,15.2381077 L0.645065932,15.3075736 L0.309232784,15.3075736 L0.148367296,15.2655964 L0.118954195,15.2502147 L0.0896418233,15.2255046 L0.0539834746,15.1711228 L0.0370608685,15.1115806 L0.0306141614,15.0793286 L0.0222535881,14.9273968 L0.0221528583,14.8308392 L0.0680856464,14.6604493 L0.0814827096,14.6250217 L0.285057632,14.2357151 L0.342574347,14.160295 L0.430209272,14.0717756 L0.652922856,13.7839884 L0.669644003,13.7358585 L0.668737435,13.6073466 L0.713965114,13.4783385 L0.748011786,13.4164147 L0.78588619,13.2985211 L0.823659865,13.238979 L0.935107097,13.0210435 L0.935107097,12.4714863 L1.24491188,12.8981 L1.2983994,12.8764663 L1.2983994,12.3365173 L1.5701684,12.8167467 L1.7287171,12.8764663 L1.90305917,12.9620564 L2.1002086,13.0746425 L2.21866684,13.1158259 L2.25271352,13.1323984 L2.31153972,13.162765 L3.17338387,13.4299109 L3.3911617,13.5188272 L3.47728567,13.5427433 L3.61981834,13.6128046 L3.87849246,13.7307974 L3.9343975,13.7812098 L4.20636796,13.9367141 L4.27687882,13.9783936 L4.55892225,14.1631729 L4.62943311,14.192944 L4.97070567,14.2584404 L5.09470405,14.2769977 L5.25033159,14.3060741 L5.5928129,14.434586 L5.92522124,14.5770903 L6.03380796,14.6167851 L6.34607033,14.7003426 L6.40791843,14.7073884 L6.61068752,14.6984571 L7.13689998,14.6747395 L7.2407524,14.6604493 L8.53825294,14.3588682 L8.61883678,14.343288 L9.03837639,14.3166925 L9.10556316,14.3203642 L9.66179311,14.4190058 L9.7398587,14.4430211 L10.3049529,14.6906174 L10.670602,14.828656 L10.8534266,15.079924 L11.0255739,15.3995663 L11.0813782,15.7168269 L11.1467518,16.2364317 L11.1883532,16.8675788 L11.2236086,17.0398542 L11.2952275,17.3543362 L11.2952275,17.4210234 L11.2874713,18.0279567 L11.2952275,18.0783691 L11.2952275,18.3736983 L11.2840465,18.4091259 L11.2798159,18.4613246 L11.2534247,18.6546382 L11.217867,18.7964478 L11.1786831,18.9275399 L11.0728161,19.4019918 L11.0935665,19.6582217 L11.1277139,20.0709482 L11.1738481,20.4778198 L11.2107152,20.5901561 L11.2293502,20.6397746 L11.1432263,20.6833396 L11.0844001,20.7421871 L10.9842746,20.9587222 L10.9791374,21.0363255 L11.0364527,21.2428376 L11.0419928,21.2715171 L11.012479,21.2795553 L10.7657917,21.3260975 L10.734364,21.3360211 L10.6761422,21.3365173 Z" fill="#F0F8FF" fill-rule="nonzero"></path>
                </g>
            </g>
        </g>
    </g>
</svg>