<?xml version="1.0" encoding="UTF-8"?>
<svg width="24px" height="24px" viewBox="0 0 24 24" version="1.1" xmlns="http://www.w3.org/2000/svg" xmlns:xlink="http://www.w3.org/1999/xlink">
    <!-- Generator: sketchtool 52.3 (67297) - http://www.bohemiancoding.com/sketch -->
    <title>B7977DF0-2572-4BD4-BA7D-84D7D2DCAF77</title>
    <desc>Created with sketchtool.</desc>
    <g id="03---ui" stroke="none" stroke-width="1" fill="none" fill-rule="evenodd" opacity="0.639999986">
        <g id="05-stable-action" transform="translate(-1716.000000, -596.000000)">
            <g id="Group-21-Copy-7" transform="translate(1300.000000, 142.000000)">
                <g id="Group-20-Copy-8" transform="translate(64.000000, 444.000000)">
                    <g id="icon7" transform="translate(352.000000, 10.000000)">
                        <g id="icon">
                            <polygon id="bounds" points="0 0 24 0 24 24 0 24"></polygon>
                            <path d="M8.12132034,9.94974747 L15.1923882,9.94974747 C15.5829124,9.55922318 16.2160774,9.55922318 16.6066017,9.94974747 C16.997126,10.3402718 16.997126,10.9734367 16.6066017,11.363961 L12.363961,15.6066017 C11.9734367,15.997126 11.3402718,15.997126 10.9497475,15.6066017 L6.70710678,11.363961 C6.31658249,10.9734367 6.31658249,10.3402718 6.70710678,9.94974747 C7.09763107,9.55922318 7.73079605,9.55922318 8.12132034,9.94974747 Z" id="Path" fill="#F0F8FF" fill-rule="nonzero"></path>
                            <polygon id="Rectangle" fill="#F0F8FF" points="7.39261068 9.65559387 15.916748 9.65559387 15.916748 11 7.39261068 11"></polygon>
                        </g>
                    </g>
                </g>
            </g>
        </g>
    </g>
</svg>