<?xml version="1.0" encoding="UTF-8"?>
<svg width="24px" height="24px" viewBox="0 0 24 24" version="1.1" xmlns="http://www.w3.org/2000/svg" xmlns:xlink="http://www.w3.org/1999/xlink">
    <!-- Generator: sketchtool 52.3 (67297) - http://www.bohemiancoding.com/sketch -->
    <title>F5E82C67-FC7A-4E31-BBA2-B197E63F487F</title>
    <desc>Created with sketchtool.</desc>
    <g id="03---ui" stroke="none" stroke-width="1" fill="none" fill-rule="evenodd" opacity="0.319999993">
        <g id="09-activity" transform="translate(-436.000000, -398.000000)">
            <g id="Group-3" transform="translate(420.000000, 382.000000)">
                <g id="Icons-/-status-/-icn-confirm-Copy-2" transform="translate(16.000000, 16.000000)">
                    <g id="radiobox-marked">
                        <polygon id="bounds" points="0 0 24 0 24 24 0 24"></polygon>
                        <path d="M12,2 C6.4771525,2 2,6.4771525 2,12 C2,14.6521649 3.0535684,17.195704 4.92893219,19.0710678 C6.80429597,20.9464316 9.3478351,22 12,22 C14.6521649,22 17.195704,20.9464316 19.0710678,19.0710678 C20.9464316,17.195704 22,14.6521649 22,12 C22,9.3478351 20.9464316,6.80429597 19.0710678,4.92893219 C17.195704,3.0535684 14.6521649,2 12,2 Z M12,4 C16.418278,4 20,7.581722 20,12 C20,16.418278 16.418278,20 12,20 C7.581722,20 4,16.418278 4,12 C4,7.581722 7.581722,4 12,4 Z" id="Shape" fill="#F0F8FF" fill-rule="nonzero"></path>
                        <path d="M8.5,16.6718756 L8.5,15.1542974 L15.5,15.1542974 L15.5,16.6718756 L8.5,16.6718756 Z M9.41979522,12.822266 L9.41979522,11.5214846 L14.5802048,11.5214846 L14.5802048,12.822266 L9.41979522,12.822266 Z M8.83447099,9.44140635 L8.83447099,8 L15.1715017,8 L15.1715017,9.44140635 L8.83447099,9.44140635 Z" id="Ξ" fill="#F0F8FF"></path>
                    </g>
                </g>
            </g>
        </g>
    </g>
</svg>