<?xml version="1.0" encoding="UTF-8"?>
<svg width="24px" height="24px" viewBox="0 0 24 24" version="1.1" xmlns="http://www.w3.org/2000/svg" xmlns:xlink="http://www.w3.org/1999/xlink">
    <!-- Generator: sketchtool 52.3 (67297) - http://www.bohemiancoding.com/sketch -->
    <title>EB590C9A-B0C5-4B27-A8A6-A1A369A4EE3A</title>
    <desc>Created with sketchtool.</desc>
    <g id="03---ui" stroke="none" stroke-width="1" fill="none" fill-rule="evenodd" opacity="0.319999993">
        <g id="09-activity" transform="translate(-436.000000, -902.000000)">
            <g id="Group-3-Copy-10" transform="translate(420.000000, 886.000000)">
                <g id="Icons-/-status-/-icn-confirm-Copy-3" transform="translate(16.000000, 16.000000)">
                    <g id="radiobox-marked">
                        <polygon id="bounds" points="0 0 24 0 24 24 0 24"></polygon>
                        <path d="M12,20 C7.581722,20 4,16.418278 4,12 C4,7.581722 7.581722,4 12,4 C14.1217319,4 16.1565632,4.84285472 17.6568542,6.34314575 C19.1571453,7.84343678 20,9.87826808 20,12 C20,16.418278 16.418278,20 12,20 Z M12,2 C6.4771525,2 2,6.4771525 2,12 C2,14.6521649 3.0535684,17.195704 4.92893219,19.0710678 C6.80429597,20.9464316 9.3478351,22 12,22 C14.6521649,22 17.195704,20.9464316 19.0710678,19.0710678 C20.9464316,17.195704 22,14.6521649 22,12 C22,9.3478351 20.9464316,6.80429597 19.0710678,4.92893219 C17.195704,3.0535684 14.6521649,2 12,2 Z" id="Shape" fill="#F0F8FF" fill-rule="nonzero"></path>
                        <polygon id="horse-copy-2" fill="#F0F8FF" fill-rule="nonzero" points="14.7038062 16.9101905 14.7879156 16.7426785 14.8304236 16.6980219 14.9009345 16.6212125 15.0678437 16.3590284 15.1588027 16.000386 15.1970801 15.1163566 15.1970801 14.4760069 15.1090422 14.2193801 14.9448472 13.90288 14.8265904 13.1630818 14.0991908 13.2748426 13.4911744 13.4158384 13.2383426 13.4890753 11.5748907 13.6114345 11.2772341 13.6114345 11.2281787 13.6186788 11.4277245 14.7018702 11.426415 14.8011072 11.3833026 15.049795 11.3881376 15.1200548 11.5075025 16.249967 11.4621741 16.2821198 11.4319551 16.3231046 11.3569114 16.5642505 11.3650705 16.6225026 11.4557273 16.7631213 11.4666062 16.8385414 11.2772341 16.8814118 11.0868548 16.8883584 10.0671109 16.9119768 9.90463371 16.9219005 9.91208771 16.8991752 10.0044569 16.7427778 10.0447489 16.7023883 10.133794 16.603846 10.2116581 16.4777158 10.2318041 16.4432806 10.2015852 16.4035858 10.2673617 16.1326689 10.2774347 16.0769969 10.2762259 15.6105832 10.266153 15.5212699 10.2049092 15.116383 10.1820436 14.8889319 10.146486 14.5144116 10.1242247 14.2773345 10.1168714 14.2354565 9.83643963 13.2748426 9.78990247 13.2188729 9.44677224 13.0138493 9.39066575 12.9574827 9.23712158 12.7817341 9.21888949 12.7092911 9.2195946 12.5282828 9.20821213 12.3959007 9.11473488 11.8897922 8.89313616 11.5999875 8.68768427 11.2982406 8.41752695 11.1408507 8.36011096 11.0904384 8.17235062 10.9644074 7.90189035 10.871303 7.37146634 10.9835601 6.85260715 11.2374093 6.79277365 11.3068752 6.4569405 11.3068752 6.29607501 11.1130317 6.26666191 11.0976499 6.18476859 10.9590159 6.17832188 10.9267639 6.1699613 10.7748321 6.16986057 10.4943219 6.21579336 10.323932 6.22919043 10.2885044 6.43276535 9.89919776 6.49028206 9.82377766 6.57791699 9.73525829 6.80063057 9.44747107 6.81735172 9.39934114 6.81644515 9.27082926 6.8957195 9.07989733 7.22604344 8.53994897 7.16986057 8.12472534 7.27014134 8.07025146 7.71787612 8.48022939 7.87642482 8.53994897 8.05076688 8.6255391 8.45924743 8.82624763 9.15123101 9.09339356 9.36900884 9.18230988 9.59766548 9.27628729 9.8563396 9.39428005 9.91224464 9.44469243 10.1842151 9.60019677 10.254726 9.6418763 10.5367694 9.82665554 10.9485528 9.92192303 11.0725512 9.94048034 11.2281787 9.96955677 11.57066 10.0980687 11.9030684 10.2405729 12.0116551 10.2802677 12.3239175 10.3638253 12.3857656 10.3708711 12.5885347 10.3619398 13.1147471 10.3382221 13.2185995 10.323932 14.5161001 10.0223508 14.5966839 10.0067706 15.0162235 9.98017513 15.0834103 9.9838469 15.1075413 10.0824884 15.1856069 10.1065038 15.7507011 10.3541 16.1163502 10.4921387 16.2991748 10.7434067 16.4713221 11.063049 16.5271264 11.3803096 16.5925 11.8999143 16.6341014 12.5310615 16.6693568 12.7033369 16.7409757 13.0178188 16.7409757 13.0845061 16.7332195 13.6914394 16.7409757 13.7418518 16.7409757 14.037181 16.7297947 14.0726086 16.7255641 14.1248072 16.6991729 14.3181209 16.6636152 14.4599305 16.6244313 14.5910225 16.5185643 15.0654745 16.5393147 15.3217043 16.5734621 15.7344309 16.6195963 16.1413025 16.6564634 16.2536387 16.6750984 16.3032572 16.5889745 16.3468223 16.5301483 16.4056698 16.4300228 16.6222049 16.4248856 16.6998082 16.4822009 16.9063203 16.487741 16.9349998 16.4582272 16.943038"></polygon>
                    </g>
                </g>
            </g>
        </g>
    </g>
</svg>