<?xml version="1.0" encoding="UTF-8"?>
<svg width="24px" height="24px" viewBox="0 0 24 24" version="1.1" xmlns="http://www.w3.org/2000/svg" xmlns:xlink="http://www.w3.org/1999/xlink">
    <!-- Generator: sketchtool 52.3 (67297) - http://www.bohemiancoding.com/sketch -->
    <title>81AD782F-39D9-4383-B7EC-FB0BE560EF0B</title>
    <desc>Created with sketchtool.</desc>
    <g id="03---ui" stroke="none" stroke-width="1" fill="none" fill-rule="evenodd">
        <g id="06-horse-direct-alien" transform="translate(-728.000000, -822.000000)">
            <g id="v2" transform="translate(420.000000, 670.000000)">
                <g id="Group" transform="translate(60.000000, 60.000000)">
                    <g id="Group-10" transform="translate(240.000000, 84.000000)">
                        <g id="img-copy-3">
                            <g id="icon-copy" transform="translate(8.000000, 8.000000)">
                                <g id="icon">
                                    <rect id="placeholder" x="0" y="0" width="24" height="24"></rect>
                                    <path d="M15.2,10.7 L16.6,16 L12,12.2 L7.4,16 L8.8,10.8 L4.6,7.3 L10,7 L12,2 L14,7 L19.4,7.3 L15.2,10.7 Z M14,19.1 L13,19.1 L13,16 L12,15 L11,16 L11,19.1 L10,19.1 C8.8954305,19.1 8,19.9954305 8,21.1 L8,22.1 L16,22.1 L16,21.1 C16,19.9954305 15.1045695,19.1 14,19.1 Z" id="Shape" fill="#F0F8FF" fill-rule="nonzero"></path>
                                </g>
                            </g>
                        </g>
                    </g>
                </g>
            </g>
        </g>
    </g>
</svg>