<?xml version="1.0" encoding="UTF-8"?>
<svg width="24px" height="24px" viewBox="0 0 24 24" version="1.1" xmlns="http://www.w3.org/2000/svg" xmlns:xlink="http://www.w3.org/1999/xlink">
    <!-- Generator: sketchtool 52.3 (67297) - http://www.bohemiancoding.com/sketch -->
    <title>C3C626C7-73E1-46F4-8ADE-8278AF77A8AB</title>
    <desc>Created with sketchtool.</desc>
    <g id="03---ui" stroke="none" stroke-width="1" fill="none" fill-rule="evenodd">
        <g id="10-buy-2" transform="translate(-1278.000000, -894.000000)">
            <g id="Group-2" transform="translate(420.000000, 842.000000)">
                <g id="Group" transform="translate(44.000000, 44.000000)">
                    <g id="Group-4" transform="translate(806.000000, 0.000000)">
                        <g id="img-bloodline">
                            <g id="icon-copy-3" transform="translate(8.000000, 8.000000)">
                                <g id="information-outline">
                                    <polygon id="Path" points="0 0 24 0 24 24 0 24"></polygon>
                                    <path d="M11.75,11.5 C9.40278981,11.5 7.5,9.59721019 7.5,7.25 C7.5,4.90278981 9.40278981,3 11.75,3 C14.0972102,3 16,4.90278981 16,7.25 C16,9.59721019 14.0972102,11.5 11.75,11.5 Z M17.75,21.5 C15.4027898,21.5 13.5,19.5972102 13.5,17.25 C13.5,14.9027898 15.4027898,13 17.75,13 C20.0972102,13 22,14.9027898 22,17.25 C22,19.5972102 20.0972102,21.5 17.75,21.5 Z M6.25,21.5 C3.90278981,21.5 2,19.5972102 2,17.25 C2,14.9027898 3.90278981,13 6.25,13 C8.59721019,13 10.5,14.9027898 10.5,17.25 C10.5,19.5972102 8.59721019,21.5 6.25,21.5 Z" id="Combined-Shape" fill="#F0F8FF"></path>
                                </g>
                            </g>
                        </g>
                    </g>
                </g>
            </g>
        </g>
    </g>
</svg>