<?xml version="1.0" encoding="UTF-8"?>
<svg width="24px" height="24px" viewBox="0 0 24 24" version="1.1" xmlns="http://www.w3.org/2000/svg" xmlns:xlink="http://www.w3.org/1999/xlink">
    <!-- Generator: sketchtool 52.3 (67297) - http://www.bohemiancoding.com/sketch -->
    <title>8D55BF52-9DEF-4537-89C4-AB21648A7015</title>
    <desc>Created with sketchtool.</desc>
    <g id="04---ui-2.0" stroke="none" stroke-width="1" fill="none" fill-rule="evenodd">
        <g id="31-racing-schedule" transform="translate(-1448.000000, -104.000000)">
            <g id="Group-2" transform="translate(0.000000, 88.000000)">
                <g id="button-/-small-/-Outline-Secondary-Copy-5" transform="translate(1432.000000, 10.000000)">
                    <g id="Group" transform="translate(16.000000, 6.000000)">
                        <g id="Icons-/-icn-horse-24-Copy-3">
                            <g id="icon">
                                <polygon id="Path" points="0 0 24 0 24 24 0 24"></polygon>
                                <path d="M19,19 L5,19 L5,5 L19,5 L19,19 Z M19,3 L5,3 C3.8954305,3 3,3.8954305 3,5 L3,19 C3,20.1045695 3.8954305,21 5,21 L19,21 C20.1045695,21 21,20.1045695 21,19 L21,5 C21,3.89 20.1,3 19,3 Z M10,8 L10,16 L15,12 L10,8 Z" id="Shape" fill="#27B18A" fill-rule="nonzero"></path>
                            </g>
                        </g>
                    </g>
                </g>
            </g>
        </g>
    </g>
</svg>
