<?xml version="1.0" encoding="UTF-8"?>
<svg width="24px" height="24px" viewBox="0 0 24 24" version="1.1" xmlns="http://www.w3.org/2000/svg" xmlns:xlink="http://www.w3.org/1999/xlink">
    <!-- Generator: sketchtool 52.3 (67297) - http://www.bohemiancoding.com/sketch -->
    <title>397AB11D-9807-4F29-AC4C-E1CAE97EBA32</title>
    <desc>Created with sketchtool.</desc>
    <g id="03---ui" stroke="none" stroke-width="1" fill="none" fill-rule="evenodd">
        <g id="01-homepage-v2" transform="translate(-894.000000, -149.000000)">
            <g id="dropdown-nav" transform="translate(854.000000, 78.000000)">
                <g id="Icons-/-icn-horse-24-Copy-5" transform="translate(40.000000, 71.000000)">
                    <g id="icon">
                        <rect id="placeholder" x="0" y="0" width="24" height="24"></rect>
                        <path d="M11.2857143,2 L7.23809524,5.95348837 L9.38095238,8.04651163 L10.3333333,7.11627907 L14.3809524,11.0697674 L13.4285714,12 L15.5714286,14.0930233 L19.6190476,10.1395349 L17.4761905,8.04651163 L16.5238095,8.97674419 L12.4761905,5.02325581 L13.4285714,4.09302326 L11.2857143,2 Z M10.608631,8.70784884 L2,17.1162791 L4.14285714,19.2093023 L12.7514881,10.8008721 L10.608631,8.70784884 Z M12.7142857,15.9534884 L12.7142857,18.2790698 L20.8095238,18.2790698 L20.8095238,15.9534884 L12.7142857,15.9534884 Z M11.5238095,19.2093023 L11.5238095,21.5348837 L22,21.5348837 L22,19.2093023 L11.5238095,19.2093023 Z" id="Shape" fill="#F0F8FF" fill-rule="nonzero"></path>
                    </g>
                </g>
            </g>
        </g>
    </g>
</svg>