<?xml version="1.0" encoding="UTF-8"?>
<svg width="24px" height="24px" viewBox="0 0 24 24" version="1.1" xmlns="http://www.w3.org/2000/svg" xmlns:xlink="http://www.w3.org/1999/xlink">
    <!-- Generator: sketchtool 52.3 (67297) - http://www.bohemiancoding.com/sketch -->
    <title>93ACED67-22B1-4477-811C-4F9D3343F738</title>
    <desc>Created with sketchtool.</desc>
    <g id="03---ui" stroke="none" stroke-width="1" fill="none" fill-rule="evenodd">
        <g id="01-homepage-v2" transform="translate(-894.000000, -269.000000)">
            <g id="dropdown-nav" transform="translate(854.000000, 78.000000)">
                <g id="Icons-/-icn-horse-24-Copy-7" transform="translate(40.000000, 191.000000)">
                    <g id="icon">
                        <rect id="placeholder" x="0" y="0" width="24" height="24"></rect>
                        <path d="M14.4,6 L20,6 L20,16 L13,16 L12.6,14 L7,14 L7,21 L5,21 L5,4 L14,4 L14.4,6 Z M14,14 L16,14 L16,12 L18,12 L18,10 L16,10 L16,8 L14,8 L14,10 L13,8 L13,6 L11,6 L11,8 L9,8 L9,6 L7,6 L7,8 L9,8 L9,10 L7,10 L7,12 L9,12 L9,10 L11,10 L11,12 L13,12 L13,10 L14,12 L14,14 Z M11,10 L11,8 L13,8 L13,10 L11,10 Z M14,10 L16,10 L16,12 L14,12 L14,10 Z" fill="#F0F8FF" fill-rule="nonzero"></path>
                    </g>
                </g>
            </g>
        </g>
    </g>
</svg>