<?xml version="1.0" encoding="UTF-8"?>
<svg width="24px" height="24px" viewBox="0 0 24 24" version="1.1" xmlns="http://www.w3.org/2000/svg" xmlns:xlink="http://www.w3.org/1999/xlink">
    <!-- Generator: sketchtool 52.3 (67297) - http://www.bohemiancoding.com/sketch -->
    <title>6EDC22D8-8175-4AB0-92BD-DC385EC1C3F6</title>
    <desc>Created with sketchtool.</desc>
    <g id="03---ui" stroke="none" stroke-width="1" fill="none" fill-rule="evenodd">
        <g id="01-homepage-v2" transform="translate(-1129.000000, -149.000000)" fill="#F0F8FF">
            <g id="dropdown-nav" transform="translate(854.000000, 78.000000)">
                <g id="Group-2" transform="translate(275.000000, 31.000000)">
                    <g id="Icons-/-icn-horse-24-Copy-2" transform="translate(0.000000, 40.000000)">
                        <g id="icn-medium-24">
                            <path d="M5.1345,7.91525 C5.157,7.694 5.07225,7.47575 4.90725,7.32725 L3.22725,5.30225 L3.22725,5 L8.44575,5 L12.47925,13.84625 L16.02525,5 L21,5 L21,5.30225 L19.563,6.68 C19.43925,6.7745 19.37775,6.92975 19.40325,7.0835 L19.40325,17.207 C19.37775,17.36 19.43925,17.51525 19.563,17.60975 L20.96625,18.9875 L20.96625,19.28975 L13.90725,19.28975 L13.90725,18.9875 L15.3615,17.576 C15.504,17.4335 15.504,17.3915 15.504,17.17325 L15.504,8.99075 L11.46225,19.25675 L10.91625,19.25675 L6.21,8.99075 L6.21,15.87125 C6.171,16.16 6.267,16.45175 6.47025,16.66025 L8.361,18.95375 L8.361,19.25675 L3,19.25675 L3,18.95375 L4.89075,16.66025 C5.09325,16.451 5.18325,16.15775 5.1345,15.87125 L5.1345,7.91525 Z" id="logo"></path>
                        </g>
                    </g>
                </g>
            </g>
        </g>
    </g>
</svg>