<?xml version="1.0" encoding="UTF-8"?>
<svg width="245px" height="169px" viewBox="0 0 245 169" version="1.1" xmlns="http://www.w3.org/2000/svg" xmlns:xlink="http://www.w3.org/1999/xlink">
    <!-- Generator: Sketch 54.1 (76490) - https://sketchapp.com -->
    <title>img-laptop</title>
    <desc>Created with Sketch.</desc>
    <g id="03---ui" stroke="none" stroke-width="1" fill="none" fill-rule="evenodd" fill-opacity="0.24">
        <g id="02-mobile-buy" transform="translate(-65.000000, -293.000000)" fill="#F0F8FF" fill-rule="nonzero">
            <g id="Group-21" transform="translate(20.000000, 105.000000)">
                <g id="Group-24" transform="translate(45.000000, 188.000000)">
                    <g id="Group-3">
                        <path d="M244.718983,150.275317 C244.960951,150.887345 245,151.027923 245,151.177843 L245,156.683524 C245,160.08104 243.6308,163.162531 241.419016,165.394358 C239.214095,167.61926 236.170551,169 232.812028,169 L12.19061,169 C8.83147636,169 5.78682818,167.61945 3.5811531,165.394195 C1.3693488,163.162757 0,160.081665 0,156.683524 L0,151.177843 C0,151.058366 0.0213600445,150.944759 0.0485563894,150.834466 C0.121265013,150.603122 0.17037741,150.455121 0.250374571,150.325954 C0.337755946,150.19198 0.432660846,150.093641 0.534084958,150.004835 L28.5186012,127.309143 L28.5186012,12.316476 C28.5186012,8.91895957 29.8878015,5.83746913 32.0995856,3.60564211 C34.3045065,1.38074045 37.3480499,0 40.7065728,0 L204.375218,0 C207.733209,0 210.777216,1.38067132 212.982515,3.60595513 C215.19392,5.83739911 216.56319,8.91842094 216.56319,12.316476 L216.56319,127.310581 L244.361542,149.896965 C244.509342,150.033252 244.627657,150.144194 244.718983,150.275317 Z M214,127 L214,12.2012877 C214,9.66688996 212.982675,7.36903905 211.340916,5.70463749 C209.691771,4.03274757 207.413867,3 204.901989,3 L41.0980114,3 C38.5870602,3 36.3084664,4.03250701 34.6587735,5.70495183 C33.0175596,7.36880077 32,9.665955 32,12.2012877 L32,127 L214,127 Z M239,149 L214.435171,129 L30.6326498,129 L6,149 L239,149 Z M241,156.884025 L241,153 L3,153 L3,156.884025 C3,159.389859 4.01070628,161.660173 5.63600094,163.305364 C7.28396176,164.973499 9.56118205,166 12.06897,166 L231.933659,166 C234.440624,166 236.717747,164.97374 238.36556,163.305116 C239.989626,161.660539 241,159.390907 241,156.884025 Z" id="Shape"></path>
                    </g>
                </g>
            </g>
        </g>
    </g>
</svg>