<?xml version="1.0" encoding="UTF-8"?>
<svg width="40px" height="40px" viewBox="0 0 40 40" version="1.1" xmlns="http://www.w3.org/2000/svg" xmlns:xlink="http://www.w3.org/1999/xlink">
    <!-- Generator: sketchtool 52.3 (67297) - http://www.bohemiancoding.com/sketch -->
    <title>122A3698-16BD-4CC1-BA3D-7D2C48D97DD4</title>
    <desc>Created with sketchtool.</desc>
    <g id="v3" stroke="none" stroke-width="1" fill="none" fill-rule="evenodd" fill-opacity="0.32">
        <g id="02-early-release-v5" transform="translate(-352.000000, -894.000000)" fill="#F0F8FF" fill-rule="nonzero">
            <g id="Group-6" transform="translate(352.000000, 793.000000)">
                <g id="Group-14" transform="translate(0.000000, 101.000000)">
                    <g id="img-availability">
                        <path d="M9.61893998,21.4545455 C10.3422886,21.4779836 10.9066441,21.9943173 10.8801876,22.6084715 L10.8801876,34.8460739 C10.9066441,35.4602282 10.3422886,35.9765618 9.61893998,36 L6.2621411,36 C5.5387925,35.9765618 4.97443696,35.4602282 5.00089345,34.8460739 L5.00089345,22.6084715 C4.97443696,21.9943173 5.5387925,21.4779836 6.2621411,21.4545455 L9.61893998,21.4545455 Z M21.3842073,15.6363636 C22.107076,15.6635777 22.6688818,16.1845558 22.6423403,16.8030652 L22.6423403,34.836651 C22.6688454,35.4545629 22.106465,35.9745752 21.3842073,36 L18.0213471,36 C17.6740652,35.9886632 17.3463062,35.8596698 17.1103057,35.6414488 C16.8743052,35.4232279 16.7494344,35.1336914 16.763214,34.836651 L16.763214,16.8030652 C16.7344915,16.1838675 17.2975005,15.6617737 18.0213471,15.6363636 L21.3842073,15.6363636 Z M33.1432627,4 C33.8672218,4.02575776 34.4309957,4.55407058 34.4045091,5.18191467 L34.4045091,34.8180853 C34.4309957,35.4459294 33.8672218,35.9742422 33.1432627,36 L29.7864671,36 C29.0625079,35.9742422 28.498734,35.4459294 28.5252206,34.8180853 L28.5252206,5.18191467 C28.498734,4.55407058 29.0625079,4.02575776 29.7864671,4 L33.1432627,4 Z" id="Combined-Shape"></path>
                    </g>
                </g>
            </g>
        </g>
    </g>
</svg>