<?xml version="1.0" encoding="UTF-8"?>
<svg width="40px" height="40px" viewBox="0 0 40 40" version="1.1" xmlns="http://www.w3.org/2000/svg" xmlns:xlink="http://www.w3.org/1999/xlink">
    <!-- Generator: sketchtool 52.3 (67297) - http://www.bohemiancoding.com/sketch -->
    <title>04235DDC-B1C3-4918-AE21-54FC96701141</title>
    <desc>Created with sketchtool.</desc>
    <g id="v3" stroke="none" stroke-width="1" fill="none" fill-rule="evenodd" fill-opacity="0.32">
        <g id="02-early-release-v5" transform="translate(-352.000000, -793.000000)" fill="#F0F8FF" fill-rule="nonzero">
            <g id="Group-6" transform="translate(352.000000, 793.000000)">
                <g id="Group-15">
                    <g id="img-rarity">
                        <path d="M30.2079349,14.0875446 L36.1843728,21.0602449 C36.3833339,21.2927396 36.3791097,21.6699548 36.1755019,21.8981678 L20.1677897,39.8285191 C19.9637595,40.0571603 19.6300454,40.0571603 19.4268601,39.8285191 L3.41872544,21.8981678 C3.21554007,21.6699548 3.21173827,21.2927396 3.41069941,21.0602449 L9.3879821,14.0875446 C9.58694325,13.8554781 9.99838306,13.6653719 10.3021051,13.6653719 L29.2925447,13.6653719 C29.5966891,13.6653719 30.0085513,13.8554781 30.2079349,14.0875446 Z M21.9550606,15.3330825 C21.6509161,15.3330825 21.5541813,15.5326084 21.7396249,15.7770917 L25.0640924,20.1516744 C25.2499584,20.3957297 25.5325593,20.3807438 25.6939248,20.1191337 L28.3420934,15.8087761 C28.5030365,15.547166 28.3860253,15.3330825 28.0818809,15.3330825 L21.9550606,15.3330825 Z M20.6020403,15.9205277 C20.4170191,15.6764725 20.1052711,15.6696218 19.9109566,15.9063982 L16.2270073,20.3747495 C16.031848,20.6110977 16.1209792,20.8046292 16.4251236,20.8046292 L23.7617629,20.8046292 C24.0663297,20.8046292 24.1630646,20.6055315 23.9767761,20.3610481 L20.6020403,15.9205277 Z M11.8143787,15.3330825 C11.5106567,15.3330825 11.3995595,15.5433125 11.5664165,15.7997846 L14.4198826,20.1688011 C14.587162,20.424845 14.8841252,20.442828 15.0788621,20.2060517 L18.7425351,15.7629622 C18.9376945,15.526614 18.8485633,15.3330825 18.5452637,15.3330825 L11.8143787,15.3330825 Z M6.17207729,20.3820283 C5.97269372,20.6140948 6.05844555,20.8046292 6.36174513,20.8050573 L13.098544,20.8050573 C13.4026884,20.8050573 13.5137856,20.5943992 13.3465062,20.3383553 L10.5652745,16.0798058 C10.3975726,15.8224775 10.09723,15.8032099 9.89784643,16.0352765 L6.17207729,20.3820283 Z M17.7177374,35.4278182 C17.9209228,35.6556031 18.0218818,35.6003695 17.9416215,35.3032216 L14.5178847,22.6787163 C14.4363571,22.3815684 14.1220745,22.1392259 13.8187749,22.1392259 L6.40525468,22.1392259 C6.10153268,22.1392259 6.01958266,22.3263349 6.22361287,22.5532634 L17.7177374,35.4278182 Z M19.8746282,36.1890992 L24.5829528,22.6662995 C24.6839119,22.3764304 24.5178997,22.139654 24.2146001,22.139654 L16.2882586,22.139654 C15.9845366,22.139654 15.8016276,22.3824247 15.8823103,22.6791445 L19.5451385,36.1775387 C19.6253988,36.4738303 19.7732468,36.4802528 19.8746282,36.1890992 Z M33.3714593,22.5532634 C33.5759119,22.3263349 33.4935395,22.1392259 33.1906623,22.139654 L26.7153432,22.139654 C26.4107763,22.139654 26.0795968,22.3760022 25.9790602,22.6662995 L21.5001112,35.5288656 C21.3987297,35.8195911 21.4832143,35.8701148 21.6859772,35.6423299 L33.3714593,22.5532634 Z M33.233327,20.8046292 C33.5366266,20.8046292 33.6223784,20.6140948 33.4234173,20.3820283 L29.8666173,16.2326615 C29.6672337,16.0001668 29.3723826,16.0245723 29.2127068,16.2857542 L26.7288607,20.3293638 C26.5674952,20.5905457 26.6849287,20.8046292 26.9886507,20.8046292 L33.233327,20.8046292 Z M5.29753686,10.753836 C5.15518038,10.9276718 4.90088185,10.9516492 4.72895577,10.807785 L0.146090752,6.95642248 C-0.0254129068,6.81170202 -0.0494910067,6.55394546 0.0928654787,6.37968147 C0.235221964,6.20498932 0.490365338,6.1818683 0.661868997,6.32573243 L5.24473401,10.177095 C5.41623767,10.3218154 5.43989335,10.579572 5.29753686,10.753836 Z M39.3384786,6.57192848 C39.5108271,6.42763618 39.7647032,6.45118537 39.9074821,6.62502119 C40.0494162,6.79971334 40.0253381,7.05789807 39.8538344,7.2017622 L35.2709694,11.0526966 C35.0990433,11.1969889 34.8443224,11.1734397 34.7015435,10.9991757 C34.5600318,10.8249117 34.5836875,10.5675833 34.7551912,10.4228629 L39.3384786,6.57192848 Z M19.502771,7.85043527 C19.2797317,7.84401276 19.1040038,7.65561926 19.1099177,7.42954706 L19.2742402,1.39795792 C19.280999,1.17188572 19.466865,0.993340063 19.6899043,1.00019074 C19.9125211,1.00661324 20.088249,1.19457857 20.0819126,1.42065077 L19.9175902,7.45223992 C19.9116762,7.67874028 19.7249654,7.85685777 19.502771,7.85043527 Z" id="Combined-Shape"></path>
                    </g>
                </g>
            </g>
        </g>
    </g>
</svg>