<?xml version="1.0" encoding="UTF-8"?>
<svg width="18px" height="15px" viewBox="0 0 18 15" version="1.1" xmlns="http://www.w3.org/2000/svg" xmlns:xlink="http://www.w3.org/1999/xlink">
    <!-- Generator: Sketch 52.3 (67297) - http://www.bohemiancoding.com/sketch -->
    <title>med icon</title>
    <desc>Created with Sketch.</desc>
    <g id="Page-1" stroke="none" stroke-width="1" fill="none" fill-rule="evenodd">
        <g id="New-Zed-2.0" transform="translate(-918.000000, -220.000000)" fill="#8294A1">
            <g id="med-icon" transform="translate(918.000000, 220.000000)">
                <path d="M2.1345,2.91525 C2.157,2.694 2.07225,2.47575 1.90725,2.32725 L0.22725,0.30225 L0.22725,0 L5.44575,0 L9.47925,8.84625 L13.02525,3.33066907e-16 L18,0 L18,0.30225 L16.563,1.68 C16.43925,1.7745 16.37775,1.92975 16.40325,2.0835 L16.40325,12.207 C16.37775,12.36 16.43925,12.51525 16.563,12.60975 L17.96625,13.9875 L17.96625,14.28975 L10.90725,14.28975 L10.90725,13.9875 L12.3615,12.576 C12.504,12.4335 12.504,12.3915 12.504,12.17325 L12.504,3.99075 L8.46225,14.25675 L7.91625,14.25675 L3.21,3.99075 L3.21,10.87125 C3.171,11.16 3.267,11.45175 3.47025,11.66025 L5.361,13.95375 L5.361,14.25675 L0,14.25675 L0,13.95375 L1.89075,11.66025 C2.09325,11.451 2.18325,11.15775 2.1345,10.87125 L2.1345,2.91525 Z" id="Path"></path>
            </g>
        </g>
    </g>
</svg>