<?xml version="1.0" encoding="UTF-8"?>
<svg width="15px" height="74px" viewBox="0 0 15 74" version="1.1" xmlns="http://www.w3.org/2000/svg" xmlns:xlink="http://www.w3.org/1999/xlink">
    <!-- Generator: Sketch 52.3 (67297) - http://www.bohemiancoding.com/sketch -->
    <title>arrow</title>
    <desc>Created with Sketch.</desc>
    <defs>
        <linearGradient x1="50%" y1="0%" x2="50%" y2="96.7508129%" id="linearGradient-1">
            <stop stop-color="#F0F8FF" stop-opacity="0.32" offset="0%"></stop>
            <stop stop-color="#F0F8FF" offset="100%"></stop>
        </linearGradient>
    </defs>
    <g id="Symbols" stroke="none" stroke-width="1" fill="none" fill-rule="evenodd">
        <g id="arrow" transform="translate(-1.000000, 0.000000)" fill-rule="nonzero">
            <g>
                <path d="M10.9497475,68.5 L10.9497475,62 C10.9497475,61.1715729 11.6213203,60.5 12.4497475,60.5 C13.2781746,60.5 13.9497475,61.1715729 13.9497475,62 L13.9497475,70 C13.9497475,70.8284271 13.2781746,71.5 12.4497475,71.5 L4.44974747,71.5 C3.62132034,71.5 2.94974747,70.8284271 2.94974747,70 C2.94974747,69.1715729 3.62132034,68.5 4.44974747,68.5 L10.9497475,68.5 Z" id="Line-2" fill="#F0F8FF" transform="translate(8.449747, 66.000000) rotate(45.000000) translate(-8.449747, -66.000000) "></path>
                <path d="M10,56.5097656 C10,57.3381927 9.32842712,58.0097656 8.5,58.0097656 C7.67157288,58.0097656 7,57.3381927 7,56.5097656 L7,55.5097656 C7,54.6813385 7.67157288,54.0097656 8.5,54.0097656 C9.32842712,54.0097656 10,54.6813385 10,55.5097656 L10,56.5097656 Z M10,46.5097656 C10,47.3381927 9.32842712,48.0097656 8.5,48.0097656 C7.67157288,48.0097656 7,47.3381927 7,46.5097656 L7,45.5097656 C7,44.6813385 7.67157288,44.0097656 8.5,44.0097656 C9.32842712,44.0097656 10,44.6813385 10,45.5097656 L10,46.5097656 Z M10,36.5097656 C10,37.3381927 9.32842712,38.0097656 8.5,38.0097656 C7.67157288,38.0097656 7,37.3381927 7,36.5097656 L7,35.5097656 C7,34.6813385 7.67157288,34.0097656 8.5,34.0097656 C9.32842712,34.0097656 10,34.6813385 10,35.5097656 L10,36.5097656 Z M10,26.5097656 C10,27.3381927 9.32842712,28.0097656 8.5,28.0097656 C7.67157288,28.0097656 7,27.3381927 7,26.5097656 L7,25.5097656 C7,24.6813385 7.67157288,24.0097656 8.5,24.0097656 C9.32842712,24.0097656 10,24.6813385 10,25.5097656 L10,26.5097656 Z M10,16.5097656 C10,17.3381927 9.32842712,18.0097656 8.5,18.0097656 C7.67157288,18.0097656 7,17.3381927 7,16.5097656 L7,15.5097656 C7,14.6813385 7.67157288,14.0097656 8.5,14.0097656 C9.32842712,14.0097656 10,14.6813385 10,15.5097656 L10,16.5097656 Z M10,6.50976562 C10,7.33819275 9.32842712,8.00976562 8.5,8.00976562 C7.67157288,8.00976562 7,7.33819275 7,6.50976562 L7,5.50976562 C7,4.6813385 7.67157288,4.00976562 8.5,4.00976562 C9.32842712,4.00976562 10,4.6813385 10,5.50976562 L10,6.50976562 Z" id="Line" fill="url(#linearGradient-1)"></path>
            </g>
        </g>
    </g>
</svg>