<?xml version="1.0" encoding="UTF-8"?>
<svg width="191px" height="184px" viewBox="0 0 191 184" version="1.1" xmlns="http://www.w3.org/2000/svg" xmlns:xlink="http://www.w3.org/1999/xlink">
    <!-- Generator: Sketch 52.3 (67297) - http://www.bohemiancoding.com/sketch -->
    <title>field</title>
    <desc>Created with Sketch.</desc>
    <defs>
        <linearGradient x1="50%" y1="0%" x2="50%" y2="100%" id="linearGradient-1">
            <stop stop-color="#FAD961" offset="0%"></stop>
            <stop stop-color="#F76B1C" offset="100%"></stop>
        </linearGradient>
        <linearGradient x1="50%" y1="0%" x2="50%" y2="100%" id="linearGradient-2">
            <stop stop-color="#88A6F3" offset="0%"></stop>
            <stop stop-color="#61D0D1" offset="100%"></stop>
        </linearGradient>
    </defs>
    <g id="Page-1" stroke="none" stroke-width="1" fill="none" fill-rule="evenodd">
        <g id="New-Zed-2.0" transform="translate(-1196.000000, -1483.000000)" fill-rule="nonzero">
            <g id="field" transform="translate(1196.000000, 1483.000000)">
                <path d="M189.309249,81.6002705 C158.911665,72.5062367 127.349388,67.8955505 95.4997241,67.8955505 C87.3226342,67.8955505 79.164588,68.2019325 71.0398681,68.8074323 L71.0398681,61.9089227 L71.9803655,61.9089227 C72.6659374,61.9089227 73.3186157,61.6170692 73.77047,61.1077144 C74.2223242,60.598787 74.4300733,59.9219263 74.3400487,59.2506206 L72.4646805,45.2399458 C72.3655669,44.4977065 71.9141455,43.8469118 71.2489156,43.4871159 L59.8006435,37.2893964 C59.0882373,36.9035345 58.2247803,36.9035345 57.5115085,37.2893964 L29.3671362,52.1564025 C28.7378297,52.4828682 28.2898707,53.0699936 28.1448792,53.7571097 L25.9808264,64.012575 C25.8159256,64.7936996 26.063926,65.6043086 26.6391313,66.1649407 C27.2147693,66.7255728 28.0384078,66.9597393 28.8278543,66.786251 L29.8263482,66.5670404 L29.8263482,74.5316911 C20.3560204,76.4682648 10.9692249,78.8240306 1.69106496,81.5998432 C0.432884666,81.9763043 -0.278223084,83.2885765 0.10308302,84.5307697 C0.484389123,85.772963 1.81441597,86.475035 3.07129784,86.098574 C16.7165164,82.0164715 30.6006463,78.8543697 44.6401552,76.6178237 L1.68716967,89.5448376 C0.429422182,89.9234352 -0.279088705,91.2365621 0.103948641,92.478328 C0.416870676,93.4914825 1.3603977,94.1439865 2.38009937,94.1439865 C2.60992178,94.1439865 2.84363948,94.1106562 3.07476032,94.0414318 L71.0411666,73.5223824 C73.7328155,73.318555 76.4279268,73.1489126 79.1265006,73.0126003 L24.4581988,93.8948641 C23.2320465,94.363197 22.6226493,95.7241827 23.0970096,96.9347549 C23.4623017,97.8667203 24.3629805,98.4376079 25.3177606,98.4376079 C25.6034156,98.4376079 25.8938315,98.3863306 26.176024,98.2786482 L93.3854445,72.6062275 C94.0896273,72.6015271 94.7942429,72.5968267 95.4988585,72.5968267 C102.570117,72.5968267 109.627094,72.8297112 116.659832,73.2894979 L48.220797,111.950893 C47.0794756,112.595278 46.6838867,114.03147 47.3369978,115.157862 C47.7767334,115.916339 48.579597,116.341514 49.4053995,116.341514 C49.8061821,116.341514 50.2125912,116.241523 50.5856739,116.030859 L125.078863,73.9484115 C130.845631,74.4769953 136.593356,75.1598384 142.31641,75.9969407 L106.28796,113.021307 C105.377327,113.957545 105.407191,115.445015 106.355479,116.344505 C106.817287,116.782499 107.411104,117 108.004487,117 C108.629465,117 109.254011,116.758142 109.721446,116.278272 L148.051149,76.8887389 C154.541144,77.9578711 160.996081,79.2282669 167.409467,80.6939438 L161.184353,94.2623516 C160.642041,95.4447213 161.1731,96.837328 162.370254,97.3727488 C162.688803,97.5150434 163.0225,97.5825585 163.351003,97.5825585 C164.256875,97.5825585 165.122929,97.0693579 165.520682,96.2014892 L172.124073,81.8092256 C177.423838,83.1048328 182.694172,84.532479 187.928583,86.098574 C188.158838,86.1673711 188.390825,86.200274 188.619782,86.200274 C189.641215,86.200274 190.585607,85.5460608 190.897231,84.531197 C191.278104,83.2890038 190.567429,81.9767316 189.309249,81.6002705 Z M59.9724693,69.8197322 C59.0942967,69.9154498 58.2169897,70.0154406 57.3396827,70.1179953 L57.3396827,62.9964293 L59.9724693,62.9964293 L59.9724693,69.8197322 Z M58.6562924,42.0308398 L67.9028572,47.0363615 L69.2644792,57.2085011 L68.6594101,57.2085011 C67.3445316,57.2085011 66.278952,58.2605409 66.278952,59.5587119 L66.278952,69.1967126 C65.7634746,69.2428622 65.24843,69.2911484 64.7333855,69.3394345 L64.7333855,60.6462185 C64.7333855,59.3480475 63.6678059,58.2960077 62.3529274,58.2960077 L54.9592246,58.2960077 C53.6443461,58.2960077 52.5787665,59.3480475 52.5787665,60.6462185 L52.5787665,70.7115303 C52.063722,70.7794728 51.5482446,70.8452787 51.0336328,70.915785 L51.0336328,59.5582846 C51.0336328,58.2601136 49.9680532,57.2080738 48.6531748,57.2080738 L48.0481056,57.2080738 L49.4097276,47.0359342 L58.6562924,42.0308398 Z M32.5768593,55.8009385 L44.245432,49.7416678 L43.1711962,57.766142 L31.3935553,61.4081141 L32.5768593,55.8009385 Z M34.5868316,65.361596 L46.2727167,61.9089227 L46.2727167,71.605465 C42.3653029,72.1981455 38.4695751,72.8617595 34.5868316,73.5958799 L34.5868316,65.361596 Z" id="Shape" fill="url(#linearGradient-1)"></path>
                <path d="M132.59713,50 L165.58782,50 C166.852876,50 167.899474,49.061143 167.976936,47.857065 L167.981723,47.7869205 C167.991732,47.6453864 168,47.5038522 168,47.3598278 C168,43.6156061 165.282326,40.4408415 161.586812,39.5903914 C159.648103,36.1989675 155.855109,34 151.744437,34 C148.531968,34 145.503579,35.3244442 143.401679,37.5603518 C142.237148,37.0975641 140.986452,36.8584918 139.699202,36.8584918 C134.350889,36.8584918 130,41.0082233 130,46.1092635 C130,46.8082181 130.090081,47.5258502 130.267633,48.2422372 C130.523517,49.2724065 131.487431,50 132.59713,50 Z M139.699637,41.4241096 C140.764948,41.4241096 141.783259,41.7507588 142.644038,42.3687774 C143.1941,42.7639109 143.896039,42.9133311 144.570126,42.779683 C145.244214,42.6460349 145.825609,42.2421853 146.165481,41.6706529 C147.304337,39.7551687 149.442356,38.5652027 151.745308,38.5652027 C154.375946,38.5652027 156.779858,40.1386806 157.727236,42.4804275 C158.065368,43.3163506 158.88524,43.8866378 159.823044,43.9376897 C160.978871,44.0011933 161.982387,44.5814418 162.592068,45.4335521 L134.838721,45.4335521 C135.182075,43.1694207 137.231319,41.4241096 139.699637,41.4241096 Z" id="Shape" fill="url(#linearGradient-2)"></path>
                <path d="M24.0303728,18.8001625 C24.1082297,20.0366111 25.1361984,21 26.3784875,21 L71.3699746,21 C72.4603999,21 73.4083726,20.252499 73.6594827,19.1939659 C73.8853535,18.2416701 74,17.2880943 74,16.3601178 C74,9.58695652 68.4751499,4.07669646 61.6840547,4.07669646 C59.8274655,4.07669646 58.0307663,4.48671272 56.3855032,5.27602601 C53.6827543,1.97498984 49.6012526,0 45.2570905,0 C39.8473148,0 34.8653246,3.10648111 32.4440585,7.85985372 C27.6058042,8.82878911 24,13.0915075 24,18.1435392 C24,18.3308411 24.0106946,18.5147298 24.0235282,18.6990451 L24.0303728,18.8001625 Z M34.1889956,12.3572328 C35.1108735,12.3043275 35.9168214,11.7185291 36.2492107,10.8592442 C37.6758755,7.17123121 41.2957966,4.6936408 45.2570905,4.6936408 C48.72472,4.6936408 51.9442339,6.56708655 53.6592261,9.58268996 C53.9933265,10.1697684 54.5644202,10.5853312 55.2274878,10.7227143 C55.8901276,10.8596709 56.5801456,10.7060748 57.1208665,10.2998984 C58.4538462,9.29939049 60.031947,8.77033726 61.6840547,8.77033726 C65.8626637,8.77033726 69.2652698,12.1464649 69.2943592,16.3072125 L29.0050906,16.3072125 C29.7408818,14.1167615 31.7566071,12.4967493 34.1889956,12.3572328 Z" id="Shape" fill="url(#linearGradient-2)"></path>
                <path d="M36.4527077,117.32677 L1.19321266,138.38041 C0.0571020979,139.0584 -0.33668063,140.569489 0.313448622,141.754622 C0.751176468,142.552653 1.55037445,143 2.37240667,143 C2.77135941,143 3.175913,142.894795 3.54729234,142.673144 L38.8067873,121.619953 C39.9428979,120.941964 40.3366806,119.430875 39.6865514,118.245742 C39.0359913,117.05971 37.5879566,116.64878 36.4527077,117.32677 Z" id="Path" fill="url(#linearGradient-1)"></path>
                <path d="M92.9100203,126.716062 L41.6626284,179.053083 C40.7536221,179.981421 40.7834327,181.457434 41.7300262,182.34974 C42.1910099,182.784236 42.783765,183 43.3760881,183 C43.9999498,183 44.6233795,182.760074 45.0899797,182.284036 L96.3373716,129.947014 C97.2463779,129.018253 97.2165673,127.542663 96.2699738,126.650357 C95.3233802,125.758052 93.8194586,125.787724 92.9100203,126.716062 Z" id="Path" fill="url(#linearGradient-1)"></path>
                <path d="M160.618915,100.213317 C159.436309,99.6691239 158.044354,100.202025 157.50902,101.403768 L122.209845,180.625393 C121.67451,181.827135 122.198736,183.242559 123.380916,183.786753 C123.695366,183.931379 124.024769,184 124.349046,184 C125.243264,184 126.098176,183.477956 126.491239,182.596302 L161.790413,103.374677 C162.325321,102.172935 161.801095,100.757511 160.618915,100.213317 Z" id="Path" fill="url(#linearGradient-1)"></path>
                <path d="M2.31912198,107 C2.59731627,107 2.88014713,106.948427 3.15496937,106.840124 L16.5175684,101.568932 C17.7116963,101.097899 18.3051775,99.7290649 17.8432064,98.5115121 C17.3812352,97.2939592 16.0383155,96.6888359 14.8446091,97.1598694 L1.48243158,102.431061 C0.288303661,102.902094 -0.305177491,104.270928 0.156793633,105.488481 C0.512123613,106.425391 1.38927864,107 2.31912198,107 Z" id="Path" fill="url(#linearGradient-1)"></path>
            </g>
        </g>
    </g>
</svg>