<?xml version="1.0" encoding="UTF-8"?>
<svg width="744px" height="340px" viewBox="0 0 744 340" version="1.1" xmlns="http://www.w3.org/2000/svg" xmlns:xlink="http://www.w3.org/1999/xlink">
    <!-- Generator: sketchtool 52.3 (67297) - http://www.bohemiancoding.com/sketch -->
    <title>F1498069-101A-46D3-BD5C-C105DEE4B06F</title>
    <desc>Created with sketchtool.</desc>
    <g id="03---ui" stroke="none" stroke-width="1" fill="none" fill-rule="evenodd" fill-opacity="0.24">
        <g id="10-buy-horse-unsuported-browser" transform="translate(-588.000000, -450.000000)" fill="#F0F8FF" fill-rule="nonzero">
            <g id="Group-21" transform="translate(524.000000, 286.000000)">
                <g id="Group" transform="translate(64.000000, 164.000000)">
                    <path d="M732,0 L12,0 C5.3832,0 0,5.39439337 0,12.0249518 L0,28.0590225 L0,327.975048 C0,334.605607 5.3832,340 12,340 L732,340 C738.6168,340 744,334.605607 744,327.975048 L744,28.0590225 L744,12.0249518 C744,5.39439337 738.6168,0 732,0 Z M2.6664,12.0249518 C2.6664,6.86865245 6.8544,2.67194428 12,2.67194428 L732,2.67194428 C737.1456,2.67194428 741.3336,6.86865245 741.3336,12.0249518 L741.3336,26.7218478 L2.6664,26.7218478 L2.6664,12.0249518 Z M741.3336,327.975048 C741.3336,333.131348 737.1456,337.328056 732,337.328056 L12,337.328056 C6.8544,337.328056 2.6664,333.131348 2.6664,327.975048 L2.6664,29.3937921 L741.3336,29.3937921 L741.3336,327.975048 Z M17.3328,9.24237793 C21.0096,9.24237793 24,12.2389959 24,15.9234411 C24,19.6078864 21.0096,22.6045043 17.3328,22.6045043 C13.656,22.6045043 10.6656,19.6078864 10.6656,15.9234411 C10.6656,12.2389959 13.656,9.24237793 17.3328,9.24237793 Z M17.3328,19.9325601 C19.5384,19.9325601 21.3336,18.1336273 21.3336,15.9234411 C21.3336,13.713255 19.5384,11.9143222 17.3328,11.9143222 C15.1272,11.9143222 13.332,13.713255 13.332,15.9234411 C13.332,18.1336273 15.1272,19.9325601 17.3328,19.9325601 Z M33.4464,9.24237793 C37.1208,9.24237793 40.1136,12.2389959 40.1136,15.9234411 C40.1136,19.6078864 37.1232,22.6045043 33.4464,22.6045043 C29.7696,22.6045043 26.7792,19.6078864 26.7792,15.9234411 C26.7792,12.2389959 29.7696,9.24237793 33.4464,9.24237793 Z M33.4464,19.9325601 C35.652,19.9325601 37.4472,18.1336273 37.4472,15.9234411 C37.4472,13.713255 35.652,11.9143222 33.4464,11.9143222 C31.2408,11.9143222 29.4456,13.713255 29.4456,15.9234411 C29.4456,18.1336273 31.2408,19.9325601 33.4464,19.9325601 Z M49.4448,9.24237793 C53.1216,9.24237793 56.112,12.2389959 56.112,15.9234411 C56.112,19.6078864 53.1216,22.6045043 49.4448,22.6045043 C45.768,22.6045043 42.7776,19.6078864 42.7776,15.9234411 C42.7776,12.2389959 45.768,9.24237793 49.4448,9.24237793 Z M49.4448,19.9325601 C51.6504,19.9325601 53.4456,18.1336273 53.4456,15.9234411 C53.4456,13.713255 51.6504,11.9143222 49.4448,11.9143222 C47.2392,11.9143222 45.444,13.713255 45.444,15.9234411 C45.444,18.1336273 47.2392,19.9325601 49.4448,19.9325601 Z" id="Shape"></path>
                </g>
            </g>
        </g>
    </g>
</svg>