<?xml version="1.0" encoding="UTF-8"?>
<svg width="801px" height="723px" viewBox="0 0 801 723" version="1.1" xmlns="http://www.w3.org/2000/svg" xmlns:xlink="http://www.w3.org/1999/xlink">
    <!-- Generator: Sketch 52.3 (67297) - http://www.bohemiancoding.com/sketch -->
    <title>gradient-mask</title>
    <desc>Created with Sketch.</desc>
    <defs>
        <radialGradient cx="11.5479411%" cy="13.8523614%" fx="11.5479411%" fy="13.8523614%" r="89.1446669%" gradientTransform="translate(0.115479,0.138524),scale(0.903391,1.000000),rotate(98.244333),scale(1.000000,1.584688),translate(-0.115479,-0.138524)" id="radialGradient-1">
            <stop stop-color="#22262D" stop-opacity="0" offset="0%"></stop>
            <stop stop-color="#22262D" stop-opacity="0.977771978" offset="74.8724911%"></stop>
            <stop stop-color="#1D1F23" offset="100%"></stop>
        </radialGradient>
    </defs>
    <g id="Symbols" stroke="none" stroke-width="1" fill="none" fill-rule="evenodd">
        <g id="the-horse-1a" transform="translate(-327.000000, -176.000000)" fill="url(#radialGradient-1)" fill-rule="nonzero">
            <g id="horse" transform="translate(2.000000, 0.000000)">
                <polygon id="gradient-mask" points="1060 899 1031.11353 885.533897 1042.83655 868.95028 1046.88048 864.112429 1058.61102 826.741196 1058.03225 802.168386 1056.19056 784.419673 1053.13246 756.396227 1048.84405 716.488107 1044.44922 686.632568 1029.60111 657.374347 1020.73685 698.873181 1015.93456 721.878199 1010.542 759.88649 1005.06543 796.480957 998.272461 839.416748 984.326904 847 967.489014 875.275635 968.581848 886.281189 903.608398 888.987793 914.379883 863.112429 922.40332 856 941.374023 825.741196 965.942383 698.423083 951.109895 627.686755 944.007887 610.0198 924.048206 564.220678 910.652204 513.057995 902.182847 504.930222 894.49218 496.494382 879.554905 479.763905 869.278667 464.34115 866.856934 461.526367 809.930664 483.02832 781.541504 497.494382 766.830078 505.930222 745.333252 516.322489 734.100098 520.912598 722.466797 522.903925 720.884033 523.419678 674.433594 530.789551 664.902588 532.025635 622.588867 535.585449 607.635254 535.741943 546.612793 535.741943 515.658234 534.585449 510.293579 534.364014 511.709717 543.399048 521.210397 595.390609 532.143311 667.122803 531.335209 671.777271 526.570801 700.844238 527.533402 703.924283 550.86449 781.551216 556.656494 802.168386 559.5896 818.582031 552.161377 823.616699 543.054687 853.433552 555.509521 875.820313 555.509521 881.62915 551.837891 881.62915 532.57251 885.15316 512.948372 886.243398 490.008545 880.058838 501.56543 866.21875 510.948372 835.582764 503.932129 787.207764 501.908203 779.880127 487.328097 726.689249 484.32667 717.607268 475.109914 685.929267 467.445846 707.739287 468.403041 739.019389 470.514165 763.359171 473.525635 801.381592 474.803223 832.030518 464.595459 837.416504 448.078125 862.565918 445.452393 866.987793 447.226318 889.987793 432.904053 889.987793 390.411086 889.336182 387.859375 890.615967 398.442871 866.987793 405.668213 861.306885 420.247559 838.359131 416.755557 834.907715 421.628662 812.189209 424.475586 804.852051 424.475586 751.488525 416.755557 701.495117 414.996094 680.384766 411.692151 642.880968 409.4811 618.985755 408.750753 614.764835 379.127199 522.903925 377.275319 516.302485 341.988074 495.637977 336.415425 489.956738 326.810861 470.242874 325 462.941281 325 450 347.123047 400 461.895535 187.07745 493.148962 176 505.464815 177.870408 520.922161 180.801047 554.938327 193.753873 587.954018 209.117006 598.739144 213.117878 629.753883 220.539715 635.896803 221.24987 656.036374 220.349674 708.301213 217.959152 714.505802 216.808152 854.50365 184.07745 900.343793 180.801047 962.782154 191.399562 1027.11286 221.106892 1061.68081 233.86387 1080.08291 258.609999 1101.16554 298.535934 1105.0774 326.992063 1109.50511 360.858044 1111.57049 379.363487 1112.88159 427.293942 1115.70245 442.977363 1119.20412 460.34115 1124.59716 490.837803 1125.3175 492.038064 1125.3175 498.759531 1124.45709 501.930222 1123.09644 512.322489 1122.64623 520.864352 1123.54713 559.932874 1124.00092 567.775269 1125.15405 587.897827 1123.82129 597.73877 1121.28455 623.05249 1120.14746 631.089661 1117.12018 638.111084 1114.541 644.236389 1105.82983 689.078979 1105.155 700.572815 1108.28798 723.248716 1112.56 780.551216 1115.88013 811.174561 1120.22925 825.616699 1107.69665 833.572294 1093.60278 859.979736 1102.16554 891.979945"></polygon>
            </g>
        </g>
    </g>
</svg>