<?xml version="1.0" encoding="UTF-8"?>
<svg width="795px" height="715px" viewBox="0 0 795 715" version="1.1" xmlns="http://www.w3.org/2000/svg" xmlns:xlink="http://www.w3.org/1999/xlink">
    <!-- Generator: Sketch 52.3 (67297) - http://www.bohemiancoding.com/sketch -->
    <title>gradient-mask</title>
    <desc>Created with Sketch.</desc>
    <defs>
        <linearGradient x1="10.0041765%" y1="9.47012494%" x2="92.5958137%" y2="57.0154124%" id="linearGradient-1">
            <stop stop-color="#22262D" stop-opacity="0" offset="0%"></stop>
            <stop stop-color="#22262D" offset="100%"></stop>
        </linearGradient>
        <filter x="0.0%" y="0.0%" width="100.0%" height="100.0%" filterUnits="objectBoundingBox" id="filter-2">
            <feGaussianBlur stdDeviation="0" in="SourceGraphic"></feGaussianBlur>
        </filter>
    </defs>
    <g id="Symbols" stroke="none" stroke-width="1" fill="none" fill-rule="evenodd">
        <g id="the-horse" transform="translate(-327.000000, -180.000000)" fill="url(#linearGradient-1)" fill-rule="nonzero">
            <g id="horse">
                <polygon id="gradient-mask" filter="url(#filter-2)" points="1062 895 1036.11353 885.533897 1047.83655 868.95028 1050.88048 865.112429 1063.61102 826.741196 1063.03225 802.168386 1061.19056 784.419673 1058.13246 756.396227 1053.84405 716.488107 1049.44922 686.632568 1029.60111 650.374347 1028.3233 653.863363 1015.73685 698.873181 1010.93456 721.878199 1005.542 759.88649 1000.06543 796.480957 994.272461 837.416748 980.326904 845 964.489014 873.275635 965.569824 882.15316 906.608398 885.987793 917.379883 865.112429 925.40332 858 945.374023 826.741196 970.942383 698.423083 955.109895 627.686755 948.007887 610.0198 928.048206 564.220678 913.652204 510.057995 905.182847 501.930222 897.49218 493.494382 882.554905 476.763905 871.278667 460.34115 868.856934 457.526367 809.930664 479.02832 781.541504 493.494382 766.830078 501.930222 745.333252 512.322489 734.100098 516.912598 722.466797 518.903925 720.884033 519.419678 674.433594 526.789551 664.902588 528.025635 622.588867 531.585449 607.635254 531.741943 546.612793 531.741943 512.658234 531.585449 507.293579 531.364014 508.709717 540.399048 517.210397 595.390609 528.143311 667.122803 527.335209 671.777271 522.570801 700.844238 523.533402 703.924283 546.86449 781.551216 552.656494 802.168386 555.5896 818.582031 548.161377 823.616699 539.054687 853.433552 551.509521 872.820313 551.509521 878.62915 547.837891 878.62915 532.57251 882.15316 512.948372 883.243398 494.008545 877.058838 504.56543 866.21875 512.948372 835.582764 507.932129 787.207764 505.908203 779.880127 491.328097 726.689249 488.32667 717.607268 476.040831 685.310223 474.109914 680.929267 472.729258 683.499828 464.895535 704.124327 463.445846 707.739287 465.403041 739.019389 466.514165 763.359171 469.525635 801.381592 471.803223 831.030518 461.595459 836.416504 444.078125 862.565918 441.452393 866.987793 446.226318 885.987793 431.904053 885.987793 392.411086 887.336182 389.859375 888.615967 402.442871 866.987793 409.668213 861.306885 424.247559 838.359131 420.755557 834.907715 425.628662 812.189209 428.475586 804.852051 428.475586 751.488525 420.755557 701.495117 418.996094 680.384766 415.692151 642.880968 413.4811 618.985755 412.750753 614.764835 382.127199 518.903925 380.275319 512.302485 343.988074 491.637977 338.415425 485.956738 328.810861 468.242874 327 460.941281 327 448 347.123047 400 464.895535 188.07745 493.148962 180 505.464815 181.870408 520.922161 184.801047 554.938327 197.753873 587.954018 212.117006 598.739144 216.117878 629.753883 224.539715 635.896803 225.24987 656.036374 224.349674 708.301213 221.959152 714.505802 220.808152 854.3584 188.07745 900.338748 185.183586 962.782154 196.399562 1027.11286 225.106892 1057.20749 234.57954 1075.35698 259.262496 1077.53771 262.863075 1094.51648 294.848528 1095.10074 296.702204 1096.16554 298.535934 1096.525 300.513094 1096.89823 302.055178 1100.0774 326.992063 1104.50511 360.858044 1106.57049 379.363487 1108.88159 427.293942 1110.70245 442.977363 1114.20412 460.34115 1120.59716 490.837803 1121.3175 492.038064 1121.3175 498.759531 1120.45709 501.930222 1119.09644 512.322489 1118.64623 520.864352 1120.54713 559.932874 1120.98658 567.804591 1122 587.542817 1120.59716 597.865797 1119.78677 603.612402 1117.16552 623.096652 1116.05249 631.0896 1113.06909 638.06665 1109.40234 649.98584 1102.69665 690.251183 1100.0774 698.423083 1102.28798 724.248716 1105.78296 782.952637 1110.88013 813.174561 1115.22925 823.616699 1102.69665 830.572294 1089.60278 859.979736 1097.16554 887.979945"></polygon>
            </g>
        </g>
    </g>
</svg>