<?xml version="1.0" encoding="UTF-8"?>
<svg width="128px" height="128px" viewBox="0 0 128 128" version="1.1" xmlns="http://www.w3.org/2000/svg" xmlns:xlink="http://www.w3.org/1999/xlink">
    <!-- Generator: Sketch 53 (72520) - https://sketchapp.com -->
    <title>img-race-norway</title>
    <desc>Created with Sketch.</desc>
    <g id="Symbols" stroke="none" stroke-width="1" fill="none" fill-rule="evenodd">
        <g id="image-/-race-/-norway">
            <g>
                <circle id="Oval-Copy-27" stroke-opacity="0.32" stroke="#F0F8FF" stroke-width="2" fill-opacity="0.04" fill="#F0F8FF" cx="64" cy="64" r="63"></circle>
                <g id="x" transform="translate(38.000000, 15.000000)">
                    <rect id="Rectangle" fill="#838F93" x="3" y="83" width="48" height="5"></rect>
                    <rect id="Rectangle-Copy-2" fill="#838F93" x="7" y="31" width="40" height="52"></rect>
                    <polygon id="Rectangle-Copy-3" fill="#838F93" transform="translate(27.000000, 18.011000) scale(1, -1) translate(-27.000000, -18.011000) " points="18 5.022 36 5.022 36 19.022 31.4125977 19.022 31.19 26.624 27 31 22.7799346 25.6847617 22.5354004 19.022 18 19.022"></polygon>
                    <path d="M52.6631881,87.3581213 L52.5740792,87.3581213 L52.5740792,83.0430528 C52.5740792,82.3135421 51.9756238,81.7221135 51.2374455,81.7221135 L48.2968515,81.7221135 L48.2968515,32.2309198 L48.3859604,32.2309198 C49.1241386,32.2309198 49.7225941,31.6394912 49.7225941,30.9099804 C49.7225941,30.1804697 49.1241386,29.5890411 48.3859604,29.5890411 L36.8909109,29.5890411 L36.8909109,22.3679061 L36.9800198,22.3679061 L38.4057624,22.3679061 C39.1439406,22.3679061 39.742396,21.7764775 39.742396,21.0469667 C39.742396,20.317456 39.1439406,19.7260274 38.4057624,19.7260274 L38.3166535,19.7260274 L38.3166535,16.8199609 C38.3166535,16.0904501 37.718198,15.4990215 36.9800198,15.4990215 L32.6136832,15.4990215 L32.6136832,12.5048924 L32.7027921,12.5048924 C33.2165941,12.5048924 33.6849505,12.2137573 33.9075446,11.756184 C34.1301386,11.2984344 34.0675842,10.7552642 33.7466139,10.3588063 L28.3364554,3.67555773 L28.3364554,2.64187867 L28.4255644,2.64187867 C29.1637426,2.64187867 29.762198,2.0504501 29.762198,1.32093933 C29.762198,0.591428571 29.1637426,0 28.4255644,0 L25.5740792,0 C24.835901,0 24.2374455,0.591428571 24.2374455,1.32093933 C24.2374455,2.0504501 24.835901,2.64187867 25.5740792,2.64187867 L25.6631881,2.64187867 L25.6631881,3.67555773 L20.2532079,10.3588063 C19.9322376,10.7552642 19.8696832,11.2986106 20.0922772,11.756184 C20.3148713,12.2137573 20.7832277,12.5048924 21.2970297,12.5048924 L21.3861386,12.5048924 L21.3861386,15.4990215 L17.019802,15.4990215 C16.2816238,15.4990215 15.6831683,16.0904501 15.6831683,16.8199609 L15.6831683,19.7260274 L15.5940594,19.7260274 C14.8558812,19.7260274 14.2574257,20.317456 14.2574257,21.0469667 C14.2574257,21.7764775 14.8558812,22.3679061 15.5940594,22.3679061 L17.019802,22.3679061 L17.1089109,22.3679061 L17.1089109,29.5890411 L5.61386139,29.5890411 C4.87568317,29.5890411 4.27722772,30.1804697 4.27722772,30.9099804 C4.27722772,31.6394912 4.87568317,32.2309198 5.61386139,32.2309198 L5.7029703,32.2309198 L5.7029703,81.7221135 L2.76237624,81.7221135 C2.02419802,81.7221135 1.42574257,82.3135421 1.42574257,83.0430528 L1.42574257,87.3581213 L1.33663366,87.3581213 C0.598455446,87.3581213 0,87.9495499 0,88.6790607 C0,89.4085714 0.598455446,90 1.33663366,90 L52.6633663,90 C53.4015446,90 54,89.4085714 54,88.6790607 C54,87.9495499 53.4013663,87.3581213 52.6631881,87.3581213 Z M36.8909109,81.7221135 L36.8909109,74.5009785 L45.6235842,74.5009785 L45.6235842,81.7221135 L36.8909109,81.7221135 Z M19.782,81.7221135 L19.782,74.5009785 L34.2176436,74.5009785 L34.2176436,81.7221135 L19.782,81.7221135 Z M19.782,71.8590998 L19.782,32.2309198 L34.2176436,32.2309198 L34.2176436,71.8590998 L19.782,71.8590998 Z M45.6235842,32.2309198 L45.6235842,71.8590998 L36.8909109,71.8590998 L36.8909109,32.2309198 L45.6235842,32.2309198 Z M26.9998218,6.25350294 L29.9218812,9.8630137 L24.0779406,9.8630137 L26.9998218,6.25350294 Z M24.0592277,12.5048924 L29.9404158,12.5048924 L29.9404158,15.4990215 L28.3364554,15.4990215 L28.3364554,15.4109589 C28.3364554,14.6814481 27.738,14.0900196 26.9998218,14.0900196 C26.2616436,14.0900196 25.6631881,14.6814481 25.6631881,15.4109589 L25.6631881,15.4990215 L24.0592277,15.4990215 L24.0592277,12.5048924 Z M18.3562574,18.1409002 L35.6433861,18.1409002 L35.6433861,19.7260274 L18.3562574,19.7260274 L18.3562574,18.1409002 Z M19.782,22.3679061 L34.2176436,22.3679061 L34.2176436,29.5890411 L19.782,29.5890411 L19.782,22.3679061 Z M17.1087327,32.2309198 L17.1087327,71.8590998 L8.37605941,71.8590998 L8.37605941,32.2309198 L17.1087327,32.2309198 Z M8.37605941,74.5009785 L17.1087327,74.5009785 L17.1087327,81.7221135 L8.37605941,81.7221135 L8.37605941,74.5009785 Z M4.09883168,84.3639922 L49.9008119,84.3639922 L49.9008119,87.3581213 L4.09883168,87.3581213 L4.09883168,84.3639922 Z" id="Shape" fill="#516066" fill-rule="nonzero"></path>
                    <path d="M26.5,35 C25.6716,35 25,35.5416129 25,36.2096774 L25,38.7903226 C25,39.4583871 25.6716,40 26.5,40 C27.3284,40 28,39.4583871 28,38.7903226 L28,36.2096774 C28,35.5416129 27.3284,35 26.5,35 Z" id="Path" fill="#516066"></path>
                    <path d="M26.5,63 C25.6716,63 25,63.5416129 25,64.2096774 L25,66.7903226 C25,67.4583871 25.6716,68 26.5,68 C27.3284,68 28,67.4583871 28,66.7903226 L28,64.2096774 C28,63.5416129 27.3284,63 26.5,63 Z" id="Path" fill="#516066"></path>
                    <path d="M27.56,76.44 C27.282,76.16 26.894,76 26.5,76 C26.106,76 25.718,76.16 25.44,76.44 C25.16,76.718 25,77.106 25,77.5 C25,77.894 25.16,78.282 25.44,78.56 C25.718,78.84 26.106,79 26.5,79 C26.894,79 27.282,78.84 27.56,78.56 C27.84,78.282 28,77.894 28,77.5 C28,77.106 27.84,76.718 27.56,76.44 Z" id="Path" fill="#516066"></path>
                    <path d="M41.56,76.44 C41.282,76.16 40.894,76 40.5,76 C40.106,76 39.718,76.16 39.44,76.44 C39.16,76.718 39,77.106 39,77.5 C39,77.894 39.16,78.282 39.44,78.56 C39.718,78.84 40.106,79 40.5,79 C40.894,79 41.282,78.84 41.56,78.56 C41.84,78.282 42,77.894 42,77.5 C42,77.106 41.84,76.718 41.56,76.44 Z" id="Path" fill="#516066"></path>
                    <path d="M13.56,76.44 C13.282,76.16 12.894,76 12.5,76 C12.106,76 11.718,76.16 11.44,76.44 C11.16,76.718 11,77.106 11,77.5 C11,77.894 11.16,78.282 11.44,78.56 C11.718,78.84 12.106,79 12.5,79 C12.894,79 13.282,78.84 13.56,78.56 C13.84,78.282 14,77.894 14,77.5 C14,77.106 13.84,76.718 13.56,76.44 Z" id="Path" fill="#516066"></path>
                    <path d="M26.5,48 C25.6716,48 25,48.5715745 25,49.2765957 L25,54.7234043 C25,55.4284255 25.6716,56 26.5,56 C27.3284,56 28,55.4284255 28,54.7234043 L28,49.2765957 C28,48.5715745 27.3284,48 26.5,48 Z" id="Path" fill="#516066"></path>
                    <path d="M40.5,40 C41.3284,40 42,39.4583871 42,38.7903226 L42,36.2096774 C42,35.5416129 41.3284,35 40.5,35 C39.6716,35 39,35.5416129 39,36.2096774 L39,38.7903226 C39,39.4583871 39.6716,40 40.5,40 Z" id="Path" fill="#516066"></path>
                    <path d="M40.5,68 C41.3284,68 42,67.4583871 42,66.7903226 L42,64.2096774 C42,63.5416129 41.3284,63 40.5,63 C39.6716,63 39,63.5416129 39,64.2096774 L39,66.7903226 C39,67.4583871 39.6716,68 40.5,68 Z" id="Path" fill="#516066"></path>
                    <path d="M40.5,56 C41.3284,56 42,55.4284255 42,54.7234043 L42,49.2765957 C42,48.5715745 41.3284,48 40.5,48 C39.6716,48 39,48.5715745 39,49.2765957 L39,54.7234043 C39,55.4284255 39.6716,56 40.5,56 Z" id="Path" fill="#516066"></path>
                    <path d="M12.5,40 C13.3284,40 14,39.4583871 14,38.7903226 L14,36.2096774 C14,35.5416129 13.3284,35 12.5,35 C11.6716,35 11,35.5416129 11,36.2096774 L11,38.7903226 C11,39.4583871 11.6716,40 12.5,40 Z" id="Path" fill="#516066"></path>
                    <path d="M12.5,68 C13.3284,68 14,67.4583871 14,66.7903226 L14,64.2096774 C14,63.5416129 13.3284,63 12.5,63 C11.6716,63 11,63.5416129 11,64.2096774 L11,66.7903226 C11,67.4583871 11.6716,68 12.5,68 Z" id="Path" fill="#516066"></path>
                    <path d="M12.5,56 C13.3284,56 14,55.4284255 14,54.7234043 L14,49.2765957 C14,48.5715745 13.3284,48 12.5,48 C11.6716,48 11,48.5715745 11,49.2765957 L11,54.7234043 C11,55.4284255 11.6716,56 12.5,56 Z" id="Path" fill="#516066"></path>
                    <path d="M27.7903226,24 L25.2096774,24 C24.5416129,24 24,24.6716 24,25.5 C24,26.3284 24.5416129,27 25.2096774,27 L27.7903226,27 C28.4583871,27 29,26.3284 29,25.5 C29,24.6716 28.4583871,24 27.7903226,24 Z" id="Path" fill="#516066"></path>
                </g>
            </g>
        </g>
    </g>
</svg>