<?xml version="1.0" encoding="UTF-8"?>
<svg width="128px" height="128px" viewBox="0 0 128 128" version="1.1" xmlns="http://www.w3.org/2000/svg" xmlns:xlink="http://www.w3.org/1999/xlink">
    <!-- Generator: Sketch 53 (72520) - https://sketchapp.com -->
    <title>img-race-poland</title>
    <desc>Created with Sketch.</desc>
    <g id="Symbols" stroke="none" stroke-width="1" fill="none" fill-rule="evenodd">
        <g id="image-/-race-/-poland">
            <g>
                <circle id="Oval-Copy-26" stroke-opacity="0.32" stroke="#F0F8FF" stroke-width="2" fill-opacity="0.04" fill="#F0F8FF" cx="64" cy="64" r="63"></circle>
                <path d="M26.1933512,78.7361111 L31.786,71.1031742 L53.8854167,71.1031742 L54.073,43.7720391 L56.941,43.250651 L56.4305973,40.6822883 L61.585,33.9271821 L62.346,26.3407529 L66,20.944 L69.92,26.3407529 L69.92,33.9271821 L75.484609,40.917074 L75.113048,43.250651 L78.083,44.181 L78.4960937,71.1031742 L100.774958,71.1031742 L105.833971,78.7490734 C105.942259,78.912734 106,79.1046391 106,79.3008817 L106,97 C106,97.5522847 105.552285,98 105,98 L27,98 C26.4477153,98 26,97.5522847 26,97 L26,79.3271422 C26,79.1145898 26.0677262,78.9075662 26.1933512,78.7361111 Z" id="Rectangle" fill="#838F93"></path>
                <g id="cathedral" transform="translate(25.000000, 18.000000)" fill="#516066">
                    <rect id="Rectangle" x="41.8093882" y="39.2664688" width="2.42832549" height="2.41883984" rx="1"></rect>
                    <path d="M79.4491569,54.3765547 L79.4491569,57.0729609 L77.0208314,53.0415078 L77.0208314,49.538875 C77.0208314,48.9865903 76.5731161,48.538875 76.0208314,48.538875 L75.5925059,48.538875 C75.0402211,48.538875 74.5925059,48.9865903 74.5925059,49.538875 L74.5925059,52.1672148 L54.3561922,52.1672148 L54.3561922,41.6854687 L56.1892118,41.6854687 C56.7414965,41.6854687 57.1892118,41.2377535 57.1892118,40.6854687 L57.1892118,40.2666289 C57.1892118,39.7143442 56.7414965,39.2666289 56.1892118,39.2666289 L54.3561922,39.2666289 L54.3561922,24.7532695 L51.1181569,24.7532695 L51.1181569,24.3501562 L51.1181569,14.5456953 C51.1181569,13.9934106 50.6704416,13.5456953 50.1181569,13.5456953 L49.6898314,13.5456953 C49.1375466,13.5456953 48.6898314,13.9934106 48.6898314,14.5456953 L48.6898314,17.8106563 C47.9955647,17.0020273 47.1771725,16.3023047 46.2615059,15.7446406 L46.2615059,7.33723828 L44.6425686,7.33723828 L44.6425686,5.80534375 C44.6425686,4.22860547 43.6273765,2.88425391 42.2142431,2.38504688 L42.2142431,1 C42.2142431,0.44771525 41.7665279,1.20591542e-16 41.2142431,2.22044605e-16 L40.7859176,0 C40.2336329,1.01453063e-16 39.7859176,0.44771525 39.7859176,1 L39.7859176,2.38504688 C38.3727843,2.88425391 37.3575922,4.22860547 37.3575922,5.80534375 L37.3575922,7.33723828 L35.7386549,7.33723828 L35.7386549,15.7446406 C34.8229882,16.3021445 34.0044353,17.0020273 33.3103294,17.8106563 L33.3103294,14.5456953 C33.3103294,13.9934106 32.8626142,13.5456953 32.3103294,13.5456953 L31.8818431,13.5456953 C31.3295584,13.5456953 30.8818431,13.9934106 30.8818431,14.5456953 L30.8818431,24.3499961 L30.8818431,24.7531094 L27.6439686,24.7531094 L27.6439686,39.2664688 L25.810949,39.2664688 C25.2586643,39.2664688 24.810949,39.714184 24.810949,40.2664688 L24.810949,40.6853086 C24.810949,41.2375933 25.2586643,41.6853086 25.810949,41.6853086 L27.6439686,41.6853086 L27.6439686,52.1670547 L7.4076549,52.1670547 L7.4076549,49.5387148 C7.4076549,48.9864301 6.95993965,48.5387148 6.4076549,48.5387148 L5.97916863,48.5387148 C5.42688388,48.5387148 4.97916863,48.9864301 4.97916863,49.5387148 L4.97916863,53.0413477 L2.55084314,57.0728008 L2.55084314,54.3763945 C2.55084314,53.8241098 2.10312789,53.3763945 1.55084314,53.3763945 L1.12251765,53.3763945 C0.570232897,53.3763945 0.122517647,53.8241098 0.122517647,54.3763945 L0.122517647,81 C0.122517647,81.5522847 0.570232897,82 1.12251765,82 L80.8774824,82 C81.4297671,82 81.8774824,81.5522847 81.8774824,81 L81.8774824,54.3765547 C81.8774824,53.8242699 81.4297671,53.3765547 80.8774824,53.3765547 L80.4491569,53.3765547 C79.8968721,53.3765547 79.4491569,53.8242699 79.4491569,54.3765547 Z M54.3560314,54.5860547 L75.1190745,54.5860547 L78.5188588,60.2301211 L54.3560314,60.2301211 L54.3560314,54.5860547 L54.3560314,54.5860547 Z M39.7857569,5.80534375 C39.7857569,5.13845312 40.3303333,4.59584375 41,4.59584375 C41.6695059,4.59584375 42.2142431,5.13829297 42.2142431,5.80534375 L42.2142431,7.33723828 L39.7859176,7.33723828 L39.7859176,5.80534375 L39.7857569,5.80534375 Z M38.1669804,9.75607812 L43.8331804,9.75607812 L43.8331804,14.6762383 C42.9335922,14.4143828 41.9835176,14.2713633 41.0001608,14.2713633 C40.0166431,14.2713633 39.0667294,14.414543 38.1671412,14.6762383 L38.1671412,9.75607812 L38.1669804,9.75607812 Z M33.3101686,24.3499961 C33.3101686,20.1265156 36.7599569,16.6902031 41,16.6902031 C45.2400431,16.6902031 48.6898314,20.1265156 48.6898314,24.3499961 L48.6898314,24.7531094 L33.3101686,24.7531094 L33.3101686,24.3499961 Z M30.0722941,41.6853086 L39.3810627,41.6853086 L39.3810627,39.2664687 L30.0722941,39.2664687 L30.0722941,27.1721094 L51.9275451,27.1721094 L51.9275451,39.2664687 L46.6660392,39.2664687 L46.6660392,41.6853086 L51.9275451,41.6853086 L51.9275451,48.1356016 L49.4992196,48.1356016 L49.4992196,47.7324883 C49.4992196,45.7318164 47.8653294,44.1041484 45.856651,44.1041484 C43.8481333,44.1041484 42.2140824,45.7316562 42.2140824,47.7324883 L42.2140824,48.1356016 L39.7857569,48.1356016 L39.7857569,47.7324883 C39.7857569,45.7318164 38.1518667,44.1041484 36.1431882,44.1041484 C34.1345098,44.1041484 32.5006196,45.7316562 32.5006196,47.7324883 L32.5006196,48.1356016 L30.0722941,48.1356016 L30.0722941,41.6853086 L30.0722941,41.6853086 Z M47.0708941,47.7324883 L47.0708941,52.1670547 L44.6425686,52.1670547 L44.6425686,47.7324883 C44.6425686,47.0655977 45.1871451,46.5229883 45.8568118,46.5229883 C46.5263176,46.5231484 47.0708941,47.0655977 47.0708941,47.7324883 Z M37.3574314,47.7324883 L37.3574314,52.1670547 L34.9291059,52.1670547 L34.9291059,47.7324883 C34.9291059,47.0655977 35.4736824,46.5229883 36.143349,46.5229883 C36.8130157,46.5229883 37.3574314,47.0655977 37.3574314,47.7324883 Z M6.88092549,54.5860547 L27.6439686,54.5860547 L27.6439686,60.2301211 L3.48114118,60.2301211 L6.88092549,54.5860547 Z M2.55084314,62.6489609 L27.6439686,62.6489609 L27.6439686,74.7433203 L2.55084314,74.7433203 L2.55084314,62.6489609 Z M34.9291059,79.5811602 L2.55084314,79.5811602 L2.55084314,77.1623203 L34.9291059,77.1623203 L34.9291059,79.5811602 Z M44.6425686,79.5811602 L37.3574314,79.5811602 L37.3574314,71.1151406 C37.3574314,69.1144688 38.9913216,67.4868008 41,67.4868008 C43.0085176,67.4868008 44.6425686,69.1143086 44.6425686,71.1151406 L44.6425686,79.5811602 Z M38.9763686,63.0520742 C38.9763686,62.4633398 39.9298196,61.1145039 41.0006431,59.9437617 C42.0708235,61.1129023 43.0236314,62.4609375 43.0236314,63.0520742 C43.0236314,64.1635586 42.1158431,65.0678008 41,65.0678008 C39.8841569,65.0678008 38.9763686,64.1637188 38.9763686,63.0520742 Z M44.2898078,66.0367461 C45.0114078,65.2482969 45.4519569,64.2005547 45.4519569,63.0522344 C45.4519569,60.9168711 42.6835725,58.1375195 41.8351137,57.3365781 L41,56.5481289 L40.1647255,57.3365781 C39.3162667,58.1375195 36.5478824,60.9168711 36.5478824,63.0522344 C36.5478824,64.2007148 36.9885922,65.248457 37.7100314,66.0367461 C36.0383569,67.1150781 34.9289451,68.9877852 34.9289451,71.1151406 L34.9289451,74.7434805 L30.0722941,74.7434805 L30.0722941,50.5546016 L32.5006196,50.5546016 L32.5006196,54.5860547 L39.7857569,54.5860547 L39.7857569,50.5546016 L42.2140824,50.5546016 L42.2140824,54.5860547 L49.4992196,54.5860547 L49.4992196,50.5546016 L51.9275451,50.5546016 L51.9275451,74.7434805 L47.0708941,74.7433203 L47.0708941,71.1149805 C47.0708941,68.9879453 45.9616431,67.1150781 44.2898078,66.0367461 Z M79.4491569,79.5811602 L47.0708941,79.5811602 L47.0708941,77.1623203 L79.4491569,77.1623203 L79.4491569,79.5811602 Z M79.4491569,74.7433203 L54.3560314,74.7433203 L54.3560314,62.6489609 L79.4491569,62.6489609 L79.4491569,74.7433203 Z" id="Shape" fill-rule="nonzero"></path>
                    <path d="M41,29.5909492 C38.9914824,29.5909492 37.3574314,31.218457 37.3574314,33.2192891 C37.3574314,35.2201211 38.9913216,36.8476289 41,36.8476289 C43.0085176,36.8476289 44.6425686,35.2201211 44.6425686,33.2192891 C44.6425686,31.218457 43.0085176,29.5909492 41,29.5909492 Z M41,34.4287891 C40.3304941,34.4287891 39.7857569,33.8863398 39.7857569,33.2192891 C39.7857569,32.5522383 40.3303333,32.0097891 41,32.0097891 C41.6695059,32.0097891 42.2142431,32.5522383 42.2142431,33.2192891 C42.2142431,33.8863398 41.6695059,34.4287891 41,34.4287891 Z" id="Shape" fill-rule="nonzero"></path>
                    <rect id="Rectangle" x="39.7857569" y="74.9853164" width="2.42832549" height="2.41883984" rx="1"></rect>
                    <rect id="Rectangle" x="39.7857569" y="70.1474766" width="2.42832549" height="2.41883984" rx="1"></rect>
                    <rect id="Rectangle" x="47.0708941" y="63.8584609" width="2.42832549" height="2.41883984" rx="1"></rect>
                    <rect id="Rectangle" x="47.0708941" y="56.6017813" width="2.42832549" height="4.83767969" rx="1"></rect>
                    <rect id="Rectangle" x="32.4197451" y="29.5909492" width="2.42832549" height="2.41883984" rx="1"></rect>
                    <rect id="Rectangle" x="47.0708941" y="29.1878359" width="2.42832549" height="2.41883984" rx="1"></rect>
                    <rect id="Rectangle" x="47.0708941" y="34.0255156" width="2.42832549" height="2.41883984" rx="1"></rect>
                    <rect id="Rectangle" x="6.59810588" y="64.6646875" width="2.42832549" height="8.06290625" rx="1"></rect>
                    <rect id="Rectangle" x="11.4549176" y="64.6646875" width="2.42832549" height="8.06290625" rx="1"></rect>
                    <rect id="Rectangle" x="16.3115686" y="64.6646875" width="2.42832549" height="8.06290625" rx="1"></rect>
                    <rect id="Rectangle" x="21.1683804" y="64.6646875" width="2.42832549" height="8.06290625" rx="1"></rect>
                    <rect id="Rectangle" x="57.5128706" y="56.198668" width="2.42832549" height="2.41883984" rx="1"></rect>
                    <rect id="Rectangle" x="62.3696824" y="56.198668" width="2.42832549" height="2.41883984" rx="1"></rect>
                    <rect id="Rectangle" x="67.2263333" y="56.198668" width="5.6662" height="2.41883984" rx="1"></rect>
                    <rect id="Rectangle" x="14.6117569" y="56.198668" width="4.85681176" height="2.41883984" rx="1"></rect>
                    <rect id="Rectangle" x="9.75510588" y="56.198668" width="2.42832549" height="2.41883984" rx="1"></rect>
                    <rect id="Rectangle" x="72.9734078" y="64.6646875" width="2.42832549" height="8.06290625" rx="1"></rect>
                    <rect id="Rectangle" x="68.1167569" y="64.6646875" width="2.42832549" height="8.06290625" rx="1"></rect>
                    <rect id="Rectangle" x="63.2599451" y="64.6646875" width="2.42832549" height="8.06290625" rx="1"></rect>
                    <rect id="Rectangle" x="58.4032941" y="64.6646875" width="2.42832549" height="8.06290625" rx="1"></rect>
                    <rect id="Rectangle" x="39.7857569" y="19.1897617" width="2.42832549" height="3.38650391" rx="1"></rect>
                </g>
            </g>
        </g>
    </g>
</svg>