<?xml version="1.0" encoding="UTF-8"?>
<svg width="128px" height="128px" viewBox="0 0 128 128" version="1.1" xmlns="http://www.w3.org/2000/svg" xmlns:xlink="http://www.w3.org/1999/xlink">
    <!-- Generator: Sketch 53 (72520) - https://sketchapp.com -->
    <title>img-race-hong-kong</title>
    <desc>Created with Sketch.</desc>
    <g id="Symbols" stroke="none" stroke-width="1" fill="none" fill-rule="evenodd">
        <g id="image-/-race-/-hong-kong-2">
            <g>
                <circle id="Oval-Copy-15" stroke-opacity="0.32" stroke="#F0F8FF" stroke-width="2" fill-opacity="0.04" fill="#F0F8FF" cx="64" cy="64" r="63"></circle>
                <g id="img" transform="translate(26.000000, 21.000000)">
                    <polygon id="Fill-115" fill="#838F93" points="4.8 79.8534542 74.6125208 79.8534542 74.6125208 67.8121284 4.8 67.8121284"></polygon>
                    <polygon id="Fill-115-Copy" fill="#838F93" points="12 79.8534542 74.6125208 79.8534542 74.6125208 58.188366 12 58.188366"></polygon>
                    <polygon id="Fill-115-Copy-2" fill="#838F93" points="52 79.4076625 66.6125208 79.4076625 66.6125208 21.6534653 52 21.6534653"></polygon>
                    <polygon id="Fill-115-Copy-3" fill="#838F93" points="20 80.2096427 54.56 80.2096427 54.56 50.9717704 43.4125208 39.3693296 43.4125208 25.473297 30.504 9.72481188 20 26.0272947"></polygon>
                    <path d="M43.9219124,79.8095156 C43.2618327,79.8095156 42.7266932,79.2719808 42.7266932,78.6089465 L42.7266932,26.47271 L31.078247,10.9456691 L20.8946614,26.4317306 L20.8946614,78.6089465 C20.8946614,79.2719808 20.3595219,79.8095156 19.6994422,79.8095156 C19.0393625,79.8095156 18.5042231,79.2719808 18.5042231,78.6089465 L18.5042231,26.0709195 C18.5042231,25.8357681 18.5730677,25.6055789 18.7021514,25.4093259 L30.0165737,8.20340902 C30.2305976,7.87797474 30.5886853,7.67723958 30.9768924,7.66507381 C31.3639841,7.65258789 31.7348207,7.83107251 31.9684462,8.14258019 L44.876494,25.3484971 C45.0326693,25.5565957 45.1171315,25.810316 45.1171315,26.0709195 L45.1171315,78.6089465 C45.1171315,79.2719808 44.581992,79.8095156 43.9219124,79.8095156" id="Fill-1" fill="#516066"></path>
                    <path d="M31.0138645,79.8095156 C30.3537849,79.8095156 29.8186454,79.2719808 29.8186454,78.6089465 L29.8186454,8.86516274 C29.8186454,8.20212842 30.3537849,7.66459359 31.0138645,7.66459359 C31.6739442,7.66459359 32.2090837,8.20212842 32.2090837,8.86516274 L32.2090837,78.6089465 C32.2090837,79.2719808 31.6739442,79.8095156 31.0138645,79.8095156" id="Fill-2" fill="#516066"></path>
                    <path d="M31.0138645,10.0657319 C30.3537849,10.0657319 29.8186454,9.52819707 29.8186454,8.86516274 L29.8186454,1.22778206 C29.8186454,0.564747732 30.3537849,0.0272129009 31.0138645,0.0272129009 C31.6739442,0.0272129009 32.2090837,0.564747732 32.2090837,1.22778206 L32.2090837,8.86516274 C32.2090837,9.52819707 31.6739442,10.0657319 31.0138645,10.0657319" id="Fill-3" fill="#516066"></path>
                    <path d="M35.4135458,15.9142645 C34.7534661,15.9142645 34.2183267,15.3767297 34.2183267,14.7136954 L34.2183267,7.0763147 C34.2183267,6.41312029 34.7534661,5.87574554 35.4135458,5.87574554 C36.0736255,5.87574554 36.6087649,6.41312029 36.6087649,7.0763147 L36.6087649,14.7136954 C36.6087649,15.3767297 36.0736255,15.9142645 35.4135458,15.9142645" id="Fill-4" fill="#516066"></path>
                    <path d="M19.6983267,79.8096757 C19.4556175,79.8096757 19.2105179,79.7355606 18.9987251,79.5815676 C18.4639044,79.1929033 18.3440637,78.4423075 18.7311554,77.9052529 L29.5064542,62.9472817 L18.7740239,49.7557479 C18.3733865,49.2635146 18.4243825,48.5428529 18.8903586,48.1124088 L29.329243,38.4675165 L18.8159363,26.8796229 C18.3713147,26.3896306 18.4063745,25.6302306 18.8943426,25.1836189 C19.3823108,24.7371672 20.1381673,24.7722239 20.5827888,25.2623762 L31.8973705,37.7334084 C32.3405578,38.22196 32.3074104,38.9783186 31.8229482,39.4257307 L21.3381673,49.1132033 L31.9394422,62.1430604 C32.2823904,62.5647003 32.3000797,63.1654651 31.9821514,63.6066343 L20.6677291,79.3128001 C20.4339442,79.637274 20.0688446,79.8096757 19.6983267,79.8096757" id="Fill-5" fill="#516066"></path>
                    <path d="M43.9228685,79.8096757 C43.5657371,79.8096757 43.2125896,79.6495998 42.9770518,79.344175 L30.8658167,63.6380091 C30.5156972,63.1838738 30.5346614,62.5445307 30.9110757,62.1123258 L42.2283665,49.1172052 L31.0317131,39.4526235 C30.7813546,39.236521 30.6310757,38.9261339 30.6167331,38.5949369 C30.6020717,38.2635798 30.7246215,37.9411869 30.9552191,37.7037944 L43.0664542,25.2326021 C43.5271713,24.7579771 44.2839841,24.7483726 44.7566534,25.2116322 C45.2291633,25.6745716 45.2385657,26.434612 44.7775299,26.909397 L33.5553785,38.4651153 L44.7010359,48.0855161 C44.9427888,48.2942551 45.0914741,48.5913559 45.1141036,48.9107073 C45.1367331,49.2302188 45.0313944,49.5454082 44.8215139,49.7864825 L33.358247,62.9492026 L44.8669323,77.873878 C45.2710757,78.3979664 45.1757769,79.152084 44.6538645,79.5581965 C44.4361753,79.7275568 44.1784861,79.8095156 43.9228685,79.8096757" id="Fill-6" fill="#516066"></path>
                    <path d="M54.5442231,80.1296674 C53.8841434,80.1296674 53.349004,79.5921326 53.349004,78.9290982 L53.349004,51.3438608 L43.0578486,40.5272129 C42.6019124,40.0479457 42.6189641,39.2880655 43.096255,38.8299283 C43.5732271,38.371631 44.3298805,38.3889192 44.7859761,38.8683465 L55.4082869,50.0328393 C55.6208765,50.2563052 55.7394422,50.5534061 55.7394422,50.8623525 L55.7394422,78.9290982 C55.7394422,79.5921326 55.2043028,80.1296674 54.5442231,80.1296674" id="Fill-7" fill="#516066"></path>
                    <path d="M16.9642939,80.530435 C16.4314934,80.530435 16,80.09748 16,79.5628747 C16,79.0282694 16.4314934,78.5940594 16.9642939,78.5940594 L57.9704115,78.5940594 C58.503212,78.5940594 58.9359561,79.0282694 58.9359561,79.5628747 C58.9359561,80.09748 58.503212,80.530435 57.9704115,80.530435 L16.9642939,80.530435 Z" id="Fill-704-Copy" fill="#516066"></path>
                    <path d="M54.5453386,80.1298275 C54.1569721,80.1298275 53.7760956,79.9399775 53.5462948,79.5898915 L42.9241434,63.4039782 C42.6250199,62.9482421 42.6696414,62.3471572 43.0326693,61.9410446 L53.6549801,50.0602122 C54.0960956,49.5668584 54.8517928,49.526039 55.3427888,49.9691291 C55.8339442,50.4120591 55.8745817,51.171299 55.4334661,51.6644928 L45.4275697,62.8560384 L55.5421514,78.268305 C55.905498,78.8220075 55.7533068,79.5665204 55.2020717,79.9314934 C54.9995219,80.065637 54.7711554,80.1298275 54.5453386,80.1298275" id="Fill-8" fill="#516066"></path>
                    <path d="M67.2750598,68.288854 C66.6149801,68.288854 66.0798406,67.7513191 66.0798406,67.0882848 L66.0798406,22.3032134 L52.9016733,22.3032134 L52.9016733,40.8707358 C52.9016733,41.5337701 52.3665339,42.0713049 51.7064542,42.0713049 C51.0462151,42.0713049 50.5112351,41.5337701 50.5112351,40.8707358 L50.5112351,21.1026442 C50.5112351,20.4396099 51.0462151,19.9020751 51.7064542,19.9020751 L67.2750598,19.9020751 C67.9351394,19.9020751 68.4702789,20.4396099 68.4702789,21.1026442 L68.4702789,67.0882848 C68.4702789,67.7513191 67.9351394,68.288854 67.2750598,68.288854" id="Fill-9" fill="#516066"></path>
                    <path d="M5.54326693,80.1296674 L1.19521912,80.1296674 C0.535139442,80.1296674 1.42108547e-14,79.5921326 1.42108547e-14,78.9290982 C1.42108547e-14,78.2660639 0.535139442,77.7285291 1.19521912,77.7285291 L4.34804781,77.7285291 L4.34804781,67.419802 C4.34804781,66.7567677 4.88318725,66.2192328 5.54326693,66.2192328 L9.83250996,66.2192328 L9.83250996,57.6002668 C9.83250996,56.9372325 10.3676494,56.3996976 11.0277291,56.3996976 L14.9185657,56.3996976 C15.5786454,56.3996976 16.1137849,56.9372325 16.1137849,57.6002668 C16.1137849,58.2633011 15.5786454,58.800836 14.9185657,58.800836 L12.2229482,58.800836 L12.2229482,67.419802 C12.2229482,68.0828363 11.6878088,68.6203711 11.0277291,68.6203711 L6.73848606,68.6203711 L6.73848606,78.9290982 C6.73848606,79.5921326 6.20334661,80.1296674 5.54326693,80.1296674" id="Fill-10" fill="#516066"></path>
                    <path d="M78.7961753,80.1296674 L74.516494,80.1296674 C73.8564143,80.1296674 73.3212749,79.5921326 73.3212749,78.9290982 L73.3212749,59.5282208 L67.2750598,59.5282208 C66.6149801,59.5282208 66.0798406,58.990686 66.0798406,58.3276516 C66.0798406,57.6646173 66.6149801,57.1270825 67.2750598,57.1270825 L74.516494,57.1270825 C75.1765737,57.1270825 75.7117131,57.6646173 75.7117131,58.3276516 L75.7117131,77.7285291 L78.7961753,77.7285291 C79.456255,77.7285291 79.9913944,78.2660639 79.9913944,78.9290982 C79.9913944,79.5921326 79.456255,80.1296674 78.7961753,80.1296674" id="Fill-11" fill="#516066"></path>
                    <path d="M59.5807171,22.3032134 C58.9206375,22.3032134 58.385498,21.7656785 58.385498,21.1026442 L58.385498,15.6972016 C58.385498,15.0341673 58.9206375,14.4966325 59.5807171,14.4966325 C60.2407968,14.4966325 60.7759363,15.0341673 60.7759363,15.6972016 L60.7759363,21.1026442 C60.7759363,21.7656785 60.2407968,22.3032134 59.5807171,22.3032134" id="Fill-12" fill="#516066"></path>
                    <path d="M64.2983267,22.3032134 C63.638247,22.3032134 63.1031076,21.7656785 63.1031076,21.1026442 L63.1031076,15.6972016 C63.1031076,15.0341673 63.638247,14.4966325 64.2983267,14.4966325 C64.9584064,14.4966325 65.4935458,15.0341673 65.4935458,15.6972016 L65.4935458,21.1026442 C65.4935458,21.7656785 64.9584064,22.3032134 64.2983267,22.3032134" id="Fill-13" fill="#516066"></path>
                    <path d="M67.2750598,28.0076777 L58.9976096,28.0076777 C58.3375299,28.0076777 57.8023904,27.4701429 57.8023904,26.8071086 C57.8023904,26.1440742 58.3375299,25.6065394 58.9976096,25.6065394 L67.2750598,25.6065394 C67.9351394,25.6065394 68.4702789,26.1440742 68.4702789,26.8071086 C68.4702789,27.4701429 67.9351394,28.0076777 67.2750598,28.0076777" id="Fill-14" fill="#516066"></path>
                    <path d="M67.2750598,34.315308 L58.9976096,34.315308 C58.3375299,34.315308 57.8023904,33.7777732 57.8023904,33.1147388 C57.8023904,32.4517045 58.3375299,31.9141697 58.9976096,31.9141697 L67.2750598,31.9141697 C67.9351394,31.9141697 68.4702789,32.4517045 68.4702789,33.1147388 C68.4702789,33.7777732 67.9351394,34.315308 67.2750598,34.315308" id="Fill-15" fill="#516066"></path>
                    <path d="M67.2750598,40.6229383 L58.9976096,40.6229383 C58.3375299,40.6229383 57.8023904,40.0854035 57.8023904,39.4223691 C57.8023904,38.7593348 58.3375299,38.2218 58.9976096,38.2218 L67.2750598,38.2218 C67.9351394,38.2218 68.4702789,38.7593348 68.4702789,39.4223691 C68.4702789,40.0854035 67.9351394,40.6229383 67.2750598,40.6229383" id="Fill-16" fill="#516066"></path>
                    <path d="M67.2750598,46.9305686 L62.1848606,46.9305686 C61.5247809,46.9305686 60.9896414,46.3930337 60.9896414,45.7299994 C60.9896414,45.0669651 61.5247809,44.5294302 62.1848606,44.5294302 L67.2750598,44.5294302 C67.9351394,44.5294302 68.4702789,45.0669651 68.4702789,45.7299994 C68.4702789,46.3930337 67.9351394,46.9305686 67.2750598,46.9305686" id="Fill-17" fill="#516066"></path>
                </g>
            </g>
        </g>
    </g>
</svg>