<?xml version="1.0" encoding="UTF-8"?>
<svg width="128px" height="128px" viewBox="0 0 128 128" version="1.1" xmlns="http://www.w3.org/2000/svg" xmlns:xlink="http://www.w3.org/1999/xlink">
    <!-- Generator: Sketch 53 (72520) - https://sketchapp.com -->
    <title>img-race-canada</title>
    <desc>Created with Sketch.</desc>
    <g id="Symbols" stroke="none" stroke-width="1" fill="none" fill-rule="evenodd">
        <g id="image-/-race-/-canada">
            <g>
                <circle id="img-race-canada" stroke-opacity="0.32" stroke="#F0F8FF" stroke-width="2" fill-opacity="0.04" fill="#F0F8FF" cx="64" cy="64" r="63"></circle>
                <g id="Group-43" transform="translate(29.000000, 24.000000)">
                    <path d="M30.047,14.261 C29.615,14.261 29.264,13.91 29.264,13.477 L29.264,2.341 C29.264,1.909 29.615,1.558 30.047,1.558 L38.567,1.558 C39,1.558 39.35,1.909 39.35,2.341 L39.35,13.477 C39.35,13.91 39,14.261 38.567,14.261 L30.047,14.261 Z" id="Fill-274" fill="#838F93"></path>
                    <path d="M66.707,27.799 L2.909,27.799 C2.238,27.799 1.694,27.255 1.694,26.585 L1.694,14.41 C1.694,13.739 2.238,13.195 2.909,13.195 L66.707,13.195 C67.377,13.195 67.921,13.739 67.921,14.41 L67.921,26.585 C67.921,27.255 67.377,27.799 66.707,27.799" id="Fill-275" fill="#838F93"></path>
                    <path d="M50.0372745,21.0885024 C49.46415,21.0885024 49,20.6204831 49,20.0442512 C49,19.4680193 49.46415,19 50.0372745,19 L54.3147357,19 C54.8878601,19 55.3533555,19.4680193 55.3533555,20.0442512 C55.3533555,20.6204831 54.8878601,21.0885024 54.3147357,21.0885024 L50.0372745,21.0885024 Z" id="Fill-588-Copy-2" fill="#516066"></path>
                    <polyline id="Fill-276" fill="#838F93" points="52.423 39.804 39.837 39.358 29.84 40.014 16.503 39.804 16.503 27.799 52.423 27.799 52.423 39.804"></polyline>
                    <polyline id="Fill-277" fill="#838F93" points="29.845 66.504 19.644 66.504 19.644 39.467 29.845 39.804 29.56 51.488 29.845 66.504"></polyline>
                    <polygon id="Fill-278" fill="#838F93" points="39.735 66.504 39.8836364 39.408 50.056 39.176 50.056 66.504"></polygon>
                    <polygon id="Fill-279" fill="#838F93" points="9.772 78.62 61.154 78.62 61.154 65.382 9.772 65.382"></polygon>
                    <path d="M16.2406897,38.6831105 C15.5551724,38.6831105 15,38.1308721 15,37.4494477 L15,29.2336628 C15,28.5523983 15.5551724,28 16.2406897,28 C16.9278161,28 17.4829885,28.5523983 17.4829885,29.2336628 L17.4829885,37.4494477 C17.4829885,38.1308721 16.9278161,38.6831105 16.2406897,38.6831105" id="Fill-627" fill="#516066"></path>
                    <path d="M9,77.4494477 L9,71.2336628 C9,70.5523983 9.55517241,70 10.2406897,70 C10.9278161,70 11.4829885,70.5523983 11.4829885,71.2336628 L11.4829885,77.4494477 C11.4829885,78.1308721 10.9278161,78.6831105 10.2406897,78.6831105 C9.55517241,78.6831105 9,78.1308721 9,77.4494477 Z" id="Fill-627-Copy-6" fill="#516066"></path>
                    <path d="M19.0372745,73.0885024 C18.46415,73.0885024 18,72.6204831 18,72.0442512 C18,71.4680193 18.46415,71 19.0372745,71 L33.3147357,71 C33.8878601,71 34.3533555,71.4680193 34.3533555,72.0442512 C34.3533555,72.6204831 33.8878601,73.0885024 33.3147357,73.0885024 L19.0372745,73.0885024 Z" id="Fill-588-Copy-5" fill="#516066"></path>
                    <path d="M60,77.4494477 L60,66.2336628 C60,65.5523983 60.5551724,65 61.2406897,65 C61.9278161,65 62.4829885,65.5523983 62.4829885,66.2336628 L62.4829885,77.4494477 C62.4829885,78.1308721 61.9278161,78.6831105 61.2406897,78.6831105 C60.5551724,78.6831105 60,78.1308721 60,77.4494477 Z" id="Fill-627-Copy-7" fill="#516066"></path>
                    <path d="M18,64.4494477 L19,40.2336628 C19,39.5523983 19.5551724,39 20.2406897,39 C20.9278161,39 21.4829885,39.5523983 21.4829885,40.2336628 L20.4829885,64.4494477 C20.4829885,65.1308721 19.9278161,65.6831105 19.2406897,65.6831105 C18.5551724,65.6831105 18,65.1308721 18,64.4494477 Z" id="Fill-627-Copy" fill="#516066"></path>
                    <path d="M38,64.4494477 L39,40.2336628 C39,39.5523983 39.5551724,39 40.2406897,39 C40.9278161,39 41.4829885,39.5523983 41.4829885,40.2336628 L40.4829885,64.4494477 C40.4829885,65.1308721 39.9278161,65.6831105 39.2406897,65.6831105 C38.5551724,65.6831105 38,65.1308721 38,64.4494477 Z" id="Fill-627-Copy-2" fill="#516066"></path>
                    <path d="M28,64.4494477 L29,40.2336628 C29,39.5523983 29.5551724,39 30.2406897,39 C30.9278161,39 31.4829885,39.5523983 31.4829885,40.2336628 L30.4829885,64.4494477 C30.4829885,65.1308721 29.9278161,65.6831105 29.2406897,65.6831105 C28.5551724,65.6831105 28,65.1308721 28,64.4494477 Z" id="Fill-627-Copy-3" fill="#516066"></path>
                    <path d="M48.4052389,64.9016029 L48.8088687,55.3238875 C48.8088687,54.642623 49.3640411,54.0902247 50.0495583,54.0902247 C50.7366848,54.0902247 51.2918572,54.642623 51.2918572,55.3238875 L50.8882274,64.9016029 C50.8882274,65.5830273 50.333055,66.1352657 49.6459286,66.1352657 C48.9604113,66.1352657 48.4052389,65.5830273 48.4052389,64.9016029 Z" id="Fill-627-Copy-4" fill="#516066"></path>
                    <path d="M49,50.8770963 L49.5008046,40.2336628 C49.5008046,39.5523983 50.055977,39 50.7414943,39 C51.4286207,39 51.9837931,39.5523983 51.9837931,40.2336628 L51.4829885,50.8770963 C51.4829885,51.5585207 50.9278161,52.110759 50.2406897,52.110759 C49.5551724,52.110759 49,51.5585207 49,50.8770963 Z" id="Fill-627-Copy-5" fill="#516066"></path>
                    <path d="M28,12.4494477 L28,2.23366279 C28,1.55239826 28.5551724,1 29.2406897,1 C29.9262069,1 30.4829885,1.55239826 30.4829885,2.23366279 L30.4829885,12.4494477 C30.4829885,13.1308721 29.9262069,13.6831105 29.2406897,13.6831105 C28.5551724,13.6831105 28,13.1308721 28,12.4494477 Z" id="Fill-628" fill="#516066"></path>
                    <path d="M0,26.4494477 L0,13.2336628 C0,12.5523983 0.555172414,12 1.24068966,12 C1.9262069,12 2.48298851,12.5523983 2.48298851,13.2336628 L2.48298851,26.4494477 C2.48298851,27.1308721 1.9262069,27.6831105 1.24068966,27.6831105 C0.555172414,27.6831105 0,27.1308721 0,26.4494477 Z" id="Fill-628-Copy" fill="#516066"></path>
                    <path d="M66,26.4494477 L66,13.2336628 C66,12.5523983 66.5551724,12 67.2406897,12 C67.9262069,12 68.4829885,12.5523983 68.4829885,13.2336628 L68.4829885,26.4494477 C68.4829885,27.1308721 67.9262069,27.6831105 67.2406897,27.6831105 C66.5551724,27.6831105 66,27.1308721 66,26.4494477 Z" id="Fill-628-Copy-2" fill="#516066"></path>
                    <path d="M39.2422989,14.6831105 C38.5567816,14.6831105 38,14.1308721 38,13.4494477 L38,5.23366279 C38,4.55239826 38.5567816,4 39.2422989,4 C39.9278161,4 40.4845977,4.55239826 40.4845977,5.23366279 L40.4845977,13.4494477 C40.4845977,14.1308721 39.9278161,14.6831105 39.2422989,14.6831105" id="Fill-629" fill="#516066"></path>
                    <path d="M51,38.4494477 L51,29.2336628 C51,28.5523983 51.5567816,28 52.2422989,28 C52.9278161,28 53.4845977,28.5523983 53.4845977,29.2336628 L53.4845977,38.4494477 C53.4845977,39.1308721 52.9278161,39.6831105 52.2422989,39.6831105 C51.5567816,39.6831105 51,39.1308721 51,38.4494477 Z" id="Fill-629-Copy" fill="#516066"></path>
                    <path d="M1.24068966,28.4673256 C0.555172414,28.4673256 0,27.9150872 0,27.2336628 C0,26.5525581 0.555172414,26 1.24068966,26 L40.4197701,26 C41.1052874,26 41.662069,26.5525581 41.662069,27.2336628 C41.662069,27.9150872 41.1052874,28.4673256 40.4197701,28.4673256 L1.24068966,28.4673256 Z" id="Fill-636" fill="#516066"></path>
                    <path d="M28.2406897,2.46732558 C27.5551724,2.46732558 27,1.91508721 27,1.23366279 C27,0.55255814 27.5551724,0 28.2406897,0 L39.4197701,0 C40.1052874,0 40.662069,0.55255814 40.662069,1.23366279 C40.662069,1.91508721 40.1052874,2.46732558 39.4197701,2.46732558 L28.2406897,2.46732558 Z" id="Fill-636-Copy-4" fill="#516066"></path>
                    <path d="M47.2406897,28.4673256 C46.5551724,28.4673256 46,27.9150872 46,27.2336628 C46,26.5525581 46.5551724,26 47.2406897,26 L67.4197701,26 C68.1052874,26 68.662069,26.5525581 68.662069,27.2336628 C68.662069,27.9150872 68.1052874,28.4673256 67.4197701,28.4673256 L47.2406897,28.4673256 Z" id="Fill-636-Copy-3" fill="#516066"></path>
                    <path d="M39.2406897,14.4673256 C38.5551724,14.4673256 38,13.9150872 38,13.2336628 C38,12.5525581 38.5551724,12 39.2406897,12 L67.4197701,12 C68.1052874,12 68.662069,12.5525581 68.662069,13.2336628 C68.662069,13.9150872 68.1052874,14.4673256 67.4197701,14.4673256 L39.2406897,14.4673256 Z" id="Fill-636-Copy-5" fill="#516066"></path>
                    <path d="M1.24068966,14.4673256 C0.555172414,14.4673256 0,13.9150872 0,13.2336628 C0,12.5525581 0.555172414,12 1.24068966,12 L29.4197701,12 C30.1052874,12 30.662069,12.5525581 30.662069,13.2336628 C30.662069,13.9150872 30.1052874,14.4673256 29.4197701,14.4673256 L1.24068966,14.4673256 Z" id="Fill-636-Copy-6" fill="#516066"></path>
                    <path d="M10.2406897,66.4673256 C9.55517241,66.4673256 9,65.9150872 9,65.2336628 C9,64.5525581 9.55517241,64 10.2406897,64 L60.4197701,64 C61.1052874,64 61.662069,64.5525581 61.662069,65.2336628 C61.662069,65.9150872 61.1052874,66.4673256 60.4197701,66.4673256 L10.2406897,66.4673256 Z" id="Fill-636-Copy" fill="#516066"></path>
                    <path d="M10.2406897,79.4673256 C9.55517241,79.4673256 9,78.9150872 9,78.2336628 C9,77.5525581 9.55517241,77 10.2406897,77 L60.4197701,77 C61.1052874,77 61.662069,77.5525581 61.662069,78.2336628 C61.662069,78.9150872 61.1052874,79.4673256 60.4197701,79.4673256 L10.2406897,79.4673256 Z" id="Fill-636-Copy-2" fill="#516066"></path>
                    <path d="M51.3790805,40.4673256 L16.2406897,40.4673256 C15.5551724,40.4673256 15,39.9150872 15,39.2336628 C15,38.5525581 15.5551724,38 16.2406897,38 L51.3790805,38 C52.0645977,38 52.6213793,38.5525581 52.6213793,39.2336628 C52.6213793,39.9150872 52.0645977,40.4673256 51.3790805,40.4673256" id="Fill-637" fill="#516066"></path>
                </g>
            </g>
        </g>
    </g>
</svg>