<?xml version="1.0" encoding="UTF-8"?>
<svg width="128px" height="128px" viewBox="0 0 128 128" version="1.1" xmlns="http://www.w3.org/2000/svg" xmlns:xlink="http://www.w3.org/1999/xlink">
    <!-- Generator: Sketch 53 (72520) - https://sketchapp.com -->
    <title>img-race-italy</title>
    <desc>Created with Sketch.</desc>
    <g id="Symbols" stroke="none" stroke-width="1" fill="none" fill-rule="evenodd">
        <g id="image-/-race-/-italy">
            <g>
                <circle id="Oval-Copy-6" stroke-opacity="0.32" stroke="#F0F8FF" stroke-width="2" fill-opacity="0.04" fill="#F0F8FF" cx="64" cy="64" r="63"></circle>
                <g id="Group-16" transform="translate(20.000000, 40.000000)">
                    <path d="M7.37333333,36.3978488 L7.37333333,53.6472238 L12.7222989,53.6472238 L12.7222989,45.9011773 C12.7222989,43.4188227 14.7482759,41.4065262 17.2473563,41.4065262 C19.7448276,41.4065262 21.7708046,43.4188227 21.7708046,45.9011773 L21.7708046,53.6472238 L27.6170115,53.6472238 L27.6170115,45.9011773 C27.6170115,43.4188227 29.6429885,41.4065262 32.1404598,41.4065262 C34.6395402,41.4065262 36.6655172,43.4188227 36.6655172,45.9011773 L36.6655172,53.6472238 L42.5117241,53.6472238 L42.5117241,45.9011773 C42.5117241,43.4188227 44.5377011,41.4065262 47.0351724,41.4065262 C49.5342529,41.4065262 51.5586207,43.4188227 51.5586207,45.9011773 L51.5586207,53.6472238 L57.4064368,53.6472238 L57.4064368,45.9011773 C57.4064368,43.4188227 59.4308046,41.4065262 61.9298851,41.4065262 C64.4289655,41.4065262 66.4533333,43.4188227 66.4533333,45.9011773 L66.4533333,53.6472238 L72.2995402,53.6472238 L72.2995402,45.9011773 C72.2995402,43.4188227 74.3255172,41.4065262 76.8245977,41.4065262 C79.322069,41.4065262 81.348046,43.4188227 81.348046,45.9011773 L81.348046,53.6472238 L86.6970115,53.6472238 L86.6970115,36.3978488 L7.37333333,36.3978488" id="Fill-591" fill="#838F93"></path>
                    <polygon id="Fill-592" fill="#838F93" points="7.37333333 19.1484738 86.6970115 19.1484738 86.6970115 7.04703488 7.37333333 7.04703488"></polygon>
                    <path d="M7.37333333,19.1484738 L7.37333333,36.3978488 L12.7222989,36.3978488 L12.7222989,28.6518023 C12.7222989,26.1694477 14.7482759,24.1569913 17.2473563,24.1569913 C19.7448276,24.1569913 21.7708046,26.1694477 21.7708046,28.6518023 L21.7708046,36.3978488 L27.6170115,36.3978488 L27.6170115,28.6518023 C27.6170115,26.1694477 29.6429885,24.1569913 32.1404598,24.1569913 C34.6395402,24.1569913 36.6655172,26.1694477 36.6655172,28.6518023 L36.6655172,36.3978488 L42.5117241,36.3978488 L42.5117241,28.6518023 C42.5117241,26.1694477 44.5377011,24.1569913 47.0351724,24.1569913 C49.5342529,24.1569913 51.5586207,26.1694477 51.5586207,28.6518023 L51.5586207,36.3978488 L57.4064368,36.3978488 L57.4064368,28.6518023 C57.4064368,26.1694477 59.4308046,24.1569913 61.9298851,24.1569913 C64.4289655,24.1569913 66.4533333,26.1694477 66.4533333,28.6518023 L66.4533333,36.3978488 L72.2995402,36.3978488 L72.2995402,28.6518023 C72.2995402,26.1694477 74.3255172,24.1569913 76.8245977,24.1569913 C79.322069,24.1569913 81.348046,26.1694477 81.348046,28.6518023 L81.348046,36.3978488 L86.6970115,36.3978488 L86.6970115,19.1484738 L7.37333333,19.1484738" id="Fill-593" fill="#838F93"></path>
                    <polyline id="Fill-594" fill="#838F93" points="62.4528736 1.37835756 2.8691954 1.37835756 2.8691954 7.04703488 65.5264368 7.04703488 62.4528736 1.37835756"></polyline>
                    <polyline id="Fill-595" fill="#838F93" points="76.1052874 7.04703488 91.2011494 7.04703488 91.2011494 1.37835756 78.2905747 1.37835756 76.1052874 7.04703488"></polyline>
                    <polygon id="Fill-596" fill="#838F93" points="7.37333333 19.1484738 17.2473563 19.1484738 17.2473563 7.04703488 7.37333333 7.04703488"></polygon>
                    <path d="M7.37333333,19.1484738 L7.37333333,36.3978488 L12.7222989,36.3978488 L12.7222989,28.6518023 C12.7222989,26.1694477 14.7482759,24.1569913 17.2473563,24.1569913 L17.2473563,19.1484738 L7.37333333,19.1484738" id="Fill-597" fill="#838F93"></path>
                    <path d="M7.37333333,36.3978488 L7.37333333,53.6472238 L12.7222989,53.6472238 L12.7222989,45.9011773 C12.7222989,43.4188227 14.7482759,41.4065262 17.2473563,41.4065262 L17.2473563,36.3978488 L7.37333333,36.3978488" id="Fill-598" fill="#838F93"></path>
                    <path d="M19.7190805,36.3978488 L19.7190805,36.3978488 C19.7190805,38.0195494 21.0418391,39.3341134 22.6735632,39.3341134 L76.9308046,39.3341134 C77.8802299,39.3341134 78.6494253,40.2395349 78.6494253,41.3563227 L78.6494253,41.4236337 C80.623908,41.5975872 82.18,43.5334593 82.18,45.9011773 L82.18,53.6472238 L86.6970115,53.6472238 L86.6970115,36.3978488 L19.7190805,36.3978488" id="Fill-599" fill="#838F93"></path>
                    <path d="M19.7190805,18.9395058 L19.7190805,19.215625 C19.7190805,20.8373256 21.0418391,22.1520494 22.6735632,22.1520494 L76.9308046,22.1520494 C77.8802299,22.1520494 78.6494253,23.057311 78.6494253,24.1742587 C80.623908,24.3482122 82.18,26.2839244 82.18,28.6518023 L82.18,36.3978488 L86.6970115,36.3978488 L86.6970115,18.9395058 L19.7190805,18.9395058" id="Fill-600" fill="#838F93"></path>
                    <path d="M78.6494253,7.04703488 L19.7190805,7.04703488 L19.7190805,7.46752907 C19.7190805,9.08906977 21.0418391,10.4036337 22.6735632,10.4036337 L76.9308046,10.4036337 C77.8802299,10.4036337 78.6494253,11.3090552 78.6494253,12.425843 L78.6494253,19.1484738 L86.6970115,19.1484738 L86.6970115,7.04703488 L78.6494253,7.04703488" id="Fill-601" fill="#838F93"></path>
                    <path d="M54.1108046,1.37835756 C53.3995402,3.04418605 51.7372414,4.21261628 49.7997701,4.21261628 L30.94,4.21261628 C29.0025287,4.21261628 27.3402299,5.3812064 26.6289655,7.04703488 L65.5264368,7.04703488 L62.4528736,1.37835756 L54.1108046,1.37835756" id="Fill-602" fill="#838F93"></path>
                    <path d="M2.8691954,1.37835756 L2.8691954,7.04703488 L10.5917241,7.04703488 L10.9811494,6.25097384 C10.9811494,5.12523256 11.9,4.21261628 13.0328736,4.21261628 L24.0172414,4.21261628 C25.1501149,4.21261628 26.0689655,3.30015988 26.0689655,2.1744186 L26.0689655,1.37835756 L2.8691954,1.37835756" id="Fill-603" fill="#838F93"></path>
                    <path d="M7.37333333,54.8808866 L1.32114943,54.8808866 C0.635632184,54.8808866 0.0804597701,54.3284884 0.0804597701,53.6472238 C0.0804597701,52.9659593 0.635632184,52.413561 1.32114943,52.413561 L7.37333333,52.413561 C8.05885057,52.413561 8.61563218,52.9659593 8.61563218,53.6472238 C8.61563218,54.3284884 8.05885057,54.8808866 7.37333333,54.8808866" id="Fill-616" fill="#516066"></path>
                    <path d="M90.151954,54.8808866 L86.6970115,54.8808866 C86.0114943,54.8808866 85.4547126,54.3284884 85.4547126,53.6472238 C85.4547126,52.9659593 86.0114943,52.413561 86.6970115,52.413561 L90.151954,52.413561 C90.8374713,52.413561 91.3942529,52.9659593 91.3942529,53.6472238 C91.3942529,54.3284884 90.8374713,54.8808866 90.151954,54.8808866" id="Fill-617" fill="#516066"></path>
                    <path d="M24.6931034,23.8626453 C24.0075862,23.8626453 23.4524138,23.3102471 23.4524138,22.6291424 L23.4524138,19.1484738 C23.4524138,18.4672093 24.0075862,17.914811 24.6931034,17.914811 C25.3802299,17.914811 25.9354023,18.4672093 25.9354023,19.1484738 L25.9354023,22.6291424 C25.9354023,23.3102471 25.3802299,23.8626453 24.6931034,23.8626453" id="Fill-619" fill="#516066"></path>
                    <path d="M39.5878161,23.8626453 C38.9022989,23.8626453 38.3471264,23.3102471 38.3471264,22.6291424 L38.3471264,19.1484738 C38.3471264,18.4672093 38.9022989,17.914811 39.5878161,17.914811 C40.2733333,17.914811 40.8301149,18.4672093 40.8301149,19.1484738 L40.8301149,22.6291424 C40.8301149,23.3102471 40.2733333,23.8626453 39.5878161,23.8626453" id="Fill-620" fill="#516066"></path>
                    <path d="M54.4825287,23.8626453 C53.7970115,23.8626453 53.2402299,23.3102471 53.2402299,22.6291424 L53.2402299,19.1484738 C53.2402299,18.4672093 53.7970115,17.914811 54.4825287,17.914811 C55.168046,17.914811 55.7248276,18.4672093 55.7248276,19.1484738 L55.7248276,22.6291424 C55.7248276,23.3102471 55.168046,23.8626453 54.4825287,23.8626453" id="Fill-621" fill="#516066"></path>
                    <path d="M69.3772414,23.8626453 C68.6917241,23.8626453 68.1349425,23.3102471 68.1349425,22.6291424 L68.1349425,19.1484738 C68.1349425,18.4672093 68.6917241,17.914811 69.3772414,17.914811 C70.0627586,17.914811 70.617931,18.4672093 70.617931,19.1484738 L70.617931,22.6291424 C70.617931,23.3102471 70.0627586,23.8626453 69.3772414,23.8626453" id="Fill-622" fill="#516066"></path>
                    <path d="M24.6931034,41.1121802 C24.0075862,41.1121802 23.4524138,40.559782 23.4524138,39.8785174 L23.4524138,36.3978488 C23.4524138,35.7167442 24.0075862,35.164186 24.6931034,35.164186 C25.3802299,35.164186 25.9354023,35.7167442 25.9354023,36.3978488 L25.9354023,39.8785174 C25.9354023,40.559782 25.3802299,41.1121802 24.6931034,41.1121802" id="Fill-623" fill="#516066"></path>
                    <path d="M39.5878161,41.1121802 C38.9022989,41.1121802 38.3471264,40.559782 38.3471264,39.8785174 L38.3471264,36.3978488 C38.3471264,35.7167442 38.9022989,35.164186 39.5878161,35.164186 C40.2733333,35.164186 40.8301149,35.7167442 40.8301149,36.3978488 L40.8301149,39.8785174 C40.8301149,40.559782 40.2733333,41.1121802 39.5878161,41.1121802" id="Fill-624" fill="#516066"></path>
                    <path d="M54.4825287,41.1121802 C53.7970115,41.1121802 53.2402299,40.559782 53.2402299,39.8785174 L53.2402299,36.3978488 C53.2402299,35.7167442 53.7970115,35.164186 54.4825287,35.164186 C55.168046,35.164186 55.7248276,35.7167442 55.7248276,36.3978488 L55.7248276,39.8785174 C55.7248276,40.559782 55.168046,41.1121802 54.4825287,41.1121802" id="Fill-625" fill="#516066"></path>
                    <path d="M69.3772414,41.1121802 C68.6917241,41.1121802 68.1349425,40.559782 68.1349425,39.8785174 L68.1349425,36.3978488 C68.1349425,35.7167442 68.6917241,35.164186 69.3772414,35.164186 C70.0627586,35.164186 70.617931,35.7167442 70.617931,36.3978488 L70.617931,39.8785174 C70.617931,40.559782 70.0627586,41.1121802 69.3772414,41.1121802" id="Fill-626" fill="#516066"></path>
                    <path d="M24.6931034,16.4964826 C24.0075862,16.4964826 23.4524138,15.9442442 23.4524138,15.2628198 L23.4524138,7.04703488 C23.4524138,6.36577035 24.0075862,5.81337209 24.6931034,5.81337209 C25.3802299,5.81337209 25.9354023,6.36577035 25.9354023,7.04703488 L25.9354023,15.2628198 C25.9354023,15.9442442 25.3802299,16.4964826 24.6931034,16.4964826" id="Fill-627" fill="#516066"></path>
                    <path d="M39.5878161,16.4964826 C38.9022989,16.4964826 38.3471264,15.9442442 38.3471264,15.2628198 L38.3471264,7.04703488 C38.3471264,6.36577035 38.9022989,5.81337209 39.5878161,5.81337209 C40.2733333,5.81337209 40.8301149,6.36577035 40.8301149,7.04703488 L40.8301149,15.2628198 C40.8301149,15.9442442 40.2733333,16.4964826 39.5878161,16.4964826" id="Fill-628" fill="#516066"></path>
                    <path d="M54.4825287,16.4964826 C53.7970115,16.4964826 53.2402299,15.9442442 53.2402299,15.2628198 L53.2402299,7.04703488 C53.2402299,6.36577035 53.7970115,5.81337209 54.4825287,5.81337209 C55.168046,5.81337209 55.7248276,6.36577035 55.7248276,7.04703488 L55.7248276,15.2628198 C55.7248276,15.9442442 55.168046,16.4964826 54.4825287,16.4964826" id="Fill-629" fill="#516066"></path>
                    <path d="M69.3772414,16.4964826 C68.6917241,16.4964826 68.1349425,15.9442442 68.1349425,15.2628198 L68.1349425,7.04703488 C68.1349425,6.36577035 68.6917241,5.81337209 69.3772414,5.81337209 C70.0627586,5.81337209 70.617931,6.36577035 70.617931,7.04703488 L70.617931,15.2628198 C70.617931,15.9442442 70.0627586,16.4964826 69.3772414,16.4964826" id="Fill-630" fill="#516066"></path>
                    <path d="M17.2473563,14.8316134 C16.5602299,14.8316134 16.0050575,14.2792151 16.0050575,13.5979506 L16.0050575,12.053314 C16.0050575,11.3720494 16.5602299,10.8196512 17.2473563,10.8196512 C17.9328736,10.8196512 18.488046,11.3720494 18.488046,12.053314 L18.488046,13.5979506 C18.488046,14.2792151 17.9328736,14.8316134 17.2473563,14.8316134" id="Fill-631" fill="#516066"></path>
                    <path d="M32.1404598,14.8316134 C31.4549425,14.8316134 30.8997701,14.2792151 30.8997701,13.5979506 L30.8997701,12.053314 C30.8997701,11.3720494 31.4549425,10.8196512 32.1404598,10.8196512 C32.825977,10.8196512 33.3827586,11.3720494 33.3827586,12.053314 L33.3827586,13.5979506 C33.3827586,14.2792151 32.825977,14.8316134 32.1404598,14.8316134" id="Fill-632" fill="#516066"></path>
                    <path d="M47.0351724,14.8316134 C46.3496552,14.8316134 45.7944828,14.2792151 45.7944828,13.5979506 L45.7944828,12.053314 C45.7944828,11.3720494 46.3496552,10.8196512 47.0351724,10.8196512 C47.7206897,10.8196512 48.2774713,11.3720494 48.2774713,12.053314 L48.2774713,13.5979506 C48.2774713,14.2792151 47.7206897,14.8316134 47.0351724,14.8316134" id="Fill-633" fill="#516066"></path>
                    <path d="M61.9298851,14.8316134 C61.2443678,14.8316134 60.6875862,14.2792151 60.6875862,13.5979506 L60.6875862,12.053314 C60.6875862,11.3720494 61.2443678,10.8196512 61.9298851,10.8196512 C62.6154023,10.8196512 63.1721839,11.3720494 63.1721839,12.053314 L63.1721839,13.5979506 C63.1721839,14.2792151 62.6154023,14.8316134 61.9298851,14.8316134" id="Fill-634" fill="#516066"></path>
                    <path d="M76.8245977,14.8316134 C76.1390805,14.8316134 75.5822989,14.2792151 75.5822989,13.5979506 L75.5822989,12.053314 C75.5822989,11.3720494 76.1390805,10.8196512 76.8245977,10.8196512 C77.5101149,10.8196512 78.0652874,11.3720494 78.0652874,12.053314 L78.0652874,13.5979506 C78.0652874,14.2792151 77.5101149,14.8316134 76.8245977,14.8316134" id="Fill-635" fill="#516066"></path>
                    <path d="M46.5524138,37.6315116 L7.37333333,37.6315116 C6.68781609,37.6315116 6.13264368,37.0792733 6.13264368,36.3978488 C6.13264368,35.7167442 6.68781609,35.164186 7.37333333,35.164186 L46.5524138,35.164186 C47.237931,35.164186 47.7947126,35.7167442 47.7947126,36.3978488 C47.7947126,37.0792733 47.237931,37.6315116 46.5524138,37.6315116" id="Fill-636" fill="#516066"></path>
                    <path d="M86.6970115,37.6315116 L51.5586207,37.6315116 C50.8731034,37.6315116 50.317931,37.0792733 50.317931,36.3978488 C50.317931,35.7167442 50.8731034,35.164186 51.5586207,35.164186 L86.6970115,35.164186 C87.3825287,35.164186 87.9393103,35.7167442 87.9393103,36.3978488 C87.9393103,37.0792733 87.3825287,37.6315116 86.6970115,37.6315116" id="Fill-637" fill="#516066"></path>
                    <path d="M86.6970115,54.8808866 L7.37333333,54.8808866 C6.68781609,54.8808866 6.13264368,54.3284884 6.13264368,53.6472238 C6.13264368,52.9659593 6.68781609,52.413561 7.37333333,52.413561 L86.6970115,52.413561 C87.3825287,52.413561 87.9393103,52.9659593 87.9393103,53.6472238 C87.9393103,54.3284884 87.3825287,54.8808866 86.6970115,54.8808866" id="Fill-638" fill="#516066"></path>
                    <path d="M86.6970115,20.3819767 L7.37333333,20.3819767 C6.68781609,20.3819767 6.13264368,19.8297384 6.13264368,19.1484738 C6.13264368,18.4672093 6.68781609,17.914811 7.37333333,17.914811 L86.6970115,17.914811 C87.3825287,17.914811 87.9393103,18.4672093 87.9393103,19.1484738 C87.9393103,19.8297384 87.3825287,20.3819767 86.6970115,20.3819767" id="Fill-639" fill="#516066"></path>
                    <path d="M86.6970115,31.4617587 C86.0114943,31.4617587 85.4547126,30.9095203 85.4547126,30.2280959 L85.4547126,7.04703488 C85.4547126,6.36577035 86.0114943,5.81337209 86.6970115,5.81337209 C87.3825287,5.81337209 87.9393103,6.36577035 87.9393103,7.04703488 L87.9393103,30.2280959 C87.9393103,30.9095203 87.3825287,31.4617587 86.6970115,31.4617587" id="Fill-640" fill="#516066"></path>
                    <path d="M86.6970115,54.8808866 C86.0114943,54.8808866 85.4547126,54.3284884 85.4547126,53.6472238 L85.4547126,36.6776453 C85.4547126,35.9965407 86.0114943,35.4439826 86.6970115,35.4439826 C87.3825287,35.4439826 87.9393103,35.9965407 87.9393103,36.6776453 L87.9393103,53.6472238 C87.9393103,54.3284884 87.3825287,54.8808866 86.6970115,54.8808866" id="Fill-641" fill="#516066"></path>
                    <path d="M7.37333333,54.8808866 C6.68781609,54.8808866 6.13264368,54.3284884 6.13264368,53.6472238 L6.13264368,19.2776599 C6.13264368,18.5963953 6.68781609,18.0439971 7.37333333,18.0439971 C8.05885057,18.0439971 8.61563218,18.5963953 8.61563218,19.2776599 L8.61563218,53.6472238 C8.61563218,54.3284884 8.05885057,54.8808866 7.37333333,54.8808866" id="Fill-642" fill="#516066"></path>
                    <path d="M7.37333333,14.9938953 C6.68781609,14.9938953 6.13264368,14.4414971 6.13264368,13.7602326 L6.13264368,7.04703488 C6.13264368,6.36577035 6.68781609,5.81337209 7.37333333,5.81337209 C8.05885057,5.81337209 8.61563218,6.36577035 8.61563218,7.04703488 L8.61563218,13.7602326 C8.61563218,14.4414971 8.05885057,14.9938953 7.37333333,14.9938953" id="Fill-643" fill="#516066"></path>
                    <path d="M10.994023,8.28069767 L2.8691954,8.28069767 C2.18367816,8.28069767 1.62850575,7.72829942 1.62850575,7.04703488 L1.62850575,1.37835756 C1.62850575,0.697093023 2.18367816,0.144694767 2.8691954,0.144694767 L43.9567816,0.144694767 C44.6422989,0.144694767 45.1990805,0.697093023 45.1990805,1.37835756 C45.1990805,2.05962209 44.6422989,2.61202035 43.9567816,2.61202035 L4.11149425,2.61202035 L4.11149425,5.81337209 L10.994023,5.81337209 C11.6811494,5.81337209 12.2363218,6.36577035 12.2363218,7.04703488 C12.2363218,7.72829942 11.6811494,8.28069767 10.994023,8.28069767" id="Fill-644" fill="#516066"></path>
                    <path d="M50.976092,2.61202035 L50.8811494,2.61202035 C50.1956322,2.61202035 49.6404598,2.05962209 49.6404598,1.37835756 C49.6404598,0.697093023 50.1956322,0.144694767 50.8811494,0.144694767 L50.976092,0.144694767 C51.6616092,0.144694767 52.2183908,0.697093023 52.2183908,1.37835756 C52.2183908,2.05962209 51.6616092,2.61202035 50.976092,2.61202035" id="Fill-645" fill="#516066"></path>
                    <path d="M65.5264368,8.28069767 L16.1836782,8.28069767 C15.4981609,8.28069767 14.9413793,7.72829942 14.9413793,7.04703488 C14.9413793,6.36577035 15.4981609,5.81337209 16.1836782,5.81337209 L63.4473563,5.81337209 L61.7110345,2.61202035 L58.1321839,2.61202035 C57.4466667,2.61202035 56.8914943,2.05962209 56.8914943,1.37835756 C56.8914943,0.697093023 57.4466667,0.144694767 58.1321839,0.144694767 L62.4528736,0.144694767 C62.9098851,0.144694767 63.3282759,0.393793605 63.5455172,0.793343023 L66.6190805,6.46202035 C66.8266667,6.84430233 66.8170115,7.30668605 66.5917241,7.67953488 C66.368046,8.05238372 65.9641379,8.28069767 65.5264368,8.28069767" id="Fill-646" fill="#516066"></path>
                    <path d="M91.2011494,8.28069767 L86.6970115,8.28069767 C86.0114943,8.28069767 85.4547126,7.72829942 85.4547126,7.04703488 C85.4547126,6.36577035 86.0114943,5.81337209 86.6970115,5.81337209 L89.9588506,5.81337209 L89.9588506,2.61202035 L79.1450575,2.61202035 L77.9108046,5.81337209 L80.8733333,5.81337209 C81.5588506,5.81337209 82.114023,6.36577035 82.114023,7.04703488 C82.114023,7.72829942 81.5588506,8.28069767 80.8733333,8.28069767 L76.1052874,8.28069767 C75.6965517,8.28069767 75.3135632,8.08084302 75.0818391,7.74604651 C74.8517241,7.41140988 74.8002299,6.985 74.9466667,6.60575581 L77.131954,0.937078488 C77.3154023,0.459825581 77.7772414,0.144694767 78.2905747,0.144694767 L91.2011494,0.144694767 C91.8866667,0.144694767 92.4418391,0.697093023 92.4418391,1.37835756 L92.4418391,7.04703488 C92.4418391,7.72829942 91.8866667,8.28069767 91.2011494,8.28069767" id="Fill-647" fill="#516066"></path>
                    <path d="M51.5586207,54.8808866 C50.8731034,54.8808866 50.317931,54.3284884 50.317931,53.6472238 L50.317931,45.9011773 C50.317931,44.1029651 48.8455172,42.6400291 47.0351724,42.6400291 C45.2264368,42.6400291 43.754023,44.1029651 43.754023,45.9011773 L43.754023,53.6472238 C43.754023,54.3284884 43.1972414,54.8808866 42.5117241,54.8808866 C41.8262069,54.8808866 41.2694253,54.3284884 41.2694253,53.6472238 L41.2694253,45.9011773 C41.2694253,42.7425145 43.8570115,40.1728634 47.0351724,40.1728634 C50.2149425,40.1728634 52.8009195,42.7425145 52.8009195,45.9011773 L52.8009195,53.6472238 C52.8009195,54.3284884 52.2441379,54.8808866 51.5586207,54.8808866" id="Fill-648" fill="#516066"></path>
                    <path d="M36.6655172,54.8808866 C35.9783908,54.8808866 35.4232184,54.3284884 35.4232184,53.6472238 L35.4232184,45.9011773 C35.4232184,44.1029651 33.9508046,42.6400291 32.1404598,42.6400291 C30.3317241,42.6400291 28.8593103,44.1029651 28.8593103,45.9011773 L28.8593103,53.6472238 C28.8593103,54.3284884 28.3025287,54.8808866 27.6170115,54.8808866 C26.9314943,54.8808866 26.3763218,54.3284884 26.3763218,53.6472238 L26.3763218,45.9011773 C26.3763218,42.7425145 28.9622989,40.1728634 32.1404598,40.1728634 C35.3202299,40.1728634 37.9062069,42.7425145 37.9062069,45.9011773 L37.9062069,53.6472238 C37.9062069,54.3284884 37.3510345,54.8808866 36.6655172,54.8808866" id="Fill-649" fill="#516066"></path>
                    <path d="M21.7708046,54.8808866 C21.0852874,54.8808866 20.5285057,54.3284884 20.5285057,53.6472238 L20.5285057,45.9011773 C20.5285057,44.1029651 19.056092,42.6400291 17.2473563,42.6400291 C15.4370115,42.6400291 13.9645977,44.1029651 13.9645977,45.9011773 L13.9645977,49.5490843 C13.9645977,50.2303488 13.4078161,50.7827471 12.7222989,50.7827471 C12.0367816,50.7827471 11.4816092,50.2303488 11.4816092,49.5490843 L11.4816092,45.9011773 C11.4816092,42.7425145 14.0675862,40.1728634 17.2473563,40.1728634 C20.4255172,40.1728634 23.0114943,42.7425145 23.0114943,45.9011773 L23.0114943,53.6472238 C23.0114943,54.3284884 22.4563218,54.8808866 21.7708046,54.8808866" id="Fill-650" fill="#516066"></path>
                    <path d="M81.348046,54.8808866 C80.6625287,54.8808866 80.1057471,54.3284884 80.1057471,53.6472238 L80.1057471,45.9011773 C80.1057471,44.1029651 78.6333333,42.6400291 76.8245977,42.6400291 C75.0142529,42.6400291 73.5418391,44.1029651 73.5418391,45.9011773 L73.5418391,53.6472238 C73.5418391,54.3284884 72.9866667,54.8808866 72.3011494,54.8808866 C71.614023,54.8808866 71.0588506,54.3284884 71.0588506,53.6472238 L71.0588506,45.9011773 C71.0588506,42.7425145 73.6448276,40.1728634 76.8245977,40.1728634 C80.0027586,40.1728634 82.5903448,42.7425145 82.5903448,45.9011773 L82.5903448,53.6472238 C82.5903448,54.3284884 82.0335632,54.8808866 81.348046,54.8808866" id="Fill-651" fill="#516066"></path>
                    <path d="M57.4064368,54.8808866 C56.7209195,54.8808866 56.1641379,54.3284884 56.1641379,53.6472238 L56.1641379,45.9011773 C56.1641379,42.7425145 58.7501149,40.1728634 61.9298851,40.1728634 C65.108046,40.1728634 67.6956322,42.7425145 67.6956322,45.9011773 L67.6956322,49.2694477 C67.6956322,49.9507122 67.1388506,50.5031105 66.4533333,50.5031105 C65.7678161,50.5031105 65.2126437,49.9507122 65.2126437,49.2694477 L65.2126437,45.9011773 C65.2126437,44.1029651 63.7402299,42.6400291 61.9298851,42.6400291 C60.1195402,42.6400291 58.6471264,44.1029651 58.6471264,45.9011773 L58.6471264,53.6472238 C58.6471264,54.3284884 58.091954,54.8808866 57.4064368,54.8808866" id="Fill-652" fill="#516066"></path>
                    <path d="M51.5586207,37.6315116 C50.8731034,37.6315116 50.317931,37.0792733 50.317931,36.3978488 L50.317931,28.6518023 C50.317931,26.8535901 48.8455172,25.390814 47.0351724,25.390814 C45.2264368,25.390814 43.754023,26.8535901 43.754023,28.6518023 L43.754023,36.3978488 C43.754023,37.0792733 43.1972414,37.6315116 42.5117241,37.6315116 C41.8262069,37.6315116 41.2694253,37.0792733 41.2694253,36.3978488 L41.2694253,28.6518023 C41.2694253,25.4931395 43.8570115,22.9234884 47.0351724,22.9234884 C50.2149425,22.9234884 52.8009195,25.4931395 52.8009195,28.6518023 L52.8009195,36.3978488 C52.8009195,37.0792733 52.2441379,37.6315116 51.5586207,37.6315116" id="Fill-653" fill="#516066"></path>
                    <path d="M27.6170115,37.6315116 C26.9314943,37.6315116 26.3763218,37.0792733 26.3763218,36.3978488 L26.3763218,28.6518023 C26.3763218,25.4931395 28.9622989,22.9234884 32.1404598,22.9234884 C35.3202299,22.9234884 37.9062069,25.4931395 37.9062069,28.6518023 L37.9062069,32.1665262 C37.9062069,32.8479506 37.3510345,33.400189 36.6655172,33.400189 C35.9783908,33.400189 35.4232184,32.8479506 35.4232184,32.1665262 L35.4232184,28.6518023 C35.4232184,26.8535901 33.9508046,25.390814 32.1404598,25.390814 C30.3317241,25.390814 28.8593103,26.8535901 28.8593103,28.6518023 L28.8593103,36.3978488 C28.8593103,37.0792733 28.3025287,37.6315116 27.6170115,37.6315116" id="Fill-654" fill="#516066"></path>
                    <path d="M21.7708046,37.6315116 C21.0852874,37.6315116 20.5285057,37.0792733 20.5285057,36.3978488 L20.5285057,28.6518023 C20.5285057,26.8535901 19.056092,25.390814 17.2473563,25.390814 C15.4370115,25.390814 13.9645977,26.8535901 13.9645977,28.6518023 L13.9645977,36.3978488 C13.9645977,37.0792733 13.4078161,37.6315116 12.7222989,37.6315116 C12.0367816,37.6315116 11.4816092,37.0792733 11.4816092,36.3978488 L11.4816092,28.6518023 C11.4816092,25.4931395 14.0675862,22.9234884 17.2473563,22.9234884 C20.4255172,22.9234884 23.0114943,25.4931395 23.0114943,28.6518023 L23.0114943,36.3978488 C23.0114943,37.0792733 22.4563218,37.6315116 21.7708046,37.6315116" id="Fill-655" fill="#516066"></path>
                    <path d="M81.348046,37.6315116 C80.6625287,37.6315116 80.1057471,37.0792733 80.1057471,36.3978488 L80.1057471,28.6518023 C80.1057471,26.8535901 78.6333333,25.390814 76.8245977,25.390814 C75.0142529,25.390814 73.5418391,26.8535901 73.5418391,28.6518023 L73.5418391,36.3978488 C73.5418391,37.0792733 72.9866667,37.6315116 72.3011494,37.6315116 C71.614023,37.6315116 71.0588506,37.0792733 71.0588506,36.3978488 L71.0588506,28.6518023 C71.0588506,25.4931395 73.6448276,22.9234884 76.8245977,22.9234884 C80.0027586,22.9234884 82.5903448,25.4931395 82.5903448,28.6518023 L82.5903448,36.3978488 C82.5903448,37.0792733 82.0335632,37.6315116 81.348046,37.6315116" id="Fill-656" fill="#516066"></path>
                    <path d="M66.4533333,37.6315116 C65.7678161,37.6315116 65.2126437,37.0792733 65.2126437,36.3978488 L65.2126437,28.6518023 C65.2126437,28.2730378 65.1466667,27.9024273 65.0211494,27.5503634 C64.7894253,26.9090698 65.1241379,26.2027035 65.7694253,25.9724709 C66.4131034,25.7425581 67.125977,26.0757558 67.3577011,26.7168895 C67.5813793,27.3372384 67.6956322,27.9882849 67.6956322,28.6518023 L67.6956322,36.3978488 C67.6956322,37.0792733 67.1388506,37.6315116 66.4533333,37.6315116" id="Fill-657" fill="#516066"></path>
                    <path d="M57.4064368,37.6315116 C56.7209195,37.6315116 56.1641379,37.0792733 56.1641379,36.3978488 L56.1641379,28.6518023 C56.1641379,25.4931395 58.7501149,22.9234884 61.9298851,22.9234884 C62.0328736,22.9234884 62.1358621,22.9262064 62.2388506,22.9314826 C62.9227586,22.9672965 63.4489655,23.5479942 63.4135632,24.2282994 C63.3765517,24.9082849 62.7924138,25.4263081 62.1085057,25.3954506 C62.0489655,25.3922529 61.9894253,25.390814 61.9298851,25.390814 C60.1195402,25.390814 58.6471264,26.8535901 58.6471264,28.6518023 L58.6471264,36.3978488 C58.6471264,37.0792733 58.091954,37.6315116 57.4064368,37.6315116" id="Fill-658" fill="#516066"></path>
                </g>
            </g>
        </g>
    </g>
</svg>