<?xml version="1.0" encoding="UTF-8"?>
<svg width="128px" height="128px" viewBox="0 0 128 128" version="1.1" xmlns="http://www.w3.org/2000/svg" xmlns:xlink="http://www.w3.org/1999/xlink">
    <!-- Generator: Sketch 53 (72520) - https://sketchapp.com -->
    <title>img-race-switzerland</title>
    <desc>Created with Sketch.</desc>
    <g id="Symbols" stroke="none" stroke-width="1" fill="none" fill-rule="evenodd">
        <g id="image-/-race-/-switzerland">
            <g>
                <circle id="Oval-Copy-31" stroke-opacity="0.32" stroke="#F0F8FF" stroke-width="2" fill-opacity="0.04" fill="#F0F8FF" cx="64" cy="64" r="63"></circle>
                <g id="x" transform="translate(19.000000, 21.000000)">
                    <g id="Group" transform="translate(6.838710, 5.193548)" fill="#838F93">
                        <polygon id="Path" points="17 31.7580645 19.5275013 31.7580645 19.9966749 37.6679047 39.1244466 37.6679047 57.3643672 37.6679047 58.0563099 31.7580645 60.3225806 31.7580645 60.3225806 30.483871 38.6612903 21.5645161 17 30.483871"></polygon>
                        <rect id="Rectangle" x="0.548387097" y="37.9677419" width="76.2258065" height="34.8225806"></rect>
                        <path d="M48.8548387,10.0967742 C48.8548387,10.0967742 47.5806452,5 41.2096774,5 L41.1797519,0.0463617692 L36.1129032,0.0074516129 L36.1129032,5 C29.7419355,5 28.4677419,10.0967742 28.4677419,10.0967742 L28.4677419,25.4086678 L48.8548387,25.4086678 L48.8548387,10.0967742 Z" id="Path"></path>
                    </g>
                    <g id="Group" fill="#516066">
                        <rect id="Rectangle" x="12.3709677" y="66.2580645" width="2.5483871" height="2.5483871" rx="1"></rect>
                        <rect id="Rectangle" x="18.7419355" y="66.2580645" width="2.5483871" height="2.5483871" rx="1"></rect>
                        <rect id="Rectangle" x="12.3709677" y="52.2419355" width="2.5483871" height="2.5483871" rx="1"></rect>
                        <rect id="Rectangle" x="18.7419355" y="52.2419355" width="2.5483871" height="2.5483871" rx="1"></rect>
                        <rect id="Rectangle" x="44.2258065" y="47.1451613" width="2.5483871" height="7.64516129" rx="1"></rect>
                        <rect id="Rectangle" x="36.5806452" y="47.1451613" width="2.5483871" height="7.64516129" rx="1"></rect>
                        <rect id="Rectangle" x="28.9354839" y="48.4193548" width="2.5483871" height="6.37096774" rx="1"></rect>
                        <rect id="Rectangle" x="59.516129" y="48.4193548" width="2.5483871" height="6.37096774" rx="1"></rect>
                        <rect id="Rectangle" x="51.8709677" y="47.1451613" width="2.5483871" height="7.64516129" rx="1"></rect>
                        <path d="M82.4516129,42.0483871 L82.4516129,40.5 C82.4516129,39.9477153 82.0038977,39.5 81.4516129,39.5 L80.9032258,39.5 C80.3509411,39.5 79.9032258,39.9477153 79.9032258,40.5 L79.9032258,42.0483871 L65.8870968,42.0483871 L65.8870968,38.2258065 L68.4354839,38.2258065 L68.4354839,34.8237097 L64.6129032,33.2500806 L64.6129032,31.5806452 C64.6129032,31.0283604 64.165188,30.5806452 63.6129032,30.5806452 L63.0645161,30.5806452 C62.5122314,30.5806452 62.0645161,31.0283604 62.0645161,31.5806452 L62.0645161,32.2001452 L56.9677419,30.1015484 L56.9677419,21.6612903 L58.516129,21.6612903 C59.0684138,21.6612903 59.516129,21.2135751 59.516129,20.6612903 L59.516129,20.1129032 C59.516129,19.5606185 59.0684138,19.1129032 58.516129,19.1129032 L56.9677419,19.1129032 L56.9677419,14.016129 L56.5880323,14.016129 C55.7203065,12.0513226 53.5057581,9.44304839 49.3225806,8.99325806 L49.3225806,3.82258065 L46.7741935,3.82258065 L46.7741935,1 C46.7741935,0.44771525 46.3264783,-1.01453063e-16 45.7741935,0 L45.2258065,0 C44.6735217,1.01453063e-16 44.2258065,0.44771525 44.2258065,1 L44.2258065,3.82258065 L41.6774194,3.82258065 L41.6774194,8.99325806 C37.4942419,9.44304839 35.2796935,12.0513226 34.4119677,14.016129 L34.0322581,14.016129 L34.0322581,19.1129032 L32.483871,19.1129032 C31.9315862,19.1129032 31.483871,19.5606185 31.483871,20.1129032 L31.483871,20.6612903 C31.483871,21.2135751 31.9315862,21.6612903 32.483871,21.6612903 L34.0322581,21.6612903 L34.0322581,30.1028226 L28.9354839,32.2014194 L28.9354839,31.5806452 C28.9354839,31.0283604 28.4877686,30.5806452 27.9354839,30.5806452 L27.3870968,30.5806452 C26.834812,30.5806452 26.3870968,31.0283604 26.3870968,31.5806452 L26.3870968,33.2500806 L22.5645161,34.8237097 L22.5645161,38.2258065 L25.1129032,38.2258065 L25.1129032,42.0483871 L11.0967742,42.0483871 L11.0967742,40.5 C11.0967742,39.9477153 10.6490589,39.5 10.0967742,39.5 L9.5483871,39.5 C8.99610235,39.5 8.5483871,39.9477153 8.5483871,40.5 L8.5483871,42.0483871 L7,42.0483871 C6.44771525,42.0483871 6,42.4961023 6,43.0483871 L6,78 C6,78.5522847 6.44771525,79 7,79 L84,79 C84.5522847,79 85,78.5522847 85,78 L85,43.0483871 C85,42.4961023 84.5522847,42.0483871 84,42.0483871 L82.4516129,42.0483871 Z M82.4516129,44.5967742 L82.4516129,47.1451613 L65.8870968,47.1451613 L65.8870968,44.5967742 L82.4516129,44.5967742 Z M32.7580645,73.9032258 L36.5806452,73.9032258 L36.5806452,76.4516129 L32.7580645,76.4516129 L32.7580645,73.9032258 Z M30.2096774,76.4516129 L27.6612903,76.4516129 L27.6612903,73.9032258 L30.2096774,73.9032258 L30.2096774,76.4516129 Z M39.1290323,73.9032258 L44.2258065,73.9032258 L44.2258065,76.4516129 L39.1290323,76.4516129 L39.1290323,73.9032258 Z M46.7741935,73.9032258 L51.8709677,73.9032258 L51.8709677,76.4516129 L46.7741935,76.4516129 L46.7741935,73.9032258 Z M54.4193548,73.9032258 L58.2419355,73.9032258 L58.2419355,76.4516129 L54.4193548,76.4516129 L54.4193548,73.9032258 Z M60.7903226,73.9032258 L63.3387097,73.9032258 L63.3387097,76.4516129 L60.7903226,76.4516129 L60.7903226,73.9032258 Z M60.7903226,71.3548387 L60.7903226,68.5322581 C60.7903226,67.9799733 60.3426073,67.5322581 59.7903226,67.5322581 L59.2419355,67.5322581 C58.6896507,67.5322581 58.2419355,67.9799733 58.2419355,68.5322581 L58.2419355,71.3548387 L54.4193548,71.3548387 L54.4193548,67.2580645 C54.4193548,66.7057798 53.9716396,66.2580645 53.4193548,66.2580645 L52.8709677,66.2580645 C52.318683,66.2580645 51.8709677,66.7057798 51.8709677,67.2580645 L51.8709677,71.3548387 L46.7741935,71.3548387 L46.7741935,67.2580645 C46.7741935,66.7057798 46.3264783,66.2580645 45.7741935,66.2580645 L45.2258065,66.2580645 C44.6735217,66.2580645 44.2258065,66.7057798 44.2258065,67.2580645 L44.2258065,71.3548387 L39.1290323,71.3548387 L39.1290323,67.2580645 C39.1290323,66.7057798 38.681317,66.2580645 38.1290323,66.2580645 L37.5806452,66.2580645 C37.0283604,66.2580645 36.5806452,66.7057798 36.5806452,67.2580645 L36.5806452,71.3548387 L32.7580645,71.3548387 L32.7580645,68.5322581 C32.7580645,67.9799733 32.3103493,67.5322581 31.7580645,67.5322581 L31.2096774,67.5322581 C30.6573927,67.5322581 30.2096774,67.9799733 30.2096774,68.5322581 L30.2096774,71.3548387 L27.6612903,71.3548387 L27.6612903,62.4354839 L32.7580645,62.4354839 L32.7580645,63.983871 C32.7580645,64.5361557 33.2057798,64.983871 33.7580645,64.983871 L34.3064516,64.983871 C34.8587364,64.983871 35.3064516,64.5361557 35.3064516,63.983871 L35.3064516,62.4354839 L40.4032258,62.4354839 L40.4032258,63.983871 C40.4032258,64.5361557 40.8509411,64.983871 41.4032258,64.983871 L41.9516129,64.983871 C42.5038977,64.983871 42.9516129,64.5361557 42.9516129,63.983871 L42.9516129,62.4354839 L48.0483871,62.4354839 L48.0483871,63.983871 C48.0483871,64.5361557 48.4961023,64.983871 49.0483871,64.983871 L49.5967742,64.983871 C50.1490589,64.983871 50.5967742,64.5361557 50.5967742,63.983871 L50.5967742,62.4354839 L55.6935484,62.4354839 L55.6935484,63.983871 C55.6935484,64.5361557 56.1412636,64.983871 56.6935484,64.983871 L57.2419355,64.983871 C57.7942202,64.983871 58.2419355,64.5361557 58.2419355,63.983871 L58.2419355,62.4354839 L63.3387097,62.4354839 L63.3387097,71.3548387 L60.7903226,71.3548387 Z M63.3387097,59.8870968 L58.2419355,59.8870968 L58.2419355,43.3225806 L63.3387097,43.3225806 L63.3387097,59.8870968 Z M55.6935484,59.8870968 L50.5967742,59.8870968 L50.5967742,43.3225806 L55.6935484,43.3225806 L55.6935484,59.8870968 Z M48.0483871,59.8870968 L42.9516129,59.8870968 L42.9516129,43.3225806 L48.0483871,43.3225806 L48.0483871,59.8870968 Z M40.4032258,59.8870968 L35.3064516,59.8870968 L35.3064516,43.3225806 L40.4032258,43.3225806 L40.4032258,59.8870968 Z M32.7580645,59.8870968 L27.6612903,59.8870968 L27.6612903,43.3225806 L32.7580645,43.3225806 L32.7580645,59.8870968 Z M25.1129032,61.1612903 L21.2903226,61.1612903 L21.2903226,57.3387097 L18.7419355,57.3387097 L18.7419355,61.1612903 L14.9193548,61.1612903 L14.9193548,57.3387097 L12.3709677,57.3387097 L12.3709677,61.1612903 L8.5483871,61.1612903 L8.5483871,49.6935484 L25.1129032,49.6935484 L25.1129032,61.1612903 Z M25.1129032,63.7096774 L25.1129032,71.3548387 L8.5483871,71.3548387 L8.5483871,63.7096774 L25.1129032,63.7096774 Z M65.8870968,63.7096774 L82.4516129,63.7096774 L82.4516129,71.3548387 L65.8870968,71.3548387 L65.8870968,63.7096774 Z M78.6290323,61.1612903 L78.6290323,57.3387097 L76.0806452,57.3387097 L76.0806452,61.1612903 L72.2580645,61.1612903 L72.2580645,57.3387097 L69.7096774,57.3387097 L69.7096774,61.1612903 L65.8870968,61.1612903 L65.8870968,49.6935484 L82.4516129,49.6935484 L82.4516129,61.1612903 L78.6290323,61.1612903 Z M58.4878548,35.6774194 L45.5,30.4825323 L32.5121452,35.6774194 L27.6612903,35.6774194 L27.1847419,35.6774194 L45.5,28.1354677 L63.8152581,35.6774194 L63.3387097,35.6774194 L58.4878548,35.6774194 Z M51.6250484,35.6774194 L39.3749516,35.6774194 L45.5,33.2271452 L51.6250484,35.6774194 Z M50.5967742,21.6612903 L50.5967742,27.4792581 L45.5,25.3806613 L40.4032258,27.4792581 L40.4032258,21.6612903 L50.5967742,21.6612903 Z M54.4193548,29.0528871 L53.1451613,28.5279194 L53.1451613,21.6612903 L54.4193548,21.6612903 L54.4193548,29.0528871 Z M53.6446452,14.016129 L51.6530806,14.016129 C51.4938065,13.3522742 51.2568065,12.6425484 50.9293387,11.9659516 C52.2557742,12.4730806 53.1120323,13.2821935 53.6446452,14.016129 Z M44.2258065,11.4677419 L46.7741935,11.4677419 C47.942629,11.4677419 48.6243226,12.8744516 48.9861935,14.016129 L42.0087097,14.016129 C42.3667581,12.8744516 43.0459032,11.4677419 44.2258065,11.4677419 Z M44.2258065,6.37096774 L46.7741935,6.37096774 L46.7741935,8.91935484 L44.2258065,8.91935484 L44.2258065,6.37096774 Z M40.0693871,11.9685 C39.7419194,12.6438226 39.5049194,13.3522742 39.3469194,14.016129 L37.356629,14.016129 C37.8892419,13.2847419 38.7455,12.475629 40.0693871,11.9685 Z M36.5806452,16.5645161 L54.4193548,16.5645161 L54.4193548,19.1129032 L36.5806452,19.1129032 L36.5806452,16.5645161 Z M36.5806452,21.6612903 L37.8548387,21.6612903 L37.8548387,28.5279194 L36.5806452,29.0528871 L36.5806452,21.6612903 Z M63.3387097,38.2258065 L63.3387097,40.7741935 L27.6612903,40.7741935 L27.6612903,38.2258065 L63.3387097,38.2258065 Z M25.1129032,44.5967742 L25.1129032,47.1451613 L8.5483871,47.1451613 L8.5483871,44.5967742 L25.1129032,44.5967742 Z M8.5483871,73.9032258 L25.1129032,73.9032258 L25.1129032,76.4516129 L8.5483871,76.4516129 L8.5483871,73.9032258 Z M65.8870968,76.4516129 L65.8870968,73.9032258 L82.4516129,73.9032258 L82.4516129,76.4516129 L65.8870968,76.4516129 Z" id="Shape" fill-rule="nonzero"></path>
                        <path d="M1.2082344,79 C0.540649634,79 0,78.5528192 0,78.0006481 C0,77.448477 0.540649634,77 1.2082344,77 L89.7901985,77 C90.4577833,77 91,77.448477 91,78.0006481 C91,78.5528192 90.4577833,79 89.7901985,79 L1.2082344,79 Z" id="Fill-704"></path>
                        <rect id="Rectangle" x="76.0806452" y="66.2580645" width="2.5483871" height="2.5483871" rx="1"></rect>
                        <rect id="Rectangle" x="69.7096774" y="66.2580645" width="2.5483871" height="2.5483871" rx="1"></rect>
                        <rect id="Rectangle" x="76.0806452" y="52.2419355" width="2.5483871" height="2.5483871" rx="1"></rect>
                        <rect id="Rectangle" x="69.7096774" y="52.2419355" width="2.5483871" height="2.5483871" rx="1"></rect>
                    </g>
                </g>
            </g>
        </g>
    </g>
</svg>