<?xml version="1.0" encoding="UTF-8"?>
<svg width="128px" height="128px" viewBox="0 0 128 128" version="1.1" xmlns="http://www.w3.org/2000/svg" xmlns:xlink="http://www.w3.org/1999/xlink">
    <!-- Generator: Sketch 53 (72520) - https://sketchapp.com -->
    <title>img-race-usa</title>
    <desc>Created with Sketch.</desc>
    <g id="Symbols" stroke="none" stroke-width="1" fill="none" fill-rule="evenodd">
        <g id="image-/-race-/-USA">
            <g>
                <circle id="Oval-Copy" stroke-opacity="0.32" stroke="#F0F8FF" stroke-width="2" fill-opacity="0.04" fill="#F0F8FF" cx="64" cy="64" r="63"></circle>
                <g id="img" transform="translate(45.000000, 13.000000)">
                    <path d="M10.35,42.4496 C10.35,42.4496 6.54701389,37.8032 6.54701389,28.5312 L6.54701389,12.0304 L7.76888889,12.0304 C9.48270833,12.0304 10.8690972,13.424 10.8627083,15.1392 C10.83875,21.4496 11.226875,35.432 15.0234722,38.64 L10.35,42.4496" id="Fill-367" fill="#838F93"></path>
                    <path d="M8.43652778,14.9888 C8.87256944,14.9888 9.22395833,15.3472 9.21277778,15.7856 C9.1425,18.4992 9.05305556,27.52 10.7333333,32.8496 C10.8722917,33.2928 10.7876389,33.7744 10.4969444,34.136 C10.1775,34.5328 10.1024306,35.072 10.3020833,35.5408 L11.6261806,38.64 L14.0252083,37.4368 C11.1565972,32.8224 10.8403472,20.8464 10.8627083,15.1392 C10.8690972,13.424 9.48270833,12.0304 7.76888889,12.0304 L7.65868056,12.0304 L7.65868056,14.2112 C7.65868056,14.64 8.006875,14.9888 8.43652778,14.9888" id="Fill-368" fill="#838F93"></path>
                    <path d="M27.5504861,47.8592 C27.5504861,47.8592 29.8808333,56.1952 35.8065278,57.0176 L26.6576389,64.0224 L27.5504861,47.8592" id="Fill-369" fill="#838F93"></path>
                    <path d="M27.3588194,63.2976 L37.8429861,51.952 L43.2783333,56.52 C44.4794444,57.5296 44.5880556,59.3424 43.5163194,60.488 L36.5492361,67.936 C35.535,69.0208 33.8419444,69.096 32.7350694,68.1056 L27.3588194,63.2976" id="Fill-370" fill="#838F93"></path>
                    <path d="M20.8884722,24.7184 L20.8884722,24.7184 C18.816875,24.7184 17.1381944,26.4 17.1381944,28.4752 L17.1381944,33.2032 L24.63875,33.2032 L24.63875,28.4752 C24.63875,26.4 22.9600694,24.7184 20.8884722,24.7184" id="Fill-371" fill="#838F93"></path>
                    <path d="M24.63875,33.2032 L24.63875,28.4752 C24.63875,26.4 22.9600694,24.7184 20.8884722,24.7184 C20.5754167,24.7184 20.2735417,24.7616 19.98125,24.8336 C20.944375,25.7424 21.8292361,27.136 21.8292361,29.1968 L21.8292361,33.2032 L24.63875,33.2032" id="Fill-372" fill="#838F93"></path>
                    <path d="M20.8884722,38.64 L20.8884722,38.64 C18.816875,38.64 17.1381944,36.9584 17.1381944,34.8832 L17.1381944,32.7184 C17.1381944,30.6432 18.816875,28.96 20.8884722,28.96 C22.9600694,28.96 24.63875,30.6432 24.63875,32.7184 L24.63875,34.8832 C24.63875,36.9584 22.9600694,38.64 20.8884722,38.64" id="Fill-373" fill="#838F93"></path>
                    <polyline id="Fill-374" fill="#ABC5C2" points="10.278125 86.1264 9.80854167 92.4832 28.6014583 92.4832 27.0952778 64.8784 12.3832639 80.0432 10.278125 86.1264"></polyline>
                    <polyline id="Fill-375" fill="#838F93" points="10.278125 86.1264 9.80854167 92.4832 28.6014583 92.4832 27.0952778 64.8784 12.3832639 80.0432 10.278125 86.1264"></polyline>
                    <path d="M32.7526389,98.7664 L5.65895833,98.7664 L5.65895833,95.4576 C5.65895833,93.816 6.98784722,92.4832 8.62819444,92.4832 L29.7834028,92.4832 C31.4221528,92.4832 32.7526389,93.816 32.7526389,95.4576 L32.7526389,98.7664" id="Fill-376" fill="#838F93"></path>
                    <path d="M21.9857639,89.9968 L19.823125,89.9968 C18.5820833,89.9968 17.5742361,91.0064 17.5742361,92.2512 L17.5742361,92.4832 L28.6014583,92.4832 L27.0952778,64.8784 L12.3832639,80.0432 L10.278125,86.1264 L9.80854167,92.4832 L10.9489583,92.4832 L23.4088889,83.4288 L24.0509722,87.584 C24.2474306,88.8528 23.2667361,89.9968 21.9857639,89.9968" id="Fill-377" fill="#838F93"></path>
                    <path d="M13.6354861,33.7568 C13.6354861,33.7568 16.4434028,37.4096 24.1915278,40.9616 C26.8892361,42.1984 28.6014583,44.9168 28.6014583,47.8896 L28.6014583,65.8992 C28.6014583,67.1968 28.0408333,68.432 27.0617361,69.2832 L19.0053472,76.2992 C18.2450694,76.9616 18.3520833,78.176 19.2177778,78.6928 L20.2943056,79.336 C21.2286806,79.8944 21.2638194,81.2368 20.3597917,81.8432 L11.198125,87.9952 C10.0321528,88.7792 8.47645833,87.8768 8.57708333,86.4736 C9.10576389,79.1232 10.278125,62.0976 10.278125,55.9728 C10.278125,55.9728 10.2541667,55.9584 10.2110417,55.928 C8.76076389,54.9232 8.55951389,52.8512 9.76541667,51.5616 L9.80854167,51.5152 L9.80854167,43.4576 C9.80854167,43.4576 6.99743056,43.2224 6.60770833,41.5008 C6.21638889,39.7808 7.85673611,38.92 7.85673611,38.92 C7.85673611,38.92 11.9951389,37.1984 13.6354861,33.7568" id="Fill-378" fill="#838F93"></path>
                    <path d="M6.770625,9.4704 C4.470625,9.4224 2.94048611,7.0496 3.89402778,4.9536 C3.90680556,4.9248 3.92118056,4.896 3.93395833,4.8672 C5.29798611,1.9984 8.15381944,1.2528 8.15381944,1.2528 C8.15381944,1.2528 7.80243056,2.9072 8.39659722,3.9088 C8.99076389,4.912 10.2605556,6.9856 8.99875,8.592 C8.44131944,9.304 7.56923611,9.4864 6.770625,9.4704" id="Fill-379" fill="#838F93"></path>
                    <path d="M7.79125,3.5952 C7.79125,2.8704 7.61236111,2.1856 7.30409722,1.5808 C6.35215278,2.0256 4.82680556,2.9904 3.93395833,4.8672 C3.92118056,4.896 3.90680556,4.9248 3.89402778,4.9536 C3.41965278,5.9952 3.56020833,7.1056 4.10326389,7.9648 C6.195625,7.6112 7.79125,5.792 7.79125,3.5952" id="Fill-380" fill="#838F93"></path>
                    <path d="M24.63875,34.8832 L24.63875,32.7184 C24.63875,30.968 23.4424306,29.5008 21.8244444,29.0832 C21.8260417,29.1216 21.8292361,29.1584 21.8292361,29.1968 L21.8292361,35.592 C21.8292361,35.592 21.9170833,37.9696 19.5052778,38.3728 C19.9333333,38.544 20.3997222,38.64 20.8884722,38.64 C22.9600694,38.64 24.63875,36.9584 24.63875,34.8832" id="Fill-381" fill="#838F93"></path>
                    <path d="M32.7526389,98.7664 L32.7526389,95.4576 C32.7526389,93.816 31.4221528,92.4832 29.7834028,92.4832 L25.4357639,92.4832 C24.9613889,94.2912 23.3226389,95.624 21.3692361,95.624 C19.4158333,95.624 17.7786806,96.9584 17.3027083,98.7664 L32.7526389,98.7664" id="Fill-382" fill="#838F93"></path>
                    <path d="M5.94166667,7.4736 C5.81868056,7.3072 5.70208333,7.0656 5.6925,6.7344 C5.678125,6.3264 5.83465278,5.9232 6.109375,5.6208 C6.17166667,5.5504 6.24513889,5.4784 6.32979167,5.408 C6.44319444,5.3136 6.6125,5.3728 6.65881944,5.512 C6.71472222,5.6832 6.81694444,5.896 7.00381944,6.0512 C7.29451389,6.2976 7.52611111,6.6304 7.431875,7.1344 C7.37916667,7.424 7.16194444,7.6624 6.88083333,7.7488 C6.81694444,7.7696 6.74666667,7.7856 6.67319444,7.7952 C6.39208333,7.832 6.11097222,7.7008 5.94166667,7.4736" id="Fill-383" fill="#838F93"></path>
                    <path d="M7.03256944,6.0784 C7.02298611,6.0688 7.01340278,6.0592 7.00381944,6.0512 C6.81694444,5.896 6.71472222,5.6832 6.65881944,5.512 C6.6125,5.3728 6.44319444,5.3136 6.32979167,5.408 C6.24513889,5.4784 6.17166667,5.5504 6.109375,5.6208 C5.83465278,5.9232 5.678125,6.3264 5.6925,6.7344 C5.69888889,6.9568 5.75479167,7.136 5.82666667,7.2816 C6.30263889,6.9616 6.71152778,6.5536 7.03256944,6.0784" id="Fill-384" fill="#838F93"></path>
                    <path d="M20.2943056,79.336 L19.2177778,78.6928 C19.0005556,78.5616 18.8296528,78.3872 18.7098611,78.1872 L13.6722222,82.0976 C12.39125,83.0912 11.6405556,84.624 11.6405556,86.248 L11.6405556,87.6976 L20.3597917,81.8432 C21.2638194,81.2368 21.2286806,79.8944 20.2943056,79.336" id="Fill-385" fill="#838F93"></path>
                    <path d="M28.6014583,65.8992 L28.6014583,47.8896 C28.6014583,44.8992 26.8588889,42.1872 24.1468056,40.9408 C21.4171528,39.6864 19.305625,38.4208 17.7131944,37.3072 C16.8698611,38.8944 17.4288889,40.8656 18.9797917,41.7712 L21.8404167,43.4416 C24.0573611,44.7344 25.4421528,47.0896 25.4980556,49.6576 L25.7711806,62.3616 C25.8063194,63.9728 25.2025694,65.5328 24.0909028,66.6992 L20.3182639,70.6624 L19.1379167,76.184 L27.0617361,69.2832 C28.0408333,68.432 28.6014583,67.1968 28.6014583,65.8992" id="Fill-386" fill="#838F93"></path>
                    <path d="M17.8952778,48.8928 L17.8952778,48.8928 L10.278125,55.9728 L10.278125,60.3776 L17.8697222,53.016 C19.0293056,51.8912 19.0420833,50.032 17.8952778,48.8928" id="Fill-387" fill="#838F93"></path>
                    <path d="M8.39020833,26.6992 C8.16819444,23.5232 8.09152778,20.3776 8.06597222,18.408 C8.05319444,17.4672 7.41111111,16.6896 6.54701389,16.4528 L6.54701389,28.5312 C6.54701389,28.9648 6.55819444,29.384 6.57416667,29.7984 L7.03416667,29.4848 C7.94777778,28.864 8.466875,27.8032 8.39020833,26.6992" id="Fill-388" fill="#838F93"></path>
                    <path d="M17.5742361,30.336 L19.7225,28.8064 C19.133125,27.1344 20.2016667,25.6112 20.2016667,25.6112 L19.8614583,24.864 C18.2897917,25.312 17.1381944,26.7584 17.1381944,28.4752 L17.1381944,30.2256 L17.5742361,30.336" id="Fill-389" fill="#838F93"></path>
                    <path d="M17.1381944,32.7184 L17.1381944,34.8832 C17.1381944,34.9632 17.1445833,35.0432 17.149375,35.1232 L18.0565972,35.1232 C19.1203472,35.1232 19.98125,34.2592 19.98125,33.1936 L19.98125,29.0752 C18.3488889,29.4832 17.1381944,30.9568 17.1381944,32.7184" id="Fill-390" fill="#838F93"></path>
                    <path d="M12.1724306,39.7712 C12.6228472,39.4368 12.9997917,39.0848 13.2809028,38.7952 C13.6306944,38.4352 14.1913194,38.384 14.5922222,38.6848 C15.0586111,39.0336 15.7230556,38.9072 16.0297222,38.4128 L16.9449306,36.9424 L16.8490972,36.6832 C14.5730556,34.9728 13.6354861,33.7568 13.6354861,33.7568 C12.4215972,36.3056 9.83888889,37.9088 8.57868056,38.5712 L9.17125,39.3392 C9.89,40.272 11.2284722,40.4752 12.1724306,39.7712" id="Fill-391" fill="#838F93"></path>
                    <path d="M11.8082639,54.0704 C11.1949306,53.4816 11.2348611,52.488 11.8609722,51.9152 L17.1573611,47.0784 C18.0853472,46.2304 18.0757639,44.7648 17.1381944,43.928 L9.80854167,51.296 L9.80854167,51.5152 L9.76541667,51.5616 C8.63298611,52.7712 8.74159722,54.6704 9.95708333,55.7312 L11.8338194,54.0944 C11.8242361,54.0864 11.81625,54.0784 11.8082639,54.0704" id="Fill-392" fill="#838F93"></path>
                    <path d="M22.1359028,53.7168 L22.1007639,54.8672 C22.0704167,55.84 21.6423611,56.7552 20.9140278,57.3984 L19.3775,58.7584 C18.88875,59.1904 18.1955556,59.304 17.5934028,59.0512 C16.9577083,58.7824 16.2245833,58.9264 15.7358333,59.4128 L15.3445139,59.8032 C14.9675694,60.1792 14.3270833,59.9008 14.3430556,59.368 C14.3478472,59.2192 14.4069444,59.0784 14.5107639,58.9728 L20.398125,52.9744 C20.6009722,52.7664 20.8836806,52.656 21.174375,52.6704 C21.7254167,52.6992 22.151875,53.1648 22.1359028,53.7168" id="Fill-393" fill="#838F93"></path>
                    <path d="M12.060625,78.6416 L12.1820139,77.4784 C12.2027778,77.2736 12.261875,77.072 12.3577083,76.888 L17.4831944,66.9184 C18.1604167,65.6016 17.6429167,63.984 16.3284028,63.3072 L9.28305556,76.184 C9.16326389,78.024 9.04347222,79.8016 8.93166667,81.432 C10.5240972,81.4528 11.8945139,80.2544 12.060625,78.6416" id="Fill-394" fill="#838F93"></path>
                    <path d="M9.59611111,98.3776 C9.59611111,96.7376 10.9234028,95.4096 12.5605556,95.4096 C14.1817361,95.4096 15.4978472,94.1024 15.5202083,92.4832 L8.62819444,92.4832 C6.98784722,92.4832 5.65895833,93.816 5.65895833,95.4576 L5.65895833,98.7664 L9.59611111,98.7664 L9.59611111,98.3776" id="Fill-395" fill="#838F93"></path>
                    <path d="M30.9078472,55.3712 C30.5644444,55.3712 30.2242361,55.2288 29.9798611,54.9504 C29.1988194,54.0544 28.4784722,52.9872 27.8427778,51.7776 C27.5249306,51.1744 27.7565278,50.4288 28.3570833,50.1104 C28.9592361,49.792 29.7051389,50.0224 30.0229861,50.6272 C30.5692361,51.6656 31.179375,52.5728 31.8358333,53.3248 C32.2830556,53.8384 32.2319444,54.6176 31.7192361,55.0672 C31.4844444,55.272 31.1953472,55.3712 30.9078472,55.3712" id="Fill-396" fill="#516066"></path>
                    <path d="M34.5575,70.0464 C33.6183333,70.0464 32.6759722,69.7088 31.9140972,69.0272 C31.4061806,68.5728 31.3630556,67.7936 31.8166667,67.2848 C32.2686806,66.776 33.048125,66.7312 33.5560417,67.1856 C34.1677778,67.7328 35.0877778,67.6928 35.65,67.0928 L42.6170833,59.6448 C42.9013889,59.3408 43.0435417,58.944 43.0195833,58.528 C42.9940278,58.112 42.8055556,57.7344 42.4861111,57.4672 L37.95,53.6544 L29.8361111,62.4336 C29.3745139,62.9328 28.5950694,62.9632 28.0951389,62.5008 C27.5952083,62.0384 27.5664583,61.256 28.0280556,60.7568 L36.9389583,51.1136 C37.3861806,50.6304 38.1320833,50.584 38.6352083,51.0064 L44.0705556,55.5744 C44.9011111,56.2736 45.4154167,57.296 45.4793056,58.3792 C45.5447917,59.464 45.1566667,60.5408 44.4155556,61.3328 L37.446875,68.7808 C36.6626389,69.6192 35.6116667,70.0464 34.5575,70.0464" id="Fill-397" fill="#516066"></path>
                    <path d="M24.63875,34.1296 C23.9583333,34.1296 23.4072917,33.576 23.4072917,32.8944 L23.4072917,28.4752 C23.4072917,27.0848 22.2764583,25.9536 20.8884722,25.9536 C19.5004861,25.9536 18.3696528,27.0848 18.3696528,28.4752 L18.3696528,32.8944 C18.3696528,33.576 17.8186111,34.1296 17.1381944,34.1296 C16.4577778,34.1296 15.9051389,33.576 15.9051389,32.8944 L15.9051389,28.4752 C15.9051389,25.7232 18.14125,23.4832 20.8884722,23.4832 C23.6356944,23.4832 25.8718056,25.7232 25.8718056,28.4752 L25.8718056,32.8944 C25.8718056,33.576 25.3207639,34.1296 24.63875,34.1296" id="Fill-398" fill="#516066"></path>
                    <path d="M20.8884722,25.9536 C20.2080556,25.9536 19.6570139,25.4 19.6570139,24.7184 L19.6570139,21.9952 C19.6570139,21.3136 20.2080556,20.76 20.8884722,20.76 C21.5688889,20.76 22.1215278,21.3136 22.1215278,21.9952 L22.1215278,24.7184 C22.1215278,25.4 21.5688889,25.9536 20.8884722,25.9536" id="Fill-399" fill="#516066"></path>
                    <path d="M23.8800694,27.0096 C23.6069444,27.0096 23.3322222,26.92 23.1038194,26.7328 C22.5751389,26.3024 22.4952778,25.5248 22.9249306,24.9968 L24.6403472,22.8832 C25.0684028,22.3536 25.8446528,22.2736 26.3733333,22.704 C26.9020139,23.1328 26.981875,23.912 26.5522222,24.44 L24.8384028,26.5536 C24.5940278,26.8544 24.2394444,27.0096 23.8800694,27.0096" id="Fill-400" fill="#516066"></path>
                    <path d="M27.5504861,29.8016 C27.5456944,29.8016 27.5393056,29.8016 27.5345139,29.8016 L24.8160417,29.7664 C24.135625,29.7568 23.5909722,29.1968 23.6005556,28.5152 C23.6085417,27.8336 24.1579861,27.2928 24.8479861,27.2976 L27.5664583,27.3328 C28.246875,27.3424 28.7915278,27.9024 28.7835417,28.584 C28.7739583,29.2592 28.2245139,29.8016 27.5504861,29.8016" id="Fill-401" fill="#516066"></path>
                    <path d="M17.896875,27.0096 C17.5390972,27.0096 17.1829167,26.8544 16.9401389,26.5536 L15.2247222,24.44 C14.7950694,23.912 14.8749306,23.1328 15.4036111,22.704 C15.9322917,22.2736 16.7085417,22.3536 17.1381944,22.8832 L18.8520139,24.9968 C19.2816667,25.5248 19.2018056,26.3024 18.673125,26.7328 C18.4447222,26.92 18.17,27.0096 17.896875,27.0096" id="Fill-402" fill="#516066"></path>
                    <path d="M15.4579167,29.8016 C14.791875,29.8016 14.2424306,29.2688 14.2264583,28.5968 C14.2104861,27.9152 14.74875,27.3488 15.4291667,27.3328 L16.9161806,27.2976 C17.6061806,27.2768 18.1604167,27.8208 18.1763889,28.5024 C18.1939583,29.184 17.6556944,29.7504 16.9752778,29.7664 L15.4882639,29.8016 C15.4786806,29.8016 15.4675,29.8016 15.4579167,29.8016" id="Fill-403" fill="#516066"></path>
                    <path d="M20.6984028,40.2848 C20.0179861,40.2848 19.4669444,39.7312 19.4669444,39.0496 C19.4669444,38.368 20.0179861,37.816 20.6984028,37.816 C22.4952778,37.816 23.4072917,36.8288 23.4072917,34.8832 L23.4072917,32.7184 C23.4072917,31.3264 22.2764583,30.1952 20.8884722,30.1952 C19.5004861,30.1952 18.3696528,31.3264 18.3696528,32.7184 L18.3696528,36.1184 C18.3696528,36.8 17.8186111,37.3536 17.1381944,37.3536 C16.4577778,37.3536 15.9051389,36.8 15.9051389,36.1184 L15.9051389,32.7184 C15.9051389,29.9648 18.14125,27.7264 20.8884722,27.7264 C23.6356944,27.7264 25.8718056,29.9648 25.8718056,32.7184 L25.8718056,34.8832 C25.8718056,38.1648 23.8417361,40.2848 20.6984028,40.2848" id="Fill-404" fill="#516066"></path>
                    <path d="M28.5998611,93.7184 C27.9577778,93.7184 27.4147222,93.2176 27.3715972,92.5664 L25.831875,69.3664 C25.7871528,68.6848 26.3014583,68.0976 26.9802778,68.0512 C27.6606944,68.0064 28.246875,68.5216 28.2915972,69.2016 L29.8313194,92.4016 C29.8760417,93.0816 29.3633333,93.6704 28.6829167,93.7152 C28.6557639,93.7168 28.6286111,93.7184 28.5998611,93.7184" id="Fill-405" fill="#516066"></path>
                    <path d="M9.81013889,93.7184 C9.77979167,93.7184 9.74944444,93.7168 9.71909722,93.7152 C9.04027778,93.664 8.52916667,93.072 8.58027778,92.3936 L8.85979167,88.5968 C8.90930556,87.9168 9.50347222,87.4096 10.1790972,87.456 C10.8579167,87.5072 11.3674306,88.0992 11.3179167,88.7792 L11.0384028,92.5744 C10.9904861,93.224 10.4490278,93.7184 9.81013889,93.7184" id="Fill-406" fill="#516066"></path>
                    <path d="M32.7526389,100 L5.65895833,100 C4.97854167,100 4.42590278,99.448 4.42590278,98.7664 L4.42590278,95.4576 C4.42590278,93.1376 6.310625,91.2496 8.62819444,91.2496 L19.161875,91.2496 C19.8422917,91.2496 20.3933333,91.8016 20.3933333,92.4832 C20.3933333,93.1648 19.8422917,93.7184 19.161875,93.7184 L8.62819444,93.7184 C7.66986111,93.7184 6.89201389,94.4992 6.89201389,95.4576 L6.89201389,97.5312 L31.5195833,97.5312 L31.5195833,95.4576 C31.5195833,94.4992 30.7401389,93.7184 29.7834028,93.7184 L25.8286806,93.7184 C25.1482639,93.7184 24.5972222,93.1648 24.5972222,92.4832 C24.5972222,91.8016 25.1482639,91.2496 25.8286806,91.2496 L29.7834028,91.2496 C32.099375,91.2496 33.9840972,93.1376 33.9840972,95.4576 L33.9840972,98.7664 C33.9840972,99.448 33.4330556,100 32.7526389,100" id="Fill-407" fill="#516066"></path>
                    <path d="M11.8322222,31.5712 C11.2396528,31.5712 10.7173611,31.1424 10.6183333,30.536 C9.90597222,26.1952 9.69513889,21.1584 9.64402778,17.6992 C9.63444444,17.0176 10.1775,16.456 10.8579167,16.4464 C10.8643056,16.4464 10.8706944,16.4464 10.8770833,16.4464 C11.5495139,16.4464 12.0989583,16.9872 12.1085417,17.6624 C12.1580556,21.0384 12.3625,25.944 13.0493056,30.136 C13.1595139,30.8096 12.7059028,31.4448 12.0334722,31.5552 C11.9663889,31.5664 11.8993056,31.5712 11.8322222,31.5712" id="Fill-408" fill="#516066"></path>
                    <path d="M8.22569444,39.6336 C7.72736111,39.6336 7.259375,39.3296 7.0725,38.8352 C5.90652778,35.7472 5.31555556,32.28 5.31555556,28.5312 L5.31555556,22.8176 C5.31555556,22.1344 5.86659722,21.5824 6.54701389,21.5824 C7.22743056,21.5824 7.78006944,22.1344 7.78006944,22.8176 L7.78006944,28.5312 C7.78006944,31.9808 8.31673611,35.1536 9.37729167,37.9616 C9.61847222,38.6 9.29743056,39.312 8.66173611,39.5536 C8.51798611,39.608 8.37104167,39.6336 8.22569444,39.6336" id="Fill-409" fill="#516066"></path>
                    <path d="M10.2589583,89.52 C9.75583333,89.52 9.25111111,89.3872 8.79270833,89.1216 C7.82159722,88.5568 7.26736111,87.5072 7.34881944,86.384 C7.50534722,84.2016 7.74333333,80.816 7.98930556,77.0832 C8.03402778,76.4032 8.62340278,75.8864 9.300625,75.9328 C9.97944444,75.9776 10.49375,76.5648 10.4490278,77.2464 C10.2030556,80.9856 9.96347222,84.376 9.80694444,86.5616 C9.789375,86.8064 9.93951389,86.9328 10.0305556,86.9856 C10.1215972,87.04 10.306875,87.1072 10.5113194,86.9696 L19.6729861,80.8176 C19.7672222,80.7536 19.7863889,80.6656 19.7847917,80.6032 C19.7831944,80.5408 19.7608333,80.4544 19.6634028,80.3968 L18.586875,79.7536 C17.8425694,79.3072 17.3522222,78.5248 17.2739583,77.6592 C17.1972917,76.7952 17.5422917,75.9376 18.1971528,75.3664 L26.2535417,68.352 C26.9627083,67.7344 27.37,66.84 27.37,65.8976 L27.37,47.8896 C27.37,45.3904 25.9197222,43.112 23.6788194,42.0832 C18.4399306,39.6816 15.3684722,37.2192 13.8511111,35.7776 C11.9152778,38.4112 8.926875,39.7984 8.40298611,40.0288 C8.23527778,40.1296 7.65229167,40.5392 7.80881944,41.2272 C7.935,41.7872 9.22555556,42.1696 9.91076389,42.2272 C10.5496528,42.28 11.0415972,42.8144 11.0415972,43.4576 L11.0415972,51.5152 C11.0415972,51.8272 10.9218056,52.1296 10.709375,52.3584 L10.6646528,52.4048 C10.3292361,52.7632 10.1663194,53.2496 10.2190278,53.7376 C10.2701389,54.2224 10.5161111,54.64 10.9122222,54.9136 L10.9425694,54.9344 C11.2923611,55.1616 11.5095833,55.5552 11.5095833,55.9744 C11.5095833,58.2384 11.3514583,62.184 11.04,67.6976 C11.0016667,68.3792 10.4202778,68.9056 9.73986111,68.8608 C9.05944444,68.8224 8.54034722,68.24 8.57868056,67.5584 C8.86298611,62.5472 9.01791667,58.856 9.041875,56.5664 C8.32951389,55.8976 7.87270833,54.9888 7.76729167,54 C7.65548611,52.9456 7.94777778,51.8992 8.57708333,51.0624 L8.57708333,44.488 C7.42868056,44.1904 5.79152778,43.4736 5.405,41.7744 C4.930625,39.68 6.42722222,38.2768 7.28493056,37.8256 C7.316875,37.8096 7.35041667,37.7936 7.38395833,37.7792 C7.41909722,37.7648 11.1134722,36.1856 12.5238194,33.2256 C12.7075,32.8384 13.0796528,32.5744 13.5061111,32.5296 C13.9341667,32.4832 14.3510417,32.664 14.6113889,33.0032 C14.6353472,33.0336 17.3905556,36.4864 24.7042361,39.8384 C27.8204167,41.2672 29.8345139,44.4272 29.8345139,47.8896 L29.8345139,65.8976 C29.8345139,67.5552 29.1189583,69.128 27.8699306,70.216 L19.8135417,77.2304 C19.7352778,77.2992 19.7240972,77.3824 19.7304861,77.44 C19.7352778,77.4992 19.7592361,77.5792 19.8502778,77.6336 L20.9252083,78.2752 C21.7286111,78.7568 22.22375,79.6016 22.2477083,80.5392 C22.2732639,81.4752 21.8228472,82.3456 21.0465972,82.8688 L11.8849306,89.0208 C11.3897917,89.3536 10.8259722,89.52 10.2589583,89.52" id="Fill-410" fill="#516066"></path>
                    <path d="M9.40763889,13.7568 L3.7375,13.7568 C3.05548611,13.7568 2.50444444,13.2048 2.50444444,12.5232 C2.50444444,11.84 3.05548611,11.288 3.7375,11.288 L9.40763889,11.288 C10.0880556,11.288 10.6406944,11.84 10.6406944,12.5232 C10.6406944,13.2048 10.0880556,13.7568 9.40763889,13.7568" id="Fill-411" fill="#516066"></path>
                    <path d="M6.52145833,19.8128 C6.51347222,19.8128 6.50548611,19.8128 6.4975,19.8112 C5.81708333,19.7984 5.275625,19.2352 5.28840278,18.5536 L5.333125,16.2368 C5.34590278,15.5632 5.89534722,15.0256 6.56458333,15.0256 C6.57256944,15.0256 6.58215278,15.0256 6.59013889,15.0272 C7.27055556,15.04 7.81041667,15.6032 7.79763889,16.2848 L7.75291667,18.6016 C7.74013889,19.2752 7.19069444,19.8128 6.52145833,19.8128" id="Fill-412" fill="#516066"></path>
                    <path d="M4.36520833,9.5568 C4.01381944,9.5568 3.665625,9.408 3.42125,9.1184 C2.30958333,7.7968 2.06201389,6.0048 2.77277778,4.4416 L2.81270833,4.3552 C4.41472222,0.987200001 7.70340278,0.0944000005 7.84236111,0.0576000005 C8.25604167,-0.0495999995 8.69527778,0.0640000005 9.00513889,0.360000001 C9.31340278,0.656000001 9.44756944,1.0912 9.358125,1.5088 C9.26069444,1.9888 9.22236111,2.8864 9.45555556,3.2784 L9.48590278,3.3296 C10.0976389,4.3584 11.5271528,6.768 10.2605556,8.928 C9.91555556,9.5152 9.16006944,9.712 8.57229167,9.3664 C7.98611111,9.0208 7.79125,8.264 8.13625,7.6752 C8.66493056,6.776 7.82159722,5.3552 7.36798611,4.592 L7.33763889,4.5392 C7.09645833,4.1344 6.96069444,3.68 6.88881944,3.2352 C6.24034722,3.6912 5.52958333,4.3824 5.04722222,5.3984 L5.02006944,5.4576 C4.643125,6.2864 4.92104167,7.0688 5.30756944,7.5264 C5.74520833,8.048 5.678125,8.8272 5.15902778,9.2656 C4.92743056,9.4624 4.64472222,9.5568 4.36520833,9.5568" id="Fill-413" fill="#516066"></path>
                    <path d="M18.7098611,77.8896 C18.6044444,77.8896 18.4974306,77.8752 18.3904167,77.8464 C17.7323611,77.6688 17.3426389,76.992 17.5199306,76.3344 L22.2540972,58.6928 C22.4313889,58.0336 23.1070139,57.6448 23.7650694,57.8208 C24.4215278,57.9984 24.81125,58.6752 24.6355556,59.3328 L19.8997917,76.9744 C19.75125,77.5264 19.2545139,77.8896 18.7098611,77.8896" id="Fill-414" fill="#516066"></path>
                    <path d="M9.80854167,52.7488 C9.49229167,52.7488 9.17604167,52.6272 8.93645833,52.3856 C8.45569444,51.9024 8.45729167,51.12 8.93965278,50.64 L16.2677083,43.3296 C16.7500694,42.8496 17.5311111,42.8512 18.011875,43.3344 C18.4910417,43.8176 18.4894444,44.5984 18.0070833,45.08 L10.6790278,52.3888 C10.4378472,52.6288 10.1231944,52.7488 9.80854167,52.7488" id="Fill-415" fill="#516066"></path>
                    <path d="M10.278125,57.208 C9.95548611,57.208 9.63444444,57.0832 9.39326389,56.832 C8.91888889,56.3424 8.93166667,55.5616 9.42041667,55.0864 L13.2920833,51.3296 C13.7808333,50.856 14.561875,50.8672 15.0346528,51.3568 C15.5090278,51.8464 15.49625,52.6288 15.0075,53.1024 L11.1358333,56.8608 C10.89625,57.0928 10.5863889,57.208 10.278125,57.208" id="Fill-417" fill="#516066"></path>
                    <path d="M7.82159722,80.4016 C7.62513889,80.4016 7.42548611,80.3536 7.24020833,80.2544 C6.63965278,79.9312 6.41444444,79.1824 6.73708333,78.5824 L15.8588194,61.5728 C16.1814583,60.9728 16.9289583,60.7472 17.5279167,61.0704 C18.1284722,61.392 18.3520833,62.1408 18.0310417,62.7424 L8.90930556,79.7504 C8.68569444,80.1648 8.26083333,80.4016 7.82159722,80.4016" id="Fill-418" fill="#516066"></path>
                    <path d="M38.1688194,100 L1.33527778,100 C0.654861111,100 0.103819444,99.448 0.103819444,98.7664 C0.103819444,98.0848 0.654861111,97.5312 1.33527778,97.5312 L38.1688194,97.5312 C38.8492361,97.5312 39.4002778,98.0848 39.4002778,98.7664 C39.4002778,99.448 38.8492361,100 38.1688194,100" id="Fill-419" fill="#516066"></path>
                </g>
            </g>
        </g>
    </g>
</svg>