<?xml version="1.0" encoding="UTF-8"?>
<svg width="128px" height="128px" viewBox="0 0 128 128" version="1.1" xmlns="http://www.w3.org/2000/svg" xmlns:xlink="http://www.w3.org/1999/xlink">
    <!-- Generator: Sketch 53 (72520) - https://sketchapp.com -->
    <title>img-race-south-korea</title>
    <desc>Created with Sketch.</desc>
    <g id="Symbols" stroke="none" stroke-width="1" fill="none" fill-rule="evenodd">
        <g id="image-/-race-/-south-korea">
            <g>
                <circle id="Oval-Copy-8" stroke-opacity="0.32" stroke="#F0F8FF" stroke-width="2" fill-opacity="0.04" fill="#F0F8FF" cx="64" cy="64" r="63"></circle>
                <g id="Group-23" transform="translate(23.000000, 21.000000)">
                    <polygon id="Fill-421" fill="#838F93" points="72.7830769 52.4398295 77.6184615 52.4398295 77.6184615 39.9676705 72.7830769 39.9676705"></polygon>
                    <polyline id="Fill-422" fill="#838F93" points="41.7538462 39.9676705 17.6661538 39.9676705 17.6661538 52.4398295 65.84 52.4398295 65.84 39.9676705 41.7538462 39.9676705"></polyline>
                    <polygon id="Fill-423" fill="#838F93" points="5.13692308 79.8034091 77.6184615 79.8034091 77.6184615 52.4398295 5.13692308 52.4398295"></polygon>
                    <path d="M77.6184615,79.8034091 L77.6184615,52.4398295 L36.7876923,52.4398295 C37.6584615,56.3379545 41.1446154,59.2542614 45.3153846,59.2542614 L49.9553846,59.2542614 C54.7815385,59.2542614 58.6938462,63.1554545 58.6938462,67.9678977 L58.6938462,79.8034091 L77.6184615,79.8034091" id="Fill-424" fill="#838F93"></path>
                    <polygon id="Fill-425" fill="#516066" points="34.7 79.8034091 48.0569231 79.8034091 48.0569231 66.4844318 34.7 66.4844318"></polygon>
                    <polygon id="Fill-426" fill="#516066" points="18.6246154 79.8034091 28.7369231 79.8034091 28.7369231 69.7198295 18.6246154 69.7198295"></polygon>
                    <polygon id="Fill-427" fill="#516066" points="54.0184615 79.8034091 64.1323077 79.8034091 64.1323077 69.7198295 54.0184615 69.7198295"></polygon>
                    <polygon id="Fill-428" fill="#838F93" points="28.7369231 61.5078409 54.0184615 61.5078409 54.0184615 57.0006818 28.7369231 57.0006818"></polygon>
                    <path d="M42.2846154,39.9676705 L22.7969231,39.9676705 C22.7969231,41.8070455 24.2923077,43.2997159 26.1384615,43.2997159 L37.0630769,43.2997159 C39.9476923,43.2997159 42.2846154,45.6315341 42.2846154,48.5064205 L42.2846154,52.4398295 L65.84,52.4398295 L65.84,39.9676705 L42.2846154,39.9676705" id="Fill-429" fill="#838F93"></path>
                    <polygon id="Fill-432" fill="#838F93" points="5.13692308 52.4398295 9.97276923 52.4398295 9.97276923 39.9676705 5.13692308 39.9676705"></polygon>
                    <path d="M65.5630769,28.5110795 L17.9430769,28.5110795 C17.9430769,28.5110795 12.0138462,35.6246591 4.13984615,39.9676705 L79.3661538,39.9676705 C71.4923077,35.6246591 65.5630769,28.5110795 65.5630769,28.5110795" id="Fill-433" fill="#838F93"></path>
                    <polyline id="Fill-434" fill="#838F93" points="41.7538462 18.2786932 17.6661538 18.2786932 17.6661538 28.5110795 65.84 28.5110795 65.84 18.2786932 41.7538462 18.2786932"></polyline>
                    <path d="M41.7538462,1.2825 L19.6184615,1.2825 C18.54,1.2825 17.6661538,2.15386364 17.6661538,3.22926136 L17.6661538,6.18698864 L65.84,6.18698864 L65.84,3.22926136 C65.84,2.15386364 64.9661538,1.2825 63.8876923,1.2825 L41.7538462,1.2825" id="Fill-435" fill="#838F93"></path>
                    <path d="M42.2846154,18.2786932 L22.7969231,18.2786932 L22.7969231,18.3830114 C22.7969231,19.8327273 23.9753846,21.009375 25.4307692,21.009375 L37.2707692,21.009375 C40.04,21.009375 42.2846154,23.2476136 42.2846154,26.0089773 L42.2846154,28.5110795 L65.84,28.5110795 L65.84,18.2786932 L42.2846154,18.2786932" id="Fill-436" fill="#838F93"></path>
                    <rect id="Rectangle" fill="#838F93" x="37" y="23" width="9" height="11"></rect>
                    <path d="M4.13984615,18.2786932 L79.3661538,18.2786932 C71.4923077,14.2271591 65.5630769,6.18698864 65.5630769,6.18698864 L17.9430769,6.18698864 C17.9430769,6.18698864 12.9261538,13.5951136 4.13984615,18.2786932" id="Fill-439" fill="#838F93"></path>
                    <path d="M77.6184615,39.9676705 L75.76,39.9676705 L75.76,47.8897159 C75.76,48.6 75.0707692,49.1768182 74.2184615,49.1768182 L72.7830769,49.1768182 L72.7830769,52.4398295 L77.6184615,52.4398295 L77.6184615,39.9676705" id="Fill-443" fill="#838F93"></path>
                    <path d="M5.13692308,39.9676705 L5.13692308,47.3144318 L5.83384615,47.3144318 C6.62538462,47.3144318 7.26707692,46.6747159 7.26707692,45.8861932 L7.26707692,39.9676705 L5.13692308,39.9676705" id="Fill-449" fill="#838F93"></path>
                    <path d="M72.7830769,39.9676705 L72.7830769,47.3144318 L73.4753846,47.3144318 C74.2676923,47.3144318 74.9092308,46.6747159 74.9092308,45.8861932 L74.9092308,39.9676705 L72.7830769,39.9676705" id="Fill-452" fill="#838F93"></path>
                    <path d="M50.4892308,59.2542614 L48.7046154,59.2542614 C47.4969231,59.2542614 46.5184615,60.2299432 46.5184615,61.4342045 L46.5184615,61.5078409 L54.0184615,61.5078409 L54.0184615,57.0006818 L52.6753846,57.0006818 L52.6753846,57.0743182 C52.6753846,58.2785795 51.6969231,59.2542614 50.4892308,59.2542614" id="Fill-455" fill="#838F93"></path>
                    <path d="M28.7369231,57.0006818 L28.7369231,61.5078409 L35.6061538,61.5078409 C35.6061538,60.2636932 36.6169231,59.2542614 37.8661538,59.2542614 L41.1969231,59.2542614 C42.4446154,59.2542614 43.4569231,58.2448295 43.4569231,57.0006818 L28.7369231,57.0006818" id="Fill-456" fill="#838F93"></path>
                    <path d="M48.5230769,6.18698864 L65.84,6.18698864 L65.84,3.22926136 C65.84,2.15386364 64.9661538,1.2825 63.8876923,1.2825 L61.0784615,1.2825 C60.6430769,2.74448864 59.2876923,3.81068182 57.6815385,3.81068182 L51.8692308,3.81068182 C50.3184615,3.81068182 49.0046154,4.80323864 48.5230769,6.18698864" id="Fill-459" fill="#91928E"></path>
                    <path d="M19.6184615,1.2825 C18.54,1.2825 17.6661538,2.15386364 17.6661538,3.22926136 L17.6661538,6.18698864 L27.9338462,6.18698864 L27.9338462,5.54880682 C27.9338462,4.370625 28.8923077,3.41642045 30.0738462,3.41642045 L35.8938462,3.41642045 C37.0753846,3.41642045 38.0323077,2.46068182 38.0323077,1.2825 L19.6184615,1.2825" id="Fill-460" fill="#838F93"></path>
                    <path d="M5.13692308,52.4398295 L5.13692308,79.8034091 L10.6016923,79.8034091 L10.6016923,60.3833523 C10.6016923,58.5148295 12.1215385,57.0006818 13.9953846,57.0006818 C15.8692308,57.0006818 17.3876923,55.485 17.3876923,53.6164773 L17.3876923,52.4398295 L5.13692308,52.4398295" id="Fill-461" fill="#838F93"></path>
                    <path d="M79.3661538,39.9676705 C71.4923077,35.6246591 65.5630769,28.5110795 65.5630769,28.5110795 L59.7307692,28.5110795 C59.9292308,29.0157955 60.1784615,29.6278977 60.4784615,30.3121023 C61.7661538,33.2468182 59.62,36.5374432 56.4076923,36.5374432 L50.7584615,36.5374432 C48.3230769,36.5374432 46.1784615,37.9135227 45.1123077,39.9676705 L79.3661538,39.9676705" id="Fill-463" fill="#838F93"></path>
                    <path d="M17.9430769,6.18698864 C17.9430769,6.18698864 12.9261538,13.5951136 4.13984615,18.2786932 L14.1538462,18.2786932 C15.1615385,17.0529545 16.9107692,14.9282386 18.4846154,13.0014205 C20.2230769,10.8721023 22.8292308,9.63715909 25.5830769,9.63715909 L25.6753846,9.63715909 C28.5246154,9.63715909 31.1338462,8.319375 32.8353846,6.18698864 L17.9430769,6.18698864" id="Fill-464" fill="#838F93"></path>
                    <path d="M17.9430769,28.5110795 C17.9430769,28.5110795 12.0138462,35.6246591 4.13984615,39.9676705 L12.7215385,39.9676705 C13.7553846,38.7127841 15.2984615,36.8350568 16.7030769,35.1138068 C18.4415385,32.9860227 21.0476923,31.7495455 23.8015385,31.7495455 L23.8953846,31.7495455 C26.6492308,31.7495455 29.1846154,30.5207386 30.8876923,28.5110795 L17.9430769,28.5110795" id="Fill-465" fill="#838F93"></path>
                    <path d="M6.324,78.620625 L76.4323077,78.620625 L76.4323077,53.6226136 L6.324,53.6226136 L6.324,78.620625 Z M77.6184615,80.9877273 L5.13692308,80.9877273 C4.48138462,80.9877273 3.94984615,80.4569318 3.94984615,79.8034091 L3.94984615,52.4398295 C3.94984615,51.7863068 4.48138462,51.2555114 5.13692308,51.2555114 L77.6184615,51.2555114 C78.2753846,51.2555114 78.8061538,51.7863068 78.8061538,52.4398295 L78.8061538,79.8034091 C78.8061538,80.4569318 78.2753846,80.9877273 77.6184615,80.9877273 L77.6184615,80.9877273 Z" id="Fill-466" fill="#516066"></path>
                    <path d="M28.7369231,62.690625 C28.0815385,62.690625 27.5507692,62.1613636 27.5507692,61.5078409 L27.5507692,57.0006818 C27.5507692,56.3471591 28.0815385,55.8163636 28.7369231,55.8163636 L40.4876923,55.8163636 C41.1430769,55.8163636 41.6753846,56.3471591 41.6753846,57.0006818 C41.6753846,57.6542045 41.1430769,58.1834659 40.4876923,58.1834659 L29.9246154,58.1834659 L29.9246154,60.3235227 L52.8323077,60.3235227 L52.8323077,58.1834659 L43.7676923,58.1834659 C43.1123077,58.1834659 42.5815385,57.6542045 42.5815385,57.0006818 C42.5815385,56.3471591 43.1123077,55.8163636 43.7676923,55.8163636 L54.0184615,55.8163636 C54.6738462,55.8163636 55.2061538,56.3471591 55.2061538,57.0006818 L55.2061538,61.5078409 C55.2061538,62.1613636 54.6738462,62.690625 54.0184615,62.690625 L28.7369231,62.690625 Z" id="Fill-467" fill="#516066"></path>
                    <path d="M48.0569231,80.9877273 C47.4015385,80.9877273 46.8692308,80.4569318 46.8692308,79.8034091 L46.8692308,67.66875 L35.8861538,67.66875 L35.8861538,79.8034091 C35.8861538,80.4569318 35.3553846,80.9877273 34.7,80.9877273 C34.0430769,80.9877273 33.5123077,80.4569318 33.5123077,79.8034091 L33.5123077,66.4844318 C33.5123077,65.8309091 34.0430769,65.3001136 34.7,65.3001136 L48.0569231,65.3001136 C48.7123077,65.3001136 49.2430769,65.8309091 49.2430769,66.4844318 L49.2430769,79.8034091 C49.2430769,80.4569318 48.7123077,80.9877273 48.0569231,80.9877273" id="Fill-469" fill="#516066"></path>
                    <path d="M28.7369231,80.9877273 C28.0815385,80.9877273 27.5507692,80.4569318 27.5507692,79.8034091 L27.5507692,70.9026136 L19.8107692,70.9026136 L19.8107692,79.8034091 C19.8107692,80.4569318 19.28,80.9877273 18.6246154,80.9877273 C17.9692308,80.9877273 17.4369231,80.4569318 17.4369231,79.8034091 L17.4369231,69.7198295 C17.4369231,69.0663068 17.9692308,68.5355114 18.6246154,68.5355114 L28.7369231,68.5355114 C29.3923077,68.5355114 29.9246154,69.0663068 29.9246154,69.7198295 L29.9246154,79.8034091 C29.9246154,80.4569318 29.3923077,80.9877273 28.7369231,80.9877273" id="Fill-470" fill="#516066"></path>
                    <path d="M64.1323077,80.9877273 C63.4769231,80.9877273 62.9446154,80.4569318 62.9446154,79.8034091 L62.9446154,70.9026136 L55.2061538,70.9026136 L55.2061538,79.8034091 C55.2061538,80.4569318 54.6738462,80.9877273 54.0184615,80.9877273 C53.3630769,80.9877273 52.8323077,80.4569318 52.8323077,79.8034091 L52.8323077,69.7198295 C52.8323077,69.0663068 53.3630769,68.5355114 54.0184615,68.5355114 L64.1323077,68.5355114 C64.7876923,68.5355114 65.3184615,69.0663068 65.3184615,69.7198295 L65.3184615,79.8034091 C65.3184615,80.4569318 64.7876923,80.9877273 64.1323077,80.9877273" id="Fill-471" fill="#516066"></path>
                    <path d="M79.3661538,41.1504545 L63.8876923,41.1504545 C63.2323077,41.1504545 62.7,40.6211932 62.7,39.9676705 C62.7,39.3126136 63.2323077,38.7833523 63.8876923,38.7833523 L75.2169231,38.7833523 C70.0323077,35.2089205 66.1923077,31.0346591 65.0169231,29.6953977 L50.1953846,29.6953977 C49.54,29.6953977 49.0076923,29.1661364 49.0076923,28.5110795 C49.0076923,27.8575568 49.54,27.3282955 50.1953846,27.3282955 L65.5630769,27.3282955 C65.9153846,27.3282955 66.2492308,27.4847727 66.4753846,27.7547727 C66.5323077,27.8238068 72.3646154,34.7532955 79.9415385,38.930625 C80.4153846,39.1914205 80.6507692,39.740625 80.5153846,40.2622159 C80.38,40.7853409 79.9076923,41.1504545 79.3661538,41.1504545" id="Fill-472" fill="#516066"></path>
                    <path d="M58.6938462,41.1504545 L4.13984615,41.1504545 C3.59846154,41.1504545 3.12569231,40.7853409 2.99046154,40.2622159 C2.85507692,39.740625 3.09153846,39.1914205 3.56538462,38.930625 C11.1421538,34.7532955 16.9723077,27.8238068 17.0307692,27.7547727 C17.2569231,27.4847727 17.5907692,27.3282955 17.9430769,27.3282955 L33.6061538,27.3282955 C34.2630769,27.3282955 34.7938462,27.8575568 34.7938462,28.5110795 C34.7938462,29.1661364 34.2630769,29.6953977 33.6061538,29.6953977 L18.4892308,29.6953977 C17.3138462,31.0346591 13.4738462,35.2089205 8.28923077,38.7833523 L58.6938462,38.7833523 C59.3492308,38.7833523 59.88,39.3126136 59.88,39.9676705 C59.88,40.6211932 59.3492308,41.1504545 58.6938462,41.1504545" id="Fill-473" fill="#516066"></path>
                    <path d="M65.84,53.6226136 C65.1846154,53.6226136 64.6538462,53.0933523 64.6538462,52.4398295 L64.6538462,39.9676705 C64.6538462,39.3126136 65.1846154,38.7833523 65.84,38.7833523 C66.4953846,38.7833523 67.0276923,39.3126136 67.0276923,39.9676705 L67.0276923,52.4398295 C67.0276923,53.0933523 66.4953846,53.6226136 65.84,53.6226136" id="Fill-474" fill="#516066"></path>
                    <path d="M17.6661538,53.6226136 C17.0107692,53.6226136 16.4784615,53.0933523 16.4784615,52.4398295 L16.4784615,39.9676705 C16.4784615,39.3126136 17.0107692,38.7833523 17.6661538,38.7833523 C18.3215385,38.7833523 18.8523077,39.3126136 18.8523077,39.9676705 L18.8523077,52.4398295 C18.8523077,53.0933523 18.3215385,53.6226136 17.6661538,53.6226136" id="Fill-475" fill="#516066"></path>
                    <path d="M79.3661538,19.4614773 L73.8476923,19.4614773 C73.1923077,19.4614773 72.66,18.9322159 72.66,18.2771591 C72.66,17.6236364 73.1923077,17.094375 73.8476923,17.094375 L75.1369231,17.094375 C69.9676923,13.4892614 66.1476923,8.86857955 64.9753846,7.36977273 L18.5538462,7.36977273 C18.1553846,7.90823864 17.4415385,8.825625 16.4307692,9.96085227 C15.9953846,10.4502273 15.2461538,10.4947159 14.7553846,10.0605682 C14.2646154,9.62642045 14.22,8.87778409 14.6553846,8.38840909 C16.1476923,6.71318182 16.9523077,5.535 16.96,5.52272727 C17.1815385,5.1975 17.5492308,5.00267045 17.9430769,5.00267045 L65.5630769,5.00267045 C65.94,5.00267045 66.2953846,5.18215909 66.5184615,5.484375 C66.5769231,5.56261364 72.3846154,13.3542614 79.9107692,17.2263068 C80.3969231,17.4763636 80.6492308,18.0271023 80.52,18.5563636 C80.3907692,19.0871591 79.9138462,19.4614773 79.3661538,19.4614773" id="Fill-476" fill="#516066"></path>
                    <path d="M69.0153846,19.4614773 L4.13984615,19.4614773 C3.59523077,19.4614773 3.12061538,19.0917614 2.98815385,18.5655682 C2.856,18.0378409 3.10015385,17.4901705 3.58030769,17.2339773 C5.83061538,16.0343182 8.03323077,14.5370455 10.1270769,12.7835795 C10.6289231,12.3632386 11.3784615,12.4276705 11.8,12.9277841 C12.2215385,13.4294318 12.1553846,14.1765341 11.6538462,14.596875 C10.5833846,15.4927841 9.48430769,16.3273295 8.36492308,17.094375 L69.0153846,17.094375 C69.6707692,17.094375 70.2030769,17.6236364 70.2030769,18.2771591 C70.2030769,18.9322159 69.6707692,19.4614773 69.0153846,19.4614773" id="Fill-477" fill="#516066"></path>
                    <path d="M65.84,29.6953977 C65.1846154,29.6953977 64.6538462,29.1661364 64.6538462,28.5110795 L64.6538462,18.2771591 C64.6538462,17.6236364 65.1846154,17.094375 65.84,17.094375 C66.4953846,17.094375 67.0276923,17.6236364 67.0276923,18.2771591 L67.0276923,28.5110795 C67.0276923,29.1661364 66.4953846,29.6953977 65.84,29.6953977" id="Fill-478" fill="#516066"></path>
                    <path d="M17.6661538,29.6953977 C17.0107692,29.6953977 16.4784615,29.1661364 16.4784615,28.5110795 L16.4784615,18.2771591 C16.4784615,17.6236364 17.0107692,17.094375 17.6661538,17.094375 C18.3215385,17.094375 18.8523077,17.6236364 18.8523077,18.2771591 L18.8523077,28.5110795 C18.8523077,29.1661364 18.3215385,29.6953977 17.6661538,29.6953977" id="Fill-479" fill="#516066"></path>
                    <path d="M17.6661538,7.36977273 C17.0107692,7.36977273 16.4784615,6.84051136 16.4784615,6.18545455 L16.4784615,3.22926136 C16.4784615,1.50340909 17.8876923,0.0997159091 19.6184615,0.0997159091 L46.1723077,0.0997159091 C46.8276923,0.0997159091 47.3584615,0.628977273 47.3584615,1.2825 C47.3584615,1.93602273 46.8276923,2.46681818 46.1723077,2.46681818 L19.6184615,2.46681818 C19.1969231,2.46681818 18.8523077,2.80892045 18.8523077,3.22926136 L18.8523077,6.18545455 C18.8523077,6.84051136 18.3215385,7.36977273 17.6661538,7.36977273" id="Fill-480" fill="#516066"></path>
                    <path d="M52.8846154,2.46681818 L52.7630769,2.46681818 C52.1076923,2.46681818 51.5753846,1.93602273 51.5753846,1.2825 C51.5753846,0.628977273 52.1076923,0.0997159091 52.7630769,0.0997159091 L52.8846154,0.0997159091 C53.54,0.0997159091 54.0707692,0.628977273 54.0707692,1.2825 C54.0707692,1.93602273 53.54,2.46681818 52.8846154,2.46681818" id="Fill-481" fill="#516066"></path>
                    <path d="M65.84,7.36977273 C65.1846154,7.36977273 64.6538462,6.84051136 64.6538462,6.18545455 L64.6538462,3.22926136 C64.6538462,2.80892045 64.3092308,2.46681818 63.8876923,2.46681818 L58.3384615,2.46681818 C57.6830769,2.46681818 57.1523077,1.93602273 57.1523077,1.2825 C57.1523077,0.628977273 57.6830769,0.0997159091 58.3384615,0.0997159091 L63.8876923,0.0997159091 C65.6184615,0.0997159091 67.0276923,1.50340909 67.0276923,3.22926136 L67.0276923,6.18545455 C67.0276923,6.84051136 66.4953846,7.36977273 65.84,7.36977273" id="Fill-482" fill="#516066"></path>
                    <path d="M38.5215385,32.4536932 L44.9846154,32.4536932 L44.9846154,24.5684659 L38.5215385,24.5684659 L38.5215385,32.4536932 Z M46.1723077,34.8223295 L37.3338462,34.8223295 C36.6784615,34.8223295 36.1476923,34.2915341 36.1476923,33.6380114 L36.1476923,23.3856818 C36.1476923,22.7321591 36.6784615,22.2013636 37.3338462,22.2013636 L46.1723077,22.2013636 C46.8276923,22.2013636 47.3584615,22.7321591 47.3584615,23.3856818 L47.3584615,33.6380114 C47.3584615,34.2915341 46.8276923,34.8223295 46.1723077,34.8223295 L46.1723077,34.8223295 Z" id="Fill-483" fill="#516066"></path>
                    <path d="M77.6184615,53.6226136 C76.9630769,53.6226136 76.4323077,53.0933523 76.4323077,52.4398295 L76.4323077,39.9676705 C76.4323077,39.3126136 76.9630769,38.7833523 77.6184615,38.7833523 C78.2753846,38.7833523 78.8061538,39.3126136 78.8061538,39.9676705 L78.8061538,52.4398295 C78.8061538,53.0933523 78.2753846,53.6226136 77.6184615,53.6226136" id="Fill-484" fill="#516066"></path>
                    <path d="M72.7830769,50.2077273 C72.1276923,50.2077273 71.5969231,49.6769318 71.5969231,49.0234091 L71.5969231,39.9676705 C71.5969231,39.3126136 72.1276923,38.7833523 72.7830769,38.7833523 C73.4384615,38.7833523 73.9707692,39.3126136 73.9707692,39.9676705 L73.9707692,49.0234091 C73.9707692,49.6769318 73.4384615,50.2077273 72.7830769,50.2077273" id="Fill-485" fill="#516066"></path>
                    <path d="M5.13692308,80.9877273 L1.98169231,80.9877273 C1.32615385,80.9877273 0.794769231,80.4569318 0.794769231,79.8034091 C0.794769231,79.1498864 1.32615385,78.620625 1.98169231,78.620625 L5.13692308,78.620625 C5.79246154,78.620625 6.324,79.1498864 6.324,79.8034091 C6.324,80.4569318 5.79246154,80.9877273 5.13692308,80.9877273" id="Fill-487" fill="#516066"></path>
                    <path d="M81.7061538,80.9877273 L72.6184615,80.9877273 C71.9630769,80.9877273 71.4323077,80.4569318 71.4323077,79.8034091 C71.4323077,79.1498864 71.9630769,78.620625 72.6184615,78.620625 L81.7061538,78.620625 C82.3615385,78.620625 82.8923077,79.1498864 82.8923077,79.8034091 C82.8923077,80.4569318 82.3615385,80.9877273 81.7061538,80.9877273" id="Fill-488" fill="#516066"></path>
                    <path d="M31.7061538,53.6226136 C31.0507692,53.6226136 30.52,53.0933523 30.52,52.4398295 L30.52,39.9676705 C30.52,39.3126136 31.0507692,38.7833523 31.7061538,38.7833523 C32.3630769,38.7833523 32.8938462,39.3126136 32.8938462,39.9676705 L32.8938462,52.4398295 C32.8938462,53.0933523 32.3630769,53.6226136 31.7061538,53.6226136" id="Fill-489" fill="#516066"></path>
                    <path d="M26.8707692,53.6226136 C26.2153846,53.6226136 25.6846154,53.0933523 25.6846154,52.4398295 L25.6846154,39.9676705 C25.6846154,39.3126136 26.2153846,38.7833523 26.8707692,38.7833523 C27.5261538,38.7833523 28.0584615,39.3126136 28.0584615,39.9676705 L28.0584615,52.4398295 C28.0584615,53.0933523 27.5261538,53.6226136 26.8707692,53.6226136" id="Fill-490" fill="#516066"></path>
                    <path d="M56.6353846,53.6226136 C55.98,53.6226136 55.4476923,53.0933523 55.4476923,52.4398295 L55.4476923,39.9676705 C55.4476923,39.3126136 55.98,38.7833523 56.6353846,38.7833523 C57.2907692,38.7833523 57.8215385,39.3126136 57.8215385,39.9676705 L57.8215385,52.4398295 C57.8215385,53.0933523 57.2907692,53.6226136 56.6353846,53.6226136" id="Fill-491" fill="#516066"></path>
                    <path d="M51.8,53.6226136 C51.1430769,53.6226136 50.6123077,53.0933523 50.6123077,52.4398295 L50.6123077,39.9676705 C50.6123077,39.3126136 51.1430769,38.7833523 51.8,38.7833523 C52.4553846,38.7833523 52.9861538,39.3126136 52.9861538,39.9676705 L52.9861538,52.4398295 C52.9861538,53.0933523 52.4553846,53.6226136 51.8,53.6226136" id="Fill-492" fill="#516066"></path>
                    <path d="M5.13692308,53.6226136 C4.48138462,53.6226136 3.94984615,53.0933523 3.94984615,52.4398295 L3.94984615,39.9676705 C3.94984615,39.3126136 4.48138462,38.7833523 5.13692308,38.7833523 C5.79246154,38.7833523 6.324,39.3126136 6.324,39.9676705 L6.324,52.4398295 C6.324,53.0933523 5.79246154,53.6226136 5.13692308,53.6226136" id="Fill-493" fill="#516066"></path>
                    <path d="M9.97276923,53.6226136 C9.31723077,53.6226136 8.78584615,53.0933523 8.78584615,52.4398295 L8.78584615,39.9676705 C8.78584615,39.3126136 9.31723077,38.7833523 9.97276923,38.7833523 C10.6283077,38.7833523 11.1598462,39.3126136 11.1598462,39.9676705 L11.1598462,52.4398295 C11.1598462,53.0933523 10.6283077,53.6226136 9.97276923,53.6226136" id="Fill-494" fill="#516066"></path>
                    <path d="M26.8707692,29.6953977 C26.2153846,29.6953977 25.6846154,29.1661364 25.6846154,28.5110795 L25.6846154,18.2771591 C25.6846154,17.6236364 26.2153846,17.094375 26.8707692,17.094375 C27.5261538,17.094375 28.0584615,17.6236364 28.0584615,18.2771591 L28.0584615,28.5110795 C28.0584615,29.1661364 27.5261538,29.6953977 26.8707692,29.6953977" id="Fill-495" fill="#516066"></path>
                    <path d="M31.7061538,26.1347727 C31.0507692,26.1347727 30.52,25.6055114 30.52,24.9519886 L30.52,18.2771591 C30.52,17.6236364 31.0507692,17.094375 31.7061538,17.094375 C32.3630769,17.094375 32.8938462,17.6236364 32.8938462,18.2771591 L32.8938462,24.9519886 C32.8938462,25.6055114 32.3630769,26.1347727 31.7061538,26.1347727" id="Fill-496" fill="#516066"></path>
                    <path d="M56.6353846,29.6953977 C55.98,29.6953977 55.4476923,29.1661364 55.4476923,28.5110795 L55.4476923,18.2771591 C55.4476923,17.6236364 55.98,17.094375 56.6353846,17.094375 C57.2907692,17.094375 57.8215385,17.6236364 57.8215385,18.2771591 L57.8215385,28.5110795 C57.8215385,29.1661364 57.2907692,29.6953977 56.6353846,29.6953977" id="Fill-497" fill="#516066"></path>
                    <path d="M51.8,29.6953977 C51.1430769,29.6953977 50.6123077,29.1661364 50.6123077,28.5110795 L50.6123077,18.2771591 C50.6123077,17.6236364 51.1430769,17.094375 51.8,17.094375 C52.4553846,17.094375 52.9861538,17.6236364 52.9861538,18.2771591 L52.9861538,28.5110795 C52.9861538,29.1661364 52.4553846,29.6953977 51.8,29.6953977" id="Fill-498" fill="#516066"></path>
                </g>
            </g>
        </g>
    </g>
</svg>