<?xml version="1.0" encoding="UTF-8"?>
<svg width="128px" height="128px" viewBox="0 0 128 128" version="1.1" xmlns="http://www.w3.org/2000/svg" xmlns:xlink="http://www.w3.org/1999/xlink">
    <!-- Generator: Sketch 53 (72520) - https://sketchapp.com -->
    <title>img-race-turkey</title>
    <desc>Created with Sketch.</desc>
    <g id="Symbols" stroke="none" stroke-width="1" fill="none" fill-rule="evenodd">
        <g id="image-/-race-/-turkey">
            <g>
                <circle id="Oval-Copy-25" stroke-opacity="0.32" stroke="#F0F8FF" stroke-width="2" fill-opacity="0.04" fill="#F0F8FF" cx="64" cy="64" r="63"></circle>
                <path d="M33,74 L34.8076172,67.1074675 C35.089238,47.0708811 35.5173457,37.0820586 36.0919401,37.141 C36.3458218,37.167043 37.2376243,37.3957431 37.67,41.3574219 C38.0341284,44.6937789 38.4047078,53.4314284 38.7817383,67.5703703 L41.0395508,73.693 L44.5390395,73.7106236 C44.1207606,49.3308745 44.6098633,37.141 46.0063477,37.141 C47.402832,37.141 48.4029878,49.3383745 49.0068149,73.7331236 L49.0068149,48.588 L53.115,48.588 C53.3802166,44.9394586 54.6545499,41.9154586 56.938,39.516 C59.2214501,37.1165414 62.5977834,35.2536021 67.067,33.9271821 C71.8327428,35.8072841 75.0770111,37.6702234 76.7998047,39.516 C78.5225983,41.3617766 79.9138744,44.3857766 80.9736328,48.588 L84.5161133,48.588 L87.628,33.9271821 L89.5428361,43.7720391 L89.5428361,73.9372651 L93.4500816,73.9569422 L95.1728516,69.8787021 L96.3286133,38.3939988 L98.6259766,38.3939988 L99.5878906,69.8787021 L102,74 L102,98 L33,98 L33,74 Z" id="Rectangle" fill="#838F93"></path>
                <path d="M23.2082344,100 C22.5406496,100 22,99.5528192 22,99.0006481 C22,98.448477 22.5406496,98 23.2082344,98 L111.790198,98 C112.457783,98 113,98.448477 113,99.0006481 C113,99.5528192 112.457783,100 111.790198,100 L23.2082344,100 Z" id="Fill-704" fill="#516066"></path>
                <g id="hagia-sophia" transform="translate(31.000000, 28.000000)" fill="#516066">
                    <path d="M71.4218906,45.1667812 L69.5062969,41.3355937 L69.5062969,36.0351562 L71.2624219,36.0351562 L71.2624219,33.9278906 L69.5062969,33.9278906 L69.5062969,29.5727344 L71.2624219,29.5727344 L71.2624219,27.4654687 L69.5062969,27.4654687 L69.5062969,23.1103125 L71.2624219,23.1103125 L71.2624219,21.0030469 L69.5062969,21.0030469 L69.5062969,15.6290625 L66.3453281,0.034875 L63.1843594,15.6290625 L63.1843594,41.3357344 L61.2687656,45.1667812 L59.4964687,45.1667812 L59.4964687,36.0351562 L60.8311406,36.0351562 L60.8311406,33.9278906 L59.4964687,33.9278906 L59.4964687,29.5727344 L60.8311406,29.5727344 L60.8311406,27.4654687 L59.4964687,27.4654687 L59.4964687,23.1103125 L60.8311406,23.1103125 L60.8311406,21.0030469 L59.4964687,21.0030469 L59.4964687,15.6290625 L56.3356406,0.034875 L53.1746719,15.6290625 L53.1746719,19.8323437 L50.9596875,19.8323437 C50.4426094,12.3661406 44.4753281,6.3765 37.0185469,5.82539062 L37.0185469,0 L34.9112812,0 L34.9112812,5.81625 C27.3891094,6.30225 21.3498281,12.3193125 20.8296562,19.8322031 L18.6146719,19.8322031 L18.6146719,15.6289219 L15.4537031,0.034734375 L12.2927344,15.6287812 L12.2927344,21.0029062 L10.5366094,21.0029062 L10.5366094,23.1101719 L12.2927344,23.1101719 L12.2927344,27.4653281 L10.5366094,27.4653281 L10.5366094,29.5725937 L12.2927344,29.5725937 L12.2927344,33.92775 L10.5366094,33.92775 L10.5366094,36.0350156 L12.2927344,36.0350156 L12.2927344,45.1667812 L10.6609219,45.1667812 L8.74532812,41.3355937 L8.74532812,15.6289219 L5.58435937,0.034875 L2.42339062,15.6289219 L2.42339062,21.0029062 L0.667265625,21.0029062 L0.667265625,23.1101719 L2.42339062,23.1101719 L2.42339062,27.4653281 L0.667265625,27.4653281 L0.667265625,29.5725937 L2.42339062,29.5725937 L2.42339062,33.92775 L0.667265625,33.92775 L0.667265625,36.0350156 L2.42339062,36.0350156 L2.42339062,41.3354531 L0.507796875,45.1667812 L0.0703125,45.1667812 L0.0703125,72 L71.9296875,72 L71.9296875,45.1667812 L71.4218906,45.1667812 Z M65.2917656,15.8402813 L66.3454687,10.6422188 L67.3991719,15.8402813 L67.3991719,21.0029063 L65.2919062,21.0029063 L65.2919062,15.8402813 L65.2917656,15.8402813 Z M65.2917656,23.1103125 L67.3990312,23.1103125 L67.3990312,27.4654687 L65.2917656,27.4654687 L65.2917656,23.1103125 Z M65.2917656,29.5727344 L67.3990312,29.5727344 L67.3990312,33.9278906 L65.2917656,33.9278906 L65.2917656,29.5727344 Z M65.2917656,41.833125 L65.2917656,36.0351562 L67.3990313,36.0351562 L67.3990313,41.8332656 L69.0658594,45.1669219 L63.6247969,45.1669219 L65.2917656,41.833125 Z M55.2819375,15.8402813 L56.3356406,10.6422188 L57.3893437,15.8402813 L57.3893437,21.0029063 L55.2820781,21.0029063 L55.2820781,15.8402813 L55.2819375,15.8402813 Z M55.2819375,23.1103125 L57.3892031,23.1103125 L57.3892031,27.4654687 L55.2819375,27.4654687 L55.2819375,23.1103125 Z M55.2819375,29.5727344 L57.3892031,29.5727344 L57.3892031,33.9278906 L55.2819375,33.9278906 L55.2819375,29.5727344 Z M55.2819375,36.0351562 L57.3892031,36.0351562 L57.3892031,45.1669219 L55.4845781,45.1669219 C55.43775,44.8517812 55.3689844,44.5445156 55.2817969,44.2452656 L55.2817969,36.0351562 L55.2819375,36.0351562 Z M53.3476406,45.1667812 L43.0270312,45.1667812 C43.5106406,42.8639062 45.568125,41.2330781 48.1872656,41.2330781 C50.8062656,41.2332187 52.8641719,42.8639062 53.3476406,45.1667812 Z M35.8243594,39.5472656 C34.0813125,39.5472656 32.6633906,40.9651875 32.6633906,42.7082344 L32.6633906,45.1667813 L31.0397344,45.1667813 C30.5253281,41.7055781 27.5052656,39.1258125 23.7424219,39.1258125 C23.5289531,39.1258125 23.3185781,39.1360781 23.1101719,39.1523906 L23.1101719,33.6467813 L48.6788906,33.6467813 L48.6788906,39.1424063 C48.5163281,39.1325625 48.3527812,39.1258125 48.187125,39.1258125 C44.4242812,39.1258125 41.4042187,41.7055781 40.8898125,45.1667813 L38.9851875,45.1667813 L38.9851875,42.7082344 C38.9853281,40.9653281 37.5674062,39.5472656 35.8243594,39.5472656 Z M36.8780625,42.7082344 L36.8780625,45.1667812 L34.7707969,45.1667812 L34.7707969,42.7082344 C34.7707969,42.1271719 35.2434375,41.6545312 35.8245,41.6545312 C36.4055625,41.6545312 36.8780625,42.1271719 36.8780625,42.7082344 Z M26.2492031,31.5395156 C27.4553438,29.6149219 29.199375,28.116 31.2308438,27.2025 C30.4934063,28.3682812 29.8837969,29.8320469 29.4429375,31.5395156 L26.2492031,31.5395156 Z M31.6286719,31.5395156 C32.3746875,28.9842188 33.5529844,27.1390781 34.8409687,26.4733594 L34.8409687,31.5395156 L31.6286719,31.5395156 Z M36.9482344,31.5395156 L36.9482344,26.4733594 C38.2362187,27.1390781 39.4146562,28.9842187 40.1605312,31.5395156 L36.9482344,31.5395156 Z M40.5583594,27.2025 C42.5899687,28.116 44.334,29.6149219 45.54,31.5395156 L42.346125,31.5395156 C41.9055469,29.8320469 41.2957969,28.3682812 40.5583594,27.2025 Z M35.8946719,7.89075 C42.7055625,7.89075 48.3094687,13.1574375 48.8475,19.8322031 L22.9418438,19.8322031 C23.479875,13.1575781 29.0837813,7.89075 35.8946719,7.89075 Z M18.6146719,21.9396094 L20.79225,21.9396094 L50.9970937,21.9396094 L53.1746719,21.9396094 L53.1746719,40.9509844 C52.4885625,40.3516406 51.6803906,39.8782969 50.7864375,39.5638594 L50.7864375,31.5396562 L47.9527031,31.5396562 C45.6742969,26.9947969 41.016375,24.0938437 35.8948125,24.0938437 C30.77325,24.0938437 26.1151875,26.9947969 23.8369219,31.5396562 L21.0031875,31.5396562 L21.0031875,39.6163125 C20.1033281,39.95325 19.2951562,40.4526094 18.6146719,41.0797969 L18.6146719,21.9396094 L18.6146719,21.9396094 Z M23.7424219,41.2332187 C26.3617031,41.2332187 28.4193281,42.8640469 28.9026562,45.1669219 L18.5820469,45.1669219 C19.0656562,42.8639062 21.1231406,41.2332187 23.7424219,41.2332187 Z M14.4,15.8402813 L15.4537031,10.6422188 L16.5074062,15.8402813 L16.5074062,21.0029063 L14.4,21.0029063 L14.4,15.8402813 Z M14.4,23.1103125 L16.5072656,23.1103125 L16.5072656,27.4654687 L14.4,27.4654687 L14.4,23.1103125 Z M14.4,29.5727344 L16.5072656,29.5727344 L16.5072656,33.9278906 L14.4,33.9278906 L14.4,29.5727344 Z M14.4,36.0351562 L16.5072656,36.0351562 L16.5072656,44.6751562 L16.5370781,44.6751562 C16.5009375,44.8370156 16.4697188,45.0007031 16.4451094,45.1669219 L14.4,45.1669219 L14.4,36.0351562 Z M4.53079687,15.8402813 L5.5845,10.6422188 L6.63820312,15.8402813 L6.63820312,21.0029063 L4.53079687,21.0029063 L4.53079687,15.8402813 Z M4.53079687,23.1103125 L6.6380625,23.1103125 L6.6380625,27.4654687 L4.53079687,27.4654687 L4.53079687,23.1103125 Z M4.53079687,29.5727344 L6.6380625,29.5727344 L6.6380625,33.9278906 L4.53079687,33.9278906 L4.53079687,29.5727344 Z M4.53079688,41.833125 L4.53079688,36.0351562 L6.6380625,36.0351562 L6.6380625,41.8332656 L8.30489062,45.1669219 L2.86382813,45.1669219 L4.53079688,41.833125 Z M22.8292031,69.8927344 L2.17757813,69.8927344 L2.17757813,47.2741875 L16.3667812,47.2741875 L22.8292031,47.2741875 L22.8292031,69.8927344 Z M47.2741875,69.8927344 L24.9366094,69.8927344 L24.9366094,47.2741875 L31.1180625,47.2741875 L32.6633906,47.2741875 L38.9853281,47.2741875 L40.811625,47.2741875 L47.2741875,47.2741875 L47.2741875,69.8927344 L47.2741875,69.8927344 Z M69.8224219,69.8927344 L49.3814531,69.8927344 L49.3814531,47.2741875 L55.5629062,47.2741875 L69.8224219,47.2741875 L69.8224219,69.8927344 Z" id="Shape" fill-rule="nonzero"></path>
                    <path d="M7.58629688,50.083875 C5.84325,50.083875 4.42532812,51.5017969 4.42532812,53.2448437 L4.42532812,57.8106562 L10.7472656,57.8106562 L10.7472656,53.2448437 C10.7472656,51.5017969 9.32934375,50.083875 7.58629688,50.083875 Z M8.64,55.7033906 L6.53273437,55.7033906 L6.53273437,53.2448437 C6.53273437,52.6637812 7.005375,52.1911406 7.5864375,52.1911406 C8.1675,52.1911406 8.64014063,52.6637812 8.64014063,53.2448437 L8.64014063,55.7033906 L8.64,55.7033906 Z" id="Shape" fill-rule="nonzero"></path>
                    <path d="M7.58629688,59.9180625 C5.84325,59.9180625 4.42532812,61.3359844 4.42532812,63.0790312 L4.42532812,67.6448438 L10.7472656,67.6448438 L10.7472656,63.0790312 C10.7472656,61.3359844 9.32934375,59.9180625 7.58629688,59.9180625 Z M8.64,65.5375781 L6.53273437,65.5375781 L6.53273437,63.0790312 C6.53273437,62.4979687 7.005375,62.0253281 7.5864375,62.0253281 C8.1675,62.0253281 8.64014063,62.4979687 8.64014063,63.0790312 L8.64014063,65.5375781 L8.64,65.5375781 Z" id="Shape" fill-rule="nonzero"></path>
                    <path d="M15.7346719,50.083875 C13.991625,50.083875 12.5737031,51.5017969 12.5737031,53.2448437 L12.5737031,57.8106562 L18.8956406,57.8106562 L18.8956406,53.2448437 C18.8956406,51.5017969 17.4777188,50.083875 15.7346719,50.083875 Z M16.7882344,55.7033906 L14.6809687,55.7033906 L14.6809687,53.2448437 C14.6809687,52.6637812 15.1536094,52.1911406 15.7346719,52.1911406 C16.3157344,52.1911406 16.788375,52.6637812 16.788375,53.2448437 L16.788375,55.7033906 L16.7882344,55.7033906 Z" id="Shape" fill-rule="nonzero"></path>
                    <path d="M15.7346719,59.9180625 C13.991625,59.9180625 12.5737031,61.3359844 12.5737031,63.0790312 L12.5737031,67.6448438 L18.8956406,67.6448438 L18.8956406,63.0790312 C18.8956406,61.3359844 17.4777188,59.9180625 15.7346719,59.9180625 Z M16.7882344,65.5375781 L14.6809687,65.5375781 L14.6809687,63.0790312 C14.6809687,62.4979687 15.1536094,62.0253281 15.7346719,62.0253281 C16.3157344,62.0253281 16.788375,62.4979687 16.788375,63.0790312 L16.788375,65.5375781 L16.7882344,65.5375781 Z" id="Shape" fill-rule="nonzero"></path>
                    <path d="M32.0312812,50.083875 C30.2882344,50.083875 28.8703125,51.5017969 28.8703125,53.2448437 L28.8703125,57.8106562 L35.19225,57.8106562 L35.19225,53.2448437 C35.19225,51.5017969 33.7741875,50.083875 32.0312812,50.083875 Z M33.0848437,55.7033906 L30.9775781,55.7033906 L30.9775781,53.2448437 C30.9775781,52.6637812 31.4502187,52.1911406 32.0312812,52.1911406 C32.6123437,52.1911406 33.0849844,52.6637812 33.0849844,53.2448437 L33.0849844,55.7033906 L33.0848437,55.7033906 Z" id="Shape" fill-rule="nonzero"></path>
                    <path d="M32.0312812,59.9180625 C30.2882344,59.9180625 28.8703125,61.3359844 28.8703125,63.0790312 L28.8703125,67.6448438 L35.19225,67.6448438 L35.19225,63.0790312 C35.19225,61.3359844 33.7741875,59.9180625 32.0312812,59.9180625 Z M33.0848437,65.5375781 L30.9775781,65.5375781 L30.9775781,63.0790312 C30.9775781,62.4979687 31.4502187,62.0253281 32.0312812,62.0253281 C32.6123437,62.0253281 33.0849844,62.4979687 33.0849844,63.0790312 L33.0849844,65.5375781 L33.0848437,65.5375781 Z" id="Shape" fill-rule="nonzero"></path>
                    <path d="M40.1795156,50.083875 C38.4364687,50.083875 37.0185469,51.5017969 37.0185469,53.2448437 L37.0185469,57.8106562 L43.3404844,57.8106562 L43.3404844,53.2448437 C43.3404844,51.5017969 41.9225625,50.083875 40.1795156,50.083875 Z M41.2332187,55.7033906 L39.1259531,55.7033906 L39.1259531,53.2448437 C39.1259531,52.6637812 39.5985937,52.1911406 40.1796562,52.1911406 C40.7607187,52.1911406 41.2333594,52.6637812 41.2333594,53.2448437 L41.2333594,55.7033906 L41.2332187,55.7033906 Z" id="Shape" fill-rule="nonzero"></path>
                    <path d="M40.1795156,59.9180625 C38.4364687,59.9180625 37.0185469,61.3359844 37.0185469,63.0790312 L37.0185469,67.6448438 L43.3404844,67.6448438 L43.3404844,63.0790312 C43.3404844,61.3359844 41.9225625,59.9180625 40.1795156,59.9180625 Z M41.2332187,65.5375781 L39.1259531,65.5375781 L39.1259531,63.0790312 C39.1259531,62.4979687 39.5985937,62.0253281 40.1796562,62.0253281 C40.7607187,62.0253281 41.2333594,62.4979687 41.2333594,63.0790312 L41.2333594,65.5375781 L41.2332187,65.5375781 Z" id="Shape" fill-rule="nonzero"></path>
                    <path d="M56.476125,50.083875 C54.7330781,50.083875 53.3151562,51.5017969 53.3151562,53.2448437 L53.3151562,57.8106562 L59.6370937,57.8106562 L59.6370937,53.2448437 C59.6370937,51.5017969 58.2191719,50.083875 56.476125,50.083875 Z M57.5296875,55.7033906 L55.4224219,55.7033906 L55.4224219,53.2448437 C55.4224219,52.6637812 55.8950625,52.1911406 56.476125,52.1911406 C57.0571875,52.1911406 57.5298281,52.6637812 57.5298281,53.2448437 L57.5298281,55.7033906 L57.5296875,55.7033906 Z" id="Shape" fill-rule="nonzero"></path>
                    <path d="M56.476125,59.9180625 C54.7330781,59.9180625 53.3151562,61.3359844 53.3151562,63.0790312 L53.3151562,67.6448438 L59.6370937,67.6448438 L59.6370937,63.0790312 C59.6370937,61.3359844 58.2191719,59.9180625 56.476125,59.9180625 Z M57.5296875,65.5375781 L55.4224219,65.5375781 L55.4224219,63.0790312 C55.4224219,62.4979687 55.8950625,62.0253281 56.476125,62.0253281 C57.0571875,62.0253281 57.5298281,62.4979687 57.5298281,63.0790312 L57.5298281,65.5375781 L57.5296875,65.5375781 Z" id="Shape" fill-rule="nonzero"></path>
                    <path d="M64.6243594,50.083875 C62.8813125,50.083875 61.4633906,51.5017969 61.4633906,53.2448437 L61.4633906,57.8106562 L67.7853281,57.8106562 L67.7853281,53.2448437 C67.7853281,51.5017969 66.3674063,50.083875 64.6243594,50.083875 Z M65.6780625,55.7033906 L63.5707969,55.7033906 L63.5707969,53.2448437 C63.5707969,52.6637812 64.0434375,52.1911406 64.6245,52.1911406 C65.2055625,52.1911406 65.6782031,52.6637812 65.6782031,53.2448437 L65.6782031,55.7033906 L65.6780625,55.7033906 Z" id="Shape" fill-rule="nonzero"></path>
                    <path d="M64.6243594,59.9180625 C62.8813125,59.9180625 61.4633906,61.3359844 61.4633906,63.0790312 L61.4633906,67.6448438 L67.7853281,67.6448438 L67.7853281,63.0790312 C67.7853281,61.3359844 66.3674063,59.9180625 64.6243594,59.9180625 Z M65.6780625,65.5375781 L63.5707969,65.5375781 L63.5707969,63.0790312 C63.5707969,62.4979687 64.0434375,62.0253281 64.6245,62.0253281 C65.2055625,62.0253281 65.6782031,62.4979687 65.6782031,63.0790312 L65.6782031,65.5375781 L65.6780625,65.5375781 Z" id="Shape" fill-rule="nonzero"></path>
                    <polygon id="Path" points="20.79225 24.046875 20.79225 27.9102656 22.8995156 27.9102656 22.8995156 26.1541406 24.6556406 26.1541406 24.6556406 24.046875"></polygon>
                    <polygon id="Path" points="47.1337031 24.046875 47.1337031 26.1541406 48.8896875 26.1541406 48.8896875 27.9102656 50.9970937 27.9102656 50.9970937 24.046875"></polygon>
                    <path d="M35.8946719,9.99815625 L35.8946719,12.1054219 C38.0459531,12.1054219 40.1172187,12.8946094 41.7266719,14.328 L43.128,12.754125 C41.1319687,10.9767656 38.5631719,9.99815625 35.8946719,9.99815625 Z" id="Path"></path>
                    <rect id="Rectangle" x="39.5472656" y="35.7541875" width="2.10726563" height="2.10726562"></rect>
                    <rect id="Rectangle" x="25.0067812" y="35.7541875" width="2.10726563" height="2.10726562"></rect>
                    <rect id="Rectangle" x="44.3941875" y="35.7541875" width="2.10726562" height="2.10726562"></rect>
                    <rect id="Rectangle" x="29.8537031" y="35.7541875" width="2.10726563" height="2.10726562"></rect>
                    <rect id="Rectangle" x="34.7004844" y="35.7541875" width="2.10726562" height="2.10726562"></rect>
                    <rect id="Rectangle" x="42.7785469" y="16.3667812" width="2.10726562" height="2.10726563"></rect>
                    <rect id="Rectangle" x="26.7629063" y="16.3667812" width="2.10726563" height="2.10726563"></rect>
                    <rect id="Rectangle" x="37.44" y="16.3667812" width="2.10726563" height="2.10726563"></rect>
                    <rect id="Rectangle" x="32.1014531" y="16.3667812" width="2.10726563" height="2.10726563"></rect>
                </g>
            </g>
        </g>
    </g>
</svg>