<?xml version="1.0" encoding="UTF-8"?>
<svg width="128px" height="128px" viewBox="0 0 128 128" version="1.1" xmlns="http://www.w3.org/2000/svg" xmlns:xlink="http://www.w3.org/1999/xlink">
    <!-- Generator: Sketch 53 (72520) - https://sketchapp.com -->
    <title>img-race-denmark</title>
    <desc>Created with Sketch.</desc>
    <g id="Symbols" stroke="none" stroke-width="1" fill="none" fill-rule="evenodd">
        <g id="image-/-race-/-denmark">
            <g>
                <circle id="Oval-Copy-22" stroke-opacity="0.32" stroke="#F0F8FF" stroke-width="2" fill-opacity="0.04" fill="#F0F8FF" cx="64" cy="64" r="63"></circle>
                <g id="Group-46" transform="translate(23.000000, 28.000000)">
                    <path d="M70.6085333,66.5926491 C76.534565,66.5652084 79.1218511,56.8605931 79.1062595,53.1754091 C79.0924341,50.4213636 77.5341884,48.7950784 76.2825165,47.4882523 C76.2595017,47.4648849 76.2379608,47.4406285 76.214946,47.417261 C76.288311,47.7928077 76.3614009,48.1997279 76.4318595,48.6424629 C77.3525563,54.4243563 72.233263,57.6759404 69.3968708,58.5872748 C69.1624951,58.6631934 68.9186599,58.7015291 68.6727372,58.7028691 L68.1534684,58.7049747 C67.010841,58.7095478 66.024875,57.9119273 65.7879768,56.7924015 C65.5164755,55.5095191 64.3351956,54.5397647 63.0067995,54.5456397 C61.6719168,54.5524068 60.5110171,55.5082576 60.2458676,56.8178226 C60.0186381,57.9394189 59.0372227,58.7477599 57.8969547,58.7529235 L57.668724,58.7536604 C56.526979,58.7546813 55.5486794,57.9564639 55.3135522,56.8398967 C55.0417568,55.5581984 53.86431,54.5881456 52.5320808,54.594319 C51.1971981,54.6010861 50.0354128,55.5554576 49.771443,56.8653178 C49.5448018,57.984546 48.5683992,58.7928837 47.4299023,58.801006 L47.2128769,58.8020317 C46.0702527,58.8116365 45.0760291,58.0119494 44.8388335,56.8885761 C44.6726214,56.1049378 44.1750379,55.4245096 43.4723969,55.0197649 C43.347326,54.9482182 43.2308005,54.8674908 43.1231147,54.7763987 C42.9818668,54.7699769 42.8426747,54.7502349 42.7025906,54.7189504 C42.4749164,54.6670032 42.2643618,54.641979 42.0585418,54.6432936 C40.7227735,54.6485813 39.5618738,55.6044321 39.2967243,56.9139971 C39.0686124,58.0391458 38.0845436,58.8480803 36.9401451,58.8496949 L36.7195807,58.8498349 C35.5801951,58.8514463 34.6007158,58.0529337 34.3644089,56.9360713 C34.0926135,55.6543729 32.9128074,54.6837297 31.5829375,54.6904936 C30.2480548,54.6972606 29.0874492,55.6519274 28.8222997,56.9614924 C28.5956617,58.0857521 27.6115928,58.8946867 26.4695537,58.8968917 L26.2949903,58.8984824 C25.1514805,58.9066078 24.1271799,58.1069398 23.8896902,56.9847506 C23.6181889,55.7018682 22.4380887,54.732409 21.1093985,54.7394681 C19.8600279,54.744997 18.7465333,55.5907147 18.4031772,56.7964419 C18.2178143,57.4417867 17.7758451,57.9801512 17.1803945,58.2839044 C16.58347,58.5885465 15.8908396,58.6277591 15.2620283,58.399961 C11.0942219,56.8676772 9.39831035,52.4966004 9.24269004,49.8039119 C7.86753176,52.3436649 6.97554878,56.0960197 7.83698749,60.4921923 C8.70552961,64.930389 13.8503062,66.554989 14.9350319,66.8490921 L70.6085333,66.5926491 Z M10.5221683,33.9388 C11.0412255,34.0686998 11.6889465,34.3565689 12.278494,34.9795195 C12.0321583,33.8576318 11.6254296,33.6992471 11.2266644,33.544113 C10.7338131,33.3541136 10.0845112,33.3651809 9.45857529,33.4890003 C9.48488886,33.5999745 9.50294788,33.7139136 9.51304647,33.8296337 C9.83769423,33.8190685 10.1741641,33.8517081 10.5221683,33.9388 Z M40.8194579,49.9161639 L40.8115198,48.0817113 C36.7554661,48.4148915 33.6332064,49.1100491 31.2938713,49.8665686 C31.3826252,49.8623686 31.4707909,49.8605367 31.5610218,49.8604794 C32.1985332,49.8565229 32.8346216,49.9339607 33.4492325,50.0877738 C34.7244615,50.4069139 35.8760498,51.0522977 36.8086933,51.9283857 C37.9014247,50.8888171 39.2936549,50.1719678 40.8194579,49.9161639 Z M27.9498974,16.9206727 C26.670273,18.985028 20.1273571,30.691767 24.9925848,47.2733824 C27.9329233,45.6661431 33.2470294,43.6631569 41.9569443,43.1577236 C42.3320081,43.1358792 42.7173949,43.117876 43.1086801,43.1013489 C43.3604948,43.0914218 43.6082076,43.1232299 43.8491586,43.1873037 C44.0805835,43.1081312 44.3273632,43.0629862 44.584488,43.0569034 C49.5668809,42.9542921 55.0564716,43.3471181 60.9624345,44.2277437 C58.8671077,40.5415123 56.7166366,34.9788299 56.9985199,27.9370921 C57.2150841,22.5253342 58.2245034,18.8954388 59.4068878,16.4709428 L44.5017248,16.5390098 C44.2569818,16.5406451 44.016638,16.5043927 43.7871832,16.4343921 C43.5587028,16.5067552 43.317521,16.5444973 43.072778,16.5461326 L28.359282,16.6143739 L27.9498974,16.9206727 Z M83.918267,53.1534113 C83.9391957,57.8209354 80.7094517,71.3780829 70.6313346,71.4241426 L14.6567694,71.6819606 C14.4886927,71.6826593 14.3082182,71.6626475 14.1436582,71.6290107 C14.1436582,71.6290107 14.0625579,71.6124876 13.9127392,71.5749938 L13.9115595,71.5746986 C12.3650051,71.1876563 4.57243302,68.8777779 3.11342546,61.4242593 C1.71476843,54.2826609 4.00716725,48.2974639 6.61741235,45.0782543 C8.04996799,43.3112575 9.22353179,40.9273157 9.0018417,39.1412429 C8.93699761,39.1853845 8.87510112,39.2277483 8.82057364,39.2656678 C7.82846189,39.9455621 6.59200591,40.7919498 5.087047,40.4341828 L4.97940242,40.4085012 C1.84736442,39.6246743 1.3426466,37.4495731 1.32652125,36.1928704 C0.572233071,35.2494827 0.00931711041,33.8383318 0.35430405,31.9450519 C0.587624543,30.6627369 1.79222294,29.7983148 3.07651281,29.9901796 C3.76923196,30.0918514 4.68099415,30.1187982 5.03597813,30.0516823 C5.80001454,29.6190726 8.98065876,27.9877067 12.1634228,28.7842284 C12.4382872,28.8530162 12.7102134,28.9386765 12.9706497,29.0403268 C17.1399902,30.667322 17.2511554,34.8757304 17.3121448,37.1372423 C17.3665176,39.1933512 16.4187371,41.9042028 15.4138518,44.7743256 C14.8590151,46.3572602 14.0224967,48.7513471 14.0444689,49.4598991 C14.0691168,50.2030785 14.4149916,51.5900971 15.2737397,52.6526967 C16.6238322,51.0461712 18.6085591,50.0172832 20.7687302,49.9164638 C14.0522376,29.0343125 23.7526356,14.5031441 24.1812804,13.8771792 C24.3306433,13.6592462 24.5133439,13.4685219 24.7243726,13.3100409 L26.1134491,12.2679162 C26.5263696,11.9574715 27.0269563,11.7884475 27.5435716,11.7869356 L40.6450056,11.7265253 L40.6066379,3.25010049 C40.5996051,1.91643828 41.6728449,0.829229915 43.001241,0.823354883 L44.4301878,0.816232104 C45.0685848,0.813754933 45.681488,1.06524113 46.1346958,1.51572442 C46.5887891,1.96768703 46.8451243,2.58019405 46.8475922,3.22097995 L46.8859598,11.6974047 L64.5735299,11.616324 C65.7819123,11.6093413 66.9374669,12.4657533 67.098047,13.6705686 C67.2544839,14.8517084 66.6527376,15.9273703 65.5256522,16.2628345 C65.0900142,16.5537593 62.1798898,18.8464592 61.8083044,28.1308621 C61.3722633,39.011503 67.9988022,45.8289444 68.0657813,45.8972723 C68.8102174,46.648282 68.9831508,47.8033655 68.486291,48.7392603 C67.9894312,49.6751551 66.9467861,50.1801597 65.9092981,49.9783711 C59.0509099,48.649355 52.721327,47.9456959 47.0520689,47.8776694 L47.0686223,51.6850907 C47.1417907,51.7486791 47.2134853,51.8131562 47.2848858,51.8788175 C48.6617033,50.5682507 50.513295,49.7726762 52.5092795,49.7628256 C54.4725336,49.7535877 56.3737722,50.5337565 57.7578366,51.8322112 C59.1346541,50.5216443 60.9880137,49.7239969 62.9837041,49.7153303 C63.6223952,49.7116691 64.2573039,49.7888116 64.8730945,49.9429199 C66.7841685,50.4211872 68.4164609,51.6333554 69.454549,53.2552352 C70.6206137,52.5408974 71.9788886,51.2848018 71.6789983,49.4049544 C71.2831864,46.9175296 70.8712633,46.0032261 70.4743977,45.1191026 C70.0491851,44.1725462 69.609209,43.1946258 69.3676159,41.1759287 C69.02227,38.2886086 70.0629839,36.590823 70.9959724,35.6747776 C72.5537036,34.1453699 74.9253109,33.5969009 78.045637,34.0445068 C78.3614737,34.0895906 78.668768,34.1488866 78.9589681,34.2215124 C81.4044351,34.8335173 82.4527351,36.2831329 82.9007541,37.3900936 C83.7037617,39.3732132 83.1071059,41.507873 82.351825,42.7325082 C81.8442784,43.5550511 81.0136934,44.134507 80.0800525,44.4831673 C81.5722173,46.0627303 83.8993059,48.8008042 83.918267,53.1534113 Z" id="Shape" fill="#516066"></path>
                    <polygon id="Fill-108" fill="#838F93" points="44.6805906 55.6491301 43.2519379 55.6550688 43.0127888 3.23850957 44.4414414 3.23257088"></polygon>
                    <path d="M77.644114,45.4217731 C78.9403639,46.8114441 81.493029,49.0802532 81.5121161,53.1650022 C81.5312032,57.2497513 78.6683035,68.9719122 70.6200811,69.0078038 C66.8628294,69.0258761 54.4112919,69.082914 42.2042033,69.1395007 L42.1460525,56.4096212 C55.1961785,56.3489475 68.6626633,56.2868256 68.6626633,56.2868256 C68.6626633,56.2868256 74.8938227,54.284441 74.0554289,49.0237086 C73.2170351,43.7629762 72.1803867,44.4254362 71.75708,40.8884989 C71.3340674,37.3503776 73.5655955,35.8424442 77.7047971,36.4356152 C81.8451785,37.0290815 80.9791793,40.3691256 80.3057892,41.4608157 C79.632105,42.5536899 76.5141398,43.0449175 75.964649,41.4132562 C75.4151582,39.7815948 76.6335622,39.3004526 76.6335622,39.3004526 C76.6335622,39.3004526 77.1158432,40.9656019 78.0982686,40.8240936 C79.0815796,40.6840647 78.7994248,38.4049347 77.0697084,38.4122485 C75.3408775,38.4210415 74.80315,39.5466827 74.978465,40.7375778 C75.1528944,41.9269935 76.3502235,44.0326926 77.644114,45.4217731 Z" id="Fill-109" fill="#838F93"></path>
                    <path d="M18.3856049,56.5191238 C20.5797432,56.5085554 32.4330212,56.4603647 43.361842,56.4096212 L43.4199928,69.1395007 C29.4820081,69.203106 14.6452217,69.2668059 14.6452217,69.2668059 C14.6452217,69.2668059 6.77106647,67.5779363 5.47446957,60.9586703 C4.1781668,54.3382201 6.41563457,49.1542643 8.4840305,46.60312 C10.5512467,44.0516805 12.2983453,40.2768806 10.973398,37.3330592 C9.64845066,34.3892379 6.95407359,38.3960923 5.64081033,38.0837838 C4.32843262,37.7729547 3.7377562,37.2302142 3.73382638,36.141322 C3.73382638,36.141322 5.94919563,36.1310361 6.57996361,35.7204132 C7.21102572,35.3086063 7.11439149,34.0380438 7.11439149,34.0380438 C7.11439149,34.0380438 5.84750898,33.8618547 3.91050103,35.2787365 C3.91050103,35.2787365 2.32481444,34.5599303 2.72122271,32.3789294 C2.72122271,32.3789294 5.22079619,32.7529355 6.13396482,32.2042087 C7.1249508,31.6095561 9.85678165,30.4179991 12.0980673,31.2920723 C14.3405325,32.1664407 14.8241867,34.1388119 14.9066171,37.2018125 C14.9878679,40.2645178 11.5598548,47.0886391 11.6392449,49.5383799 C11.7183409,51.9893048 13.5697643,56.54142 18.3856049,56.5191238 Z" id="Fill-110" fill="#838F93"></path>
                    <path d="M15.8842976,57.6048711 C15.8712626,54.7013574 18.2051616,52.3373972 21.0966711,52.3240182 L21.1451689,62.8379881 C18.2524797,62.8510173 15.8973325,60.5083848 15.8842976,57.6048711 Z" id="Fill-111" fill="#838F93"></path>
                    <path d="M21.1451689,62.8379335 L21.0966711,52.3239534 C23.9896544,52.3097504 26.3459813,54.6526781 26.3590163,57.5561918 C26.3720512,60.4597055 24.0381523,62.8236657 21.1451689,62.8379335 Z" id="Fill-112" fill="#838F93"></path>
                    <path d="M26.3590163,57.5561918 C26.3459813,54.6526781 28.6798803,52.2887179 31.5713898,52.2753389 L31.6198876,62.7893087 C28.7271984,62.802338 26.3720512,60.4597055 26.3590163,57.5561918 Z" id="Fill-113" fill="#838F93"></path>
                    <path d="M31.5713898,52.2752844 C34.464079,52.2622551 36.8204059,54.6051828 36.8334408,57.5086965 C36.8467699,60.4110262 34.5125768,62.7761705 31.6198876,62.7892542 L31.5713898,52.2752844 Z" id="Fill-114" fill="#838F93"></path>
                    <path d="M36.8334408,57.5086965 C36.8204059,54.6051828 39.1534193,52.2397433 42.0461085,52.2266596 L44.5261853,62.7406294 C41.6334961,62.7536586 36.8467699,60.4110262 36.8334408,57.5086965 Z" id="Fill-115" fill="#838F93"></path>
                    <path d="M42.0461085,52.226605 C44.9387977,52.2135758 47.2939449,54.5562083 47.3081596,57.4600172 C47.3211945,60.3635309 44.9872955,62.7274911 42.0946063,62.7405749 L42.0461085,52.226605 Z" id="Fill-116" fill="#838F93"></path>
                    <path d="M47.3081596,57.4600172 C47.2939449,54.5562083 49.6290236,52.1925433 52.5205331,52.1791643 L52.5690309,62.6931342 C49.6763417,62.7061634 47.3211945,60.3635309 47.3081596,57.4600172 Z" id="Fill-117" fill="#838F93"></path>
                    <path d="M52.5205331,52.1790995 C55.4135164,52.1648965 57.7686636,54.507529 57.7828783,57.4113379 C57.7959132,60.3148516 55.4620143,62.6788118 52.5690309,62.6930797 L52.5205331,52.1790995 Z" id="Fill-118" fill="#838F93"></path>
                    <path d="M57.7828783,57.4113379 C57.7686636,54.507529 60.1025626,52.1435688 62.9952518,52.130485 L63.0437496,62.6444549 C60.1510604,62.6574841 57.7959132,60.3148516 57.7828783,57.4113379 Z" id="Fill-119" fill="#838F93"></path>
                    <path d="M62.9952518,52.1304305 C65.887941,52.1174013 68.2430882,54.4600337 68.2561232,57.3635474 C68.2706319,60.2661723 65.9364388,62.6313166 63.0437496,62.6444003 L62.9952518,52.1304305 Z" id="Fill-120" fill="#838F93"></path>
                    <path d="M26.1645691,15.2451037 L27.5539397,14.201795 L43.1683025,14.1352336 L43.3116642,45.5695417 C29.5672834,46.3670438 23.7096298,51.0712697 23.7096298,51.0712697 C16.0294059,30.0485499 26.1645691,15.2451037 26.1645691,15.2451037 Z" id="Fill-121" fill="#838F93"></path>
                    <path d="M66.3654457,47.6073158 C56.191993,45.6360654 48.2363664,45.2134317 42.0958748,45.5695417 L41.9525131,14.1352336 L64.583898,14.0311835 C64.583898,14.0311835 59.889804,15.8686215 59.4029694,28.0332375 C58.9161348,40.1978534 66.3654457,47.6073158 66.3654457,47.6073158 Z" id="Fill-122" fill="#838F93"></path>
                    <path d="M80.533364,72 L48.7807984,72 C48.0876601,72 47.5263158,71.5046612 47.5263158,70.8930256 C47.5263158,70.2813899 48.0876601,69.7846154 48.7807984,69.7846154 L80.533364,69.7846154 C81.2265022,69.7846154 81.7894737,70.2813899 81.7894737,70.8930256 C81.7894737,71.5046612 81.2265022,72 80.533364,72" id="Fill-704" fill="#516066"></path>
                    <path d="M27.2523752,32.1230769 C26.5794182,32.1230769 26.0344179,31.6277382 26.0344179,31.0161025 C26.0344179,30.4044668 26.5794182,29.9076923 27.2523752,29.9076923 L36.3594103,29.9076923 C37.0323673,29.9076923 37.5789474,30.4044668 37.5789474,31.0161025 C37.5789474,31.6277382 37.0323673,32.1230769 36.3594103,32.1230769 C26.0833889,32.1230769 23.0477106,32.1230769 27.2523752,32.1230769 Z" id="Fill-704-Copy-3" fill="#516066"></path>
                    <path d="M19.0228186,60.9230769 C18.2831986,60.9230769 17.6842105,60.4277382 17.6842105,59.8161025 C17.6842105,59.2044668 18.2831986,58.7076923 19.0228186,58.7076923 L21.8701821,58.7076923 C22.6098021,58.7076923 23.2105263,59.2044668 23.2105263,59.8161025 C23.2105263,60.4277382 22.6098021,60.9230769 21.8701821,60.9230769 C19.9719397,60.9230769 19.0228186,60.9230769 19.0228186,60.9230769 Z" id="Fill-704-Copy-4" fill="#516066"></path>
                    <path d="M30.0754502,60.9230769 C29.3358302,60.9230769 28.7368421,60.4277382 28.7368421,59.8161025 C28.7368421,59.2044668 29.3358302,58.7076923 30.0754502,58.7076923 L32.9228136,58.7076923 C33.6624337,58.7076923 34.2631579,59.2044668 34.2631579,59.8161025 C34.2631579,60.4277382 33.6624337,60.9230769 32.9228136,60.9230769 C31.0245713,60.9230769 30.0754502,60.9230769 30.0754502,60.9230769 Z" id="Fill-704-Copy-5" fill="#516066"></path>
                    <path d="M41.1280818,60.9230769 C40.3884617,60.9230769 39.7894737,60.4277382 39.7894737,59.8161025 C39.7894737,59.2044668 40.3884617,58.7076923 41.1280818,58.7076923 L43.9754452,58.7076923 C44.7150652,58.7076923 45.3157895,59.2044668 45.3157895,59.8161025 C45.3157895,60.4277382 44.7150652,60.9230769 43.9754452,60.9230769 C42.0772029,60.9230769 41.1280818,60.9230769 41.1280818,60.9230769 Z" id="Fill-704-Copy-6" fill="#516066"></path>
                    <path d="M51.0754502,60.9230769 C50.3358302,60.9230769 49.7368421,60.4277382 49.7368421,59.8161025 C49.7368421,59.2044668 50.3358302,58.7076923 51.0754502,58.7076923 L53.9228136,58.7076923 C54.6624337,58.7076923 55.2631579,59.2044668 55.2631579,59.8161025 C55.2631579,60.4277382 54.6624337,60.9230769 53.9228136,60.9230769 C52.0245713,60.9230769 51.0754502,60.9230769 51.0754502,60.9230769 Z" id="Fill-704-Copy-7" fill="#516066"></path>
                    <path d="M61.0228186,60.9230769 C60.2831986,60.9230769 59.6842105,60.4277382 59.6842105,59.8161025 C59.6842105,59.2044668 60.2831986,58.7076923 61.0228186,58.7076923 L63.8701821,58.7076923 C64.6098021,58.7076923 65.2105263,59.2044668 65.2105263,59.8161025 C65.2105263,60.4277382 64.6098021,60.9230769 63.8701821,60.9230769 C61.9719397,60.9230769 61.0228186,60.9230769 61.0228186,60.9230769 Z" id="Fill-704-Copy-8" fill="#516066"></path>
                    <path d="M37.4281008,72 L5.67553524,72 C4.98239699,72 4.42105263,71.5046612 4.42105263,70.8930256 C4.42105263,70.2813899 4.98239699,69.7846154 5.67553524,69.7846154 L37.4281008,69.7846154 C38.1212391,69.7846154 38.6842105,70.2813899 38.6842105,70.8930256 C38.6842105,71.5046612 38.1212391,72 37.4281008,72" id="Fill-704-Copy" fill="#516066"></path>
                </g>
            </g>
        </g>
    </g>
</svg>