<?xml version="1.0" encoding="UTF-8"?>
<svg width="128px" height="128px" viewBox="0 0 128 128" version="1.1" xmlns="http://www.w3.org/2000/svg" xmlns:xlink="http://www.w3.org/1999/xlink">
    <!-- Generator: Sketch 53 (72520) - https://sketchapp.com -->
    <title>img-race-india</title>
    <desc>Created with Sketch.</desc>
    <g id="Symbols" stroke="none" stroke-width="1" fill="none" fill-rule="evenodd">
        <g id="image-/-race-/-india">
            <g>
                <circle id="img-race-india" stroke-opacity="0.32" stroke="#F0F8FF" stroke-width="2" fill-opacity="0.04" fill="#F0F8FF" cx="64" cy="64" r="63"></circle>
                <g id="Group-39" transform="translate(21.000000, 14.000000)">
                    <path d="M82.4935596,78.7152 L82.4935596,50.1384 L73.1510367,49.0256 L73.1510367,48.2832 L70.8203945,48.2832 L70.8203945,41.7512 C70.8203945,41.7512 72.3568624,39.6408 72.3568624,37.1328 C72.3568624,35.2248 71.4860642,33.6088 69.4547339,32.4672 C67.4226055,31.3248 66.2932018,29.4816 66.2932018,29.4816 C66.2932018,29.4816 65.1645963,31.3248 63.1324679,32.4672 C62.4596147,32.8464 61.9136697,33.2752 61.4858532,33.7528 C61.9878991,31.9776 62.3358991,30.008 62.3358991,27.9464 C62.3358991,22.2448 59.7346789,17.4184 53.6614404,14.0056 C47.5905963,10.5896 44.215156,5.0848 44.215156,5.0848 C44.215156,5.0848 40.8421101,10.5896 34.7696697,14.0056 C34.3777706,14.2256 34.0010367,14.4512 33.6378716,14.6832 L29.0356514,18.8208 C28.7331468,19.2192 28.4553853,19.6272 28.2015688,20.044 C26.7608807,22.408 26.0976055,25.0656 26.0976055,27.9464 C26.0976055,30.008 26.4448073,31.9776 26.9468532,33.7528 C26.5190367,33.2752 25.9730917,32.8464 25.3010367,32.4672 C23.2689083,31.3248 22.1395046,29.4816 22.1395046,29.4816 C22.1395046,29.4816 21.0108991,31.3248 18.9787706,32.4672 C16.9466422,33.6088 16.075844,35.2248 16.075844,37.1328 C16.075844,39.6408 17.6123119,41.7512 17.6123119,41.7512 L17.6123119,48.2832 L15.2816697,48.2832 L15.2816697,49.0256 L5.93914679,50.1384 L5.93914679,78.7152 L1.22818152,78.7152 L1.22818152,82.8104 L85.4164404,82.8104 L85.4164404,78.7152 L82.4935596,78.7152 Z" id="Path" fill="#838F93"></path>
                    <polyline id="Fill-463" fill="#516066" points="9.48858716 44.4432 5.93914679 44.452 5.93914679 50.1384 9.61310092 49.688 9.48858716 44.4432"></polyline>
                    <polyline id="Fill-464" fill="#838F93" points="78.1459541 44.4432 78.0214404 49.688 81.6953945 50.1384 81.6953945 44.452 78.1459541 44.4432"></polyline>
                    <path d="M1.94273394,81.9344 L84.6941009,81.9344 L84.6941009,79.5904 L1.94273394,79.5904 L1.94273394,81.9344 Z M1.06954128,83.6848 C0.587449541,83.6848 0.196348624,83.2928 0.196348624,82.8096 L0.196348624,78.7152 C0.196348624,78.232 0.587449541,77.84 1.06954128,77.84 L85.5672936,77.84 C86.0501835,77.84 86.4404862,78.232 86.4404862,78.7152 L86.4404862,82.8096 C86.4404862,83.2928 86.0501835,83.6848 85.5672936,83.6848 L1.06954128,83.6848 Z" id="Fill-465" fill="#516066"></path>
                    <path d="M43.3180183,5.96 C42.8359266,5.96 42.4456239,5.568 42.4456239,5.0848 L42.4456239,1.0264 C42.4456239,0.5432 42.8359266,0.1512 43.3180183,0.1512 C43.8009083,0.1512 44.191211,0.5432 44.191211,1.0264 L44.191211,5.0848 C44.191211,5.568 43.8009083,5.96 43.3180183,5.96" id="Fill-483" fill="#516066"></path>
                    <path d="M59.9813119,36.492 L26.6555229,36.492 C26.2899633,36.492 25.9619174,36.2632 25.8358073,35.9192 C25.6027431,35.2832 25.3920275,34.6344 25.2092477,33.9936 C24.6233945,31.92 24.3264771,29.8864 24.3264771,27.9464 C24.3264771,24.832 25.0767523,22.0192 26.5581468,19.588 C26.8271284,19.1464 27.124844,18.7096 27.4433119,18.2904 C27.7362385,17.9064 28.2837798,17.8328 28.6668991,18.1248 C29.0500183,18.4176 29.1242477,18.9664 28.8329174,19.3512 C28.550367,19.7224 28.2861743,20.1088 28.0483211,20.5 C26.7369358,22.6528 26.0720642,25.1584 26.0720642,27.9464 C26.0720642,29.7248 26.3474312,31.5984 26.8893853,33.5152 C27.0051193,33.9224 27.1336239,34.3336 27.2725046,34.7424 L59.3643303,34.7424 C59.5040092,34.3336 59.6317156,33.9224 59.7482477,33.5144 C60.2902018,31.5984 60.5647706,29.7248 60.5647706,27.9464 C60.5647706,22.2704 57.7967339,17.8368 52.3364862,14.768 C47.7230917,12.1728 44.6477615,8.4584 43.3172202,6.6336 C41.9882752,8.4592 38.912945,12.1736 34.2987523,14.768 C33.9236147,14.9792 33.5572569,15.1984 33.2092569,15.4208 C32.8021927,15.6808 32.262633,15.5608 32.0040275,15.1528 C31.7446239,14.7456 31.8643486,14.2048 32.2706147,13.9456 C32.6465505,13.7056 33.040844,13.4688 33.4439174,13.2424 C39.2521651,9.976 42.5406055,4.68 42.5733303,4.6272 C42.7321651,4.3672 43.0139174,4.2096 43.3172202,4.2096 C43.6205229,4.2096 43.9022752,4.3672 44.0611101,4.6264 C44.0938349,4.6792 47.4022294,9.9856 53.1905229,13.2424 C59.242211,16.6432 62.3103578,21.5904 62.3103578,27.9464 C62.3103578,29.8864 62.0134404,31.92 61.4275872,33.9928 C61.2448073,34.6344 61.0348899,35.2824 60.8010275,35.9184 C60.6749174,36.2632 60.3476697,36.492 59.9813119,36.492" id="Fill-484" fill="#516066"></path>
                    <path d="M29.9256055,17.7248 C29.6917431,17.7248 29.4586789,17.6312 29.2870734,17.4472 C28.9582294,17.0936 28.9765872,16.54 29.3293761,16.2104 C29.5001835,16.0504 29.676578,15.892 29.8577615,15.7352 C30.2225229,15.4192 30.7732569,15.46 31.0885321,15.8256 C31.4038073,16.1912 31.3631009,16.744 30.9983394,17.06 C30.8347156,17.2008 30.6758807,17.3448 30.5210367,17.4896 C30.3526239,17.6472 30.1387156,17.7248 29.9256055,17.7248" id="Fill-485" fill="#232541"></path>
                    <path d="M28.9717982,77.84 L57.6658349,77.84 L57.6658349,42.6256 L28.9717982,42.6256 L28.9717982,77.84 Z M58.5382294,79.5904 L28.0986055,79.5904 C27.6165138,79.5904 27.2254128,79.1984 27.2254128,78.7152 L27.2254128,41.7504 C27.2254128,41.2672 27.6165138,40.876 28.0986055,40.876 L58.5382294,40.876 C59.0203211,40.876 59.411422,41.2672 59.411422,41.7504 L59.411422,78.7152 C59.411422,79.1984 59.0203211,79.5904 58.5382294,79.5904 L58.5382294,79.5904 Z" id="Fill-486" fill="#516066"></path>
                    <path d="M30.2512569,40.876 L56.385578,40.876 C56.8030183,40.2424 57.6897798,38.8088 58.5342385,36.8776 C58.5909083,36.7496 58.6459817,36.6208 58.6994587,36.492 L27.9381743,36.492 C27.9916514,36.6192 28.0459266,36.7456 28.1017982,36.872 C28.9454587,38.8056 29.8330183,40.2416 30.2512569,40.876 Z M56.8461193,42.6256 L29.7907156,42.6256 C29.512156,42.6256 29.2503578,42.492 29.0859358,42.2664 C29.0316606,42.1912 27.7346422,40.3968 26.5030734,37.5752 C26.2628257,37.0288 26.0385413,36.4712 25.8358073,35.9184 C25.737633,35.6504 25.775945,35.3504 25.9395688,35.1168 C26.1031927,34.8824 26.370578,34.7424 26.6555229,34.7424 L59.9813119,34.7424 C60.267055,34.7424 60.5336422,34.8816 60.6972661,35.116 C60.8600917,35.3504 60.8992018,35.6496 60.8018257,35.9176 C60.6030826,36.4616 60.378,37.0208 60.1337615,37.5808 C58.8997982,40.4 57.6059725,42.1912 57.5508991,42.2664 C57.3864771,42.492 57.1246789,42.6256 56.8461193,42.6256 L56.8461193,42.6256 Z" id="Fill-487" fill="#516066"></path>
                    <path d="M53.335789,58.8176 L53.335789,64.8136 L33.301844,64.8136 L33.301844,58.8176 C33.301844,53.2736 37.748422,50.8904 43.3180183,45.3064 C48.889211,50.8904 53.335789,53.2736 53.335789,58.8176" id="Fill-488" fill="#516066"></path>
                    <polygon id="Fill-489" fill="#516066" points="33.301844 78.7152 53.335789 78.7152 53.335789 66.4728 33.301844 66.4728"></polygon>
                    <path d="M17.1884862,40.876 L25.293055,40.876 C25.6618073,40.2568 26.3530183,38.9088 26.4248532,37.3944 C25.9698991,36.3376 25.5819908,35.2648 25.2699083,34.1992 C24.9219083,33.844 24.4877064,33.5192 23.9752844,33.2312 C22.7493028,32.5408 21.827422,31.6264 21.2415688,30.936 C20.6557156,31.6264 19.7338349,32.5408 18.5078532,33.2312 C16.854055,34.1592 16.0503028,35.4352 16.0503028,37.1328 C16.0503028,38.7648 16.7981835,40.2248 17.1884862,40.876 Z M25.7687615,42.6264 L16.7143761,42.6264 C16.4358165,42.6264 16.1740183,42.4928 16.0095963,42.2672 C15.9393578,42.1712 14.3047156,39.8944 14.3047156,37.1328 C14.3047156,34.8112 15.4628532,32.9344 17.6538165,31.704 C19.4664495,30.6848 20.4873028,29.04 20.4976789,29.024 C20.6565138,28.7648 20.9382661,28.6064 21.2415688,28.6064 C21.5456697,28.6064 21.827422,28.7648 21.9854587,29.024 C21.9950367,29.0384 23.0334495,30.6944 24.8301193,31.7048 C25.5756055,32.124 26.2045596,32.6168 26.699422,33.1688 C26.7880183,33.268 26.8534679,33.3864 26.8893853,33.5144 C27.207055,34.632 27.6157156,35.7616 28.1025963,36.8728 C28.1528807,36.9872 28.178422,37.112 28.1760275,37.2368 C28.1377156,39.9512 26.5421835,42.1736 26.4743394,42.2672 C26.3099174,42.4928 26.0481193,42.6264 25.7687615,42.6264 L25.7687615,42.6264 Z" id="Fill-490" fill="#516066"></path>
                    <path d="M17.5875688,47.408 L24.8947706,47.408 L24.8947706,42.6264 L17.5875688,42.6264 L17.5875688,47.408 Z M25.7679633,49.1584 L16.7143761,49.1584 C16.2322844,49.1584 15.8411835,48.7664 15.8411835,48.2832 L15.8411835,41.7512 C15.8411835,41.268 16.2322844,40.876 16.7143761,40.876 L25.7679633,40.876 C26.250055,40.876 26.641156,41.268 26.641156,41.7512 L26.641156,48.2832 C26.641156,48.7664 26.250055,49.1584 25.7679633,49.1584 L25.7679633,49.1584 Z" id="Fill-491" fill="#516066"></path>
                    <path d="M5.91440367,45.3248 L5.91440367,49.1504 L7.82441284,48.916 L7.73821101,45.32 L5.91440367,45.3248 Z M5.04121101,51.0136 C4.82969725,51.0136 4.62297248,50.936 4.46254128,50.7936 C4.27497248,50.628 4.16801835,50.3888 4.16801835,50.1384 L4.16801835,44.452 C4.16801835,43.9696 4.55752294,43.5784 5.03881651,43.5768 L8.58825688,43.568 C8.58905505,43.568 8.58985321,43.568 8.59065138,43.568 C9.0639633,43.568 9.45187156,43.9472 9.46304587,44.4216 L9.5883578,49.6664 C9.59873394,50.1168 9.26749541,50.5016 8.82211927,50.556 L5.14736697,51.0072 C5.11224771,51.0112 5.07633028,51.0136 5.04121101,51.0136 L5.04121101,51.0136 Z" id="Fill-492" fill="#516066"></path>
                    <path d="M15.2569266,77.84 L27.2254128,77.84 L27.2254128,49.1584 L15.2569266,49.1584 L15.2569266,77.84 Z M28.0986055,79.5904 L14.3837339,79.5904 C13.9016422,79.5904 13.5105413,79.1984 13.5105413,78.7152 L13.5105413,48.2832 C13.5105413,47.8 13.9016422,47.408 14.3837339,47.408 L28.0986055,47.408 C28.5806972,47.408 28.9717982,47.8 28.9717982,48.2832 L28.9717982,78.7152 C28.9717982,79.1984 28.5806972,79.5904 28.0986055,79.5904 L28.0986055,79.5904 Z" id="Fill-493" fill="#516066"></path>
                    <path d="M5.91440367,77.84 L13.5105413,77.84 L13.5105413,50.0104 L5.91440367,50.916 L5.91440367,77.84 Z M14.3837339,79.5904 L5.04121101,79.5904 C4.55911927,79.5904 4.16801835,79.1984 4.16801835,78.7152 L4.16801835,50.1384 C4.16801835,49.6952 4.49925688,49.3216 4.93824771,49.2696 L14.2807706,48.1568 C14.5274037,48.1264 14.7772294,48.2056 14.9632018,48.3712 C15.1499725,48.5368 15.2569266,48.7752 15.2569266,49.0256 L15.2569266,78.7152 C15.2569266,79.1984 14.8658257,79.5904 14.3837339,79.5904 L14.3837339,79.5904 Z" id="Fill-494" fill="#516066"></path>
                    <path d="M21.2415688,30.3568 C20.7594771,30.3568 20.3691743,29.9656 20.3691743,29.4824 L20.3683761,27.1152 C20.3683761,26.6312 20.7586789,26.2392 21.2407706,26.2392 L21.2415688,26.2392 C21.7228624,26.2392 22.1139633,26.6312 22.1147615,27.1144 L22.1147615,29.4816 C22.1147615,29.9648 21.7244587,30.3568 21.242367,30.3568 C21.2415688,30.3568 21.2415688,30.3568 21.2415688,30.3568" id="Fill-495" fill="#516066"></path>
                    <path d="M21.2415688,64.8144 C19.1288257,66.9312 17.4431009,67.8344 17.4431009,69.9376 L17.4431009,76.7296 L25.0400367,76.7296 L25.0400367,69.9376 C25.0400367,67.8344 23.3535138,66.9312 21.2415688,64.8144" id="Fill-496" fill="#516066"></path>
                    <path d="M21.2415688,51.0824 C19.1288257,53.2 17.4431009,54.1032 17.4431009,56.2056 L17.4431009,62.9976 L25.0400367,62.9976 L25.0400367,56.2056 C25.0400367,54.1032 23.3535138,53.2 21.2415688,51.0824" id="Fill-497" fill="#516066"></path>
                    <path d="M9.71207339,68.7832 C8.30411009,70.1952 7.17949541,70.7984 7.17949541,72.2 L7.17949541,76.7296 L12.2454495,76.7296 L12.2454495,72.2 C12.2454495,70.7984 11.121633,70.1952 9.71207339,68.7832" id="Fill-498" fill="#516066"></path>
                    <path d="M9.71207339,55.052 C8.30411009,56.464 7.17949541,57.0664 7.17949541,58.468 L7.17949541,62.9976 L12.2454495,62.9976 L12.2454495,58.468 C12.2454495,57.0664 11.121633,56.464 9.71207339,55.052" id="Fill-499" fill="#516066"></path>
                    <path d="M61.3421835,40.876 L69.4467523,40.876 C69.8362569,40.2216 70.5865321,38.752 70.5865321,37.1328 C70.5865321,35.4352 69.7827798,34.1592 68.1297798,33.2312 C66.9037982,32.5416 65.9811193,31.6264 65.3952661,30.936 C64.8094128,31.6264 63.8875321,32.5408 62.6615505,33.2312 C62.1491284,33.5192 61.7149266,33.844 61.3677248,34.1992 C61.054844,35.2648 60.6669358,36.3376 60.2119817,37.3944 C60.2838165,38.9192 60.972633,40.26 61.3421835,40.876 Z M69.9224587,42.6264 L60.8680734,42.6264 C60.5895138,42.6264 60.3277156,42.4928 60.1624954,42.2672 C60.0954495,42.1736 58.4991193,39.9512 58.4608073,37.2368 C58.459211,37.112 58.4839541,36.9872 58.5342385,36.8728 C59.0219174,35.7616 59.4297798,34.632 59.7474495,33.5144 C59.783367,33.3864 59.8488165,33.268 59.9374128,33.1688 C60.4322752,32.6168 61.0612294,32.1248 61.8067156,31.7048 C63.6033853,30.6944 64.6417982,29.0384 64.6521743,29.0224 C64.8118073,28.7648 65.0927615,28.608 65.3944679,28.608 C65.3952661,28.608 65.3960642,28.608 65.3968624,28.608 C65.699367,28.608 65.9811193,28.7656 66.139156,29.024 C66.1479358,29.0384 67.1871468,30.6944 68.9838165,31.7048 C71.1739817,32.9344 72.3321193,34.8112 72.3321193,37.1328 C72.3321193,39.8944 70.6974771,42.1712 70.6272385,42.2672 C70.4628165,42.4928 70.2010183,42.6264 69.9224587,42.6264 L69.9224587,42.6264 Z" id="Fill-500" fill="#516066"></path>
                    <path d="M61.7420642,47.408 L69.0500642,47.408 L69.0500642,42.6264 L61.7420642,42.6264 L61.7420642,47.408 Z M69.9224587,49.1584 L60.8688716,49.1584 C60.3867798,49.1584 59.9956789,48.7664 59.9956789,48.2832 L59.9956789,41.7512 C59.9956789,41.268 60.3867798,40.876 60.8688716,40.876 L69.9224587,40.876 C70.4045505,40.876 70.7956514,41.268 70.7956514,41.7512 L70.7956514,48.2832 C70.7956514,48.7664 70.4045505,49.1584 69.9224587,49.1584 L69.9224587,49.1584 Z" id="Fill-501" fill="#516066"></path>
                    <path d="M78.8132202,48.916 L80.7232294,49.1504 L80.7232294,45.3248 L78.899422,45.32 L78.8132202,48.916 Z M81.5956239,51.0136 C81.5613028,51.0136 81.5253853,51.0112 81.4902661,51.0072 L77.8155138,50.556 C77.3701376,50.5016 77.0381009,50.1168 77.0484771,49.6664 L77.173789,44.4216 C77.1849633,43.9472 77.5720734,43.568 78.0461835,43.568 C78.0469817,43.568 78.0477798,43.568 78.048578,43.568 L81.5972202,43.5768 C82.0793119,43.5784 82.4688165,43.9696 82.4688165,44.452 L82.4688165,50.1384 C82.4688165,50.3888 82.3610642,50.628 82.1742936,50.7936 C82.0138624,50.936 81.8079358,51.0136 81.5956239,51.0136 L81.5956239,51.0136 Z" id="Fill-502" fill="#516066"></path>
                    <path d="M59.411422,77.84 L71.3807064,77.84 L71.3807064,49.1584 L59.411422,49.1584 L59.411422,77.84 Z M72.2531009,79.5904 L58.5382294,79.5904 C58.0561376,79.5904 57.6658349,79.1984 57.6658349,78.7152 L57.6658349,48.2832 C57.6658349,47.8 58.0561376,47.408 58.5382294,47.408 L72.2531009,47.408 C72.7351927,47.408 73.1262936,47.8 73.1262936,48.2832 L73.1262936,78.7152 C73.1262936,79.1984 72.7351927,79.5904 72.2531009,79.5904 L72.2531009,79.5904 Z" id="Fill-503" fill="#516066"></path>
                    <path d="M73.1262936,77.84 L80.7232294,77.84 L80.7232294,50.916 L73.1262936,50.0104 L73.1262936,77.84 Z M81.5956239,79.5904 L72.2531009,79.5904 C71.7710092,79.5904 71.3807064,79.1984 71.3807064,78.7152 L71.3807064,49.0256 C71.3807064,48.7752 71.4868624,48.5368 71.673633,48.3712 C71.8596055,48.2056 72.108633,48.1264 72.3560642,48.1568 L81.6985872,49.2696 C82.137578,49.3216 82.4688165,49.6952 82.4688165,50.1384 L82.4688165,78.7152 C82.4688165,79.1984 82.0777156,79.5904 81.5956239,79.5904 L81.5956239,79.5904 Z" id="Fill-504" fill="#516066"></path>
                    <path d="M65.3952661,30.3568 L65.3952661,30.3568 C64.9131743,30.3568 64.5220734,29.9648 64.5220734,29.4816 L64.5228716,27.1144 C64.5228716,26.6312 64.9139725,26.2392 65.3960642,26.2392 C65.878156,26.2392 66.2684587,26.6312 66.2684587,27.1152 L66.2684587,29.4824 C66.2676606,29.9656 65.8773578,30.3568 65.3952661,30.3568" id="Fill-505" fill="#232541"></path>
                    <path d="M65.3960642,64.8144 C67.5080092,66.9312 69.1945321,67.8344 69.1945321,69.9376 L69.1945321,76.7296 L61.5975963,76.7296 L61.5975963,69.9376 C61.5975963,67.8344 63.2833211,66.9312 65.3960642,64.8144" id="Fill-506" fill="#516066"></path>
                    <path d="M65.3960642,51.0824 C67.5080092,53.2 69.1945321,54.1032 69.1945321,56.2056 L69.1945321,62.9976 L61.5975963,62.9976 L61.5975963,56.2056 C61.5975963,54.1032 63.2833211,53.2 65.3960642,51.0824" id="Fill-507" fill="#516066"></path>
                    <path d="M76.9247615,68.7832 C78.3335229,70.1952 79.4581376,70.7984 79.4581376,72.2 L79.4581376,76.7296 L74.3913853,76.7296 L74.3913853,72.2 C74.3913853,70.7984 75.516,70.1952 76.9247615,68.7832" id="Fill-508" fill="#516066"></path>
                    <path d="M76.9247615,55.052 C78.3335229,56.464 79.4581376,57.0664 79.4581376,58.468 L79.4581376,62.9976 L74.3913853,62.9976 L74.3913853,58.468 C74.3913853,57.0664 75.516,56.464 76.9247615,55.052" id="Fill-509" fill="#516066"></path>
                </g>
            </g>
        </g>
    </g>
</svg>