<?xml version="1.0" encoding="UTF-8"?>
<svg width="128px" height="128px" viewBox="0 0 128 128" version="1.1" xmlns="http://www.w3.org/2000/svg" xmlns:xlink="http://www.w3.org/1999/xlink">
    <!-- Generator: Sketch 53 (72520) - https://sketchapp.com -->
    <title>img-race-malaysia</title>
    <desc>Created with Sketch.</desc>
    <g id="Symbols" stroke="none" stroke-width="1" fill="none" fill-rule="evenodd">
        <g id="image-/-race-/-malaysia">
            <g>
                <circle id="Oval-Copy-29" stroke-opacity="0.32" stroke="#F0F8FF" stroke-width="2" fill-opacity="0.04" fill="#F0F8FF" cx="64" cy="64" r="63"></circle>
                <g id="noun_Malaysia_1809137" transform="translate(31.000000, 23.000000)">
                    <path d="M2.15625,65 L4.31014773,48.8617721 L5.76493339,36.8333333 L8.15292916,28.6311882 L10.6477752,20.9136036 C11.3001718,18.5107923 11.6909702,16.8032426 11.8201705,15.7909544 C12.3385619,11.7293391 12.3929694,9.41438672 13.348792,9.41438672 C14.339574,9.41438672 15.5784468,11.3361016 15.5784468,16.3723118 C15.5784468,17.5460094 16.2338434,19.0930443 17.5446368,21.0134167 L19.9485469,29.2695 L22.687118,37.899985 L23.9522161,49.4298649 L25.875,65 L25.875,78 L2.15625,78 L2.15625,65 Z" id="Rectangle" fill="#838F93"></path>
                    <polygon id="Rectangle-Copy" fill="#838F93" points="53.1633759 13.9565114 53.1633759 9.67797297 56.6192131 9.8437817 56.6192131 15.1305263 63.461807 38.9945833 65.3386875 50.1840724 67.921875 78 44.203125 78 45.0383431 50.1840724 46.2339205 40.4264933"></polygon>
                    <path d="M66.84375,48.88 L65.55,47.58 L65.55,38.48 L64.126875,37.05 L62.833125,29.25 L61.539375,27.95 L60.245625,21.45 L58.951875,20.15 L57.7875,14.56 C59.34,13.13 59.469375,10.66 57.916875,9.1 C57.52875,8.58 57.01125,8.32 56.364375,8.06 L56.364375,0 L53.776875,0 L53.776875,8.06 C51.706875,8.71 50.671875,10.92 51.448125,13 C51.706875,13.65 51.965625,14.17 52.483125,14.56 L51.31875,20.15 L50.025,21.45 L48.73125,27.95 L47.4375,29.25 L46.14375,37.05 L44.85,38.48 L44.85,47.58 L43.55625,48.88 L43.55625,63.18 L42.2625,64.48 L42.2625,67.6 L26.7375,67.6 L26.7375,64.48 L25.44375,63.18 L25.44375,48.88 L24.15,47.58 L24.15,38.48 L22.726875,37.05 L21.433125,29.25 L20.139375,27.95 L18.845625,21.45 L17.551875,20.15 L16.3875,14.56 C17.94,13.13 18.069375,10.66 16.516875,9.1 C16.12875,8.58 15.61125,8.32 14.964375,8.06 L14.964375,0 L12.376875,0 L12.376875,8.06 C10.306875,8.71 9.271875,10.92 10.048125,13 C10.306875,13.65 10.565625,14.17 11.083125,14.56 L9.91875,20.15 L8.625,21.45 L7.33125,27.95 L6.0375,29.25 L4.74375,37.05 L3.45,38.48 L3.45,47.58 L2.15625,48.88 L2.15625,63.18 L0.8625,64.48 L0.8625,78 L3.45,78 L3.45,65.52 L3.9675,65 L7.33125,65 L7.33125,78 L9.91875,78 L9.91875,65.52 L10.43625,65 L17.16375,65 L17.68125,65.52 L17.68125,78 L20.26875,78 L20.26875,65 L23.6325,65 L24.15,65.52 L24.15,78 L26.7375,78 L26.7375,76.05 L33.72375,70.2 L35.405625,70.2 L42.391875,76.05 L42.391875,78 L44.979375,78 L44.979375,65.52 L45.496875,65 L48.73125,65 L48.73125,78 L51.31875,78 L51.31875,65.52 L51.83625,65 L58.56375,65 L59.08125,65.52 L59.08125,78 L61.66875,78 L61.66875,65 L65.0325,65 L65.55,65.52 L65.55,78 L68.1375,78 L68.1375,64.48 L66.84375,63.18 L66.84375,48.88 Z M11.73,49.4 L15.87,49.4 L16.3875,49.92 L16.3875,62.4 L11.2125,62.4 L11.2125,49.92 L11.73,49.4 Z M21.045,39 L21.5625,39.52 L21.5625,46.8 L17.68125,46.8 L17.68125,39 L21.045,39 Z M13.02375,39 L14.57625,39 L15.09375,39.52 L15.09375,46.8 L12.50625,46.8 L12.50625,39.52 L13.02375,39 Z M18.975,49.4 L22.33875,49.4 L22.85625,49.92 L22.85625,62.4 L18.975,62.4 L18.975,49.4 Z M20.01,36.4 L15.09375,36.4 L15.09375,29.9 L18.4575,29.9 L19.104375,30.55 L20.01,36.4 Z M17.4225,27.3 L15.09375,27.3 L15.09375,22.1 L15.87,22.1 L16.516875,22.75 L17.4225,27.3 Z M13.8,10.4 C14.57625,10.4 15.09375,10.92 15.09375,11.7 C15.09375,12.48 14.57625,13 13.8,13 C13.02375,13 12.50625,12.48 12.50625,11.7 C12.50625,10.92 13.02375,10.4 13.8,10.4 Z M14.05875,15.6 L14.835,19.5 L12.765,19.5 L13.54125,15.6 L14.05875,15.6 Z M11.73,22.1 L12.50625,22.1 L12.50625,27.3 L10.1775,27.3 L11.083125,22.75 L11.73,22.1 Z M9.1425,29.9 L12.50625,29.9 L12.50625,36.4 L7.59,36.4 L8.625,30.55 L9.1425,29.9 Z M6.555,39 L9.91875,39 L9.91875,46.8 L6.0375,46.8 L6.0375,39.52 L6.555,39 Z M5.26125,49.4 L8.625,49.4 L8.625,62.4 L4.74375,62.4 L4.74375,49.92 L5.26125,49.4 Z M26.7375,72.67 L26.7375,70.2 L29.58375,70.2 L26.7375,72.67 Z M39.41625,70.2 L42.2625,70.2 L42.2625,72.67 L39.41625,70.2 Z M53.13,49.4 L57.27,49.4 L57.7875,49.92 L57.7875,62.4 L52.6125,62.4 L52.6125,49.92 L53.13,49.4 Z M62.445,39 L62.9625,39.52 L62.9625,46.8 L59.08125,46.8 L59.08125,39 L62.445,39 Z M54.42375,39 L55.97625,39 L56.49375,39.52 L56.49375,46.8 L53.90625,46.8 L53.90625,39.52 L54.42375,39 Z M60.375,49.4 L63.73875,49.4 L64.25625,49.92 L64.25625,62.4 L60.375,62.4 L60.375,49.4 Z M61.41,36.4 L56.49375,36.4 L56.49375,29.9 L59.8575,29.9 L60.504375,30.55 L61.41,36.4 Z M58.8225,27.3 L56.49375,27.3 L56.49375,22.1 L57.27,22.1 L57.916875,22.75 L58.8225,27.3 Z M55.2,10.4 C55.97625,10.4 56.49375,10.92 56.49375,11.7 C56.49375,12.48 55.97625,13 55.2,13 C54.42375,13 53.90625,12.48 53.90625,11.7 C53.90625,10.92 54.42375,10.4 55.2,10.4 Z M55.45875,15.6 L56.235,19.5 L54.165,19.5 L54.94125,15.6 L55.45875,15.6 Z M53.13,22.1 L53.90625,22.1 L53.90625,27.3 L51.5775,27.3 L52.483125,22.75 L53.13,22.1 Z M50.5425,29.9 L53.90625,29.9 L53.90625,36.4 L48.99,36.4 L50.025,30.55 L50.5425,29.9 Z M47.955,39 L51.31875,39 L51.31875,46.8 L47.4375,46.8 L47.4375,39.52 L47.955,39 Z M46.66125,49.4 L50.025,49.4 L50.025,62.4 L46.14375,62.4 L46.14375,49.92 L46.66125,49.4 Z" id="Shape" fill="#516066" fill-rule="nonzero"></path>
                </g>
                <path d="M101.790198,102 L71.2082344,102 C70.5406496,102 70,101.552819 70,101.000648 C70,100.448477 70.5406496,100 71.2082344,100 L101.790198,100 C102.457783,100 103,100.448477 103,101.000648 C103,101.552819 102.457783,102 101.790198,102" id="Fill-704" fill="#516066"></path>
                <path d="M59.7901985,102 L29.2082344,102 C28.5406496,102 28,101.552819 28,101.000648 C28,100.448477 28.5406496,100 29.2082344,100 L59.7901985,100 C60.4577833,100 61,100.448477 61,101.000648 C61,101.552819 60.4577833,102 59.7901985,102" id="Fill-704-Copy-9" fill="#516066"></path>
            </g>
        </g>
    </g>
</svg>