<?xml version="1.0" encoding="UTF-8"?>
<svg width="128px" height="128px" viewBox="0 0 128 128" version="1.1" xmlns="http://www.w3.org/2000/svg" xmlns:xlink="http://www.w3.org/1999/xlink">
    <!-- Generator: Sketch 53 (72520) - https://sketchapp.com -->
    <title>img-race-mauritius</title>
    <desc>Created with Sketch.</desc>
    <g id="Symbols" stroke="none" stroke-width="1" fill="none" fill-rule="evenodd">
        <g id="image-/-race-/-mauritus">
            <g>
                <circle id="img-race-" stroke-opacity="0.32" stroke="#F0F8FF" stroke-width="2" fill-opacity="0.04" fill="#F0F8FF" cx="64" cy="64" r="63"></circle>
                <g id="x" transform="translate(26.000000, 28.000000)">
                    <path d="M71.109589,4.2132177 C72.1584324,4.2414753 73,5.10058333 73,6.15625 C73,7.21191667 72.1584324,8.0710247 71.109589,8.0992823 L71.109589,70 C71.109589,71.1045695 70.2141585,72 69.109589,72 L7.89041096,72 C6.78584146,72 5.89041096,71.1045695 5.89041096,70 L5.89041096,8.0992823 C4.84156758,8.0710247 4,7.21191667 4,6.15625 C4,5.10058333 4.84156758,4.2414753 5.89041096,4.2132177 L5.89041096,1 C5.89041096,-0.1045695 6.78584146,-1 7.89041096,-1 L24.5890411,-1 C25.6936106,-1 26.5890411,-0.1045695 26.5890411,1 L26.5890411,4.2132177 C27.6378845,4.2414753 28.4794521,5.10058333 28.4794521,6.15625 C28.4794521,7.21191667 27.6378845,8.0710247 26.5890411,8.0992823 L26.5890411,16.0588467 L38.5,9.50876713 L50.4109589,16.0588467 L50.4109589,8.0992823 C49.3621155,8.0710247 48.5205479,7.21191667 48.5205479,6.15625 C48.5205479,5.10058333 49.3621155,4.2414753 50.4109589,4.2132177 L50.4109589,1 C50.4109589,-0.1045695 51.3063894,-1 52.4109589,-1 L69.109589,-1 C70.2141585,-1 71.109589,-0.1045695 71.109589,1 L71.109589,4.2132177 Z" id="Path" stroke="#516066" stroke-width="2" fill="#516066" fill-rule="nonzero"></path>
                    <path d="M75.7901985,73 L45.2082344,73 C44.5406496,73 44,72.5528192 44,72.0006481 C44,71.448477 44.5406496,71 45.2082344,71 L75.7901985,71 C76.4577833,71 77,71.448477 77,72.0006481 C77,72.5528192 76.4577833,73 75.7901985,73" id="Fill-704" fill="#516066"></path>
                    <path d="M31.7901985,73 L1.2082344,73 C0.540649634,73 0,72.5528192 0,72.0006481 C0,71.448477 0.540649634,71 1.2082344,71 L31.7901985,71 C32.4577833,71 33,71.448477 33,72.0006481 C33,72.5528192 32.4577833,73 31.7901985,73" id="Fill-704-Copy-10" fill="#516066"></path>
                    <path d="M70.109589,5.2125 L70.109589,1 C70.109589,0.44771525 69.6618738,5.44966206e-15 69.109589,5.55111512e-15 L52.4109589,2.59792188e-14 C51.8586742,2.21564527e-14 51.4109589,0.44771525 51.4109589,1 L51.4109589,5.2125 L50.4642979,5.2125 C49.9430792,5.2125 49.5205479,5.63503127 49.5205479,6.15625 L49.5205479,6.15625 C49.5205479,6.67746873 49.9430792,7.1 50.4642979,7.1 L51.4109589,7.1 L51.4109589,17.75 L38.5,10.65 L25.5890411,17.75 L25.5890411,7.1 L26.5357021,7.1 C27.0569208,7.1 27.4794521,6.67746873 27.4794521,6.15625 L27.4794521,6.15625 C27.4794521,5.63503127 27.0569208,5.2125 26.5357021,5.2125 L25.5890411,5.2125 L25.5890411,1 C25.5890411,0.44771525 25.1413258,2.65438995e-14 24.5890411,2.66453526e-14 L7.89041096,4.88498131e-15 C7.33812621,4.98643437e-15 6.89041096,0.44771525 6.89041096,1 L6.89041096,5.2125 L5.94375,5.2125 C5.42253127,5.2125 5,5.63503127 5,6.15625 L5,6.15625 C5,6.67746873 5.42253127,7.1 5.94375,7.1 L6.89041096,7.1 L6.89041096,70 C6.89041096,70.5522847 7.33812621,71 7.89041096,71 L69.109589,71 C69.6618738,71 70.109589,70.5522847 70.109589,70 L70.109589,7.1 L71.05625,7.1 C71.5774687,7.1 72,6.67746873 72,6.15625 L72,6.15625 C72,5.63503127 71.5774687,5.2125 71.05625,5.2125 L70.109589,5.2125 Z M14.0136986,11.09375 C14.0136986,9.8681125 15.0100685,8.875 16.239726,8.875 C17.4693836,8.875 18.4657534,9.8681125 18.4657534,11.09375 L18.4657534,16.75 C18.4657534,17.3022847 18.0180382,17.75 17.4657534,17.75 L15.0136986,17.75 C14.4614139,17.75 14.0136986,17.3022847 14.0136986,16.75 L14.0136986,11.09375 Z M18.3561644,69.225 L14.1232877,69.225 C13.5710029,69.225 13.1232877,68.7772847 13.1232877,68.225 L13.1232877,56.025 C13.1232877,55.4727153 13.5710029,55.025 14.1232877,55.025 L18.3561644,55.025 C18.9084491,55.025 19.3561644,55.4727153 19.3561644,56.025 L19.3561644,68.225 C19.3561644,68.7772847 18.9084491,69.225 18.3561644,69.225 Z M18.3561644,39.9375 L14.1232877,39.9375 C13.5710029,39.9375 13.1232877,39.4897847 13.1232877,38.9375 L13.1232877,29.73125 C13.1232877,28.0157125 14.5185616,26.625 16.239726,26.625 C17.9608904,26.625 19.3561644,28.0157125 19.3561644,29.73125 L19.3561644,38.9375 C19.3561644,39.4897847 18.9084491,39.9375 18.3561644,39.9375 Z M38.5,14.64375 C40.2211644,14.64375 41.6164384,16.0344625 41.6164384,17.75 C41.6164384,19.4655375 40.2211644,20.85625 38.5,20.85625 C36.7788356,20.85625 35.3835616,19.4655375 35.3835616,17.75 C35.3835616,16.0344625 36.7788356,14.64375 38.5,14.64375 Z M35.3835616,29.73125 C35.3835616,28.0157125 36.7788356,26.625 38.5,26.625 C40.2211644,26.625 41.6164384,28.0157125 41.6164384,29.73125 L41.6164384,38.9375 C41.6164384,39.4897847 41.1687231,39.9375 40.6164384,39.9375 L36.3835616,39.9375 C35.8312769,39.9375 35.3835616,39.4897847 35.3835616,38.9375 L35.3835616,29.73125 Z M42.3972603,69.225 L34.6027397,69.225 C34.050455,69.225 33.6027397,68.7772847 33.6027397,68.225 L33.6027397,54.58125 C33.6027397,51.8854688 35.7953767,49.7 38.5,49.7 C41.2046233,49.7 43.3972603,51.8854688 43.3972603,54.58125 L43.3972603,68.225 C43.3972603,68.7772847 42.949545,69.225 42.3972603,69.225 Z M58.5342466,11.09375 C58.5342466,9.8681125 59.5306164,8.875 60.760274,8.875 C61.9899315,8.875 62.9863014,9.8681125 62.9863014,11.09375 L62.9863014,16.75 C62.9863014,17.3022847 62.5385861,17.75 61.9863014,17.75 L59.5342466,17.75 C58.9819618,17.75 58.5342466,17.3022847 58.5342466,16.75 L58.5342466,11.09375 Z M62.8767123,69.225 L58.6438356,69.225 C58.0915509,69.225 57.6438356,68.7772847 57.6438356,68.225 L57.6438356,56.025 C57.6438356,55.4727153 58.0915509,55.025 58.6438356,55.025 L62.8767123,55.025 C63.4289971,55.025 63.8767123,55.4727153 63.8767123,56.025 L63.8767123,68.225 C63.8767123,68.7772847 63.4289971,69.225 62.8767123,69.225 Z M62.8767123,39.9375 L58.6438356,39.9375 C58.0915509,39.9375 57.6438356,39.4897847 57.6438356,38.9375 L57.6438356,29.73125 C57.6438356,28.0157125 59.0391096,26.625 60.760274,26.625 C62.4814384,26.625 63.8767123,28.0157125 63.8767123,29.73125 L63.8767123,38.9375 C63.8767123,39.4897847 63.4289971,39.9375 62.8767123,39.9375 Z" id="Shape" fill="#838F93" fill-rule="nonzero"></path>
                </g>
            </g>
        </g>
    </g>
</svg>