<?xml version="1.0" encoding="UTF-8"?>
<svg width="128px" height="128px" viewBox="0 0 128 128" version="1.1" xmlns="http://www.w3.org/2000/svg" xmlns:xlink="http://www.w3.org/1999/xlink">
    <!-- Generator: Sketch 53 (72520) - https://sketchapp.com -->
    <title>img-race-russia</title>
    <desc>Created with Sketch.</desc>
    <g id="Symbols" stroke="none" stroke-width="1" fill="none" fill-rule="evenodd">
        <g id="image-/-race-/-russia">
            <g>
                <circle id="Oval-Copy-19" stroke-opacity="0.32" stroke="#F0F8FF" stroke-width="2" fill-opacity="0.04" fill="#F0F8FF" cx="64" cy="64" r="63"></circle>
                <g id="Group-40" transform="translate(26.000000, 12.000000)">
                    <path d="M61.2648692,73.092896 L61.2648692,70.198944 L61.4464953,70.198944 L61.4464953,72.741088 L61.2648692,73.092896 Z M20.4993925,70.198944 L21.0427944,70.198944 C21.0427944,70.201152 21.0427944,70.201152 21.0427944,70.201152 L21.0427944,72.0728 L20.4993925,71.024 L20.4993925,70.198944 Z M54.2478972,59.662368 C54.1718505,59.724928 54.0965421,59.786752 54.019757,59.848576 C53.6048224,60.183456 53.1847196,60.510976 52.7779065,60.838496 L52.7779065,59.662368 L54.2478972,59.662368 Z M20.4993925,61.673856 L20.4993925,61.09536 L21.1712617,61.09536 C20.9401682,61.287456 20.714243,61.478816 20.4993925,61.673856 Z M77.8039252,55.949984 C77.8039252,55.903616 77.8039252,55.857248 77.8024486,55.810144 C77.7980187,55.644544 77.784729,55.481888 77.7625794,55.320704 C77.703514,54.882784 77.5824299,54.465472 77.4118785,54.062144 C77.389729,54.012096 77.3683178,53.960576 77.3454299,53.910528 C77.1793084,53.544736 76.9696262,53.191456 76.7274579,52.847744 C76.6329533,52.714528 76.5340187,52.582784 76.4306542,52.453248 C76.1117009,52.052864 75.7499252,51.664992 75.3549252,51.28448 C74.2452336,50.20992 72.8896822,49.198656 71.5776916,48.140288 C71.2639065,47.887104 70.9538131,47.632448 70.6481495,47.373376 C70.6466729,47.371168 70.6437196,47.36896 70.6415047,47.367488 C70.6378131,47.364544 70.6348598,47.362336 70.6311682,47.359392 C70.3277196,47.10032 70.0309159,46.838304 69.7444486,46.569664 C68.8038318,45.691616 67.9813458,44.756896 67.4069346,43.713248 C66.8332617,44.756896 66.0063458,45.69456 65.0672056,46.569664 C64.4891028,47.112096 63.8689159,47.629504 63.2369159,48.138816 C61.9249252,49.198656 60.5686355,50.20992 59.4582056,51.28448 C59.1857664,51.547968 58.9288318,51.815136 58.6903551,52.087456 C58.4725514,52.335488 58.269514,52.587936 58.0871495,52.847008 C57.8449813,53.191456 57.6338224,53.544736 57.4691776,53.910528 C57.1930467,54.505216 57.0298785,55.135232 57.0114206,55.810144 C57.0092056,55.857248 57.0092056,55.903616 57.0092056,55.949984 C57.0092056,56.372448 57.0557196,56.775776 57.1376729,57.158496 C57.147271,57.2056 57.1598224,57.24976 57.1708972,57.296128 C57.3163458,57.91216 57.5526075,58.477408 57.8361215,58.999968 C57.763028,58.934464 57.6899346,58.86896 57.6183178,58.80272 C56.9922243,58.216128 56.4436542,57.593472 56.0604673,56.898688 C55.678757,57.593472 55.1287103,58.218336 54.5011402,58.80272 C54.2279626,59.058112 53.940757,59.306144 53.6469065,59.54976 L53.6469065,57.222528 L53.2703645,57.222528 C53.7886636,56.552032 54.3955607,55.818976 54.9315794,54.984352 C54.9315794,54.981408 54.9345327,54.981408 54.9345327,54.981408 C55.0179626,54.849664 55.1006542,54.715712 55.1796542,54.57808 C55.5982804,53.86048 55.9497196,53.06928 56.1357757,52.191968 C56.1468505,52.141184 56.1571869,52.088192 56.166785,52.035936 C56.2420935,51.642912 56.2834393,51.23296 56.2834393,50.803136 C56.2834393,50.75088 56.2834393,50.697152 56.280486,50.64416 C56.2590748,49.870624 56.0722804,49.147136 55.7570187,48.463392 C55.567271,48.044608 55.3258411,47.639072 55.046757,47.24384 C54.6081963,46.622656 54.0736542,46.030176 53.4734019,45.45168 C52.1998037,44.21888 50.6441682,43.058208 49.140215,41.844544 C48.4144486,41.259424 47.6990187,40.665472 47.0360093,40.043552 C45.9573271,39.035232 45.0130187,37.962144 44.3551776,36.764672 C44.049514,37.31888 43.6803551,37.845856 43.2676355,38.35296 L42.611271,32.61216 L43.261729,32.61216 C43.3924112,33.092032 44.2414766,31.188 43.6161215,31.188 C43.6151371,31.188 43.6134143,30.7130347 43.6109533,29.763104 L42.611271,29.763104 L33.3653178,1.443296 L24.1201028,29.763104 L21.643785,29.763104 L21.643785,32.61216 L24.1201028,32.61216 L23.1351869,41.232192 C23.0643084,41.537632 23.0266542,41.85632 23.0266542,42.185312 L22.5659439,46.21344 C22.5002336,46.501952 22.4640561,46.80224 22.4640561,47.11136 L22.2735701,48.775456 C21.9324673,48.35152 21.5470654,47.940096 21.1284393,47.536032 C19.9124299,46.359168 18.4291495,45.252224 16.9938598,44.094496 C16.6586636,43.824384 16.3271589,43.552064 16.0008224,43.276064 C15.990486,43.266496 15.9786729,43.256928 15.9675981,43.248096 C15.6301869,42.961056 15.3023738,42.671808 14.9863738,42.374464 C13.9571589,41.413984 13.0564112,40.389472 12.4281028,39.2472 C11.7990561,40.389472 10.8946168,41.416192 9.86614019,42.374464 C9.23266355,42.968416 8.55341121,43.535136 7.86160748,44.093024 C6.42705607,45.252224 4.94156075,46.359168 3.72628972,47.536032 C3.42136449,47.830432 3.13563551,48.128512 2.86984112,48.43248 C2.63727103,48.698176 2.42094393,48.969024 2.22528972,49.246496 C1.96023364,49.622592 1.72914019,50.009728 1.54899065,50.410112 C1.24701869,51.061472 1.06834579,51.751104 1.0476729,52.489312 C1.04545794,52.541568 1.04545794,52.591616 1.04545794,52.6424 C1.04545794,53.104608 1.09640187,53.546208 1.18573832,53.965728 C1.19681308,54.017248 1.2101028,54.065088 1.22191589,54.115136 C1.44414953,55.052064 1.85686916,55.882272 2.33160748,56.628576 C2.33160748,56.628576 2.33529907,56.628576 2.33529907,56.63152 C2.84842991,57.425664 3.42727103,58.128544 3.92046729,58.766656 L3.5631215,58.766656 L3.5631215,61.09536 L5.09513084,61.09536 L5.09513084,71.024 L2.52209346,75.98832 L3.01528972,75.98832 L3.01528972,90.880544 L76.0053832,90.880544 L76.0053832,77.27632 L76.4550187,77.27632 L74.1056916,72.741088 L74.1056916,63.67136 L75.5055421,63.67136 L75.5055421,61.543584 L75.1784673,61.543584 C75.6303178,60.961408 76.158215,60.319616 76.6255701,59.59392 C76.7237664,59.442304 76.8153178,59.28848 76.9031776,59.131712 C77.0811121,58.816704 77.2442804,58.487712 77.3801308,58.139584 C77.5026916,57.826784 77.6031028,57.500736 77.6761963,57.158496 C77.7566729,56.775776 77.8039252,56.372448 77.8039252,55.949984 Z" id="Fill-265" fill="#838F93"></path>
                    <path d="M57.6183178,54.332256 C57.6183178,54.694368 57.9129065,54.988768 58.2761589,54.988768 C58.6394112,54.988768 58.934,54.694368 58.934,54.332256 C58.934,53.970144 58.6394112,53.677216 58.2761589,53.677216 C57.9129065,53.677216 57.6183178,53.970144 57.6183178,54.332256" id="Fill-267" fill="#516066"></path>
                    <path d="M3.72998131,90.076096 L16.9554673,90.076096 L16.9554673,79.266464 C16.9554673,78.822656 17.317243,78.46128 17.7631869,78.46128 L19.4052056,78.46128 L19.4052056,76.793504 L3.72998131,76.793504 L3.72998131,90.076096 Z M17.7631869,91.685728 L2.92226168,91.685728 C2.47631776,91.685728 2.11528037,91.325824 2.11528037,90.880544 L2.11528037,75.98832 C2.11528037,75.543776 2.47631776,75.183136 2.92226168,75.183136 L20.2129252,75.183136 C20.6588692,75.183136 21.0206449,75.543776 21.0206449,75.98832 L21.0206449,79.266464 C21.0206449,79.711744 20.6588692,80.071648 20.2129252,80.071648 L18.5709065,80.071648 L18.5709065,90.880544 C18.5709065,91.325824 18.2091308,91.685728 17.7631869,91.685728 L17.7631869,91.685728 Z" id="Fill-268" fill="#516066"></path>
                    <path d="M3.75508411,75.183136 L19.4052056,75.183136 L19.4052056,72.270784 L19.1763271,71.829184 L5.49382243,71.829184 L3.75508411,75.183136 Z M20.2129252,76.793504 L2.42906542,76.793504 C2.14776636,76.793504 1.88640187,76.64704 1.73947664,76.406368 C1.59328972,76.166432 1.58295327,75.868352 1.71142056,75.618112 L4.28445794,70.654528 C4.42326168,70.386624 4.70013084,70.218816 5.0021028,70.218816 L19.6680467,70.218816 C19.9700187,70.218816 20.2468879,70.38736 20.3856916,70.654528 L20.9305701,71.707008 C20.9896355,71.820352 21.0206449,71.94768 21.0206449,72.075744 L21.0206449,75.98832 C21.0206449,76.432864 20.6588692,76.793504 20.2129252,76.793504 L20.2129252,76.793504 Z" id="Fill-269" fill="#516066"></path>
                    <path d="M5.80982243,70.218816 L18.4704953,70.218816 C18.4704953,70.212192 18.4704953,70.206304 18.4704953,70.19968 L18.4704953,68.78288 C18.4704953,68.780672 18.4704953,68.7792 18.4704953,68.776992 C18.2770561,68.526752 18.0740187,68.255168 17.8820561,67.960768 C17.870243,67.944576 17.8591682,67.928384 17.8480935,67.911456 C17.4398037,67.268928 17.1762243,66.653632 17.0418505,66.028768 C16.9731869,65.70272 16.938486,65.375936 16.938486,65.054304 C16.938486,65.009408 16.9392243,64.965248 16.9421776,64.919616 C16.9584206,64.387488 17.0861495,63.86272 17.3209346,63.356352 C17.4398037,63.092128 17.5985421,62.816128 17.8037944,62.523936 C17.9499813,62.31712 18.1146262,62.110304 18.3021589,61.900544 L5.80982243,61.900544 L5.80982243,70.218816 Z M19.6680467,71.829184 L5.0021028,71.829184 C4.55615888,71.829184 4.19438318,71.468544 4.19438318,71.024 L4.19438318,61.096832 C4.19438318,60.652288 4.55615888,60.290176 5.0021028,60.290176 L19.6680467,60.290176 C20.1139907,60.290176 20.4757664,60.650816 20.4757664,61.09536 L20.4757664,61.675328 C20.4757664,61.903488 20.3783084,62.120608 20.207757,62.273696 C20.1162056,62.356128 20.0276075,62.439296 19.9412243,62.522464 C19.5993832,62.851456 19.3335888,63.154688 19.1261215,63.449088 C18.9821495,63.65296 18.8728785,63.841376 18.7916636,64.022432 C18.6395701,64.349952 18.5642617,64.659808 18.5561402,64.980704 C18.5554019,64.99616 18.5546636,65.01088 18.5539252,65.026336 L18.5531869,65.054304 C18.5531869,65.2648 18.5768131,65.480448 18.6218505,65.69536 C18.7134019,66.12224 18.895028,66.543968 19.1910935,67.015744 C19.1984766,67.025312 19.2058598,67.036352 19.2125047,67.047392 L19.213243,67.047392 C19.4465514,67.41024 19.7079159,67.742912 19.9611589,68.064544 L20.1376168,68.28976 C20.3266262,68.53264 20.3598505,68.861632 20.2247383,69.137632 C20.1878224,69.211232 20.1405701,69.278208 20.0859346,69.336352 L20.0859346,69.510048 C20.319243,69.65136 20.4757664,69.906752 20.4757664,70.19968 L20.4757664,71.024 C20.4757664,71.468544 20.1139907,71.829184 19.6680467,71.829184 L19.6680467,71.829184 Z" id="Fill-270" fill="#516066"></path>
                    <path d="M19.6665701,61.90128 L5.0021028,61.90128 C4.55615888,61.90128 4.19438318,61.541376 4.19438318,61.096832 C4.19438318,60.652288 4.55615888,60.290176 5.0021028,60.290176 L19.6665701,60.290176 C20.112514,60.290176 20.4742897,60.650816 20.4742897,61.09536 L20.4742897,61.096832 C20.4742897,61.541376 20.112514,61.90128 19.6665701,61.90128" id="Fill-271" fill="#516066"></path>
                    <path d="M4.22243925,57.961472 L20.4477103,57.961472 C20.4669065,57.937184 20.4868411,57.91216 20.5060374,57.887136 C20.9239252,57.355008 21.3558411,56.803744 21.7471495,56.196544 L21.7478879,56.196544 C21.7530561,56.187712 21.7589626,56.179616 21.7648692,56.170784 C22.0402617,55.735808 22.2588037,55.323648 22.4330467,54.91296 C22.591785,54.536128 22.7069626,54.171072 22.7852243,53.800128 C22.8671776,53.415936 22.9085234,53.027328 22.9085234,52.6424 C22.9085234,52.599712 22.9085234,52.556288 22.9070467,52.5136 C22.9040935,52.3848 22.8944953,52.258208 22.8789907,52.135296 C22.8236168,51.65984 22.6936729,51.207936 22.4802991,50.746464 C22.3259907,50.407168 22.1236916,50.060512 21.8763551,49.70944 C21.7781589,49.5696 21.6688879,49.425344 21.552972,49.28256 C21.2591215,48.916032 20.9069439,48.534048 20.4720748,48.11232 C19.5787103,47.24752 18.5391589,46.424672 17.4390654,45.553248 C17.0898411,45.277984 16.7398785,45.000512 16.3928692,44.720096 C15.7638224,44.212256 15.0277196,43.606528 14.3403458,42.961056 C13.5296729,42.204448 12.8659252,41.470656 12.3350748,40.74128 C11.8027477,41.470656 11.1382617,42.205184 10.3246355,42.962528 C9.61585047,43.6264 8.85759813,44.250528 8.27580374,44.720096 C7.92362617,45.004192 7.56775701,45.28608 7.2141028,45.566496 C6.11917757,46.433504 5.08553271,47.252672 4.19585981,48.113056 C3.60815888,48.681984 3.14966355,49.203808 2.79379439,49.70944 C2.53907477,50.07008 2.34268224,50.407168 2.19280374,50.73984 C1.91814953,51.331584 1.77934579,51.908608 1.76236449,52.512128 C1.75941121,52.571008 1.76014953,52.607072 1.76014953,52.6424 C1.76014953,53.027328 1.80149533,53.415936 1.88271028,53.799392 C2.0458785,54.566304 2.37959813,55.342048 2.90454206,56.172256 C2.90971028,56.179616 2.91561682,56.187712 2.92078505,56.195808 C3.31209346,56.801536 3.74327103,57.351328 4.16042056,57.88272 C4.18109346,57.909216 4.20176636,57.935712 4.22243925,57.961472 Z M20.841972,59.571104 L3.82743925,59.571104 C3.57714953,59.571104 3.34088785,59.455552 3.18805607,59.258304 C3.09133645,59.133184 2.99092523,59.00512 2.88829907,58.874112 C2.47557944,58.347872 2.0082243,57.753184 1.58221495,57.096672 C1.57335514,57.085632 1.56523364,57.07312 1.55711215,57.059872 C0.917728972,56.055968 0.507962617,55.098432 0.30271028,54.1328 C0.198607477,53.640416 0.14471028,53.1392 0.14471028,52.6424 C0.14471028,52.577632 0.145448598,52.512128 0.149140187,52.445888 C0.169813084,51.654688 0.363252336,50.848032 0.722813084,50.072288 C0.91182243,49.653504 1.15768224,49.229568 1.47220561,48.783552 C1.88714019,48.194016 2.40986916,47.597856 3.07066355,46.958272 C4.01792523,46.041952 5.13204673,45.158752 6.20925234,44.305728 C6.55921495,44.028992 6.91065421,43.750048 7.2598785,43.468896 C7.81952336,43.016256 8.54898131,42.417152 9.22085047,41.787872 C10.3209439,40.762624 11.1072523,39.805824 11.627028,38.8608 C11.768785,38.602464 12.040486,38.442016 12.3350748,38.442016 C12.6296636,38.442016 12.9013645,38.602464 13.0431215,38.8608 C13.5636355,39.805824 14.3492056,40.76336 15.4456075,41.787136 C16.0968037,42.398016 16.8033738,42.979456 17.4087944,43.468896 C17.7521121,43.745632 18.0983832,44.02016 18.4431776,44.293216 C19.5262897,45.150656 20.6455794,46.0368 21.5980093,46.958272 C22.0823458,47.42784 22.4795607,47.8584 22.8125421,48.274976 C22.9476542,48.441312 23.0775981,48.614272 23.1972056,48.782816 C23.5028692,49.21632 23.7561121,49.652032 23.9495514,50.078176 C24.2286355,50.682432 24.408785,51.311712 24.4826168,51.942464 C24.5032897,52.111008 24.5173178,52.289856 24.5217477,52.467968 C24.5232243,52.525376 24.5232243,52.584256 24.5232243,52.6424 C24.5232243,53.1392 24.4708037,53.641152 24.3652243,54.133536 C24.2662897,54.603104 24.1208411,55.062368 23.9222336,55.536352 C23.7081215,56.041984 23.4430654,56.538784 23.1115607,57.059872 C23.1034393,57.07312 23.0945794,57.085632 23.0857196,57.098144 C22.6597103,57.755392 22.1916168,58.351552 21.7781589,58.879264 C21.6770093,59.008064 21.5780748,59.134656 21.4820935,59.25904 C21.3285234,59.455552 21.0922617,59.571104 20.841972,59.571104 L20.841972,59.571104 Z" id="Fill-272" fill="#516066"></path>
                    <path d="M4.27781308,60.290176 L20.0504953,60.290176 C20.1634579,60.198912 20.2778972,60.106912 20.3923364,60.015648 L20.3923364,59.571104 L4.27781308,59.571104 L4.27781308,60.290176 Z M20.3406542,61.900544 L3.47009346,61.900544 C3.02414953,61.900544 2.66237383,61.539904 2.66237383,61.09536 L2.66237383,58.766656 C2.66237383,58.322112 3.02414953,57.961472 3.47009346,57.961472 L21.2000561,57.961472 C21.646,57.961472 22.0077757,58.322112 22.0077757,58.766656 L22.0077757,60.40352 C22.0077757,60.649344 21.8948131,60.882656 21.7013738,61.035008 C21.485785,61.205024 21.2701963,61.377248 21.0597757,61.547264 L21.0265514,61.574496 C20.9704393,61.620864 20.9150654,61.665024 20.8596916,61.711392 C20.7149813,61.833568 20.5304019,61.900544 20.3406542,61.900544 L20.3406542,61.900544 Z" id="Fill-275" fill="#516066"></path>
                    <polygon id="Fill-276" fill="#516066" points="8.14881308 86.270976 10.1193832 86.270976 10.1193832 80.597888 8.14881308 80.597888"></polygon>
                    <polygon id="Fill-277" fill="#516066" points="14.5515047 86.270976 16.5213364 86.270976 16.5213364 80.597888 14.5515047 80.597888"></polygon>
                    <path d="M23.5767009,53.965728 C23.3648037,54.963744 22.9306729,55.841792 22.4300935,56.628576 C22.4300935,56.628576 22.4278785,56.628576 22.4278785,56.630784 C21.9169626,57.030432 21.2118692,57.52208 19.9943832,57.52208 C18.6787009,57.52208 17.9640093,56.949472 17.4405421,56.534368 C17.0034579,56.18624 16.7635047,55.99488 16.1632523,55.99488 C15.563,55.99488 15.3230467,56.18624 14.8867009,56.534368 C14.3654486,56.949472 13.650757,57.52208 12.3328598,57.52208 C11.0171776,57.52208 10.302486,56.949472 9.78197196,56.534368 C9.34488785,56.18624 9.10271963,55.99488 8.50468224,55.99488 C7.90442991,55.99488 7.66447664,56.18624 7.22813084,56.534368 C6.7068785,56.949472 5.9914486,57.52208 4.67650467,57.52208 C3.45828037,57.52208 2.75318692,57.030432 2.24300935,56.630784 C2.24300935,56.628576 2.24005607,56.628576 2.24005607,56.628576 C1.73947664,55.841792 1.30534579,54.963744 1.0934486,53.965728 C2.25334579,54.031968 2.90897196,54.556736 3.39921495,54.943136 C3.83629907,55.292 4.07625234,55.485568 4.67650467,55.485568 C5.27454206,55.485568 5.51449533,55.292 5.95084112,54.943136 C6.47430841,54.528768 7.18973832,53.958368 8.50468224,53.958368 C9.81962617,53.958368 10.5350561,54.528768 11.0563084,54.943136 C11.4948692,55.292 11.7355607,55.485568 12.3328598,55.485568 C12.9331121,55.485568 13.1730654,55.292 13.6094112,54.943136 C14.1328785,54.528768 14.8483084,53.958368 16.1632523,53.958368 C17.4781963,53.958368 18.1965794,54.528768 18.7170935,54.943136 C19.1534393,55.292 19.3941308,55.485568 19.9943832,55.485568 C20.5946355,55.485568 20.8345888,55.292 21.2709346,54.943136 C21.7611776,54.556736 22.4175421,54.031968 23.5767009,53.965728" id="Fill-282" fill="#516066"></path>
                    <path d="M23.7147664,52.489312 C23.6689907,52.522432 23.6202617,52.55776 23.5693178,52.593824 C22.9771869,53.018496 22.2359159,53.548416 20.8441869,53.548416 C19.450243,53.548416 18.7119252,53.018496 18.1197944,52.593824 C17.6391495,52.250112 17.3224112,52.021216 16.5870467,52.021216 C15.8546355,52.021216 15.5378972,52.250112 15.0579907,52.593824 C14.4651215,53.018496 13.7268037,53.548416 12.3328598,53.548416 C10.9411308,53.548416 10.2028131,53.018496 9.61068224,52.593824 C9.13003738,52.250112 8.81403738,52.021216 8.07793458,52.021216 C7.34552336,52.021216 7.02878505,52.250112 6.5488785,52.593824 C5.95600935,53.018496 5.21769159,53.548416 3.82596262,53.548416 C2.43201869,53.548416 1.69370093,53.018496 1.10157009,52.593824 C1.04988785,52.55776 1.0018972,52.522432 0.955383178,52.489312 C0.976056075,51.750368 1.15472897,51.061472 1.45596262,50.409376 C1.78303738,50.572768 2.05104673,50.766336 2.29616822,50.941504 C2.77385981,51.285216 3.09059813,51.511904 3.82596262,51.511904 C4.55911215,51.511904 4.87585047,51.285216 5.35575701,50.941504 C5.94862617,50.516832 6.68620561,49.983968 8.07793458,49.983968 C9.47261682,49.983968 10.2109346,50.513888 10.8030654,50.941504 C11.282972,51.285216 11.5997103,51.511904 12.3328598,51.511904 C13.0682243,51.511904 13.3849626,51.285216 13.8648692,50.941504 C14.4577383,50.513888 15.1953178,49.983968 16.5870467,49.983968 C17.981729,49.983968 18.7193084,50.513888 19.3121776,50.941504 C19.7920841,51.285216 20.1088224,51.511904 20.8441869,51.511904 C21.5773364,51.511904 21.8940748,51.285216 22.3739813,50.941504 C22.6191028,50.766336 22.8878505,50.572768 23.2141869,50.409376 C23.5161589,51.061472 23.6940935,51.750368 23.7147664,52.489312" id="Fill-283" fill="#516066"></path>
                    <path d="M22.5371495,49.24576 C22.0985888,49.43712 21.5566636,49.57696 20.8441869,49.57696 C19.450243,49.57696 18.7119252,49.047776 18.1197944,48.622368 C17.6391495,48.276448 17.3224112,48.04976 16.5870467,48.04976 C15.8546355,48.04976 15.5378972,48.276448 15.0579907,48.622368 C14.4651215,49.047776 13.7268037,49.57696 12.3328598,49.57696 C10.9411308,49.57696 10.2028131,49.047776 9.61068224,48.622368 C9.13003738,48.276448 8.81403738,48.04976 8.07793458,48.04976 C7.34552336,48.04976 7.02878505,48.276448 6.5488785,48.622368 C5.95600935,49.047776 5.21769159,49.57696 3.82596262,49.57696 C3.11127103,49.57696 2.56934579,49.43712 2.133,49.24576 C2.55162617,48.652544 3.06254206,48.088032 3.63473832,47.535296 C3.69306542,47.53824 3.75951402,47.540448 3.82596262,47.540448 C4.55911215,47.540448 4.87585047,47.31376 5.35575701,46.970048 C5.94862617,46.542432 6.68620561,46.013248 8.07793458,46.013248 C9.47261682,46.013248 10.2109346,46.542432 10.8030654,46.967104 C11.282972,47.31376 11.5997103,47.540448 12.3328598,47.540448 C13.0682243,47.540448 13.3849626,47.31376 13.8648692,46.967104 C14.4577383,46.542432 15.1953178,46.013248 16.5870467,46.013248 C17.981729,46.013248 18.7193084,46.542432 19.3121776,46.967104 C19.7920841,47.31376 20.1088224,47.540448 20.8441869,47.540448 C20.9106355,47.540448 20.9748692,47.53824 21.0361495,47.535296 C21.6083458,48.088032 22.1185234,48.652544 22.5371495,49.24576" id="Fill-284" fill="#516066"></path>
                    <path d="M16.9015701,44.093024 C16.8070654,44.083456 16.7022243,44.078304 16.5870467,44.078304 C15.8546355,44.078304 15.5378972,44.304256 15.0579907,44.648704 C14.4651215,45.07632 13.7268037,45.605504 12.3328598,45.605504 C10.9411308,45.605504 10.2028131,45.07632 9.61068224,44.648704 C9.13003738,44.304256 8.81403738,44.078304 8.07793458,44.078304 C7.96571028,44.078304 7.86382243,44.083456 7.76931776,44.093024 C8.4611215,43.535872 9.14037383,42.968416 9.77385047,42.3752 C10.1924766,42.558464 10.5143832,42.78736 10.8030654,42.996384 C11.282972,43.340096 11.5997103,43.568992 12.3328598,43.568992 C13.0682243,43.568992 13.3849626,43.340096 13.8648692,42.996384 C14.1535514,42.78736 14.4754579,42.558464 14.8940841,42.3752 C15.5275607,42.968416 16.2097664,43.535872 16.9015701,44.093024" id="Fill-285" fill="#516066"></path>
                    <path d="M29.1399252,71.0056 L20.5503364,71.0056 C20.1043925,71.0056 19.7426168,70.64496 19.7426168,70.200416 C19.7426168,69.755872 20.1043925,69.39376 20.5503364,69.39376 L29.1399252,69.39376 C29.5858692,69.39376 29.9476449,69.7544 29.9476449,70.198944 C29.9476449,70.643488 29.5858692,71.0056 29.1399252,71.0056" id="Fill-286" fill="#516066"></path>
                    <path d="M32.3966449,90.076096 L33.5905047,90.076096 L33.5905047,76.023648 C33.4265981,75.960352 33.2855794,75.845536 33.1918131,75.691712 C33.0456262,75.451776 33.0352897,75.15296 33.163757,74.903456 L35.7692804,69.874368 L35.7692804,60.467552 L34.9711589,60.467552 C34.525215,60.467552 34.1634393,60.107648 34.1634393,59.662368 L34.1634393,57.222528 C34.1634393,57.16144 34.1700841,57.10256 34.1826355,57.045888 C33.9360374,56.729408 33.6754112,56.389376 33.4206916,56.030944 L23.6955701,56.030944 C23.527972,56.369504 23.3345327,56.709536 23.1115607,57.059872 C23.1034393,57.07312 23.0945794,57.085632 23.0857196,57.097408 C22.7320654,57.644256 22.3481402,58.149152 21.9915327,58.606944 C21.9981776,58.641536 22.0033458,58.6776 22.0055607,58.712928 C22.2122897,58.537024 22.3946542,58.374368 22.561514,58.216864 C23.2090187,57.614816 23.667514,57.0584 23.9680093,56.511552 C24.1097664,56.254688 24.380729,56.09424 24.6753178,56.093504 C24.6760561,56.093504 24.6760561,56.093504 24.6760561,56.093504 C24.9706449,56.093504 25.2416075,56.253952 25.3841028,56.510816 C25.6860748,57.0584 26.1445701,57.615552 26.7854299,58.214656 C27.1080748,58.51568 27.4824019,58.835104 27.9623084,59.220768 C28.1749439,59.392256 28.3868411,59.560064 28.5972617,59.727136 C29.2610093,60.25264 29.9476449,60.796544 30.5368224,61.36768 C30.9532336,61.7688 31.2847383,62.147104 31.5490561,62.522464 C31.7587383,62.824224 31.9174766,63.098752 32.0378224,63.368128 C32.2696542,63.869344 32.3966449,64.400736 32.4121495,64.93728 C32.4136262,64.968928 32.4136262,65.011616 32.4136262,65.054304 C32.4136262,65.380352 32.3789252,65.707872 32.3095234,66.03024 C32.1766262,66.65584 31.9123084,67.272608 31.5032804,67.912928 C31.4981121,67.921024 31.4922056,67.929856 31.4862991,67.937952 C31.2899065,68.24192 31.0809626,68.522336 30.8823551,68.778464 C30.8823551,68.779936 30.8823551,68.781408 30.8823551,68.78288 L30.8823551,70.19968 C30.8823551,70.643488 30.5205794,71.004864 30.0746355,71.004864 L29.9483832,71.004864 L29.9483832,78.46128 L31.5896636,78.46128 C32.0356075,78.46128 32.3966449,78.822656 32.3966449,79.266464 L32.3966449,90.076096 Z M34.397486,91.685728 L31.5896636,91.685728 C31.1437196,91.685728 30.7819439,91.325824 30.7819439,90.880544 L30.7819439,80.071648 L29.1414019,80.071648 C28.6954579,80.071648 28.3336822,79.711744 28.3336822,79.266464 L28.3336822,70.19968 C28.3336822,69.7544 28.6954579,69.394496 29.1414019,69.394496 L29.2669159,69.394496 L29.2669159,69.33488 C29.2122804,69.277472 29.1657664,69.210496 29.1295888,69.137632 C28.9944766,68.861632 29.0277009,68.53264 29.2167103,68.28976 L29.3931682,68.064544 C29.6464112,67.742176 29.9077757,67.409504 30.1410841,67.047392 C30.1447757,67.041504 30.1484673,67.035616 30.1528972,67.029728 C30.4497009,66.562368 30.637972,66.124448 30.7302617,65.693152 C30.7760374,65.480448 30.7989252,65.266272 30.7989252,65.054304 C30.7989252,65.034432 30.7989252,65.015296 30.7981869,64.99616 C30.7885888,64.660544 30.7132804,64.349216 30.5663551,64.032 C30.4836636,63.847264 30.3736542,63.657376 30.2252523,63.443936 C30.0229533,63.157632 29.7556822,62.8544 29.4123645,62.5232 C28.8792991,62.007264 28.2546822,61.511936 27.5924112,60.987168 C27.3775607,60.817152 27.161972,60.6464 26.9478598,60.47344 C26.4369439,60.063488 26.0338224,59.71904 25.6809065,59.388576 C25.2955047,59.028672 24.961785,58.676128 24.6760561,58.32432 C24.3903271,58.676128 24.0551308,59.029408 23.6667757,59.390784 C23.3227196,59.714624 22.9203364,60.060544 22.4027757,60.475648 C22.2085981,60.632416 22.010729,60.789184 21.8143364,60.945216 L21.7035888,61.033536 C21.4606822,61.226368 21.1291776,61.263168 20.8493551,61.129216 C20.570271,60.995264 20.3923364,60.71264 20.3923364,60.40352 L20.3923364,59.434944 C20.2771589,59.357664 20.1811776,59.250944 20.1176822,59.121408 C19.9818318,58.846144 20.0150561,58.517888 20.2033271,58.275008 C20.3015234,58.148416 20.4026729,58.01888 20.5060374,57.887136 C20.9239252,57.355008 21.3558411,56.803744 21.7471495,56.196544 L21.7478879,56.196544 C21.7530561,56.187712 21.7589626,56.179616 21.7648692,56.170784 C22.0402617,55.735808 22.2588037,55.323648 22.4330467,54.91296 C22.5592991,54.61488 22.8524112,54.420576 23.177271,54.420576 L33.844486,54.420576 C34.113972,54.420576 34.3657383,54.555264 34.5156168,54.778272 C34.8818224,55.322912 35.2753458,55.824864 35.6555794,56.309888 C35.7685421,56.453408 35.8785514,56.593984 35.9848692,56.73088 C36.1731402,56.97376 36.2056262,57.302016 36.0697757,57.57728 C36.0033271,57.71344 35.9014393,57.82384 35.7781402,57.901856 L35.7781402,58.85792 L36.577,58.85792 C37.0229439,58.85792 37.3839813,59.21856 37.3839813,59.662368 L37.3839813,70.069408 C37.3839813,70.198208 37.352972,70.3248 37.2939065,70.43888 L35.0420374,74.787168 C35.1446636,74.921856 35.2052056,75.089664 35.2052056,75.272192 L35.2052056,90.880544 C35.2052056,91.325824 34.8434299,91.685728 34.397486,91.685728 L34.397486,91.685728 Z" id="Fill-287" fill="#516066"></path>
                    <path d="M45.9957196,60.469024 L36.5777383,60.469024 C36.1317944,60.469024 35.7700187,60.108384 35.7700187,59.66384 C35.7700187,59.220032 36.1317944,58.85792 36.5777383,58.85792 L45.9957196,58.85792 C46.4416636,58.85792 46.8034393,59.217824 46.8034393,59.662368 C46.8034393,60.106912 46.4416636,60.469024 45.9957196,60.469024" id="Fill-288" fill="#516066"></path>
                    <path d="M24.3541495,51.230752 L31.5379813,51.230752 C31.5298598,51.087968 31.5254299,50.94592 31.5254299,50.803136 C31.5254299,50.737632 31.5254299,50.66992 31.5291215,50.601472 C31.551271,49.774944 31.7528318,48.935168 32.1271589,48.126304 C32.167028,48.039456 32.2039439,47.960704 32.2438131,47.881952 C32.4247009,47.522784 32.6476729,47.152576 32.9082991,46.782368 C32.9393084,46.737472 32.9762243,46.68816 33.0131402,46.637376 C33.4265981,46.070656 33.9389907,45.493632 34.5798505,44.87392 C34.8648411,44.600128 35.1741963,44.316768 35.501271,44.031936 C36.2602617,43.368064 37.0908692,42.71008 37.8941589,42.074912 C38.1119626,41.902688 38.3297664,41.729728 38.5468318,41.556768 C38.6878505,41.444896 38.8281308,41.332288 38.9684112,41.218944 C39.5959813,40.71184 40.3313458,40.106112 41.0246262,39.45696 C41.2963271,39.20304 41.5532617,38.949856 41.788785,38.704768 C41.9807477,38.50384 42.1631121,38.303648 42.3329252,38.104928 L41.7983832,33.416608 L24.7491495,33.416608 L23.8461869,41.324928 C23.8454486,41.333024 23.843972,41.34112 23.8432336,41.34848 L23.7398692,42.239776 C23.7391308,42.252288 23.7383925,42.265536 23.7369159,42.276576 L23.2784206,46.282624 C23.2776822,46.292192 23.2769439,46.30176 23.2754673,46.311328 L23.1757944,47.18128 C23.1750561,47.18864 23.1743178,47.195264 23.1735794,47.202624 L23.0207477,48.541408 C23.082028,48.622368 23.1410935,48.702592 23.1972056,48.782816 C23.5028692,49.21632 23.7561121,49.652032 23.9495514,50.078176 C24.1237944,50.455008 24.2589065,50.840672 24.3541495,51.230752 Z M32.4505421,52.84112 L23.6808037,52.84112 C23.2710374,52.84112 22.926243,52.53568 22.8782523,52.129408 C22.8236168,51.65984 22.6936729,51.207936 22.4802991,50.746464 C22.3259907,50.407168 22.1236916,50.060512 21.8763551,49.70944 C21.7781589,49.5696 21.6688879,49.425344 21.552972,49.28256 C21.4171215,49.114752 21.3543645,48.89984 21.3794673,48.685664 L21.567,47.039232 C21.5677383,47.031136 21.5684766,47.024512 21.569215,47.017152 L21.6666729,46.171488 C21.6681495,46.144256 21.6711028,46.117024 21.6747944,46.089792 L22.1288598,42.122016 C22.1295981,42.108768 22.1310748,42.094784 22.1325514,42.083744 L22.2403458,41.151968 C22.2410841,41.145344 22.2418224,41.139456 22.2425607,41.132832 L23.226,32.520896 C23.272514,32.113888 23.6173084,31.806976 24.0278131,31.806976 L42.5197196,31.806976 C42.9302243,31.806976 43.2750187,32.113888 43.3215327,32.520896 L43.9771589,38.263904 C44.0015234,38.47808 43.9387664,38.692992 43.8029159,38.861536 C43.5467196,39.176544 43.261729,39.498912 42.9553271,39.818336 C42.6991308,40.084768 42.4222617,40.357824 42.1298879,40.630144 C41.3996916,41.31536 40.636271,41.94464 39.9850748,42.470144 C39.8418411,42.585696 39.6993458,42.700512 39.5561121,42.814592 C39.3368318,42.988288 39.1168131,43.16272 38.898271,43.33568 C38.0743084,43.988512 37.2961215,44.604544 36.5659252,45.242656 C36.2573084,45.511296 35.9678879,45.776256 35.7028318,46.030912 C35.1313738,46.584384 34.6780467,47.092224 34.3192243,47.584608 C34.2852617,47.63024 34.2601589,47.664832 34.2357944,47.70016 C34.0157757,48.01296 33.8326729,48.315456 33.6872243,48.603968 C33.6554766,48.666528 33.6259439,48.729824 33.5971495,48.793856 C33.307729,49.419456 33.1608037,50.0296 33.1430841,50.66624 C33.1401308,50.72512 33.1401308,50.764864 33.1401308,50.803136 C33.1401308,51.162304 33.1748318,51.526624 33.2434953,51.885056 C33.2885327,52.120576 33.2257757,52.364192 33.0722056,52.548928 C32.9193738,52.733664 32.6912336,52.84112 32.4505421,52.84112 L32.4505421,52.84112 Z" id="Fill-289" fill="#516066"></path>
                    <path d="M25.1397196,28.958656 L41.4070748,28.958656 L33.273028,4.04432 L25.1397196,28.958656 Z M42.5189813,30.568288 L24.0278131,30.568288 C23.7694019,30.568288 23.5264953,30.44464 23.3744019,30.236352 C23.2223084,30.028064 23.1802243,29.76016 23.2599626,29.515072 L32.5051776,1.193792 C32.6137103,0.862592 32.9238037,0.638112 33.273028,0.638112 C33.6229907,0.638112 33.9330841,0.862592 34.0408785,1.193792 L43.2868318,29.515072 C43.3665701,29.76016 43.324486,30.028064 43.1723925,30.236352 C43.0202991,30.44464 42.7773925,30.568288 42.5189813,30.568288 L42.5189813,30.568288 Z" id="Fill-290" fill="#516066"></path>
                    <path d="M23.0975327,31.806976 L43.45,31.806976 L43.45,30.568288 L23.0975327,30.568288 L23.0975327,31.806976 Z M44.2569813,33.416608 L22.2898131,33.416608 C21.8431308,33.416608 21.4820935,33.055968 21.4820935,32.61216 L21.4820935,29.763104 C21.4820935,29.319296 21.8431308,28.958656 22.2898131,28.958656 L44.2569813,28.958656 C44.7029252,28.958656 45.0647009,29.319296 45.0647009,29.763104 L45.0647009,32.61216 C45.0647009,33.055968 44.7029252,33.416608 44.2569813,33.416608 L44.2569813,33.416608 Z" id="Fill-291" fill="#516066"></path>
                    <path d="M24.2987757,54.420576 L32.4320841,54.420576 C32.1625981,53.888448 31.9566075,53.364416 31.8089439,52.84112 L24.5210093,52.84112 C24.5084579,53.272416 24.4567757,53.706656 24.3652243,54.133536 C24.3452897,54.229952 24.3231402,54.325632 24.2987757,54.420576 Z M33.844486,56.030944 L23.177271,56.030944 C22.9070467,56.030944 22.6545421,55.896256 22.5046636,55.672512 C22.354785,55.448032 22.3282056,55.163936 22.4323084,54.915168 C22.591785,54.536128 22.7069626,54.171072 22.7852243,53.800128 C22.8671776,53.415936 22.9085234,53.027328 22.9085234,52.6424 C22.9085234,52.599712 22.9085234,52.556288 22.9070467,52.5136 C22.9040935,52.3848 22.8944953,52.258208 22.8789907,52.135296 C22.8509346,51.9064 22.9218131,51.676032 23.0753832,51.503808 C23.2289533,51.330112 23.448972,51.230752 23.6808037,51.230752 L32.4505421,51.230752 C32.8462804,51.230752 33.1836916,51.517056 33.2471869,51.9064 C33.2538318,51.9432 33.2604766,51.980736 33.2685981,52.017536 C33.4413645,52.832288 33.7935421,53.649984 34.3472804,54.525088 C34.3539252,54.53392 34.3598318,54.542752 34.3657383,54.55232 C34.4122523,54.625184 34.4587664,54.69584 34.5074953,54.766496 C34.6795234,55.01232 34.6994579,55.333216 34.5606542,55.598912 C34.4211121,55.864608 34.1457196,56.030944 33.844486,56.030944 L33.844486,56.030944 Z" id="Fill-292" fill="#516066"></path>
                    <path d="M26.2361215,48.229344 C24.1452056,48.229344 22.450028,49.934656 22.450028,52.036672 L30.0214766,52.036672 C30.0214766,49.934656 28.3270374,48.229344 26.2361215,48.229344" id="Fill-293" fill="#516066"></path>
                    <path d="M32.8699065,50.643424 C32.8669533,50.697152 32.8669533,50.75088 32.8669533,50.8024 C32.8669533,51.23296 32.9097757,51.642912 32.9843458,52.035936 L30.0214766,52.035936 C30.0214766,50.037696 31.5520093,48.39936 33.4996916,48.242592 C33.4627757,48.315456 33.4288131,48.389056 33.3941121,48.463392 C33.0781121,49.147136 32.8913178,49.869888 32.8699065,50.643424" id="Fill-294" fill="#516066"></path>
                    <path d="M26.5395701,43.304032 C24.5328224,43.304032 22.9055701,45.007872 22.9055701,47.11136 L30.1735701,47.11136 C30.1735701,45.007872 28.5470561,43.304032 26.5395701,43.304032" id="Fill-295" fill="#516066"></path>
                    <path d="M36.5674019,44.636928 C36.2595234,44.905568 35.9619813,45.177152 35.6769907,45.45168 C35.1210374,45.988224 34.6189813,46.536544 34.2003551,47.11136 L30.1735701,47.11136 C30.1735701,45.008608 31.8000841,43.303296 33.8075701,43.303296 C34.9120935,43.303296 35.9021776,43.820704 36.5674019,44.636928" id="Fill-296" fill="#516066"></path>
                    <path d="M42.9058598,39.261184 C42.6511402,39.52688 42.3860841,39.787424 42.1121682,40.042816 C41.4484206,40.665472 40.7359439,41.259424 40.0109159,41.844544 C39.8691589,41.95936 39.7274019,42.071968 39.5856449,42.184576 L37.2540374,42.184576 C37.2540374,40.08256 38.7971215,38.379456 40.7005047,38.379456 C41.5407103,38.379456 42.3092991,38.70992 42.9058598,39.261184" id="Fill-297" fill="#516066"></path>
                    <path d="M26.9146355,38.37872 C25.0112523,38.37872 23.4681682,40.08256 23.4681682,42.184576 L30.3611028,42.184576 C30.3611028,40.08256 28.8180187,38.37872 26.9146355,38.37872" id="Fill-298" fill="#516066"></path>
                    <path d="M33.8075701,38.37872 C31.9041869,38.37872 30.3611028,40.08256 30.3611028,42.184576 L37.2540374,42.184576 C37.2540374,40.08256 35.7109533,38.37872 33.8075701,38.37872" id="Fill-299" fill="#516066"></path>
                    <polyline id="Fill-300" fill="#516066" points="28.2901215 23.904544 26.783215 28.287424 29.797028 28.287424 28.2901215 23.904544"></polyline>
                    <polyline id="Fill-301" fill="#516066" points="33.273028 23.904544 31.7661215 28.287424 34.7799346 28.287424 33.273028 23.904544"></polyline>
                    <polyline id="Fill-302" fill="#516066" points="38.2559346 23.904544 36.749028 28.287424 39.7628411 28.287424 38.2559346 23.904544"></polyline>
                    <path d="M18.5709065,90.076096 L30.7819439,90.076096 L30.7819439,80.071648 L18.5709065,80.071648 L18.5709065,90.076096 Z M31.5896636,91.685728 L17.7631869,91.685728 C17.317243,91.685728 16.9554673,91.325824 16.9554673,90.880544 L16.9554673,79.266464 C16.9554673,78.822656 17.317243,78.46128 17.7631869,78.46128 L31.5896636,78.46128 C32.0356075,78.46128 32.3966449,78.822656 32.3966449,79.266464 L32.3966449,90.880544 C32.3966449,91.325824 32.0356075,91.685728 31.5896636,91.685728 L31.5896636,91.685728 Z" id="Fill-305" fill="#516066"></path>
                    <path d="M21.0206449,78.46128 L28.3336822,78.46128 L28.3336822,71.006336 L21.0206449,71.006336 L21.0206449,78.46128 Z M29.1414019,80.071648 L20.2129252,80.071648 C19.766243,80.071648 19.4052056,79.711744 19.4052056,79.266464 L19.4052056,70.201152 C19.4052056,69.756608 19.766243,69.395968 20.2129252,69.395968 L29.0889813,69.395968 C29.5467383,69.365792 29.9483832,69.738208 29.9483832,70.19968 L29.9483832,79.266464 C29.9483832,79.711744 29.5873458,80.071648 29.1414019,80.071648 L29.1414019,80.071648 Z" id="Fill-306" fill="#516066"></path>
                    <path d="M29.1399252,71.006336 L20.2129252,71.006336 C19.766243,71.006336 19.4052056,70.64496 19.4052056,70.201152 C19.4052056,69.756608 19.766243,69.394496 20.2129252,69.394496 L29.1399252,69.394496 C29.5858692,69.394496 29.9476449,69.7544 29.9476449,70.19968 L29.9476449,70.201152 C29.9476449,70.64496 29.5858692,71.006336 29.1399252,71.006336" id="Fill-307" fill="#516066"></path>
                    <path d="M29.1399252,71.006336 L20.2129252,71.006336 C19.766243,71.006336 19.4052056,70.64496 19.4052056,70.201152 C19.4052056,69.756608 19.766243,69.394496 20.2129252,69.394496 L29.1399252,69.394496 C29.5858692,69.394496 29.9476449,69.7544 29.9476449,70.19968 L29.9476449,70.201152 C29.9476449,70.64496 29.5858692,71.006336 29.1399252,71.006336" id="Fill-308" fill="#516066"></path>
                    <path d="M19.8932336,67.977696 L29.4610935,67.977696 C29.6929252,67.68256 29.9284486,67.37712 30.1410841,67.047392 C30.1447757,67.041504 30.1484673,67.035616 30.1528972,67.029728 C30.4497009,66.562368 30.637972,66.124448 30.7302617,65.693152 C30.7760374,65.480448 30.7989252,65.266272 30.7989252,65.054304 C30.7989252,65.034432 30.7989252,65.015296 30.7981869,64.99616 C30.7885888,64.660544 30.7132804,64.349216 30.5663551,64.032 C30.4836636,63.847264 30.3736542,63.657376 30.2252523,63.443936 C30.0229533,63.157632 29.7556822,62.8544 29.4123645,62.5232 C28.8792991,62.007264 28.2546822,61.511936 27.5924112,60.987168 C27.3775607,60.817152 27.161972,60.6464 26.9478598,60.47344 C26.4369439,60.063488 26.0338224,59.71904 25.6809065,59.388576 C25.2955047,59.028672 24.961785,58.676128 24.6760561,58.32432 C24.3903271,58.676128 24.0551308,59.029408 23.6667757,59.390784 C23.3227196,59.714624 22.9203364,60.060544 22.4027757,60.475648 C22.2085981,60.632416 22.010729,60.789184 21.8143364,60.945216 L21.7035888,61.033536 C21.485785,61.205024 21.2701963,61.377248 21.0597757,61.547264 L21.0265514,61.574496 C20.9704393,61.620864 20.9150654,61.665024 20.8596916,61.711392 C20.5983271,61.929248 20.3930748,62.105888 20.2114486,62.270752 C20.1162056,62.356128 20.0276075,62.439296 19.9412243,62.522464 C19.5993832,62.851456 19.3335888,63.154688 19.1261215,63.449088 C18.9821495,63.65296 18.8728785,63.841376 18.7916636,64.022432 C18.6395701,64.349952 18.5642617,64.659808 18.5561402,64.980704 C18.5554019,64.998368 18.5546636,65.016032 18.5531869,65.03296 L18.5531869,65.054304 C18.5531869,65.2648 18.5768131,65.480448 18.6218505,65.69536 C18.7134019,66.12224 18.895028,66.543968 19.1910935,67.015744 C19.1984766,67.025312 19.2058598,67.036352 19.2125047,67.047392 L19.213243,67.047392 C19.4258785,67.37712 19.6614019,67.68256 19.8932336,67.977696 Z M29.8553551,69.588064 L19.498972,69.588064 C19.2494206,69.588064 19.0131589,69.473248 18.8603271,69.275264 L18.6897757,69.057408 C18.4357944,68.734304 18.1485888,68.369984 17.8820561,67.960768 C17.870243,67.944576 17.8591682,67.928384 17.8480935,67.911456 C17.4398037,67.268928 17.1762243,66.653632 17.0418505,66.028768 C16.9731869,65.70272 16.938486,65.375936 16.938486,65.054304 C16.938486,65.009408 16.9392243,64.965248 16.9421776,64.919616 C16.9584206,64.387488 17.0861495,63.86272 17.3209346,63.356352 C17.4398037,63.092128 17.5985421,62.816128 17.8037944,62.523936 C18.0718037,62.144896 18.4025701,61.766592 18.8175047,61.366208 C18.9171776,61.269792 19.0212804,61.171904 19.1283364,61.076224 C19.324729,60.898112 19.5462243,60.706752 19.8230935,60.47712 C19.8814206,60.428544 19.9419626,60.378496 20.003243,60.329184 L20.0386822,60.30048 C20.256486,60.123104 20.477243,59.9472 20.6987383,59.772768 L20.8080093,59.68592 C21.0007103,59.532832 21.1956262,59.378272 21.3883271,59.22224 C21.8734019,58.833632 22.245514,58.514208 22.561514,58.216864 C23.2090187,57.614816 23.667514,57.0584 23.9680093,56.511552 C24.1097664,56.254688 24.380729,56.09424 24.6753178,56.093504 C24.6760561,56.093504 24.6760561,56.093504 24.6760561,56.093504 C24.9706449,56.093504 25.2416075,56.253952 25.3841028,56.510816 C25.6860748,57.0584 26.1445701,57.615552 26.7854299,58.214656 C27.1080748,58.51568 27.4824019,58.835104 27.9623084,59.220768 C28.1749439,59.392256 28.3868411,59.560064 28.5972617,59.727136 C29.2610093,60.25264 29.9476449,60.796544 30.5368224,61.36768 C30.9532336,61.7688 31.2847383,62.147104 31.5490561,62.522464 C31.7587383,62.824224 31.9174766,63.098752 32.0378224,63.368128 C32.2696542,63.869344 32.3966449,64.400736 32.4121495,64.93728 C32.4136262,64.968928 32.4136262,65.011616 32.4136262,65.054304 C32.4136262,65.380352 32.3789252,65.707872 32.3095234,66.03024 C32.1766262,66.65584 31.9123084,67.272608 31.5032804,67.912928 C31.4981121,67.921024 31.4922056,67.929856 31.4870374,67.937952 C31.2160748,68.355264 30.9229626,68.728416 30.6645514,69.057408 L30.4932617,69.275264 C30.3404299,69.473248 30.1041682,69.588064 29.8553551,69.588064 L29.8553551,69.588064 Z" id="Fill-309" fill="#516066"></path>
                    <path d="M24.6767944,57.703136 C24.2308505,57.703136 23.8690748,57.342496 23.8690748,56.898688 L23.8690748,52.414976 C23.8690748,51.969696 24.2308505,51.609792 24.6767944,51.609792 C25.1227383,51.609792 25.484514,51.969696 25.484514,52.414976 L25.484514,56.898688 C25.484514,57.342496 25.1227383,57.703136 24.6767944,57.703136" id="Fill-310" fill="#516066"></path>
                    <path d="M24.6767944,54.183584 C24.5941028,54.183584 24.5269159,54.25056 24.5269159,54.332256 C24.5269159,54.415424 24.5941028,54.481664 24.6767944,54.481664 C24.759486,54.481664 24.8259346,54.415424 24.8259346,54.332256 C24.8259346,54.25056 24.759486,54.183584 24.6767944,54.183584 Z M24.6767944,55.793952 C23.8683364,55.793952 23.2112336,55.138176 23.2112336,54.332256 C23.2112336,53.527808 23.8683364,52.872032 24.6767944,52.872032 C25.484514,52.872032 26.1423551,53.527808 26.1423551,54.332256 C26.1423551,55.138176 25.484514,55.793952 24.6767944,55.793952 L24.6767944,55.793952 Z" id="Fill-311" fill="#516066"></path>
                    <path d="M30.0746355,71.004864 L19.278215,71.004864 C18.832271,71.004864 18.4704953,70.643488 18.4704953,70.19968 L18.4704953,68.78288 C18.4704953,68.338336 18.832271,67.977696 19.278215,67.977696 L30.0746355,67.977696 C30.5205794,67.977696 30.8823551,68.338336 30.8823551,68.78288 L30.8823551,70.19968 C30.8823551,70.643488 30.5205794,71.004864 30.0746355,71.004864" id="Fill-312" fill="#516066"></path>
                    <path d="M63.6895047,90.076096 L75.1061121,90.076096 L75.1061121,78.080768 L61.241243,78.080768 L61.241243,78.460544 L62.881785,78.460544 C63.327729,78.460544 63.6895047,78.821184 63.6895047,79.264992 L63.6895047,90.076096 Z M75.9130935,91.685728 L62.881785,91.685728 C62.4358411,91.685728 62.0740654,91.325088 62.0740654,90.880544 L62.0740654,80.070176 L60.4335234,80.070176 C59.9875794,80.070176 59.6258037,79.710272 59.6258037,79.264992 L59.6258037,77.275584 C59.6258037,76.831776 59.9875794,76.4704 60.4335234,76.4704 L75.9130935,76.4704 C76.3597757,76.4704 76.7208131,76.831776 76.7208131,77.275584 L76.7208131,90.880544 C76.7208131,91.325088 76.3597757,91.685728 75.9130935,91.685728 L75.9130935,91.685728 Z" id="Fill-324" fill="#516066"></path>
                    <path d="M61.241243,76.4704 L75.0374486,76.4704 L73.5209439,73.5448 L61.241243,73.5448 L61.241243,76.4704 Z M76.3634673,78.080768 L60.4335234,78.080768 C59.9875794,78.080768 59.6258037,77.720864 59.6258037,77.275584 L59.6258037,73.093632 C59.6258037,72.965568 59.6568131,72.838976 59.7158785,72.724896 L59.8989813,72.37088 C60.0370467,72.103712 60.3139159,71.934432 60.6166262,71.934432 L74.0126636,71.934432 C74.3146355,71.934432 74.5915047,72.102976 74.7310467,72.370144 L77.0803738,76.906112 C77.2095794,77.156352 77.1999813,77.454432 77.0530561,77.694368 C76.9061308,77.93504 76.6455047,78.080768 76.3634673,78.080768 L76.3634673,78.080768 Z" id="Fill-325" fill="#516066"></path>
                    <path d="M61.4236075,71.934432 L73.2049439,71.934432 L73.2049439,64.476544 L63.6636636,64.476544 C63.6865514,64.629632 63.6998411,64.783456 63.704271,64.93728 C63.7057477,64.96672 63.7057477,65.010144 63.7057477,65.054304 C63.7057477,65.379616 63.6710467,65.707872 63.6016449,66.029504 C63.4709626,66.65216 63.2066449,67.268928 62.7954019,67.912192 C62.7894953,67.92176 62.7835888,67.931328 62.7769439,67.940896 C62.5805514,68.242656 62.3723458,68.5216 62.1744766,68.777728 C62.1744766,68.7792 62.1744766,68.780672 62.1744766,68.782144 L62.1744766,70.198944 C62.1744766,70.624352 61.842972,70.973216 61.4236075,71.002656 L61.4236075,71.934432 Z M74.0126636,73.5448 L60.6166262,73.5448 C60.1706822,73.5448 59.8089065,73.184896 59.8089065,72.739616 L59.8089065,70.198944 C59.8089065,69.774272 60.1404112,69.425408 60.5590374,69.395968 L60.5590374,69.334144 C60.5044019,69.276736 60.4578879,69.210496 60.4217103,69.136896 C60.2858598,68.861632 60.3198224,68.531904 60.5088318,68.289024 L60.6808598,68.06896 C60.9355794,67.74512 61.1991589,67.41024 61.4339439,67.046656 C61.4376355,67.040032 61.4420654,67.034144 61.445757,67.028256 C61.747729,66.552064 61.9308318,66.128128 62.0216449,65.694624 C62.0681589,65.480448 62.0910467,65.266272 62.0910467,65.054304 C62.0910467,65.035168 62.091785,65.016768 62.0903084,64.998368 C62.0807103,64.659808 62.0054019,64.34848 61.8599533,64.032736 C61.8488785,64.010656 61.8392804,63.98784 61.8304206,63.965024 C61.7935047,63.871552 61.7743084,63.772192 61.7743084,63.672832 C61.7743084,63.227552 62.1360841,62.866176 62.582028,62.866176 L74.0126636,62.866176 C74.4593458,62.866176 74.8203832,63.226816 74.8203832,63.67136 L74.8203832,72.739616 C74.8203832,73.184896 74.4593458,73.5448 74.0126636,73.5448 L74.0126636,73.5448 Z" id="Fill-326" fill="#516066"></path>
                    <path d="M74.0126636,64.47728 L62.582028,64.47728 C62.1360841,64.47728 61.7743084,64.11664 61.7743084,63.672832 C61.7743084,63.227552 62.1360841,62.866176 62.582028,62.866176 L74.0126636,62.866176 C74.4593458,62.866176 74.8203832,63.226816 74.8203832,63.67136 L74.8203832,63.672832 C74.8203832,64.11664 74.4593458,64.47728 74.0126636,64.47728" id="Fill-327" fill="#516066"></path>
                    <path d="M61.1341869,60.737664 L74.6919159,60.737664 C74.701514,60.725888 74.7103738,60.714112 74.719972,60.702336 C75.1024206,60.215104 75.4974206,59.71168 75.854028,59.158208 C75.8591963,59.150112 75.8643645,59.142016 75.8695327,59.135392 C76.344271,58.386144 76.6469813,57.685472 76.7931682,56.992896 C76.867,56.645504 76.9046542,56.295168 76.9046542,55.949984 C76.9046542,55.910976 76.9046542,55.871968 76.9031776,55.832224 C76.8876729,55.290528 76.7621589,54.770912 76.5192523,54.246144 C76.378972,53.93776 76.1958692,53.624224 75.9736355,53.309216 C75.6480374,52.849216 75.2316262,52.374496 74.7007757,51.861504 C73.8827196,51.07104 72.9317664,50.318112 71.9254393,49.521024 C71.6094393,49.270784 71.2927009,49.020544 70.9781776,48.766624 C70.4406822,48.333856 69.742972,47.759776 69.0998972,47.15552 C68.383729,46.488704 67.7930748,45.840288 67.3146449,45.194816 C66.836215,45.83808 66.2448224,46.487968 65.5271776,47.156992 C65.0074019,47.642016 64.4285607,48.138816 63.6503738,48.766624 C63.3306822,49.024224 63.0072991,49.280352 62.6861308,49.535008 C61.6857103,50.326944 60.7399252,51.075456 59.9277757,51.861504 C59.3961869,52.375968 58.9797757,52.849216 58.6563925,53.309216 C58.429729,53.62864 58.2473645,53.942176 58.113729,54.238784 C57.8663925,54.771648 57.7408785,55.289056 57.7261121,55.831488 C57.7246355,55.87344 57.7246355,55.911712 57.7246355,55.949984 C57.7246355,56.299584 57.7615514,56.64992 57.8346449,56.991424 C57.9409626,57.48896 58.1218505,57.98208 58.3891215,58.495072 C58.682972,58.755616 58.9901121,59.007328 59.2566449,59.22224 C59.4678037,59.392256 59.6804393,59.561536 59.8923364,59.728608 C60.3065327,60.0576 60.7325421,60.395424 61.1341869,60.737664 Z M75.0869159,62.348032 L60.832215,62.348032 C60.6343458,62.348032 60.4445981,62.275904 60.2961963,62.146368 C59.8613271,61.760704 59.3880654,61.38608 58.8867477,60.98864 C58.6711589,60.818624 58.4548318,60.6464 58.2399813,60.47344 C57.9247196,60.218048 57.5540841,59.91408 57.1996916,59.59392 C57.1325047,59.533568 57.0763925,59.46144 57.0328318,59.381952 C56.6555514,58.687168 56.4015701,58.014464 56.2546449,57.325568 C56.1586636,56.875136 56.1099346,56.412192 56.1099346,55.949984 C56.1099346,55.894784 56.1099346,55.839584 56.1121495,55.784384 C56.1320841,55.032928 56.3114953,54.28736 56.6444766,53.571232 C56.8165047,53.189248 57.0505514,52.786656 57.3348037,52.383328 C57.7172523,51.84016 58.1978972,51.291104 58.8033178,50.705984 C59.6730561,49.864736 60.6941495,49.055872 61.6820187,48.273504 C61.9994953,48.022528 62.3184486,47.77008 62.6344486,47.515424 C63.3808879,46.91264 63.9331495,46.440128 64.4233925,45.982336 C65.4215981,45.049824 66.1362897,44.180608 66.6073364,43.32464 C66.7490935,43.067776 67.0207944,42.907328 67.3153832,42.907328 L67.3161215,42.907328 C67.6107103,42.907328 67.8816729,43.067776 68.0241682,43.325376 C68.495215,44.184288 69.2084299,45.053504 70.2044206,45.9816 C70.8068879,46.547584 71.4477477,47.073824 71.9933645,47.515424 C72.3041963,47.764928 72.617243,48.01296 72.9295514,48.260256 C73.9225888,49.04704 74.9503271,49.859584 75.8244953,50.70672 C76.4291776,51.290368 76.9090841,51.838688 77.2937477,52.382592 C77.5750467,52.780032 77.8083551,53.181888 77.9877664,53.57712 C78.3163178,54.288096 78.495729,55.032192 78.5178785,55.785856 C78.5200935,55.841056 78.5200935,55.89552 78.5200935,55.949984 C78.5200935,56.408512 78.4698879,56.871456 78.3724299,57.326304 C78.1848972,58.216864 77.8068785,59.099328 77.2177009,60.022272 C77.2103178,60.033312 77.2021963,60.045088 77.1948131,60.056864 C76.802028,60.66112 76.3723271,61.20944 75.9928318,61.692992 C75.9020187,61.80928 75.8126822,61.92336 75.7255607,62.035232 C75.572729,62.23248 75.3372056,62.348032 75.0869159,62.348032 L75.0869159,62.348032 Z" id="Fill-328" fill="#516066"></path>
                    <path d="M63.0663645,62.866176 L74.6055327,62.866176 L74.6055327,62.348032 L62.7141869,62.348032 C62.7577477,62.406912 62.8005701,62.46432 62.8419159,62.522464 C62.9223925,62.63728 62.9977009,62.752832 63.0663645,62.866176 Z M75.4132523,64.476544 L62.582028,64.476544 C62.266028,64.476544 61.9795607,64.292544 61.8481402,64.00624 C61.7676636,63.831072 61.6569159,63.643392 61.5195888,63.447616 C61.3158131,63.158368 61.0485421,62.8544 60.7037477,62.520256 C60.5738037,62.395136 60.4379533,62.270016 60.2961963,62.146368 C60.0459065,61.924096 59.9580467,61.57008 60.0769159,61.25728 C60.195785,60.945216 60.4962804,60.737664 60.832215,60.737664 L75.4132523,60.737664 C75.8584579,60.737664 76.2202336,61.09904 76.2202336,61.542848 L76.2202336,63.67136 C76.2202336,64.115168 75.8584579,64.476544 75.4132523,64.476544 L75.4132523,64.476544 Z" id="Fill-331" fill="#516066"></path>
                    <polygon id="Fill-332" fill="#516066" points="63.4908972 86.669888 65.2909159 86.669888 65.2909159 81.486976 63.4908972 81.486976"></polygon>
                    <polygon id="Fill-333" fill="#516066" points="69.3398505 86.669888 71.1398692 86.669888 71.1398692 81.486976 69.3398505 81.486976"></polygon>
                    <path d="M77.5839065,57.15776 C77.3904673,58.069664 76.9939907,58.871904 76.536972,59.590976 C76.536972,59.590976 76.5340187,59.590976 76.5340187,59.593184 C76.0674019,59.95824 75.4235888,60.406464 74.3109439,60.406464 C73.1097009,60.406464 72.457028,59.883168 71.9778598,59.504864 C71.5791682,59.186176 71.3598879,59.011744 70.8120561,59.011744 C70.263486,59.011744 70.0442056,59.186176 69.645514,59.504864 C69.1700374,59.883168 68.5166262,60.406464 67.3124299,60.406464 C66.1111869,60.406464 65.4577757,59.883168 64.9822991,59.504864 C64.5828692,59.186176 64.3613738,59.011744 63.815757,59.011744 C63.2671869,59.011744 63.0479065,59.186176 62.649215,59.504864 C62.173,59.883168 61.5195888,60.406464 60.3183458,60.406464 C59.2057009,60.406464 58.5618879,59.95824 58.095271,59.593184 C58.095271,59.590976 58.0930561,59.590976 58.0930561,59.590976 C57.6352991,58.871904 57.2388224,58.069664 57.0453832,57.15776 C58.1048692,57.218112 58.7043832,57.697984 59.1518037,58.051264 C59.5512336,58.369952 59.770514,58.546592 60.3183458,58.546592 C60.8647009,58.546592 61.083243,58.369952 61.4826729,58.051264 C61.9611028,57.671488 62.6137757,57.151136 63.815757,57.151136 C65.017,57.151136 65.6696729,57.671488 66.1458879,58.051264 C66.5475327,58.369952 66.7668131,58.546592 67.3124299,58.546592 C67.861,58.546592 68.0802804,58.369952 68.478972,58.051264 C68.9566636,57.671488 69.6100748,57.151136 70.8120561,57.151136 C72.0132991,57.151136 72.6689252,57.671488 73.1444019,58.051264 C73.5430935,58.369952 73.7631121,58.546592 74.3109439,58.546592 C74.859514,58.546592 75.0780561,58.369952 75.477486,58.051264 C75.9256449,57.697984 76.5244206,57.218112 77.5839065,57.15776" id="Fill-338" fill="#516066"></path>
                    <path d="M77.7101589,55.809408 C77.6680748,55.839584 77.6237757,55.871968 77.5772617,55.904352 C77.0360748,56.29296 76.3597757,56.777248 75.0876542,56.777248 C73.8147944,56.777248 73.139972,56.29296 72.598785,55.904352 C72.1602243,55.590816 71.8715421,55.381056 71.1996729,55.381056 C70.5292804,55.381056 70.2405981,55.590816 69.8020374,55.904352 C69.2608505,56.29296 68.5867664,56.777248 67.3124299,56.777248 C66.0410467,56.777248 65.3669626,56.29296 64.8257757,55.904352 C64.387215,55.590816 64.0970561,55.381056 63.4259252,55.381056 C62.756271,55.381056 62.4668505,55.590816 62.0282897,55.904352 C61.4871028,56.29296 60.8130187,56.777248 59.5416355,56.777248 C58.2680374,56.777248 57.593215,56.29296 57.052028,55.904352 C57.005514,55.871968 56.961215,55.839584 56.9191308,55.809408 C56.9383271,55.134496 57.1014953,54.505216 57.3761495,53.909056 C57.6751682,54.057728 57.9202897,54.234368 58.144,54.394816 C58.5803458,54.709088 58.8697664,54.915904 59.5416355,54.915904 C60.2112897,54.915904 60.499972,54.709088 60.939271,54.394816 C61.4804579,54.006944 62.1545421,53.521184 63.4259252,53.521184 C64.6995234,53.521184 65.3736075,54.004736 65.9147944,54.394816 C66.3533551,54.709088 66.643514,54.915904 67.3124299,54.915904 C67.9842991,54.915904 68.2737196,54.709088 68.7122804,54.394816 C69.2534673,54.004736 69.9275514,53.521184 71.1996729,53.521184 C72.4725327,53.521184 73.1466168,54.004736 73.6885421,54.394816 C74.1263645,54.709088 74.415785,54.915904 75.0876542,54.915904 C75.7573084,54.915904 76.046729,54.709088 76.4852897,54.394816 C76.709,54.234368 76.9541215,54.057728 77.2531402,53.909056 C77.5285327,54.505216 77.6917009,55.134496 77.7101589,55.809408" id="Fill-339" fill="#516066"></path>
                    <path d="M76.6351682,52.847008 C76.2335234,53.020704 75.7388505,53.148768 75.0876542,53.148768 C73.8147944,53.148768 73.139972,52.665216 72.598785,52.276608 C72.1602243,51.960864 71.8715421,51.753312 71.1996729,51.753312 C70.5292804,51.753312 70.2405981,51.960864 69.8020374,52.276608 C69.2608505,52.665216 68.5867664,53.148768 67.3124299,53.148768 C66.0410467,53.148768 65.3669626,52.665216 64.8257757,52.276608 C64.387215,51.960864 64.0970561,51.753312 63.4259252,51.753312 C62.756271,51.753312 62.4668505,51.960864 62.0282897,52.276608 C61.4871028,52.665216 60.8130187,53.148768 59.5416355,53.148768 C58.8882243,53.148768 58.3935514,53.020704 57.9948598,52.847008 C58.3773084,52.304576 58.8439252,51.787904 59.3666542,51.283744 C59.4198131,51.285952 59.4810935,51.288896 59.5416355,51.288896 C60.2112897,51.288896 60.499972,51.081344 60.939271,50.767808 C61.4804579,50.376256 62.1545421,49.892704 63.4259252,49.892704 C64.6995234,49.892704 65.3736075,50.376256 65.9147944,50.7656 C66.3533551,51.081344 66.643514,51.288896 67.3124299,51.288896 C67.9842991,51.288896 68.2737196,51.081344 68.7122804,50.7656 C69.2534673,50.376256 69.9275514,49.892704 71.1996729,49.892704 C72.4725327,49.892704 73.1466168,50.376256 73.6885421,50.7656 C74.1263645,51.081344 74.415785,51.288896 75.0876542,51.288896 C75.1481963,51.288896 75.2065234,51.285952 75.2626355,51.283744 C75.7853645,51.787904 76.2519813,52.304576 76.6351682,52.847008" id="Fill-340" fill="#516066"></path>
                    <path d="M71.4861402,48.139552 C71.399757,48.13072 71.3037757,48.125568 71.1996729,48.125568 C70.5292804,48.125568 70.2405981,48.332384 69.8020374,48.646656 C69.2608505,49.037472 68.5867664,49.521024 67.3124299,49.521024 C66.0410467,49.521024 65.3669626,49.037472 64.8257757,48.646656 C64.387215,48.332384 64.0970561,48.125568 63.4259252,48.125568 C63.3232991,48.125568 63.230271,48.13072 63.1431495,48.139552 C63.7758879,47.63024 64.3968131,47.112096 64.9749159,46.569664 C65.3573645,46.737472 65.651215,46.946496 65.9147944,47.13712 C66.3533551,47.451392 66.643514,47.660416 67.3124299,47.660416 C67.9842991,47.660416 68.2737196,47.451392 68.7122804,47.13712 C68.9758598,46.946496 69.2697103,46.737472 69.6521589,46.569664 C70.231,47.112096 70.8541402,47.63024 71.4861402,48.139552" id="Fill-341" fill="#516066"></path>
                    <path d="M54.935271,90.076096 L62.0740654,90.076096 L62.0740654,80.070176 L54.935271,80.070176 L54.935271,90.076096 Z M62.881785,91.685728 L54.1275514,91.685728 C53.6816075,91.685728 53.3198318,91.325088 53.3198318,90.880544 L53.3198318,79.264992 C53.3198318,78.821184 53.6816075,78.460544 54.1275514,78.460544 L62.881785,78.460544 C63.327729,78.460544 63.6895047,78.821184 63.6895047,79.264992 L63.6895047,90.880544 C63.6895047,91.325088 63.327729,91.685728 62.881785,91.685728 L62.881785,91.685728 Z" id="Fill-342" fill="#516066"></path>
                    <path d="M54.935271,78.460544 L59.6258037,78.460544 L59.6258037,71.0056 L53.341243,71.0056 L55.3612804,74.90272 C55.490486,75.151488 55.4801495,75.45104 55.3332243,75.690976 C55.2394579,75.8448 55.0984393,75.959616 54.935271,76.022912 L54.935271,78.460544 Z M60.4335234,80.070176 L54.1275514,80.070176 C53.6816075,80.070176 53.3198318,79.710272 53.3198318,79.264992 L53.3198318,75.272192 C53.3198318,75.089664 53.3803738,74.921856 53.483,74.787168 L51.2975794,70.569888 C51.1683738,70.320384 51.1794486,70.022304 51.3256355,69.782368 C51.4725607,69.541696 51.7339252,69.395232 52.0152243,69.395232 L60.3847944,69.395232 C60.4010374,69.394496 60.4165421,69.39376 60.4320467,69.39376 C60.8779907,69.39376 61.241243,69.7544 61.241243,70.198944 L61.241243,79.264992 C61.241243,79.710272 60.8794673,80.070176 60.4335234,80.070176 L60.4335234,80.070176 Z" id="Fill-343" fill="#516066"></path>
                    <path d="M60.4320467,71.0056 L52.0152243,71.0056 C51.5692804,71.0056 51.2075047,70.64496 51.2075047,70.200416 C51.2075047,69.755872 51.5692804,69.39376 52.0152243,69.39376 L60.4320467,69.39376 C60.8779907,69.39376 61.2397664,69.7544 61.2397664,70.198944 L61.2397664,70.200416 C61.2397664,70.64496 60.8779907,71.0056 60.4320467,71.0056" id="Fill-344" fill="#516066"></path>
                    <path d="M60.4320467,71.0056 L52.0152243,71.0056 C51.5692804,71.0056 51.2075047,70.64496 51.2075047,70.200416 C51.2075047,69.755872 51.5692804,69.39376 52.0152243,69.39376 L60.4320467,69.39376 C60.8779907,69.39376 61.2397664,69.7544 61.2397664,70.198944 L61.2397664,70.200416 C61.2397664,70.64496 60.8779907,71.0056 60.4320467,71.0056" id="Fill-345" fill="#516066"></path>
                    <path d="M52.7550187,67.97696 L60.753215,67.97696 C60.9850467,67.681824 61.2205701,67.375648 61.4339439,67.046656 C61.4376355,67.040032 61.4413271,67.034144 61.445757,67.028256 C61.747729,66.552064 61.9308318,66.128128 62.0216449,65.694624 C62.0681589,65.480448 62.0910467,65.266272 62.0910467,65.054304 C62.0910467,65.035168 62.091785,65.016768 62.0903084,64.998368 C62.0807103,64.659808 62.0054019,64.349216 61.8599533,64.032736 C61.8518318,64.016544 61.8444486,63.999616 61.8370654,63.983424 C61.7573271,63.814144 61.6510093,63.63456 61.5195888,63.447616 C61.3158131,63.158368 61.0485421,62.8544 60.7037477,62.520256 C60.5738037,62.395136 60.4379533,62.270016 60.2961963,62.146368 C59.8613271,61.760704 59.3880654,61.38608 58.8867477,60.98864 C58.6711589,60.818624 58.4548318,60.6464 58.2399813,60.47344 C57.9247196,60.218048 57.5540841,59.91408 57.1996916,59.59392 C57.1325047,59.536512 57.0512897,59.462176 56.9722897,59.38784 C56.5817196,59.021312 56.2509533,58.670976 55.9681776,58.32432 C55.6817103,58.676128 55.346514,59.029408 54.9588972,59.390048 C54.7551215,59.581408 54.5365794,59.776448 54.2973645,59.979584 C54.1954766,60.215104 53.9835794,60.393952 53.7266449,60.449152 L53.6985888,60.471968 C53.4748785,60.652288 53.2511682,60.829664 53.0281963,61.00704 C52.9366449,61.079168 52.8458318,61.152032 52.7550187,61.22416 L52.7550187,67.97696 Z M61.1467383,69.587328 L51.9472991,69.587328 C51.5013551,69.587328 51.1395794,69.227424 51.1395794,68.782144 L51.1395794,60.83776 C51.1395794,60.59488 51.2503271,60.364512 51.4393364,60.21216 C51.6312991,60.0576 51.826215,59.90304 52.0226075,59.747008 C52.2411495,59.573312 52.4619065,59.399616 52.6797103,59.222976 L52.7601869,59.157472 C52.8074393,59.1192 52.8546916,59.081664 52.9004673,59.043392 C52.9248318,59.02352 52.9491963,59.00512 52.9750374,58.988192 C52.9957103,58.967584 53.0171215,58.947712 53.039271,58.928576 C53.3441963,58.678336 53.610729,58.445024 53.8543738,58.216128 C54.4996636,57.615552 54.9588972,57.059136 55.2608692,56.510816 C55.4026262,56.253952 55.6735888,56.093504 55.9681776,56.093504 C55.9681776,56.093504 55.9681776,56.093504 55.9689159,56.093504 C56.2627664,56.093504 56.533729,56.253216 56.675486,56.51008 C56.9796729,57.059872 57.4256168,57.602304 58.0797664,58.215392 C58.1425234,58.274272 58.2060187,58.333152 58.2709907,58.389824 C58.6098785,58.695264 58.9583645,58.981568 59.2566449,59.22224 C59.4678037,59.392256 59.6804393,59.561536 59.8923364,59.728608 C60.3877477,60.121632 60.8994019,60.527168 61.3674953,60.9408 C61.526972,61.081376 61.6805421,61.222688 61.8282056,61.365472 C62.2475701,61.771008 62.5783364,62.149312 62.8419159,62.522464 C63.0353551,62.798464 63.1948318,63.07152 63.3166542,63.33648 C63.3196075,63.342368 63.3225607,63.349728 63.325514,63.356352 C63.3262523,63.35856 63.327729,63.360768 63.3284673,63.362976 C63.5632523,63.871552 63.6895047,64.401472 63.704271,64.93728 C63.7057477,64.96672 63.7057477,65.010144 63.7057477,65.054304 C63.7057477,65.379616 63.6710467,65.707872 63.6016449,66.029504 C63.4709626,66.65216 63.2066449,67.268928 62.7954019,67.912192 C62.7894953,67.92176 62.7835888,67.931328 62.7769439,67.940896 C62.5059813,68.358208 62.2121308,68.732096 61.952243,69.06256 L61.7853832,69.275264 C61.6325514,69.472512 61.397028,69.587328 61.1467383,69.587328 L61.1467383,69.587328 Z" id="Fill-346" fill="#516066"></path>
                    <path d="M55.9689159,57.7024 C55.522972,57.7024 55.1611963,57.342496 55.1611963,56.897952 L55.1611963,52.41424 C55.1611963,51.969696 55.522972,51.609056 55.9689159,51.609056 C56.4148598,51.609056 56.7766355,51.969696 56.7766355,52.41424 L56.7766355,56.897952 C56.7766355,57.342496 56.4148598,57.7024 55.9689159,57.7024" id="Fill-347" fill="#516066"></path>
                    <path d="M55.9689159,54.182848 C55.8862243,54.182848 55.8197757,54.249824 55.8197757,54.332256 C55.8197757,54.414688 55.8862243,54.480928 55.9689159,54.480928 C56.0516075,54.480928 56.1180561,54.414688 56.1180561,54.332256 C56.1180561,54.249824 56.0516075,54.182848 55.9689159,54.182848 Z M55.9689159,55.793216 C55.1604579,55.793216 54.5033551,55.13744 54.5033551,54.332256 C54.5033551,53.527072 55.1604579,52.871296 55.9689159,52.871296 C56.7766355,52.871296 57.4344766,53.527072 57.4344766,54.332256 C57.4344766,55.13744 56.7766355,55.793216 55.9689159,55.793216 L55.9689159,55.793216 Z" id="Fill-348" fill="#516066"></path>
                    <path d="M61.366757,71.004128 L52.0152243,71.004128 C51.714729,71.004128 51.4385981,70.837792 51.2990561,70.57136 L51.2318692,70.441088 C51.1713271,70.327008 51.1395794,70.198944 51.1395794,70.069408 L51.1395794,68.782144 C51.1395794,68.338336 51.5013551,67.97696 51.9472991,67.97696 L61.366757,67.97696 C61.8127009,67.97696 62.1744766,68.338336 62.1744766,68.782144 L62.1744766,70.198944 C62.1744766,70.643488 61.8127009,71.004128 61.366757,71.004128" id="Fill-349" fill="#516066"></path>
                    <path d="M40.6835234,85.244256 L41.1331589,85.244256 L41.1331589,80.909216 L40.6835234,80.909216 L40.6835234,85.244256 Z M41.9408785,86.854624 L39.8758037,86.854624 C39.4298598,86.854624 39.0680841,86.493984 39.0680841,86.04944 L39.0680841,80.104032 C39.0680841,79.658752 39.4298598,79.298848 39.8758037,79.298848 L41.9408785,79.298848 C42.3868224,79.298848 42.7478598,79.658752 42.7478598,80.104032 L42.7478598,86.04944 C42.7478598,86.493984 42.3868224,86.854624 41.9408785,86.854624 L41.9408785,86.854624 Z" id="Fill-359" fill="#516066"></path>
                    <path d="M47.3933551,85.244256 L47.843729,85.244256 L47.843729,80.909216 L47.3933551,80.909216 L47.3933551,85.244256 Z M48.6514486,86.854624 L46.5863738,86.854624 C46.1396916,86.854624 45.7786542,86.493984 45.7786542,86.04944 L45.7786542,80.104032 C45.7786542,79.658752 46.1396916,79.298848 46.5863738,79.298848 L48.6514486,79.298848 C49.0973925,79.298848 49.4584299,79.658752 49.4584299,80.104032 L49.4584299,86.04944 C49.4584299,86.493984 49.0973925,86.854624 48.6514486,86.854624 L48.6514486,86.854624 Z" id="Fill-360" fill="#516066"></path>
                    <path d="M35.2074206,74.467744 L53.3168785,74.467744 L51.4555794,70.874592 L37.0687196,70.874592 L35.2074206,74.467744 Z M54.6436355,76.077376 L33.8814019,76.077376 C33.6001028,76.077376 33.3387383,75.930912 33.1918131,75.690976 C33.0456262,75.451776 33.0352897,75.152224 33.163757,74.903456 L35.8586168,69.699936 C35.9974206,69.432032 36.2742897,69.264224 36.577,69.264224 L51.9472991,69.264224 C52.2485327,69.264224 52.5239252,69.43056 52.6634673,69.696992 L52.7313925,69.827264 C52.7365607,69.837568 52.7424673,69.847136 52.7468972,69.858176 L55.3612804,74.90272 C55.490486,75.151488 55.4801495,75.45104 55.3332243,75.690976 C55.1870374,75.930912 54.9256729,76.077376 54.6436355,76.077376 L54.6436355,76.077376 Z" id="Fill-361" fill="#516066"></path>
                    <path d="M37.3839813,69.264224 L51.1395794,69.264224 L51.1395794,60.469024 L37.3839813,60.469024 L37.3839813,69.264224 Z M51.9472991,70.874592 L36.577,70.874592 C36.1303178,70.874592 35.7692804,70.513952 35.7692804,70.069408 L35.7692804,59.662368 C35.7692804,59.201632 36.1709252,58.830688 36.6272056,58.859392 L51.8956168,58.859392 C51.9118598,58.85792 51.9288411,58.85792 51.9458224,58.85792 C52.3917664,58.85792 52.7550187,59.217824 52.7550187,59.662368 L52.7550187,70.069408 C52.7550187,70.513952 52.393243,70.874592 51.9472991,70.874592 L51.9472991,70.874592 Z" id="Fill-362" fill="#516066"></path>
                    <path d="M51.9458224,60.469024 L36.5777383,60.469024 C36.1317944,60.469024 35.7700187,60.108384 35.7700187,59.66384 C35.7700187,59.220032 36.1317944,58.85792 36.5777383,58.85792 L51.9458224,58.85792 C52.3917664,58.85792 52.7535421,59.217824 52.7535421,59.662368 L52.7535421,59.66384 C52.7535421,60.108384 52.3917664,60.469024 51.9458224,60.469024" id="Fill-363" fill="#232541"></path>
                    <path d="M51.9458224,60.469024 L36.5777383,60.469024 C36.1317944,60.469024 35.7700187,60.108384 35.7700187,59.66384 C35.7700187,59.220032 36.1317944,58.85792 36.5777383,58.85792 L51.9458224,58.85792 C52.3917664,58.85792 52.7535421,59.217824 52.7535421,59.662368 L52.7535421,59.66384 C52.7535421,60.108384 52.3917664,60.469024 51.9458224,60.469024" id="Fill-364" fill="#232541"></path>
                    <path d="M49.4023178,56.416608 L52.7830748,56.416608 C52.8140841,56.3776 52.8458318,56.337856 52.8775794,56.297376 C53.3094953,55.746848 53.7561776,55.17792 54.1592991,54.549376 C54.1652056,54.540544 54.1703738,54.533184 54.1762804,54.525088 C54.2486355,54.411008 54.319514,54.29472 54.3889159,54.175488 C54.4944953,53.994432 54.5838318,53.829568 54.6628318,53.669856 C54.6635701,53.667648 54.6650467,53.664704 54.6665234,53.662496 C54.6665234,53.661024 54.6672617,53.660288 54.668,53.658816 C54.8983551,53.200288 55.0681682,52.757216 55.1870374,52.302368 C55.2136168,52.20448 55.2342897,52.115424 55.253486,52.02416 C55.2652991,51.974112 55.2726822,51.930688 55.2815421,51.886528 C55.3494673,51.531776 55.3834299,51.167456 55.3834299,50.803136 C55.3834299,50.764864 55.3841682,50.725856 55.3819533,50.686848 C55.3634953,50.0296 55.2165701,49.41872 54.9308411,48.799008 C54.7691495,48.442048 54.5557757,48.076256 54.2951495,47.708256 C53.9141776,47.169504 53.4327944,46.620448 52.8199907,46.030176 C51.8815888,45.121952 50.7918318,44.25936 49.6393178,43.345984 C49.2731121,43.056 48.9046916,42.764544 48.5399626,42.470144 C48.0467664,42.071968 47.4893364,41.615648 46.9363364,41.126208 C46.9983551,41.238816 47.0588972,41.34848 47.1172243,41.452992 C47.2789159,41.743712 47.4413458,42.02928 47.6030374,42.314848 C48.113215,43.215712 48.6411121,44.146752 49.0900093,45.11312 C49.3949346,45.76816 49.6385794,46.385664 49.8342336,47.00096 C49.9708224,47.432992 50.0845234,47.870176 50.1738598,48.300736 C50.3296449,49.061024 50.4145514,49.846336 50.4241495,50.63312 C50.4256262,50.683904 50.4256262,50.744256 50.4256262,50.803136 C50.4256262,51.243264 50.4071682,51.681184 50.3702523,52.10512 C50.3658224,52.161056 50.3606542,52.222144 50.3540093,52.281024 C50.2787009,53.090624 50.1310374,53.912736 49.9051121,54.781216 C49.8674579,54.924736 49.8290654,55.066048 49.7884579,55.205888 C49.7855047,55.21472 49.7832897,55.223552 49.7803364,55.232384 C49.6592523,55.651168 49.5293084,56.0464 49.4023178,56.416608 Z M53.1780748,58.026976 L48.2653084,58.026976 C48.0039439,58.026976 47.7588224,57.90112 47.6074673,57.689152 C47.4561121,57.477184 47.4169813,57.2056 47.5018879,56.95904 C47.5520935,56.81552 47.6037757,56.669056 47.6561963,56.519648 C47.8496355,55.972064 48.0497196,55.405344 48.2306075,54.777536 C48.2350374,54.759872 48.2402056,54.744416 48.2453738,54.727488 C48.2785981,54.612672 48.3110841,54.496384 48.3420935,54.377152 C48.5458692,53.592576 48.6787664,52.854368 48.7474299,52.116896 C48.7540748,52.058752 48.7577664,52.016064 48.7607196,51.971904 C48.7939439,51.588448 48.8109252,51.197632 48.8109252,50.803136 C48.8109252,50.757504 48.8109252,50.709664 48.8094486,50.663296 C48.8005888,49.958208 48.728972,49.294336 48.5916449,48.62384 C48.5141215,48.249216 48.4137103,47.86576 48.2941028,47.48672 C48.1198598,46.936928 47.9005794,46.383456 47.6251869,45.79024 C47.2028692,44.882016 46.7141028,44.02016 46.1965421,43.106784 C46.0333738,42.818272 45.8679907,42.528288 45.7055607,42.23536 C45.410972,41.706176 45.0654393,41.073216 44.7383645,40.389472 C44.1676449,39.205248 43.7556636,38.081376 43.4787944,36.956032 C43.3813364,36.563744 43.591757,36.160416 43.9697757,36.013952 C44.3470561,35.867488 44.7760187,36.022784 44.9709346,36.377536 C45.5165514,37.369664 46.342729,38.377248 47.4959813,39.455488 C48.1804019,40.09728 48.9209346,40.707424 49.5558879,41.218208 C49.9169252,41.509664 50.2816542,41.798176 50.6434299,42.085216 C51.7767477,42.9824 52.9491963,43.910496 53.9437103,44.87392 C54.6296075,45.534848 55.1767009,46.159712 55.6152617,46.781632 C55.9334766,47.230592 56.1985327,47.68544 56.4008318,48.131456 C56.7714673,48.93664 56.9722897,49.77568 56.9951776,50.620608 C56.9981308,50.668448 56.9988692,50.736896 56.9988692,50.803136 C56.9988692,51.268288 56.9545701,51.734176 56.8681869,52.186816 C56.8571121,52.245696 56.8452991,52.306784 56.8320093,52.3664 C56.8076449,52.48048 56.7795888,52.600448 56.7471028,52.718208 C56.6046075,53.265056 56.3890187,53.828096 56.1121495,54.380832 C56.1114112,54.381568 56.1106729,54.38304 56.1106729,54.383776 C56.0146916,54.576608 55.9083738,54.77312 55.7858131,54.983616 C55.7016449,55.127136 55.613785,55.271392 55.5244486,55.411968 C55.5163271,55.42448 55.5089439,55.436256 55.5000841,55.448032 C55.060785,56.128096 54.5771869,56.744864 54.1497009,57.289504 C54.036,57.43376 53.9252523,57.575072 53.8181963,57.71344 C53.6653645,57.911424 53.4291028,58.026976 53.1780748,58.026976 L53.1780748,58.026976 Z" id="Fill-365" fill="#516066"></path>
                    <path d="M35.740486,56.416608 L39.1219813,56.416608 C39.0178785,56.113376 38.9122991,55.79248 38.8111495,55.4576 L38.7461776,55.2368 C38.7432243,55.226496 38.740271,55.215456 38.7365794,55.205888 C38.6967103,55.066048 38.6575794,54.924736 38.6199252,54.779744 C38.3954766,53.925984 38.2478131,53.103136 38.1680748,52.267776 C38.1636449,52.212576 38.1599533,52.16768 38.154785,52.121312 C38.1171308,51.672352 38.0994112,51.234432 38.0994112,50.803136 L38.0994112,50.643424 C38.108271,49.9192 38.1776729,49.209696 38.3068785,48.525216 C38.3083551,48.51712 38.3098318,48.509024 38.3113084,48.500928 L38.3504393,48.305888 C38.4375607,47.879008 38.5483084,47.4536 38.6915421,47.001696 C38.707785,46.94944 38.7247664,46.897184 38.7439626,46.843456 C38.9204206,46.30176 39.1485607,45.729888 39.435028,45.11312 C39.7968037,44.332224 40.1991869,43.598432 40.5461963,42.983136 C40.668757,42.763808 40.7935327,42.543008 40.9190467,42.32 L41.4078131,41.452992 C41.4676168,41.347008 41.5296355,41.235136 41.5923925,41.119584 C41.033486,41.615648 40.4767944,42.072704 39.9850748,42.470144 C39.8418411,42.58496 39.6993458,42.699776 39.5561121,42.813856 C39.3353551,42.989024 39.1153364,43.163456 38.8953178,43.337888 C38.0720935,43.989984 37.2946449,44.604544 36.5659252,45.242656 C36.2595234,45.509824 35.9693645,45.774048 35.7028318,46.030912 C35.1313738,46.582912 34.678785,47.091488 34.3192243,47.583872 C34.2815701,47.635392 34.2572056,47.667776 34.2343178,47.701632 C34.0120841,48.017376 33.8341495,48.311776 33.6872243,48.603232 C33.6547383,48.668 33.6244673,48.73424 33.5934579,48.799744 C33.307729,49.41872 33.1608037,50.028864 33.1430841,50.665504 C33.1401308,50.72512 33.1401308,50.764864 33.1401308,50.803136 C33.1401308,51.162304 33.1748318,51.525888 33.2434953,51.885056 C33.2538318,51.9432 33.2604766,51.980736 33.2685981,52.0168 C33.4413645,52.831552 33.7935421,53.649984 34.3472804,54.524352 C34.3531869,54.53392 34.3598318,54.542016 34.365,54.551584 L34.3657383,54.551584 C34.4122523,54.624448 34.4587664,54.695104 34.5074953,54.766496 C34.8810841,55.322176 35.2746075,55.824128 35.6548411,56.308416 C35.6836355,56.345216 35.7124299,56.380544 35.740486,56.416608 Z M40.2582523,58.026976 L35.345486,58.026976 C35.0951963,58.026976 34.8581963,57.911424 34.7053645,57.71344 C34.6012617,57.578016 34.4934673,57.44112 34.3827196,57.300544 C34.0032243,56.81552 33.5720467,56.2672 33.1733551,55.673984 C33.1261028,55.605536 33.0744206,55.526784 33.0227383,55.44656 C33.0146168,55.43552 33.0072336,55.42448 32.9998505,55.412704 C32.3316729,54.363168 31.9027103,53.36368 31.6900748,52.358304 C31.6775234,52.300896 31.6642336,52.233184 31.6531589,52.165472 C31.569729,51.728288 31.5254299,51.263136 31.5254299,50.803136 C31.5254299,50.737632 31.5254299,50.669184 31.5291215,50.601472 C31.551271,49.774208 31.7528318,48.934432 32.1271589,48.126304 C32.1640748,48.044608 32.2024673,47.963648 32.2430748,47.882688 C32.4261776,47.518368 32.643243,47.1592 32.9082991,46.782368 C32.9378318,46.73968 32.9717944,46.692576 33.0064953,46.646944 C33.4273364,46.069184 33.9404673,45.49216 34.5805888,44.87392 C34.8663178,44.59792 35.1764112,44.315296 35.501271,44.0312 C36.2595234,43.3688 37.0886542,42.711552 37.8904673,42.07712 C38.1090093,41.904896 38.3282897,41.730464 38.5468318,41.556768 C38.6878505,41.444896 38.8281308,41.332288 38.9684112,41.218944 C39.5959813,40.712576 40.3306075,40.106848 41.0246262,39.456224 C41.2955888,39.203776 41.551785,38.950592 41.788785,38.704768 C42.0641776,38.417728 42.3188972,38.129952 42.5462991,37.8488 C42.9590187,37.343168 43.2875701,36.863296 43.5541028,36.378272 C43.7490187,36.022784 44.177243,35.866752 44.5552617,36.013952 C44.9332804,36.160416 45.1437009,36.56448 45.0469813,36.956768 C44.8107196,37.910624 44.4829065,38.851232 44.0443458,39.83232 C43.9638692,40.017056 43.8760093,40.206208 43.7866729,40.39168 C43.7829813,40.398304 43.780028,40.404192 43.7763364,40.411552 C43.7711682,40.422592 43.766,40.432896 43.7608318,40.442464 C43.4396636,41.110016 43.1052056,41.723104 42.820215,42.23536 L42.3262804,43.1112 C42.2015047,43.331264 42.0782056,43.549856 41.9556449,43.769184 C41.6234019,44.359456 41.2394766,45.058656 40.9005888,45.788768 C40.6407009,46.348128 40.4361869,46.861856 40.2730187,47.360864 C40.2545607,47.413856 40.243486,47.449184 40.2324112,47.485248 C40.1061589,47.882688 40.0087009,48.254368 39.9333925,48.622368 L39.9001682,48.79312 C39.8994299,48.798272 39.8986916,48.802688 39.897215,48.806368 C39.7820374,49.413568 39.7222336,50.017088 39.7141121,50.652992 L39.7148505,50.803136 C39.7148505,51.191008 39.7310935,51.583296 39.7628411,51.96896 C39.767271,52.00944 39.7724393,52.06832 39.7768692,52.125728 C39.8470093,52.863936 39.9806449,53.60288 40.1829439,54.374944 C40.2146916,54.494912 40.2464393,54.611936 40.2789252,54.72528 C40.2848318,54.742208 40.2892617,54.757664 40.2936916,54.774592 L40.3579252,54.99392 C40.5233084,55.543712 40.7005047,56.045664 40.8717944,56.53216 L41.0216729,56.95904 C41.1073178,57.2056 41.0681869,57.477184 40.9160935,57.689152 C40.7647383,57.90112 40.5196168,58.026976 40.2582523,58.026976 L40.2582523,58.026976 Z" id="Fill-366" fill="#516066"></path>
                    <path d="M40.8319252,56.416608 L47.6923738,56.416608 C47.8747383,55.900672 48.0607944,55.367072 48.2306075,54.777536 C48.2350374,54.759872 48.2402056,54.744416 48.2453738,54.727488 C48.2785981,54.612672 48.3110841,54.496384 48.3420935,54.377152 C48.5458692,53.592576 48.6787664,52.854368 48.7474299,52.116896 C48.7540748,52.058752 48.7577664,52.016064 48.7607196,51.971904 C48.7939439,51.588448 48.8109252,51.197632 48.8109252,50.803136 C48.8109252,50.757504 48.8109252,50.709664 48.8094486,50.663296 C48.8005888,49.958208 48.728972,49.294336 48.5916449,48.62384 C48.5141215,48.249216 48.4137103,47.86576 48.2941028,47.48672 C48.1198598,46.936928 47.9005794,46.383456 47.6251869,45.79024 C47.2028692,44.882016 46.7141028,44.02016 46.1965421,43.106784 C46.0333738,42.818272 45.8679907,42.528288 45.7055607,42.23536 C45.410972,41.706176 45.0654393,41.073216 44.7383645,40.389472 C44.5648598,40.030304 44.4068598,39.676288 44.2621495,39.326688 C44.1927477,39.49376 44.1196542,39.66304 44.0443458,39.83232 C43.9638692,40.017056 43.8760093,40.206208 43.7866729,40.39168 C43.7829813,40.398304 43.780028,40.404192 43.7763364,40.411552 C43.7711682,40.422592 43.766,40.432896 43.7608318,40.442464 C43.4396636,41.110016 43.1052056,41.723104 42.820215,42.23536 L42.3262804,43.1112 C42.2015047,43.331264 42.0782056,43.549856 41.9556449,43.769184 C41.6234019,44.359456 41.2394766,45.058656 40.9005888,45.788768 C40.6407009,46.348128 40.4361869,46.861856 40.2730187,47.360864 C40.2545607,47.413856 40.243486,47.449184 40.2324112,47.485248 C40.1061589,47.882688 40.0087009,48.254368 39.9333925,48.622368 L39.9001682,48.79312 C39.8994299,48.797536 39.8986916,48.802688 39.897215,48.806368 C39.7820374,49.413568 39.7222336,50.017088 39.7141121,50.652992 L39.7148505,50.803136 C39.7148505,51.191008 39.7310935,51.583296 39.7628411,51.96896 C39.767271,52.00944 39.7724393,52.06832 39.7768692,52.125728 C39.8470093,52.863936 39.9806449,53.60288 40.1829439,54.374944 C40.2146916,54.494912 40.2464393,54.611936 40.2789252,54.72528 C40.2848318,54.742208 40.2892617,54.757664 40.2936916,54.774592 L40.3579252,54.99392 C40.510757,55.500288 40.6731869,55.966912 40.8319252,56.416608 Z M48.2653084,58.026976 L40.2582523,58.026976 C39.9149346,58.026976 39.6077944,57.809856 39.4955701,57.48528 L39.3479065,57.065024 C39.1788318,56.585888 38.9876075,56.04272 38.8111495,55.4576 L38.7469159,55.2368 C38.7432243,55.226496 38.740271,55.215456 38.7365794,55.205888 C38.6967103,55.066048 38.6575794,54.924736 38.6199252,54.779744 C38.3954766,53.925984 38.2478131,53.103136 38.1680748,52.267776 C38.1636449,52.212576 38.1599533,52.16768 38.154785,52.121312 C38.1171308,51.672352 38.0994112,51.234432 38.0994112,50.803136 L38.0994112,50.643424 C38.108271,49.9192 38.1776729,49.209696 38.3068785,48.525216 C38.3083551,48.51712 38.3098318,48.509024 38.3113084,48.500928 L38.3504393,48.305888 C38.4375607,47.879008 38.5483084,47.4536 38.6915421,47.001696 C38.707785,46.94944 38.7247664,46.897184 38.7439626,46.843456 C38.9204206,46.30176 39.1485607,45.729888 39.435028,45.11312 C39.7968037,44.332224 40.1991869,43.598432 40.5461963,42.983136 C40.668757,42.763808 40.7935327,42.543008 40.9190467,42.32 L41.4078131,41.452992 C41.6832056,40.959136 42.0058505,40.368864 42.3100374,39.734432 C42.313729,39.727808 42.3174206,39.720448 42.3211121,39.713088 C42.3262804,39.702784 42.3307103,39.693216 42.3358785,39.683648 C42.4148785,39.51952 42.4924019,39.353184 42.5654953,39.183904 C42.9686168,38.284512 43.2661589,37.431488 43.4787944,36.571104 C43.5673925,36.211936 43.8907757,35.958752 44.2628879,35.958752 C44.635,35.958752 44.9583832,36.211936 45.0469813,36.57184 C45.3002243,37.60224 45.6656916,38.594368 46.1950654,39.695424 C46.5036822,40.34016 46.8344486,40.945888 47.1172243,41.452992 C47.2789159,41.743712 47.4413458,42.02928 47.6030374,42.314848 C48.113215,43.215712 48.6411121,44.146752 49.0900093,45.11312 C49.3949346,45.76816 49.6385794,46.385664 49.8342336,47.00096 C49.9708224,47.432992 50.0845234,47.870176 50.1738598,48.300736 C50.3296449,49.061024 50.4145514,49.846336 50.4241495,50.63312 C50.4256262,50.683904 50.4256262,50.744256 50.4256262,50.803136 C50.4256262,51.243264 50.4071682,51.681184 50.3702523,52.10512 C50.3658224,52.161056 50.3606542,52.222144 50.3540093,52.281024 C50.2787009,53.090624 50.1310374,53.912736 49.9051121,54.781216 C49.8674579,54.924736 49.8290654,55.066048 49.7884579,55.205888 C49.7855047,55.21472 49.7832897,55.223552 49.7803364,55.232384 C49.5868972,55.902144 49.3705701,56.51376 49.1793458,57.05472 C49.1284019,57.201184 49.0774579,57.344704 49.028729,57.48528 C48.9157664,57.809856 48.6093645,58.026976 48.2653084,58.026976 L48.2653084,58.026976 Z" id="Fill-367" fill="#516066"></path>
                    <path d="M35.7781402,58.85792 L52.7468972,58.85792 L52.7468972,58.026976 L35.7781402,58.026976 L35.7781402,58.85792 Z M53.5546168,60.467552 L34.9711589,60.467552 C34.525215,60.467552 34.1634393,60.106912 34.1634393,59.662368 L34.1634393,57.221792 C34.1634393,56.777984 34.525215,56.416608 34.9711589,56.416608 L53.5546168,56.416608 C54.0005607,56.416608 54.3615981,56.777984 54.3615981,57.221792 L54.3615981,59.662368 C54.3615981,60.106912 54.0005607,60.467552 53.5546168,60.467552 L53.5546168,60.467552 Z" id="Fill-370" fill="#516066"></path>
                </g>
            </g>
        </g>
    </g>
</svg>