<?xml version="1.0" encoding="UTF-8"?>
<svg width="128px" height="128px" viewBox="0 0 128 128" version="1.1" xmlns="http://www.w3.org/2000/svg" xmlns:xlink="http://www.w3.org/1999/xlink">
    <!-- Generator: Sketch 53 (72520) - https://sketchapp.com -->
    <title>img-race-argentina</title>
    <desc>Created with Sketch.</desc>
    <g id="Symbols" stroke="none" stroke-width="1" fill="none" fill-rule="evenodd">
        <g id="image-/-race-/-argentina">
            <g>
                <circle id="Oval-Copy-20" stroke-opacity="0.32" stroke="#F0F8FF" stroke-width="2" fill-opacity="0.04" fill="#F0F8FF" cx="64" cy="64" r="63"></circle>
                <g id="img" transform="translate(42.000000, 14.000000)">
                    <polyline id="Fill-52" fill="#838F93" points="6.80229268 83.7905251 0.88697561 89.0217207 6.36282927 89.0217207 6.80229268 83.7905251"></polyline>
                    <polyline id="Fill-53" fill="#838F93" points="45.5551707 89.0217207 39.5416585 83.0107263 39.51 83.0107263 40.0149268 89.0217207 45.5551707 89.0217207"></polyline>
                    <path d="M34.5009756,91.0217207 L34.5009756,96.7484693 L11.8730244,96.7484693 L11.8730244,91.0217207 L6.85223445,91.0217207 L13.3630297,13.4289609 L33.0108232,13.4289609 L33.0878506,14.345186 L38.9157864,83.6672872 L39.526765,91.0217207 L34.5009756,91.0217207 Z" id="Fill-56" stroke="#516066" stroke-width="2" fill="#838F93" stroke-linecap="round" stroke-linejoin="round"></path>
                    <path d="M32.3147357,83.0885024 L26.0372745,83.0885024 C25.46415,83.0885024 25,82.6204831 25,82.0442512 C25,81.4680193 25.46415,81 26.0372745,81 L32.3147357,81 C32.8878601,81 33.3533555,81.4680193 33.3533555,82.0442512 C33.3533555,82.6204831 32.8878601,83.0885024 32.3147357,83.0885024" id="Fill-588" fill="#516066"></path>
                    <path d="M20.3147357,72.0885024 L14.0372745,72.0885024 C13.46415,72.0885024 13,71.6204831 13,71.0442512 C13,70.4680193 13.46415,70 14.0372745,70 L20.3147357,70 C20.8878601,70 21.3533555,70.4680193 21.3533555,71.0442512 C21.3533555,71.6204831 20.8878601,72.0885024 20.3147357,72.0885024" id="Fill-588-Copy" fill="#516066"></path>
                    <path d="M27.0372745,51.0885024 C26.46415,51.0885024 26,50.6204831 26,50.0442512 C26,49.4680193 26.46415,49 27.0372745,49 L31.3147357,49 C31.8878601,49 32.3533555,49.4680193 32.3533555,50.0442512 C32.3533555,50.6204831 31.8878601,51.0885024 31.3147357,51.0885024 L27.0372745,51.0885024 Z" id="Fill-588-Copy-2" fill="#516066"></path>
                    <path d="M17.0372745,38.0885024 C16.46415,38.0885024 16,37.6204831 16,37.0442512 C16,36.4680193 16.46415,36 17.0372745,36 L21.3147357,36 C21.8878601,36 22.3533555,36.4680193 22.3533555,37.0442512 C22.3533555,37.6204831 21.8878601,38.0885024 21.3147357,38.0885024 L17.0372745,38.0885024 Z" id="Fill-588-Copy-3" fill="#516066"></path>
                    <path d="M26.0372745,23.0885024 C25.46415,23.0885024 25,22.6204831 25,22.0442512 C25,21.4680193 25.46415,21 26.0372745,21 L28.3147357,21 C28.8878601,21 29.3533555,21.4680193 29.3533555,22.0442512 C29.3533555,22.6204831 28.8878601,23.0885024 28.3147357,23.0885024 L26.0372745,23.0885024 Z" id="Fill-588-Copy-4" fill="#516066"></path>
                    <path d="M33.075122,96.7484693 L33.075122,89.596648 L45.962439,89.596648 L45.962439,96.7484693 L33.075122,96.7484693 Z" id="Fill-55" stroke="#516066" stroke-width="2" fill="#838F93" stroke-linecap="round" stroke-linejoin="round"></path>
                    <path d="M24.1919512,9.46185475 L24.1919512,8.45818994 C24.1919512,7.90547414 23.740153,7.45398883 23.1867317,7.45398883 C22.6328155,7.45398883 22.1809756,7.90543249 22.1809756,8.45818994 L22.1809756,10.607419 L24.1914146,10.607419 L24.1914146,9.46185475 L24.1919512,9.46185475 Z M23.1867578,-1.50418785 L33.6588834,14.8502793 L12.7139823,14.8502793 L23.1867578,-1.50418785 Z" id="Fill-51" stroke="#516066" stroke-width="2" fill="#838F93" stroke-linecap="round" stroke-linejoin="round"></path>
                    <path d="M0.413707317,96.7484693 L0.413707317,89.596648 L13.3010244,89.596648 L13.3010244,96.7484693 L0.413707317,96.7484693 Z" id="Fill-57" stroke="#516066" stroke-width="2" fill="#838F93" stroke-linecap="round" stroke-linejoin="round"></path>
                </g>
            </g>
        </g>
    </g>
</svg>