<?xml version="1.0" encoding="UTF-8"?>
<svg width="128px" height="128px" viewBox="0 0 128 128" version="1.1" xmlns="http://www.w3.org/2000/svg" xmlns:xlink="http://www.w3.org/1999/xlink">
    <!-- Generator: Sketch 53 (72520) - https://sketchapp.com -->
    <title>img-race-sweden</title>
    <desc>Created with Sketch.</desc>
    <g id="Symbols" stroke="none" stroke-width="1" fill="none" fill-rule="evenodd">
        <g id="image-/-race-/-sweden">
            <g>
                <circle id="Oval" stroke-opacity="0.32" stroke="#F0F8FF" stroke-width="2" fill-opacity="0.04" fill="#F0F8FF" cx="64" cy="64" r="63"></circle>
                <path d="M83.7,107 L83.7,74.4160203 C84.4161,74.4911954 85.1465,74.5431546 85.9,74.5431546 C86.5083,74.5431546 87,74.0489889 87,73.4376386 C87,72.8262882 86.5083,72.3321225 85.9,72.3321225 C85.5315,72.3321225 85.1729,72.3144343 84.8165,72.2934295 C84.8132,72.2005661 84.8033,72.1099138 84.778,72.0247891 C84.6834,71.3393691 84.272,70.7556567 83.7,70.4217908 L83.7,56.854898 C83.7,56.2446531 83.2083,55.7493819 82.6,55.7493819 C81.9917,55.7493819 81.5,56.2446531 81.5,56.854898 L81.5,70.4284239 C81.0721,70.6793761 80.7366,71.0652011 80.554,71.5328344 C76.3828,70.25928 73.8,67.8039288 73.8,66.8045423 L74.9,66.8045423 C75.5083,66.8045423 76,66.3103767 76,65.6990263 L76,62.3824782 C76,61.7711278 75.5083,61.2769621 74.9,61.2769621 L74.9,44.6942216 C75.5083,44.6942216 76,44.1989504 76,43.5887055 C76,42.9784607 75.5083,42.4831895 74.9,42.4831895 L73.9958,42.4831895 C73.943,42.4632902 73.8792,42.4378633 73.8,42.4069089 L73.8,41.3776734 C73.8,40.7674286 73.3083,40.2721574 72.7,40.2721574 C72.1126,40.2721574 71.6451,40.7364741 71.6121,41.3168701 C70.0325,40.3650207 68.3,39.9902508 68.3,38.0611253 C68.3,37.1170146 68.5266,36.7953095 68.7884,36.4238561 C69.0469,36.0568247 69.4,35.5538149 69.4,34.7445772 L69.4,33.6390612 C69.4,32.6518353 68.6025,30.9018034 67.7599,30.2197001 C67.211,29.7763881 66.617,29.2899611 66.3101,28.7725796 C66.848,28.3701717 67.2,27.732289 67.2,27.0059649 C67.2,25.9004489 66.65,25.3476909 66.1,24.9331224 L66.1,26.6267729 C66.8348,26.3338112 68.1295,25.9004489 69.4,25.9004489 L70.5,25.9004489 C70.6342,25.9004489 73.8,25.8374345 73.8,20.3728687 L74.9,20.3728687 C75.5083,20.3728687 76,19.8775975 76,19.2673527 L76,18.1618366 C76,17.7152081 75.7327,17.3116948 75.3224,17.1403398 C74.911,16.9689848 74.438,17.0629537 74.1234,17.3802368 L74.1025,17.4012416 L73.6845,16.5621549 C73.3105,15.812615 72.0906,15.812615 71.7166,16.5621549 L71.2986,17.4012416 L71.2777,17.3802368 C70.9631,17.0640592 70.7029649,17.1537505 70.2915649,17.324 C69.8801649,17.495355 69.7658691,17.7152081 69.7658691,18.1618366 L69.7658691,19.2673527 C69.7658691,19.8775975 69.8917,20.3728687 70.5,20.3728687 L71.6,20.3728687 C71.6,22.8746515 70.841,23.6374576 70.5,23.6894168 L69.4,23.6894168 C68.1922,23.6894168 67.0042,23.979062 66.1,24.2764458 L66.1,23.6894168 L67.2,23.6894168 C67.8083,23.6894168 68.3,23.1941456 68.3,22.5839008 L68.3,21.4783847 C68.3,21.0317563 68.0327,20.6282429 67.6213,20.4568879 C67.2099,20.2855329 66.7369,20.3795018 66.4223,20.6967849 L66.4014,20.7177897 L65.9834,19.878703 C65.6105,19.1291631 64.3884,19.1291631 64.0155,19.878703 L63.5986,20.7177897 L63.5777,20.6967849 C63.262,20.3806073 62.7901,20.2855329 62.3787,20.4568879 C61.9684,20.6282429 61.7,21.0317563 61.7,21.4783847 L61.7,22.5839008 C61.7,23.1941456 62.1928,23.6894168 62.8,23.6894168 L63.9,23.6894168 L63.9,24.2764458 C62.9958,23.979062 61.8067,23.6894168 60.6,23.6894168 L59.5616,23.6916278 C59.159,23.6374576 58.4,22.8746515 58.4,20.3728687 L59.5,20.3728687 C60.1072,20.3728687 60.6,19.8775975 60.6,19.2673527 L60.6,18.1618366 C60.6,17.7152081 60.3316,17.3116948 59.9202,17.1403398 C59.5077,16.9689848 59.0358,17.0629537 58.7212,17.3802368 L58.7003,17.4012416 L58.2834,16.5621549 C57.9105,15.812615 56.6884,15.812615 56.3155,16.5621549 L55.8986,17.4012416 L55.8777,17.3802368 C55.562,17.0629537 55.0901,16.9689848 54.6787,17.1403398 C54.2684,17.3116948 54,17.7152081 54,18.1618366 L54,19.2673527 C54,19.8775975 54.4928,20.3728687 55.1,20.3728687 L56.2,20.3728687 C56.2,25.8374345 59.3647,25.9004489 59.5,25.9004489 L60.6,25.9004489 C61.8705,25.9004489 63.1652,26.3338112 63.9,26.6267729 L63.9,24.9331224 C63.35,25.3476909 62.8,25.9004489 62.8,27.0059649 C62.8,27.732289 63.152,28.3701717 63.6899,28.7725796 C63.3841,29.2888555 62.789,29.7752826 62.2401,30.2197001 C61.3964,30.9018034 60.6,32.6518353 60.6,33.6390612 L60.6,34.7445772 C60.6,35.5538149 60.9531,36.0568247 61.2116,36.4238561 C61.4734,36.7953095 61.7,37.1170146 61.7,38.0611253 C61.7,39.9217088 60.0324,40.3263277 58.3901,41.3279252 C58.3626,40.7420017 57.8896,40.2721574 57.3,40.2721574 C56.6928,40.2721574 56.2,40.7674286 56.2,41.3776734 L56.2,42.413542 C56.1318,42.4400743 56.0724,42.4599736 56.0108,42.4831895 L55.1,42.4831895 C54.4928,42.4831895 54,42.9784607 54,43.5887055 C54,44.1989504 54.4928,44.6942216 55.1,44.6942216 L55.1,61.2769621 C54.4928,61.2769621 54,61.7711278 54,62.3824782 L54,65.6990263 C54,66.3103767 54.4928,66.8045423 55.1,66.8045423 L56.2,66.8045423 C56.2,67.7066434 53.3301,70.0945581 49.3932,71.4167552 C49.2029,70.9988702 48.8927,70.6506326 48.5,70.4217908 L48.5,56.854898 C48.5,56.2446531 48.0072,55.7493819 47.4,55.7493819 C46.7928,55.7493819 46.3,56.2446531 46.3,56.854898 L46.3,70.4284239 C45.6576,70.8042994 45.2209,71.4919303 45.2044,72.2867964 C44.8392,72.3144343 44.4707,72.331017 44.1,72.331017 C43.4928,72.331017 43,72.8251827 43,73.4365331 C43,74.0478834 43.4928,74.5420491 44.1,74.5420491 C44.7996,74.5420491 45.5399,74.4801402 46.3,74.3684831 L46.3,106.928141 L83.7,107 Z" id="bkg" fill="#838F93" fill-rule="nonzero"></path>
                <path d="M42.2314583,107.4688 C41.5510417,107.4688 41,106.9168 41,106.2352 C41,105.5536 41.5510417,105 42.2314583,105 L88.065,105 C88.7454167,105 89.2964583,105.5536 89.2964583,106.2352 C89.2964583,106.9168 88.7454167,107.4688 88.065,107.4688 L42.2314583,107.4688 Z" id="Fill-419" fill="#516066"></path>
                <path d="M83.7,107 L83.7,74.4160203 C84.4161,74.4911954 85.1465,74.5431546 85.9,74.5431546 C86.5083,74.5431546 87,74.0489889 87,73.4376386 C87,72.8262882 86.5083,72.3321225 85.9,72.3321225 C85.5315,72.3321225 85.1729,72.3144343 84.8165,72.2934295 C84.8132,72.2005661 84.8033,72.1099138 84.778,72.0247891 C84.6834,71.3393691 84.272,70.7556567 83.7,70.4217908 L83.7,56.854898 C83.7,56.2446531 83.2083,55.7493819 82.6,55.7493819 C81.9917,55.7493819 81.5,56.2446531 81.5,56.854898 L81.5,70.4284239 C81.0721,70.6793761 80.7366,71.0652011 80.554,71.5328344 C76.3828,70.25928 73.8,67.8039288 73.8,66.8045423 L74.9,66.8045423 C75.5083,66.8045423 76,66.3103767 76,65.6990263 L76,62.3824782 C76,61.7711278 75.5083,61.2769621 74.9,61.2769621 L74.9,44.6942216 C75.5083,44.6942216 76,44.1989504 76,43.5887055 C76,42.9784607 75.5083,42.4831895 74.9,42.4831895 L73.9958,42.4831895 C73.943,42.4632902 73.8792,42.4378633 73.8,42.4069089 L73.8,41.3776734 C73.8,40.7674286 73.3083,40.2721574 72.7,40.2721574 C72.1126,40.2721574 71.6451,40.7364741 71.6121,41.3168701 C70.0325,40.3650207 68.3,39.9902508 68.3,38.0611253 C68.3,37.1170146 68.5266,36.7953095 68.7884,36.4238561 C69.0469,36.0568247 69.4,35.5538149 69.4,34.7445772 L69.4,33.6390612 C69.4,32.6518353 68.6025,30.9018034 67.7599,30.2197001 C67.211,29.7763881 66.617,29.2899611 66.3101,28.7725796 C66.848,28.3701717 67.2,27.732289 67.2,27.0059649 C67.2,25.9004489 66.65,25.3476909 66.1,24.9331224 L66.1,26.6267729 C66.8348,26.3338112 68.1295,25.9004489 69.4,25.9004489 L70.5,25.9004489 C70.6342,25.9004489 73.8,25.8374345 73.8,20.3728687 L74.9,20.3728687 C75.5083,20.3728687 76,19.8775975 76,19.2673527 L76,18.1618366 C76,17.7152081 75.7327,17.3116948 75.3224,17.1403398 C74.911,16.9689848 74.438,17.0629537 74.1234,17.3802368 L74.1025,17.4012416 L73.6845,16.5621549 C73.3105,15.812615 72.0906,15.812615 71.7166,16.5621549 L71.2986,17.4012416 L71.2777,17.3802368 C70.9631,17.0640592 70.7029649,17.1537505 70.2915649,17.324 C69.8801649,17.495355 69.7658691,17.7152081 69.7658691,18.1618366 L69.7658691,19.2673527 C69.7658691,19.8775975 69.8917,20.3728687 70.5,20.3728687 L71.6,20.3728687 C71.6,22.8746515 70.841,23.6374576 70.5,23.6894168 L69.4,23.6894168 C68.1922,23.6894168 67.0042,23.979062 66.1,24.2764458 L66.1,23.6894168 L67.2,23.6894168 C67.8083,23.6894168 68.3,23.1941456 68.3,22.5839008 L68.3,21.4783847 C68.3,21.0317563 68.0327,20.6282429 67.6213,20.4568879 C67.2099,20.2855329 66.7369,20.3795018 66.4223,20.6967849 L66.4014,20.7177897 L65.9834,19.878703 C65.6105,19.1291631 64.3884,19.1291631 64.0155,19.878703 L63.5986,20.7177897 L63.5777,20.6967849 C63.262,20.3806073 62.7901,20.2855329 62.3787,20.4568879 C61.9684,20.6282429 61.7,21.0317563 61.7,21.4783847 L61.7,22.5839008 C61.7,23.1941456 62.1928,23.6894168 62.8,23.6894168 L63.9,23.6894168 L63.9,24.2764458 C62.9958,23.979062 61.8067,23.6894168 60.6,23.6894168 L59.5616,23.6916278 C59.159,23.6374576 58.4,22.8746515 58.4,20.3728687 L59.5,20.3728687 C60.1072,20.3728687 60.6,19.8775975 60.6,19.2673527 L60.6,18.1618366 C60.6,17.7152081 60.3316,17.3116948 59.9202,17.1403398 C59.5077,16.9689848 59.0358,17.0629537 58.7212,17.3802368 L58.7003,17.4012416 L58.2834,16.5621549 C57.9105,15.812615 56.6884,15.812615 56.3155,16.5621549 L55.8986,17.4012416 L55.8777,17.3802368 C55.562,17.0629537 55.0901,16.9689848 54.6787,17.1403398 C54.2684,17.3116948 54,17.7152081 54,18.1618366 L54,19.2673527 C54,19.8775975 54.4928,20.3728687 55.1,20.3728687 L56.2,20.3728687 C56.2,25.8374345 59.3647,25.9004489 59.5,25.9004489 L60.6,25.9004489 C61.8705,25.9004489 63.1652,26.3338112 63.9,26.6267729 L63.9,24.9331224 C63.35,25.3476909 62.8,25.9004489 62.8,27.0059649 C62.8,27.732289 63.152,28.3701717 63.6899,28.7725796 C63.3841,29.2888555 62.789,29.7752826 62.2401,30.2197001 C61.3964,30.9018034 60.6,32.6518353 60.6,33.6390612 L60.6,34.7445772 C60.6,35.5538149 60.9531,36.0568247 61.2116,36.4238561 C61.4734,36.7953095 61.7,37.1170146 61.7,38.0611253 C61.7,39.9217088 60.0324,40.3263277 58.3901,41.3279252 C58.3626,40.7420017 57.8896,40.2721574 57.3,40.2721574 C56.6928,40.2721574 56.2,40.7674286 56.2,41.3776734 L56.2,42.413542 C56.1318,42.4400743 56.0724,42.4599736 56.0108,42.4831895 L55.1,42.4831895 C54.4928,42.4831895 54,42.9784607 54,43.5887055 C54,44.1989504 54.4928,44.6942216 55.1,44.6942216 L55.1,61.2769621 C54.4928,61.2769621 54,61.7711278 54,62.3824782 L54,65.6990263 C54,66.3103767 54.4928,66.8045423 55.1,66.8045423 L56.2,66.8045423 C56.2,67.7066434 53.3301,70.0945581 49.3932,71.4167552 C49.2029,70.9988702 48.8927,70.6506326 48.5,70.4217908 L48.5,56.854898 C48.5,56.2446531 48.0072,55.7493819 47.4,55.7493819 C46.7928,55.7493819 46.3,56.2446531 46.3,56.854898 L46.3,70.4284239 C45.6576,70.8042994 45.2209,71.4919303 45.2044,72.2867964 C44.8392,72.3144343 44.4707,72.331017 44.1,72.331017 C43.4928,72.331017 43,72.8251827 43,73.4365331 C43,74.0478834 43.4928,74.5420491 44.1,74.5420491 C44.7996,74.5420491 45.5399,74.4801402 46.3,74.3684831 L46.3,106.928141 L83.7,107 Z M56.2,64.5935103 L56.2,63.4879942 L73.3,63.4879942 L73.3,64.5935103 L56.2,64.5935103 Z M65,58.7493819 C64.3928,58.7493819 63.9,59.2446531 63.9,59.854898 L63.9,60.960414 L60.6,60.960414 L60.6,49.1162857 L62.8,49.1162857 C62.7978,49.9796937 62.6482,50.9934519 62.4766,51.3759605 C62.0267,51.51415 61.7,51.9353516 61.7,52.4328338 L61.7,53.5383499 C61.7,54.1485947 62.1928,54.6438659 62.8,54.6438659 L67.2,54.6438659 C67.8083,54.6438659 68.3,54.1485947 68.3,53.5383499 L68.3,52.4328338 C68.3,51.9353516 67.9733,51.51415 67.5234,51.3759605 C67.3518,50.9934519 67.2011,49.9796937 67.2,49.1162857 L69.4,49.1162857 L69.4,60.960414 L66.1,60.960414 L66.1,59.854898 C66.1,59.2446531 65.6072,58.7493819 65,58.7493819 Z M65.5852,52.4328338 L64.4137,52.4328338 C64.7338,51.8015842 64.8867,50.9857133 64.9527,50.2218017 L65.0451,50.2218017 C65.1122,50.9857133 65.2651,51.8015842 65.5852,52.4328338 Z M69.4,46.9052536 L66.1,46.9052536 C66.1,46.2950088 65.6072,45.7997376 65,45.7997376 C64.3928,45.7997376 63.9,46.2950088 63.9,46.9052536 L60.6,46.9052536 L60.6,44.6942216 L69.4,44.6942216 L69.4,46.9052536 Z M66.1,74.5431546 L81.5,74.5431546 L81.5,100.418863 C81.5,100.480772 81.5253,100.533837 81.5352,100.592429 C76.9438,103.188181 71.6924,104.731481 66.1,104.903942 L66.1,74.5431546 Z M76.6116,72.3321225 L67.222,72.3321225 C67.222,72.2248875 67.2066,72.1220745 67.178,72.0247891 C67.0834,71.3393691 66.672,70.7556567 66.1,70.4217908 L66.1,66.8045423 L71.6,66.8045423 C71.6,68.5015095 73.5107,70.709225 76.6116,72.3321225 Z M71.2,61.2769621 L71.2,44.6942216 L73.2,44.6942216 L73.2,61.2769621 L71.2,61.2769621 Z M63.9,36.9556093 C63.9,35.3094959 63.3632,35.6511004 63.0079,35.146985 C62.8066,34.8606564 62.3182,34.2194571 62.8,33.7739341 C63.2818,33.3284112 63.3445,33.2709243 63.6195,33.0487156 C64.0562,32.696056 64.5611,31.1826045 65,30.6939664 C65.44,31.1826045 65.9438,32.6949505 66.3805,33.0487156 C66.6566,33.2709243 66.7358,33.3383608 67.2,33.7739341 C67.6642,34.2095074 67.1923,34.8606564 66.9921,35.146985 C66.6368,35.6511004 66.1,35.3094959 66.1,36.9556093 C66.1,39.3965887 67.6774,41.2240067 69.3714,42.4831895 L60.6275,42.4831895 C62.3226,41.2240067 63.9,39.3965887 63.9,36.9556093 Z M56.8,44.6942216 L58.8,44.6942216 L58.8,61.2769621 L56.8,61.2769621 L56.8,44.6942216 Z M58.4,66.8045423 L63.9,66.8045423 L63.9,70.4284239 C63.2455,70.812038 62.8,71.5173572 62.8,72.3321225 L52.8252,72.3321225 C55.9657,70.8241987 58.4,68.7579892 58.4,66.8045423 Z M48.5,74.5431546 L63.9,74.5431546 L63.9,104.900625 C58.3186,104.710476 53.0793,103.152804 48.5,100.548208 L48.5,74.5431546 Z M78.2,76.7541867 L78.2,82.2817669 C78.2,82.8931173 77.7083,83.3872829 77.1,83.3872829 C76.4917,83.3872829 76,82.8931173 76,82.2817669 L76,76.7541867 C76,76.1428363 76.4917,75.6486706 77.1,75.6486706 C77.7083,75.6486706 78.2,76.1428363 78.2,76.7541867 Z M71.6,76.7541867 L71.6,82.2817669 C71.6,82.8931173 71.1083,83.3872829 70.5,83.3872829 C69.8917,83.3872829 69.4,82.8931173 69.4,82.2817669 L69.4,76.7541867 C69.4,76.1428363 69.8917,75.6486706 70.5,75.6486706 C71.1083,75.6486706 71.6,76.1428363 71.6,76.7541867 Z M60.6,76.7541867 L60.6,82.2817669 C60.6,82.8931173 60.1072,83.3872829 59.5,83.3872829 C58.8928,83.3872829 58.4,82.8931173 58.4,82.2817669 L58.4,76.7541867 C58.4,76.1428363 58.8928,75.6486706 59.5,75.6486706 C60.1072,75.6486706 60.6,76.1428363 60.6,76.7541867 Z M54,76.7541867 L54,82.2817669 C54,82.8931173 53.5072,83.3872829 52.9,83.3872829 C52.2928,83.3872829 51.8,82.8931173 51.8,82.2817669 L51.8,76.7541867 C51.8,76.1428363 52.2928,75.6486706 52.9,75.6486706 C53.5072,75.6486706 54,76.1428363 54,76.7541867 Z M60.6,86.703831 L60.6,88.9148631 C60.6,89.5262135 60.1072,90.0203792 59.5,90.0203792 C58.8928,90.0203792 58.4,89.5262135 58.4,88.9148631 L58.4,86.703831 C58.4,86.0924807 58.8928,85.598315 59.5,85.598315 C60.1072,85.598315 60.6,86.0924807 60.6,86.703831 Z M57.3,93.3369273 L57.3,95.5479594 C57.3,96.1593097 56.8072,96.6534754 56.2,96.6534754 C55.5928,96.6534754 55.1,96.1593097 55.1,95.5479594 L55.1,93.3369273 C55.1,92.7255769 55.5928,92.2314112 56.2,92.2314112 C56.8072,92.2314112 57.3,92.7255769 57.3,93.3369273 Z M54,86.703831 L54,88.9148631 C54,89.5262135 53.5072,90.0203792 52.9,90.0203792 C52.2928,90.0203792 51.8,89.5262135 51.8,88.9148631 L51.8,86.703831 C51.8,86.0924807 52.2928,85.598315 52.9,85.598315 C53.5072,85.598315 54,86.0924807 54,86.703831 Z M60.6,99.9700235 L60.6,101.07554 C60.6,101.68689 60.1072,102.181056 59.5,102.181056 C58.8928,102.181056 58.4,101.68689 58.4,101.07554 L58.4,99.9700235 C58.4,99.3586731 58.8928,98.8645075 59.5,98.8645075 C60.1072,98.8645075 60.6,99.3586731 60.6,99.9700235 Z M54,99.9700235 L54,101.07554 C54,101.68689 53.5072,102.181056 52.9,102.181056 C52.2928,102.181056 51.8,101.68689 51.8,101.07554 L51.8,99.9700235 C51.8,99.3586731 52.2928,98.8645075 52.9,98.8645075 C53.5072,98.8645075 54,99.3586731 54,99.9700235 Z M78.2,86.703831 L78.2,88.9148631 C78.2,89.5262135 77.7083,90.0203792 77.1,90.0203792 C76.4917,90.0203792 76,89.5262135 76,88.9148631 L76,86.703831 C76,86.0924807 76.4917,85.598315 77.1,85.598315 C77.7083,85.598315 78.2,86.0924807 78.2,86.703831 Z M74.9,93.3369273 L74.9,95.5479594 C74.9,96.1593097 74.4083,96.6534754 73.8,96.6534754 C73.1917,96.6534754 72.7,96.1593097 72.7,95.5479594 L72.7,93.3369273 C72.7,92.7255769 73.1917,92.2314112 73.8,92.2314112 C74.4083,92.2314112 74.9,92.7255769 74.9,93.3369273 Z M71.6,86.703831 L71.6,88.9148631 C71.6,89.5262135 71.1083,90.0203792 70.5,90.0203792 C69.8917,90.0203792 69.4,89.5262135 69.4,88.9148631 L69.4,86.703831 C69.4,86.0924807 69.8917,85.598315 70.5,85.598315 C71.1083,85.598315 71.6,86.0924807 71.6,86.703831 Z M78.2,99.9700235 L78.2,101.07554 C78.2,101.68689 77.7083,102.181056 77.1,102.181056 C76.4917,102.181056 76,101.68689 76,101.07554 L76,99.9700235 C76,99.3586731 76.4917,98.8645075 77.1,98.8645075 C77.7083,98.8645075 78.2,99.3586731 78.2,99.9700235 Z M71.6,99.9700235 L71.6,101.07554 C71.6,101.68689 71.1083,102.181056 70.5,102.181056 C69.8917,102.181056 69.4,101.68689 69.4,101.07554 L69.4,99.9700235 C69.4,99.3586731 69.8917,98.8645075 70.5,98.8645075 C71.1083,98.8645075 71.6,99.3586731 71.6,99.9700235 Z" id="Shape" fill="#516066" fill-rule="nonzero"></path>
            </g>
        </g>
    </g>
</svg>