<?xml version="1.0" encoding="UTF-8"?>
<svg width="128px" height="128px" viewBox="0 0 128 128" version="1.1" xmlns="http://www.w3.org/2000/svg" xmlns:xlink="http://www.w3.org/1999/xlink">
    <!-- Generator: Sketch 53 (72520) - https://sketchapp.com -->
    <title>img-race-australia</title>
    <desc>Created with Sketch.</desc>
    <g id="Symbols" stroke="none" stroke-width="1" fill="none" fill-rule="evenodd">
        <g id="image-/-race-/-australia">
            <g>
                <circle id="Oval-Copy-12" stroke-opacity="0.32" stroke="#F0F8FF" stroke-width="2" fill-opacity="0.04" fill="#F0F8FF" cx="64" cy="64" r="63"></circle>
                <g id="img" transform="translate(10.000000, 31.000000)">
                    <path d="M1.99434494,25.4508911 C1.99434494,25.4508911 12.5075696,17.5249175 24.2650443,24.5248185 L29.6658987,47.3625743 L12.6487215,47.3625743 C12.6487215,47.3625743 16.7040475,30.9086799 1.99434494,25.4508911" id="Fill-284" fill="#838F93"></path>
                    <path d="M14.8118544,14.8433333 C14.8118544,14.8433333 28.8724177,12.5140594 41.4552722,20.8144884 L46.3945918,47.3625743 L23.0843924,47.3625743 C23.0843924,47.3625743 27.9353924,27.2225083 14.8118544,14.8433333" id="Fill-285" fill="#838F93"></path>
                    <path d="M59.0466266,21.7747855 C49.9728323,1.86221122 26.7647089,1.68706271 26.7647089,1.68706271 C43.6907753,19.8360726 42.1203608,47.3625743 42.1203608,47.3625743 L74.5769241,47.3625743 L83.8251646,12.7878548 C65.3284842,9.96937294 59.0466266,21.7747855 59.0466266,21.7747855" id="Fill-286" fill="#838F93"></path>
                    <path d="M13.9888671,27.8264686 C12.1861899,24.4724752 13.0023987,22.5981848 13.9330443,21.639901 C6.9843038,21.690231 1.99434494,25.4508911 1.99434494,25.4508911 C7.44005696,27.4721452 10.3103449,30.9992739 11.7701108,34.6411551 C11.783269,34.6391419 11.7964272,34.6391419 11.8097848,34.6371287 C14.3224082,34.4519142 15.8808608,31.790462 14.8301962,29.4772937 C14.3511171,28.4243894 13.9888671,27.8264686 13.9888671,27.8264686" id="Fill-288" fill="#838F93"></path>
                    <path d="M26.4255854,20.770198 C25.2794241,17.9315842 26.0545633,16.1780858 27.0599715,15.1473267 C20.2400222,13.999802 15.1228671,14.8433333 15.1228671,14.8433333 C21.2769304,20.6494059 23.4771456,28.1586469 24.0796329,34.500231 C26.9860063,34.500231 29.2213101,31.8669637 28.7354525,28.9739934 C28.2198892,25.9038614 27.3895253,23.1578548 26.4255854,20.770198" id="Fill-289" fill="#838F93"></path>
                    <path d="M82.6058354,17.3457426 L83.8251646,12.7878548 C65.3284842,9.96937294 59.0466266,21.7747855 59.0466266,21.7747855 L63.7534842,28.9961386 C63.7534842,28.9961386 67.8504778,16.6974917 82.6058354,17.3457426" id="Fill-291" fill="#838F93"></path>
                    <path d="M42.3063703,5.40947195 C42.3071677,5.40947195 42.3079652,5.40947195 42.308962,5.40947195 C42.2112722,5.36518152 42.1141804,5.32290429 42.0164905,5.28062706 C41.8637753,5.21217822 41.7108608,5.14372937 41.5585443,5.07930693 C41.3011614,4.96858086 41.0447753,4.86188119 40.7893861,4.75920792 C40.6302911,4.69478548 40.4725918,4.63438944 40.3144937,4.5739934 C40.1813165,4.52165017 40.0483386,4.46930693 39.9159589,4.4189769 C39.7566646,4.36059406 39.5979684,4.30019802 39.4396709,4.24382838 C39.3096835,4.19551155 39.1804937,4.15122112 39.0513038,4.10491749 C38.8955981,4.05056106 38.739693,3.99419142 38.5855823,3.94184818 C38.3413576,3.85930693 38.0989272,3.77877888 37.8584905,3.70227723 C37.7035823,3.6539604 37.5510665,3.60765677 37.3977532,3.55933993 C37.2743449,3.52108911 37.1513354,3.48485149 37.0293228,3.44660066 C36.8776044,3.40231023 36.7272816,3.3580198 36.577557,3.31574257 C36.4551456,3.27950495 36.3343291,3.24729373 36.2133133,3.21306931 C36.0687722,3.17280528 35.9240316,3.13254125 35.7816835,3.09429043 C35.5524114,3.03389439 35.3255316,2.97551155 35.1016424,2.91914191 C34.9650759,2.88491749 34.8316994,2.85270627 34.6973259,2.82049505 C34.5761108,2.79231023 34.4552943,2.76412541 34.3358734,2.73594059 C34.2042911,2.70574257 34.0741044,2.67554455 33.9449146,2.64735974 C33.8205095,2.61917492 33.6982975,2.5930033 33.5762848,2.56683168 C33.4592563,2.54267327 33.3414304,2.51650165 33.2267943,2.49234323 C33.0136709,2.45006601 32.8043354,2.40778878 32.5989873,2.36953795 C32.4941203,2.34940594 32.3928418,2.33128713 32.2901677,2.31316832 C32.1633703,2.2890099 32.0375696,2.26686469 31.913962,2.24471947 C31.8152753,2.22861386 31.7179842,2.21049505 31.6214905,2.19438944 C31.4859209,2.17224422 31.3537405,2.15009901 31.222557,2.129967 C31.1477943,2.11788779 31.0718354,2.10580858 30.9986677,2.09574257 C30.803288,2.06554455 30.6138892,2.03735974 30.4294747,2.01118812 C30.4147215,2.00917492 30.3981741,2.00716172 30.3832215,2.00514851 L30.3836203,2.00514851 C28.1542975,1.69914191 26.7647089,1.68706271 26.7647089,1.68706271 C36.8333449,12.4838614 40.3565601,26.5964026 41.558943,36.2617822 C41.5790791,36.269835 41.5990158,36.2778878 41.6189525,36.2859406 C44.5374873,37.4354785 47.5776361,34.9652805 47.0848006,31.8428053 C46.5610633,28.5210231 45.6298196,24.3718152 43.9750728,20.0273267 C43.0547943,17.6114851 45.6489589,15.3305281 47.8808734,16.6028713 C52.3321424,19.1435314 56.8270728,22.9021782 59.0466266,28.3015842 L59.0466266,21.7747855 C55.1097247,13.1361386 48.5140633,8.21587459 42.3063703,5.40947195" id="Fill-292" fill="#838F93"></path>
                    <path d="M12.6487215,47.3625743 L29.6658987,47.3625743 L26.9391551,35.8329703 L12.2003449,35.8329703 C14.0566519,41.6450825 12.6487215,47.3625743 12.6487215,47.3625743" id="Fill-293" fill="#838F93"></path>
                    <path d="M46.3945918,47.3625743 L44.8780063,39.2131353 L40.13925,37.1938944 C38.0313418,36.2960066 35.7665316,35.8329703 33.4785949,35.8329703 L23.8744842,35.8329703 C24.2857785,42.3718482 23.0843924,47.3625743 23.0843924,47.3625743 L46.3945918,47.3625743" id="Fill-294" fill="#838F93"></path>
                    <path d="M50.1062089,41.439736 L41.7429589,37.8763696 C42.3358766,43.5717162 42.1203608,47.3625743 42.1203608,47.3625743 L74.5769241,47.3625743 L75.8417089,42.6355776 L55.9594272,42.6355776 C53.9488101,42.6355776 51.9587278,42.2289109 50.1062089,41.439736" id="Fill-295" fill="#838F93"></path>
                    <path d="M28.5734512,39.3943234 C33.3579889,39.3943234 38.0821044,40.4532673 42.3993369,42.4946535 L52.6985637,47.3625743 L101.202768,47.3625743 C102.969454,47.3625743 104.401275,48.779868 104.401275,50.5293399 L104.401275,59.2465017 L4.53871519,59.2465017 L4.53871519,39.3943234 L28.5734512,39.3943234 Z" id="Fill-297" fill="#838F93"></path>
                    <path d="M65.4199937,59.2465017 L65.4199937,58.9545875 C65.4199937,56.1441584 63.1643544,53.8672277 60.3819873,53.8672277 L54.7289335,53.8672277 C51.9465665,53.8672277 49.6909272,56.1441584 49.6909272,58.9545875 L49.6909272,59.2465017 L65.4199937,59.2465017" id="Fill-300" fill="#838F93"></path>
                    <path d="M12.9206582,40.5418482 C12.1702405,40.5418482 11.5133259,39.9862046 11.4006835,39.2151485 C10.5186835,33.1674917 7.17549684,29.0283498 1.46382911,26.9084488 C0.934110759,26.7111551 0.553518987,26.2380528 0.471977848,25.6743564 C0.390636076,25.1106601 0.621901899,24.5469637 1.07406646,24.2067327 C1.26864873,24.059769 5.91430063,20.6091419 12.5803386,20.1380528 C13.4306392,20.0736304 14.1629146,20.7218812 14.2225253,21.5774917 C14.2821361,22.4331023 13.6433639,23.1759736 12.7958544,23.2363696 C9.72799367,23.4537954 7.12406013,24.4221452 5.36045886,25.2777558 C11.6706266,28.7283828 13.8042532,34.3733993 14.4446203,38.7621782 C14.5682278,39.609736 13.9872722,40.3989109 13.1467405,40.5237294 C13.0707816,40.5358086 12.9952215,40.5418482 12.9206582,40.5418482" id="Fill-301" fill="#516066"></path>
                    <path d="M23.9608101,40.1271287 C23.1115063,40.1271287 22.4228924,39.4325743 22.4224937,38.5729373 C22.4203006,31.9917822 20.9158766,22.7270297 13.7619873,15.9787789 C13.3333481,15.5741254 13.1696677,14.960099 13.3397278,14.3943894 C13.5099873,13.8266667 13.9842816,13.4079208 14.5630443,13.3112871 C14.8264082,13.2669967 21.1084652,12.2624092 29.1210285,14.0239604 C29.951193,14.2071617 30.4777215,15.0345875 30.2966962,15.8720792 C30.1160696,16.7115842 29.2958734,17.2430693 28.4665063,17.059868 C24.2979399,16.1438614 20.5940981,16.0391749 18.1416835,16.1257426 C24.1524019,23.2927393 25.4969335,32.1206271 25.4991266,38.5729373 C25.4995253,39.4305611 24.8109114,40.1271287 23.9614082,40.1271287 C23.9612089,40.1271287 23.9610095,40.1271287 23.9608101,40.1271287" id="Fill-302" fill="#516066"></path>
                    <path d="M42.0784937,43.8434983 C41.2628829,43.8434983 40.5828418,43.1952475 40.5431677,42.3637954 C40.1007722,33.0628053 37.5767848,15.5459406 25.6448639,2.7520462 C25.2228038,2.29907591 25.1085665,1.63673267 25.3549842,1.0649835 C25.5996076,0.499273927 26.1534494,0.132871287 26.7647089,0.132871287 C26.7684968,0.132871287 26.7724842,0.132871287 26.7764715,0.132871287 C27.0238861,0.134884488 32.9233576,0.209372937 40.0262089,2.80237624 C40.8252722,3.09429043 41.2385601,3.98613861 40.9496772,4.79141914 C40.6607943,5.59871287 39.7789937,6.01544554 38.9799304,5.72554455 C35.6967532,4.52567657 32.6597943,3.90561056 30.4336614,3.58349835 C40.861557,16.7156106 43.1865759,33.179571 43.6164114,42.2148185 C43.6570823,43.0724422 43.0021614,43.7992079 42.1534557,43.8414851 C42.1285348,43.8414851 42.1034146,43.8434983 42.0784937,43.8434983" id="Fill-303" fill="#516066"></path>
                    <path d="M47.0066487,9.50029703 C46.7257405,9.50029703 46.4410443,9.42178218 46.1862532,9.25871287 C45.9274747,9.09363036 45.6678987,8.93257426 45.4077247,8.77755776 C44.6780411,8.33666667 44.4391994,7.38442244 44.874019,6.64759076 C45.309038,5.91075908 46.2530411,5.66917492 46.9833228,6.10805281 C47.2662247,6.27917492 47.5487278,6.45432343 47.8304335,6.63349835 C48.5483544,7.09250825 48.7624747,8.05079208 48.3085158,8.77755776 C48.0156456,9.24462046 47.5166297,9.50029703 47.0066487,9.50029703" id="Fill-304" fill="#516066"></path>
                    <path d="M59.0480222,23.3249505 C59.0300791,23.3249505 59.0121361,23.3249505 58.9937943,23.3229373 C58.4132373,23.3028053 57.8918924,22.9565347 57.6492627,22.4230363 C56.0238228,18.8576568 53.7984873,15.7069967 51.0352595,13.059637 C50.4190158,12.469769 50.3930981,11.4853135 50.9776424,10.8632343 C51.5625854,10.2411551 52.5360949,10.2149835 53.152538,10.8048515 C55.5834209,13.1341254 57.6357057,15.8136964 59.2749019,18.7952475 C62.2398892,15.2620792 69.6537532,9.05739274 84.0548354,11.2517822 C84.4882595,11.3182178 84.8732373,11.5678548 85.1130759,11.9382838 C85.3527152,12.3087129 85.4244873,12.7657096 85.31025,13.1925083 L83.4736804,20.059538 C83.2521835,20.8889769 82.4074652,21.380198 81.587269,21.1547195 C80.7672722,20.9312541 80.2820127,20.0776568 80.5033101,19.250231 L81.880538,14.100462 C66.089269,12.4154125 60.6305981,22.0888449 60.3985348,22.5156436 C60.1275949,23.0149175 59.6082437,23.3249505 59.0480222,23.3249505" id="Fill-305" fill="#516066"></path>
                    <path d="M74.7222627,48.3772277 C74.5894842,48.3772277 74.4545127,48.3591089 74.3203386,48.3228713 C73.499943,48.0973927 73.0148829,47.2458086 73.2361804,46.4183828 L75.4766677,38.0414521 C75.6981646,37.2140264 76.5424842,36.7228053 77.3628797,36.9482838 C78.1830759,37.1717492 78.6683354,38.0233333 78.4468386,38.8527723 L76.2065506,47.2276898 C76.0211392,47.920231 75.4003101,48.3772277 74.7222627,48.3772277" id="Fill-306" fill="#373835"></path>
                    <path d="M59.0466266,48.9167657 C58.1971234,48.9167657 57.5083101,48.2222112 57.5083101,47.3625743 L57.5083101,21.7747855 C57.5083101,20.9171617 58.1971234,20.2205941 59.0466266,20.2205941 C59.8961297,20.2205941 60.584943,20.9171617 60.584943,21.7747855 L60.584943,47.3625743 C60.584943,48.2222112 59.8961297,48.9167657 59.0466266,48.9167657" id="Fill-307" fill="#516066"></path>
                    <path d="M74.7228608,48.3772277 C74.2126804,48.3772277 73.7136646,48.119538 73.4209937,47.6524752 L57.7461551,22.6042244 C57.2923956,21.8794719 57.5067152,20.9191749 58.2248354,20.4621782 C58.9427563,20.0031683 59.8931392,20.2205941 60.3468987,20.9453465 L76.0217373,45.9935974 C76.4756962,46.7183498 76.2613766,47.6766337 75.5432563,48.1356436 C75.2880665,48.2987129 75.003769,48.3772277 74.7228608,48.3772277" id="Fill-308" fill="#516066"></path>
                    <path d="M47.7431108,39.5573927 C47.4372816,39.5573927 47.1286614,39.4647855 46.8595158,39.2735314 C46.1645222,38.780297 45.9972532,37.8119472 46.4859019,37.1093399 L57.7882215,20.8809241 C58.2768703,20.18033 59.2366234,20.0112211 59.9314177,20.5044554 C60.6264114,20.9976898 60.7936804,21.9660396 60.3048323,22.6686469 L49.002712,38.8970627 C48.7032627,39.3278878 48.2269747,39.5573927 47.7431108,39.5573927" id="Fill-309" fill="#516066"></path>
                    <path d="M4.53851582,60.7986799 C3.68921203,60.7986799 3.00019937,60.1041254 3.00019937,59.2465017 L3.00019937,47.3625743 C3.00019937,46.5049505 3.68921203,45.810396 4.53851582,45.810396 C5.38821835,45.810396 6.07703165,46.5049505 6.07703165,47.3625743 L6.07703165,57.6923102 L102.862959,57.6923102 L102.862959,50.5293399 C102.862959,49.639505 102.146832,48.9167657 101.266826,48.9167657 L51.7338418,48.9167657 C51.5043703,48.9167657 51.2778892,48.8644224 51.0707468,48.7657756 L40.9779873,43.8958416 C36.9790823,41.9671947 32.5232278,40.9465017 28.0920949,40.9465017 L4.53851582,40.9465017 C3.68921203,40.9465017 3.00019937,40.2519472 3.00019937,39.3943234 C3.00019937,38.5346865 3.68921203,37.840132 4.53851582,37.840132 L28.0920949,37.840132 C32.9793797,37.840132 37.8939778,38.9655116 42.3041772,41.0934653 L52.0825348,45.810396 L101.266826,45.810396 C103.843446,45.810396 105.939592,47.9262706 105.939592,50.5293399 L105.939592,59.2465017 C105.939592,60.1041254 105.250778,60.7986799 104.401275,60.7986799 L4.53851582,60.7986799 Z" id="Fill-310" fill="#516066"></path>
                    <path d="M51.7338418,48.9167657 L35.7912532,48.9167657 C34.94175,48.9167657 34.2529367,48.2222112 34.2529367,47.3625743 C34.2529367,46.5049505 34.94175,45.810396 35.7912532,45.810396 L51.7338418,45.810396 C52.5833449,45.810396 53.2723576,46.5049505 53.2723576,47.3625743 C53.2723576,48.2222112 52.5833449,48.9167657 51.7338418,48.9167657" id="Fill-311" fill="#516066"></path>
                    <path d="M28.4685,48.9167657 L23.7606456,48.9167657 C22.9111424,48.9167657 22.2223291,48.2222112 22.2223291,47.3625743 C22.2223291,46.5049505 22.9111424,45.810396 23.7606456,45.810396 L28.4685,45.810396 C29.3180032,45.810396 30.0068165,46.5049505 30.0068165,47.3625743 C30.0068165,48.2222112 29.3180032,48.9167657 28.4685,48.9167657" id="Fill-312" fill="#516066"></path>
                    <path d="M15.6902658,48.9167657 L15.2050063,48.9167657 C14.3555032,48.9167657 13.6666899,48.2222112 13.6666899,47.3625743 C13.6666899,46.5049505 14.3555032,45.810396 15.2050063,45.810396 L15.6902658,45.810396 C16.539769,45.810396 17.2285823,46.5049505 17.2285823,47.3625743 C17.2285823,48.2222112 16.539769,48.9167657 15.6902658,48.9167657" id="Fill-313" fill="#516066"></path>
                    <g id="Group-2" transform="translate(58.000000, 19.000000)">
                        <path d="M2.05236392,8.17217822 C2.05236392,8.17217822 17.2072532,3.61026403 27.1163956,13.4709241 C27.1163956,13.4709241 32.5080791,1.69570957 49.9947658,1.77019802 L37.1712753,28.3625743 L19.8303259,28.3625743 C19.8303259,28.3625743 13.1272057,15.0673927 2.05236392,8.17217822" id="Fill-287" fill="#838F93"></path>
                        <path d="M27.1163956,13.4689109 C17.2072532,3.61026403 2.05236392,8.17217822 2.05236392,8.17217822 C5.89277215,10.5638614 9.2060538,13.7225743 11.8977089,16.8329703 L12.3658228,16.8329703 C12.3658228,16.8329703 11.4353766,11.8885479 15.2729937,11.9529703 C19.1106108,12.0173927 27.018307,15.5686799 27.018307,15.5686799 C27.018307,15.5686799 36.1959715,7.75745875 47.139231,7.6930363 L49.9947658,1.77019802 C32.5080791,1.69570957 27.1163956,13.4689109 27.1163956,13.4689109" id="Fill-290" fill="#838F93"></path>
                        <path d="M36.2424241,20.4788779 L36.2424241,20.4788779 C35.1795981,22.4256436 33.1526329,23.6355776 30.9512215,23.6355776 L17.0210443,23.6355776 C18.848443,26.419835 19.8303259,28.3625743 19.8303259,28.3625743 L37.1712753,28.3625743 L42.5856867,17.1349505 L42.3468449,17.1188449 C39.8380095,16.9436964 37.4565696,18.2542904 36.2424241,20.4788779" id="Fill-296" fill="#838F93"></path>
                        <path d="M37.1712753,29.9167657 L19.8303259,29.9167657 C19.2521614,29.9167657 18.7226424,29.5886139 18.4596772,29.0692079 C18.3944842,28.940363 11.8083924,16.069967 1.24492722,9.49485149 C0.728765823,9.17273927 0.447857595,8.57683168 0.527205696,7.96884488 C0.606753165,7.36287129 1.0318038,6.85957096 1.61275949,6.68442244 C2.26708228,6.48712871 17.7595,1.97957096 28.1961677,12.3636634 C28.8010475,12.9656106 28.8084241,13.9480528 28.2121171,14.560066 C27.6154114,15.170066 26.6415032,15.1781188 26.0366234,14.5761716 C19.6339494,8.20640264 10.7393861,8.32115512 5.92247785,8.98148515 C13.9942532,15.1922112 19.230231,24.0362046 20.7508038,26.810396 L36.2093291,26.810396 L47.497693,3.40089109 C39.9749747,3.90620462 35.1825886,6.80320132 32.4097911,9.27943894 C31.7734114,9.84716172 30.8012975,9.78676568 30.2384842,9.14455446 C29.6760696,8.50033003 29.7358797,7.51990099 30.3724589,6.95217822 C33.84025,3.85587459 40.0447532,0.171716172 50.0013449,0.218019802 C50.5302658,0.220033003 51.0211076,0.495841584 51.3008196,0.950825083 C51.5803323,1.40379538 51.6094399,1.97151815 51.3777753,2.45066007 L38.5542848,29.0430363 C38.2965032,29.5785479 37.7596076,29.9167657 37.1712753,29.9167657" id="Fill-314" fill="#516066"></path>
                        <path d="M33.1446582,24.2818152 C32.6440475,24.2818152 32.1532057,24.0362046 31.8575443,23.5832343 L27.2900443,16.5652145 L24.5204367,22.0954785 C24.1368544,22.860495 23.211193,23.1685149 22.4535981,22.779967 C21.6956044,22.3934323 21.391769,21.4593069 21.7751519,20.6942904 L25.7435538,12.7683168 C25.9913671,12.2750825 26.4814114,11.9509571 27.0292722,11.9187459 C27.5829146,11.880495 28.1004715,12.1542904 28.4019146,12.6173267 L34.4285823,21.8760396 C34.8953006,22.5927393 34.6979272,23.5550495 33.9881804,24.0281518 C33.727807,24.1992739 33.434538,24.2818152 33.1446582,24.2818152" id="Fill-315" fill="#516066"></path>
                    </g>
                </g>
            </g>
        </g>
    </g>
</svg>