<?xml version="1.0" encoding="UTF-8"?>
<svg width="128px" height="128px" viewBox="0 0 128 128" version="1.1" xmlns="http://www.w3.org/2000/svg" xmlns:xlink="http://www.w3.org/1999/xlink">
    <!-- Generator: Sketch 53 (72520) - https://sketchapp.com -->
    <title>img-race-new-zealand</title>
    <desc>Created with Sketch.</desc>
    <g id="Symbols" stroke="none" stroke-width="1" fill="none" fill-rule="evenodd">
        <g id="image-/-race-/-new-zealand">
            <g>
                <circle id="Oval-Copy-34" stroke-opacity="0.32" stroke="#F0F8FF" stroke-width="2" fill-opacity="0.04" fill="#F0F8FF" cx="64" cy="64" r="63"></circle>
                <g id="img" transform="translate(22.000000, 16.000000)">
                    <path d="M31.5322581,13.7096774 L34.4044793,9.061 C36.4692,9.37123618 37.9501745,9.18356951 38.8474026,8.498 C39.7446308,7.81243049 40.9763555,6.41943049 42.5425768,4.319 L46.105,8.63 L50.113048,9.061 L53.4677419,13.7096774 L54.3284419,24.5431424 L59.065,25.577 C59.0233786,27.9077863 59.0233786,29.3351197 59.065,29.859 C59.1066214,30.3828803 57.6933241,30.6947418 54.8251081,30.7945845 L59.065,84.1612903 L26.4433841,84.1612903 L29.4931974,30.469 L26.2881812,30.42625 L26.5779859,24.5431424 L31.0798801,24.138 L31.5322581,13.7096774 Z" id="Rectangle" fill="#838F93"></path>
                    <g id="Group" fill="#516066">
                        <path d="M59.9016935,72.6612903 L60.6935484,72.6612903 C61.2458331,72.6612903 61.6935484,72.2135751 61.6935484,71.6612903 L61.6935484,70.9193548 C61.6935484,70.3670701 61.2458331,69.9193548 60.6935484,69.9193548 L59.796129,69.9193548 L59.0050806,49.3548387 L62.0645161,49.3548387 C62.6168009,49.3548387 63.0645161,48.9071235 63.0645161,48.3548387 L63.0645161,47.6129032 C63.0645161,47.0606185 62.6168009,46.6129032 62.0645161,46.6129032 L57.5806452,46.6129032 L57.5806452,31.5322581 L60.3225806,31.5322581 L60.3225806,22.9354839 C60.3225806,22.3831991 59.8748654,21.9354839 59.3225806,21.9354839 L58.5806452,21.9354839 C58.0283604,21.9354839 57.5806452,22.3831991 57.5806452,22.9354839 L57.5806452,23.3064516 L54.8387097,23.3064516 L54.8387097,15.0806452 L55.2096774,15.0806452 C55.7619622,15.0806452 56.2096774,14.6329299 56.2096774,14.0806452 L56.2096774,13.3387097 C56.2096774,12.7864249 55.7619622,12.3387097 55.2096774,12.3387097 L54.4301613,12.3387097 C53.4403226,10.0958065 50.8258871,7.06596774 45.7752419,6.86580645 C45.5627419,6.29548387 45.3296774,5.08217742 45.2364516,3.9991129 L45.1308871,2.74193548 L43.8709677,2.74193548 L43.8709677,1 C43.8709677,0.44771525 43.4232525,-1.01453063e-16 42.8709677,0 L42.1290323,0 C41.5767475,4.02567223e-15 41.1290323,0.44771525 41.1290323,1 L41.1290323,2.74193548 L39.8677419,2.74193548 L39.7635484,3.9991129 C39.6730645,5.08217742 39.44,6.2941129 39.2247581,6.86580645 C34.1741129,7.06596774 31.5596774,10.0958065 30.5698387,12.3387097 L29.7903226,12.3387097 C29.2380378,12.3387097 28.7903226,12.7864249 28.7903226,13.3387097 L28.7903226,14.0806452 C28.7903226,14.6329299 29.2380378,15.0806452 29.7903226,15.0806452 L30.1612903,15.0806452 L30.1612903,23.3064516 L27.4193548,23.3064516 L27.4193548,22.9354839 C27.4193548,22.3831991 26.9716396,21.9354839 26.4193548,21.9354839 L25.6774194,21.9354839 C25.1251346,21.9354839 24.6774194,22.3831991 24.6774194,22.9354839 L24.6774194,31.5322581 L27.4193548,31.5322581 L27.4193548,46.6129032 L22.9354839,46.6129032 C22.3831991,46.6129032 21.9354839,47.0606185 21.9354839,47.6129032 L21.9354839,48.3548387 C21.9354839,48.9071235 22.3831991,49.3548387 22.9354839,49.3548387 L25.9949194,49.3548387 L25.203871,69.9193548 L24.3064516,69.9193548 C23.7541669,69.9193548 23.3064516,70.3670701 23.3064516,70.9193548 L23.3064516,71.6612903 C23.3064516,72.2135751 23.7541669,72.6612903 24.3064516,72.6612903 L25.0983065,72.6612903 L24.7295161,82.2580645 L1,82.2580645 C0.44771525,82.2580645 -6.76353751e-17,82.7057798 0,83.2580645 L0,84 C6.76353751e-17,84.5522847 0.44771525,85 1,85 L78.516129,85 C79.0684138,85 79.516129,84.5522847 79.516129,84 L79.516129,83.2580645 C79.516129,82.7057798 79.0684138,82.2580645 78.516129,82.2580645 L60.2704839,82.2580645 L59.9016935,72.6612903 Z M57.5271774,82.2580645 L49.3548387,82.2580645 L49.3548387,72.6612903 L57.1583871,72.6612903 L57.5271774,82.2580645 Z M46.6129032,72.6612903 L46.6129032,82.2580645 L38.3870968,82.2580645 L38.3870968,72.6612903 L46.6129032,72.6612903 Z M56.8416935,64.4354839 L49.3548387,64.4354839 L49.3548387,49.3548387 L56.2617742,49.3548387 L56.8416935,64.4354839 Z M47.983871,28.7903226 L47.983871,26.0483871 L52.0967742,26.0483871 L52.0967742,28.7903226 L47.983871,28.7903226 Z M45.2419355,28.7903226 L39.7580645,28.7903226 L39.7580645,26.0483871 L45.2419355,26.0483871 L45.2419355,28.7903226 Z M37.016129,28.7903226 L32.9032258,28.7903226 L32.9032258,26.0483871 L37.016129,26.0483871 L37.016129,28.7903226 Z M46.6129032,31.5322581 L46.6129032,41.1290323 L38.3870968,41.1290323 L38.3870968,31.5322581 L46.6129032,31.5322581 Z M46.6129032,43.8709677 L46.6129032,46.6129032 L38.3870968,46.6129032 L38.3870968,43.8709677 L46.6129032,43.8709677 Z M46.6129032,49.3548387 L46.6129032,64.4354839 L38.3870968,64.4354839 L38.3870968,49.3548387 L46.6129032,49.3548387 Z M49.3548387,46.6129032 L49.3548387,43.8709677 L54.8387097,43.8709677 L54.8387097,46.6129032 L49.3548387,46.6129032 Z M54.8387097,41.1290323 L49.3548387,41.1290323 L49.3548387,31.5322581 L54.8387097,31.5322581 L54.8387097,41.1290323 Z M57.5806452,26.0483871 L57.5806452,28.7903226 L54.8387097,28.7903226 L54.8387097,26.0483871 L57.5806452,26.0483871 Z M51.2632258,12.3387097 L49.2383065,12.3387097 C49.1601613,11.7519355 49.0271774,11.0404032 48.8105645,10.326129 C49.9772581,10.8717742 50.7545968,11.6381452 51.2632258,12.3387097 Z M42.3560484,5.48387097 L42.6453226,5.48387097 C43.2375806,9.59677419 44.7237097,9.59677419 45.2419355,9.59677419 C45.7108065,9.59677419 46.2235484,10.8333871 46.4703226,12.3387097 L38.5310484,12.3387097 C38.7709677,10.9087903 39.2645161,9.59677419 39.7580645,9.59677419 C40.2762903,9.59677419 41.7624194,9.59677419 42.3560484,5.48387097 Z M36.1880645,10.3275 C35.9728226,11.0417742 35.8384677,11.7519355 35.7616935,12.3387097 L33.7381452,12.3387097 C34.2467742,11.6408871 35.0241129,10.8731452 36.1880645,10.3275 Z M32.9032258,15.0806452 L52.0967742,15.0806452 L52.0967742,23.3064516 L47.983871,23.3064516 L47.983871,21.9354839 L45.2419355,21.9354839 L45.2419355,23.3064516 L39.7580645,23.3064516 L39.7580645,21.9354839 L37.016129,21.9354839 L37.016129,23.3064516 L32.9032258,23.3064516 L32.9032258,15.0806452 Z M30.1612903,26.0483871 L30.1612903,28.7903226 L27.4193548,28.7903226 L27.4193548,26.0483871 L30.1612903,26.0483871 Z M35.6451613,31.5322581 L35.6451613,41.1290323 L30.1612903,41.1290323 L30.1612903,31.5322581 L35.6451613,31.5322581 Z M30.1612903,43.8709677 L35.6451613,43.8709677 L35.6451613,46.6129032 L30.1612903,46.6129032 L30.1612903,43.8709677 Z M35.6451613,49.3548387 L35.6451613,64.4354839 L28.1583065,64.4354839 L28.7382258,49.3548387 L35.6451613,49.3548387 Z M28.0527419,67.1774194 L56.9472581,67.1774194 L57.0528226,69.9193548 L27.9471774,69.9193548 L28.0527419,67.1774194 Z M27.8416129,72.6612903 L35.6451613,72.6612903 L35.6451613,82.2580645 L27.4728226,82.2580645 L27.8416129,72.6612903 Z" id="Shape" fill-rule="nonzero"></path>
                        <rect id="Rectangle" x="30.1612903" y="75.4032258" width="2.74193548" height="4.11290323" rx="1"></rect>
                        <rect id="Rectangle" x="41.1290323" y="75.4032258" width="2.74193548" height="4.11290323" rx="1"></rect>
                        <rect id="Rectangle" x="52.0967742" y="75.4032258" width="2.74193548" height="4.11290323" rx="1"></rect>
                        <rect id="Rectangle" x="30.1612903" y="57.5806452" width="2.74193548" height="4.11290323" rx="1"></rect>
                        <rect id="Rectangle" x="41.1290323" y="57.5806452" width="2.74193548" height="4.11290323" rx="1"></rect>
                        <rect id="Rectangle" x="52.0967742" y="57.5806452" width="2.74193548" height="4.11290323" rx="1"></rect>
                        <rect id="Rectangle" x="41.1290323" y="34.2741935" width="2.74193548" height="4.11290323" rx="1"></rect>
                        <rect id="Rectangle" x="31.5322581" y="34.2741935" width="2.74193548" height="4.11290323" rx="1"></rect>
                        <rect id="Rectangle" x="50.7258065" y="34.2741935" width="2.74193548" height="4.11290323" rx="1"></rect>
                        <rect id="Rectangle" x="41.1290323" y="52.0967742" width="2.74193548" height="2.74193548" rx="1"></rect>
                        <rect id="Rectangle" x="30.1612903" y="52.0967742" width="2.74193548" height="2.74193548" rx="1"></rect>
                        <rect id="Rectangle" x="52.0967742" y="52.0967742" width="2.74193548" height="2.74193548" rx="1"></rect>
                        <rect id="Rectangle" x="34.2741935" y="16.4516129" width="2.74193548" height="2.74193548" rx="1"></rect>
                        <rect id="Rectangle" x="39.7580645" y="16.4516129" width="2.74193548" height="2.74193548" rx="1"></rect>
                        <rect id="Rectangle" x="82.2580645" y="82.2580645" width="2.74193548" height="2.74193548" rx="1"></rect>
                    </g>
                </g>
            </g>
        </g>
    </g>
</svg>