<?xml version="1.0" encoding="UTF-8"?>
<svg width="128px" height="128px" viewBox="0 0 128 128" version="1.1" xmlns="http://www.w3.org/2000/svg" xmlns:xlink="http://www.w3.org/1999/xlink">
    <!-- Generator: Sketch 53 (72520) - https://sketchapp.com -->
    <title>img-race-ireland</title>
    <desc>Created with Sketch.</desc>
    <g id="Symbols" stroke="none" stroke-width="1" fill="none" fill-rule="evenodd">
        <g id="image-/-race-/-ireland">
            <g>
                <circle id="Oval-Copy-28" stroke-opacity="0.32" stroke="#F0F8FF" stroke-width="2" fill-opacity="0.04" fill="#F0F8FF" cx="64" cy="64" r="63"></circle>
                <g id="Group-47" transform="translate(21.000000, 34.000000)">
                    <path d="M67.5185185,10.6097297 L67.888,10.8578378 C69.1570185,10.3502703 70.3798519,9.66162162 71.5146111,8.77783784 C73.0097222,7.61459459 74.2218148,6.22 75.1465926,4.68486486 L75.1277963,4.63621622 C73.3271111,7.38918919 70.6601852,9.51189189 67.5185185,10.6097297" id="Fill-189" fill="#303536"></path>
                    <path d="M9.38355041,56.7827027 L85.2835319,56.7827027 L85.2835319,35.6794595 L79.223606,28.5183784 L79.1435874,28.5021622 C79.0291986,28.5286486 78.9099763,28.5427027 78.7875319,28.5427027 L71.6664208,28.5427027 C71.5439763,28.5427027 71.4247541,28.5286486 71.3103652,28.5021622 C71.1954393,28.5286486 71.0762171,28.5427027 70.9537726,28.5427027 L63.5152726,28.5427027 C63.3933652,28.5427027 63.274143,28.5286486 63.1592171,28.5021622 C63.0448282,28.5286486 62.925606,28.5427027 62.8031615,28.5427027 L55.6820504,28.5427027 C55.559606,28.5427027 55.4403837,28.5286486 55.3259949,28.5021622 C55.2110689,28.5286486 55.0918467,28.5427027 54.9694023,28.5427027 L47.5309023,28.5427027 C47.4084578,28.5427027 47.2892356,28.5286486 47.1748467,28.5021622 C47.0599208,28.5286486 46.9406986,28.5427027 46.8182541,28.5427027 L39.69768,28.5427027 L39.5542912,28.5362162 L32.5174949,36.2351351 C32.2167541,36.5643243 31.7930319,36.7513514 31.3489023,36.7513514 L31.2962726,36.7513514 C30.4192912,36.7513514 29.7082541,36.0356757 29.7082541,35.1535135 L29.7082541,12.3518919 C29.7082541,11.9286486 29.8715134,11.5437838 30.1384208,11.2578378 L32.94068,5.4627027 C32.8429393,5.39513514 32.7527171,5.31675676 32.6721615,5.22972973 C32.3821615,5.54432432 31.9675689,5.74108108 31.5078652,5.74108108 L28.5702726,5.74108108 C28.1100319,5.74108108 27.6959763,5.54432432 27.4054393,5.22972973 C27.1154393,5.54432432 26.7013837,5.74108108 26.241143,5.74108108 L23.3035504,5.74108108 C22.8438467,5.74108108 22.4292541,5.54432432 22.1392541,5.22972973 C21.8492541,5.54432432 21.4351986,5.74108108 20.9749578,5.74108108 L17.6404949,5.74108108 C17.1802541,5.74108108 16.7661986,5.54432432 16.4756615,5.22972973 C16.1856615,5.54432432 15.771606,5.74108108 15.3113652,5.74108108 L12.3737726,5.74108108 C11.9140689,5.74108108 11.4994763,5.54432432 11.2094763,5.22972973 C10.9194763,5.54432432 10.5048837,5.74108108 10.04518,5.74108108 L7.10758745,5.74108108 C6.65486523,5.74108108 6.24618004,5.55027027 5.95725412,5.24432432 L9.2804393,11.6081081 C9.48290226,11.9956757 9.51619856,12.4443243 9.38355041,12.8508108 L9.38355041,56.7827027 Z M86.8715504,59.9789189 L7.79553189,59.9789189 C6.91855041,59.9789189 6.20751337,59.2632432 6.20751337,58.3805405 L6.20751337,12.5945946 L2.18242078,4.88648649 C1.92356893,4.39135135 1.94129115,3.79567568 2.22860597,3.31675676 C2.44610597,2.95459459 2.79356893,2.69837838 3.19097634,2.59567568 L3.19097634,1.91027027 C3.19097634,1.02756757 3.90201337,0.311891892 4.77845782,0.311891892 L7.10758745,0.311891892 C7.77029115,0.311891892 8.33847634,0.721081081 8.57638374,1.30162162 C8.81375412,0.721081081 9.3819393,0.311891892 10.04518,0.311891892 L12.3737726,0.311891892 C13.0370134,0.311891892 13.6051986,0.721081081 13.8425689,1.30162162 C14.0804763,0.721081081 14.6486615,0.311891892 15.3113652,0.311891892 L17.6404949,0.311891892 C18.5174763,0.311891892 19.2285134,1.02756757 19.2285134,1.91027027 L19.2285134,2.54486486 L19.3869393,2.54486486 L19.3869393,1.91027027 C19.3869393,1.02756757 20.0979763,0.311891892 20.9749578,0.311891892 L23.3035504,0.311891892 C23.9667912,0.311891892 24.5349763,0.721081081 24.7723467,1.30162162 C25.0102541,0.721081081 25.5784393,0.311891892 26.241143,0.311891892 L28.5702726,0.311891892 C29.2329763,0.311891892 29.8011615,0.721081081 30.0390689,1.30162162 C30.2764393,0.721081081 30.8446245,0.311891892 31.5078652,0.311891892 L33.8364578,0.311891892 C34.7134393,0.311891892 35.4244763,1.02756757 35.4244763,1.91027027 L35.4244763,2.54702703 C35.941106,2.57243243 36.4153097,2.85135135 36.6913467,3.29567568 C36.9813467,3.7627027 37.0124949,4.34702703 36.7729763,4.8427027 L32.8837541,12.8843243 L32.8837541,31.112973 L37.4431986,26.1248649 L37.7562912,20.8864865 C37.8067726,20.0421622 38.5011615,19.3837838 39.3410874,19.3837838 C40.1810134,19.3837838 40.8759393,20.0421622 40.9258837,20.8864865 L41.1927912,25.3459459 L45.323143,25.3459459 L45.5895134,20.8864865 C45.6399949,20.0427027 46.3349208,19.3837838 47.1748467,19.3837838 C48.0147726,19.3837838 48.7091615,20.0421622 48.759643,20.8864865 L49.0260134,25.3459459 L53.4742912,25.3459459 L53.7406615,20.8864865 C53.791143,20.0421622 54.4855319,19.3837838 55.3259949,19.3837838 C56.1659208,19.3837838 56.8603097,20.0421622 56.9107912,20.8864865 L57.1771615,25.3459459 L61.3075134,25.3459459 L61.5738837,20.8864865 C61.6249023,20.0421622 62.3192912,19.3837838 63.1592171,19.3837838 C63.999143,19.3837838 64.6935319,20.0421622 64.7440134,20.8864865 L65.0109208,25.3459459 L69.4586615,25.3459459 L69.7250319,20.8864865 C69.7760504,20.0427027 70.4704393,19.3837838 71.3103652,19.3837838 C72.1502912,19.3837838 72.84468,20.0421622 72.8956986,20.8864865 L73.1620689,25.3459459 L77.2924208,25.3459459 L77.5587912,20.8864865 C77.6092726,20.0421622 78.3036615,19.3837838 79.1435874,19.3837838 C79.9840504,19.3837838 80.6784393,20.0421622 80.7289208,20.8864865 L81.0189208,25.7378378 C81.0785319,25.7897297 81.1343837,25.8464865 81.1864763,25.9081081 L88.1330504,34.1167568 C88.474606,34.52 88.591143,35.0616216 88.4595689,35.5627027 L88.4595689,58.3805405 C88.4595689,59.2632432 87.7485319,59.9789189 86.8715504,59.9789189 L86.8715504,59.9789189 Z" id="Fill-1161" fill="#516066"></path>
                    <path d="M1.2082344,60 C0.540649634,60 0,59.5528192 0,59.0006481 C0,58.448477 0.540649634,58 1.2082344,58 L89.7901985,58 C90.4577833,58 91,58.448477 91,59.0006481 C91,59.5528192 90.4577833,60 89.7901985,60 L1.2082344,60 Z" id="Fill-704" fill="#516066"></path>
                    <polygon id="Fill-1162" fill="#FAD326" points="7.90740741 38.6275676 19.6577778 38.6275676 19.6577778 12.2037838 7.90740741 12.2037838"></polygon>
                    <polygon id="Fill-1163" fill="#838F93" points="7.90740741 58.1286486 19.6577778 58.1286486 19.6577778 41.9335135 7.90740741 41.9335135"></polygon>
                    <polygon id="Fill-1164" fill="#EB8B34" points="7.90740741 42.1 19.6577778 42.1 19.6577778 38.6902703 7.90740741 38.6902703"></polygon>
                    <polygon id="Fill-1165" fill="#F7C229" points="19.7222222 38.6275676 31.4725926 38.6275676 31.4725926 12.2037838 19.7222222 12.2037838"></polygon>
                    <polygon id="Fill-1166" fill="#E6752B" points="19.7222222 42.1 31.4725926 42.1 31.4725926 38.6902703 19.7222222 38.6902703"></polygon>
                    <polygon id="Fill-1167" fill="#838F93" points="7.72222222 58.1286486 31.4725926 58.1286486 31.4725926 11.9335135 7.72222222 11.9335135"></polygon>
                    <path d="M12,25.0761565 L12,22.2755446 C12,21.570769 12.6722798,21 13.5,21 C14.3277202,21 15,21.570769 15,22.2755446 L15,25.0761565 C15,25.7809321 14.3277202,26.3533555 13.5,26.3533555 C12.6722798,26.3533555 12,25.7809321 12,25.0761565 Z" id="Fill-588" fill="#516066"></path>
                    <path d="M24,18.0761565 L24,15.2755446 C24,14.570769 24.6722798,14 25.5,14 C26.3277202,14 27,14.570769 27,15.2755446 L27,18.0761565 C27,18.7809321 26.3277202,19.3533555 25.5,19.3533555 C24.6722798,19.3533555 24,18.7809321 24,18.0761565 Z" id="Fill-588-Copy-6" fill="#516066"></path>
                    <path d="M24,34.0761565 L24,31.2755446 C24,30.570769 24.6722798,30 25.5,30 C26.3277202,30 27,30.570769 27,31.2755446 L27,34.0761565 C27,34.7809321 26.3277202,35.3533555 25.5,35.3533555 C24.6722798,35.3533555 24,34.7809321 24,34.0761565 Z" id="Fill-588-Copy-7" fill="#516066"></path>
                    <polygon id="Fill-1168" fill="#838F93" points="18.7222222 4.09567568 18.7222222 12.3048649 31.6310185 12.3048649 35.6007963 4.09567568"></polygon>
                    <polyline id="Fill-1169" fill="#838F93" points="3.61111111 4.09567568 7.89827778 12.3048649 19.4896852 12.3048649 19.4896852 4.09567568 3.61111111 4.09567568"></polyline>
                    <polygon id="Fill-1170" fill="#838F93" points="4.68518519 4.49027027 7.01431481 4.49027027 7.01431481 1.93351351 4.68518519 1.93351351"></polygon>
                    <polygon id="Fill-1171" fill="#838F93" points="10.0555556 4.49027027 12.3841481 4.49027027 12.3841481 1.93351351 10.0555556 1.93351351"></polygon>
                    <polygon id="Fill-1172" fill="#838F93" points="15.4259259 4.49027027 17.7550556 4.49027027 17.7550556 1.93351351 15.4259259 1.93351351"></polygon>
                    <polygon id="Fill-1173" fill="#838F93" points="20.7962963 4.49027027 23.1248889 4.49027027 23.1248889 1.93351351 20.7962963 1.93351351"></polygon>
                    <polygon id="Fill-1174" fill="#838F93" points="26.1666667 4.49027027 28.4957963 4.49027027 28.4957963 1.93351351 26.1666667 1.93351351"></polygon>
                    <polygon id="Fill-1175" fill="#838F93" points="31.537037 4.49027027 33.8656296 4.49027027 33.8656296 1.93351351 31.537037 1.93351351"></polygon>
                    <polygon id="Fill-1176" fill="#838F93" points="30.537037 58.1340541 59.3244074 58.1340541 59.3244074 34.9064865 30.537037 34.9064865"></polygon>
                    <polygon id="Fill-1177" fill="#838F93" points="58.9259259 58.1340541 86.7138333 58.1340541 86.7138333 34.9064865 58.9259259 34.9064865"></polygon>
                    <polyline id="Fill-1178" fill="#516066" points="86.7132963 35.007027 58.9259259 35.007027 58.9259259 26.7983784 79.7667222 26.7983784 86.7132963 35.007027"></polyline>
                    <polyline id="Fill-1179" fill="#516066" points="31.537037 35.007027 39.0399815 26.7983784 59.3249444 26.7983784 59.3249444 35.007027 31.537037 35.007027"></polyline>
                    <polygon id="Fill-1180" fill="#838F93" points="39.3654259 41.4162162 38.5185185 41.4162162 38.5185185 35.0232432 39.3654259 20.8524324 40.2123333 35.0232432 43.2825741 35.0232432 43.2825741 57.2508108 39.3654259 57.2508108"></polygon>
                    <polygon id="Fill-1181" fill="#838F93" points="47.268463 41.4162162 48.1153704 41.4162162 48.1153704 35.0232432 47.268463 20.8524324 46.4215556 35.0232432 43.3518519 35.0232432 43.3518519 57.2508108 47.268463 57.2508108"></polygon>
                    <polygon id="Fill-1182" fill="#838F93" points="55.476537 41.4162162 54.6296296 41.4162162 54.6296296 35.0232432 55.476537 20.8524324 56.3229074 35.0232432 59.3931481 35.0232432 59.3931481 57.2508108 55.476537 57.2508108"></polygon>
                    <polygon id="Fill-1183" fill="#838F93" points="63.3795741 41.4162162 64.2264815 41.4162162 64.2264815 35.0232432 63.3795741 20.8524324 62.5326667 35.0232432 59.462963 35.0232432 59.462963 57.2508108 63.3795741 57.2508108"></polygon>
                    <polygon id="Fill-1184" fill="#838F93" points="71.5876481 41.4162162 70.7407407 41.4162162 70.7407407 35.0232432 71.5876481 20.8524324 72.4345556 35.0232432 75.5042593 35.0232432 75.5042593 57.2508108 71.5876481 57.2508108"></polygon>
                    <polygon id="Fill-1185" fill="#838F93" points="78.9536481 41.4162162 79.8005556 41.4162162 79.8005556 35.0232432 78.9536481 20.8524324 78.1067407 35.0232432 75.037037 35.0232432 75.037037 57.2508108 78.9536481 57.2508108"></polygon>
                    <path d="M37.8054074,42.9183784 L37.8054074,50.6551351 C37.8054074,51.2074199 37.3576922,51.6551351 36.8054074,51.6551351 L35,51.6551351 C34.4477153,51.6551351 34,51.2074199 34,50.6551351 L34,42.9183784 C34,41.8589189 34.8533519,41 35.9054074,41 C36.9555118,41.0029432 37.8054074,41.8607337 37.8054074,42.9183784 Z" id="Path" fill="#516066"></path>
                    <path d="M45.8054074,42.9183784 L45.8054074,50.6551351 C45.8054074,51.2074199 45.3576922,51.6551351 44.8054074,51.6551351 L43,51.6551351 C42.4477153,51.6551351 42,51.2074199 42,50.6551351 L42,42.9183784 C42,41.8589189 42.8533519,41 43.9054074,41 C44.9555118,41.0029432 45.8054074,41.8607337 45.8054074,42.9183784 Z" id="Path-Copy" fill="#516066"></path>
                    <path d="M52.8054074,42.9183784 L52.8054074,50.6551351 C52.8054074,51.2074199 52.3576922,51.6551351 51.8054074,51.6551351 L50,51.6551351 C49.4477153,51.6551351 49,51.2074199 49,50.6551351 L49,42.9183784 C49,41.8589189 49.8533519,41 50.9054074,41 C51.9555118,41.0029432 52.8054074,41.8607337 52.8054074,42.9183784 Z" id="Path-Copy-2" fill="#516066"></path>
                    <path d="M60.8054074,42.9183784 L60.8054074,50.6551351 C60.8054074,51.2074199 60.3576922,51.6551351 59.8054074,51.6551351 L58,51.6551351 C57.4477153,51.6551351 57,51.2074199 57,50.6551351 L57,42.9183784 C57,41.8589189 57.8533519,41 58.9054074,41 C59.9555118,41.0029432 60.8054074,41.8607337 60.8054074,42.9183784 Z" id="Path-Copy-3" fill="#516066"></path>
                    <path d="M67.8054074,42.9183784 L67.8054074,50.6551351 C67.8054074,51.2074199 67.3576922,51.6551351 66.8054074,51.6551351 L65,51.6551351 C64.4477153,51.6551351 64,51.2074199 64,50.6551351 L64,42.9183784 C64,41.8589189 64.8533519,41 65.9054074,41 C66.9555118,41.0029432 67.8054074,41.8607337 67.8054074,42.9183784 Z" id="Path-Copy-4" fill="#516066"></path>
                    <path d="M75.8054074,42.9183784 L75.8054074,50.6551351 C75.8054074,51.2074199 75.3576922,51.6551351 74.8054074,51.6551351 L73,51.6551351 C72.4477153,51.6551351 72,51.2074199 72,50.6551351 L72,42.9183784 C72,41.8589189 72.8533519,41 73.9054074,41 C74.9555118,41.0029432 75.8054074,41.8607337 75.8054074,42.9183784 Z" id="Path-Copy-5" fill="#516066"></path>
                    <path d="M82.8054074,42.9183784 L82.8054074,50.6551351 C82.8054074,51.2074199 82.3576922,51.6551351 81.8054074,51.6551351 L80,51.6551351 C79.4477153,51.6551351 79,51.2074199 79,50.6551351 L79,42.9183784 C79,41.8589189 79.8533519,41 80.9054074,41 C81.9555118,41.0029432 82.8054074,41.8607337 82.8054074,42.9183784 Z" id="Path-Copy-6" fill="#516066"></path>
                </g>
            </g>
        </g>
    </g>
</svg>