<?xml version="1.0" encoding="UTF-8"?>
<svg width="128px" height="128px" viewBox="0 0 128 128" version="1.1" xmlns="http://www.w3.org/2000/svg" xmlns:xlink="http://www.w3.org/1999/xlink">
    <!-- Generator: Sketch 53 (72520) - https://sketchapp.com -->
    <title>img-race-venezuela</title>
    <desc>Created with Sketch.</desc>
    <g id="Symbols" stroke="none" stroke-width="1" fill="none" fill-rule="evenodd">
        <g id="image-/-race-/-venezuela">
            <g>
                <circle id="Oval-Copy-30" stroke-opacity="0.32" stroke="#F0F8FF" stroke-width="2" fill-opacity="0.04" fill="#F0F8FF" cx="64" cy="64" r="63"></circle>
                <g id="img" transform="translate(30.000000, 14.000000)">
                    <path d="M13.308,38.298 L12.352,38.298 L12.352,39.298 L13.308,39.298 L13.308,38.298 Z M34.894,3.03438486 L34.894,2.872 L34.8426172,3.18842594 L34.894,3.03438486 Z M34.807,3.03390236 L34.8580857,3.18753384 L34.807,2.872 L34.807,3.03390236 Z M57.352,38.298 L56.395,38.298 L56.395,39.298 L57.352,39.298 L57.352,38.298 Z M60.746,47.635483 L61.702,49.552483 L61.702,91 L8,91 L8,49.5520422 L8.958,47.6350422 L8.958,44 L9.916,44 L9.916,42.127 C9.916,41.0711105 10.4833824,40.1318186 11.352,39.6215064 L11.352,37.298 L14.308,37.298 L14.308,39.6215064 C15.1766176,40.1318186 15.744,41.0711105 15.744,42.127 L15.744,44 L16.702,44 L16.702,47.6350422 L17.66,49.5520422 L17.66,60.2317341 C18.7651336,60.1307856 19.9363297,59.8562185 21.6253749,59.3604755 L21.7632788,59.32 L21.8222818,59.32 C23.6433676,58.7875379 24.920423,58.4961837 26.192,58.3986253 L26.192,28.681 L27.149,28.681 L27.149,21.022 L28.107,21.022 L28.107,16.234 L29.543,16.234 L29.543,11.488 C29.543,8.77714425 30.8027906,6.28137487 32.894,4.65858903 L32.894,2.70961514 L34.8534879,-3.16475769 L36.807,2.71009764 L36.807,4.6574598 C38.8988161,6.2801009 40.159,8.77668948 40.159,11.488 C40.159,11.491125 40.159,11.491125 40.159,11.4945 C40.159,11.497875 40.159,11.497875 40.159,11.501 L40.159,16.233 L41.596,16.233 L41.596,21.021 L42.553,21.021 L42.553,28.68 L43.51,28.68 L43.51,58.3975916 C44.7821526,58.4951143 46.0593806,58.7864658 47.880718,59.319 L47.9383489,59.319 L48.0759252,59.3592703 C49.7745622,59.8564831 50.9414246,60.130104 52.043,60.2302971 L52.043,49.5520422 L53.001,47.6350422 L53.001,44 L53.958,44 L53.958,42.127 C53.958,41.0710934 54.5260167,40.1317441 55.395,39.6214341 L55.395,37.298 L58.352,37.298 L58.352,39.6214341 C59.2209833,40.1317441 59.789,41.0710934 59.789,42.127 L59.789,44 L60.746,44 L60.746,47.635483 Z M53.001,47.6350422 L53.1064795,47.4239731 L53.001,47.871 L53.001,47.6350422 Z" id="Path" stroke="#516066" stroke-width="2" fill="#516066" fill-rule="nonzero" stroke-linecap="round" stroke-linejoin="round"></path>
                    <path d="M59.746,47.871 L59.746,45 L58.789,45 L58.789,42.127 C58.789,41.236 58.177,40.493 57.352,40.28 L57.352,38.298 L56.395,38.298 L56.395,40.28 C55.57,40.493 54.958,41.236 54.958,42.127 L54.958,45 L54.001,45 L54.001,47.871 L53.043,49.788 L53.043,61.275 L53.043,61.276 C51.194,61.276 49.428,60.797 47.795,60.319 L47.737,60.319 C46.111,59.84 44.352,59.36 42.51,59.36 L42.51,29.68 L41.553,29.68 L41.553,22.021 L40.596,22.021 L40.596,17.233 L39.159,17.233 L39.159,11.501 C39.159,11.497 39.159,11.492 39.159,11.488 C39.159,8.858 37.829,6.544 35.807,5.166 L35.807,2.872 L34.852,0 L33.894,2.872 L33.894,5.167 C31.873,6.545 30.543,8.858 30.543,11.488 L30.543,11.488 L30.543,17.234 L29.107,17.234 L29.107,22.022 L28.149,22.022 L28.149,29.681 L27.192,29.681 L27.192,59.361 C25.351,59.361 23.592,59.841 21.966,60.32 L21.907,60.32 C20.275,60.799 18.508,61.277 16.66,61.277 L16.66,61.276 L16.66,49.788 L15.702,47.871 L15.702,45 L14.744,45 L14.744,42.127 C14.744,41.236 14.133,40.493 13.308,40.28 L13.308,38.298 L12.352,38.298 L12.352,40.28 C11.527,40.493 10.916,41.236 10.916,42.127 L10.916,45 L9.958,45 L9.958,47.871 L9,49.788 L9,90 L60.702,90 L60.702,49.788 L59.746,47.871 Z M13.788,54.579 L13.788,56.4895 C13.788,57.0183126 13.3593126,57.447 12.8305,57.447 L12.8305,57.447 C12.3016874,57.447 11.873,57.0183126 11.873,56.4895 L11.873,54.573 L11.873,52.658 C11.873,52.13 12.302,51.702 12.83,51.702 C13.359,51.702 13.788,52.13 13.788,52.659 L13.788,54.579 Z M22.363,84.255 L19.576,84.255 C19.0237153,84.255 18.576,83.8072847 18.576,83.255 L18.576,75.681 C18.576,75.1287153 19.0237153,74.681 19.576,74.681 L22.363,74.681 C22.9152847,74.681 23.363,75.1287153 23.363,75.681 L23.363,83.255 C23.363,83.8072847 22.9152847,84.255 22.363,84.255 Z M22.4055,69.893 L22.4055,69.893 C21.8766874,69.893 21.448,69.4643126 21.448,68.9355 L21.448,67.02 C21.448,66.492 21.877,66.063 22.405,66.063 C22.934,66.063 23.363,66.492 23.363,67.021 L23.363,68.9355 C23.363,69.4643126 22.9343126,69.893 22.4055,69.893 Z M30.543,36.383 L29.585,36.383 C29.0559112,36.383 28.627,35.9540888 28.627,35.425 L28.627,34.8004726 C28.627,34.5840166 28.6972334,34.3734043 28.8271504,34.2002721 L29.3455,33.5095 C29.6432679,33.1126834 30.2063398,33.0323885 30.6031564,33.3301564 C30.6711187,33.3811548 30.7315016,33.4415377 30.7825,33.5095 L31.3008496,34.2002721 C31.4307666,34.3734043 31.501,34.5840166 31.501,34.8004726 L31.501,35.425 C31.501,35.9540888 31.0720888,36.383 30.543,36.383 Z M34.95,13.319 L34.95,13.319 C35.3464024,13.319 35.66775,13.6403476 35.66775,14.03675 L35.66775,15.60125 C35.66775,15.9976524 35.3464024,16.319 34.95,16.319 L34.95,16.319 C34.5535976,16.319 34.23225,15.9976524 34.23225,15.60125 L34.23225,14.03675 C34.23225,13.6403476 34.5535976,13.319 34.95,13.319 Z M34.8515,19.149 L34.8515,19.149 C35.3803126,19.149 35.809,19.5776874 35.809,20.1065 L35.809,20.1065 C35.809,20.6353126 35.3803126,21.064 34.8515,21.064 L34.8515,21.064 C34.3226874,21.064 33.894,20.6353126 33.894,20.1065 L33.894,20.1065 C33.894,19.5776874 34.3226874,19.149 34.8515,19.149 Z M34.384,23.506 C34.382,23.489 34.374,23.474 34.374,23.456 C34.374,23.191 34.588,22.977 34.853,22.977 C35.118,22.977 35.332,23.191 35.332,23.456 C35.332,23.474 35.324,23.488 35.322,23.505 C35.918,24.109 36.29,24.935 36.29,25.85 C36.29,25.852 36.29,25.855 36.29,25.857 L36.29,28.68 C36.29,29.2322847 35.8422847,29.68 35.29,29.68 L34.417,29.68 C33.8647153,29.68 33.417,29.2322847 33.417,28.68 L33.417,25.85 C33.417,24.935 33.788,24.111 34.384,23.506 Z M33.416,37.818 C33.416,37.025 34.059,36.381 34.852,36.381 C35.645,36.381 36.289,37.025 36.289,37.818 L36.289,55.052 C36.289,55.844 35.645,56.488 34.852,56.488 C34.059,56.488 33.416,55.844 33.416,55.052 L33.416,37.818 Z M34.852,61.275 C35.645,61.275 36.289,61.919 36.289,62.712 C36.289,63.505 35.645,64.148 34.852,64.148 C34.059,64.148 33.416,63.504 33.416,62.711 C33.416,61.918 34.059,61.275 34.852,61.275 Z M31.9795,19.149 L31.9795,19.149 C32.5083126,19.149 32.937,19.5776874 32.937,20.1065 L32.937,20.1065 C32.937,20.6353126 32.5083126,21.064 31.9795,21.064 L31.9795,21.064 C31.4506874,21.064 31.022,20.6353126 31.022,20.1065 L31.022,20.1065 C31.022,19.5776874 31.4506874,19.149 31.9795,19.149 Z M36.724,87.128 L32.979,87.128 C32.4267153,87.128 31.979,86.6802847 31.979,86.128 L31.979,73.723 C31.979,72.137 33.265,70.851 34.852,70.851 C36.438,70.851 37.724,72.137 37.724,73.723 L37.724,86.128 C37.724,86.6802847 37.2762847,87.128 36.724,87.128 Z M37.7245,21.064 L37.7245,21.064 C37.1956874,21.064 36.767,20.6353126 36.767,20.1065 L36.767,20.1065 C36.767,19.5776874 37.1956874,19.149 37.7245,19.149 L37.7245,19.149 C38.2533126,19.149 38.682,19.5776874 38.682,20.1065 L38.682,20.1065 C38.682,20.6353126 38.2533126,21.064 37.7245,21.064 Z M40.1159988,36.383 L39.161,36.383 C38.6319112,36.383 38.203,35.9540888 38.203,35.425 L38.203,34.8004726 C38.203,34.5840166 38.2732334,34.3734043 38.4031504,34.2002721 L38.9215,33.5095 C39.2192679,33.1126834 39.7823398,33.0323885 40.1791564,33.3301564 C40.2471187,33.3811548 40.3075016,33.4415377 40.3585,33.5095 L40.8763273,34.1995761 C41.0065658,34.3731368 41.0768163,34.5843509 41.0764765,34.8013423 L41.0755,35.425 C41.0746712,35.9543313 40.6453307,36.383 40.1159988,36.383 Z M46.341,67.021 C46.342,66.493 46.771,66.064 47.299,66.064 C47.827,66.064 48.256,66.493 48.256,67.022 L48.256,68.9365 C48.256,69.4653126 47.8273126,69.894 47.2985,69.894 L47.2985,69.894 C46.7696874,69.894 46.341,69.4653126 46.341,68.9365 L46.341,67.021 Z M50.128,84.255 L47.341,84.255 C46.7887153,84.255 46.341,83.8072847 46.341,83.255 L46.341,75.681 C46.341,75.1287153 46.7887153,74.681 47.341,74.681 L50.128,74.681 C50.6802847,74.681 51.128,75.1287153 51.128,75.681 L51.128,83.255 C51.128,83.8072847 50.6802847,84.255 50.128,84.255 Z M57.831,54.579 L57.831,56.4895 C57.831,57.0183126 57.4023126,57.447 56.8735,57.447 L56.8735,57.447 C56.3446874,57.447 55.916,57.0183126 55.916,56.4895 L55.916,54.573 L55.916,52.658 C55.916,52.13 56.346,51.702 56.874,51.702 C57.403,51.702 57.831,52.13 57.831,52.659 L57.831,54.579 L57.831,54.579 Z" id="Shape" fill="#838F93" fill-rule="nonzero"></path>
                    <path d="M1.2082344,92 C0.540649634,92 0,91.5528192 0,91.0006481 C0,90.448477 0.540649634,90 1.2082344,90 L69.7901985,90 C70.4577833,90 71,90.448477 71,91.0006481 C71,91.5528192 70.4577833,92 69.7901985,92 L1.2082344,92 Z" id="Fill-704" fill="#516066"></path>
                </g>
            </g>
        </g>
    </g>
</svg>