<?xml version="1.0" encoding="UTF-8"?>
<svg width="128px" height="128px" viewBox="0 0 128 128" version="1.1" xmlns="http://www.w3.org/2000/svg" xmlns:xlink="http://www.w3.org/1999/xlink">
    <!-- Generator: Sketch 53 (72520) - https://sketchapp.com -->
    <title>img-race-singapore@3x</title>
    <desc>Created with Sketch.</desc>
    <g id="Symbols" stroke="none" stroke-width="1" fill="none" fill-rule="evenodd">
        <g id="image-/-race-/-singapore">
            <g>
                <circle id="Oval" stroke-opacity="0.32" stroke="#F0F8FF" stroke-width="2" fill-opacity="0.04" fill="#F0F8FF" cx="64" cy="64" r="63"></circle>
                <g id="no" transform="translate(15.000000, 16.000000)">
                    <path d="M22.095,72.566 L34.8357347,72.891 L36.168,49.147 C34.781077,43.5383333 33.9956155,40.5973333 33.8116155,40.324 C32.8668127,38.9063354 39.5665553,42.0678088 39.0941301,40.679706 C37.5144518,36.0382186 38.2404309,31.7592542 39.031,29.162 C36.258,29.254 34.453,27.579 34.453,24.74 C34.453,22.876 34.453,20.557 36.59,20.557 C37.025,20.557 37.425,20.68 37.881,20.823 C38.501,21.015 39.269,21.253 40.351,21.253 C42.544,21.253 43.959,20.545 43.959,19.449 C43.959,18.77 43.119,16.881 42.268,16.881 C41.957,16.881 41.53,17.108 41.073,17.518 C38.936,19.425 36.873,19.826 35.513,19.826 C34.177,19.826 33.298,19.452 33.134,19.376 C32.953,19.294 32.796,19.177 32.666,19.032 C31.087,17.285 30.563,13.64 31.566,11.385 C32.18,10.011 33.331,9.223 34.723,9.223 L35.039,9.229 C37.203,9.229 39.205,7.384 42.836,4.036 L43.58,3.351 C45.435,1.646 47.115,0.885 49.02,0.885 C50.018,0.885 50.943,1.091 51.924,1.308 C53.193,1.593 54.512,1.897 56.248,1.772 C61.92,1.378 66.47,3.251 66.644,3.324 C67.168,3.544 67.518,4.055 67.529,4.629 C67.541,5.201 67.214,5.726 66.695,5.966 L65.5411328,6.71169042 C65.6316067,6.99259736 68.4631504,10.855 71.56,20.728 C71.9141648,21.8571053 66.3459056,20.47924 66.695,21.7493217 C67.8475223,25.9424499 70.3639691,30.3962912 70.957,35.528 C71.2445793,38.0165273 65.8508597,36.0576165 66.1819509,38.94819 C66.6327863,42.8841837 67.709136,49.527787 69.411,58.879 L65.2956155,73.789 L74.7600323,72.777 L82.683132,76.2450918 L86.157026,85.839 L13.093,85.839 C13.4604346,81.5811264 14.1954346,78.6393508 15.298,77.013673 C16.4005654,75.3879953 18.6662321,73.9054376 22.095,72.566 Z" id="Path" fill="#838F93" fill-rule="nonzero"></path>
                    <path d="M42.448,45.549 C42.448,45.549 42.414,45.549 42.391,45.548 L42.391,45.548 C41.917,45.548 41.466,45.316 41.19,44.906 C37.086,38.748 38.004,32.536 39.031,29.162 C36.258,29.254 34.453,27.579 34.453,24.74 C34.453,22.876 34.453,20.557 36.59,20.557 C37.025,20.557 37.425,20.68 37.881,20.823 C38.501,21.015 39.269,21.253 40.351,21.253 C42.544,21.253 43.959,20.545 43.959,19.449 C43.959,18.77 43.119,16.881 42.268,16.881 C41.957,16.881 41.53,17.108 41.073,17.518 C38.936,19.425 36.873,19.826 35.513,19.826 C34.177,19.826 33.298,19.452 33.134,19.376 C32.953,19.294 32.796,19.177 32.666,19.032 C31.087,17.285 30.563,13.64 31.566,11.385 C32.18,10.011 33.331,9.223 34.723,9.223 L35.039,9.229 C37.203,9.229 39.205,7.384 42.836,4.036 L43.58,3.351 C45.435,1.646 47.115,0.885 49.02,0.885 C50.018,0.885 50.943,1.091 51.924,1.308 C53.193,1.593 54.512,1.897 56.248,1.772 C61.92,1.378 66.47,3.251 66.644,3.324 C67.168,3.544 67.518,4.055 67.529,4.629 C67.541,5.201 67.214,5.726 66.695,5.966 L63.357,7.505 C63.729,8.66 63.808,10.078 63.571,11.652 C62.923,15.99 59.681,22.367 52.526,27.256 C44.56,32.698 43.889,41.809 43.838,43.709 C43.871,43.834 43.889,43.968 43.889,44.105 C43.892,44.903 43.248,45.549 42.448,45.549 Z M41.304,25.824 C41.709,25.824 42.11,25.996 42.386,26.31 C42.781,26.757 42.865,27.4 42.595,27.93 C42.459,28.185 39.995,33.101 41.569,38.878 C42.516,34.721 44.907,28.968 50.9,24.872 C57.288,20.508 60.163,14.962 60.721,11.226 C60.952,9.673 60.783,8.362 60.27,7.722 C59.994,7.375 59.892,6.92 59.994,6.489 C60.096,6.056 60.389,5.696 60.795,5.51 L61.911,4.997 C60.389,4.714 58.5,4.515 56.442,4.653 C54.294,4.788 52.687,4.434 51.295,4.126 C50.443,3.937 49.705,3.772 49.023,3.772 C48.217,3.772 47.169,3.975 45.534,5.478 L44.795,6.16 C40.764,9.874 38.334,12.117 35.042,12.117 L34.726,12.111 C34.591,12.111 34.405,12.111 34.207,12.558 C33.688,13.728 34.004,15.848 34.613,16.836 C34.821,16.887 35.132,16.94 35.514,16.94 C36.76,16.94 37.978,16.41 39.151,15.365 C40.166,14.456 41.214,13.995 42.269,13.995 C45.229,13.995 46.847,17.599 46.847,19.45 C46.847,21.614 45.144,24.141 40.352,24.141 C39.049,24.141 38.069,23.894 37.358,23.683 C37.347,23.945 37.341,24.289 37.341,24.741 C37.341,25.906 37.702,26.281 38.829,26.281 C39.81,26.281 40.797,25.92 40.803,25.916 C40.965,25.854 41.14,25.824 41.304,25.824 Z" id="Shape" fill="#516066" fill-rule="nonzero"></path>
                    <path d="M48.909,80.857 C47.307,80.857 41.174,80.568 36.838,76.426 C33.941,73.663 32.475,69.81 32.475,64.973 C32.475,58.978 33.478,55.525 34.211,53.004 C35.315,49.191 35.823,47.451 31.284,40.308 C31.003,39.865 30.985,39.306 31.234,38.846 C31.487,38.385 31.966,38.096 32.491,38.091 C32.711,38.077 39.33,38.056 42.499,41.502 C43.034,42.089 43,43.002 42.408,43.542 C41.828,44.08 40.914,44.045 40.373,43.456 C39.184,42.162 37.03,41.512 35.203,41.21 C38.631,47.249 38.169,49.726 36.979,53.809 C36.257,56.296 35.361,59.388 35.361,64.973 C35.361,68.992 36.528,72.141 38.828,74.337 C42.882,78.208 49.151,77.965 49.23,77.964 C55.933,77.962 60.85,75.77 63.906,71.443 C69.736,63.193 67.548,49.016 65.569,43.443 C64.323,39.911 64.408,37.475 65.84,35.995 C66.816,34.982 68.101,34.755 69.229,34.782 C68.969,30.296 67.673,27.846 66.416,25.469 C65.779,24.261 65.17,23.119 64.719,21.767 C64.121,19.967 64.702,19.081 65.3,18.654 C65.689,18.371 66.743,17.615 70.019,19.556 C69.004,10.813 63.501,6.967 63.243,6.792 C62.589,6.344 62.414,5.447 62.859,4.789 C63.304,4.131 64.201,3.955 64.855,4.395 C65.193,4.621 73.07,10.038 73.07,22.393 C73.07,22.941 72.759,23.44 72.269,23.685 C71.784,23.928 71.192,23.874 70.752,23.544 C69.748,22.785 68.604,22.061 67.741,21.611 C68.091,22.455 68.519,23.269 68.97,24.117 C70.464,26.949 72.167,30.157 72.167,36.465 C72.167,36.924 71.947,37.357 71.575,37.629 C71.203,37.898 70.723,37.979 70.289,37.84 C69.754,37.679 68.406,37.492 67.91,38.002 C67.707,38.218 67.126,39.176 68.294,42.477 C70.825,49.626 72.517,64.264 66.264,73.107 C62.633,78.244 56.928,80.846 49.299,80.846 C49.27,80.852 49.129,80.857 48.909,80.857 Z" id="Path" fill="#516066"></path>
                    <path d="M44.664,68.417 C42.048,68.418 40.936,66.969 40.497,66.065 C39.149,63.299 40.666,59.079 42.91,56.596 C44.303,55.054 45.819,54.291 47.431,54.345 C47.138,52.631 46.772,51.12 46.501,50.17 C46.281,49.404 46.721,48.604 47.487,48.384 C48.243,48.167 49.054,48.606 49.274,49.372 C49.624,50.586 52.589,61.365 49.274,66.12 C48.316,67.487 46.912,68.274 45.204,68.396 C45.019,68.411 44.839,68.417 44.664,68.417 Z M47.234,57.229 C46.338,57.229 45.436,58.107 45.052,58.532 C43.371,60.386 42.419,63.431 43.09,64.802 C43.202,65.029 43.49,65.626 45.001,65.519 C45.841,65.458 46.444,65.124 46.906,64.469 C47.967,62.946 48.085,60.149 47.831,57.357 C47.78,57.344 47.724,57.328 47.668,57.307 C47.527,57.254 47.381,57.229 47.234,57.229 Z" id="Shape" fill="#516066" fill-rule="nonzero"></path>
                    <polygon id="Path" fill="#516066" points="49.298 8.026 43.52 11.145 49.298 11.145"></polygon>
                    <path d="M5.813,45.549 C5.576,45.549 5.334,45.491 5.114,45.368 C4.415,44.982 4.161,44.104 4.55,43.407 C18.205,18.739 38.66,18.399 39.72,18.399 L39.738,18.399 C40.533,18.402 41.176,19.047 41.17,19.844 C41.17,20.64 40.527,21.284 39.727,21.286 C39.536,21.286 19.938,21.577 7.078,44.805 C6.81,45.281 6.319,45.549 5.813,45.549 Z" id="Path" fill="#516066"></path>
                    <path d="M1.781,41.371 C1.499,41.371 1.217,41.289 0.964,41.118 C0.31,40.665 0.141,39.767 0.592,39.111 C14.754,18.513 35.88,18.688 36.821,18.692 C37.616,18.708 38.248,19.366 38.236,20.162 C38.219,20.95 37.577,21.579 36.787,21.579 C36.787,21.579 36.781,21.576 36.725,21.579 C35.738,21.579 15.96,21.85 2.97,40.746 C2.694,41.153 2.237,41.371 1.781,41.371 Z" id="Path" fill="#516066"></path>
                    <path d="M53.921,55.083 C53.752,55.083 53.583,55.054 53.414,54.991 C42.544,50.913 41.884,38.586 41.855,38.063 C41.822,37.267 42.442,36.596 43.237,36.559 C44.122,36.542 44.703,37.141 44.742,37.934 C44.76,38.329 45.233,46.592 51.609,50.851 C50.549,46.405 49.501,38.459 53.701,33.248 C55.731,30.734 57.625,29.164 59.3,27.778 C61.995,25.543 63.777,24.067 64.527,19.882 C64.663,19.097 65.395,18.57 66.202,18.715 C66.985,18.855 67.51,19.605 67.369,20.389 C66.438,25.614 63.98,27.647 61.139,30.001 C59.572,31.3 57.796,32.772 55.952,35.061 C51.002,41.193 55.236,53.025 55.281,53.144 C55.472,53.673 55.337,54.269 54.937,54.665 C54.665,54.938 54.293,55.083 53.921,55.083 Z" id="Path" fill="#516066"></path>
                    <path d="M64.927,55.985 C64.864,55.985 64.797,55.98 64.736,55.972 C64.346,55.919 55.179,54.613 51.159,47.923 C50.748,47.241 50.973,46.353 51.656,45.943 C52.344,45.538 53.222,45.753 53.635,46.438 C55.749,49.951 59.797,51.691 62.481,52.496 C58.771,42.126 65.514,36.486 65.593,36.427 C66.202,35.925 67.11,36.017 67.623,36.638 C68.119,37.255 68.028,38.16 67.414,38.663 L67.414,38.663 C67.16,38.873 61.246,43.952 66.219,53.896 C66.461,54.374 66.416,54.946 66.106,55.379 C65.829,55.764 65.389,55.985 64.927,55.985 Z" id="Path" fill="#516066"></path>
                    <path d="M79.129,87.115 L19.631,87.115 C18.864,87.115 18.233,86.516 18.193,85.751 C18.181,85.531 17.933,80.324 21.271,76.804 C23.205,74.763 25.888,73.727 29.254,73.727 C32.744,73.727 35.682,74.671 38.788,75.67 C41.974,76.694 45.271,77.755 49.388,77.775 C53.492,77.754 56.784,76.694 59.976,75.67 C63.082,74.671 66.014,73.727 69.51,73.727 C72.869,73.727 75.559,74.763 77.493,76.804 C80.825,80.325 80.582,85.532 80.571,85.751 C80.527,86.517 79.896,87.115 79.129,87.115 Z M21.131,84.229 L77.629,84.229 C77.477,82.772 76.975,80.45 75.385,78.776 C74.015,77.34 72.042,76.614 69.511,76.614 C66.472,76.614 63.743,77.49 60.857,78.418 C57.621,79.46 53.95,80.641 49.389,80.663 C44.811,80.641 41.14,79.46 37.904,78.418 C35.017,77.49 32.295,76.614 29.256,76.614 C26.713,76.614 24.735,77.345 23.37,78.789 C21.768,80.475 21.277,82.781 21.131,84.229 Z" id="Shape" fill="#516066" fill-rule="nonzero"></path>
                    <path d="M86.216,87.115 L74.066,87.115 C73.271,87.115 72.623,86.469 72.623,85.672 C72.623,84.875 73.271,84.229 74.066,84.229 L84.474,84.229 C83.409,79.438 81.339,76.326 78.312,74.965 C71.805,72.051 62.785,77.728 62.695,77.786 C62.029,78.209 61.132,78.019 60.699,77.343 C60.27,76.671 60.468,75.779 61.144,75.35 C61.561,75.081 71.585,68.793 79.49,72.332 C83.803,74.267 86.55,78.677 87.643,85.44 C87.71,85.859 87.592,86.285 87.316,86.607 C87.045,86.929 86.639,87.115 86.216,87.115 Z" id="Path" fill="#516066"></path>
                    <path d="M26.317,87.115 L12.605,87.115 C11.81,87.115 11.163,86.469 11.163,85.672 C11.163,79.443 13.062,75.101 16.811,72.765 C24.896,67.731 38.45,74.282 39.025,74.563 C39.741,74.914 40.035,75.778 39.685,76.493 C39.341,77.207 38.478,77.505 37.756,77.155 C37.626,77.092 25.048,71.026 18.333,75.218 C15.763,76.821 14.342,79.85 14.088,84.229 L26.317,84.229 C27.118,84.229 27.76,84.875 27.76,85.672 C27.76,86.469 27.118,87.115 26.317,87.115 Z" id="Path" fill="#516066"></path>
                    <path d="M75.216,67.181 C75.126,67.181 75.041,67.174 74.951,67.157 C74.167,67.013 73.648,66.261 73.79,65.477 C73.976,64.489 74.128,63.532 74.246,62.603 C74.353,61.811 75.075,61.254 75.87,61.363 C76.659,61.468 77.218,62.194 77.11,62.984 C76.98,63.958 76.823,64.963 76.631,65.999 C76.501,66.694 75.898,67.181 75.216,67.181 Z" id="Path" fill="#516066"></path>
                    <path d="M76.106,59.643 C76.084,59.643 76.061,59.643 76.033,59.642 C75.238,59.601 74.624,58.921 74.669,58.125 C75.159,48.574 72.774,43.154 72.752,43.101 C72.425,42.375 72.746,41.519 73.474,41.193 C74.207,40.855 75.053,41.184 75.38,41.906 C75.492,42.149 78.08,47.954 77.55,58.275 C77.511,59.044 76.874,59.643 76.106,59.643 Z" id="Path" fill="#516066"></path>
                </g>
            </g>
        </g>
    </g>
</svg>