<?xml version="1.0" encoding="UTF-8"?>
<svg width="128px" height="128px" viewBox="0 0 128 128" version="1.1" xmlns="http://www.w3.org/2000/svg" xmlns:xlink="http://www.w3.org/1999/xlink">
    <!-- Generator: Sketch 53 (72520) - https://sketchapp.com -->
    <title>img-race-brazil</title>
    <desc>Created with Sketch.</desc>
    <g id="Symbols" stroke="none" stroke-width="1" fill="none" fill-rule="evenodd">
        <g id="image-/-race-/-brazil">
            <g>
                <circle id="Oval-Copy-5" stroke-opacity="0.32" stroke="#F0F8FF" stroke-width="2" fill-opacity="0.04" fill="#F0F8FF" cx="64" cy="64" r="63"></circle>
                <g id="Group-20-Copy" transform="translate(22.000000, 20.000000)">
                    <path d="M9.9593394,22.3007595 L4.24355464,22.3007595 C2.28648675,22.3007595 0.849546358,24.138038 1.32098841,26.0357911 C1.65429636,27.379193 2.85990894,28.3208703 4.24355464,28.3208703 L8.02618212,28.3208703 C8.75646358,28.3208703 9.45678477,28.0314557 9.97331126,27.5145411 C10.4896937,26.9990665 11.1901589,26.708212 11.9202964,26.708212 L16.2476821,26.708212 L11.9600513,22.3007595 L9.9593394,22.3007595" id="Fill-734" fill="#838F93"></path>
                    <path d="M77.1318377,22.3007595 L82.8473344,22.3007595 C84.8048344,22.3007595 86.2409106,24.138038 85.7699007,26.0357911 C85.4371689,27.379193 84.2315563,28.3208703 82.8473344,28.3208703 L79.064851,28.3208703 C78.3345695,28.3208703 77.6345364,28.0314557 77.1174338,27.5145411 C76.6017715,26.9990665 75.900298,26.708212 75.1700166,26.708212 L70.8430629,26.708212 L75.1311258,22.3007595 L77.1318377,22.3007595" id="Fill-735" fill="#838F93"></path>
                    <path d="M57.9371026,89.8293829 L28.4925,89.8293829 L28.4925,83.5961709 C28.4925,81.4176424 30.2584272,79.6523576 32.4377483,79.6523576 L53.9918543,79.6523576 C56.1711755,79.6523576 57.9371026,81.4176424 57.9371026,83.5961709 L57.9371026,89.8293829" id="Fill-736" fill="#838F93"></path>
                    <polyline id="Fill-737" fill="#838F93" points="34.3995695 45.4625633 33.1233775 79.6523576 53.3062252 79.6523576 52.9590894 49.1558386 34.2828974 44.9816456 34.3995695 45.4625633"></polyline>
                    <path d="M53.3062252,79.6235601 L52.9590894,49.1558386 L34.2828974,44.9816456 L34.3995695,45.4625633 L34.0653974,54.4041772 C35.0218212,55.9290032 36.5918543,58.1161709 38.3217715,59.2565506 C41.1435099,61.1168671 43.3156291,62.6676108 44.7632285,64.4256962 C45.7052483,65.5675158 46.6616722,66.3608861 47.6656291,66.9181171 C48.6825497,67.4825475 49.3321689,68.5307753 49.3321689,69.6927532 L49.3321689,79.6235601 L53.3062252,79.6235601" id="Fill-738" fill="#838F93"></path>
                    <path d="M70.8401821,21.6787342 C67.9421026,21.1978165 65.1290066,20.3209335 62.4225,19.1776741 C58.2194205,17.3995744 53.0411921,16.3414114 51.0865728,15.9807231 C50.5968377,15.8902991 50.2036093,15.526443 50.0725331,15.0455253 L49.2010927,11.8327358 C49.0484106,11.2677294 48.5356291,10.8755079 47.9493874,10.8755079 L39.1413576,10.8755079 C38.5551159,10.8755079 38.0423344,11.2677294 37.8896523,11.8327358 L37.0182119,15.0455253 C36.8871358,15.526443 36.4953477,15.8902991 36.0041722,15.9807231 C34.049553,16.3414114 28.8727649,17.3995744 24.668245,19.1776741 C21.9617384,20.3209335 19.1486424,21.1978165 16.2505629,21.6787342 C14.9412417,21.8961551 13.5041573,22.0862184 12.031495,22.1970886 C10.9706424,22.2777215 10.4466258,23.5217722 11.1375844,24.330981 L16.0316225,30.0573576 C17.3366225,31.5836234 19.2437086,32.4633861 21.2516225,32.4633861 L28.2245861,32.4633861 C28.590447,32.4633861 28.941904,32.6160127 29.1853311,32.8910285 C30.0798179,33.9018196 31.1629967,34.7441456 32.3772517,35.3618513 C32.8165728,35.5850316 33.1003311,36.0285127 33.1003311,36.5223892 L33.1003311,43.9406171 C33.1003311,46.0370728 33.93,48.0298576 35.3516722,49.5705222 C35.7621854,50.0140032 36.2015066,50.5683544 36.6494702,51.2623734 C36.6768377,51.3055696 36.7042053,51.3530854 36.7272517,51.4006013 C36.975,51.9074367 38.7092384,55.2796203 41.9688576,57.2320886 C43.4870364,58.1420886 44.9130298,59.1960759 46.1632947,60.4487658 C46.5003477,60.7871361 46.8878146,61.1399051 47.3285762,61.4840348 C50.0278808,63.5992089 53.9860927,61.6107437 53.9860927,58.1809652 L53.9904139,33.7592722 C53.9918543,33.0436551 54.5723344,32.4633861 55.2882119,32.4633861 L65.8391225,32.4633861 C67.8470364,32.4633861 69.7555629,31.5836234 71.0591225,30.0573576 L75.9535927,24.330981 C76.6449834,23.5217722 76.1206788,22.2777215 75.059106,22.1970886 C73.5870199,22.0862184 72.1495033,21.8961551 70.8401821,21.6787342" id="Fill-739" fill="#838F93"></path>
                    <path d="M32.7935265,19.3734968 C32.610596,18.1812816 32.8194536,17.2433481 33.0945695,16.5831661 C30.6228477,17.1471646 27.321457,18.0342706 24.4925166,19.2525475 C21.8609106,20.384288 19.1054305,21.2035759 16.2793709,21.6744146 C14.9624156,21.8932753 13.5149603,22.0847785 12.031495,22.1970886 C11.0596589,22.2705222 10.541404,23.3201899 10.9918162,24.1178797 L11.9751755,25.3115348 C11.9751755,25.3115348 15.1721374,25.1358703 18.9959603,24.2546677 L20.655298,26.4965506 L21.1479139,26.3050475 C21.8724338,26.0228323 22.3232781,25.3878481 22.4212252,24.6967089 C22.5407781,23.8443038 23.0463576,23.0898101 23.8472185,22.773038 C24.5717384,22.4865032 25.2804139,22.1668513 25.9588411,21.8126424 C28.3787086,20.5469937 30.794255,19.8068987 32.7935265,19.3734968" id="Fill-740" fill="#838F93"></path>
                    <path d="M44.0747185,20.0070411 C47.5287914,20.0070411 50.1877649,17.9648687 51.8787914,16.1321978 C51.5777483,16.072587 51.3098344,16.0219035 51.0865728,15.9807231 C50.5968377,15.8901551 50.2036093,15.526443 50.0725331,15.0455253 L49.2010927,11.8327358 C49.0484106,11.2677294 48.5356291,10.8755079 47.9493874,10.8755079 L39.1413576,10.8755079 C38.5551159,10.8755079 38.0423344,11.2677294 37.8896523,11.8327358 L37.0182119,15.0455253 C36.8871358,15.526443 36.4953477,15.8901551 36.0041722,15.9807231 C35.8442881,16.0102405 35.6599172,16.0452294 35.4568212,16.08425 C36.1208444,16.9844589 38.7423675,20.0070411 44.0747185,20.0070411" id="Fill-741" fill="#838F93"></path>
                    <path d="M53.4862748,16.2475316 L53.4560265,16.2229098 C51.8672682,14.9024019 50.9482947,12.9441741 50.9482947,10.8789636 L50.9482947,8.4959731 C50.9482947,4.40874842 47.6339404,1.09531171 43.5460927,1.09531171 C39.4568046,1.09531171 36.1424503,4.40874842 36.1424503,8.4959731 L36.1424503,10.8789636 C36.1424503,12.9441741 35.2234768,14.9024019 33.6347185,16.2229098 L33.6059106,16.2475316 C31.7852483,17.7601187 32.2058444,20.7039399 34.4082119,21.5736234 C34.666043,21.6744146 34.8374503,21.7046519 34.8374503,21.7046519 C40.4492384,22.5743354 40.1625993,17.8781883 40.1625993,17.8781883 L40.1625993,10.8755079 L46.9281457,10.8755079 L46.9281457,17.8781883 C46.9281457,17.8781883 46.642947,22.5743354 52.2532947,21.7046519 C52.2532947,21.7046519 52.424702,21.6744146 52.6839735,21.5736234 C54.8849007,20.7039399 55.3054967,17.7601187 53.4862748,16.2475316" id="Fill-742" fill="#838F93"></path>
                    <path d="M52.2532947,21.7046519 C52.2532947,21.7046519 52.424702,21.6744146 52.6839735,21.5736234 C54.8849007,20.7039399 55.3054967,17.7601187 53.4862748,16.2475316 L53.4560265,16.2229098 C51.8672682,14.9024019 50.9482947,12.9441741 50.9482947,10.8789636 L50.9482947,8.4959731 C50.9482947,5.40384494 49.0512914,2.75606171 46.3577483,1.64923101 C46.4657781,3.21466139 45.8507285,5.15834652 42.7697185,6.42586709 C40.9821854,7.16193038 40.5399834,8.88358703 40.7603642,10.8755079 L46.9281457,10.8755079 L46.9281457,17.8781883 C46.9281457,17.8781883 46.642947,22.5743354 52.2532947,21.7046519" id="Fill-743" fill="#838F93"></path>
                    <path d="M43.5460927,15.4152848 L43.5460927,15.4152848 C45.4142881,15.4152848 46.9281457,13.9014019 46.9281457,12.0340301 L46.9281457,9.71684177 C46.9281457,7.84946994 45.4142881,6.33558703 43.5460927,6.33558703 C41.6778974,6.33558703 40.1625993,7.84946994 40.1625993,9.71684177 L40.1625993,12.0340301 C40.1625993,13.9014019 41.6778974,15.4152848 43.5460927,15.4152848" id="Fill-744" fill="#838F93"></path>
                    <path d="M75.059106,22.1970886 C73.5870199,22.0862184 72.1495033,21.8961551 70.8401821,21.6787342 C70.665894,21.6499367 70.4930464,21.6153797 70.3187583,21.5837025 C69.0656126,23.3374684 67.2579139,25.5476741 65.0742715,27.3187184 C64.2590066,27.9796203 63.2305629,28.3208703 62.1819536,28.3208703 L59.692947,28.3208703 C58.2943212,28.3208703 57.7728974,27.2640032 57.5726821,26.0660285 C57.2990066,24.433212 55.8600497,23.2525158 54.2021523,23.2525158 C52.3109106,23.2525158 50.7768874,24.785981 50.7768874,26.6765348 L50.7768874,55.7432595 C50.7768874,57.1471361 49.1838079,57.9621044 48.0444536,57.1399367 L41.3048344,52.2803639 C41.3048344,52.2803639 41.3048344,52.2789241 41.303394,52.2789241 C40.0862583,51.2738924 38.2886424,51.9074367 37.9112583,53.3545095 C38.7870199,54.588481 40.1366722,56.1349051 41.9688576,57.2320886 C43.4870364,58.1420886 44.9130298,59.1960759 46.1632947,60.4487658 C47.0160099,61.3069304 48.1985762,62.2514873 49.7268377,62.9440665 C51.7217881,63.848307 53.9860927,62.3825158 53.9860927,60.1924684 L53.9904139,33.7592722 C53.9918543,33.0436551 54.5723344,32.4633861 55.2882119,32.4633861 L65.8391225,32.4633861 C67.8470364,32.4633861 69.7555629,31.5836234 71.0591225,30.0573576 L75.9535927,24.330981 C76.6449834,23.5217722 76.1206788,22.2777215 75.059106,22.1970886" id="Fill-745" fill="#838F93"></path>
                    <path d="M24.2082344,91 C23.5406496,91 23,90.5528192 23,90.0006481 C23,89.448477 23.5406496,89 24.2082344,89 L62.7901985,89 C63.4577833,89 64,89.448477 64,90.0006481 C64,90.5528192 63.4577833,91 62.7901985,91 L24.2082344,91 Z" id="Fill-704" fill="#516066"></path>
                    <path d="M40.7978146,12.7225775 L41.2544205,14.5163718 C41.857947,15.0727389 42.6602483,15.4152848 43.5460927,15.4152848 C45.4142881,15.4152848 46.9281457,13.9014019 46.9281457,12.0340301 L46.9281457,9.71684177 C46.9281457,9.47580696 46.9022185,9.24096361 46.853245,9.01418354 L46.5637252,9.01418354 C45.5396026,9.01418354 44.7099338,9.84427057 44.7099338,10.8683085 C44.7099338,11.8924905 43.8788245,12.7225775 42.854702,12.7225775 L40.7978146,12.7225775" id="Fill-747" fill="#838F93"></path>
                    <path d="M38.5392715,6.85437342 C38.9569868,5.80585759 39.585,5.09931171 40.1942881,4.62818513 C41.129106,3.90349684 41.4387914,2.63453639 40.9274503,1.57277373 C38.1316391,2.6299288 36.1424503,5.33012342 36.1424503,8.4959731 L36.1424503,10.8789636 C36.1424503,12.9441741 35.2234768,14.9024019 33.6347185,16.2229098 L33.6059106,16.2475316 C31.7852483,17.7601187 32.2058444,20.7039399 34.4082119,21.5736234 C34.666043,21.6744146 34.8374503,21.7046519 34.8374503,21.7046519 C35.0405464,21.7363291 35.235,21.7579272 35.4236921,21.7752057 C35.3963245,21.5649842 35.3430298,21.3490032 35.2537252,21.1287025 C34.5047185,19.2928639 35.7765894,18.1193671 35.7765894,18.1193671 C38.3577815,16.129606 38.146043,11.3699604 38.146043,11.3699604 L38.146043,9.03765348 C38.146043,8.292375 38.2627152,7.54680854 38.5392715,6.85437342" id="Fill-748" fill="#838F93"></path>
                    <path d="M32.8756291,29.7895411 C32.5155298,29.472769 32.2231291,29.1574367 31.994106,28.8752215 C31.4957285,28.2661551 30.7222351,27.9537025 29.9386589,28.0300158 C28.2231457,28.1941614 27.2422351,30.0760759 28.0978311,31.5706646 C28.3124503,31.9435918 28.5385927,32.2805222 28.7704967,32.5843354 C28.9260596,32.657769 29.0686589,32.7585601 29.1853311,32.8910285 C29.5209437,33.2697152 29.8824834,33.6253639 30.2670695,33.9536551 C31.3372848,34.4144146 32.6552483,34.0587658 33.3192715,32.9932595 L33.3711258,32.9097468 C34.0049007,31.8903165 33.7787583,30.5800316 32.8756291,29.7895411" id="Fill-749" fill="#838F93"></path>
                    <path d="M37.0787086,39.0781646 C38.0380132,38.686519 38.4557285,37.5590981 37.9832781,36.6375791 L37.6174172,35.9234019 L32.8093709,35.7103006 C32.9923013,35.9363608 33.1003311,36.2200158 33.1003311,36.5223892 L33.1003311,43.9406171 C33.1003311,46.0370728 33.93,48.0298576 35.3516722,49.5705222 C35.4913907,49.720269 35.6354305,49.8887342 35.7794702,50.0672785 C36.6293046,48.9312184 36.8165563,47.4207911 36.2836093,46.0701899 C36.0344205,45.4409652 35.9811258,44.9816456 35.9811258,44.9816456 L35.9811258,40.7138608 C35.9811258,39.9953639 36.4146854,39.3503006 37.0787086,39.0781646" id="Fill-750" fill="#838F93"></path>
                    <path d="M35.6988079,79.2232753 L36.090596,67.6841297 C36.1712583,65.2939399 35.332947,63.0016614 33.810447,61.2392563 L33.1421026,79.1325633 L35.6988079,79.2232753" id="Fill-751" fill="#838F93"></path>
                    <path d="M35.0362252,26.8277215 C35.9638411,27.4828639 37.2573179,28.0876108 39.0016391,28.2978323 C39.711755,28.3842247 40.342649,27.8413924 40.342649,27.1257753 L40.342649,25.8673259 C40.342649,25.2150633 39.8140232,24.6866297 39.1615232,24.6866297 L35.7290563,24.6866297 C34.5810596,24.6866297 34.0999669,26.1639399 35.0362252,26.8277215" id="Fill-753" fill="#838F93"></path>
                    <path d="M62.4225,19.1776741 C61.6878974,18.8666614 60.9230464,18.5772468 60.1509934,18.3108703 L60.0660099,18.4375791 C59.2377815,19.6888291 59.7851325,21.385 61.1895199,21.9105538 C61.7512748,22.1222152 62.3548013,22.3439557 62.9540066,22.5599367 C63.9277152,22.9098259 65.0152152,22.5815348 65.6288245,21.749288 L66.4440894,20.6405854 C65.0800331,20.224462 63.7390232,19.7334652 62.4225,19.1776741" id="Fill-754" fill="#838F93"></path>
                    <path d="M8.02618212,29.4324525 L4.24355464,29.4324525 C2.34496689,29.4324525 0.699600993,28.1452057 0.242274834,26.3036076 C-0.06525,25.0653165 0.209433775,23.7780696 0.996178808,22.7715981 C1.78292384,21.7665665 2.96649834,21.1891772 4.24355464,21.1891772 L9.40349007,21.1891772 C10.0172434,21.1891772 10.5149007,21.6873734 10.5149007,22.3007595 C10.5149007,22.9141456 10.0172434,23.4123418 9.40349007,23.4123418 L4.24355464,23.4123418 C3.65500828,23.4123418 3.10967384,23.6772785 2.74712583,24.1409177 C2.38443377,24.604557 2.25782285,25.1977848 2.39970199,25.7679747 C2.61028808,26.6175 3.36851325,27.2107278 4.24355464,27.2107278 L8.02618212,27.2107278 C8.46478311,27.2107278 8.87716887,27.0393829 9.1875745,26.7298101 C9.91742384,25.9997943 10.8879636,25.5980696 11.9204404,25.5980696 L12.8917003,25.5980696 C13.5054536,25.5980696 14.0031109,26.0948259 14.0031109,26.708212 C14.0031109,27.323038 13.5054536,27.8197943 12.8917003,27.8197943 L11.9204404,27.8197943 C11.4816954,27.8197943 11.0693096,27.9896994 10.7591921,28.300712 C10.0290546,29.0307278 9.0585149,29.4324525 8.02618212,29.4324525" id="Fill-755" fill="#516066"></path>
                    <path d="M82.8473344,29.4324525 L79.064851,29.4324525 C78.0320861,29.4324525 77.0626987,29.0307278 76.3324172,28.300712 C76.0212914,27.9896994 75.6093377,27.8197943 75.1700166,27.8197943 L74.4512583,27.8197943 C73.837649,27.8197943 73.3392715,27.323038 73.3392715,26.708212 C73.3392715,26.0948259 73.837649,25.5980696 74.4512583,25.5980696 L75.1700166,25.5980696 C76.2027815,25.5980696 77.1736093,25.9997943 77.9038907,26.7298101 C78.2135762,27.0393829 78.6255298,27.2107278 79.064851,27.2107278 L82.8473344,27.2107278 C83.7216556,27.2107278 84.480745,26.6175 84.691043,25.7679747 C84.8336424,25.1977848 84.7068874,24.604557 84.3439073,24.1409177 C83.9809272,23.6772785 83.436457,23.4123418 82.8473344,23.4123418 L77.9658278,23.4123418 C77.3507781,23.4123418 76.8538411,22.9141456 76.8538411,22.3007595 C76.8538411,21.6873734 77.3507781,21.1891772 77.9658278,21.1891772 L82.8473344,21.1891772 C84.1249669,21.1891772 85.3075331,21.7665665 86.0954305,22.7715981 C86.8818874,23.7780696 87.1570033,25.0653165 86.8487583,26.3036076 C86.3907119,28.1452057 84.7457781,29.4324525 82.8473344,29.4324525" id="Fill-756" fill="#516066"></path>
                    <path d="M53.3062252,80.7639399 C52.6983775,80.7639399 52.2028808,80.2743829 52.1956788,79.6653165 L52.0084272,63.3083544 C52.0012252,62.6949684 52.4938411,62.1924525 53.1074503,62.1852532 C53.1117715,62.1852532 53.1160927,62.1852532 53.1204139,62.1852532 C53.7282616,62.1852532 54.2237583,62.6733703 54.2309603,63.2824367 L54.4182119,79.6393987 C54.4254139,80.2527848 53.932798,80.7567405 53.3191887,80.7639399 C53.3148675,80.7639399 53.3105464,80.7639399 53.3062252,80.7639399" id="Fill-757" fill="#516066"></path>
                    <path d="M33.1233775,80.7639399 C33.1104139,80.7639399 33.0960099,80.7625 33.081606,80.7625 C32.4679967,80.739462 31.9897848,80.2239873 32.0128311,79.6106013 L32.940447,54.7511867 C32.9634934,54.1392405 33.480596,53.6612025 34.0927649,53.6828006 C34.7049338,53.7058386 35.1845861,54.2213133 35.1615397,54.8346994 L34.2339238,79.6941139 C34.2108775,80.2931013 33.7182616,80.7639399 33.1233775,80.7639399" id="Fill-758" fill="#516066"></path>
                    <path d="M69.8909603,22.6175316 C69.8189404,22.6175316 69.7469205,22.6103323 69.6749007,22.5959335 C67.1758113,22.1049367 64.590298,21.2986076 61.9903808,20.1999842 C61.0886921,19.8198576 60.0760927,19.4454905 58.9813907,19.0898418 C58.3965894,18.9012184 58.0782616,18.2734335 58.2669536,17.6904288 C58.4570861,17.1067041 59.0836589,16.7880601 59.6670199,16.9768275 C60.8236589,17.3522025 61.896755,17.7478797 62.8560596,18.1539241 C65.3148179,19.1935127 67.7534106,19.9537658 70.1041391,20.4159652 C70.7062252,20.5340348 71.0980132,21.1186234 70.9799007,21.7204905 C70.8761921,22.2503639 70.4109437,22.6175316 69.8909603,22.6175316" id="Fill-762" fill="#516066"></path>
                    <path d="M51.1297848,64.405538 C50.6025993,64.405538 50.0739735,64.3004272 49.5727152,64.0887658 C47.9781954,63.4177848 46.5277152,62.4185127 45.2630464,61.1197468 C44.2374834,60.0671994 42.9857781,59.1082437 41.5396192,58.2687975 C37.9026159,56.157943 36.0084934,52.4675475 35.7218543,51.8757595 C35.2882947,51.2018987 34.8273675,50.6144304 34.350596,50.129193 C32.8266556,48.5798892 31.9883444,46.5669462 31.9883444,44.4632911 L31.9883444,36.4086392 C30.5911589,35.7175 29.3365728,34.7499051 28.3066887,33.5735285 L20.6538576,33.5735285 C18.6963576,33.5735285 16.845447,32.7211234 15.5751606,31.2337342 L8.55768874,23.0221361 C8.27594702,22.6924051 8.21184934,22.2302057 8.3933394,21.8356804 C8.57482947,21.4425949 8.96892219,21.1891772 9.40262583,21.1891772 C10.2500116,21.1891772 11.1544371,21.1517405 12.0911275,21.078307 C12.7031523,21.0279114 13.238404,21.4857911 13.2868013,22.0977373 C13.3353427,22.7096835 12.8784487,23.2453165 12.2667119,23.2928323 C12.0917036,23.307231 11.9177036,23.3201899 11.744856,23.3317089 L17.2646026,29.790981 C18.1129967,30.7830538 19.3474172,31.3518038 20.6538576,31.3518038 L28.8252318,31.3518038 C29.1637252,31.3518038 29.4834934,31.5058703 29.6952318,31.770807 C30.7092715,33.0422152 32.0344371,34.045807 33.5295695,34.670712 C33.9429636,34.8434968 34.2108775,35.2481013 34.2108775,35.6959019 L34.2108775,44.4632911 C34.2108775,45.9809177 34.8230464,47.4409494 35.9364735,48.5726899 C36.5356788,49.1817563 37.1060762,49.9103323 37.6332616,50.7382595 C37.6606291,50.7814557 37.6851159,50.8246519 37.7052815,50.8707278 C37.7211258,50.9052848 39.4006291,54.4574525 42.6559272,56.3465665 C44.2763742,57.2882437 45.689404,58.3724684 46.8561258,59.5690032 C47.9119371,60.6546677 49.1161093,61.4854747 50.4355132,62.0427057 C50.992947,62.2774051 51.6007947,62.22125 52.1006126,61.8886392 C52.5932285,61.5632278 52.8755464,61.0362342 52.8755464,60.4458861 L52.8798675,32.4619462 C52.8798675,31.8485601 53.378245,31.3518038 53.9918543,31.3518038 L66.4383278,31.3518038 C67.7433278,31.3518038 68.9777483,30.7830538 69.8261424,29.790981 L75.345745,23.3317089 C75.015894,23.3086709 74.6817219,23.2827532 74.3446689,23.2525158 C73.7339404,23.1963608 73.283096,22.6564082 73.3378311,22.0459019 C73.3925662,21.4353956 73.9327152,20.9789557 74.5448841,21.0394304 C75.6482285,21.1387816 76.7054801,21.1891772 77.6878311,21.1891772 C78.1213907,21.1891772 78.5160596,21.4425949 78.6975497,21.8356804 C78.8790397,22.2302057 78.8156623,22.6924051 78.5333444,23.0221361 L71.5157285,31.2337342 C70.245298,32.7211234 68.3943874,33.5735285 66.4383278,33.5735285 L55.1024007,33.5735285 L55.0980795,60.4458861 C55.0980795,61.7748892 54.4369371,63.005981 53.3292715,63.7403165 C52.6666887,64.1809177 51.9003974,64.405538 51.1297848,64.405538" id="Fill-763" fill="#516066"></path>
                    <path d="M17.4115232,22.5757753 C16.8944205,22.5757753 16.4306126,22.2129272 16.3240232,21.6859335 C16.2015894,21.0840665 16.5904967,20.498038 17.1911424,20.3756487 C19.4784934,19.9105696 21.847947,19.1632753 24.2346854,18.1539241 C25.1968709,17.7470158 26.2714073,17.3504747 27.4294868,16.9750997 C28.0128477,16.7863323 28.6394205,17.1054082 28.829553,17.6891329 C29.018245,18.2734335 28.6984768,18.8997785 28.1151159,19.0884019 C27.0175331,19.4440506 26.0034934,19.8184177 25.1003642,20.1999842 C22.5782285,21.2669304 20.0661755,22.0588608 17.6347848,22.5527373 C17.5598841,22.5685759 17.4849834,22.5757753 17.4115232,22.5757753" id="Fill-764" fill="#516066"></path>
                    <path d="M50.9454139,22.9213449 C49.4502815,22.9213449 48.2461093,22.5095411 47.3473013,21.6902532 C45.801755,20.2834968 45.8046358,18.1985601 45.8161589,17.8561582 L45.8161589,11.8704604 C45.8161589,11.2569304 46.3145364,10.7594541 46.9281457,10.7594541 C47.541755,10.7594541 48.0386921,11.2569304 48.0386921,11.8704604 L48.0386921,17.8780443 C48.0386921,17.9006503 48.0386921,17.9231123 48.0372517,17.9454304 C48.0372517,17.9504699 47.9868377,19.2799051 48.8553974,20.0588766 C49.5122185,20.6477848 50.5896358,20.8335285 52.0559603,20.6103481 C52.0833278,20.6045886 52.1639901,20.5844304 52.2749007,20.5397943 C52.9331623,20.2806171 53.3753642,19.7248259 53.4891556,19.0149684 C53.6058278,18.2849525 53.3393543,17.5704873 52.7747185,17.1018085 L52.7459106,17.0773307 C50.8978808,15.5405538 49.8377483,13.2816804 49.8377483,10.8791076 L49.8377483,8.4959731 C49.8377483,6.20671835 48.5903642,4.09543196 46.5838907,2.98658544 C46.0466225,2.68953956 45.8521689,2.01366297 46.1488907,1.47659019 C46.4456126,0.93980538 47.1225993,0.745710443 47.6598675,1.04174842 C50.3735762,2.54209652 52.0602815,5.39822943 52.0602815,8.4959731 L52.0602815,10.8791076 C52.0602815,12.6193386 52.8280132,14.2557547 54.1661424,15.3689209 L54.1963907,15.3932547 C55.3703146,16.3692009 55.9263079,17.8541424 55.6843212,19.3662975 C55.4466556,20.8479272 54.4772682,22.0588608 53.091606,22.6060127 C52.754553,22.7399209 52.5111258,22.7874367 52.4448675,22.7989557 C51.9162417,22.8810285 51.4164238,22.9213449 50.9454139,22.9213449" id="Fill-765" fill="#516066"></path>
                    <path d="M36.1467715,22.9227848 C35.6800828,22.9227848 35.1874669,22.8839082 34.6674834,22.8032753 C34.5796192,22.7874367 34.3361921,22.7399209 33.9991391,22.6060127 C32.6134768,22.0588608 31.6440894,20.8479272 31.4078642,19.3662975 C31.1644371,17.8539984 31.7204305,16.368913 32.8943543,15.3935427 L32.9231623,15.3702168 C34.2627318,14.2557547 35.0304636,12.6193386 35.0304636,10.8791076 L35.0304636,8.4959731 C35.0304636,4.12163766 38.3088079,0.482501582 42.6559272,0.0303813291 C43.2666556,-0.0319651899 43.8125662,0.410075949 43.8759437,1.02043829 C43.9393212,1.63065665 43.4956788,2.17694462 42.8849503,2.24044304 C39.6743046,2.57434968 37.2529967,5.26360127 37.2529967,8.4959731 L37.2529967,10.8791076 C37.2529967,13.2816804 36.1928642,15.5408418 34.3448344,17.0771867 L34.3174669,17.1005127 C33.7513907,17.5704873 33.4849172,18.2849525 33.6015894,19.0149684 C33.7153808,19.7248259 34.1575828,20.2806171 34.8158444,20.5397943 C34.926755,20.5844304 35.0074172,20.6045886 35.0347848,20.6103481 C36.5011093,20.8335285 37.5785265,20.6477848 38.2353477,20.0588766 C39.1039073,19.2799051 39.0534934,17.9504699 39.0534934,17.9372231 C39.052053,17.9203766 39.052053,17.8948908 39.052053,17.8780443 L39.052053,11.6989715 C39.052053,11.0854415 39.5489901,10.5881092 40.1625993,10.5881092 C40.7762086,10.5881092 41.2745861,11.0854415 41.2745861,11.6989715 L41.2745861,17.8561582 C41.2861093,18.1985601 41.2889901,20.2834968 39.7448841,21.6902532 C38.8431954,22.510981 37.6375828,22.9227848 36.1467715,22.9227848" id="Fill-766" fill="#516066"></path>
                    <path d="M43.5460927,7.44659335 C42.292947,7.44659335 41.2745861,8.46501582 41.2745861,9.71684177 L41.2745861,12.0340301 C41.2745861,13.285712 42.292947,14.3042785 43.5460927,14.3042785 C44.797798,14.3042785 45.8161589,13.285712 45.8161589,12.0340301 L45.8161589,9.71684177 C45.8161589,8.46501582 44.797798,7.44659335 43.5460927,7.44659335 Z M43.5460927,16.5262911 C41.0671689,16.5262911 39.052053,14.5109003 39.052053,12.0340301 L39.052053,9.71684177 C39.052053,7.23982753 41.0671689,5.2245807 43.5460927,5.2245807 C46.0235762,5.2245807 48.0386921,7.23982753 48.0386921,9.71684177 L48.0386921,12.0340301 C48.0386921,14.5109003 46.0235762,16.5262911 43.5460927,16.5262911 L43.5460927,16.5262911 Z" id="Fill-767" fill="#516066"></path>
                    <path d="M44.3714404,21.1186234 C44.2562086,21.1186234 44.1438576,21.1157437 44.0358278,21.1114241 C43.4222185,21.0898259 42.9425662,20.5757911 42.9641722,19.9624051 C42.9857781,19.349019 43.4971192,18.8666614 44.1136093,18.8911392 C45.1578974,18.9285759 45.983245,18.7543513 46.4355298,18.4001424 C46.9195033,18.0215997 47.618096,18.1064082 47.9969205,18.5902057 C48.3743046,19.0740032 48.2893212,19.7723418 47.8053477,20.1495886 C46.8071523,20.9314399 45.443096,21.1186234 44.3714404,21.1186234" id="Fill-768" fill="#516066"></path>
                    <path d="M46.0595861,46.0932278 C45.4459768,46.0932278 44.9475993,45.5950316 44.9475993,44.9816456 L44.9475993,25.3115348 C44.9475993,24.6981487 45.4459768,24.1999525 46.0595861,24.1999525 C46.6731954,24.1999525 47.1701325,24.6981487 47.1701325,25.3115348 L47.1701325,44.9816456 C47.1701325,45.5950316 46.6731954,46.0932278 46.0595861,46.0932278" id="Fill-769" fill="#516066"></path>
                    <path d="M53.9918543,33.5735285 C53.378245,33.5735285 52.8798675,33.0767722 52.8798675,32.4633861 L52.8798675,26.4965506 C52.8798675,25.8831646 53.378245,25.3849684 53.9918543,25.3849684 C54.6054636,25.3849684 55.1024007,25.8831646 55.1024007,26.4965506 L55.1024007,32.4633861 C55.1024007,33.0767722 54.6054636,33.5735285 53.9918543,33.5735285" id="Fill-770" fill="#516066"></path>
                    <path d="M46.0595861,61.4552373 C45.4459768,61.4552373 44.9475993,60.9570411 44.9475993,60.3436551 L44.9475993,54.0557278 C44.9475993,53.4423418 45.4459768,52.9455854 46.0595861,52.9455854 C46.6731954,52.9455854 47.1701325,53.4423418 47.1701325,54.0557278 L47.1701325,60.3436551 C47.1701325,60.9570411 46.6731954,61.4552373 46.0595861,61.4552373" id="Fill-771" fill="#516066"></path>
                    <path d="M41.3379636,57.933307 C40.7243543,57.933307 40.2259768,57.4365506 40.2259768,56.8231646 L40.2259768,41.0479114 C40.2259768,40.4345253 40.7243543,39.937769 41.3379636,39.937769 C41.9515728,39.937769 42.4485099,40.4345253 42.4485099,41.0479114 L42.4485099,56.8231646 C42.4485099,57.4365506 41.9515728,57.933307 41.3379636,57.933307" id="Fill-773" fill="#516066"></path>
                    <path d="M28.8266722,33.5735285 C28.4910596,33.5735285 28.1583278,33.4223418 27.9408278,33.1343671 C25.4748675,29.8874525 25.4748675,26.1999367 25.4763079,26.0444304 C25.4806291,25.4339241 25.9775662,24.9429272 26.5882947,24.9429272 C26.5911755,24.9429272 26.5940563,24.9429272 26.5969371,24.9429272 C27.209106,24.9472468 27.7017219,25.4468829 27.6988411,26.0588291 C27.6988411,26.1005854 27.720447,29.1703956 29.7110762,31.7909652 C30.0812583,32.2805222 29.9861921,32.9774209 29.4978974,33.3474684 C29.2962417,33.5000949 29.0600166,33.5735285 28.8266722,33.5735285" id="Fill-774" fill="#516066"></path>
                    <path d="M36.2648841,37.2581646 C34.4182947,37.2581646 32.8684272,36.7873259 32.7704801,36.7570886 C32.1842384,36.5742247 31.8558278,35.9521994 32.0387583,35.3661709 C32.2202483,34.7801424 32.8425,34.4532911 33.4287417,34.6347152 C33.4834768,34.6505538 36.3844371,35.5173576 38.4370033,34.6692722 C39.0045199,34.4345728 39.6541391,34.7038291 39.8889238,35.2711392 C40.1237086,35.8384494 39.8529139,36.4878323 39.2853974,36.7225316 C38.3116887,37.1256962 37.2457947,37.2581646 36.2648841,37.2581646" id="Fill-775" fill="#516066"></path>
                    <path d="M38.2929636,32.8089557 C31.8990397,32.8089557 30.3462914,28.4619778 30.2757119,28.2517563 C30.0783775,27.6700475 30.3909437,27.0393829 30.9714238,26.8435601 C31.5504636,26.6477373 32.1770364,26.9544304 32.3772517,27.5303797 C32.4478311,27.720443 33.9588079,31.5663449 40.882798,30.3424525 C41.4877649,30.234462 42.0639238,30.6376266 42.1719536,31.2423734 C42.278543,31.8456804 41.8752318,32.4230696 41.2702649,32.5296203 C40.1770033,32.7240032 39.1874503,32.8089557 38.2929636,32.8089557" id="Fill-776" fill="#516066"></path>
                    <path d="M37.7513742,80.7639399 C37.7384106,80.7639399 37.7268874,80.7625 37.7139238,80.7625 C37.1003146,80.7423418 36.6192219,80.228307 36.6393874,79.6163608 L37.2112252,62.2802848 C37.2313907,61.6668987 37.7441722,61.1946203 38.3577815,61.2061392 C38.9713907,61.2262975 39.4524834,61.7403323 39.4323179,62.3537184 L38.8619205,79.6883544 C38.841755,80.2902215 38.3476987,80.7639399 37.7513742,80.7639399" id="Fill-777" fill="#516066"></path>
                    <path d="M41.9414901,80.7639399 C41.9270861,80.7639399 41.9126821,80.7625 41.8982781,80.7625 C41.2846689,80.739462 40.806457,80.2239873 40.8295033,79.6106013 L41.1118212,72.1650158 C41.1348675,71.5516297 41.654851,71.0750316 42.2641391,71.0966297 C42.8777483,71.1196677 43.3559603,71.6365823 43.3329139,72.2499684 L43.050596,79.6941139 C43.0275497,80.2931013 42.5349338,80.7639399 41.9414901,80.7639399" id="Fill-779" fill="#516066"></path>
                    <path d="M49.3321689,80.7639399 C48.7185596,80.7639399 48.2216225,80.2657437 48.2216225,79.6523576 L48.2216225,75.3168987 C48.2216225,74.7035127 48.7185596,74.2067563 49.3321689,74.2067563 C49.9472185,74.2067563 50.4441556,74.7035127 50.4441556,75.3168987 L50.4441556,79.6523576 C50.4441556,80.2657437 49.9472185,80.7639399 49.3321689,80.7639399" id="Fill-780" fill="#516066"></path>
                    <path d="M57.9371026,90.9409652 L28.4925,90.9409652 C27.8788907,90.9409652 27.3819536,90.442769 27.3819536,89.8293829 L27.3819536,83.5961709 C27.3819536,80.8085759 29.6491391,78.5407753 32.4377483,78.5407753 L44.4924338,78.5407753 C45.106043,78.5407753 45.6029801,79.0389715 45.6029801,79.6523576 C45.6029801,80.2657437 45.106043,80.7639399 44.4924338,80.7639399 L32.4377483,80.7639399 C30.8749172,80.7639399 29.6044868,82.0339082 29.6044868,83.5961709 L29.6044868,88.7178006 L56.8251159,88.7178006 L56.8251159,83.5961709 C56.8251159,82.0339082 55.5546854,80.7639399 53.9918543,80.7639399 L48.3296523,80.7639399 C47.7146026,80.7639399 47.2176656,80.2657437 47.2176656,79.6523576 C47.2176656,79.0389715 47.7146026,78.5407753 48.3296523,78.5407753 L53.9918543,78.5407753 C56.7804636,78.5407753 59.047649,80.8085759 59.047649,83.5961709 L59.047649,89.8293829 C59.047649,90.442769 58.5507119,90.9409652 57.9371026,90.9409652" id="Fill-781" fill="#516066"></path>
                    <path d="M21.3380464,28.4850158 C21.0499669,28.4850158 20.760447,28.3727057 20.542947,28.1509652 C17.7212086,25.2611392 14.9647202,21.1762184 14.8487682,21.0034335 C14.5062417,20.4951582 14.6417831,19.804019 15.1511076,19.462769 C15.6604321,19.1186392 16.3513907,19.2554272 16.6942053,19.7637025 C16.7201325,19.8054589 19.455447,23.8558228 22.1331457,26.5987816 C22.5623841,27.037943 22.5537417,27.7406013 22.1144205,28.1696835 C21.8983609,28.3799051 21.6189238,28.4850158 21.3380464,28.4850158" id="Fill-782" fill="#516066"></path>
                    <path d="M64.0242219,29.0076899 C63.6598013,29.0076899 63.3025828,28.8277057 63.089404,28.4994146 C62.7566722,27.9839399 62.9035927,27.2956804 63.419255,26.9630696 C67.1470033,24.5527215 69.8506291,19.8788924 69.8779967,19.8313766 C70.1833609,19.3000633 70.8617881,19.1157595 71.3947351,19.4195728 C71.9276821,19.7248259 72.112053,20.4030063 71.8066887,20.9357595 C71.6856954,21.1474209 68.8034603,26.127943 64.6263079,28.8291456 C64.4404967,28.9500949 64.2301987,29.0076899 64.0242219,29.0076899" id="Fill-783" fill="#516066"></path>
                </g>
            </g>
        </g>
    </g>
</svg>