<?xml version="1.0" encoding="UTF-8"?>
<svg width="128px" height="128px" viewBox="0 0 128 128" version="1.1" xmlns="http://www.w3.org/2000/svg" xmlns:xlink="http://www.w3.org/1999/xlink">
    <!-- Generator: Sketch 53 (72520) - https://sketchapp.com -->
    <title>img-race-germany</title>
    <desc>Created with Sketch.</desc>
    <g id="Symbols" stroke="none" stroke-width="1" fill="none" fill-rule="evenodd">
        <g id="image-/-race-/-germany">
            <g>
                <circle id="Oval-Copy-14" stroke-opacity="0.32" stroke="#F0F8FF" stroke-width="2" fill-opacity="0.04" fill="#F0F8FF" cx="64" cy="64" r="63"></circle>
                <g id="Group-39-Copy" transform="translate(23.000000, 24.000000)">
                    <polygon id="Fill-115" stroke="#516066" stroke-width="2.20000005" fill="#838F93" stroke-linecap="round" stroke-linejoin="round" points="0.269745283 74.2662029 80.5353962 74.2662029 80.5353962 63.2517101 0.269745283 63.2517101"></polygon>
                    <path d="M21.2053674,70.414493 C20.5393667,70.414493 20,69.8746355 20,69.2080289 C20,68.5414223 20.5393667,68 21.2053674,68 L62.4630143,68 C63.129015,68 63.6699451,68.5414223 63.6699451,69.2080289 C63.6699451,69.8746355 63.129015,70.414493 62.4630143,70.414493 L21.2053674,70.414493 Z" id="Fill-704-Copy" fill="#516066"></path>
                    <path d="M68.0575755,55.5269217 L67.1902642,56.4405739 L67.1902642,57.7682609 L62.0108491,57.7682609 L62.0108491,56.4405739 L61.1443019,55.5269217 L60.6873396,36.8444696 L61.5936226,36.4304348 L61.5936226,35.3440754 L67.6082547,35.3440754 L67.6082547,36.4304348 L68.5137736,36.8444696 L68.0575755,55.5269217 Z M56.3683585,55.5269217 L55.5086887,57.7682609 L50.3223962,57.7682609 L49.0065283,55.5269217 L49.0065283,36.8444696 L49.9120472,35.3440754 L55.9190377,35.3440754 L56.3683585,36.8444696 L56.3683585,55.5269217 Z M44.6791415,55.5269217 L43.8202358,57.7682609 L38.6331792,57.7682609 L37.7666321,55.5269217 L37.3173113,36.8444696 L38.2235943,36.4304348 L38.2235943,35.3440754 L44.2298208,35.3440754 L44.2298208,36.4304348 L45.1361038,36.8444696 L44.6791415,55.5269217 Z M32.9983302,55.5269217 L32.1310189,56.4405739 L32.1310189,57.7682609 L26.9447264,57.7682609 L26.9447264,56.4405739 L26.0850566,55.5269217 L25.6288585,36.8444696 L26.5343774,36.4304348 L26.5343774,35.3440754 L32.5413679,35.3440754 L32.5413679,36.4304348 L33.4468868,36.8444696 L32.9983302,55.5269217 Z M21.3091132,55.5269217 L20.4418019,56.4405739 L20.4418019,57.7682609 L15.2555094,57.7682609 L15.2555094,56.4405739 L14.3958396,55.5269217 L13.9396415,36.8444696 L14.8451604,36.4304348 L14.8451604,35.3440754 L20.8521509,35.3440754 L20.8521509,36.4304348 L21.7576698,36.8444696 L21.3091132,55.5269217 Z M73.6924245,56.4405739 L72.8335189,55.5269217 L72.3765566,36.8444696 L73.2820755,36.4304348 L73.2820755,35.3440754 L73.6924245,35.3440754 L73.6924245,28.7056406 L74.226566,28.7056406 L76.8659434,23.2229565 L66.1449057,23.2229565 L66.5552547,18.0833739 L66.5552547,18.0748928 L68.5909528,13.8420232 L49.2854434,13.8420232 L49.2930849,13.779571 L49.4711321,11.014713 L48.9133019,10.5775478 L48.6114623,7.53126957 L49.5330283,7.71014493 L49.9044057,4.60218551 L49.3473396,4.60218551 L47.8068113,5.65616232 L45.36,9.46034783 L44.4934528,11.014713 L43.9363868,10.5775478 L43.6261415,7.53126957 L44.5553491,7.71014493 L44.9267264,4.60218551 L44.3696604,4.60218551 L42.8291321,5.65616232 L40.7154906,8.92911884 L40.7154906,3.74250435 C41.3122925,3.57133913 41.745566,3.0324 41.745566,2.37549565 C41.745566,2.26678261 41.7295189,2.15729855 41.7065943,2.05629565 L42.6121132,1.43871304 L42.4883208,1.11103188 L41.3275755,1.36855072 C41.1411226,1.18890435 40.9095849,1.05628986 40.6459528,1.00154783 L40.5374434,0.181188406 L40.1584245,0.181188406 L40.0422736,1.00154783 C39.7870472,1.05628986 39.5547453,1.18890435 39.3690566,1.36855072 L38.1999057,1.11103188 L38.0761132,1.43871304 L38.9892736,2.05629565 C38.9587075,2.15729855 38.951066,2.26678261 38.951066,2.37549565 C38.951066,3.0324 39.3843396,3.57133913 39.9727358,3.74250435 L39.9727358,8.88208696 L37.898066,5.65616232 L36.3575377,4.60218551 L35.8004717,4.60218551 L36.1718491,7.71014493 L37.0934151,7.53126957 L36.7908113,10.5775478 L36.2337453,11.014713 L35.366434,9.46034783 L32.9203868,5.65616232 L31.372217,4.60218551 L30.8227925,4.60218551 L31.1941698,7.71014493 L32.1149717,7.53126957 L31.8062547,10.5775478 L31.2484245,11.014713 L31.4264717,13.779571 L31.4341132,13.8420232 L12.1278396,13.8420232 L14.1719434,18.0748928 L14.1719434,18.0833739 L14.5822925,23.2229565 L3.86049057,23.2229565 L6.49299057,28.7056406 L7.02713208,28.7056406 L7.02713208,35.3440754 L9.17057547,35.3440754 L9.17057547,36.4304348 L10.0768585,36.8444696 L9.61989623,55.5269217 L8.76099057,56.4405739 L8.76099057,57.7682609 L4.75072642,57.7682609 L4.75072642,62.2517101 L76.9438868,62.2517101 L76.9438868,57.7682609 L73.6924245,57.7682609 L73.6924245,56.4405739 Z" id="Fill-110" stroke="#516066" stroke-width="2" fill="#838F93" stroke-linecap="round" stroke-linejoin="round"></path>
                    <polygon id="Fill-114" fill="#516066" points="7.06916038 32.3440754 73.735217 32.3440754 73.735217 30.1690435 7.06916038 30.1690435"></polygon>
                    <path d="M39.2053674,19.414493 C38.5393667,19.414493 38,18.8746355 38,18.2080289 C38,17.5414223 38.5393667,17 39.2053674,17 L42.4630143,17 C43.129015,17 43.6699451,17.5414223 43.6699451,18.2080289 C43.6699451,18.8746355 43.129015,19.414493 42.4630143,19.414493 L39.2053674,19.414493 Z" id="Fill-704-Copy-2" fill="#516066"></path>
                    <path d="M15.228567,24.4833103 C14.5501165,24.4833103 14,23.9273333 14,23.2416552 C14,22.555977 14.5501165,22 15.228567,22 L65.867301,22 C66.5457515,22 67.095868,22.555977 67.095868,23.2416552 C67.095868,23.9273333 66.5457515,24.4833103 65.867301,24.4833103 L15.228567,24.4833103 Z" id="Fill-540" fill="#516066"></path>
                </g>
            </g>
        </g>
    </g>
</svg>