<?xml version="1.0" encoding="UTF-8"?>
<svg width="128px" height="128px" viewBox="0 0 128 128" version="1.1" xmlns="http://www.w3.org/2000/svg" xmlns:xlink="http://www.w3.org/1999/xlink">
    <!-- Generator: Sketch 53 (72520) - https://sketchapp.com -->
    <title>img-race-pakistan</title>
    <desc>Created with Sketch.</desc>
    <g id="Symbols" stroke="none" stroke-width="1" fill="none" fill-rule="evenodd">
        <g id="image-/-race-/-pakistan">
            <g>
                <circle id="img-race-" stroke-opacity="0.32" stroke="#F0F8FF" stroke-width="2" fill-opacity="0.04" fill="#F0F8FF" cx="64" cy="64" r="63"></circle>
                <g id="img" transform="translate(25.000000, 27.000000)" fill-rule="nonzero">
                    <path d="M79,26.375 L79,25.7678571 C79,25.2155724 78.5522847,24.7678571 78,24.7678571 L77.7,24.7678571 L77.7,23.2035714 C77.7,22.1607143 77.31,21.1178571 76.53,20.4660714 L75.1,19.0321429 L75.1,17.9464286 C75.1,17.3941438 74.6522847,16.9464286 74.1,16.9464286 L73.5,16.9464286 C72.9477153,16.9464286 72.5,17.3941438 72.5,17.9464286 L72.5,19.0321429 L71.07,20.4660714 C70.29,21.2482143 69.9,22.1607143 69.9,23.2035714 L69.9,24.7678571 L69.6,24.7678571 C69.0477153,24.7678571 68.6,25.2155724 68.6,25.7678571 L68.6,26.375 C68.6,26.9272847 69.0477153,27.375 69.6,27.375 L69.9,27.375 L69.9,31.2857143 L69.6,31.2857143 C69.0477153,31.2857143 68.6,31.7334295 68.6,32.2857143 L68.6,37.0214286 L69.9,38.325 L69.9,40.4107143 L64.7,40.4107143 L64.7,37.0214286 L65.35,36.3696429 C67.95,33.7625 67.82,29.5910714 65.35,26.9839286 C64.96,26.5928571 64.57,26.3321429 64.18,26.0714286 L60.8,23.9857143 L60.8,20.5535714 C60.8,20.0012867 60.3522847,19.5535714 59.8,19.5535714 L59.2,19.5535714 C58.6477153,19.5535714 58.2,20.0012867 58.2,20.5535714 L58.2,23.9857143 L54.82,26.0714286 C52.87,27.2446429 51.7,29.4607143 51.7,31.8071429 C51.7,33.5017857 52.35,35.1964286 53.65,36.3696429 L54.3,37.0214286 L54.3,40.4107143 L50.4,40.4107143 L50.4,28.6785714 L49.1,28.6785714 L49.1,27.7660714 L50.92,25.2892857 C52.22,23.4642857 53,21.2482143 53,19.0321429 L53,18.3803571 C53,14.6 50.92,11.0803571 47.67,9.25535714 L41.3,5.73571429 L41.3,1 C41.3,0.44771525 40.8522847,-1.01453063e-16 40.3,0 L39.7,0 C39.1477153,1.01453063e-16 38.7,0.44771525 38.7,1 L38.7,5.73571429 L32.33,9.25535714 C29.08,11.0803571 27,14.6 27,18.3803571 L27,19.0321429 C27,21.2482143 27.78,23.4642857 29.08,25.2892857 L30.9,27.7660714 L30.9,28.6785714 L29.6,28.6785714 L29.6,40.4107143 L25.7,40.4107143 L25.7,37.0214286 L26.35,36.3696429 C28.95,33.7625 28.82,29.5910714 26.35,26.9839286 C25.96,26.5928571 25.57,26.3321429 25.18,26.0714286 L21.8,23.9857143 L21.8,20.5535714 C21.8,20.0012867 21.3522847,19.5535714 20.8,19.5535714 L20.2,19.5535714 C19.6477153,19.5535714 19.2,20.0012867 19.2,20.5535714 L19.2,23.9857143 L15.82,26.0714286 C13.87,27.2446429 12.7,29.4607143 12.7,31.8071429 C12.7,33.5017857 13.35,35.1964286 14.65,36.3696429 L15.3,37.0214286 L15.3,40.4107143 L10.1,40.4107143 L10.1,38.325 L11.4,37.0214286 L11.4,32.2857143 C11.4,31.7334295 10.9522847,31.2857143 10.4,31.2857143 L10.1,31.2857143 L10.1,27.375 L10.4,27.375 C10.9522847,27.375 11.4,26.9272847 11.4,26.375 L11.4,25.7678571 C11.4,25.2155724 10.9522847,24.7678571 10.4,24.7678571 L10.1,24.7678571 L10.1,23.2035714 C10.1,22.1607143 9.71,21.1178571 8.93,20.4660714 L7.5,19.0321429 L7.5,17.9464286 C7.5,17.3941438 7.05228475,16.9464286 6.5,16.9464286 L5.9,16.9464286 C5.34771525,16.9464286 4.9,17.3941438 4.9,17.9464286 L4.9,19.0321429 L3.47,20.4660714 C2.69,21.2482143 2.3,22.1607143 2.3,23.2035714 L2.3,24.7678571 L2,24.7678571 C1.44771525,24.7678571 1,25.2155724 1,25.7678571 L1,26.375 C1,26.9272847 1.44771525,27.375 2,27.375 L2.3,27.375 L2.3,31.2857143 L2,31.2857143 C1.44771525,31.2857143 1,31.7334295 1,32.2857143 L1,37.0214286 L2.3,38.325 L2.3,70.3928571 L2,70.3928571 C1.44771525,70.3928571 1,70.8405724 1,71.3928571 L1,72 C1,72.5522847 1.44771525,73 2,73 L78,73 C78.5522847,73 79,72.5522847 79,72 L79,71.3928571 C79,70.8405724 78.5522847,70.3928571 78,70.3928571 L77.7,70.3928571 L77.7,38.325 L79,37.0214286 L79,32.2857143 C79,31.7334295 78.5522847,31.2857143 78,31.2857143 L77.7,31.2857143 L77.7,27.375 L78,27.375 C78.5522847,27.375 79,26.9272847 79,26.375 Z" id="Path" fill="#838F93"></path>
                    <path d="M79,26.375 L79,25.7678571 C79,25.2155724 78.5522847,24.7678571 78,24.7678571 L77.7,24.7678571 L77.7,23.2035714 C77.7,22.1607143 77.31,21.1178571 76.53,20.4660714 L75.1,19.0321429 L75.1,17.9464286 C75.1,17.3941438 74.6522847,16.9464286 74.1,16.9464286 L73.5,16.9464286 C72.9477153,16.9464286 72.5,17.3941438 72.5,17.9464286 L72.5,19.0321429 L71.07,20.4660714 C70.29,21.2482143 69.9,22.1607143 69.9,23.2035714 L69.9,24.7678571 L69.6,24.7678571 C69.0477153,24.7678571 68.6,25.2155724 68.6,25.7678571 L68.6,26.375 C68.6,26.9272847 69.0477153,27.375 69.6,27.375 L69.9,27.375 L69.9,31.2857143 L69.6,31.2857143 C69.0477153,31.2857143 68.6,31.7334295 68.6,32.2857143 L68.6,37.0214286 L69.9,38.325 L69.9,40.4107143 L64.7,40.4107143 L64.7,37.0214286 L65.35,36.3696429 C67.95,33.7625 67.82,29.5910714 65.35,26.9839286 C64.96,26.5928571 64.57,26.3321429 64.18,26.0714286 L60.8,23.9857143 L60.8,20.5535714 C60.8,20.0012867 60.3522847,19.5535714 59.8,19.5535714 L59.2,19.5535714 C58.6477153,19.5535714 58.2,20.0012867 58.2,20.5535714 L58.2,23.9857143 L54.82,26.0714286 C52.87,27.2446429 51.7,29.4607143 51.7,31.8071429 C51.7,33.5017857 52.35,35.1964286 53.65,36.3696429 L54.3,37.0214286 L54.3,40.4107143 L50.4,40.4107143 L50.4,28.6785714 L49.1,28.6785714 L49.1,27.7660714 L50.92,25.2892857 C52.22,23.4642857 53,21.2482143 53,19.0321429 L53,18.3803571 C53,14.6 50.92,11.0803571 47.67,9.25535714 L41.3,5.73571429 L41.3,1 C41.3,0.44771525 40.8522847,-1.01453063e-16 40.3,0 L39.7,0 C39.1477153,1.01453063e-16 38.7,0.44771525 38.7,1 L38.7,5.73571429 L32.33,9.25535714 C29.08,11.0803571 27,14.6 27,18.3803571 L27,19.0321429 C27,21.2482143 27.78,23.4642857 29.08,25.2892857 L30.9,27.7660714 L30.9,28.6785714 L29.6,28.6785714 L29.6,40.4107143 L25.7,40.4107143 L25.7,37.0214286 L26.35,36.3696429 C28.95,33.7625 28.82,29.5910714 26.35,26.9839286 C25.96,26.5928571 25.57,26.3321429 25.18,26.0714286 L21.8,23.9857143 L21.8,20.5535714 C21.8,20.0012867 21.3522847,19.5535714 20.8,19.5535714 L20.2,19.5535714 C19.6477153,19.5535714 19.2,20.0012867 19.2,20.5535714 L19.2,23.9857143 L15.82,26.0714286 C13.87,27.2446429 12.7,29.4607143 12.7,31.8071429 C12.7,33.5017857 13.35,35.1964286 14.65,36.3696429 L15.3,37.0214286 L15.3,40.4107143 L10.1,40.4107143 L10.1,38.325 L11.4,37.0214286 L11.4,32.2857143 C11.4,31.7334295 10.9522847,31.2857143 10.4,31.2857143 L10.1,31.2857143 L10.1,27.375 L10.4,27.375 C10.9522847,27.375 11.4,26.9272847 11.4,26.375 L11.4,25.7678571 C11.4,25.2155724 10.9522847,24.7678571 10.4,24.7678571 L10.1,24.7678571 L10.1,23.2035714 C10.1,22.1607143 9.71,21.1178571 8.93,20.4660714 L7.5,19.0321429 L7.5,17.9464286 C7.5,17.3941438 7.05228475,16.9464286 6.5,16.9464286 L5.9,16.9464286 C5.34771525,16.9464286 4.9,17.3941438 4.9,17.9464286 L4.9,19.0321429 L3.47,20.4660714 C2.69,21.2482143 2.3,22.1607143 2.3,23.2035714 L2.3,24.7678571 L2,24.7678571 C1.44771525,24.7678571 1,25.2155724 1,25.7678571 L1,26.375 C1,26.9272847 1.44771525,27.375 2,27.375 L2.3,27.375 L2.3,31.2857143 L2,31.2857143 C1.44771525,31.2857143 1,31.7334295 1,32.2857143 L1,37.0214286 L2.3,38.325 L2.3,70.3928571 L1,70.3928571 C0.44771525,70.3928571 3.72358583e-14,70.8405724 3.73034936e-14,71.3928571 L0,72 C6.76353751e-17,72.5522847 0.44771525,73 1,73 L79,73 C79.5522847,73 80,72.5522847 80,72 L80,71.3928571 C80,70.8405724 79.5522847,70.3928571 79,70.3928571 L77.7,70.3928571 L77.7,38.325 L79,37.0214286 L79,32.2857143 C79,31.7334295 78.5522847,31.2857143 78,31.2857143 L77.7,31.2857143 L77.7,27.375 L78,27.375 C78.5522847,27.375 79,26.9272847 79,26.375 Z M72.5,23.2035714 C72.5,22.8125 72.63,22.5517857 72.89,22.2910714 L73.8,21.3785714 L74.71,22.2910714 C74.97,22.5517857 75.1,22.8125 75.1,23.2035714 L75.1,24.7678571 L72.5,24.7678571 L72.5,23.2035714 Z M76.4,33.8928571 L76.4,35.9785714 L75.88,36.5 L71.72,36.5 L71.2,35.9785714 L71.2,33.8928571 L76.4,33.8928571 Z M63.53,34.5446429 L62.88,35.1964286 L56.12,35.1964286 L55.47,34.5446429 C54.69,33.7625 54.3,32.7196429 54.3,31.6767857 C54.3,31.5464286 54.3,31.4160714 54.3,31.2857143 L64.7,31.2857143 C64.7,31.4160714 64.7,31.5464286 64.7,31.6767857 C64.7,32.7196429 64.31,33.7625 63.53,34.5446429 Z M59.5,26.3321429 L62.75,28.2875 C62.88,28.4178571 63.14,28.5482143 63.27,28.6785714 L55.6,28.6785714 C55.73,28.5482143 55.86,28.4178571 56.12,28.2875 L59.5,26.3321429 Z M56.9,37.8035714 L62.1,37.8035714 L62.1,40.4107143 L56.9,40.4107143 L56.9,37.8035714 Z M67,70.3928571 L62.4,70.3928571 L62.4,59.7035714 C62.4,59.3125 62.63,59.0517857 63.09,58.7910714 L64.7,57.8785714 L66.31,58.7910714 C66.77,59.0517857 67,59.3125 67,59.7035714 L67,70.3928571 Z M57.9,70.3928571 L53.3,70.3928571 L53.3,59.7035714 C53.3,59.3125 53.53,59.0517857 53.99,58.7910714 L55.6,57.8785714 L57.21,58.7910714 C57.67,59.0517857 57.9,59.3125 57.9,59.7035714 L57.9,70.3928571 Z M42.6,70.3928571 L37.4,70.3928571 L37.4,44.0607143 C37.4,43.6696429 37.53,43.4089286 37.79,43.1482143 L40,40.9321429 L42.21,43.1482143 C42.47,43.4089286 42.6,43.6696429 42.6,44.0607143 L42.6,70.3928571 Z M47.8,31.2857143 L47.8,35.5892857 L32.2,35.5892857 L32.2,31.2857143 L47.8,31.2857143 Z M44.29,10.4285714 L35.58,10.4285714 L39.87,7.95178571 L44.29,10.4285714 Z M31.16,23.8553571 C30.12,22.5517857 29.6,20.8571429 29.6,19.1625 L29.6,18.5107143 C29.6,16.5553571 30.38,14.6 31.81,13.1660714 L48.32,13.1660714 C49.75,14.6 50.4,16.5553571 50.53,18.5107143 L50.53,19.1625 C50.53,20.8571429 50.01,22.5517857 48.97,23.8553571 L46.5,26.9839286 L46.5,28.6785714 L33.5,28.6785714 L33.5,26.9839286 L31.16,23.8553571 Z M24.53,34.5446429 L23.88,35.1964286 L17.12,35.1964286 L16.47,34.5446429 C15.69,33.7625 15.3,32.7196429 15.3,31.6767857 C15.3,31.5464286 15.3,31.4160714 15.3,31.2857143 L25.7,31.2857143 C25.7,31.4160714 25.7,31.5464286 25.7,31.6767857 C25.7,32.7196429 25.31,33.7625 24.53,34.5446429 Z M20.5,26.3321429 L23.75,28.2875 C23.88,28.4178571 24.14,28.5482143 24.27,28.6785714 L16.6,28.6785714 C16.73,28.5482143 16.86,28.4178571 17.12,28.2875 L20.5,26.3321429 Z M17.9,37.8035714 L23.1,37.8035714 L23.1,40.4107143 L17.9,40.4107143 L17.9,37.8035714 Z M26.7,70.3928571 L22.1,70.3928571 L22.1,59.7035714 C22.1,59.3125 22.33,59.0517857 22.79,58.7910714 L24.4,57.8785714 L26.01,58.7910714 C26.47,59.0517857 26.7,59.3125 26.7,59.7035714 L26.7,70.3928571 Z M17.6,70.3928571 L13,70.3928571 L13,59.7035714 C13,59.3125 13.23,59.0517857 13.69,58.7910714 L15.3,57.8785714 L16.91,58.7910714 C17.37,59.0517857 17.6,59.3125 17.6,59.7035714 L17.6,70.3928571 Z M4.12,36.5 L3.6,35.9785714 L3.6,33.8928571 L8.8,33.8928571 L8.8,35.9785714 L8.28,36.5 L4.12,36.5 Z M4.9,23.2035714 C4.9,22.8125 5.03,22.5517857 5.29,22.2910714 L6.2,21.3785714 L7.11,22.2910714 C7.37,22.5517857 7.5,22.9428571 7.5,23.2035714 L7.5,24.7678571 L4.9,24.7678571 L4.9,23.2035714 Z M4.9,27.375 L7.5,27.375 L7.5,31.2857143 L4.9,31.2857143 L4.9,27.375 Z M75.1,31.2857143 L72.5,31.2857143 L72.5,27.375 L75.1,27.375 L75.1,31.2857143 Z" id="Shape" fill="#516066"></path>
                    <path d="M69.9,43.0178571 L69.9,70.3928571 L68.6,70.3928571 L68.6,59.7035714 C68.6,58.6607143 68.21,57.6178571 67.43,56.9660714 L64.7,54.2285714 L61.97,56.9660714 C61.19,57.7482143 60.8,58.6607143 60.8,59.7035714 L60.8,70.3928571 L59.5,70.3928571 L59.5,59.7035714 C59.5,58.6607143 59.11,57.6178571 58.33,56.9660714 L55.6,54.2285714 L52.87,56.9660714 C52.09,57.7482143 51.7,58.6607143 51.7,59.7035714 L51.7,70.3928571 L50.4,70.3928571 L50.4,43.0178571 L69.9,43.0178571 Z" id="Path" fill="#838F93"></path>
                    <path d="M44.03,41.3232143 L40,37.2821429 L35.97,41.3232143 C35.19,42.1053571 34.8,43.0178571 34.8,44.0607143 L34.8,70.3928571 L32.2,70.3928571 L32.2,35.1964286 L47.8,35.1964286 L47.8,70.3928571 L45.2,70.3928571 L45.2,44.0607143 C45.2,43.0178571 44.81,42.1053571 44.03,41.3232143 Z" id="Path" fill="#838F93"></path>
                    <path d="M29.6,43.0178571 L29.6,70.3928571 L28.3,70.3928571 L28.3,59.7035714 C28.3,58.6607143 27.91,57.6178571 27.13,56.9660714 L24.4,54.2285714 L21.67,56.9660714 C20.89,57.7482143 20.5,58.6607143 20.5,59.7035714 L20.5,70.3928571 L19.2,70.3928571 L19.2,59.7035714 C19.2,58.6607143 18.81,57.6178571 18.03,56.9660714 L15.3,54.2285714 L12.57,56.9660714 C11.79,57.7482143 11.4,58.6607143 11.4,59.7035714 L11.4,70.3928571 L10.1,70.3928571 L10.1,43.0178571 L29.6,43.0178571 Z" id="Path" fill="#838F93"></path>
                    <polygon id="Path" fill="#838F93" points="4.9 39.1071429 7.5 39.1071429 7.5 70.3928571 4.9 70.3928571"></polygon>
                    <polygon id="Path" fill="#838F93" points="72.5 70.3928571 72.5 39.1071429 75.1 39.1071429 75.1 70.3928571"></polygon>
                </g>
            </g>
        </g>
    </g>
</svg>