<?xml version="1.0" encoding="UTF-8"?>
<svg width="128px" height="128px" viewBox="0 0 128 128" version="1.1" xmlns="http://www.w3.org/2000/svg" xmlns:xlink="http://www.w3.org/1999/xlink">
    <!-- Generator: Sketch 53 (72520) - https://sketchapp.com -->
    <title>img-race-great-britain</title>
    <desc>Created with Sketch.</desc>
    <g id="Symbols" stroke="none" stroke-width="1" fill="none" fill-rule="evenodd">
        <g id="image-/-race-/-great-britain">
            <g>
                <circle id="Oval-Copy-16" stroke-opacity="0.32" stroke="#F0F8FF" stroke-width="2" fill-opacity="0.04" fill="#F0F8FF" cx="64" cy="64" r="63"></circle>
                <g id="Group-17" transform="translate(41.000000, 10.000000)">
                    <polygon id="Fill-1" fill="#838F93" points="7.90303406 100.636616 38.7166563 100.636616 38.7166563 70.1492512 7.90303406 70.1492512"></polygon>
                    <polygon id="Fill-2" fill="#838F93" points="4.80557276 70.1492512 41.8141176 70.1492512 41.8141176 43.6714692 4.80557276 43.6714692"></polygon>
                    <path d="M32.3913313,56.9103602 C32.3913313,61.9305972 28.3263158,66.0004455 23.3098452,66.0004455 C18.2949845,66.0004455 14.2283591,61.9305972 14.2283591,56.9103602 C14.2283591,51.8901232 18.2949845,47.820436 23.3098452,47.820436 C28.3263158,47.820436 32.3913313,51.8901232 32.3913313,56.9103602" id="Fill-3" fill="#838F93"></path>
                    <polygon id="Fill-7" fill="#838F93" points="7.90303406 43.6714692 38.7166563 43.6714692 38.7166563 35.0791374 7.90303406 35.0791374"></polygon>
                    <polygon id="Fill-8" fill="#838F93" points="10.6833437 35.0791374 35.9379567 35.0791374 35.9379567 28.3406919 10.6833437 28.3406919"></polygon>
                    <polygon id="Fill-9" fill="#838F93" points="14.6340557 28.3406919 31.9856347 28.3406919 31.9856347 20.2087299 14.6340557 20.2087299"></polygon>
                    <polyline id="Fill-10" fill="#838F93" points="23.3098452 1.33357346 14.6340557 20.2087299 31.9856347 20.2087299 23.3098452 1.33357346"></polyline>
                    <path d="M28.1862539,21.4256398 C28.1862539,23.4438863 26.5521981,25.0799147 24.5349845,25.0799147 C22.6513932,25.0799147 21.1026625,26.5075924 20.9062539,28.3406919 L31.9856347,28.3406919 L31.9856347,20.2087299 L28.1862539,20.2087299 L28.1862539,21.4256398" id="Fill-12" fill="#838F93"></path>
                    <path d="M17.2453251,16.4007299 C19.8678638,16.4007299 21.9929412,14.2730711 21.9929412,11.6484645 C21.9929412,10.1684171 21.3167802,8.84692891 20.2574613,7.97549763 L16.4194427,16.3241896 C16.6882972,16.3714028 16.9635913,16.4007299 17.2453251,16.4007299" id="Fill-19" fill="#838F93"></path>
                    <path d="M38.7166563,101.879953 C38.0308359,101.879953 37.475418,101.323223 37.475418,100.636616 L37.475418,90.804654 C37.475418,90.1180474 38.0308359,89.5614787 38.7166563,89.5614787 C39.4024768,89.5614787 39.9595046,90.1180474 39.9595046,90.804654 L39.9595046,100.636616 C39.9595046,101.323223 39.4024768,101.879953 38.7166563,101.879953" id="Fill-25" fill="#516066"></path>
                    <path d="M7.90303406,101.879953 C7.21721362,101.879953 6.66018576,101.323223 6.66018576,100.636616 L6.66018576,85.3928531 C6.66018576,84.7064076 7.21721362,84.1496777 7.90303406,84.1496777 C8.58885449,84.1496777 9.14588235,84.7064076 9.14588235,85.3928531 L9.14588235,100.636616 C9.14588235,101.323223 8.58885449,101.879953 7.90303406,101.879953" id="Fill-26" fill="#516066"></path>
                    <path d="M7.90303406,86.6363507 C7.21721362,86.6363507 6.66018576,86.0796209 6.66018576,85.3928531 L6.66018576,74.910218 C6.66018576,74.2236114 7.21721362,73.6668815 7.90303406,73.6668815 C8.58885449,73.6668815 9.14588235,74.2236114 9.14588235,74.910218 L9.14588235,85.3928531 C9.14588235,86.0796209 8.58885449,86.6363507 7.90303406,86.6363507" id="Fill-27" fill="#516066"></path>
                    <path d="M38.7166563,86.6363507 L7.90303406,86.6363507 C7.21721362,86.6363507 6.66018576,86.0796209 6.66018576,85.3928531 C6.66018576,84.7064076 7.21721362,84.1496777 7.90303406,84.1496777 L38.7166563,84.1496777 C39.4024768,84.1496777 39.9595046,84.7064076 39.9595046,85.3928531 C39.9595046,86.0796209 39.4024768,86.6363507 38.7166563,86.6363507" id="Fill-28" fill="#373835"></path>
                    <path d="M37.475418,85.3928531 L37.475418,70.910218 C37.475418,70.2236114 38.0308359,69.6668815 38.7166563,69.6668815 C39.4024768,69.6668815 39.9595046,70.2236114 39.9595046,70.910218 L39.9595046,85.3928531 C39.9595046,86.0796209 39.4024768,86.6363507 38.7166563,86.6363507 C38.0308359,86.6363507 37.475418,86.0796209 37.475418,85.3928531 Z" id="Fill-29" fill="#516066"></path>
                    <path d="M41.8141176,71.3925877 L4.80557276,71.3925877 C4.11975232,71.3925877 3.56272446,70.8358578 3.56272446,70.1492512 L3.56272446,56.9103602 C3.56272446,56.2235924 4.11975232,55.6670237 4.80557276,55.6670237 C5.49139319,55.6670237 6.04681115,56.2235924 6.04681115,56.9103602 L6.04681115,68.9059147 L40.5728793,68.9059147 L40.5728793,44.9148057 L6.04681115,44.9148057 L6.04681115,52.0074313 C6.04681115,52.6940379 5.49139319,53.2507678 4.80557276,53.2507678 C4.11975232,53.2507678 3.56272446,52.6940379 3.56272446,52.0074313 L3.56272446,43.6714692 C3.56272446,42.9848626 4.11975232,42.4281327 4.80557276,42.4281327 L41.8141176,42.4281327 C42.501548,42.4281327 43.0569659,42.9848626 43.0569659,43.6714692 L43.0569659,70.1492512 C43.0569659,70.8358578 42.501548,71.3925877 41.8141176,71.3925877" id="Fill-30" fill="#516066"></path>
                    <path d="M23.3098452,67.243782 C17.6172136,67.243782 12.9855108,62.6081801 12.9855108,56.9103602 C12.9855108,55.4053365 13.3026625,53.9539716 13.9256966,52.596872 C14.2122601,51.9732701 14.9495975,51.6996588 15.5742415,51.9869668 C16.1972755,52.2739526 16.4693498,53.0122844 16.1827864,53.6360474 C15.7110836,54.6650711 15.4712074,55.7666066 15.4712074,56.9103602 C15.4712074,61.2370616 18.9872446,64.757109 23.3098452,64.757109 C27.6324458,64.757109 31.1500929,61.2370616 31.1500929,56.9103602 C31.1500929,52.5838199 27.6324458,49.0636114 23.3098452,49.0636114 C22.1362229,49.0636114 21.0092879,49.316436 19.9580186,49.8148341 C19.3365944,50.1087488 18.5976471,49.8438389 18.3030341,49.2236209 C18.010031,48.6030806 18.2740557,47.8616872 18.89387,47.5676114 C20.28,46.9103318 21.7659443,46.5770995 23.3098452,46.5770995 C29.0024768,46.5770995 33.6341796,51.2123791 33.6341796,56.9103602 C33.6341796,62.6081801 29.0024768,67.243782 23.3098452,67.243782" id="Fill-31" fill="#516066"></path>
                    <path d="M9.74798762,66.1084076 C9.06216718,66.1084076 8.50674923,65.5518389 8.50674923,64.8650711 L8.50674923,43.6714692 C8.50674923,42.9848626 9.06216718,42.4281327 9.74798762,42.4281327 C10.433808,42.4281327 10.9908359,42.9848626 10.9908359,43.6714692 L10.9908359,64.8650711 C10.9908359,65.5518389 10.433808,66.1084076 9.74798762,66.1084076" id="Fill-32" fill="#516066"></path>
                    <path d="M36.8717028,66.1084076 C36.1858824,66.1084076 35.6288545,65.5518389 35.6288545,64.8650711 L35.6288545,43.6714692 C35.6288545,42.9848626 36.1858824,42.4281327 36.8717028,42.4281327 C37.5575232,42.4281327 38.1129412,42.9848626 38.1129412,43.6714692 L38.1129412,64.8650711 C38.1129412,65.5518389 37.5575232,66.1084076 36.8717028,66.1084076" id="Fill-33" fill="#516066"></path>
                    <path d="M37.475418,39.0645498 L37.475418,36.3224739 L9.14588235,36.3224739 L9.14588235,43.0645498 C9.14588235,43.7509953 8.58885449,44.3077251 7.90303406,44.3077251 C7.21721362,44.3077251 6.66018576,43.7509953 6.66018576,43.0645498 L6.66018576,35.0791374 C6.66018576,34.3923697 7.21721362,33.8358009 7.90303406,33.8358009 L38.7166563,33.8358009 C39.4024768,33.8358009 39.9595046,34.3923697 39.9595046,35.0791374 L39.9595046,39.0645498 C39.9595046,39.7509953 39.4024768,40.3077251 38.7166563,40.3077251 C38.0308359,40.3077251 37.475418,39.7509953 37.475418,39.0645498 Z" id="Fill-34" fill="#516066"></path>
                    <path d="M34.6951084,33.7774123 L34.6951084,29.5840284 L11.924582,29.5840284 L11.924582,30.7774123 C11.924582,31.464019 11.3691641,32.0207488 10.6817337,32.0207488 C9.99591331,32.0207488 9.44049536,31.464019 9.44049536,30.7774123 L9.44049536,28.3406919 C9.44049536,27.6540853 9.99591331,27.0973555 10.6817337,27.0973555 L35.9379567,27.0973555 C36.6237771,27.0973555 37.179195,27.6540853 37.179195,28.3406919 L37.179195,33.7774123 C37.179195,34.464019 36.6237771,35.0207488 35.9379567,35.0207488 C35.2505263,35.0207488 34.6951084,34.464019 34.6951084,33.7774123 Z" id="Fill-35" fill="#516066"></path>
                    <path d="M15.876904,27.0973555 L30.7427864,27.0973555 L30.7427864,21.4520664 L15.876904,21.4520664 L15.876904,27.0973555 Z M31.9856347,29.5840284 L14.6340557,29.5840284 C13.9482353,29.5840284 13.3928173,29.0272986 13.3928173,28.3406919 L13.3928173,20.2087299 C13.3928173,19.5221232 13.9482353,18.9653934 14.6340557,18.9653934 L31.9856347,18.9653934 C32.6714551,18.9653934 33.2268731,19.5221232 33.2268731,20.2087299 L33.2268731,28.3406919 C33.2268731,29.0272986 32.6714551,29.5840284 31.9856347,29.5840284 L31.9856347,29.5840284 Z" id="Fill-36" fill="#516066"></path>
                    <path d="M14.1156656,21.3381422 C13.4926316,21.0513175 13.2189474,20.3129858 13.5071207,19.6892227 L19.7760664,5.95732676 C20.0626298,5.33356373 20.7999673,5.05963008 21.4246113,5.34742155 C22.0476453,5.63424619 22.3197196,6.37273909 22.0331562,6.99650212 L15.7626006,20.728237 C15.5533127,21.1837725 15.1041486,21.4523886 14.6340557,21.4523886 C14.4601858,21.4523886 14.283096,21.4158104 14.1156656,21.3381422 Z" id="Fill-37" fill="#516066"></path>
                    <path d="M31.9856347,21.4523886 C31.5155418,21.4523886 31.0663777,21.1837725 30.8570898,20.7283981 L23.3098452,4.30849289 L22.0508978,7.04799052 C21.7643344,7.67143128 21.0286068,7.94520379 20.4023529,7.6577346 C19.7793189,7.37074882 19.5072446,6.63241706 19.793808,6.00865403 L22.1813003,0.813905213 C22.3841486,0.372872038 22.8252632,0.0902369668 23.3098452,0.0902369668 C23.7944272,0.0902369668 24.2355418,0.372872038 24.4383901,0.813905213 L33.1141796,19.6890616 C33.400743,20.3129858 33.1270588,21.0513175 32.5040248,21.3381422 C32.3365944,21.4156493 32.1595046,21.4523886 31.9856347,21.4523886" id="Fill-39" fill="#516066"></path>
                    <path d="M23.3098452,101.879953 C22.6240248,101.879953 22.0669969,101.323223 22.0669969,100.636616 L22.0669969,90.804654 C22.0669969,90.1180474 22.6240248,89.5614787 23.3098452,89.5614787 C23.9956656,89.5614787 24.5526935,90.1180474 24.5526935,90.804654 L24.5526935,100.636616 C24.5526935,101.323223 23.9956656,101.879953 23.3098452,101.879953" id="Fill-40" fill="#516066"></path>
                    <path d="M15.6402477,101.879953 C14.9544272,101.879953 14.3990093,101.323223 14.3990093,100.636616 L14.3990093,90.804654 C14.3990093,90.1180474 14.9544272,89.5614787 15.6402477,89.5614787 C16.3260681,89.5614787 16.883096,90.1180474 16.883096,90.804654 L16.883096,100.636616 C16.883096,101.323223 16.3260681,101.879953 15.6402477,101.879953" id="Fill-41" fill="#516066"></path>
                    <path d="M30.9794427,101.879953 C30.2936223,101.879953 29.7382043,101.323223 29.7382043,100.636616 L29.7382043,90.804654 C29.7382043,90.1180474 30.2936223,89.5614787 30.9794427,89.5614787 C31.6652632,89.5614787 32.222291,90.1180474 32.222291,90.804654 L32.222291,100.636616 C32.222291,101.323223 31.6652632,101.879953 30.9794427,101.879953" id="Fill-42" fill="#516066"></path>
                    <path d="M23.3098452,86.6363507 C22.6240248,86.6363507 22.0669969,86.0796209 22.0669969,85.3928531 L22.0669969,75.5610521 C22.0669969,74.8744455 22.6240248,74.3177156 23.3098452,74.3177156 C23.9956656,74.3177156 24.5526935,74.8744455 24.5526935,75.5610521 L24.5526935,85.3928531 C24.5526935,86.0796209 23.9956656,86.6363507 23.3098452,86.6363507" id="Fill-43" fill="#516066"></path>
                    <path d="M15.6402477,86.6363507 C14.9544272,86.6363507 14.3990093,86.0796209 14.3990093,85.3928531 L14.3990093,75.5610521 C14.3990093,74.8744455 14.9544272,74.3177156 15.6402477,74.3177156 C16.3260681,74.3177156 16.883096,74.8744455 16.883096,75.5610521 L16.883096,85.3928531 C16.883096,86.0796209 16.3260681,86.6363507 15.6402477,86.6363507" id="Fill-44" fill="#516066"></path>
                    <path d="M30.9794427,86.6363507 C30.2936223,86.6363507 29.7382043,86.0796209 29.7382043,85.3928531 L29.7382043,75.5610521 C29.7382043,74.8744455 30.2936223,74.3177156 30.9794427,74.3177156 C31.6652632,74.3177156 32.222291,74.8744455 32.222291,75.5610521 L32.222291,85.3928531 C32.222291,86.0796209 31.6652632,86.6363507 30.9794427,86.6363507" id="Fill-45" fill="#516066"></path>
                    <path d="M23.3098452,44.9148057 C22.6240248,44.9148057 22.0669969,44.3580758 22.0669969,43.6714692 L22.0669969,39.5026825 C22.0669969,38.8160758 22.6240248,38.259346 23.3098452,38.259346 C23.9956656,38.259346 24.5526935,38.8160758 24.5526935,39.5026825 L24.5526935,43.6714692 C24.5526935,44.3580758 23.9956656,44.9148057 23.3098452,44.9148057" id="Fill-46" fill="#516066"></path>
                    <path d="M15.6402477,44.9148057 C14.9544272,44.9148057 14.3990093,44.3580758 14.3990093,43.6714692 L14.3990093,39.5026825 C14.3990093,38.8160758 14.9544272,38.259346 15.6402477,38.259346 C16.3260681,38.259346 16.883096,38.8160758 16.883096,39.5026825 L16.883096,43.6714692 C16.883096,44.3580758 16.3260681,44.9148057 15.6402477,44.9148057" id="Fill-47" fill="#516066"></path>
                    <path d="M30.9794427,44.9148057 C30.2936223,44.9148057 29.7382043,44.3580758 29.7382043,43.6714692 L29.7382043,39.5026825 C29.7382043,38.8160758 30.2936223,38.259346 30.9794427,38.259346 C31.6652632,38.259346 32.222291,38.8160758 32.222291,39.5026825 L32.222291,43.6714692 C32.222291,44.3580758 31.6652632,44.9148057 30.9794427,44.9148057" id="Fill-48" fill="#516066"></path>
                    <path d="M41.8141176,86.6363507 L4.80557276,86.6363507 C4.11975232,86.6363507 3.56272446,86.0796209 3.56272446,85.3928531 C3.56272446,84.7064076 4.11975232,84.1496777 4.80557276,84.1496777 L41.8141176,84.1496777 C42.501548,84.1496777 43.0569659,84.7064076 43.0569659,85.3928531 C43.0569659,86.0796209 42.501548,86.6363507 41.8141176,86.6363507" id="Fill-49" fill="#516066"></path>
                    <path d="M25.6989474,58.1535355 L23.3098452,58.1535355 C22.6240248,58.1535355 22.0669969,57.5969668 22.0669969,56.9103602 L22.0669969,53.1170237 C22.0669969,52.4304171 22.6240248,51.8736872 23.3098452,51.8736872 C23.9956656,51.8736872 24.5526935,52.4304171 24.5526935,53.1170237 L24.5526935,55.6670237 L25.6989474,55.6670237 C26.3847678,55.6670237 26.9417957,56.2235924 26.9417957,56.9103602 C26.9417957,57.5969668 26.3847678,58.1535355 25.6989474,58.1535355" id="Fill-50" fill="#516066"></path>
                    <path d="M43.6832198,101.879953 L1.27343653,101.879953 C0.5876161,101.879953 0.0321981429,101.323223 0.0321981429,100.636616 C0.0321981429,99.9500095 0.5876161,99.3932796 1.27343653,99.3932796 L43.6832198,99.3932796 C44.3690402,99.3932796 44.9260681,99.9500095 44.9260681,100.636616 C44.9260681,101.323223 44.3690402,101.879953 43.6832198,101.879953" id="Fill-51" fill="#516066"></path>
                </g>
            </g>
        </g>
    </g>
</svg>