<?xml version="1.0" encoding="UTF-8"?>
<svg width="128px" height="128px" viewBox="0 0 128 128" version="1.1" xmlns="http://www.w3.org/2000/svg" xmlns:xlink="http://www.w3.org/1999/xlink">
    <!-- Generator: Sketch 53 (72520) - https://sketchapp.com -->
    <title>img-race-china</title>
    <desc>Created with Sketch.</desc>
    <g id="Symbols" stroke="none" stroke-width="1" fill="none" fill-rule="evenodd">
        <g id="image-/-race-/-china">
            <g>
                <circle id="Oval-Copy-10" stroke-opacity="0.32" stroke="#F0F8FF" stroke-width="2" fill-opacity="0.04" fill="#F0F8FF" cx="64" cy="64" r="63"></circle>
                <g id="Group-27" transform="translate(23.000000, 37.000000)">
                    <path d="M15.0269091,18.0662979 L9.87490909,18.0662979 L9.87490909,14.2973617 C9.87490909,12.8809362 11.0283636,11.7350638 12.4509091,11.7350638 C13.8734545,11.7350638 15.0269091,12.8809362 15.0269091,14.2973617 L15.0269091,18.0662979 Z M19.2174545,1.1892766 L19.2174545,5.372 L14.7069091,5.372 L14.7069091,1.1892766 L10.1949091,1.1892766 L10.1949091,5.372 L5.68436364,5.372 L5.68436364,1.1892766 L1.17381818,1.1892766 L1.17381818,27.4474043 L23.7294545,27.4474043 L23.7294545,1.1892766 L19.2174545,1.1892766 L19.2174545,1.1892766 Z" id="Fill-659" fill="#838F93"></path>
                    <path d="M19.2174545,5.372 L19.0865455,5.372 L19.0865455,15.9134468 C19.0865455,18.7491915 16.7752727,21.0467234 13.9258182,21.0467234 L10.832,21.0467234 C7.98109091,21.0467234 5.67127273,23.3457021 5.67127273,26.1814468 L5.67127273,27.4474043 L23.7294545,27.4474043 L23.7294545,1.1892766 L19.2174545,1.1892766 L19.2174545,5.372" id="Fill-660" fill="#838F93"></path>
                    <path d="M36.656,19.1977021 L49.5801176,19.1977021 C50.8236625,22.0001707 52.1727417,24.1496033 53.6273551,25.646 C55.0819686,27.1423967 57.5234399,28.8923967 60.9517691,30.896 C66.8302972,31.1238646 70.6261314,30.566198 72.3392715,29.223 C74.0524117,27.879802 75.2299878,24.5380361 75.872,19.1977021 L75.872,40.6726809 L36.656,39.2244255 L36.656,19.1977021 Z" id="Fill-661" fill="#838F93"></path>
                    <path d="M36.656,19.1977021 C36.656,19.1977021 43.4123636,35.5885957 64.5992727,36.6650213 L72.3927273,31.7979574 C72.3927273,31.7979574 56.6545455,32.7485106 48.7607273,19.1977021 L36.656,19.1977021" id="Fill-662" fill="#838F93"></path>
                    <path d="M44.7258182,3.5707234 L44.7258182,6.58731915 L40.6909091,6.58731915 L40.6909091,3.5707234 L36.656,3.5707234 L36.656,19.5015319 L40.7767273,19.5015319 L40.7767273,14.4188936 C40.7767273,13.3366809 41.6407273,12.4599149 42.7083636,12.4599149 C43.7745455,12.4599149 44.64,13.3366809 44.64,14.4188936 L44.64,19.5015319 L48.7607273,19.5015319 L48.7607273,3.5707234 L44.7258182,3.5707234" id="Fill-663" fill="#838F93"></path>
                    <path d="M86.7738182,24.9805957 L74.6690909,24.9805957 C74.6690909,24.9805957 69.4676364,44.8756596 37.92,32.6573617 L37.92,40.6582128 L57.9970909,50.2577872 L77.6261818,45.9245957 L84.7810909,35.8577021 L86.7738182,24.9805957" id="Fill-664" fill="#838F93"></path>
                    <path d="M77.6261818,45.9245957 L79.2974545,43.5735319 C78.1672727,42.1267234 76.1541818,41.1588085 72.8014545,41.1255319 C65.248,41.0517447 63.1374545,38.2883404 62.784,35.7795745 C57.2683636,37.2929362 49.3134545,37.0701277 37.92,32.6573617 L37.92,40.6582128 L57.9970909,50.2577872 L77.6261818,45.9245957" id="Fill-665" fill="#838F93"></path>
                    <path d="M74.6690909,24.9805957 C74.6690909,24.9805957 74.2210909,26.6834894 72.8014545,28.7871489 C76.5978182,29.0591489 83.8632727,30.7114043 75.872,39.9174468 C73.0327273,43.187234 73.5389091,45.1737021 75.7745455,46.3340426 L77.6261818,45.9245957 L84.7810909,35.8577021 L86.7738182,24.9805957 L74.6690909,24.9805957" id="Fill-666" fill="#838F93"></path>
                    <path d="M82.7389091,9.35217021 L82.7389091,12.3108936 L78.704,12.3108936 L78.704,9.35217021 L74.6690909,9.35217021 L74.6690909,24.9805957 L78.7898182,24.9805957 L78.7898182,19.9934468 C78.7898182,18.9329362 79.6538182,18.0720851 80.7214545,18.0720851 C81.7876364,18.0720851 82.6530909,18.9329362 82.6530909,19.9934468 L82.6530909,24.9805957 L86.7738182,24.9805957 L86.7738182,9.35217021 L82.7389091,9.35217021" id="Fill-667" fill="#838F93"></path>
                    <polyline id="Fill-668" fill="#838F93" points="82.7389091 12.3108936 82.6530909 12.3108936 82.6530909 24.9805957 86.7738182 24.9805957 86.7738182 9.35217021 82.7389091 9.35217021 82.7389091 12.3108936"></polyline>
                    <path d="M1.17381818,24.9805957 L16.8727273,24.9805957 C20.0087273,24.9805957 23.1127273,25.6070638 25.9970909,26.8339574 C30.2472727,28.6439149 37.0589091,31.8674043 45.1912727,36.8907234 C50.6981818,40.293617 57.0050909,42.2424681 63.488,42.3408511 C72.5832727,42.4768511 83.5549091,39.4284255 86.7738182,24.9805957 L86.7738182,39.8653617 C86.7738182,42.3625532 86.1425455,44.819234 84.9265455,47.0024681 C81.1549091,53.7764255 70.9367273,66.8685957 48.2996364,66.8685957 L30.7781818,66.8685957 C14.4276364,66.8685957 1.17381818,53.6852766 1.17381818,37.4217021 L1.17381818,24.9805957" id="Fill-669" fill="#838F93"></path>
                    <path d="M76.0625455,20.1988936 C76.5643636,20.1988936 76.9716364,19.7937872 76.9716364,19.2946383 L76.9716364,15.2971064 C76.9716364,14.7979574 77.3789091,14.3928511 77.8807273,14.3928511 C78.3825455,14.3928511 78.7898182,13.9877447 78.7898182,13.4885957 L78.7898182,12.3108936 L78.704,12.3108936 L78.704,9.35217021 L74.6690909,9.35217021 L74.6690909,20.1988936 L76.0625455,20.1988936" id="Fill-670" fill="#838F93"></path>
                    <path d="M3.26690909,20.5114043 C4.22690909,20.5114043 5.00654545,19.7373617 5.00654545,18.7824681 L5.00654545,11.1389787 C5.00654545,10.1826383 5.78472727,9.40859574 6.74472727,9.40859574 C7.70618182,9.40859574 8.48436364,8.63455319 8.48436364,7.67965957 L8.48436364,5.372 L5.68436364,5.372 L5.68436364,1.1892766 L1.17381818,1.1892766 L1.17381818,20.5114043 L3.26690909,20.5114043" id="Fill-671" fill="#838F93"></path>
                    <path d="M75.872,39.9174468 L75.872,46.2110638 C75.872,50.085617 73.9069091,53.7098723 70.6269091,55.797617 C66.7607273,58.2571915 60.5483636,61.0148085 51.3061818,62.0044255 C48.2967273,62.325617 45.8210909,64.2542128 44.6690909,66.8685957 L48.2996364,66.8685957 C70.9367273,66.8685957 81.1549091,53.7764255 84.9265455,47.0024681 C86.1425455,44.819234 86.7738182,42.3625532 86.7738182,39.8653617 L86.7738182,24.9805957 C84.9847273,33.0118298 80.7985455,37.5200851 75.872,39.9174468" id="Fill-672" fill="#838F93"></path>
                    <path d="M16.0581818,56.6874043 C7.74981818,49.4851915 6.83636364,39.8089362 7.14909091,34.1634894 C7.29309091,31.5679149 9.44581818,29.5337021 12.0610909,29.5337021 C14.6618182,29.5337021 16.7854545,27.5240851 16.9614545,24.9820426 C16.9309091,24.9820426 16.9018182,24.9805957 16.8727273,24.9805957 L1.17381818,24.9805957 L1.17381818,37.4217021 C1.17381818,49.3057872 8.25018182,59.5434043 18.4407273,64.1963404 C19.1083636,61.4763404 18.2254545,58.5653617 16.0581818,56.6874043" id="Fill-673" fill="#838F93"></path>
                    <polyline id="Fill-674" fill="#838F93" points="48.7607273 3.5707234 44.7258182 3.5707234 44.7258182 6.58731915 44.6690909 6.58731915 44.6690909 19.5015319 48.7607273 19.5015319 48.7607273 3.5707234"></polyline>
                    <path d="M40.6909091,6.58731915 L40.6909091,3.5707234 L36.656,3.5707234 L36.656,11.5368511 L38.1789091,11.5368511 C38.8945455,11.5368511 39.4749091,10.9595745 39.4749091,10.2477447 L39.4749091,10.1305532 C39.4749091,9.4187234 40.0552727,8.84144681 40.7709091,8.84144681 C41.4850909,8.84144681 42.0654545,8.26417021 42.0654545,7.55378723 L42.0654545,6.58731915 L40.6909091,6.58731915" id="Fill-675" fill="#838F93"></path>
                    <path d="M43.5694545,19.1977021 L36.656,19.1977021 C36.656,19.1977021 38.4130909,23.4571064 42.9410909,27.774383 L43.0734545,27.7628085 C44.4712727,27.6412766 45.2247273,26.081617 44.4552727,24.9140426 C42.7694545,22.3531915 43.1505455,20.271234 43.5694545,19.1977021" id="Fill-676" fill="#838F93"></path>
                    <path d="M55.7876364,41.344 C52.0596364,40.4325106 48.4814545,38.9234894 45.1912727,36.8907234 C38.3330909,32.6544681 32.4218182,29.7015319 28.1861818,27.7946383 C27.5752727,30.6434043 28.9556364,33.6194894 31.664,34.9606809 C33.9214545,36.077617 36.4887273,37.6025532 38.6210909,39.5311489 C40.8872727,41.5812766 44.3170909,43.2957447 47.4152727,44.5631489 C50.6865455,45.9028936 54.336,44.3866383 55.7876364,41.344" id="Fill-677" fill="#838F93"></path>
                    <path d="M48.7607273,20.3146383 C48.1410909,20.3146383 47.6378182,19.8154894 47.6378182,19.1977021 L47.6378182,4.68621277 L45.8487273,4.68621277 L45.8487273,6.52944681 C45.8487273,7.14578723 45.3454545,7.64638298 44.7258182,7.64638298 L40.6909091,7.64638298 C40.0712727,7.64638298 39.568,7.14578723 39.568,6.52944681 L39.568,4.68621277 L37.7774545,4.68621277 L37.7774545,18.0822128 L44.3781818,18.0822128 C44.9992727,18.0822128 45.5010909,18.5813617 45.5010909,19.1977021 C45.5010909,19.8154894 44.9992727,20.3146383 44.3781818,20.3146383 L36.656,20.3146383 C36.0363636,20.3146383 35.5330909,19.8154894 35.5330909,19.1977021 L35.5330909,3.5692766 C35.5330909,2.95293617 36.0363636,2.45378723 36.656,2.45378723 L40.6909091,2.45378723 C41.3105455,2.45378723 41.8123636,2.95293617 41.8123636,3.5692766 L41.8123636,5.41251064 L43.6029091,5.41251064 L43.6029091,3.5692766 C43.6029091,2.95293617 44.1061818,2.45378723 44.7258182,2.45378723 L48.7607273,2.45378723 C49.3803636,2.45378723 49.8836364,2.95293617 49.8836364,3.5692766 L49.8836364,19.1977021 C49.8836364,19.8154894 49.3803636,20.3146383 48.7607273,20.3146383" id="Fill-678" fill="#516066"></path>
                    <path d="M40.7767273,20.3146383 C40.1570909,20.3146383 39.6538182,19.8154894 39.6538182,19.1977021 L39.6538182,14.212 C39.6538182,12.5365957 41.024,11.1737021 42.7083636,11.1737021 C44.3927273,11.1737021 45.7614545,12.5365957 45.7614545,14.212 L45.7614545,15.4142979 C45.7614545,16.0306383 45.2596364,16.531234 44.64,16.531234 C44.0203636,16.531234 43.5170909,16.0306383 43.5170909,15.4142979 L43.5170909,14.212 C43.5170909,13.7678298 43.1549091,13.4061277 42.7083636,13.4061277 C42.2618182,13.4061277 41.8996364,13.7678298 41.8996364,14.212 L41.8996364,19.1977021 C41.8996364,19.8154894 41.3963636,20.3146383 40.7767273,20.3146383" id="Fill-679" fill="#516066"></path>
                    <path d="M36.656,28.0058723 C36.0363636,28.0058723 35.5330909,27.5052766 35.5330909,26.8889362 L35.5330909,19.1977021 C35.5330909,18.5813617 36.0363636,18.0822128 36.656,18.0822128 C37.2756364,18.0822128 37.7774545,18.5813617 37.7774545,19.1977021 L37.7774545,26.8889362 C37.7774545,27.5052766 37.2756364,28.0058723 36.656,28.0058723" id="Fill-681" fill="#516066"></path>
                    <path d="M48.0669091,32.8541277 C47.8647273,32.8541277 47.6596364,32.8005957 47.4749091,32.6862979 C38.8887273,27.3779574 35.7469091,19.9355745 35.6174545,19.621617 C35.3818182,19.0515745 35.6567273,18.3990638 36.2298182,18.1646809 C36.8043636,17.9317447 37.4574545,18.2037447 37.6930909,18.7723404 C37.7221818,18.843234 40.7170909,25.8790638 48.6603636,30.7895319 C49.1869091,31.1150638 49.3483636,31.8037447 49.0210909,32.3274894 C48.8087273,32.6674894 48.4421818,32.8541277 48.0669091,32.8541277" id="Fill-682" fill="#516066"></path>
                    <path d="M62.0887273,31.2264681 C61.9636364,31.2264681 61.8356364,31.204766 61.712,31.1613617 C55.6261818,29.005617 50.9425455,25.1686809 47.7890909,19.757617 C47.4792727,19.2237447 47.6610909,18.5408511 48.1978182,18.2326809 C48.7345455,17.9230638 49.4210909,18.1053617 49.7323636,18.6377872 C52.6094545,23.5786383 56.8945455,27.0842553 62.464,29.0577021 C63.0487273,29.2645957 63.3541818,29.9026383 63.1461818,30.4842553 C62.9818182,30.9414468 62.5498182,31.2264681 62.0887273,31.2264681" id="Fill-683" fill="#516066"></path>
                    <path d="M23.7294545,21.7513191 C23.1098182,21.7513191 22.6065455,21.2507234 22.6065455,20.634383 L22.6065455,2.30476596 L20.3403636,2.30476596 L20.3403636,5.372 C20.3403636,5.98978723 19.8370909,6.48893617 19.2174545,6.48893617 L14.7069091,6.48893617 C14.0872727,6.48893617 13.584,5.98978723 13.584,5.372 L13.584,2.30476596 L11.3178182,2.30476596 L11.3178182,5.372 C11.3178182,5.98978723 10.816,6.48893617 10.1949091,6.48893617 L5.68436364,6.48893617 C5.06472727,6.48893617 4.56145455,5.98978723 4.56145455,5.372 L4.56145455,2.30476596 L2.29527273,2.30476596 L2.29527273,9.24221277 C2.29527273,9.85855319 1.79345455,10.3591489 1.17381818,10.3591489 C0.554181818,10.3591489 0.0509090909,9.85855319 0.0509090909,9.24221277 L0.0509090909,1.1892766 C0.0509090909,0.57293617 0.554181818,0.0723404255 1.17381818,0.0723404255 L5.68436364,0.0723404255 C6.304,0.0723404255 6.80727273,0.57293617 6.80727273,1.1892766 L6.80727273,4.25651064 L9.07345455,4.25651064 L9.07345455,1.1892766 C9.07345455,0.57293617 9.57527273,0.0723404255 10.1949091,0.0723404255 L14.7069091,0.0723404255 C15.3265455,0.0723404255 15.8283636,0.57293617 15.8283636,1.1892766 L15.8283636,4.25651064 L18.096,4.25651064 L18.096,1.1892766 C18.096,0.57293617 18.5978182,0.0723404255 19.2174545,0.0723404255 L23.7294545,0.0723404255 C24.3490909,0.0723404255 24.8523636,0.57293617 24.8523636,1.1892766 L24.8523636,20.634383 C24.8523636,21.2507234 24.3490909,21.7513191 23.7294545,21.7513191" id="Fill-684" fill="#516066"></path>
                    <path d="M1.17381818,25.7705532 C0.554181818,25.7705532 0.0509090909,25.2699574 0.0509090909,24.653617 L0.0509090909,14.317617 C0.0509090909,13.7012766 0.554181818,13.2021277 1.17381818,13.2021277 C1.79345455,13.2021277 2.29527273,13.7012766 2.29527273,14.317617 L2.29527273,24.653617 C2.29527273,25.2699574 1.79345455,25.7705532 1.17381818,25.7705532" id="Fill-685" fill="#516066"></path>
                    <path d="M10.9978182,16.9493617 L13.9054545,16.9493617 L13.9054545,14.2973617 C13.9054545,13.4987234 13.2523636,12.8505532 12.4509091,12.8505532 C11.6494545,12.8505532 10.9978182,13.4987234 10.9978182,14.2973617 L10.9978182,16.9493617 Z M15.0269091,19.1817872 L9.87490909,19.1817872 C9.25527273,19.1817872 8.75345455,18.6826383 8.75345455,18.0662979 L8.75345455,14.2973617 C8.75345455,12.2689362 10.4116364,10.6181277 12.4509091,10.6181277 C14.4901818,10.6181277 16.1498182,12.2689362 16.1498182,14.2973617 L16.1498182,18.0662979 C16.1498182,18.6826383 15.6465455,19.1817872 15.0269091,19.1817872 L15.0269091,19.1817872 Z" id="Fill-686" fill="#516066"></path>
                    <path d="M56.08,37.7414468 C50.6850909,37.7414468 44.4538182,36.3857872 37.5141818,33.697617 C36.9367273,33.4748085 36.6501818,32.8266383 36.8741818,32.2522553 C37.0996364,31.6778723 37.7498182,31.3942979 38.3272727,31.6171064 C46.0058182,34.5902979 52.7243636,35.8692766 58.304,35.4222128 C58.9163636,35.3715745 59.4632727,35.8302128 59.5127273,36.4451064 C59.5621818,37.06 59.1025455,37.5982128 58.4843636,37.6474043 C57.7032727,37.709617 56.9003636,37.7414468 56.08,37.7414468" id="Fill-687" fill="#516066"></path>
                    <path d="M62.7796364,36.8979574 C62.2865455,36.8979574 61.8341818,36.5738723 61.6974545,36.077617 C61.5330909,35.4829787 61.8836364,34.8695319 62.4814545,34.7060426 C62.5614545,34.6843404 62.64,34.6626383 62.7170909,34.6394894 C63.312,34.4658723 63.936,34.8058723 64.1090909,35.397617 C64.2836364,35.9893617 63.9418182,36.6100426 63.3469091,36.7822128 C63.2567273,36.8082553 63.168,36.8328511 63.0763636,36.8574468 C62.9774545,36.8849362 62.8770909,36.8979574 62.7796364,36.8979574" id="Fill-688" fill="#373835"></path>
                    <path d="M66.9876364,35.2051915 C66.5934545,35.2051915 66.2109091,34.9982979 66.0043636,34.6308085 C65.7032727,34.0911489 65.8996364,33.4125957 66.4407273,33.1131064 C72.1527273,29.9547234 73.568,24.752 73.5825455,24.6999149 C73.7381818,24.102383 74.3505455,23.7450213 74.9512727,23.8998298 C75.5505455,24.0546383 75.9112727,24.6637447 75.7541818,25.2612766 C75.6887273,25.5115745 74.0727273,31.446383 67.5316364,35.0634043 C67.3585455,35.1588936 67.1709091,35.2051915 66.9876364,35.2051915" id="Fill-689" fill="#516066"></path>
                    <path d="M75.7905455,23.8636596 L85.6509091,23.8636596 L85.6509091,10.4691064 L83.8603636,10.4691064 L83.8603636,12.3108936 C83.8603636,12.927234 83.3585455,13.4278298 82.7389091,13.4278298 L78.704,13.4278298 C78.0843636,13.4278298 77.5810909,12.927234 77.5810909,12.3108936 L77.5810909,10.4691064 L75.7905455,10.4691064 L75.7905455,23.8636596 Z M86.7738182,26.0960851 L74.6690909,26.0960851 C74.0494545,26.0960851 73.5461818,25.5969362 73.5461818,24.9805957 L73.5461818,9.35217021 C73.5461818,8.73582979 74.0494545,8.23523404 74.6690909,8.23523404 L78.704,8.23523404 C79.3236364,8.23523404 79.8254545,8.73582979 79.8254545,9.35217021 L79.8254545,11.1954043 L81.616,11.1954043 L81.616,9.35217021 C81.616,8.73582979 82.1192727,8.23523404 82.7389091,8.23523404 L86.7738182,8.23523404 C87.3934545,8.23523404 87.8967273,8.73582979 87.8967273,9.35217021 L87.8967273,24.9805957 C87.8967273,25.5969362 87.3934545,26.0960851 86.7738182,26.0960851 L86.7738182,26.0960851 Z" id="Fill-690" fill="#516066"></path>
                    <path d="M82.6530909,26.0960851 C82.0334545,26.0960851 81.5301818,25.5969362 81.5301818,24.9805957 L81.5301818,19.9934468 C81.5301818,19.5492766 81.168,19.1890213 80.7214545,19.1890213 C80.2749091,19.1890213 79.9112727,19.5492766 79.9112727,19.9934468 L79.9112727,24.9805957 C79.9112727,25.5969362 79.4094545,26.0960851 78.7898182,26.0960851 C78.1701818,26.0960851 77.6669091,25.5969362 77.6669091,24.9805957 L77.6669091,19.9934468 C77.6669091,18.3180426 79.0370909,16.9551489 80.7214545,16.9551489 C82.4058182,16.9551489 83.7745455,18.3180426 83.7745455,19.9934468 L83.7745455,24.9805957 C83.7745455,25.5969362 83.2727273,26.0960851 82.6530909,26.0960851" id="Fill-691" fill="#516066"></path>
                    <path d="M2.29527273,26.0960851 L2.29527273,37.4217021 C2.29527273,53.0428936 15.072,65.7531064 30.7781818,65.7531064 L48.2996364,65.7531064 C69.968,65.7531064 79.9330909,53.6664681 83.9447273,46.4628085 C85.0618182,44.4560851 85.6509091,42.1759149 85.6509091,39.8653617 L85.6509091,31.6402553 C80.784,41.4351489 71.2552727,43.5691915 63.4705455,43.4563404 C56.9134545,43.3579574 50.3883636,41.4163404 44.5992727,37.838383 C36.544,32.8628085 29.7978182,29.6653617 25.5549091,27.8597447 C22.8058182,26.6892766 19.8850909,26.0960851 16.8727273,26.0960851 L2.29527273,26.0960851 Z M48.2996364,67.9855319 L30.7781818,67.9855319 C13.8341818,67.9855319 0.0509090909,54.2741277 0.0509090909,37.4217021 L0.0509090909,24.9805957 C0.0509090909,24.3642553 0.552727273,23.8636596 1.17236364,23.8636596 L16.8727273,23.8636596 C20.1905455,23.8636596 23.4094545,24.517617 26.4378182,25.8067234 C30.752,27.6441702 37.6087273,30.8922553 45.7832727,35.9430638 C51.2261818,39.3054468 57.3541818,41.1313191 63.504,41.2239149 C75.7410909,41.4018723 83.2,35.8620426 85.6785455,24.7389787 C85.8021818,24.1819574 86.3243636,23.8101277 86.896,23.8708936 C87.4647273,23.9331064 87.8967273,24.4105532 87.8967273,24.9805957 L87.8967273,39.8653617 C87.8967273,42.5520851 87.2087273,45.2084255 85.9083636,47.5435745 C83.9447273,51.0694468 80.3432727,56.160766 74.336,60.3883404 C67.1694545,65.4290213 58.4101818,67.9855319 48.2996364,67.9855319 L48.2996364,67.9855319 Z" id="Fill-692" fill="#516066"></path>
                    <path d="M23.7294545,36.2845106 L8.25163636,36.2845106 C7.632,36.2845106 7.12872727,35.7839149 7.12872727,35.1675745 C7.12872727,34.551234 7.632,34.0520851 8.25163636,34.0520851 L23.7294545,34.0520851 C24.3490909,34.0520851 24.8523636,34.551234 24.8523636,35.1675745 C24.8523636,35.7839149 24.3490909,36.2845106 23.7294545,36.2845106" id="Fill-693" fill="#516066"></path>
                    <path d="M19.0865455,39.500766 C18.4669091,39.500766 17.9636364,39.001617 17.9636364,38.3852766 L17.9636364,35.1675745 C17.9636364,34.551234 18.4669091,34.0520851 19.0865455,34.0520851 C19.7061818,34.0520851 20.2094545,34.551234 20.2094545,35.1675745 L20.2094545,38.3852766 C20.2094545,39.001617 19.7061818,39.500766 19.0865455,39.500766" id="Fill-694" fill="#516066"></path>
                    <path d="M29.0312727,43.8440851 L11.9709091,43.8440851 C11.3512727,43.8440851 10.8494545,43.3449362 10.8494545,42.7271489 C10.8494545,42.1108085 11.3512727,41.6116596 11.9709091,41.6116596 L29.0312727,41.6116596 C29.6509091,41.6116596 30.1541818,42.1108085 30.1541818,42.7271489 C30.1541818,43.3449362 29.6509091,43.8440851 29.0312727,43.8440851" id="Fill-695" fill="#516066"></path>
                    <path d="M37.9968369,54.4940426 L17.3906644,54.4940426 C16.4036811,54.4940426 15.6043636,53.9934468 15.6043636,53.3771064 C15.6043636,52.760766 16.4036811,52.2601702 17.3906644,52.2601702 L37.9968369,52.2601702 C38.9838202,52.2601702 39.7854545,52.760766 39.7854545,53.3771064 C39.7854545,53.9934468 38.9838202,54.4940426 37.9968369,54.4940426" id="Fill-696" fill="#516066"></path>
                    <path d="M21.1738182,54.4940426 C20.5541818,54.4940426 20.0509091,53.9934468 20.0509091,53.3771064 L20.0509091,49.3564255 C20.0509091,48.7386383 20.5541818,48.2394894 21.1738182,48.2394894 C21.7934545,48.2394894 22.2952727,48.7386383 22.2952727,49.3564255 L22.2952727,53.3771064 C22.2952727,53.9934468 21.7934545,54.4940426 21.1738182,54.4940426" id="Fill-697" fill="#516066"></path>
                    <path d="M35.2581818,43.8440851 C34.6370909,43.8440851 34.1352727,43.3449362 34.1352727,42.7271489 C34.1352727,42.1108085 34.6370909,41.6116596 35.2581818,41.6116596 L43.2174545,41.6116596 C43.8370909,41.6116596 44.3389091,42.1108085 44.3389091,42.7271489 C44.3389091,43.3449362 43.8370909,43.8440851 43.2174545,43.8440851 L35.2581818,43.8440851 Z" id="Fill-698" fill="#516066"></path>
                    <path d="M39.1738182,48.4940426 C38.5541818,48.4940426 38.0509091,47.9934468 38.0509091,47.3771064 L38.0509091,43.3564255 C38.0509091,42.7386383 38.5541818,42.2394894 39.1738182,42.2394894 C39.7934545,42.2394894 40.2952727,42.7386383 40.2952727,43.3564255 L40.2952727,47.3771064 C40.2952727,47.9934468 39.7934545,48.4940426 39.1738182,48.4940426" id="Fill-697" fill="#516066"></path>
                    <path d="M37.1229091,58.8359149 C36.5032727,58.8359149 36,58.3353191 36,57.7189787 L36,53.3756596 C36,52.7593191 36.5032727,52.2601702 37.1229091,52.2601702 C37.7425455,52.2601702 38.2443636,52.7593191 38.2443636,53.3756596 L38.2443636,57.7189787 C38.2443636,58.3353191 37.7425455,58.8359149 37.1229091,58.8359149" id="Fill-699" fill="#516066"></path>
                    <path d="M67.0734545,52.0460426 C66.5556364,52.0460426 66.0887273,51.6857872 65.9767273,51.1620426 C65.8487273,50.5587234 66.2356364,49.9655319 66.8421818,49.836766 C67.1345455,49.776 67.4196364,49.708 67.6901818,49.6385532 C68.2909091,49.4822979 68.9032727,49.8382128 69.0603636,50.4342979 C69.2189091,51.030383 68.8596364,51.6409362 68.2603636,51.7971915 C67.9549091,51.876766 67.6349091,51.952 67.3076364,52.0214468 C67.2290909,52.0388085 67.1505455,52.0460426 67.0734545,52.0460426" id="Fill-700" fill="#516066"></path>
                    <path d="M60.6516364,52.6088511 C60.6501818,52.6088511 60.6472727,52.6088511 60.6443636,52.6088511 C54.9585455,52.5741277 49.8676364,51.4673191 49.6538182,51.4195745 C49.0487273,51.2864681 48.6676364,50.6918298 48.8014545,50.0899574 C48.9352727,49.4866383 49.5330909,49.1075745 50.1396364,49.2406809 C50.1890909,49.2508085 55.2203636,50.3431489 60.6589091,50.3764255 C61.2785455,50.3793191 61.7774545,50.8828085 61.7745455,51.4991489 C61.7701818,52.1140426 61.2683636,52.6088511 60.6516364,52.6088511" id="Fill-701" fill="#516066"></path>
                    <path d="M49.3949091,60.1163404 C46.4683636,60.1163404 43.9898182,60.0628085 43.9476364,60.0613617 C43.328,60.0483404 42.8378182,59.537617 42.8509091,58.9212766 C42.8654545,58.3049362 43.3890909,57.8188085 43.9985455,57.830383 C44.0669091,57.830383 50.8189091,57.9794043 55.1374545,57.7826383 C55.7483636,57.7522553 56.2807273,58.2311489 56.3098182,58.8474894 C56.3374545,59.4638298 55.8589091,59.9861277 55.2392727,60.013617 C53.4836364,60.0931915 51.3410909,60.1163404 49.3949091,60.1163404" id="Fill-702" fill="#516066"></path>
                    <path d="M53.4574545,55.0235745 C53.4298182,55.0235745 53.4021818,55.0221277 53.3745455,55.0206809 C52.7563636,54.974383 52.2909091,54.4390638 52.3374545,53.8241702 L52.5556364,50.8871489 C52.6021818,50.2722553 53.1389091,49.8179574 53.7585455,49.8570213 C54.3767273,49.9018723 54.8407273,50.4371915 54.7941818,51.0520851 L54.576,53.9891064 C54.5323636,54.5765106 54.0392727,55.0235745 53.4574545,55.0235745" id="Fill-703" fill="#516066"></path>
                    <path d="M77.6261818,67.9768511 L49.2407273,67.9768511 C48.6210909,67.9768511 48.1192727,67.4777021 48.1192727,66.8613617 C48.1192727,66.2450213 48.6210909,65.7444255 49.2407273,65.7444255 L77.6261818,65.7444255 C78.2458182,65.7444255 78.7490909,66.2450213 78.7490909,66.8613617 C78.7490909,67.4777021 78.2458182,67.9768511 77.6261818,67.9768511" id="Fill-704" fill="#516066"></path>
                    <path d="M37.6261818,67.9768511 L9.24072727,67.9768511 C8.62109091,67.9768511 8.11927273,67.4777021 8.11927273,66.8613617 C8.11927273,66.2450213 8.62109091,65.7444255 9.24072727,65.7444255 L37.6261818,65.7444255 C38.2458182,65.7444255 38.7490909,66.2450213 38.7490909,66.8613617 C38.7490909,67.4777021 38.2458182,67.9768511 37.6261818,67.9768511" id="Fill-704-Copy" fill="#516066"></path>
                </g>
            </g>
        </g>
    </g>
</svg>