<?xml version="1.0" encoding="UTF-8"?>
<svg width="128px" height="128px" viewBox="0 0 128 128" version="1.1" xmlns="http://www.w3.org/2000/svg" xmlns:xlink="http://www.w3.org/1999/xlink">
    <!-- Generator: Sketch 53 (72520) - https://sketchapp.com -->
    <title>img-race-spain</title>
    <desc>Created with Sketch.</desc>
    <g id="Symbols" stroke="none" stroke-width="1" fill="none" fill-rule="evenodd">
        <g id="image-/-race-/-spain">
            <g>
                <circle id="img-race-" stroke-opacity="0.32" stroke="#F0F8FF" stroke-width="2" fill-opacity="0.04" fill="#F0F8FF" cx="64" cy="64" r="63"></circle>
                <g id="img" transform="translate(29.000000, 11.000000)">
                    <path d="M11.952606,16.13 L13.586352,19.4464 L12.8926895,25.232 L16.1007045,36.0470349 L17.3969342,33.272 L18.7463828,21.999 L22.7054979,8.36207389 L21.3883275,4.242 L22.7054979,1.148 L25.4886498,4.242 L23.8251989,8.2675541 L29.715578,50.8592 L35.5,48.523 L40.9968895,51.343 C41.2896192,41.2136067 41.8093917,33.0852734 42.5562069,26.958 C43.0534251,22.8785546 46.3885726,15.952548 47.2013199,9.159 C47.4567278,7.02411074 44.4810239,5.80116866 44.930763,3.526 C45.1098791,2.61987633 45.8667314,1.59071587 47.2013199,0.438518625 L49.4665919,4.242 L47.2013199,8.374 L54.1724138,35.8802802 L57.4540785,27.3108703 C57.5837079,25.8156791 57.5837079,24.5490557 57.4540785,23.511 C57.3244491,22.4729443 56.9721345,20.9182777 56.3971347,18.847 L58.1253605,17 L60.3453988,19.168 C59.4324996,20.6477036 58.9058248,21.9183702 58.7653743,22.98 C58.6249239,24.0416298 58.7779038,25.5956298 59.2243141,27.642 L63.1192194,42.148 L64,98 L7,98 L7,42.897867 L11.5343938,24.875 L10.3795798,19.876 L11.952606,16.13 Z" id="Rectangle" fill="#838F93"></path>
                    <rect id="Rectangle" fill="#516066" x="32" y="90" width="7" height="9" rx="3.5"></rect>
                    <path d="M12.3621182,65 C11.0602065,65 10,66.1953637 10,67.6620067 L10,70.8839144 C10,71.4995576 10.4427598,72 10.9898923,72 L14.0112063,72 C14.5572402,72 15,71.4995576 15,70.8839144 L15,67.6620067 C15,66.1953637 13.9397935,65 12.6389804,65 L12.3621182,65 Z" id="Path" fill="#516066"></path>
                    <path d="M21.9898923,67 L25.0112063,67 C25.5572402,67 26,66.500708 26,65.8849558 L26,62.6624779 C26,61.1955752 24.9397935,60 23.6378818,60 L23.3621182,60 C22.0602065,60 21,61.1955752 21,62.6624779 L21,65.8849558 C21,66.500708 21.4427598,67 21.9898923,67 L21.9898923,67 Z" id="Path" fill="#516066"></path>
                    <path d="M45.9887937,67 L49.0101077,67 C49.5561415,67 50,66.500708 50,65.8849558 L50,62.6624779 C50,61.1955752 48.9397935,60 47.6367831,60 L47.3610196,60 C46.0602065,60 45,61.1955752 45,62.6624779 L45,65.8849558 C45,66.500708 45.4427598,67 45.9887937,67 L45.9887937,67 Z" id="Path" fill="#516066"></path>
                    <path d="M56.9898923,74 L60.0112063,74 C60.5572402,74 61,73.4995576 61,72.8839144 L61,69.6644842 C61,68.1953637 59.9397935,67 58.6389804,67 L58.3621182,67 C57.0602065,67 56,68.1953637 56,69.6644842 L56,72.8839144 C56,73.4995576 56.4438585,74 56.9898923,74 L56.9898923,74 Z" id="Path" fill="#516066"></path>
                    <path d="M54.9403461,96.6381041 C54.9418615,95.3421889 54.9433768,93.1482807 54.9464076,90.3933174 L63.1611859,96.7494003 L63.1611859,97.0588954 L54.9403461,96.6381041 Z M40.4095382,96.6259072 L40.4095382,94.037126 C40.4095382,92.2396154 39.7442942,90.5213843 38.6320184,89.4419632 C37.7334086,88.5714131 36.6074945,88.1247035 35.3027677,88.1826385 C31.8825952,88.3076562 30.3232875,91.3400978 30.3232875,94.1026841 L30.3232875,96.6259072 L20.8143899,96.6259072 C23.676909,92.5262414 30.4020864,83.1270446 35.601294,75.8943132 L50.3245529,96.6259072 L40.4095382,96.6259072 Z M37.6803709,96.6259072 L33.0524548,96.6259072 L33.0524548,94.1026841 C33.0524548,93.5858426 33.1645916,91.0062091 35.4027816,90.9238803 C35.9134586,90.897962 36.3756441,91.0656687 36.739331,91.4178527 C37.3121379,91.9728093 37.6803709,93.0019185 37.6803709,94.037126 L37.6803709,96.6259072 Z M8.09747047,97.0588954 L8.09747047,96.7433019 L16.3122488,90.387219 C16.3152796,93.1452315 16.3183103,95.3406643 16.3198257,96.6381041 L8.09747047,97.0588954 Z M12.2025866,18.8069614 C12.7253866,18.8069614 13.149688,19.2338511 13.149688,19.7598402 C13.149688,20.2858294 12.7253866,20.7142437 12.2025866,20.7142437 C11.6797867,20.7142437 11.2539699,20.2858294 11.2539699,19.7598402 C11.2539699,19.2338511 11.6797867,18.8069614 12.2025866,18.8069614 Z M23.3147375,2.85653213 C23.8375374,2.85653213 24.2618388,3.28342184 24.2618388,3.81093556 C24.2618388,4.33540007 23.8375374,4.76381439 23.3147375,4.76381439 C22.7919375,4.76381439 22.3661207,4.33540007 22.3661207,3.81093556 C22.3661207,3.28342184 22.7919375,2.85653213 23.3147375,2.85653213 Z M23.2071468,13.6659896 C24.1633403,16.2440985 25.4407906,20.2797309 26.3409157,25.3017835 L20.3203818,25.3017835 C21.1720153,20.3803549 22.3418749,16.2989843 23.2071468,13.6659896 Z M19.1959831,56.4845526 C19.1944677,48.6313064 19.1974984,41.1332935 19.2111367,37.5032063 C19.2232596,34.1856634 19.4914787,31.0007612 19.8960804,28.0475991 L26.7803708,28.0475991 C27.1880032,30.9855151 27.4456148,34.1963356 27.4334919,37.6084041 C27.421369,41.3924765 27.4243997,46.3428726 27.4365226,51.4777461 L19.1959831,56.4845526 Z M35.6300859,49.7061537 L41.0914512,53.0236967 C41.0747822,59.4346654 41.0475057,65.9721765 41.0247752,70.7823088 L36.9848197,60.9943375 C36.7756997,60.485119 36.2847223,60.1527549 35.739192,60.1466565 L35.7255537,60.1466565 C35.183054,60.1466565 34.6920767,60.469873 34.4768953,60.9699438 L30.2353965,70.7289476 C30.2126661,65.9249137 30.1853896,59.4117963 30.1687206,53.0236967 L35.6300859,49.7061537 Z M43.8266799,37.6084041 C43.814557,34.1978602 44.0721686,30.9885643 44.4813164,28.0475991 L51.3656067,28.0475991 C51.7702084,30.9992366 52.0369122,34.1841388 52.0490351,37.5032063 C52.0626733,41.1332935 52.0657041,48.6313064 52.0641887,56.4860772 L43.8236492,51.4777461 C43.8357721,46.3428726 43.8388028,41.3924765 43.8266799,37.6084041 Z M47.9454343,2.85653213 C48.4682343,2.85653213 48.8925357,3.28342184 48.8925357,3.81093556 C48.8925357,4.33540007 48.4682343,4.76381439 47.9454343,4.76381439 C47.4226344,4.76381439 46.9968176,4.33540007 46.9968176,3.81093556 C46.9968176,3.28342184 47.4226344,2.85653213 47.9454343,2.85653213 Z M48.0545404,13.6675142 C48.9213275,16.2989843 50.0911871,20.3773057 50.9413053,25.3017835 L44.9207714,25.3017835 C45.8224119,20.2843047 47.0998622,16.2471477 48.0545404,13.6675142 Z M59.0560698,18.8069614 C59.5803851,18.8069614 60.0046865,19.2338511 60.0046865,19.7598402 C60.0046865,20.2858294 59.5803851,20.7142437 59.0560698,20.7142437 C58.5347852,20.7142437 58.1089684,20.2858294 58.1089684,19.7598402 C58.1089684,19.2338511 58.5347852,18.8069614 59.0560698,18.8069614 Z M54.952469,83.7094441 L63.1687627,87.4035648 C63.1672474,89.6127191 63.165732,91.6114777 63.1642167,93.2885444 L54.9494383,86.9324615 C54.9509537,85.9003032 54.952469,84.8239312 54.952469,83.7094441 Z M44.9965395,79.231676 L52.0490351,82.4028567 L52.0490351,82.5507435 C52.0490351,82.7855328 52.1232878,82.9944039 52.2248171,83.1880289 C52.2248171,83.7429855 52.2248171,84.2872699 52.2248171,84.8239312 L44.9965395,79.231676 Z M19.0338393,83.1910781 C19.1383993,82.9974531 19.2111367,82.7855328 19.2111367,82.5507435 L19.2111367,82.4120043 L26.2212021,79.2591189 L19.0353547,84.8178328 C19.0353547,84.2842207 19.0353547,83.7414609 19.0338393,83.1910781 Z M8.09140903,87.4127124 L16.3077028,83.7185918 C16.3077028,84.8269804 16.3092181,85.8987785 16.3092181,86.9263631 L8.09443975,93.282446 C8.09443975,91.6084285 8.09292439,89.6157683 8.09140903,87.4127124 Z M8.08534758,66.4417552 L16.3061874,61.4471455 C16.3001259,67.3915848 16.3016413,74.4184944 16.304672,80.7135931 L8.08989366,84.4092384 C8.08534758,78.7468512 8.08383222,72.2154386 8.08534758,66.4417552 Z M27.530475,75.6640976 L19.208106,79.4085303 C19.2050752,75.2539786 19.1990138,67.537947 19.1959831,59.6907993 L27.4440994,54.6794189 C27.4683452,63.1592782 27.50926,71.5857762 27.530475,75.6640976 Z M36.2892684,72.3099642 C36.1013635,72.2245862 35.9073972,72.1940941 35.7149462,72.1956187 L35.6134169,72.171225 L35.6088708,72.171225 C35.3876279,72.171225 35.1739619,72.2261108 34.9830262,72.3252102 L34.9254425,72.3389317 L31.9250254,73.6897327 L35.6922157,65.0192977 L39.2533169,73.6439945 L36.2892684,72.3099642 Z M52.0520658,79.3993826 L43.7281814,75.6564746 C43.7493964,71.575104 43.7903112,63.1531798 43.814557,54.6794189 L52.0641887,59.6907993 C52.0626733,67.5333732 52.0566119,75.2433063 52.0520658,79.3993826 Z M54.9539844,61.4471455 L63.1763396,66.4417552 C63.1763396,72.2123894 63.1748242,78.7407528 63.1702781,84.4000907 L54.9554997,80.7044455 C54.9585305,74.4108714 54.9600458,67.3885356 54.9539844,61.4471455 Z M63.1596706,53.4536356 C63.1687627,55.600281 63.1717935,59.1083997 63.1748242,63.2355085 L54.9494383,58.2378496 C54.9464076,56.5196185 54.9433768,54.938602 54.9388308,53.5573088 C54.9267079,50.0598624 55.1994731,46.7743362 55.6268052,43.7739113 L62.445935,43.7739113 C62.8672057,46.7880576 63.149063,50.0491901 63.1596706,53.4536356 Z M59.1666912,29.6148942 C60.0198401,32.2082492 61.17,36.2011927 62.0155721,41.0280957 L56.0723217,41.0280957 C56.9709314,36.1127655 58.2256513,32.1579372 59.1666912,29.6148942 Z M12.0965113,29.6148942 C13.0375512,32.154888 14.2922711,36.1081917 15.1908808,41.0280957 L9.24611501,41.0280957 C10.0932025,36.2042419 11.2433624,32.2082492 12.0965113,29.6148942 Z M8.81575215,43.7739113 L15.6348819,43.7739113 C16.0606987,46.7728116 16.3334639,50.0568132 16.321341,53.5573088 C16.3167949,54.938602 16.3137642,56.5196185 16.3107335,58.2378496 L8.08534758,63.2355085 C8.0883783,59.1068751 8.09140903,55.600281 8.09898584,53.4536356 C8.11110873,50.0507147 8.3929661,46.7895822 8.81575215,43.7739113 Z M19.0383854,88.2786887 L28.7230651,80.7867742 C25.0543732,85.9064016 21.2902136,91.1830634 19.0459622,94.3954085 C19.0429315,92.7762768 19.0414161,90.6860418 19.0383854,88.2786887 Z M52.2142096,94.567689 L42.3052563,80.6129691 L52.2217864,88.2847871 C52.2187556,90.7744689 52.2157249,92.9272128 52.2142096,94.567689 Z M65.89793,86.3683572 C65.9055068,75.1228625 65.9100529,59.2837294 65.8888379,53.444488 C65.876715,49.9622876 65.5948576,46.6477939 65.1766176,43.5787617 C65.5918269,43.3439724 65.8827764,42.9140335 65.8827764,42.4002412 C65.8827764,41.743136 65.4130141,41.2186714 64.7977771,41.0845061 C63.5491187,33.6398544 61.5791478,28.0628452 60.8154053,26.0793326 C61.4048812,25.926872 61.8488823,25.4130797 61.8488823,24.7742698 C61.8488823,24.0165405 61.2381913,23.4005997 60.4850563,23.4005997 L60.4214111,23.4005997 L60.4214111,23.1886794 C61.7731142,22.6413458 62.7338538,21.3134139 62.7338538,19.7598402 C62.7338538,17.7214418 61.0836244,16.0611458 59.0560698,16.0611458 C57.0300306,16.0611458 55.3813165,17.7214418 55.3813165,19.7598402 C55.3813165,21.3134139 56.3405408,22.6413458 57.6922438,23.1886794 L57.6922438,23.4005997 L57.630114,23.4005997 C56.876979,23.4005997 56.266288,24.0165405 56.266288,24.7742698 C56.266288,25.524376 56.8663714,26.1296446 57.6088989,26.1418415 C56.9966926,27.5383807 55.8162255,30.4869689 54.7069803,34.6049301 C54.6024204,32.2417906 54.3796621,29.9823243 54.0917433,27.8356789 C54.4902836,27.5947911 54.7706256,27.1755244 54.7706256,26.6754536 C54.7706256,26.0305452 54.320563,25.5152284 53.7250257,25.3673416 C52.4778826,17.8068198 50.4745738,12.1337604 49.7032544,10.130428 C50.2927303,9.97796734 50.7367314,9.46417508 50.7367314,8.82536511 C50.7367314,8.06763586 50.1260405,7.45169499 49.3729055,7.45169499 L49.3107756,7.45169499 L49.3107756,7.23825013 C50.6624787,6.69091653 51.6217029,5.3629846 51.6217029,3.81093556 C51.6217029,1.77101257 49.9714735,0.110716498 47.9454343,0.110716498 C45.9178797,0.110716498 44.2691657,1.77101257 44.2691657,3.81093556 C44.2691657,5.3629846 45.2283899,6.69091653 46.5816083,7.23825013 L46.5816083,7.45169499 L46.5179631,7.45169499 C45.7648281,7.45169499 45.1541372,8.06763586 45.1541372,8.82536511 C45.1541372,9.57547132 45.7542206,10.18074 46.4967481,10.1929368 C45.5890461,12.2618273 43.4281397,17.7412617 42.1294743,25.37344 C41.5506059,25.5335236 41.115697,26.0427421 41.115697,26.6754536 C41.115697,27.1602784 41.3808854,27.5658236 41.7582105,27.8097606 C41.3490627,30.8254315 41.0853897,34.1048593 41.0975126,37.6175518 C41.1096355,40.9899805 41.1081202,45.2908944 41.099028,49.8220238 L36.425651,46.9832072 C36.1771316,46.8322712 35.9043664,46.7956807 35.6361473,46.8139759 C35.3633821,46.794156 35.0845555,46.8307466 34.8345207,46.9832072 L30.1611438,49.8220238 C30.1520516,45.2908944 30.1505363,40.9899805 30.1626591,37.6175518 C30.174782,34.1048593 29.9095937,30.8254315 29.5004459,27.8097606 C29.8792864,27.5658236 30.1429594,27.1602784 30.1429594,26.6754536 C30.1429594,26.0427421 29.7095659,25.5335236 29.1306975,25.37344 C27.8320321,17.7412617 25.6711257,12.2618273 24.7634237,10.1929368 C25.5059512,10.18074 26.1060346,9.57547132 26.1060346,8.82536511 C26.1060346,8.06763586 25.4953436,7.45169499 24.7422086,7.45169499 L24.6800788,7.45169499 L24.6800788,7.23825013 C26.0317819,6.69091653 26.9910061,5.3629846 26.9910061,3.81093556 C26.9910061,1.77101257 25.3407767,0.110716498 23.3147375,0.110716498 C21.2871829,0.110716498 19.6384688,1.77101257 19.6384688,3.81093556 C19.6384688,5.3629846 20.5976931,6.69091653 21.9509115,7.23825013 L21.9509115,7.45169499 L21.8872663,7.45169499 C21.1341313,7.45169499 20.5234403,8.06763586 20.5234403,8.82536511 C20.5234403,9.46417508 20.9674415,9.97796734 21.5569173,10.130428 C20.7840826,12.1337604 18.7822892,17.8068198 17.5351461,25.3673416 C16.9396088,25.5137038 16.4880309,26.0305452 16.4880309,26.6754536 C16.4880309,27.177049 16.7698882,27.5963157 17.1684285,27.8356789 C16.8805097,29.9838489 16.6577514,32.2448398 16.5531914,34.6095039 C15.4439463,30.4884935 14.2634792,27.5383807 13.6512729,26.1418415 C14.3938003,26.1296446 14.9938837,25.524376 14.9938837,24.7742698 C14.9938837,24.0165405 14.3831928,23.4005997 13.6300578,23.4005997 L13.5679279,23.4005997 L13.5679279,23.1886794 C14.919631,22.6413458 15.8788553,21.3134139 15.8788553,19.7598402 C15.8788553,17.7214418 14.2286258,16.0611458 12.2025866,16.0611458 C10.175032,16.0611458 8.52631797,17.7214418 8.52631797,19.7598402 C8.52631797,21.3134139 9.48554223,22.6413458 10.8387607,23.1886794 L10.8387607,23.4005997 L10.7766308,23.4005997 C10.0234958,23.4005997 9.41280485,24.0165405 9.41280485,24.7742698 C9.41280485,25.4130797 9.8552906,25.926872 10.4432511,26.0793326 C9.68102395,28.0613206 7.71105312,33.6398544 6.46087932,41.0845061 C5.84715764,41.2186714 5.37588,41.743136 5.37588,42.4002412 C5.37588,42.9140335 5.6683449,43.3439724 6.08355414,43.5787617 C5.66531418,46.6477939 5.38345681,49.9622876 5.37133392,53.444488 C5.35011885,59.2456143 5.35618029,74.915516 5.36224174,86.1457647 C5.28344291,86.3958001 5.287989,86.6656554 5.36224174,86.9294123 C5.36678783,93.4989401 5.37133392,98.3731059 5.37133392,98.504222 C5.37284928,98.8792751 5.5243855,99.2406067 5.79563533,99.4967406 C6.05021617,99.7406776 6.38662658,99.8748429 6.73515988,99.8748429 L6.80486654,99.8733183 L17.7548736,99.3122632 L17.8230649,99.2954926 C17.9579322,99.3397061 18.0973455,99.3701983 18.2428203,99.3701983 L53.0037133,99.3701983 C53.1476727,99.3701983 53.2779938,99.3305585 53.408315,99.2893941 L53.5037828,99.3122632 L64.4553052,99.8733183 L64.5250119,99.8748429 C64.8735452,99.8748429 65.2099556,99.7406776 65.4645364,99.4967406 C65.7357863,99.2406067 65.8873225,98.8792751 65.8888379,98.504222 C65.8888379,98.3715813 65.8933839,93.390693 65.89793,86.7068198 L65.89793,86.3683572 L65.89793,86.3683572 Z" id="Fill-31" fill="#516066"></path>
                    <path d="M1.2082344,100 C0.540649634,100 0,99.5528192 0,99.0006481 C0,98.448477 0.540649634,98 1.2082344,98 L69.7901985,98 C70.4577833,98 71,98.448477 71,99.0006481 C71,99.5528192 70.4577833,100 69.7901985,100 L1.2082344,100 Z" id="Fill-704" fill="#516066"></path>
                </g>
            </g>
        </g>
    </g>
</svg>