<?xml version="1.0" encoding="UTF-8"?>
<svg width="128px" height="128px" viewBox="0 0 128 128" version="1.1" xmlns="http://www.w3.org/2000/svg" xmlns:xlink="http://www.w3.org/1999/xlink">
    <!-- Generator: Sketch 53 (72520) - https://sketchapp.com -->
    <title>img-race-ukraine</title>
    <desc>Created with Sketch.</desc>
    <g id="Symbols" stroke="none" stroke-width="1" fill="none" fill-rule="evenodd">
        <g id="image-/-race-/-ukraine">
            <g>
                <circle id="Oval-Copy-11" stroke-opacity="0.32" stroke="#F0F8FF" stroke-width="2" fill-opacity="0.04" fill="#F0F8FF" cx="64" cy="64" r="63"></circle>
                <path d="M63.2401574,81.9014031 C62.0800702,81.9093618 61.4077537,81.9093618 61.4077537,81.9093618 C61.4077537,81.9093618 61.6045489,81.1644315 61.1627639,81.1053385 C60.716561,81.0470413 59.4002426,81.1644315 59.0827598,80.4772016 C58.7696949,79.7987261 59.1504332,78.7348527 59.1504332,78.7348527 L59.966129,78.6176615 L60.84749,72.946124 C60.84749,72.946124 63.0413541,72.644292 63.1068186,72.0834057 C63.1726848,71.5217235 63.4222933,69.2262481 63.4222933,69.2262481 L63.2401574,81.9014031 Z M51.2386665,81.742031 C51.2386665,81.742031 51.7398917,81.3317623 51.6190032,81.0804677 C51.4862669,80.8371318 50.574985,80.9133359 49.8183278,80.7535659 C49.0634779,80.5860362 48.6046239,80.1335866 48.4694779,79.5468346 C48.3493927,78.9692351 48.7783257,76.1884806 48.7783257,76.1884806 L49.733987,76.2296667 C49.733987,76.2296667 50.574985,66.9480827 50.574985,64.778354 C50.574985,62.634093 50.6510925,61.5449509 50.4460641,60.8412067 C50.2348105,60.1374625 50.0699444,59.6426331 50.0699444,59.6426331 L50.1542852,58.6963488 C50.1542852,58.6963488 50.6932629,59.0986589 51.2856564,59.1489974 C51.5579566,59.1655116 51.7738288,59.1233307 51.9320681,59.0821447 L51.9320681,67.9281912 C51.9152,68.1629716 51.8896969,68.3716873 51.8645955,68.5231008 C51.6190032,70.2071525 52.035486,74.8647571 51.8246341,75.9783721 C51.6190032,77.1094961 51.6973197,79.254354 51.6973197,79.254354 L51.9320681,79.4887364 L51.9320681,81.742031 L51.2386665,81.742031 Z M44.9970479,78.9274522 C44.8337882,79.4634677 44.7920195,79.9155194 44.8767618,80.1335866 C44.9673278,80.3432972 44.9970479,81.2895814 44.9970479,81.2895814 L42.2005489,81.0048605 C42.2005489,81.0048605 42.828486,80.7535659 42.6547842,80.3769225 C42.4965448,80.0082377 41.9465225,79.8739354 41.9465225,79.7569432 C41.9465225,79.639354 41.8284454,78.9692351 42.1160073,78.1898837 C42.4057781,77.3860594 43.2025975,75.9035607 43.2025975,75.9035607 L44.9205387,76.1045168 C44.9205387,76.1045168 45.1679383,78.3912377 44.9970479,78.9274522 Z M25.1169241,60.8244935 C25.0984495,61.2765452 25.1360012,61.7628191 25.1849992,62.2652093 C24.6946178,62.0139147 23.6696767,61.2934574 22.6780702,59.1489974 C21.2898612,56.1579354 21.6695955,51.9356693 21.6695955,51.9356693 C21.6695955,51.9356693 21.7949018,51.8608579 22.2362852,51.8608579 C22.6780702,51.8608579 23.7433744,52.304354 23.7433744,52.304354 L28.6343359,54.1059948 C28.6343359,54.1059948 25.2504637,58.470124 25.1169241,60.8244935 Z M104.618342,73.1389225 C103.164468,69.3523928 103.106835,66.6717183 103.480545,65.1134134 C103.85546,63.5634651 104.670955,63.0694315 104.670955,63.0694315 C104.670955,63.0694315 104.618342,62.373845 103.916305,62.373845 C103.229932,62.373845 101.223827,62.575 101.223827,62.575 C101.223827,62.575 102.788348,59.5759793 103.043579,54.851124 C103.292585,50.1262687 102.914257,47.3284031 102.914257,46.7002661 C102.914257,46.0715323 102.667058,45.4517519 101.911003,44.8319716 C101.155953,44.2123902 100.40793,42.9722326 100.781841,42.7796331 C101.155953,42.5955891 101.657178,42.9137364 101.785898,42.5368941 C101.838711,42.3856796 101.809393,42.1598527 101.785898,41.9837674 C101.764612,41.6990465 101.725052,41.4811783 101.725052,41.4811783 C101.809393,41.4141266 102.091733,41.4563075 102.098762,41.2718656 C101.881082,40.9035788 101.537092,40.6017468 101.537092,40.6017468 C101.537092,40.6017468 101.589705,40.1073152 101.401344,39.7386305 C101.223827,39.3619871 100.469178,38.7420078 99.6532811,38.9262506 C98.8351756,39.1108915 98.1355489,39.0685116 98.0763095,40.2499742 C98.038557,40.9704315 98.5241188,40.9785891 98.4566462,41.3558295 C98.3889728,41.7324729 98.4182913,42.2183488 98.2068369,42.4863566 C97.9536138,42.7796331 96.5164069,41.1626331 95.5023095,40.8029018 C94.5066868,40.4254625 93.6839627,40.4254625 93.6839627,40.4254625 L92.4939545,41.4141266 C92.4939545,41.4141266 88.5373683,40.233261 86.4045509,40.1743669 C84.2677172,40.1073152 83.7052446,40.4254625 84.0791554,41.2885788 C84.4532669,42.1598527 85.2157476,43.0311266 84.7705489,43.4167235 C84.3323785,43.7764548 83.8911959,44.2790439 84.3323785,44.580478 C84.7705489,44.9077778 85.3372385,45.0920207 85.3372385,45.0920207 C85.3372385,45.0920207 83.3915773,47.5796977 87.2202466,47.3284031 C91.0499201,47.0769096 91.9927294,46.0134341 91.9927294,46.0134341 C91.9927294,46.0134341 92.9947781,46.1473385 93.3102527,46.3902765 C93.6160884,46.6336124 94.191413,47.0769096 94.3729464,47.1360026 C94.567131,47.2110129 94.9484718,47.8813307 96.3854779,47.9402248 C97.8269018,48.0072765 98.2068369,47.8230336 98.4566462,48.25877 C98.7104718,48.6773953 99.777985,49.6909302 99.6532811,50.4368553 C99.5239586,51.1817855 98.1841452,51.6342351 97.6150458,52.6059871 C96.3234272,54.8095401 97.0172304,57.5487106 93.8042487,60.8915452 C93.0622507,61.6535866 91.9927294,62.8764341 91.1772345,63.9992016 C90.3567193,65.1134134 90.0484738,66.294478 90.0484738,66.294478 C90.0484738,66.294478 91.1772345,67.3585504 92.8026016,68.2298243 C94.4400174,69.1010982 95.3814211,69.9803307 95.3814211,69.9803307 L95.2547091,71.0278889 C95.2547091,71.0278889 98.2068369,71.8319121 97.4545975,73.0800284 C96.6981412,74.3287416 94.4400174,74.3287416 94.4400174,74.3287416 L94.5066868,76.0040388 L96.8858998,75.9449457 C96.8858998,75.9449457 96.8250539,79.1204496 88.4098531,80.4772016 C81.7736401,81.5663437 69.9125164,81.8343514 63.9948065,81.8926486 L64.3325712,60.9333282 L64.3622913,59.886168 C64.3622913,59.886168 66.0527213,59.0821447 65.4318126,58.0176744 C64.9671351,57.255832 64.5741472,56.7442894 64.3980357,56.5266202 L64.7918268,31.4116873 L65.5103298,31.0262894 L64.3749424,26.6118217 L63.2532101,30.992863 L64.1269403,31.4538682 L63.9038389,45.9545401 L63.6688896,56.3421783 C63.6688896,56.3421783 63.4222933,56.8368088 62.8471696,57.096062 C62.2915245,57.3395969 62.041916,57.0292093 62.041916,57.0292093 C62.041916,57.0292093 61.6045489,55.5379561 60.0866158,54.2400982 C58.5835428,52.9161757 57.6387253,52.6145426 57.6387253,52.6145426 L57.7658389,51.8105194 C57.7658389,51.8105194 58.6560357,52.304354 58.8970093,51.9947623 C59.1504332,51.6845736 59.1078612,51.2490362 58.9199018,50.8132997 C58.7405773,50.3777623 58.7696949,50.0679716 58.7090499,49.8837287 C58.6560357,49.6909302 59.1504332,49.8081214 59.1504332,49.5566279 C59.1504332,49.3140879 58.3955833,48.4507726 58.3955833,48.4507726 C58.3955833,48.4507726 58.2793136,47.5796977 58.0136401,47.1360026 C57.7489708,46.6837519 57.3937355,46.5832739 56.1914779,46.884708 C55.0076949,47.2110129 54.6269566,47.7056434 54.7580864,48.5681628 C54.8805813,49.4392377 55.1301898,49.8081214 54.8805813,50.0009199 C54.6269566,50.1853618 54.1241249,50.5538475 54.4385955,50.8721938 C54.7580864,51.1817855 55.2504758,51.433677 55.2504758,51.433677 L55.0689424,52.4885969 L53.4985975,52.7991835 C53.4985975,52.7991835 53.8787334,51.8105194 53.4311249,51.5504703 C52.993557,51.3079302 52.7586077,51.1149328 52.7586077,51.1149328 L52.7776848,30.7413695 L53.4897618,30.4150646 L52.3545752,26 L51.2256138,30.3893979 L51.9549606,30.7749948 L51.9152,51.3248424 C51.9152,51.3248424 51.4248186,51.8105194 51.6190032,52.304354 C51.7208146,52.5811163 51.8413014,52.8574806 51.9320681,53.1173307 L51.9320681,54.122708 C51.6973197,54.7170207 51.2386665,55.6050078 51.2386665,55.6050078 C51.2386665,55.6050078 50.5496827,53.3015736 49.733987,52.6728398 C48.9112629,52.061814 47.8421432,51.8105194 47.8421432,51.8105194 L47.8421432,50.6210982 C47.8421432,50.6210982 48.4694779,50.4368553 48.7233034,50.1262687 C48.9789363,49.8081214 48.7847517,49.3811395 48.5373521,49.0038992 C48.2879444,48.6352145 48.3493927,48.0072765 48.0955671,47.2110129 C47.8421432,46.3902765 47.5949444,46.5832739 47.5949444,46.5832739 C47.5949444,46.5832739 47.4083907,45.8373488 46.3432872,46.0134341 C45.2753724,46.2056357 44.9060803,46.7002661 44.9673278,47.8230336 C45.0219485,48.9368475 44.5871919,48.9368475 44.6520539,49.4985297 C44.7008511,50.0679716 45.2207517,50.6210982 45.4639343,50.6210982 C45.7179606,50.6210982 45.7767984,51.1149328 45.3352142,51.433677 C44.9060803,51.7434677 42.5579931,52.5309767 42.5579931,52.5309767 C42.5579931,52.5309767 42.2553704,55.0353669 42.3891107,57.096062 C42.5091959,59.1489974 42.9489728,59.886168 43.4518044,60.1959587 C43.9506199,60.5230594 44.2062527,60.7073023 44.2062527,60.7073023 C44.2062527,60.7073023 43.7644677,62.1896021 43.6441817,63.4882558 C43.5190762,64.8034238 43.5190762,65.2387623 43.5190762,65.2387623 L42.3891107,64.7447287 C42.3891107,64.7447287 42.0674109,63.6221602 42.0674109,63.0694315 C42.0674109,62.4912351 42.0079708,61.3851809 41.9465225,60.9496434 C41.891701,60.5230594 41.6320519,57.842186 41.891701,56.7777158 C42.1411087,55.722199 41.760772,54.6087829 41.8284454,54.2400982 C41.891701,53.8547003 41.9465225,53.1678682 41.4438917,52.5476899 C40.9384495,51.9356693 40.7565144,51.7434677 40.1946442,51.4838165 C39.6217294,51.2490362 39.1251229,51.3079302 38.9982101,50.7462481 C38.8666787,50.1853618 38.936561,49.6324341 38.936561,49.6324341 C38.936561,49.6324341 39.6217294,49.7498243 39.8161148,48.6773953 C40.0046767,47.6385917 40.1287781,47.2110129 39.4357781,46.884708 C39.4357781,46.884708 39.7064718,46.1722093 39.1397821,45.4270801 C38.5753014,44.6731964 37.8630235,44.8319716 37.8630235,44.8319716 L37.4294718,44.7066227 C37.4294718,44.7066227 36.3687862,44.8319716 35.9838308,45.5279561 C35.605703,46.2056357 35.8085225,46.4907545 35.8085225,46.9348475 C35.8085225,47.3618295 35.2313907,47.8898863 35.7326158,48.25877 C35.9609383,48.4261008 35.605703,49.2549948 36.1804251,49.4392377 C36.7340621,49.6324341 36.7340621,49.6324341 36.7340621,49.6324341 C36.7340621,49.6324341 36.9923055,50.5538475 36.6075509,50.4368553 C36.2336401,50.302553 35.410916,49.6909302 34.3544474,49.8081214 C33.2845245,49.9505814 32.4095894,49.9505814 31.7818531,50.2436589 C31.1456827,50.5538475 31.5280276,50.6793953 30.5856199,50.6793953 C29.6430113,50.6793953 28.5140499,50.6793953 28.5140499,50.6793953 C28.5140499,50.6793953 28.07849,50.2436589 27.890129,50.2436589 C27.6915266,50.2436589 25.3119119,50.1262687 25.3119119,50.1262687 L24.7432142,50.3777623 L23.11363,50.302553 L22.2975326,50.0679716 C22.2975326,50.0679716 21.9764353,49.3140879 21.7949018,49.3140879 C21.7949018,49.3140879 22.3505468,43.4167235 24.237772,41.2296848 C26.1217842,39.0517984 27.1292547,39.2278837 29.135561,38.8088605 C31.1456827,38.3647674 32.7861107,37.7535426 33.6526117,36.8064625 C34.5403988,35.8770904 34.9147111,34.8215736 34.9147111,34.8215736 C34.9147111,34.8215736 35.1153217,34.0340646 34.7474353,34.6204186 C33.6586361,36.3207855 33.1833156,36.756124 32.4877051,37.0911835 C29.7885996,38.3902351 28.6343359,37.9375866 26.3752081,38.6833127 C24.1154779,39.4202842 23.3652466,40.233261 22.2975326,42.5368941 C21.2278105,44.8319716 20.7314048,49.4392377 20.7314048,49.4392377 C20.7314048,49.4392377 20.160699,49.7498243 20.160699,50.2436589 C20.160699,50.7462481 19.849843,51.617323 20.0928247,51.8105194 C20.3464495,51.9947623 20.5456543,51.8608579 20.5456543,51.8608579 C20.5456543,51.8608579 20.6619241,57.4647468 22.1031472,60.1959587 C23.2150397,62.2988346 24.6899992,62.9357261 25.3181371,63.1112145 C25.6243744,64.9964212 26.1147558,66.9898656 25.5040884,68.4813178 C24.6165022,70.5921525 23.9929829,72.8955866 23.9929829,72.8955866 C23.9929829,72.8955866 26.755344,74.3786822 27.7569911,74.7640801 C28.7658673,75.1327649 29.0741128,75.5008527 29.0741128,75.5008527 L28.9538268,77.0006615 C28.9538268,77.0006615 30.0759606,78.0557804 31.5280276,78.2324625 C32.9634272,78.4336176 33.9741107,78.9861473 34.5403988,79.355031 C35.1111046,79.740031 34.9823846,81.0470413 34.9823846,81.0470413 L21.9764353,79.9996822 L23.11363,84.8916693 L27.197129,85.5118475 L28.2666503,88.1423824 C28.2666503,88.1423824 31.9635874,90.1782067 37.1212264,91.426323 C42.2553704,92.6744393 51.3720053,92.6744393 51.3720053,92.6744393 C51.3720053,92.6744393 49.854273,95.5898941 51.6784434,97.3992946 C53.4985975,99.2084961 56.0770154,98.7809173 56.0770154,98.7809173 L56.0770154,102.684439 L61.6718207,102.684439 L61.6718207,99.3933359 C61.6718207,99.3933359 64.4532588,99.5779767 65.0894292,99.4514341 C65.7153582,99.3262842 66.2115631,98.8232972 66.2115631,98.8232972 L66.2115631,102.684439 L73.6518247,102.84401 L73.2548207,98.0270336 L78.1120458,97.9689354 L78.1120458,102.877835 L86.8395083,102.877835 C86.8395083,102.877835 87.0214434,99.1420413 86.3975225,96.6537674 C85.7703886,94.1654935 84.3874008,91.9207545 84.1932162,91.870416 C84.0076665,91.8035633 98.3301351,90.8650388 103.229932,86.2074341 C108.126717,81.5410749 106.049123,76.9423643 104.618342,73.1389225 L104.618342,73.1389225 Z" id="Fill-50" stroke="#516066" stroke-width="1.5" fill="#838F93"></path>
                <path d="M39.1211913,88 C38.6033732,88 38.1364641,87.7052249 38.0244641,87.2766763 C37.8964641,86.7830167 38.2833732,86.297644 38.8899186,86.1922826 C39.1822822,86.1425615 39.4673732,86.0869212 39.7379186,86.0300971 C40.3386459,85.9022428 40.9510095,86.1934664 41.1081004,86.6812068 C41.2666459,87.1689472 40.9073732,87.668526 40.3081004,87.7963802 C40.0026459,87.8614912 39.6826459,87.9230507 39.3553732,87.9798748 C39.2768277,87.9940808 39.1982822,88 39.1211913,88" id="Fill-700" fill="#516066" transform="translate(39.572786, 87.000000) rotate(16.000000) translate(-39.572786, -87.000000) "></path>
                <path d="M94.0729417,87.1029141 C94.0714872,87.1029141 94.0685781,87.1029141 94.065669,87.1029141 C88.3798508,87.0722287 83.2889417,86.0941324 83.0751235,86.05194 C82.4700326,85.9343127 82.0889417,85.4088257 82.2227599,84.8769458 C82.3565781,84.3437874 82.9543963,84.0088054 83.5609417,84.1264327 C83.6103963,84.1353826 88.641669,85.1006934 94.0802145,85.1301002 C94.6998508,85.1326573 95.1987599,85.5775952 95.1958508,86.1222606 C95.1914872,86.6656475 94.689669,87.1029141 94.0729417,87.1029141" id="Fill-701" fill="#516066" transform="translate(88.695932, 85.602914) rotate(-15.000000) translate(-88.695932, -85.602914) "></path>
                <path d="M37.1214545,104.232426 C36.5018182,104.232426 36,103.733277 36,103.116936 C36,102.500596 36.5018182,102 37.1214545,102 L95.5069091,102 C96.1265455,102 96.6298182,102.500596 96.6298182,103.116936 C96.6298182,103.733277 96.1265455,104.232426 95.5069091,104.232426 L37.1214545,104.232426 Z" id="Fill-704-Copy" fill="#516066"></path>
                <path d="M33,81 C38.7225162,81.4570158 44.3381718,81.7556446 49.8469668,81.8958865 C55.6715051,82.0441665 61.3891828,82.0340596 67,81.8655657" id="Line" stroke="#516066" stroke-width="1.5" stroke-linecap="round" stroke-linejoin="round"></path>
                <path d="M52,92.8447369 C57.4290826,92.990022 62.5514874,93.0333458 67.3672143,92.9747085 C74.4833578,92.8880608 80.6942864,92.5631579 86,92" id="Line-Copy" stroke="#516066" stroke-width="1.5" stroke-linecap="round" stroke-linejoin="round"></path>
                <path d="M96,72 L101,63" id="Line-2" stroke="#516066" stroke-width="1.5" stroke-linecap="round" stroke-linejoin="round"></path>
            </g>
        </g>
    </g>
</svg>