<?xml version="1.0" encoding="UTF-8"?>
<svg width="128px" height="128px" viewBox="0 0 128 128" version="1.1" xmlns="http://www.w3.org/2000/svg" xmlns:xlink="http://www.w3.org/1999/xlink">
    <!-- Generator: Sketch 53 (72520) - https://sketchapp.com -->
    <title>img-race-hungary</title>
    <desc>Created with Sketch.</desc>
    <g id="Symbols" stroke="none" stroke-width="1" fill="none" fill-rule="evenodd">
        <g id="image-/-race-/-hungary">
            <g>
                <circle id="Oval-Copy-4" stroke-opacity="0.32" stroke="#F0F8FF" stroke-width="2" fill-opacity="0.04" fill="#F0F8FF" cx="64" cy="64" r="63"></circle>
                <g id="Group-7" transform="translate(32.006397, 10.770321)">
                    <path d="M10.5560083,93.3108462 L55.9094606,93.1342166 L55.7721108,79.5183768 L45.0353232,79.5601346 C43.8090636,79.5647002 42.8040347,78.5664813 42.7915844,77.3303988 L42.790954,77.2573003 C42.7785037,76.0212178 43.7629414,75.0148833 44.9897222,75.0101279 L55.7265098,74.9683701 L55.4442438,46.9697987 C55.4421577,46.7905169 55.4616274,46.6153127 55.4994408,46.448336 C55.4585342,46.2807991 55.4349681,46.1057584 55.4334033,45.9262869 L55.3490045,37.5505193 C55.347248,37.3705214 55.3663881,37.1960333 55.4045312,37.0283405 C55.3631032,36.8609933 55.3404417,36.6868158 55.3386853,36.5068178 L55.2663845,29.3612993 C55.2653709,29.2871479 55.2687727,29.2137741 55.2745048,29.1419368 L53.9530067,27.3050433 C53.7852363,27.0727948 53.6638156,26.8105608 53.594631,26.5328915 L49.9001968,11.7793818 L46.1325309,26.6120474 C46.0664234,26.8715927 45.9545751,27.1173821 45.8016863,27.3363775 L44.5171729,29.1840182 C44.524442,29.2558927 44.528775,29.3294321 44.529597,29.4030571 L44.6018977,36.5485756 C44.6036542,36.7285736 44.5839928,36.9032514 44.546371,37.0707545 C44.5872777,37.2382914 44.6104605,37.4122792 44.6122169,37.5922771 L44.6966158,45.9680447 C44.6987019,46.1473265 44.6792321,46.3225307 44.641089,46.4902235 C44.682517,46.6575707 44.7053701,46.8322747 44.7074562,47.0115565 L44.7651136,52.7381728 C44.7736175,53.5708973 44.3229609,54.3358546 43.5951467,54.7253553 C42.8678538,55.1146662 41.9835621,55.0645167 41.2989138,54.5929479 L32.7840914,48.7353457 L24.3876544,54.65894 C23.7132333,55.1351241 22.8295463,55.1920637 22.0945266,54.8091758 C21.3591237,54.4252351 20.8930274,53.6636746 20.8847151,52.8314765 L20.8268661,47.1043337 C20.8253013,46.9248622 20.8444414,46.7503742 20.8825844,46.5826813 C20.8411565,46.4153342 20.8183034,46.2406302 20.8162173,46.0613484 L20.7318184,37.6855808 C20.730062,37.5055829 20.7497234,37.3309051 20.7873451,37.163402 C20.7459172,36.9960548 20.7230641,36.8213508 20.7213076,36.6413529 L20.6490069,29.4958343 C20.6487061,29.4220197 20.6515867,29.3488356 20.6573187,29.2769983 L19.335629,27.4395784 C19.1782983,27.221415 19.062158,26.9769325 18.9901892,26.7175652 L14.9237761,11.9152306 L11.5271772,26.6968978 C11.4630306,26.9748066 11.3469724,27.2382246 11.1845003,27.471439 L9.90031652,29.3183635 C9.90706434,29.3904278 9.9119186,29.4637775 9.91221934,29.5375922 L9.98452008,36.6831107 C9.98627652,36.8631086 9.96713643,37.0375967 9.92899337,37.2052895 C9.97042131,37.3726367 9.99327444,37.5473407 9.99483927,37.7268122 L10.079951,46.1029165 C10.0815158,46.282388 10.0618544,46.4570658 10.0244243,46.6250953 C10.0651393,46.7921058 10.0885137,46.96662 10.0900786,47.1460915 L10.3725362,75.1451894 L21.1091321,75.1029052 C22.335913,75.0981498 23.3411336,76.0968952 23.3533922,77.3324512 L23.3542143,77.4060762 C23.3666645,78.6421587 22.3820353,79.6479668 21.1552544,79.6527221 L10.4184668,79.6944799 L10.5560083,93.3108462 Z M58.1761102,97.6019536 L8.37943793,97.795683 C7.15265707,97.8004384 6.14762811,96.8022194 6.13517786,95.566137 L5.9698481,79.1614984 C5.44788583,78.7541224 5.10910067,78.1185154 5.10171421,77.4040204 L5.09139503,76.3603189 C5.08433825,75.6451079 5.41007054,75.0072935 5.92376546,74.5955706 L5.66519261,48.9247361 C5.14303875,48.5168337 4.8039239,47.8819428 4.79686713,47.1667317 L4.78621826,46.1237464 C4.77916148,45.4085353 5.10489377,44.770721 5.61910998,44.3588083 L5.5699533,39.5054568 C5.04799104,39.0980808 4.70920588,38.4624737 4.70162781,37.7474524 L4.69130863,36.7037509 C4.68392217,35.9892559 5.01017575,35.3512519 5.52387067,34.939529 L5.48733337,31.3162367 C4.96517951,30.9083343 4.62639435,30.2727273 4.61952917,29.5580426 L4.6086887,28.5145308 C4.59727456,27.3591493 5.45610394,26.4050902 6.57054438,26.2814519 L7.29531364,25.2396655 L12.5640523,2.30966095 C12.7923272,1.31325483 13.6640538,0.605485911 14.6802178,0.589752949 C15.7178702,0.558448711 16.5976412,1.2546952 16.8692612,2.24263769 L23.1642942,25.1565839 L24.0681908,26.4121921 C24.8262714,26.7676093 25.3564071,27.5380542 25.3654119,28.4337896 L25.3757311,29.4774911 C25.3795169,29.875542 25.2806826,30.2495389 25.1033852,30.5734005 L25.1531776,35.5290606 C25.3368703,35.8520921 25.4437248,36.2251485 25.4475106,36.6231994 L25.458351,37.6667112 C25.4621368,38.0647621 25.3633025,38.4387589 25.1856754,38.7633367 L25.2478956,44.9485296 C25.4323012,45.2718979 25.5386344,45.645144 25.5427499,46.0424788 L25.553069,47.0861802 C25.5573761,47.4840414 25.4580205,47.858228 25.2807231,48.1820896 L25.284343,48.5456235 L31.4749913,44.1784198 C32.2286966,43.6459552 33.2367876,43.642103 34.0011021,44.1687345 L40.2792061,48.4873827 L40.2755862,48.1238488 C40.0913722,47.801007 39.9845178,47.4279506 39.980732,47.0298997 L39.9704128,45.9861982 C39.9662974,45.5888634 40.0656529,45.2146769 40.2427587,44.8902888 L40.1803469,38.7045695 C39.9968458,38.3820643 39.8897998,38.0084815 39.8854927,37.6106203 L39.8751735,36.5669189 C39.8713877,36.168868 39.970222,35.7948711 40.1475194,35.4710095 L40.097727,30.5153494 C39.9140343,30.1923179 39.8071799,29.8192615 39.8033941,29.4212106 L39.7925536,28.3776988 C39.7835488,27.4819634 40.2978476,26.7069577 41.0486799,26.3466374 L41.927327,25.0837071 L47.7597495,2.1226178 C48.0113893,1.13201546 48.9105976,0.426763437 49.9151829,0.452206825 C50.931713,0.460187123 51.8169109,1.1616123 52.0660619,2.15594434 L57.7970708,25.0432714 L58.5423489,26.0788003 C59.658748,26.1941064 60.5373414,27.1417659 60.5492768,28.2969576 L60.559596,29.3406591 C60.5669824,30.055154 60.2407289,30.6931581 59.7270339,31.104881 L59.7635712,34.7281732 C60.2857251,35.1360757 60.6245103,35.7716827 60.6318967,36.4861777 L60.6422159,37.5298792 C60.649794,38.2449005 60.3235404,38.8829046 59.8098455,39.2946275 L59.8584809,44.1481687 C60.3804431,44.5555448 60.7197496,45.1909621 60.7266148,45.9056467 L60.7374552,46.9491585 C60.7443204,47.6638432 60.4185881,48.3016575 59.9045635,48.7140965 L60.1636576,74.3847413 C60.6856199,74.7921173 61.0244051,75.4277244 61.0317915,76.1422193 L61.0423023,77.1864472 C61.0496888,77.9009422 60.7234352,78.5389462 60.2097403,78.9506691 L60.37507,95.3553076 C60.3875203,96.5913901 59.402891,97.5971982 58.1761102,97.6019536 Z" id="Shape" fill="#516066"></path>
                    <path d="M1.2082344,98.0426809 C0.540649634,98.0426809 0,97.5955 0,97.0433289 C0,96.4911578 0.540649634,96.0426809 1.2082344,96.0426809 L66.7901985,96.0426809 C67.4577833,96.0426809 68,96.4911578 68,97.0433289 C68,97.5955 67.4577833,98.0426809 66.7901985,98.0426809 L1.2082344,98.0426809 Z" id="Fill-704" fill="#516066"></path>
                    <polygon id="Fill-928" fill="#516066" points="9.36281143 26.1790668 14.728418 2.82749192 21.1312239 26.1332374 15.0143318 31.2253568"></polygon>
                    <polyline id="Fill-929" fill="#838F93" transform="translate(15.928589, 93.756431) rotate(-20.000000) translate(-15.928589, -93.756431) " points="22.4817858 97.9958158 8.19711427 92.8592556 9.37594639 89.5170462 23.6600632 94.6530462 22.4817858 97.9958158"></polyline>
                    <polygon id="Fill-930" fill="#838F93" points="23.5004587 91.9546537 8.32116408 92.013848 8.17420677 77.4649339 23.3542143 77.4060762"></polygon>
                    <circle id="Oval" fill="#838F93" cx="32.6168742" cy="66.4143157" r="5.5"></circle>
                    <polygon id="Fill-931" fill="#838F93" points="23.3425518 76.2889395 8.16325716 76.3481339 7.68163189 28.5961459 15.1633269 17.8415316 22.8609265 28.5369516"></polygon>
                    <polyline id="Fill-932" fill="#516066" transform="translate(15.474560, 76.841631) rotate(-20.000000) translate(-15.474560, -76.841631) " points="22.9772021 80.0939266 7.62520211 74.5736229 7.97247219 73.5893349 23.3239174 79.1096386 22.9772021 80.0939266"></polyline>
                    <polyline id="Fill-933" fill="#516066" transform="translate(15.169808, 46.604605) rotate(-20.000000) translate(-15.169808, -46.604605) " points="22.6718961 49.8566209 7.32045083 44.3368775 7.66716616 43.3525895 23.0191662 48.872333 22.6718961 49.8566209"></polyline>
                    <polyline id="Fill-934" fill="#516066" transform="translate(15.074569, 37.185326) rotate(-20.000000) translate(-15.074569, -37.185326) " points="22.5766568 40.4373416 7.22521152 34.9175981 7.57248159 33.9333102 22.9239268 39.4530536 22.5766568 40.4373416"></polyline>
                    <polyline id="Fill-935" fill="#516066" transform="translate(14.991949, 28.996106) rotate(-20.000000) translate(-14.991949, -28.996106) " points="22.4940368 32.2481216 7.14259159 26.7283781 7.48986166 25.7440901 22.8413069 31.2638336 22.4940368 32.2481216"></polyline>
                    <polygon id="Fill-942" fill="#516066" points="14.6330273 73.9659066 10.7540179 73.9809421 10.4885423 47.6812839 14.3675518 47.6662485"></polygon>
                    <polygon id="Fill-943" fill="#516066" points="19.26578 73.9438968 16.3228332 73.9589323 16.1218163 47.6590844 19.0643677 47.6442387"></polygon>
                    <polyline id="Fill-948" fill="#516066" transform="translate(27.726803, 72.659096) rotate(-20.000000) translate(-27.726803, -72.659096) " points="13.8873144 91.9364627 25.12311 95.9766931 41.5662925 49.3414993 27.5639859 53.1464418 13.8873144 91.9364627"></polyline>
                    <polyline id="Fill-949" fill="#838F93" transform="translate(30.341943, 55.721466) rotate(-20.000000) translate(-30.341943, -55.721466) " points="27.7496218 53.6019138 34.4753444 51.5543483 31.5363079 59.8885839 26.2085415 57.9726677 27.7496218 53.6019138"></polyline>
                    <polygon id="Fill-953" fill="#838F93" points="24.8551748 95.4934237 24.708041 80.8515725 33.0531782 75.4098679 33.2552197 95.4609855"></polygon>
                    <polyline id="Fill-954" fill="#838F93" transform="translate(24.837493, 93.721507) rotate(-20.000000) translate(-24.837493, -93.721507) " points="25.4895955 95.8390984 23.0071137 94.9466848 24.1853911 91.6039152 26.6678728 92.496889 25.4895955 95.8390984"></polyline>
                    <polyline id="Fill-955" fill="#838F93" transform="translate(30.411192, 93.373428) rotate(-20.000000) translate(-30.411192, -93.373428) " points="32.9277903 94.7246534 27.6150019 92.8137791 27.8940384 92.0222032 33.2073815 93.9330775 32.9277903 94.7246534"></polyline>
                    <path d="M34.9436172,83.2863344 C33.6665953,82.8269626 32.2630916,83.5003344 31.8082011,84.7899365 L29.189807,92.2166328 L31.5019821,93.0485438 L34.9436172,83.2863344" id="Fill-958" fill="#516066" transform="translate(32.066712, 88.095261) rotate(-20.000000) translate(-32.066712, -88.095261) "></path>
                    <polyline id="Fill-959" fill="#838F93" transform="translate(27.050014, 72.168571) rotate(-20.000000) translate(-27.050014, -72.168571) " points="32.5128608 74.6284502 21.2770651 70.5882199 21.5871673 69.7086911 32.8229629 73.7489214 32.5128608 74.6284502"></polyline>
                    <polyline id="Fill-960" fill="#838F93" transform="translate(26.924208, 59.718200) rotate(-20.000000) translate(-26.924208, -59.718200) " points="32.3870545 62.1780795 21.1512589 58.1378492 21.4613611 57.2583204 32.6971567 61.2985507 32.3870545 62.1780795"></polyline>
                    <path d="M34.2080369,63.4193008 C32.3318909,62.7448087 30.2699055,63.7335783 29.6014384,65.6282066 C28.933526,67.5228348 29.9132048,69.6051333 31.7887961,70.2801856 L34.2080369,63.4193008" id="Fill-961" fill="#838F93" transform="translate(31.799832, 66.743774) rotate(-20.000000) translate(-31.799832, -66.743774) "></path>
                    <polyline id="Fill-964" fill="#674834" transform="translate(48.120474, 17.593789) rotate(-20.000000) translate(-48.120474, -17.593789) " points="52.4139197 28.100237 54.9013941 4.20226318 41.3395547 24.1188286 45.4579781 30.9853155 52.4139197 28.100237"></polyline>
                    <polyline id="Fill-965" fill="#F0D8A8" transform="translate(50.545775, 93.621369) rotate(-20.000000) translate(-50.545775, -93.621369) " points="42.8143003 92.7247543 57.0989718 97.8607543 58.2772492 94.5185449 43.9931324 89.3819847 42.8143003 92.7247543"></polyline>
                    <polyline id="Fill-966" fill="#AE7343" transform="translate(50.454971, 84.575164) rotate(-20.000000) translate(-50.454971, -84.575164) " points="40.8936717 88.8674884 55.1777885 94.0040486 60.0162703 80.282279 45.7315987 75.146279 40.8936717 88.8674884"></polyline>
                    <polyline id="Fill-968" fill="#4F3A2B" transform="translate(50.658946, 76.704609) rotate(-20.000000) translate(-50.658946, -76.704609) " points="42.8095883 74.4366011 58.1610336 79.9569048 58.5083036 78.9726169 43.1568584 73.4523132 42.8095883 74.4366011"></polyline>
                    <polyline id="Fill-969" fill="#4F3A2B" transform="translate(50.353934, 46.467678) rotate(-20.000000) translate(-50.353934, -46.467678) " points="42.5048537 44.1999506 57.856299 49.719694 58.2030143 48.7359663 42.8515691 43.2156626 42.5048537 44.1999506"></polyline>
                    <polyline id="Fill-970" fill="#4F3A2B" transform="translate(50.258955, 37.048304) rotate(-20.000000) translate(-50.258955, -37.048304) " points="42.4095977 34.7805764 57.761043 40.3003198 58.108313 39.3165921 42.7568678 33.7962884 42.4095977 34.7805764"></polyline>
                    <polyline id="Fill-971" fill="#516066" transform="translate(50.176335, 28.859084) rotate(-20.000000) translate(-50.176335, -28.859084) " points="42.3269778 26.5913563 57.678423 32.1110998 58.0256931 31.1268118 42.6742478 25.6070684 42.3269778 26.5913563"></polyline>
                    <path d="M48.8897718,83.465611 C49.2553485,82.4286633 50.3836988,81.887501 51.410531,82.256679 C52.4368083,82.6258571 52.9726915,83.765323 52.6071149,84.8022707 L51.5802828,87.7159199 L47.862385,86.3792602 L48.8897718,83.465611" id="Fill-972" fill="#838F93" transform="translate(50.292190, 84.928296) rotate(-20.000000) translate(-50.292190, -84.928296) "></path>
                    <path d="M49.6570248,24.5078112 C49.8484117,23.9655284 50.4386599,23.6820625 50.9762073,23.8753347 C51.5137547,24.068607 51.7939007,24.6646698 51.6030686,25.2075127 L50.4081489,28.5956593 L48.4621051,27.8959578 L49.6570248,24.5078112" id="Fill-973" fill="#6E939A" transform="translate(50.062538, 26.205137) rotate(-20.000000) translate(-50.062538, -26.205137) "></path>
                    <path d="M47.8978483,33.2259579 C48.0892352,32.6836752 48.6800381,32.4002092 49.2175855,32.5934815 C49.7545782,32.7867537 50.035279,33.3833768 49.8438921,33.9256595 L48.6495271,37.3138061 L46.7034833,36.6141045 L47.8978483,33.2259579" id="Fill-975" fill="#6E939A" transform="translate(48.303751, 34.923284) rotate(-20.000000) translate(-48.303751, -34.923284) "></path>
                    <path d="M51.6745356,41.4597059 C51.8659224,40.9174231 52.4567254,40.6339572 52.9942728,40.8272294 C53.5312655,41.0205017 53.8119662,41.6171247 53.6205794,42.1594074 L52.4262144,45.547554 L50.4801706,44.8478524 L51.6745356,41.4597059" id="Fill-976" fill="#6E939A" transform="translate(52.080439, 43.157032) rotate(-20.000000) translate(-52.080439, -43.157032) "></path>
                    <path d="M47.9812087,41.4740305 C48.1725955,40.9317478 48.7633985,40.6482818 49.3003912,40.841554 C49.8379386,41.0348263 50.1186393,41.6314493 49.9272525,42.1742923 L48.7323328,45.5618787 L46.786289,44.8627373 L47.9812087,41.4740305" id="Fill-977" fill="#6E939A" transform="translate(48.386832, 43.171357) rotate(-20.000000) translate(-48.386832, -43.171357) "></path>
                    <polyline id="Fill-978" fill="#985F34" transform="translate(53.249433, 60.665128) rotate(-20.000000) translate(-53.249433, -60.665128) " points="47.0515502 72.4113189 50.7017692 73.7233294 59.4473166 48.9189367 55.7970976 47.6069262 47.0515502 72.4113189"></polyline>
                    <polyline id="Fill-979" fill="#985F34" transform="translate(47.616585, 60.686874) rotate(-20.000000) translate(-47.616585, -60.686874) " points="41.4187017 72.4327854 45.0683659 73.745356 53.8144681 48.9409634 50.1642491 47.6283927 41.4187017 72.4327854"></polyline>
                    <path d="M52.6887014,52.2280682 C52.8800883,51.6852252 53.4708912,51.4017593 54.0084386,51.5950315 C54.5454313,51.7883038 54.826132,52.3849268 54.6347452,52.9277697 L53.4398255,56.3159163 L51.4943364,55.6162148 L52.6887014,52.2280682" id="Fill-980" fill="#6E939A" transform="translate(53.094604, 53.925117) rotate(-20.000000) translate(-53.094604, -53.925117) "></path>
                    <path d="M52.8257638,65.7976609 C53.0171506,65.254818 53.6073988,64.9719123 54.1449462,65.1646243 C54.6824937,65.3578965 54.9626397,65.9545196 54.7718076,66.4973625 L53.5768879,69.8855091 L51.6308441,69.1858075 L52.8257638,65.7976609" id="Fill-981" fill="#6E939A" transform="translate(53.231277, 67.494821) rotate(-20.000000) translate(-53.231277, -67.494821) "></path>
                    <path d="M47.0572821,52.3897096 C47.248669,51.8474268 47.8394719,51.5639609 48.3764646,51.7572331 C48.914012,51.9505054 49.1947128,52.5471284 49.0033259,53.0894111 L47.8084062,56.4775577 L45.8629171,55.7778562 L47.0572821,52.3897096" id="Fill-982" fill="#6E939A" transform="translate(47.463182, 54.087036) rotate(-20.000000) translate(-47.463182, -54.087036) "></path>
                    <path d="M47.1943146,65.9593543 C47.3857014,65.4170716 47.9759496,65.1336057 48.513497,65.3268779 C49.0510445,65.5201502 49.3311905,66.116213 49.1398036,66.6590559 L47.9454386,70.0472025 L45.9993948,69.3475009 L47.1943146,65.9593543" id="Fill-983" fill="#6E939A" transform="translate(47.599693, 67.656680) rotate(-20.000000) translate(-47.599693, -67.656680) "></path>
                    <path d="M41.3990909,74.6370491 C41.5904777,74.0942062 42.1812806,73.8113004 42.7188281,74.0045727 C43.2563755,74.1972847 43.5365215,74.7939078 43.3451347,75.3367507 L42.9213098,76.5395203 L40.975266,75.8398188 L41.3990909,74.6370491" id="Fill-986" fill="#4F3A2B" transform="translate(42.190294, 75.241657) rotate(-20.000000) translate(-42.190294, -75.241657) "></path>
                    <path d="M37.8354828,74.651139 C38.0268696,74.1082961 38.6176725,73.8248301 39.15522,74.0181024 C39.6927674,74.2113746 39.9729134,74.8079976 39.7815266,75.3508406 L39.3577017,76.5536102 L37.411658,75.8539086 L37.8354828,74.651139" id="Fill-987" fill="#4F3A2B" transform="translate(38.626686, 75.255499) rotate(-20.000000) translate(-38.626686, -75.255499) "></path>
                    <path d="M34.512951,74.6639555 C34.7043378,74.1211126 35.2951408,73.8376466 35.8321335,74.0309189 C36.3696809,74.2241911 36.6503816,74.8208141 36.4589948,75.3636571 L36.0346152,76.5664267 L34.0891262,75.8667251 L34.512951,74.6639555" id="Fill-988" fill="#4F3A2B" transform="translate(35.304121, 75.268316) rotate(-20.000000) translate(-35.304121, -75.268316) "></path>
                    <polyline id="Fill-990" fill="#E6CA9A" transform="translate(41.637392, 93.656104) rotate(-20.000000) translate(-41.637392, -93.656104) " points="39.8070119 94.8812819 42.288939 95.7736956 43.4677711 92.4309259 40.9852893 91.5385123 39.8070119 94.8812819"></polyline>
                    <polyline id="Fill-991" fill="#E6CA9A" transform="translate(36.057041, 93.351719) rotate(-20.000000) translate(-36.057041, -93.351719) " points="33.2608516 92.7923499 38.5741947 94.702664 38.8532312 93.9110881 33.5404429 92.000774 33.2608516 92.7923499"></polyline>
                    <path d="M34.9915449,82.5824398 C36.2685668,83.0418115 36.9353697,84.4591413 36.4804792,85.7487434 L33.8620851,93.176 L31.5499099,92.3446492 L34.9915449,82.5824398" id="Fill-994" fill="#4F3A2B" transform="translate(34.086668, 87.879220) rotate(-20.000000) translate(-34.086668, -87.879220) "></path>
                    <polyline id="Fill-995" fill="#85502C" transform="translate(38.990309, 72.122182) rotate(-20.000000) translate(-38.990309, -72.122182) " points="33.2170828 70.5418312 44.4534332 74.5820616 44.7635354 73.7025328 33.527185 69.6623024 33.2170828 70.5418312"></polyline>
                    <polyline id="Fill-996" fill="#85502C" transform="translate(38.864503, 59.671811) rotate(-20.000000) translate(-38.864503, -59.671811) " points="33.0912766 58.0914605 44.3276269 62.1316909 44.6377291 61.2521621 33.4013788 57.2119317 33.0912766 58.0914605"></polyline>
                    <polyline id="Fill-1001" fill="#838F93" transform="translate(51.656449, 93.617142) rotate(-20.000000) translate(-51.656449, -93.617142) " points="57.1645078 97.4806262 44.9701137 93.0964273 46.1489458 89.7536577 58.3427852 94.1384168 57.1645078 97.4806262"></polyline>
                    <path d="M58.1178363,91.8201186 L45.1596994,91.8703315 L45.0129337,77.3219437 L57.9714003,77.2710147 L58.1178363,91.8201186 Z M49.76778,82.1526848 C49.005655,82.4300756 48.4651344,83.1687206 48.4740803,84.0334771 L48.5051792,87.1227987 L52.4560249,87.107252 L52.4244047,84.0181201 C52.4132774,82.9186735 51.5199916,82.0312086 50.42934,82.0353022 C50.1966063,82.0365476 49.9742106,82.0775502 49.76778,82.1526848 Z" id="Shape" fill="#838F93"></path>
                    <polyline id="Fill-1003" fill="#D9D9D3" transform="translate(40.683970, 95.432122) rotate(-20.000000) translate(-40.683970, -95.432122) " points="41.1840718 95.6119497 40.3569477 95.3144785 40.1838674 95.2522952 40.3569477 95.3144785 40.7153126 95.4433266 41.1840718 95.6119497"></polyline>
                    <polygon id="Fill-1007" fill="#516066" points="55.74841 25.9981759 49.7799916 17.7066598 43.9799975 26.0440053 49.9122829 2.6906599 55.7478887 25.9983657"></polygon>
                    <path d="M57.9599294,76.1544044 L45.0017925,76.2046173 L44.9647736,72.565404 L44.9652948,72.5652142 L44.7806742,54.2861084 L42.5434345,52.747344 L42.4855856,47.0202013 L57.6655931,46.9613436 L57.9599294,76.1544044 Z M57.6552739,45.9176421 L42.4752664,45.9764998 L42.3908676,37.6007322 L57.5703538,37.5420643 L57.6552739,45.9176421 Z M42.3800271,36.5572204 L42.3082477,29.4115121 L57.4877339,29.3528442 L57.5600346,36.4983628 L42.3800271,36.5572204 Z M42.3634557,28.3678072 L49.7799916,17.7066598 L57.4113662,28.3093359 L42.3634557,28.3678072 Z" id="Shape" fill="#838F93"></path>
                    <polygon id="Path" fill="#516066" points="51.1772867 47.5230796 55.0561046 47.5075178 55.3215801 73.8071759 51.4427622 73.8227378"></polygon>
                    <polygon id="Fill-1011" fill="#516066" transform="translate(50.258955, 37.048304) rotate(-20.000000) translate(-50.258955, -37.048304) " points="56.9611014 40.0129324 42.6764298 34.8763722 42.4095977 34.7805764 42.7568678 33.7962884 43.0231451 33.8920842 57.3078167 39.0286445 58.108313 39.3165921 57.761043 40.3003198"></polygon>
                    <polygon id="Path" fill="#516066" points="46.5443424 47.544563 49.4872892 47.5295276 49.6883061 73.8293754 46.7457547 73.8442211"></polygon>
                    <polyline id="Fill-1009" fill="#516066" transform="translate(51.911373, 76.699760) rotate(-20.000000) translate(-51.911373, -76.699760) " points="58.2349056 79.5282572 54.1320151 78.0526656 45.2405698 74.8555504 45.5878399 73.8712624 57.7816793 78.2560216 57.8304968 78.2733881 58.5821757 78.5439692 58.2349056 79.5282572"></polyline>
                    <polyline id="Fill-1010" fill="#516066" transform="translate(50.353934, 46.467678) rotate(-20.000000) translate(-50.353934, -46.467678) " points="57.856299 49.719694 57.856299 49.719694 57.0558026 49.4323066 42.7711311 44.2957464 42.5048537 44.1999506 42.8515691 43.2156626 43.1184012 43.3114584 57.4030727 48.4480187 58.2030143 48.7359663 57.856299 49.719694"></polyline>
                    <path d="M42.9739048,95.4231468 L42.9383501,91.8787865 L41.6191887,91.8843767 L41.5074179,80.7863594 L33.0531782,75.4098679 L33.0247392,72.6116977 L44.9652948,72.5652142 L45.0121117,77.2483188 L45.0127197,77.3148677 L45.0129337,77.3219437 L45.1952541,95.4146917 L42.9739048,95.4231468 Z M33.0153233,71.6791498 L32.9995069,70.0704987 C33.4238855,70.0686551 33.83093,69.9932348 34.2083435,69.8558675 C35.6007073,69.3490886 36.5884763,67.9999404 36.572282,66.4194465 C36.5519133,64.4106388 34.919458,62.7882721 32.9257676,62.7961365 L32.8994542,60.1611373 L44.8394886,60.1148435 L44.9553577,71.632856 L33.0153233,71.6791498 Z M44.8300728,59.1822956 L38.5517831,59.2067583 L38.505039,54.5725126 L32.8008316,50.3919497 L32.7565813,46.0143385 L44.7806742,54.2861084 L44.8300728,59.1822956 Z" id="Shape" fill="#516066"></path>
                    <polygon id="Fill-1031" fill="#838F93" transform="translate(35.026148, 55.035993) rotate(-20.000000) translate(-35.026148, -55.035993) " points="31.5985395 58.2460934 33.1254346 53.8743985 34.5233908 49.9109169 38.4537558 55.7903148 36.9126755 60.1610687"></polygon>
                    <path d="M40.3364329,95.4334214 L40.0782181,95.4344025 L38.9014949,95.4388232 L38.8844422,93.7602749 L33.238167,93.7824372 L33.2386883,93.7822475 L38.8844422,93.7602749 L38.8759158,92.9210008 L33.2301619,92.9429733 L35.6872346,92.933377 L35.6074489,85.0584953 C35.5938363,83.691084 34.4824911,82.5872897 33.1253687,82.5923887 L33.0531782,75.4098679 L34.3666842,76.2451366 L34.3683016,76.2463364 L41.5074179,80.7863594 L41.6191887,91.8843767 L40.3003569,91.8892508 L40.3364329,95.4334214 Z" id="Path" fill="#838F93"></path>
                    <polyline id="Fill-1036" fill="#838F93" transform="translate(41.637392, 93.656104) rotate(-20.000000) translate(-41.637392, -93.656104) " points="42.288939 95.7736956 40.3284718 95.0683919 40.1653769 95.0101301 39.8070119 94.8812819 40.9852893 91.5385123 42.2262528 91.9849992 43.4677711 92.4309259 42.288939 95.7736956"></polyline>
                    <polyline id="Fill-1037" fill="#838F93" transform="translate(36.073829, 94.243191) rotate(-20.000000) translate(-36.073829, -94.243191) " points="38.5715621 96.4375876 32.9885123 94.4291082 33.8463567 92.0487948 39.159145 93.9591089 38.8801085 94.7506848"></polyline>
                    <path d="M33.8620851,93.176 L31.5499099,92.3446492 L34.8129172,83.0899895 L34.9915449,82.5824398 C36.2685668,83.0418115 36.9353697,84.4591413 36.4804792,85.7487434 L33.8620851,93.176" id="Fill-1040" fill="#516066" transform="translate(34.086668, 87.879220) rotate(-20.000000) translate(-34.086668, -87.879220) "></path>
                    <polyline id="Fill-1041" fill="#838F93" transform="translate(38.990309, 72.122182) rotate(-20.000000) translate(-38.990309, -72.122182) " points="44.4534332 74.5820616 44.4534332 74.5820616 33.2170828 70.5418312 33.527185 69.6623024 44.7635354 73.7025328 44.4534332 74.5820616"></polyline>
                    <polyline id="Fill-1042" fill="#838F93" transform="translate(38.864503, 59.671811) rotate(-20.000000) translate(-38.864503, -59.671811) " points="44.3276269 62.1316909 44.3276269 62.1316909 33.0912766 58.0914605 33.4013788 57.2119317 34.3749554 57.5620626 35.6031598 58.0035076 44.6377291 61.2521621 44.3276269 62.1316909"></polyline>
                </g>
            </g>
        </g>
    </g>
</svg>