<?xml version="1.0" encoding="UTF-8"?>
<svg width="128px" height="128px" viewBox="0 0 128 128" version="1.1" xmlns="http://www.w3.org/2000/svg" xmlns:xlink="http://www.w3.org/1999/xlink">
    <!-- Generator: Sketch 53 (72520) - https://sketchapp.com -->
    <title>img-race-europe</title>
    <desc>Created with Sketch.</desc>
    <g id="Symbols" stroke="none" stroke-width="1" fill="none" fill-rule="evenodd">
        <g id="image-/-race-/-europe">
            <g>
                <circle id="Oval-Copy-23" stroke-opacity="0.32" stroke="#F0F8FF" stroke-width="2" fill-opacity="0.04" fill="#F0F8FF" cx="64" cy="64" r="63"></circle>
                <g id="Group-35" transform="translate(36.000000, 20.000000)">
                    <path d="M3,65 L7.63368664,65 L11.0780084,50.9658642 L6.85230769,54.348032 L2,50.9658642 L14.9771094,35.0786981 L15.5507692,32.74128 L20,24.936 L22.1894752,23.9684116 C11.3480114,15.0717691 5.03355798,9.56262902 3.24611501,7.44099135 C1.56166085,5.44159812 4.64523731,4.07667425 4.81873708,4 C4.97102696,3.93269897 6.00651656,1.55314984 7.63368664,2.94801876 C9.45270249,4.50734481 17.5434476,8.58252044 25,17.0885024 C25.5318338,17.6951862 24.145709,19.6077944 24.1140969,20.958656 C24.1027708,21.4426446 24.5498258,21.9648166 25.4552617,22.525172 L29,20.958656 L34.6094377,22.3968086 L51.1925213,2.94801876 L55.8524202,6.46732558 L40.0217714,25.9233501 L42.0184615,33.9148057 L43.5800237,40.5259865 L55.8524202,50.32432 C54.0595954,53.7127292 52.625216,55.4836225 51.549282,55.637 C50.473348,55.7903775 48.6965096,54.4772526 46.218767,51.6976252 L49.3607906,65 L56,65 L56,69 L47.88,76.5952964 L47.5259403,87 L10.9347155,87 L10.3061874,77.1729585 L3,69 L3,65 Z" id="Rectangle" fill="#838F93"></path>
                    <path d="M39.9631563,35.5657809 C40.4490333,35.5437745 40.8695323,35.5188339 41.2335686,35.4909592 C41.3242062,35.8753374 41.43416,36.3360045 41.56343,36.8729603 L39.9631563,35.5657809 Z M51.1725015,54.2844144 L33.978103,40.2252667 L37.0077762,36.5766076 L54.2021747,50.6342882 L51.1725015,54.2844144 Z M49.138356,63.8836009 L9.23255224,63.8836009 C9.85067096,61.9690451 11.025988,58.0709803 12.9100614,50.8499508 L13.0304163,50.3892838 L24.104548,37.0504785 L24.1164349,37.0299392 L25.2070578,35.7051547 C28.9454874,35.6978192 31.9261271,35.6919508 34.2990492,35.6743457 L31.0658129,39.5680093 C30.600738,40.1299057 30.6809745,40.958813 31.2470881,41.4224142 L46.0061583,53.4877832 C47.6569513,59.0568664 48.6272194,62.2360559 49.138356,63.8836009 Z M3.82847106,68.0736171 L54.1798868,68.0736171 L54.1798868,66.5258345 L3.82847106,66.5258345 L3.82847106,68.0736171 Z M48.7059701,72.9267592 L48.7059701,70.7158508 L50.8470977,70.7158508 L48.7059701,72.9267592 Z M12.0868937,85.3412962 L46.0299321,85.3412962 L46.0299321,70.7158508 L12.0868937,70.7158508 L12.0868937,85.3412962 Z M7.33510608,70.7158508 L9.41085572,70.7158508 L9.41085572,72.9781074 L7.33510608,70.7158508 Z M6.99335775,53.4965858 L3.32922132,50.5007828 L17.5310932,33.3988852 L21.1937438,36.3932211 L6.99335775,53.4965858 Z M21.6617904,24.9704386 L25.6171558,28.1041483 C25.5324617,28.891977 25.7241379,29.6886082 26.155038,30.3693391 L22.8816833,34.3451599 L18.2012171,30.5175155 C18.0808622,30.4206874 17.9441629,30.3546682 17.8015201,30.30332 C18.5563382,28.1701674 19.9129304,26.3333676 21.6617904,24.9704386 Z M6.90123429,3.40271138 L24.0971187,17.460392 L21.0674455,21.107584 L3.87156106,7.04990341 L6.90123429,3.40271138 Z M31.5888364,22.7199187 L29.715164,25.007116 C28.7285515,24.8765447 27.6914196,25.1244834 26.9083702,25.7406622 L24.0882035,23.5062803 C25.5993255,22.8226152 27.2709206,22.4353027 29.0257239,22.4353027 C29.9068403,22.4353027 30.762697,22.5394663 31.5888364,22.7199187 Z M36.7581513,32.9572904 L32.5888217,29.5756421 C32.9439428,28.4885265 32.7492949,27.2840436 32.0494537,26.355374 L34.2723037,23.6427199 C37.8368874,25.3797575 40.3999998,28.8244907 40.851702,32.8898041 C39.8844056,32.9074092 38.4520344,32.9308827 36.7581513,32.9572904 Z M28.3214252,31.9244572 C28.6007673,31.9919435 28.8860529,32.0403575 29.1772819,32.0403575 C29.7820278,32.0403575 30.3570566,31.8775103 30.8741366,31.6016969 L32.6111097,33.0101057 C30.9246559,33.0291779 29.1490505,33.0453159 27.3897895,33.0555856 L28.3214252,31.9244572 Z M29.1861971,27.5671924 C29.3347833,27.5671924 29.5546909,27.6024026 29.7627116,27.7725854 C30.1564651,28.0938786 30.211442,28.6733802 29.8845523,29.066561 C29.7092206,29.2778223 29.4506805,29.399591 29.1772819,29.399591 C29.0286957,29.399591 28.808788,29.3629137 28.6007673,29.1927309 C28.2070138,28.8714377 28.1520369,28.2919361 28.4789266,27.8987553 C28.6542584,27.6889611 28.9127984,27.5671924 29.1861971,27.5671924 Z M51.0105425,3.44965834 L54.6731931,6.44399419 L40.4728071,23.5473589 L36.8086707,20.5515559 L51.0105425,3.44965834 Z M57.404208,5.24831378 L51.6806664,0.568288618 C51.4072677,0.345290554 51.0610618,0.236725707 50.6985114,0.271935927 C50.3448762,0.305679055 50.0194724,0.477328881 49.7936213,0.748740999 L34.5694762,19.0844634 L34.5679903,19.0859305 L34.5263862,19.1358117 L33.8963805,19.8942985 L33.8815219,19.9236403 L33.4327915,20.4708659 C32.0420244,20.0336723 30.5621055,19.7930691 29.0257239,19.7930691 C27.7033065,19.7930691 26.4180356,19.9749886 25.1936851,20.3050844 L27.0094088,18.1176494 C27.4744837,17.555753 27.3927613,16.7283128 26.8281336,16.2632445 L7.57284405,0.521341657 C7.29944539,0.298343593 6.9562112,0.188311653 6.58920321,0.224988966 C6.23556798,0.257265002 5.91016414,0.43038192 5.68431307,0.701794038 L0.959270956,6.39264595 C0.494196056,6.95454239 0.575918483,7.78198258 1.14054616,8.24705091 L19.529578,23.280348 C16.8683986,25.5396705 15.0259293,28.7305968 14.565312,32.3851243 C14.5474817,32.5171626 14.5727413,32.6433326 14.5950293,32.7680354 L0.416931217,49.8435254 C-0.0481436832,50.4054218 0.032092881,51.2343291 0.598206417,51.6979303 L6.32323386,56.3750213 C6.56394355,56.5716117 6.8655736,56.6787094 7.17611882,56.6787094 L7.30538884,56.671374 C7.65902406,56.6390979 7.98442791,56.4674481 8.21027898,56.1945689 L8.95618185,55.2967083 C7.59661785,60.2598823 6.78087945,62.8126233 6.41832904,63.8836009 L2.49119499,63.8836009 C1.75272142,63.8836009 1.15243305,64.4763062 1.15243305,65.2054512 L1.15243305,69.3940004 C1.15243305,70.1231454 1.75272142,70.7158508 2.49119499,70.7158508 L3.81807002,70.7158508 L3.99488763,71.0092693 L9.41085572,76.9128496 L9.41085572,85.3442304 L5.84181447,85.3442304 C5.10334091,85.3442304 4.5045384,85.9369357 4.5045384,86.6660807 C4.5045384,87.3952257 5.10334091,87.986464 5.84181447,87.986464 L52.2928417,87.986464 C53.0313152,87.986464 53.6316036,87.3952257 53.6316036,86.6660807 C53.6316036,85.9369357 53.0313152,85.3442304 52.2928417,85.3442304 L48.7059701,85.3442304 L48.7059701,76.6883844 L48.879816,76.5695499 L54.4666582,70.7965408 L54.5186634,70.7158508 L55.5171629,70.7158508 C56.2556364,70.7158508 56.8559248,70.1231454 56.8559248,69.3940004 L56.8559248,65.2054512 C56.8559248,64.4763062 56.2556364,63.8836009 55.5171629,63.8836009 L51.9362347,63.8836009 C51.6167743,62.8625045 50.9228766,60.6163858 49.6925827,56.5011913 L50.5023776,57.1643171 C50.7430873,57.3594404 51.0447173,57.4665381 51.3552626,57.4665381 L51.4845326,57.4606698 C51.8396537,57.4269266 52.1635717,57.2552768 52.3909086,56.9823976 L57.1144648,51.2915457 C57.5810256,50.7311163 57.4993032,49.9022091 56.9331896,49.4386078 L45.0150881,39.6941792 C44.2038073,36.4812466 43.7476476,34.5168097 43.581231,33.7744609 C43.505452,31.1146221 42.6926854,28.6411041 41.3420365,26.5284909 L41.6897283,26.2468091 L57.5854832,7.10125165 C58.0505581,6.5408223 57.9703215,5.71191502 57.404208,5.24831378 Z" id="Fill-8" fill="#516066"></path>
                    <path d="M26.0153669,55.466891 L31.2857205,55.466891 L31.2857205,48.5070041 L26.0153669,48.5070041 L26.0153669,55.466891 Z M23.3393289,47.1866208 L23.3393289,56.7887414 C23.3393289,57.5178864 23.9381314,58.1091247 24.676605,58.1091247 L32.6229966,58.1091247 C33.3614701,58.1091247 33.9602726,57.5178864 33.9602726,56.7887414 L33.9602726,47.1866208 C33.9602726,46.4574758 33.3614701,45.8647704 32.6229966,45.8647704 L24.676605,45.8647704 C23.9381314,45.8647704 23.3393289,46.4574758 23.3393289,47.1866208 L23.3393289,47.1866208 Z" id="Fill-9" fill="#516066"></path>
                    <path d="M26.3838608,79.1985798 L31.6527285,79.1985798 L31.6527285,75.6174069 L26.3838608,75.6174069 L26.3838608,79.1985798 Z M32.9900045,72.9751732 L25.0450988,72.9751732 C24.3066253,72.9751732 23.7078228,73.5664115 23.7078228,74.2955565 L23.7078228,80.518963 C23.7078228,81.248108 24.3066253,81.8408134 25.0450988,81.8408134 L32.9900045,81.8408134 C33.7284781,81.8408134 34.3272806,81.248108 34.3272806,80.518963 L34.3272806,74.2955565 C34.3272806,73.5664115 33.7284781,72.9751732 32.9900045,72.9751732 L32.9900045,72.9751732 Z" id="Fill-10" fill="#516066"></path>
                </g>
            </g>
        </g>
    </g>
</svg>