<?xml version="1.0" encoding="UTF-8"?>
<svg width="128px" height="128px" viewBox="0 0 128 128" version="1.1" xmlns="http://www.w3.org/2000/svg" xmlns:xlink="http://www.w3.org/1999/xlink">
    <!-- Generator: Sketch 53 (72520) - https://sketchapp.com -->
    <title>img-race-south-africa</title>
    <desc>Created with Sketch.</desc>
    <g id="Symbols" stroke="none" stroke-width="1" fill="none" fill-rule="evenodd">
        <g id="image-/-race-/-south-africa">
            <g>
                <circle id="Oval-Copy-24" stroke-opacity="0.32" stroke="#F0F8FF" stroke-width="2" fill-opacity="0.04" fill="#F0F8FF" cx="64" cy="64" r="63"></circle>
                <path d="M98.1052632,94.138623 L98.5136121,95.3708761 C98.5808612,95.57381 98.6151382,95.7862136 98.6151382,96 C98.6151382,97.1045695 97.7197077,98 96.6151382,98 L31.3236014,98 C31.1388036,98 30.9548974,97.9743879 30.7771317,97.9238947 C29.714594,97.6220878 29.0978998,96.516068 29.3997066,95.4535303 L29.8947368,93.7107328 L29.8947368,88.8 L30.7894737,88.8 L30.7894737,87 L34.6166614,87 L35.2631579,61 L35.2631579,40.2 L37.1578947,40.2 C40.0633454,40.2 42.4210526,37.8284239 42.4210526,34.9 L42.4210526,30.5 C42.4210526,29.3954305 43.3164831,28.5 44.4210526,28.5 L47.3421053,28.5 L47.3421053,26 C47.3421053,24.8954305 48.2375358,24 49.3421053,24 L78.6578947,24 C79.7624642,24 80.6578947,24.8954305 80.6578947,26 L80.6578947,28.5 L83.5789474,28.5 C84.6835169,28.5 85.5789474,29.3954305 85.5789474,30.5 L85.5789474,34.9 C85.5789474,37.8284239 87.9366546,40.2 90.8421053,40.2 L92.7368421,40.2 L92.7368421,41.2 L92.7365334,60.9751539 L93.3833497,87 L97.2105263,87 L97.2105263,88.8 L98.1052632,88.8 L98.1052632,94.138623 Z M29.8947368,93.7107328 L29.9327895,93.5767652 L29.8947368,93.85 L29.8947368,93.7107328 Z" id="Path" stroke="#516066" stroke-width="2" fill="#516066" fill-rule="nonzero" stroke-linecap="round" stroke-linejoin="round"></path>
                <path d="M97.1052632,94.3 L97.1052632,89.8 L96.2105263,89.8 L96.2105263,88 L92.4078947,88 L91.7368421,61 L91.7368421,41.2 L90.8421053,41.2 C87.3830526,41.2 84.5789474,38.3794 84.5789474,34.9 L84.5789474,30.5 C84.5789474,29.9477153 84.1312321,29.5 83.5789474,29.5 L79.6578947,29.5 L79.6578947,26 C79.6578947,25.4477153 79.2101795,25 78.6578947,25 L49.3421053,25 C48.7898205,25 48.3421053,25.4477153 48.3421053,26 L48.3421053,29.5 L44.4210526,29.5 C43.8687679,29.5 43.4210526,29.9477153 43.4210526,30.5 L43.4210526,34.9 C43.4210526,38.3794 40.6169474,41.2 37.1578947,41.2 L36.2631579,41.2 L36.2631579,61 L35.5921053,88 L31.7894737,88 L31.7894737,89.8 L30.8947368,89.8 L30.8947368,93.85 L30.361654,95.7267652 C30.2107506,96.258034 30.5190977,96.8110439 31.0503665,96.9619474 C31.1392494,96.987194 31.2312025,97 31.3236014,97 L96.6151382,97 C97.167423,97 97.6151382,96.5522847 97.6151382,96 C97.6151382,95.8931068 97.5979997,95.786905 97.5643752,95.685438 L97.1052632,94.3 Z M41.7894737,84.5 L41.7894737,84.5 C41.2662566,84.5 40.8421053,84.0758487 40.8421053,83.5526316 L40.8421053,81.7473684 C40.8421053,81.2241513 41.2662566,80.8 41.7894737,80.8 L41.7894737,80.8 C42.3126908,80.8 42.7368421,81.2241513 42.7368421,81.7473684 L42.7368421,83.5526316 C42.7368421,84.0758487 42.3126908,84.5 41.7894737,84.5 Z M41.7894737,77.3 L41.7894737,77.3 C41.2662566,77.3 40.8421053,76.8758487 40.8421053,76.3526316 L40.8421053,74.5473684 C40.8421053,74.0241513 41.2662566,73.6 41.7894737,73.6 L41.7894737,73.6 C42.3126908,73.6 42.7368421,74.0241513 42.7368421,74.5473684 L42.7368421,76.3526316 C42.7368421,76.8758487 42.3126908,77.3 41.7894737,77.3 Z M41.7894737,70.1 L41.7894737,70.1 C41.2662566,70.1 40.8421053,69.6758487 40.8421053,69.1526316 L40.8421053,67.3473684 C40.8421053,66.8241513 41.2662566,66.4 41.7894737,66.4 L41.7894737,66.4 C42.3126908,66.4 42.7368421,66.8241513 42.7368421,67.3473684 L42.7368421,69.1526316 C42.7368421,69.6758487 42.3126908,70.1 41.7894737,70.1 Z M41.7894737,62.9 L41.7894737,62.9 C41.2662566,62.9 40.8421053,62.4758487 40.8421053,61.9526316 L40.8421053,60.1473684 C40.8421053,59.6241513 41.2662566,59.2 41.7894737,59.2 L41.7894737,59.2 C42.3126908,59.2 42.7368421,59.6241513 42.7368421,60.1473684 L42.7368421,61.9526316 C42.7368421,62.4758487 42.3126908,62.9 41.7894737,62.9 Z M41.7894737,55.7 L41.7894737,55.7 C41.2662566,55.7 40.8421053,55.2758487 40.8421053,54.7526316 L40.8421053,52.9473684 C40.8421053,52.4241513 41.2662566,52 41.7894737,52 L41.7894737,52 C42.3126908,52 42.7368421,52.4241513 42.7368421,52.9473684 L42.7368421,54.7526316 C42.7368421,55.2758487 42.3126908,55.7 41.7894737,55.7 Z M74.7368421,33.1 L74.7368421,33.1 C75.2309916,33.1 75.6315789,33.5005873 75.6315789,33.9947368 L75.6315789,40.3052632 C75.6315789,40.7994127 75.2309916,41.2 74.7368421,41.2 L74.7368421,41.2 C74.2426926,41.2 73.8421053,40.7994127 73.8421053,40.3052632 L73.8421053,33.9947368 C73.8421053,33.5005873 74.2426926,33.1 74.7368421,33.1 Z M62.2105263,57.52645 C62.7961316,57.44545 63.3929211,57.4 64,57.4 C64.6070789,57.4 65.2038684,57.44545 65.7894737,57.52645 L65.7894737,81.6 C65.7894737,82.1522847 65.3417584,82.6 64.7894737,82.6 L63.2105263,82.6 C62.6582416,82.6 62.2105263,82.1522847 62.2105263,81.6 L62.2105263,57.52645 Z M59.4210526,82.6 L57.8421053,82.6 C57.2898205,82.6 56.8421053,82.1522847 56.8421053,81.6 L56.8421053,59.56675 C57.931,58.8409 59.1353158,58.2775 60.4210526,57.9067 L60.4210526,81.6 C60.4210526,82.1522847 59.9733374,82.6 59.4210526,82.6 Z M67.5789474,57.9067 C68.8646842,58.2775 70.069,58.8409 71.1578947,59.56675 L71.1578947,81.6 C71.1578947,82.1522847 70.7101795,82.6 70.1578947,82.6 L68.5789474,82.6 C68.0266626,82.6 67.5789474,82.1522847 67.5789474,81.6 L67.5789474,57.9067 Z M69.3684211,33.1 L69.3684211,33.1 C69.8625706,33.1 70.2631579,33.5005873 70.2631579,33.9947368 L70.2631579,40.3052632 C70.2631579,40.7994127 69.8625706,41.2 69.3684211,41.2 L69.3684211,41.2 C68.8742715,41.2 68.4736842,40.7994127 68.4736842,40.3052632 L68.4736842,33.9947368 C68.4736842,33.5005873 68.8742715,33.1 69.3684211,33.1 Z M64,33.1 L64,33.1 C64.4941495,33.1 64.8947368,33.5005873 64.8947368,33.9947368 L64.8947368,40.3052632 C64.8947368,40.7994127 64.4941495,41.2 64,41.2 L64,41.2 C63.5058505,41.2 63.1052632,40.7994127 63.1052632,40.3052632 L63.1052632,33.9947368 C63.1052632,33.5005873 63.5058505,33.1 64,33.1 Z M58.6315789,33.1 L58.6315789,33.1 C59.1257285,33.1 59.5263158,33.5005873 59.5263158,33.9947368 L59.5263158,40.3052632 C59.5263158,40.7994127 59.1257285,41.2 58.6315789,41.2 L58.6315789,41.2 C58.1374294,41.2 57.7368421,40.7994127 57.7368421,40.3052632 L57.7368421,33.9947368 C57.7368421,33.5005873 58.1374294,33.1 58.6315789,33.1 Z M53.2631579,33.1 L53.2631579,33.1 C53.7573074,33.1 54.1578947,33.5005873 54.1578947,33.9947368 L54.1578947,40.3052632 C54.1578947,40.7994127 53.7573074,41.2 53.2631579,41.2 L53.2631579,41.2 C52.7690084,41.2 52.3684211,40.7994127 52.3684211,40.3052632 L52.3684211,33.9947368 C52.3684211,33.5005873 52.7690084,33.1 53.2631579,33.1 Z M47.8947368,41.2 L47.8947368,41.2 C47.4005873,41.2 47,40.7994127 47,40.3052632 L47,33.9947368 C47,33.5005873 47.4005873,33.1 47.8947368,33.1 L47.8947368,33.1 C48.3888864,33.1 48.7894737,33.5005873 48.7894737,33.9947368 L48.7894737,40.3052632 C48.7894737,40.7994127 48.3888864,41.2 47.8947368,41.2 Z M51.0263158,70.45 C51.0263158,66.733 52.5737632,63.38185 55.0526316,61.00495 L55.0526316,81.6 C55.0526316,82.1522847 54.6049163,82.6 54.0526316,82.6 L52.0263158,82.6 C51.474031,82.6 51.0263158,82.1522847 51.0263158,81.6 L51.0263158,70.45 Z M75.9736842,82.6 L73.9473684,82.6 C73.3950837,82.6 72.9473684,82.1522847 72.9473684,81.6 L72.9473684,61.00495 C75.4262368,63.38185 76.9736842,66.733 76.9736842,70.45 L76.9736842,81.6 C76.9736842,82.1522847 76.525969,82.6 75.9736842,82.6 Z M80.1052632,41.2 L80.1052632,41.2 C79.6111136,41.2 79.2105263,40.7994127 79.2105263,40.3052632 L79.2105263,33.9947368 C79.2105263,33.5005873 79.6111136,33.1 80.1052632,33.1 L80.1052632,33.1 C80.5994127,33.1 81,33.5005873 81,33.9947368 L81,40.3052632 C81,40.7994127 80.5994127,41.2 80.1052632,41.2 Z M86.2105263,84.5 L86.2105263,84.5 C85.6873092,84.5 85.2631579,84.0758487 85.2631579,83.5526316 L85.2631579,81.7473684 C85.2631579,81.2241513 85.6873092,80.8 86.2105263,80.8 L86.2105263,80.8 C86.7337434,80.8 87.1578947,81.2241513 87.1578947,81.7473684 L87.1578947,83.5526316 C87.1578947,84.0758487 86.7337434,84.5 86.2105263,84.5 Z M86.2105263,77.3 L86.2105263,77.3 C85.6873092,77.3 85.2631579,76.8758487 85.2631579,76.3526316 L85.2631579,74.5473684 C85.2631579,74.0241513 85.6873092,73.6 86.2105263,73.6 L86.2105263,73.6 C86.7337434,73.6 87.1578947,74.0241513 87.1578947,74.5473684 L87.1578947,76.3526316 C87.1578947,76.8758487 86.7337434,77.3 86.2105263,77.3 Z M86.2105263,70.1 L86.2105263,70.1 C85.6873092,70.1 85.2631579,69.6758487 85.2631579,69.1526316 L85.2631579,67.3473684 C85.2631579,66.8241513 85.6873092,66.4 86.2105263,66.4 L86.2105263,66.4 C86.7337434,66.4 87.1578947,66.8241513 87.1578947,67.3473684 L87.1578947,69.1526316 C87.1578947,69.6758487 86.7337434,70.1 86.2105263,70.1 Z M86.2105263,62.9 L86.2105263,62.9 C85.6873092,62.9 85.2631579,62.4758487 85.2631579,61.9526316 L85.2631579,60.1473684 C85.2631579,59.6241513 85.6873092,59.2 86.2105263,59.2 L86.2105263,59.2 C86.7337434,59.2 87.1578947,59.6241513 87.1578947,60.1473684 L87.1578947,61.9526316 C87.1578947,62.4758487 86.7337434,62.9 86.2105263,62.9 Z M86.2105263,55.7 L86.2105263,55.7 C85.6873092,55.7 85.2631579,55.2758487 85.2631579,54.7526316 L85.2631579,52.9473684 C85.2631579,52.4241513 85.6873092,52 86.2105263,52 L86.2105263,52 C86.7337434,52 87.1578947,52.4241513 87.1578947,52.9473684 L87.1578947,54.7526316 C87.1578947,55.2758487 86.7337434,55.7 86.2105263,55.7 Z" id="Shape" fill="#838F93" fill-rule="nonzero"></path>
                <path d="M24.2082344,99 C23.5406496,99 23,98.5528192 23,98.0006481 C23,97.448477 23.5406496,97 24.2082344,97 L103.790198,97 C104.457783,97 105,97.448477 105,98.0006481 C105,98.5528192 104.457783,99 103.790198,99 L24.2082344,99 Z" id="Fill-704" fill="#516066"></path>
            </g>
        </g>
    </g>
</svg>