<?xml version="1.0" encoding="UTF-8"?>
<svg width="128px" height="128px" viewBox="0 0 128 128" version="1.1" xmlns="http://www.w3.org/2000/svg" xmlns:xlink="http://www.w3.org/1999/xlink">
    <!-- Generator: Sketch 53 (72520) - https://sketchapp.com -->
    <title>img-race-chile</title>
    <desc>Created with Sketch.</desc>
    <g id="Symbols" stroke="none" stroke-width="1" fill="none" fill-rule="evenodd">
        <g id="image-/-race-/-chile">
            <g>
                <circle id="img-race-chile" stroke-opacity="0.32" stroke="#F0F8FF" stroke-width="2" fill-opacity="0.04" fill="#F0F8FF" cx="64" cy="64" r="63"></circle>
                <g id="img" transform="translate(30.000000, 19.000000)">
                    <path d="M21.1558246,10.4426473 C21.1558246,10.4426473 17.4049541,11.6283865 14.3294555,14.1412174 C13.2612377,15.014087 12.6585154,16.3360386 12.7163659,17.7184541 C12.9195157,22.5055072 13.2033871,35.3949758 11.1409465,47.2496618 C10.7359924,49.5789372 11.9925609,51.9055072 14.1801203,52.7725604 C15.4810858,53.2879227 17.1385723,53.7140097 19.1673789,53.8168116 L21.1558246,10.4426473" id="Fill-546" fill="#838F93"></path>
                    <path d="M61.7857708,81.7613527 C61.4628838,78.2958454 59.8457582,75.0778744 57.3191675,72.6999034 C52.3130738,67.9872464 46.0436847,63.1501449 46.0436847,63.1501449 L23.1160177,63.1501449 C23.1160177,63.1501449 16.847974,67.9872464 11.8418803,72.6999034 C9.31394429,75.0778744 7.69816398,78.2958454 7.37527699,81.7613527 C7.33491611,82.1901449 7.32146249,82.5797101 7.34567901,82.9002899 L61.8153688,82.9002899 C61.8382399,82.5797101 61.8247863,82.1901449 61.7857708,81.7613527" id="Fill-548" fill="#838F93"></path>
                    <path d="M48.0052232,10.4426473 C48.0052232,10.4426473 51.7547483,11.6283865 54.8315923,14.1412174 C55.8998101,15.014087 56.5025324,16.3360386 56.4433365,17.7184541 C56.2415321,22.5055072 55.9576607,35.3949758 58.0201013,47.2496618 C58.4250554,49.5789372 57.1671415,51.9055072 54.9795821,52.7725604 C53.679962,53.2879227 52.0224755,53.7140097 49.9936689,53.8168116 L48.0052232,10.4426473" id="Fill-550" fill="#838F93"></path>
                    <path d="M50.6528965,16.4510145 C50.6528965,16.4510145 44.5422602,12.2828019 34.5798512,13.0665314 C24.6187876,12.2828019 18.5081513,16.4510145 18.5081513,16.4510145 C19.1808325,43.6935266 17.1614435,59.7685024 17.1614435,59.7685024 C19.5494619,63.650628 23.5451884,66.0894686 27.1077081,67.5841546 C31.8958531,69.5928502 37.2638493,69.5928502 42.0519943,67.5841546 C45.6158594,66.0894686 49.6115859,63.650628 51.9996043,59.7685024 C51.9996043,59.7685024 49.9802153,43.6935266 50.6528965,16.4510145" id="Fill-551" fill="#838F93"></path>
                    <path d="M42.7663818,42.4910145 L37.4158753,35.2056039 L37.4158753,12.1361739 C37.4051124,12.1160193 37.3943495,12.096 37.3835866,12.0762512 C36.1593067,9.89806763 33.0003957,9.89806763 31.7774612,12.0762512 C31.7666983,12.096 31.7545901,12.1160193 31.7438272,12.1361739 L31.7438272,35.2056039 L26.3933207,42.4923671 C25.7515828,43.3661836 25.4044793,44.425314 25.4044793,45.5128502 L25.4044793,46.4191304 L43.7552232,46.4191304 L43.7552232,45.5128502 C43.7552232,44.425314 43.409465,43.3661836 42.7663818,42.4910145" id="Fill-553" fill="#838F93"></path>
                    <path d="M34.5798512,1.11228986 C34.5798512,1.11228986 26.9798987,0.439478261 19.7351219,4.72807729 C17.5515986,6.02054106 16.2291073,8.39783575 16.2291073,10.9455652 L16.2291073,16.32657 C16.2291073,17.6332367 17.5260367,18.5341063 18.7435897,18.0755556 C21.973805,16.8608696 27.9620133,15.0184155 34.5798512,15.0184155 C41.1990345,15.0184155 47.1858974,16.8608696 50.4174581,18.0755556 C51.6350111,18.5341063 52.9319405,17.6332367 52.9319405,16.32657 L52.9319405,10.9455652 C52.9319405,8.39783575 51.6094492,6.02054106 49.4259259,4.72807729 C42.1811491,0.439478261 34.5798512,1.11228986 34.5798512,1.11228986" id="Fill-558" fill="#838F93"></path>
                    <path d="M61.8153688,83.9445411 L7.34567901,83.9445411 C6.80215258,83.9445411 6.35145616,83.5238647 6.31109528,82.978744 C6.28284267,82.6135266 6.29360557,82.1847343 6.34203862,81.665314 C6.68510605,77.9766184 8.38564419,74.5219324 11.131529,71.9370048 C12.8038145,70.3652174 14.7868788,68.6148792 17.0269072,66.7360386 C17.4668408,66.3667633 18.1220323,66.4262802 18.4893162,66.868599 C18.8566002,67.3122705 18.7974042,67.9696618 18.3561254,68.3389372 C16.1470402,70.1920773 14.1935739,71.9153623 12.5508864,73.4614493 C10.1763216,75.6973913 8.70584046,78.6786473 8.40851535,81.8560386 L60.7511871,81.8560386 C60.4552073,78.6786473 58.9847262,75.6973913 56.6088161,73.4614493 C55.1033555,72.0425121 53.327477,70.469372 51.3323045,68.7826087 C50.892371,68.4119807 50.8358658,67.7545894 51.2044951,67.3122705 C51.5731244,66.8713043 52.2283159,66.8144928 52.6669041,67.1851208 C54.6916746,68.8948792 56.4944603,70.4937198 58.0281735,71.9370048 C60.7740582,74.5219324 62.4759418,77.9766184 62.8190092,81.6639614 C62.8674422,82.182029 62.8768598,82.6121739 62.8499525,82.978744 C62.8082463,83.5238647 62.3575499,83.9445411 61.8153688,83.9445411" id="Fill-568" fill="#516066"></path>
                    <path d="M14.1801203,53.8168116 C14.0536562,53.8168116 13.9245014,53.7938164 13.7993827,53.7437681 C11.1745806,52.7035749 9.62606838,49.8968116 10.118471,47.0697585 C10.9996834,42.0067633 11.5445552,36.2052174 11.7396328,29.8247343 C11.7571225,29.2485024 12.2253086,28.8007729 12.8091959,28.8129469 C13.3823204,28.8305314 13.8330168,29.3120773 13.8155271,29.8883092 C13.6164134,36.3675362 13.0607787,42.2691787 12.163422,47.4295652 C11.840535,49.284058 12.8495568,51.1236715 14.5608579,51.8013527 C15.0949668,52.0137198 15.3559671,52.6197101 15.1460905,53.1553623 C14.984647,53.56657 14.5944919,53.8168116 14.1801203,53.8168116" id="Fill-569" fill="#516066"></path>
                    <path d="M12.8549383,26.5364251 C12.8535929,26.5364251 12.8509022,26.5364251 12.8495568,26.5364251 C12.2764324,26.5337198 11.8136277,26.0643478 11.8163185,25.4867633 C11.8338082,22.1741063 11.7517411,19.457971 11.6804368,17.7630918 C11.6077873,16.0682126 12.3531181,14.4106667 13.674264,13.3312464 C14.1249604,12.9630531 14.6160177,12.6014879 15.1312915,12.2561546 C15.6088952,11.936657 16.2533238,12.0665121 16.5708294,12.5464348 C16.8883349,13.0262222 16.7591801,13.6738744 16.2815764,13.9935072 C15.8201171,14.3023188 15.3842197,14.624657 14.984647,14.9513237 C14.1693574,15.6164251 13.7092434,16.6349758 13.7536404,17.6738164 C13.82629,19.3916908 13.9097024,22.1429952 13.8922127,25.4975845 C13.889522,26.0724638 13.425372,26.5364251 12.8549383,26.5364251" id="Fill-570" fill="#516066"></path>
                    <path d="M54.9809275,53.8168116 C54.5665559,53.8168116 54.1750554,53.56657 54.0136119,53.1553623 C53.8037354,52.6197101 54.066081,52.0137198 54.5988446,51.8013527 C56.311491,51.1236715 57.3205128,49.284058 56.9976258,47.4295652 C54.927113,35.5329469 55.1961855,22.6583575 55.4074074,17.6751691 C55.450459,16.6349758 54.990345,15.6164251 54.1764008,14.9513237 C53.7754827,14.6238454 53.3382399,14.3015072 52.878126,13.9932367 C52.4005223,13.6737391 52.2713675,13.0259517 52.5888731,12.5461643 C52.9063786,12.0661063 53.5521526,11.9358454 54.0284109,12.255343 C54.5436847,12.6004058 55.0333966,12.9622415 55.4854384,13.3312464 C56.8065844,14.4101256 57.5532605,16.0668599 57.480611,17.7630918 C57.2720798,22.6786473 57.0070434,35.3733333 59.0425768,47.0697585 C59.5336341,49.8968116 57.9864672,52.7035749 55.3603197,53.7437681 C55.235201,53.7938164 55.1073916,53.8168116 54.9809275,53.8168116" id="Fill-571" fill="#516066"></path>
                    <path d="M25.4044793,26.0954589 C19.5656062,26.0954589 17.787037,23.0736232 17.7143875,22.9451208 C17.430516,22.4446377 17.6040677,21.8075362 18.1018519,21.5221256 C18.5955999,21.2394203 19.2225388,21.4085024 19.509101,21.8981643 C19.5817506,22.0131401 20.8988604,24.0083092 25.4044793,24.0083092 C26.2291865,24.0083092 27.0754194,23.8635749 27.9203071,23.5781643 C28.4638335,23.3942029 29.0531022,23.6890821 29.2347262,24.2355556 C29.4176955,24.782029 29.1257518,25.3731401 28.5822254,25.5571014 C27.5234251,25.9142029 26.4552073,26.0954589 25.4044793,26.0954589" id="Fill-572" fill="#516066"></path>
                    <path d="M23.1200538,55.2885024 C22.7850586,55.2885024 22.4581355,55.1275362 22.2576765,54.828599 C21.9388256,54.3524638 22.0599082,53.7072464 22.5321304,53.3839614 C22.6626306,53.294686 25.8067426,51.188599 32.4030548,50.7922705 C32.9802153,50.7543961 33.4672365,51.196715 33.5008705,51.7715942 C33.53585,52.3478261 33.0986072,52.8415459 32.5268281,52.876715 C26.5628363,53.2351691 23.7241216,55.0937198 23.6958689,55.112657 C23.5196265,55.2316908 23.3178221,55.2885024 23.1200538,55.2885024" id="Fill-573" fill="#516066"></path>
                    <path d="M27.7548275,57.4202899 C27.3310383,57.4202899 26.9314657,57.1565217 26.7794397,56.7304348 C26.5843621,56.189372 26.8641975,55.5901449 27.4023425,55.3953623 C27.5516777,55.341256 31.1101614,54.0711111 35.9642292,54.3024155 C36.5373536,54.3294686 36.9799778,54.8177778 36.9530706,55.3940097 C36.9261633,55.9702415 36.4404875,56.4247343 35.8673631,56.3868599 C31.4222855,56.1771981 28.1409465,57.3458937 28.1073124,57.3580676 C27.9916113,57.4 27.871874,57.4202899 27.7548275,57.4202899" id="Fill-574" fill="#516066"></path>
                    <path d="M43.7552232,26.0954589 C41.5636277,26.0954589 39.3653055,25.3285024 37.2207977,23.8121739 C36.7512662,23.4807729 36.6382558,22.8301449 36.9678696,22.3580676 C37.2974834,21.887343 37.9446027,21.7723671 38.4141342,22.1051208 C40.2021209,23.3685024 41.9995252,24.0083092 43.7552232,24.0083092 C44.8933998,24.0083092 45.9279835,23.8784541 46.8293764,23.6214493 C47.3836657,23.4645411 47.9554448,23.7864734 48.1115068,24.3410628 C48.2675689,24.8956522 47.9473726,25.4732367 47.395774,25.6301449 C46.3100665,25.9399034 45.0857866,26.0954589 43.7552232,26.0954589" id="Fill-575" fill="#516066"></path>
                    <path d="M46.0436847,55.2898551 C45.8432257,55.2898551 45.6414213,55.2330435 45.4638335,55.112657 C45.4194365,55.0828986 42.5793764,53.2338164 36.6328743,52.876715 C36.0597499,52.8415459 35.6238525,52.3478261 35.6574865,51.7715942 C35.692466,51.196715 36.1902501,50.7598068 36.7566477,50.7922705 C43.3529598,51.188599 46.4984172,53.294686 46.6289174,53.3839614 C47.102485,53.708599 47.2249129,54.3578744 46.902026,54.8340097 C46.701567,55.1315942 46.3746439,55.2898551 46.0436847,55.2898551" id="Fill-576" fill="#516066"></path>
                    <path d="M41.404875,57.4202899 C41.3026274,57.4202899 41.1963438,57.404058 41.0927509,57.3715942 C41.0510446,57.3580676 38.5796138,56.5870531 35.8404558,56.3855072 C35.2686768,56.3435749 34.8381608,55.8430918 34.879867,55.2682126 C34.9229186,54.694686 35.4153213,54.2564251 35.9911364,54.3037681 C38.9912947,54.5242512 41.6080247,55.345314 41.7169991,55.3804831 C42.2645616,55.5536232 42.5672681,56.1393237 42.3950617,56.6898551 C42.255144,57.1348792 41.8461538,57.4202899 41.404875,57.4202899" id="Fill-577" fill="#516066"></path>
                    <path d="M34.5798512,70.1352657 C31.9025799,70.1352657 29.2279994,69.6050242 26.7081355,68.5472464 C21.9078822,66.5344928 18.399177,63.7656039 16.2775404,60.3176812 C16.1524217,60.11343 16.1012979,59.872657 16.1308959,59.635942 C16.1510763,59.4844444 18.0520734,44.2427053 17.508547,18.4191304 C17.4964387,17.8428986 17.9511713,17.3667633 18.5242957,17.3545894 C19.0947293,17.3329469 19.572333,17.7996135 19.5844413,18.3758454 C20.0835708,42.1203865 18.5242957,57.0063768 18.2350427,59.5223188 C20.1441121,62.4535266 23.2613169,64.8396135 27.5072808,66.6210628 C31.706157,68.3822222 36.3786008,68.5174879 40.666271,67.0025121 C41.2071067,66.8104348 41.8004115,67.0971981 41.9901076,67.6409662 C42.1798037,68.1847343 41.8959323,68.7799034 41.3550965,68.970628 C39.1567743,69.7484058 36.8669674,70.1352657 34.5798512,70.1352657" id="Fill-578" fill="#516066"></path>
                    <path d="M45.1032764,67.1404831 C44.7400285,67.1404831 44.3875435,66.9484058 44.1978474,66.6075362 C43.9166667,66.1057005 44.0929091,65.4699517 44.593384,65.1858937 C47.3702121,63.6154589 49.4985755,61.7109179 50.9246597,59.5223188 C50.6367521,57.0063768 49.077477,42.1203865 49.5766065,18.3758454 C49.5887148,17.7996135 50.0663185,17.3315942 50.6367521,17.3545894 C51.2098765,17.3667633 51.6646091,17.8428986 51.6525008,18.4191304 C51.1089744,44.2427053 53.0099715,59.4844444 53.0288066,59.635942 C53.0597499,59.872657 53.0072808,60.11343 52.8821621,60.3176812 C51.2704179,62.9377778 48.8245489,65.1872464 45.6118234,67.0052174 C45.4503799,67.0971981 45.2754827,67.1404831 45.1032764,67.1404831" id="Fill-579" fill="#516066"></path>
                    <path d="M43.7565685,47.462029 L37.2598132,47.462029 C36.6866888,47.462029 36.2225388,46.9953623 36.2225388,46.4191304 C36.2225388,45.8428986 36.6866888,45.3748792 37.2598132,45.3748792 L42.715258,45.3748792 C42.6870054,44.563285 42.4112061,43.7652174 41.932257,43.1118841 L36.5817506,35.8251208 C36.449905,35.64657 36.3786008,35.4287923 36.3786008,35.2056039 L36.3786008,20.8268599 C36.3786008,20.250628 36.8427509,19.7826087 37.4172206,19.7826087 C37.990345,19.7826087 38.4544951,20.250628 38.4544951,20.8268599 L38.4544951,34.862029 L43.6018519,41.8714976 C44.3713992,42.9184541 44.793843,44.2115942 44.793843,45.5128502 L44.793843,46.4191304 C44.793843,46.9953623 44.3296929,47.462029 43.7565685,47.462029" id="Fill-580" fill="#516066"></path>
                    <path d="M32.4649414,47.462029 L25.4044793,47.462029 C24.8313549,47.462029 24.3672048,46.9953623 24.3672048,46.4191304 L24.3672048,45.5128502 C24.3672048,44.2115942 24.7896486,42.9184541 25.5591959,41.8714976 L30.7065527,34.862029 L30.7065527,15.3887729 C30.7065527,14.8124058 31.1707028,14.3450628 31.7438272,14.3450628 C32.3169516,14.3450628 32.782447,14.8124058 32.782447,15.3887729 L32.782447,35.2056039 C32.782447,35.4287923 32.7111428,35.64657 32.5792972,35.8251208 L27.2287908,43.1118841 C26.7498417,43.7652174 26.4740424,44.563285 26.4457898,45.3748792 L32.4649414,45.3748792 C33.0380658,45.3748792 33.5022159,45.8428986 33.5022159,46.4191304 C33.5022159,46.9953623 33.0380658,47.462029 32.4649414,47.462029" id="Fill-581" fill="#516066"></path>
                    <path d="M26.2036246,3.08135266 C25.744856,3.08135266 25.3251029,2.77254106 25.2013295,2.3050628 C25.054685,1.74817391 25.3842988,1.17667633 25.9385882,1.02856039 C26.2318772,0.950376812 26.5197847,0.878550725 26.8050016,0.811458937 C27.3606363,0.680792271 27.9203071,1.02910145 28.0521526,1.59045411 C28.1826527,2.15180676 27.8355492,2.71315942 27.2772238,2.84436715 C27.0121874,2.90618357 26.7431149,2.97354589 26.4713517,3.04604831 C26.3825578,3.06985507 26.2924185,3.08135266 26.2036246,3.08135266" id="Fill-582" fill="#516066"></path>
                    <path d="M51.0713042,19.2388406 C50.7282368,19.2388406 50.383824,19.177971 50.0528648,19.0535266 C49.5833333,18.8776812 47.9688984,18.337971 47.2787274,18.1080193 L47.1845521,18.0769082 C46.6410256,17.8956522 46.3463913,17.3045411 46.5266698,16.756715 C46.7069484,16.2102415 47.2948718,15.912657 47.8383982,16.0952657 L47.9325736,16.1263768 C49.0909307,16.5132367 50.3353909,16.9312077 50.7807059,17.0989372 C51.0376701,17.1949758 51.3161602,17.1611594 51.5408357,17.0042512 C51.7641659,16.8486957 51.8933207,16.6011594 51.8933207,16.32657 L51.8933207,10.9457005 C51.8933207,8.75845411 50.7457265,6.72054106 48.8985438,5.62732367 C42.0452675,1.57057005 34.7439854,2.14544928 34.6699905,2.15207729 C34.0968661,2.19914976 33.5963913,1.77617391 33.5466129,1.20237681 C33.4968344,0.628444444 33.9192783,0.122956522 34.4897119,0.0725024155 C34.8139443,0.0445024155 42.5067268,-0.579072464 49.9519626,3.82842512 C52.4301203,5.29511111 53.9692149,8.02233816 53.9692149,10.9457005 L53.9692149,16.32657 C53.9692149,17.2815459 53.5037195,18.1756522 52.7234093,18.7194203 C52.232352,19.0629952 51.6538462,19.2388406 51.0713042,19.2388406" id="Fill-583" fill="#516066"></path>
                    <path d="M44.4198322,17.2856039 C44.3458373,17.2856039 44.270497,17.2774879 44.1938113,17.261256 L43.8749604,17.1895652 C43.3139443,17.0678261 42.9587686,16.5132367 43.0798512,15.9491787 C43.2009338,15.3860676 43.7538778,15.0269372 44.3135486,15.150029 L44.6445078,15.2226667 C45.2041785,15.3475169 45.5566635,15.9045411 45.4328902,16.4672464 C45.3252612,16.9542029 44.8960905,17.2856039 44.4198322,17.2856039" id="Fill-584" fill="#516066"></path>
                    <path d="M18.0897436,19.2388406 C17.5058563,19.2388406 16.9286958,19.0629952 16.4362931,18.7194203 C15.6573283,18.1756522 15.1904875,17.2815459 15.1904875,16.32657 L15.1904875,10.94543 C15.1904875,8.02233816 16.7309275,5.29524638 19.2090852,3.82869565 C19.7028332,3.53638647 20.3391896,3.70208696 20.6297879,4.19864734 C20.9203862,4.69547826 20.756252,5.33501449 20.2611586,5.6275942 C18.4139759,6.72067633 17.2677271,8.75845411 17.2677271,10.94543 L17.2677271,16.32657 C17.2677271,16.6011594 17.3955366,16.8486957 17.6202121,17.0042512 C17.8448876,17.1611594 18.1220323,17.1949758 18.3789965,17.0989372 C21.480057,15.9315942 27.7090852,13.97457 34.5798512,13.97457 C36.5373536,13.97457 38.5836499,14.133372 40.6622349,14.4465121 C41.2286325,14.5318647 41.620133,15.0634589 41.5353751,15.6340097 C41.4492719,16.2034783 40.9205445,16.5971014 40.3541469,16.5105314 C38.3764641,16.2129469 36.435106,16.0614493 34.5798512,16.0614493 C28.0360082,16.0614493 22.0773979,17.9362319 19.1068376,19.0535266 C18.7772238,19.177971 18.432811,19.2388406 18.0897436,19.2388406" id="Fill-585" fill="#516066"></path>
                    <path d="M37.4172206,18.1797101 C36.8427509,18.1797101 36.3786008,17.7130435 36.3786008,17.1368116 L36.3786008,15.1283865 C36.3786008,14.5520193 36.8427509,14.0846763 37.4172206,14.0846763 C37.990345,14.0846763 38.4544951,14.5520193 38.4544951,15.1283865 L38.4544951,17.1368116 C38.4544951,17.7130435 37.990345,18.1797101 37.4172206,18.1797101" id="Fill-586" fill="#516066"></path>
                    <path d="M68.1654796,83.9445411 L61.8153688,83.9445411 C61.240899,83.9445411 60.776749,83.4765217 60.776749,82.9002899 C60.776749,82.324058 61.240899,81.8560386 61.8153688,81.8560386 L68.1654796,81.8560386 C68.738604,81.8560386 69.2040994,82.324058 69.2040994,82.9002899 C69.2040994,83.4765217 68.738604,83.9445411 68.1654796,83.9445411" id="Fill-587" fill="#516066"></path>
                    <path d="M7.34567901,83.9445411 L1.06821779,83.9445411 C0.495093384,83.9445411 0.0309433365,83.4765217 0.0309433365,82.9002899 C0.0309433365,82.324058 0.495093384,81.8560386 1.06821779,81.8560386 L7.34567901,81.8560386 C7.91880342,81.8560386 8.38429883,82.324058 8.38429883,82.9002899 C8.38429883,83.4765217 7.91880342,83.9445411 7.34567901,83.9445411" id="Fill-588" fill="#516066"></path>
                    <path d="M34.5798512,83.9445411 C34.0067268,83.9445411 33.5425768,83.4765217 33.5425768,82.9002899 L33.5425768,80.1895652 C33.5425768,79.6133333 34.0067268,79.1466667 34.5798512,79.1466667 C35.154321,79.1466667 35.618471,79.6133333 35.618471,80.1895652 L35.618471,82.9002899 C35.618471,83.4765217 35.154321,83.9445411 34.5798512,83.9445411" id="Fill-590" fill="#516066"></path>
                </g>
            </g>
        </g>
    </g>
</svg>