<?xml version="1.0" encoding="UTF-8"?>
<svg width="128px" height="128px" viewBox="0 0 128 128" version="1.1" xmlns="http://www.w3.org/2000/svg" xmlns:xlink="http://www.w3.org/1999/xlink">
    <!-- Generator: Sketch 53 (72520) - https://sketchapp.com -->
    <title>img-race-france</title>
    <desc>Created with Sketch.</desc>
    <g id="Symbols" stroke="none" stroke-width="1" fill="none" fill-rule="evenodd">
        <g id="image-/-race-/-france">
            <g>
                <circle id="Oval-Copy-13" stroke-opacity="0.32" stroke="#F0F8FF" stroke-width="2" fill-opacity="0.04" fill="#F0F8FF" cx="64" cy="64" r="63"></circle>
                <g id="img" transform="translate(26.000000, 9.000000)">
                    <path d="M39.032,63.3450115 L34.084932,63.3450115 L36.6595728,53.6937011 L41.4044272,53.6937011 L43.9774757,63.3450115 L39.032,63.3450115 Z M55.828466,71.6267356 C45.2926602,49.3636782 39.0399612,1.3728046 39.032,1.30521839 L39.032,1.30377011 L39.032,1.30441379 L39.032,1.30377011 L39.032,1.30521839 C39.0224466,1.3728046 32.7697476,49.3636782 22.2339417,71.6267356 C22.2339417,71.6267356 13.6088155,89.8791954 6.89946408,96.6384598 L23.9599223,96.6384598 C23.9599223,96.6384598 26.5011262,76.8574253 39.032,76.8572644 C51.5612816,76.8574253 54.1040777,96.6384598 54.1040777,96.6384598 L71.1632621,96.6384598 C64.4551845,89.8791954 55.828466,71.6267356 55.828466,71.6267356 L55.828466,71.6267356 Z" id="Fill-499" fill="#838F93"></path>
                    <polyline id="Fill-504" fill="#838F93" points="38.7221748 42 29 42 29 47.926023 48.4427573 47.926023 48.4427573 42 38.7221748 42"></polyline>
                    <polyline id="Fill-504-Copy-2" fill="#838F93" points="39.2218062 17.1228292 34 17.1228292 34 23.0488522 44.4427573 23.0488522 44.4427573 17.1228292 39.2218062 17.1228292"></polyline>
                    <polyline id="Fill-504-Copy" fill="#838F93" points="39.2227071 64 23 64 23 69.926023 55.4427573 69.926023 55.4427573 64 39.2227071 64"></polyline>
                    <path d="M25.6843107,64.3118161 C25.5489709,64.3118161 25.4104466,64.2888046 25.2735146,64.2402069 C24.6350291,64.0113793 24.3006602,63.3017241 24.5267573,62.6553103 C25.6811262,59.3611264 26.8354951,55.6108966 27.9596117,51.5092184 C28.139534,50.8484828 28.8178252,50.460023 29.4706408,50.6437931 C30.1250485,50.8267586 30.5071845,51.5106667 30.3272621,52.1715632 C29.1888155,56.3290805 28.0153398,60.1354713 26.8418641,63.4843678 C26.663534,63.9936782 26.1906408,64.3118161 25.6843107,64.3118161" id="Fill-513" fill="#516066"></path>
                    <path d="M31.7220583,42.8371034 C31.6297087,42.8371034 31.535767,42.8263218 31.4418252,42.803954 C30.7810485,42.6470575 30.3702524,41.9789195 30.5262913,41.3114253 C31.5867184,36.7446897 32.6280388,31.8051034 33.6215922,26.6294483 C33.7505631,25.9563218 34.3954175,25.5165287 35.0609709,25.6468736 C35.7265243,25.7773793 36.1627961,26.4289425 36.0338252,27.102069 C35.0339029,32.3094253 33.9862136,37.2808736 32.9178252,41.8788276 C32.7856699,42.4510575 32.280932,42.8371034 31.7220583,42.8371034" id="Fill-514" fill="#516066"></path>
                    <path d="M36.5895146,18.3902069 C36.5194563,18.3902069 36.4493981,18.3842529 36.3777476,18.3718621 C35.7106019,18.2551954 35.2615922,17.6126437 35.3778252,16.9369425 C36.9127379,7.95377011 37.7582136,1.56365517 37.8107573,1.15717241 C37.8123495,1.14655172 37.8139417,1.13577011 37.815534,1.12514943 C37.9015146,0.524436782 38.4126214,0.0625977011 39.032,0.0625977011 C39.6641165,0.0625977011 40.1863689,0.546 40.2532427,1.16795402 C40.323301,1.70462069 41.1671845,8.05305747 42.6861748,16.9369425 C42.8008155,17.6126437 42.3533981,18.2551954 41.6846602,18.3718621 C41.0159223,18.4898161 40.3806214,18.0357011 40.2643883,17.3598391 C39.7851262,14.5608046 39.3743301,12.0107126 39.032,9.81222989 C38.6896699,12.0107126 38.2772816,14.5606437 37.7980194,17.3598391 C37.6945243,17.963931 37.1754563,18.3902069 36.5895146,18.3902069" id="Fill-515" fill="#516066"></path>
                    <path d="M46.3403495,42.8371034 C45.783068,42.8371034 45.2783301,42.4510575 45.1445825,41.8788276 C44.0761942,37.2808736 43.0285049,32.3094253 42.0301748,27.102069 C41.9012039,26.4289425 42.3358835,25.7773793 43.0014369,25.6468736 C43.6685825,25.5165287 44.3118447,25.9563218 44.4424078,26.6294483 C45.4343689,31.8051034 46.4756893,36.7446897 47.5377087,41.3114253 C47.6921553,41.9789195 47.2829515,42.6470575 46.6221748,42.803954 C46.5266408,42.8263218 46.432699,42.8371034 46.3403495,42.8371034" id="Fill-516" fill="#516066"></path>
                    <path d="M52.3780971,64.3118161 C51.871767,64.3118161 51.3988738,63.9936782 51.2205437,63.4843678 C50.0375146,60.1074713 48.8560777,56.2684138 47.7096699,52.0738851 C47.5281553,51.4128276 47.9118835,50.7292414 48.5662913,50.5464368 C49.2191068,50.3634713 49.8973981,50.7516092 50.0773204,51.4126667 C51.2093981,55.5508736 52.3717282,59.3336092 53.5356505,62.6553103 C53.7633398,63.3017241 53.4273786,64.0113793 52.7888932,64.2402069 C52.6519612,64.2888046 52.5150291,64.3118161 52.3780971,64.3118161" id="Fill-517" fill="#516066"></path>
                    <path d="M71.1632621,97.8801149 L54.1040777,97.8801149 C53.4862913,97.8801149 52.9640388,97.4171494 52.8844272,96.7984138 C52.8605437,96.611908 50.3320777,78.0992414 39.032,78.0990805 C27.7303301,78.0992414 25.2018641,96.611908 25.1779806,96.7990575 C25.0967767,97.4173103 24.5761165,97.8801149 23.9599223,97.8801149 L6.89930485,97.8801149 C6.40205049,97.8801149 5.95399612,97.5772644 5.7638835,97.1126897 C5.5739301,96.6484368 5.67981359,96.1138621 6.03185631,95.7591954 C11.5341359,90.2161609 18.4906019,76.4802299 20.4904466,72.4023678 C20.7929709,71.787977 21.5285825,71.5367816 22.1368155,71.8417241 C22.7450485,72.1463448 22.9934369,72.8912414 22.6925049,73.5057931 C20.8678058,77.2246437 14.9956505,88.8213103 9.65259417,95.3968046 L22.9106408,95.3968046 C23.6669515,91.075954 27.2048932,75.6157701 39.032,75.6156092 C50.8575146,75.6157701 54.3954563,91.075954 55.151767,95.3968046 L68.408699,95.3968046 C63.9711456,89.9462989 59.1960388,81.0775402 56.5465631,75.8618161 C56.2376699,75.2517701 56.4765049,74.5033333 57.0799612,74.1903448 C57.6834175,73.8767126 58.4238058,74.118092 58.732699,74.7281379 C61.6958447,80.5646897 67.3641942,91.057931 72.0310291,95.7591954 C72.3829126,96.1138621 72.488,96.6484368 72.2985243,97.1126897 C72.1090485,97.5772644 71.6600388,97.8801149 71.1632621,97.8801149" id="Fill-518" fill="#516066"></path>
                    <path d="M48.7525825,48.7626437 L41.6862524,48.7626437 C41.0063689,48.7626437 40.4570485,48.2068276 40.4570485,47.5211494 C40.4570485,46.8353103 41.0063689,46.2794943 41.6862524,46.2794943 L47.5249709,46.2794943 L47.5249709,42.8367816 L30.5390291,42.8367816 L30.5390291,46.2794943 L31.6599612,46.2794943 C32.3382524,46.2794943 32.8875728,46.8353103 32.8875728,47.5211494 C32.8875728,48.2068276 32.3382524,48.7626437 31.6599612,48.7626437 L29.3098252,48.7626437 C28.631534,48.7626437 28.0822136,48.2068276 28.0822136,47.5211494 L28.0822136,41.5951264 C28.0822136,40.9094483 28.631534,40.3534713 29.3098252,40.3534713 L48.7525825,40.3534713 C49.4308738,40.3534713 49.9817864,40.9094483 49.9817864,41.5951264 L49.9817864,47.5211494 C49.9817864,48.2068276 49.4308738,48.7626437 48.7525825,48.7626437" id="Fill-519" fill="#516066"></path>
                    <path d="M43.979068,23.7977471 C43.2991845,23.7977471 42.7498641,23.241931 42.7498641,22.556092 L42.7498641,18.7469655 L35.3125437,18.7469655 L35.3125437,21.3145977 L39.7739806,21.3145977 C40.4522718,21.3145977 41.0031845,21.8704138 41.0031845,22.556092 C41.0031845,23.241931 40.4522718,23.7977471 39.7739806,23.7977471 L34.084932,23.7977471 C33.4066408,23.7977471 32.8557282,23.241931 32.8557282,22.556092 L32.8557282,17.5053103 C32.8557282,16.8196322 33.4066408,16.2636552 34.084932,16.2636552 L43.979068,16.2636552 C44.6573592,16.2636552 45.2066796,16.8196322 45.2066796,17.5053103 L45.2066796,22.556092 C45.2066796,23.241931 44.6573592,23.7977471 43.979068,23.7977471" id="Fill-521" fill="#516066"></path>
                    <path d="M55.6835728,70.6845517 L44.2943301,70.6845517 C43.6160388,70.6845517 43.0651262,70.1287356 43.0651262,69.4430575 C43.0651262,68.7572184 43.6160388,68.2014023 44.2943301,68.2014023 L54.4559612,68.2014023 L54.4559612,64.5868276 L23.6080388,64.5868276 L23.6080388,68.2014023 L36.9143301,68.2014023 C37.5926214,68.2014023 38.1419417,68.7572184 38.1419417,69.4430575 C38.1419417,70.1287356 37.5926214,70.6845517 36.9143301,70.6845517 L22.378835,70.6845517 C21.7005437,70.6845517 21.1512233,70.1287356 21.1512233,69.4430575 L21.1512233,63.3451724 C21.1512233,62.6594943 21.7005437,62.1035172 22.378835,62.1035172 L55.6835728,62.1035172 C56.3618641,62.1035172 56.9127767,62.6594943 56.9127767,63.3451724 L56.9127767,69.4430575 C56.9127767,70.1287356 56.3618641,70.6845517 55.6835728,70.6845517" id="Fill-522" fill="#516066"></path>
                    <path d="M23.9599223,97.8802759 C23.5777864,97.8802759 23.2004272,97.7002069 22.9615922,97.3622759 L17.2916505,89.3729425 C16.8951845,88.8156782 17.0225631,88.0398851 17.5734757,87.6403218 C18.1243883,87.2405977 18.8918447,87.3685287 19.2883107,87.9254713 L24.9582524,95.9148046 C25.3531262,96.472069 25.2273398,97.2478621 24.674835,97.6475862 C24.4582913,97.8046437 24.2083107,97.8802759 23.9599223,97.8802759" id="Fill-523" fill="#516066"></path>
                    <path d="M15.8761553,84.978069 C15.279068,84.978069 14.7552233,84.5376322 14.6628738,83.9230805 C14.5609709,83.2451264 15.0227184,82.611908 15.6930485,82.5085977 L23.9392233,81.2395862 C24.6111456,81.1386897 25.2368932,81.6024598 25.3387961,82.2802529 C25.440699,82.9582069 24.9805437,83.5914253 24.3102136,83.6945747 L16.0624466,84.9637471 C16.0003495,84.9732414 15.9382524,84.978069 15.8761553,84.978069" id="Fill-524" fill="#516066"></path>
                    <path d="M30.0199612,82.6857701 C29.7206214,82.6857701 29.4196893,82.576023 29.1840388,82.3541149 L23.7513398,77.2561839 C23.2545631,76.7895172 23.2259029,76.003908 23.6876505,75.5013563 C24.1478058,74.9988046 24.9264078,74.9693563 25.4231845,75.4363448 L30.8558835,80.5342759 C31.3526602,81.0009425 31.3813204,81.7865517 30.9195728,82.2891034 C30.6775534,82.5525287 30.3495534,82.6857701 30.0199612,82.6857701" id="Fill-525" fill="#516066"></path>
                    <path d="M30.4896699,77.1453103 C30.3272621,77.1453103 30.1600777,77.1123218 30.0008544,77.0423218 C29.3782913,76.7690805 29.0932816,76.0377011 29.3639612,75.4088276 L30.2587961,73.326046 C30.5294757,72.6973333 31.2523495,72.4084828 31.8749126,72.6817241 C32.4974757,72.9549655 32.7824854,73.6861839 32.5118058,74.3152184 L31.6169709,76.398 C31.4163495,76.8657931 30.9641553,77.1453103 30.4896699,77.1453103" id="Fill-526" fill="#516066"></path>
                    <path d="M54.1024854,97.8802759 C53.8540971,97.8802759 53.6041165,97.8046437 53.3875728,97.6475862 C52.8366602,97.2478621 52.7092816,96.472069 53.1057476,95.9148046 L58.7756893,87.9254713 C59.1705631,87.3682069 59.9380194,87.2404368 60.488932,87.6403218 C61.0414369,88.0398851 61.1672233,88.8156782 60.7723495,89.3729425 L55.1024078,97.3622759 C54.8619806,97.7002069 54.4846214,97.8802759 54.1024854,97.8802759" id="Fill-527" fill="#516066"></path>
                    <path d="M62.1862524,84.978069 C62.1241553,84.978069 62.0620583,84.9732414 61.9999612,84.9637471 L53.7537864,83.6945747 C53.0818641,83.5914253 52.6217087,82.9582069 52.7236117,82.2802529 C52.8255146,81.6022989 53.4528544,81.1383678 54.1231845,81.2395862 L62.3693592,82.5085977 C63.0412816,82.611908 63.5014369,83.2451264 63.399534,83.9230805 C63.3071845,84.5376322 62.7833398,84.978069 62.1862524,84.978069" id="Fill-528" fill="#516066"></path>
                    <path d="M48.1905243,82.5164828 C47.860932,82.5164828 47.5313398,82.3832414 47.2893204,82.1196552 C46.8275728,81.6172644 46.856233,80.8314943 47.3530097,80.3651494 L52.7857087,75.2670575 C53.2840777,74.8003908 54.0610874,74.8296782 54.522835,75.332069 C54.9845825,75.8346207 54.9559223,76.6203908 54.4575534,77.0867356 L49.0248544,82.1848276 C48.7892039,82.4068966 48.4898641,82.5164828 48.1905243,82.5164828" id="Fill-529" fill="#516066"></path>
                    <path d="M47.5727379,77.1453103 C47.0982524,77.1453103 46.6460583,76.8657931 46.4454369,76.398 L45.5506019,74.3152184 C45.2799223,73.6861839 45.564932,72.9549655 46.1874951,72.6817241 C46.8100583,72.4088046 47.5345243,72.6974943 47.8036117,73.326046 L48.6984466,75.4088276 C48.9691262,76.0377011 48.6841165,76.7690805 48.0615534,77.0423218 C47.9023301,77.1123218 47.7367379,77.1453103 47.5727379,77.1453103" id="Fill-530" fill="#516066"></path>
                    <path d="M43.9774757,64.5871494 C43.4361165,64.5871494 42.9393398,64.2221839 42.7912621,63.6682989 L40.4618252,54.9353563 L37.6005825,54.9353563 L35.2711456,63.6682989 C35.0944078,64.3304828 34.419301,64.722 33.7648932,64.544023 C33.1088932,64.3654023 32.7219806,63.684069 32.8987184,63.022046 L35.4733592,53.3707356 C35.6166602,52.8285977 36.1038835,52.4522069 36.6595728,52.4522069 L41.4044272,52.4522069 C41.9585243,52.4522069 42.4457476,52.8285977 42.5906408,53.3707356 L45.1636893,63.022046 C45.3404272,63.684069 44.9535146,64.3654023 44.2975146,64.544023 C44.190835,64.5731494 44.0825631,64.5871494 43.9774757,64.5871494" id="Fill-535" fill="#516066"></path>
                    <path d="M32.2315728,40.6288046 C31.8000777,40.6288046 31.3797282,40.398046 31.1552233,39.9889885 C30.8272233,39.3892414 31.0421748,38.6335632 31.6344854,38.3009425 L35.2695534,36.2648276 C35.8618641,35.9326897 36.6102136,36.1486437 36.9398058,36.7487126 C37.2678058,37.3484598 37.0544466,38.1041379 36.4605437,38.4367586 L32.8254757,40.4728736 C32.6375922,40.5784368 32.4337864,40.6288046 32.2315728,40.6288046" id="Fill-536" fill="#516066"></path>
                    <path d="M45.8165049,40.6288046 C45.6142913,40.6288046 45.4104854,40.5784368 45.2226019,40.4728736 L41.587534,38.4367586 C40.9936311,38.1041379 40.7802718,37.3484598 41.1082718,36.7487126 C41.4378641,36.1489655 42.1846214,35.9323678 42.7785243,36.2648276 L46.4135922,38.3009425 C47.0059029,38.6335632 47.2208544,39.3892414 46.8928544,39.9889885 C46.6683495,40.3978851 46.248,40.6288046 45.8165049,40.6288046" id="Fill-538" fill="#516066"></path>
                    <path d="M6.89930485,97.8801149 L1.26057087,97.8801149 C0.582120388,97.8801149 0.0320038835,97.3241379 0.0320038835,96.6384598 C0.0320038835,95.9527816 0.582120388,95.3968046 1.26057087,95.3968046 L6.89930485,95.3968046 C7.57775534,95.3968046 8.12787184,95.9527816 8.12787184,96.6384598 C8.12787184,97.3241379 7.57775534,97.8801149 6.89930485,97.8801149" id="Fill-540" fill="#516066"></path>
                    <path d="M29.1426408,97.8801149 L23.9599223,97.8801149 C23.2816311,97.8801149 22.7307184,97.3241379 22.7307184,96.6384598 C22.7307184,95.9527816 23.2816311,95.3968046 23.9599223,95.3968046 L29.1426408,95.3968046 C29.820932,95.3968046 30.3718447,95.9527816 30.3718447,96.6384598 C30.3718447,97.3241379 29.820932,97.8801149 29.1426408,97.8801149" id="Fill-541" fill="#516066"></path>
                    <path d="M54.1040777,97.8801149 L50.2158447,97.8801149 C49.5375534,97.8801149 48.988233,97.3241379 48.988233,96.6384598 C48.988233,95.9527816 49.5375534,95.3968046 50.2158447,95.3968046 L54.1040777,95.3968046 C54.7823689,95.3968046 55.3316893,95.9527816 55.3316893,96.6384598 C55.3316893,97.3241379 54.7823689,97.8801149 54.1040777,97.8801149" id="Fill-543" fill="#516066"></path>
                    <path d="M74.3732039,97.8801149 L71.1632621,97.8801149 C70.4849709,97.8801149 69.9340583,97.3241379 69.9340583,96.6384598 C69.9340583,95.9527816 70.4849709,95.3968046 71.1632621,95.3968046 L74.3732039,95.3968046 C75.0514951,95.3968046 75.6024078,95.9527816 75.6024078,96.6384598 C75.6024078,97.3241379 75.0514951,97.8801149 74.3732039,97.8801149" id="Fill-544" fill="#516066"></path>
                </g>
            </g>
        </g>
    </g>
</svg>