<?xml version="1.0" encoding="UTF-8"?>
<svg width="128px" height="128px" viewBox="0 0 128 128" version="1.1" xmlns="http://www.w3.org/2000/svg" xmlns:xlink="http://www.w3.org/1999/xlink">
    <!-- Generator: Sketch 53 (72520) - https://sketchapp.com -->
    <title>img-race-uae</title>
    <desc>Created with Sketch.</desc>
    <g id="Symbols" stroke="none" stroke-width="1" fill="none" fill-rule="evenodd">
        <g id="image-/-race-/-UAE">
            <g>
                <circle id="Oval-Copy-3" stroke-opacity="0.32" stroke="#F0F8FF" stroke-width="2" fill-opacity="0.04" fill="#F0F8FF" cx="64" cy="64" r="63"></circle>
                <g id="Fill-1051" transform="translate(38.000000, 21.000000)">
                    <path d="M11.99259,34.0585694 L8.89834131,34.0585694 C7.23143806,34.0585694 5.88928151,32.6958828 5.88928151,31.0264265 C5.88928151,29.3571514 7.2312334,27.9925813 8.89834131,27.9925813 L11.99259,27.9925813 L11.99259,1.80335512 C11.99259,0.134079984 13.3345419,-1.23049012 15.0016498,-1.23049012 C16.6687578,-1.23049012 18.0107096,0.134079984 18.0107096,1.80335512 L18.0107096,7.07134083 C20.4452746,8.06537872 23.2959606,9.69155467 26.289642,12.0973091 C31.1270083,15.9846684 35.4144006,21.2209655 38.7994866,27.9925813 L50.6942676,27.9925813 C52.3611708,27.9925813 53.7050041,29.3569703 53.7050041,31.0264265 C53.7050041,32.6960653 52.3609675,34.0585694 50.6942676,34.0585694 L49.5035191,34.0585694 L43.86059,42.152811 C44.2078848,43.5872892 44.5060129,44.9707221 44.7631919,46.3614323 C47.4737767,61.0381016 46.4977419,74.4882634 43.9485578,84.8876763 L43.668406,86.0305575 L11.99259,86.0305575 L11.99259,34.0585694 Z" id="Path" stroke="#516066" stroke-width="3" fill="#838F93" stroke-linecap="round" stroke-linejoin="round"></path>
                    <path d="M1.55727886,87.6 C0.696836845,87.6 0,86.9068697 0,86.0510045 C0,85.1951393 0.696836845,84.5 1.55727886,84.5 L54.8602479,84.5 C55.72069,84.5 56.4195466,85.1951393 56.4195466,86.0510045 C56.4195466,86.9068697 55.72069,87.6 54.8602479,87.6 L1.55727886,87.6 Z" id="Fill-704-Copy" fill="#516066"></path>
                    <path d="M16.7799164,81.1257956 L40.3555983,81.1257956 C40.5349265,81.1257956 40.7005916,81.0815337 40.8594251,81.0253551 C40.5315107,82.6919861 40.237754,83.8904623 40.070381,84.5305575 L16.7799164,84.5305575 L16.7799164,81.1257956 Z" id="Path" fill="#516066"></path>
                    <path d="M36.5435929,32.5585694 C37.090117,33.772367 37.607607,35.0610694 38.0994786,36.4076527 L16.7799164,36.4076527 L16.7799164,32.5585694 L36.5435929,32.5585694 Z" id="Path" fill="#516066"></path>
                    <path d="M16.7799164,11.4047837 C20.1137132,12.8398908 28.6856016,17.5231408 35.0338202,29.4925813 L16.7799164,29.4925813 L16.7799164,11.4047837 Z" id="Path" fill="#516066"></path>
                    <path d="M45.8242547,32.5585694 L42.2650167,37.5703789 C42.1471725,37.1107361 41.8482921,36.7294027 41.4196123,36.5404385 C40.9465274,35.1495932 40.4427005,33.8234385 39.9132553,32.5585694 L45.8242547,32.5585694 Z" id="Path" fill="#516066"></path>
                    <path d="M16.7799164,74.0711289 L41.9251471,74.0711289 C41.744111,75.6730694 41.5374566,77.137117 41.3256785,78.4309265 C41.059248,78.209617 40.7296257,78.0615099 40.3555983,78.0615099 L16.7799164,78.0615099 L16.7799164,74.0711289 Z" id="Path" fill="#516066"></path>
                    <path d="M40.2804512,43.7091646 L16.7799164,43.7091646 L16.7799164,39.4736408 L39.1361664,39.4736408 C39.5494753,40.8202242 39.9303342,42.2383075 40.2804512,43.7091646 Z" id="Path" fill="#516066"></path>
                    <path d="M16.7799164,67.0232718 L42.4323897,67.0232718 L42.4545922,67.019867 C42.4016477,68.4090099 42.3230849,69.7402718 42.2223195,71.0051408 L16.7799164,71.0051408 L16.7799164,67.0232718 Z" id="Path" fill="#516066"></path>
                    <path d="M41.0336297,47.1990456 C41.2214973,48.2034504 41.3837467,49.1959385 41.5323329,50.1833194 L16.7799164,50.1833194 L16.7799164,46.7751527 L40.9448195,46.7751527 L41.0336297,47.1990456 Z" id="Path" fill="#516066"></path>
                    <path d="M16.7799164,60.4231408 L41.9849231,60.4231408 C42.1557119,60.4231408 42.3128376,60.3771765 42.4665475,60.3261051 C42.5092447,61.5756527 42.5246156,62.7911527 42.5177841,63.9760099 L42.4323897,63.9572837 L16.7799164,63.9572837 L16.7799164,60.4231408 Z" id="Path" fill="#516066"></path>
                    <path d="M41.940518,53.2305813 C42.1027674,54.6571765 42.2257353,56.0548313 42.3179612,57.425248 L41.9849231,57.3571527 L16.7799164,57.3571527 L16.7799164,53.2476051 L41.85,53.2476051 L41.940518,53.2305813 Z" id="Path" fill="#516066"></path>
                </g>
            </g>
        </g>
    </g>
</svg>