<?xml version="1.0" encoding="UTF-8"?>
<svg width="128px" height="128px" viewBox="0 0 128 128" version="1.1" xmlns="http://www.w3.org/2000/svg" xmlns:xlink="http://www.w3.org/1999/xlink">
    <!-- Generator: Sketch 53 (72520) - https://sketchapp.com -->
    <title>img-race-japan</title>
    <desc>Created with Sketch.</desc>
    <g id="Symbols" stroke="none" stroke-width="1" fill="none" fill-rule="evenodd">
        <g id="image-/-race-/-japan">
            <g>
                <circle id="Oval-Copy-9" stroke-opacity="0.32" stroke="#F0F8FF" stroke-width="2" fill-opacity="0.04" fill="#F0F8FF" cx="64" cy="64" r="63"></circle>
                <g id="img" transform="translate(25.000000, 28.000000)">
                    <path d="M39.506486,27.8486134 L9.88862069,27.8486134 L11.8071921,31.1477977 C12.5699507,32.4606852 13.9683415,33.2685155 15.4795895,33.2685155 L63.5333826,33.2685155 C65.0459278,33.2685155 66.4443186,32.4606852 67.2070772,31.1477977 L69.1256486,27.8486134 L39.506486,27.8486134" id="Fill-53" fill="#838F93"></path>
                    <polygon id="Fill-54" fill="#838F93" points="19.7694581 33.2685155 58.1953695 33.2685155 58.1953695 27.8486134 19.7694581 27.8486134"></polygon>
                    <path d="M56.7593596,33.2685155 L63.5333826,33.2685155 C65.0459278,33.2685155 66.4443186,32.4606852 67.2070772,31.1477977 L69.1256486,27.8486134 L56.7593596,27.8486134 L56.7593596,33.2685155" id="Fill-55" fill="#838F93"></path>
                    <path d="M11.8071921,31.1477977 C12.1042529,31.6606852 12.4986043,32.0939641 12.9591133,32.433279 C12.857931,31.2326264 13.131642,29.9732463 14.7285057,29.9732463 L21.0575862,29.9732463 L21.0575862,27.8486134 L9.88862069,27.8486134 L11.8071921,31.1477977" id="Fill-56" fill="#838F93"></path>
                    <polygon id="Fill-57" fill="#838F93" points="54.3621182 68.0743883 61.5512479 68.0743883 61.5512479 21.3429038 54.3621182 21.3429038"></polygon>
                    <path d="M25.3098358,21.3429038 L16.8053366,21.3429038 C15.6586043,21.3429038 14.7285057,20.4084829 14.7285057,19.2548124 L14.7285057,15.7402936 L27.3866667,15.7402936 L27.3866667,19.2548124 C27.3866667,20.4084829 26.4565681,21.3429038 25.3098358,21.3429038" id="Fill-58" fill="#838F93"></path>
                    <polygon id="Fill-59" fill="#838F93" points="17.4630213 68.0743883 24.6521511 68.0743883 24.6521511 21.3429038 17.4630213 21.3429038"></polygon>
                    <path d="M27.2569458,78.9389886 L14.8582266,78.9389886 L14.8582266,70.1572594 C14.8582266,69.0075041 15.7857307,68.0743883 16.9285714,68.0743883 L25.186601,68.0743883 C26.3294417,68.0743883 27.2569458,69.0075041 27.2569458,70.1572594 L27.2569458,78.9389886" id="Fill-60" fill="#838F93"></path>
                    <path d="M39.506486,4.99562806 C15.9362069,4.99562806 1.11041051,1.07980424 1.11041051,1.07980424 L1.11041051,6.22225122 C1.11041051,8.57239804 3.00433498,10.4776509 5.34060755,10.4776509 L73.6736617,10.4776509 C76.0099343,10.4776509 77.9038588,8.57239804 77.9038588,6.22225122 L77.9038588,1.07980424 C77.9038588,1.07980424 63.0767652,4.99562806 39.506486,4.99562806" id="Fill-61" fill="#838F93"></path>
                    <path d="M39.506486,10.4776509 L9.55783251,10.4776509 L9.55783251,13.0355628 C9.55783251,14.5292007 10.761642,15.7402936 12.2456486,15.7402936 L66.7673235,15.7402936 C68.2526273,15.7402936 69.4564368,14.5292007 69.4564368,13.0355628 L69.4564368,10.4776509 L39.506486,10.4776509" id="Fill-62" fill="#838F93"></path>
                    <path d="M53.7031363,21.3429038 L62.2089327,21.3429038 C63.355665,21.3429038 64.2844663,20.4084829 64.2844663,19.2548124 L64.2844663,15.7402936 L51.6276026,15.7402936 L51.6276026,19.2548124 C51.6276026,20.4084829 52.5577011,21.3429038 53.7031363,21.3429038" id="Fill-63" fill="#838F93"></path>
                    <path d="M51.7573235,78.9389886 L64.1560427,78.9389886 L64.1560427,70.1572594 C64.1560427,69.0075041 63.2285386,68.0743883 62.0856979,68.0743883 L53.8276683,68.0743883 C52.6835304,68.0743883 51.7573235,69.0075041 51.7573235,70.1572594 L51.7573235,78.9389886" id="Fill-64" fill="#838F93"></path>
                    <polygon id="Fill-65" fill="#838F93" points="34.6289819 29.1367047 44.3852874 29.1367047 44.3852874 14.2342577 34.6289819 14.2342577"></polygon>
                    <path d="M25.186601,68.0743883 L23.6299507,68.0743883 L23.6299507,72.5911909 C23.6299507,74.0319739 22.4689491,75.2 21.0368309,75.2 C19.5956322,75.2 18.4320361,76.3823817 18.4450082,77.8323002 C18.4476026,78.2029364 18.450197,78.5787928 18.4514943,78.9389886 L27.2569458,78.9389886 L27.2569458,70.1572594 C27.2569458,69.0075041 26.3294417,68.0743883 25.186601,68.0743883" id="Fill-66" fill="#838F93"></path>
                    <path d="M62.0856979,68.0743883 L60.4667816,68.0743883 L60.4667816,72.5911909 C60.4667816,74.0319739 59.30578,75.2 57.8736617,75.2 C56.4324631,75.2 55.2675698,76.3823817 55.2805419,77.8323002 C55.2844335,78.2029364 55.2870279,78.5787928 55.2883251,78.9389886 L64.1560427,78.9389886 L64.1560427,70.1572594 C64.1560427,69.0075041 63.2285386,68.0743883 62.0856979,68.0743883" id="Fill-67" fill="#838F93"></path>
                    <path d="M16.7884729,72.6381729 C18.4346305,72.6381729 19.7694581,71.2952692 19.7694581,69.6378467 L19.7694581,68.0743883 L16.9285714,68.0743883 C15.7857307,68.0743883 14.8582266,69.0075041 14.8582266,70.1572594 L14.8582266,72.6381729 L16.7884729,72.6381729" id="Fill-68" fill="#838F93"></path>
                    <path d="M53.7783744,72.6381729 C55.424532,72.6381729 56.7593596,71.2952692 56.7593596,69.6378467 L56.7593596,68.0743883 L53.8276683,68.0743883 C52.6835304,68.0743883 51.7573235,69.0075041 51.7573235,70.1572594 L51.7573235,72.6381729 L53.7783744,72.6381729" id="Fill-69" fill="#838F93"></path>
                    <path d="M41.7376847,24.2845024 C41.7376847,25.2946166 40.9230378,26.1141925 39.9189984,26.1141925 C38.9149589,26.1141925 38.100312,26.9324633 38.100312,27.9438825 L38.100312,29.1367047 L44.3852874,29.1367047 L44.3852874,14.2342577 L41.7376847,14.2342577 L41.7376847,24.2845024" id="Fill-70" fill="#838F93"></path>
                    <path d="M34.6289819,14.2342577 L34.6289819,20.8535073 L35.5655665,20.8535073 C37.2454516,20.8535073 38.6075205,19.4831974 38.6075205,17.7931485 L38.6075205,14.2342577 L34.6289819,14.2342577" id="Fill-71" fill="#838F93"></path>
                    <path d="M72.2687849,3.54597064 C71.5306732,6.14747145 69.1671593,7.94127243 66.478046,7.94127243 L8.91960591,7.94127243 C7.42392447,7.94127243 6.18638752,9.03960848 5.95159278,10.4776509 L73.6736617,10.4776509 C76.0099343,10.4776509 77.9038588,8.57239804 77.9038588,6.22225122 L77.9038588,1.07980424 C77.9038588,1.07980424 76.0631199,1.56541599 72.6527586,2.19445351 L72.2687849,3.54597064" id="Fill-72" fill="#838F93"></path>
                    <path d="M1.11041051,1.07980424 L1.11041051,6.22225122 C1.11041051,7.37292007 1.56573071,8.41500816 2.30384236,9.18094617 C2.55550082,7.69892333 3.2365353,6.01474715 4.99684729,5.50799347 C5.26666667,5.43034258 5.54816092,5.41363785 5.82835796,5.43243067 C8.15684729,5.58877651 20.9615928,6.42414356 30.9462069,6.58244698 C32.1396388,6.60137031 33.1774056,5.9176509 33.6794253,4.91458401 C13.5208046,4.35628059 1.11041051,1.07980424 1.11041051,1.07980424" id="Fill-73" fill="#838F93"></path>
                    <path d="M62.7758128,6.58088091 C64.2857635,6.58088091 65.5090312,5.34929853 65.5090312,3.83034258 C65.5090312,3.65924959 65.4921675,3.4924633 65.4623317,3.32998369 C63.8057964,3.5519739 61.9974877,3.76861338 60.0490805,3.96854812 C60.1204269,5.42290375 61.3125616,6.58088091 62.7758128,6.58088091" id="Fill-74" fill="#838F93"></path>
                    <path d="M23.9542529,17.530832 C23.9542529,18.1755302 23.4353695,18.6988581 22.7932512,18.6988581 C22.1524302,18.6988581 21.6322496,19.222186 21.6322496,19.8668842 L21.6322496,21.3429038 L25.3098358,21.3429038 C26.4565681,21.3429038 27.3866667,20.4084829 27.3866667,19.2548124 L27.3866667,15.7402936 L23.9542529,15.7402936 L23.9542529,17.530832" id="Fill-75" fill="#838F93"></path>
                    <path d="M60.5173727,17.530832 C60.5173727,18.1755302 59.9984893,18.6988581 59.3563711,18.6988581 C58.7155501,18.6988581 58.1953695,19.222186 58.1953695,19.8668842 L58.1953695,21.3429038 L62.2089327,21.3429038 C63.355665,21.3429038 64.2844663,20.4084829 64.2844663,19.2548124 L64.2844663,15.7402936 L60.5173727,15.7402936 L60.5173727,17.530832" id="Fill-76" fill="#838F93"></path>
                    <path d="M17.4630213,21.3429038 L17.4630213,25.5047308 L18.4022003,25.5047308 C20.1871593,25.5047308 21.6322496,26.9598695 21.6322496,28.754323 L21.6322496,68.0743883 L24.6521511,68.0743883 L24.6521511,21.3429038 L17.4630213,21.3429038" id="Fill-77" fill="#838F93"></path>
                    <path d="M61.5512479,21.3429038 L54.3621182,21.3429038 L54.3621182,25.5047308 L55.3090805,25.5047308 C57.0927422,25.5047308 58.5391297,26.9598695 58.5391297,28.754323 L58.5391297,68.0743883 L61.557734,68.0743883 L61.557734,21.3429038 L61.5512479,21.3429038" id="Fill-78" fill="#838F93"></path>
                    <path d="M17.4630213,29.7318108 L17.4630213,68.0743883 L19.7694581,68.0743883 L19.7694581,32.8769984 C19.7694581,31.3970636 18.7991461,30.1455139 17.4630213,29.7318108" id="Fill-79" fill="#838F93"></path>
                    <path d="M54.3621182,29.7083197 L54.3621182,68.0743883 L56.7593596,68.0743883 L56.7593596,32.8769984 C56.7593596,31.3644372 55.7436453,30.0933116 54.3621182,29.7083197" id="Fill-80" fill="#838F93"></path>
                    <path d="M9.55783251,10.4776509 L9.55783251,12.6215987 L60.126913,12.6215987 C61.5914614,12.6215987 62.7797044,13.816248 62.7797044,15.2900489 L62.7797044,15.7402936 L66.7673235,15.7402936 C68.2526273,15.7402936 69.4564368,14.5292007 69.4564368,13.0355628 L69.4564368,10.4776509 L9.55783251,10.4776509" id="Fill-81" fill="#838F93"></path>
                    <path d="M14.7285057,15.7402936 L14.7285057,18.5422512 L17.809376,18.5422512 C18.8925452,18.5422512 19.7694581,17.6587276 19.7694581,16.57031 L19.7694581,15.7402936 L14.7285057,15.7402936" id="Fill-82" fill="#838F93"></path>
                    <path d="M51.6276026,15.7402936 L51.6276026,18.5422512 L54.5190805,18.5422512 C55.6009524,18.5422512 56.4791626,17.6587276 56.4791626,16.57031 L56.4791626,15.7402936 L51.6276026,15.7402936" id="Fill-83" fill="#838F93"></path>
                    <path d="M63.5333826,34.2747145 L61.893711,34.2747145 C61.3411002,34.2747145 60.892266,33.8244698 60.892266,33.2685155 C60.892266,32.7112561 61.3411002,32.2610114 61.893711,32.2610114 L63.5333826,32.2610114 C64.6853038,32.2610114 65.7619869,31.6398042 66.3431363,30.6401305 L67.3809031,28.8561175 L61.9935961,28.8561175 C61.4409852,28.8561175 60.9934483,28.4058728 60.9934483,27.8486134 C60.9934483,27.2926591 61.4409852,26.8424144 61.9935961,26.8424144 L69.1256486,26.8424144 C69.4836782,26.8424144 69.8157635,27.0355628 69.9934811,27.3487765 C70.1724959,27.6606852 70.1699015,28.045677 69.9895895,28.3575856 L68.0710181,31.65677 C67.1331363,33.2711256 65.3935796,34.2747145 63.5333826,34.2747145" id="Fill-84" fill="#516066"></path>
                    <path d="M54.3621182,69.0805873 C53.8095074,69.0805873 53.3606732,68.6303426 53.3606732,68.0743883 L53.3606732,44.1696574 C53.3606732,43.6137031 53.8095074,43.1621533 54.3621182,43.1621533 C54.9147291,43.1621533 55.362266,43.6137031 55.362266,44.1696574 L55.362266,68.0743883 C55.362266,68.6303426 54.9147291,69.0805873 54.3621182,69.0805873" id="Fill-85" fill="#516066"></path>
                    <path d="M54.3621182,44.9187602 C53.8095074,44.9187602 53.3606732,44.358835 53.3606732,43.6658261 L53.3606732,25.7498429 C53.3606732,25.058457 53.8095074,24.4985318 54.3621182,24.4985318 C54.9147291,24.4985318 55.362266,25.058457 55.362266,25.7498429 L55.362266,43.6658261 C55.362266,44.358835 54.9147291,44.9187602 54.3621182,44.9187602" id="Fill-86" fill="#516066"></path>
                    <path d="M61.5512479,69.0805873 C60.9986371,69.0805873 60.549803,68.6303426 60.549803,68.0743883 L60.549803,21.3429038 C60.549803,20.7869494 60.9986371,20.3367047 61.5512479,20.3367047 C62.1038588,20.3367047 62.5526929,20.7869494 62.5526929,21.3429038 L62.5526929,68.0743883 C62.5526929,68.6303426 62.1038588,69.0805873 61.5512479,69.0805873" id="Fill-87" fill="#516066"></path>
                    <path d="M54.111757,28.8561175 L48.8463875,28.8561175 C48.2924795,28.8561175 47.8449425,28.4058728 47.8449425,27.8486134 C47.8449425,27.2926591 48.2924795,26.8424144 48.8463875,26.8424144 L54.111757,26.8424144 C54.6643678,26.8424144 55.1119048,27.2926591 55.1119048,27.8486134 C55.1119048,28.4058728 54.6643678,28.8561175 54.111757,28.8561175" id="Fill-88" fill="#516066"></path>
                    <path d="M53.3377925,34.2747145 L25.6232913,34.2747145 C24.933747,34.2747145 24.3736946,33.8244698 24.3736946,33.2685155 C24.3736946,32.7112561 24.933747,32.2610114 25.6232913,32.2610114 L53.3377925,32.2610114 C54.0273368,32.2610114 54.5873892,32.7112561 54.5873892,33.2685155 C54.5873892,33.8244698 54.0273368,34.2747145 53.3377925,34.2747145" id="Fill-89" fill="#516066"></path>
                    <path d="M17.0154844,34.2747145 L15.4795895,34.2747145 C13.6206897,34.2747145 11.881133,33.2711256 10.9432512,31.65677 L9.0246798,28.3575856 C8.84307061,28.045677 8.8417734,27.6606852 9.02078818,27.3487765 C9.19850575,27.0355628 9.53059113,26.8424144 9.88862069,26.8424144 L17.0154844,26.8424144 C17.5680952,26.8424144 18.0169294,27.2926591 18.0169294,27.8486134 C18.0169294,28.4058728 17.5680952,28.8561175 17.0154844,28.8561175 L11.6333662,28.8561175 L12.671133,30.6401305 C13.2522824,31.6398042 14.3289655,32.2610114 15.4795895,32.2610114 L17.0154844,32.2610114 C17.5680952,32.2610114 18.0169294,32.7112561 18.0169294,33.2685155 C18.0169294,33.8244698 17.5680952,34.2747145 17.0154844,34.2747145" id="Fill-90" fill="#516066"></path>
                    <path d="M29.9525452,28.8561175 L24.8519212,28.8561175 C24.2980131,28.8561175 23.8504762,28.4058728 23.8504762,27.8486134 C23.8504762,27.2926591 24.2980131,26.8424144 24.8519212,26.8424144 L29.9525452,26.8424144 C30.5064532,26.8424144 30.9539901,27.2926591 30.9539901,27.8486134 C30.9539901,28.4058728 30.5064532,28.8561175 29.9525452,28.8561175" id="Fill-91" fill="#516066"></path>
                    <path d="M25.3098358,22.3504078 L16.8053366,22.3504078 C15.1085878,22.3504078 13.728358,20.9618271 13.728358,19.2548124 L13.728358,15.7402936 C13.728358,15.1843393 14.1758949,14.7340946 14.7285057,14.7340946 C15.2811166,14.7340946 15.7299507,15.1843393 15.7299507,15.7402936 L15.7299507,19.2548124 C15.7299507,19.8512235 16.2125123,20.3367047 16.8053366,20.3367047 L25.3098358,20.3367047 C25.9026601,20.3367047 26.3852217,19.8512235 26.3852217,19.2548124 L26.3852217,15.7402936 C26.3852217,15.1843393 26.8327586,14.7340946 27.3866667,14.7340946 C27.9392775,14.7340946 28.3868144,15.1843393 28.3868144,15.7402936 L28.3868144,19.2548124 C28.3868144,20.9618271 27.0065846,22.3504078 25.3098358,22.3504078" id="Fill-92" fill="#516066"></path>
                    <path d="M27.2569458,79.9464927 C26.704335,79.9464927 26.256798,79.4949429 26.256798,78.9389886 L26.256798,70.1572594 C26.256798,69.5634584 25.7768309,69.0805873 25.186601,69.0805873 L16.9285714,69.0805873 C16.3383415,69.0805873 15.8583744,69.5634584 15.8583744,70.1572594 L15.8583744,75.4649266 C15.8583744,76.0208809 15.4108374,76.4711256 14.8582266,76.4711256 C14.3056158,76.4711256 13.8567816,76.0208809 13.8567816,75.4649266 L13.8567816,70.1572594 C13.8567816,68.4541599 15.2344171,67.0668842 16.9285714,67.0668842 L25.186601,67.0668842 C26.8794581,67.0668842 28.2583908,68.4541599 28.2583908,70.1572594 L28.2583908,78.9389886 C28.2583908,79.4949429 27.8095567,79.9464927 27.2569458,79.9464927" id="Fill-93" fill="#516066"></path>
                    <path d="M23.6766502,5.39954323 C23.6520033,5.39954323 23.6260591,5.39862969 23.6001149,5.3966721 L23.003399,5.34969005 C22.4520854,5.30570962 22.0408703,4.82035889 22.0849754,4.26597064 C22.1290805,3.71171289 22.6064532,3.29722675 23.1629557,3.34212072 L23.7518883,3.38858075 C24.303202,3.4308646 24.7157143,3.91451876 24.6742036,4.46916803 C24.6339901,4.99758564 24.1955337,5.39954323 23.6766502,5.39954323" id="Fill-94" fill="#516066"></path>
                    <path d="M73.6736617,11.484633 L5.34060755,11.484633 C2.45561576,11.484633 0.108965517,9.12391517 0.108965517,6.22225122 L0.0856157635,1.08463295 C0.084318555,0.771810767 0.227011494,0.476084829 0.473481117,0.284371941 C0.71865353,0.0929200653 1.03906404,0.0262316476 1.34001642,0.105840131 C1.39190476,0.119412724 6.59630542,1.47445351 15.5405583,2.5714845 C16.0892775,2.63882545 16.4810345,3.14075041 16.4135796,3.69292007 C16.3461248,4.24482871 15.8531856,4.63621533 15.2992775,4.57057096 C8.68740558,3.75986949 4.15625616,2.82779772 2.09369458,2.35758564 L2.11055829,6.21755302 C2.11055829,8.01344209 3.55954023,9.47079935 5.34060755,9.47079935 L73.6736617,9.47079935 C74.540197,9.47079935 75.3522496,9.13070147 75.9593432,8.51340946 C76.5612479,7.90199021 76.8881445,7.09194127 76.879064,6.23256117 L76.879064,2.35314845 C72.804532,3.27399674 59.0800657,6.00274062 39.506486,6.00274062 C36.800509,6.00274062 34.0685878,5.95027732 31.3872578,5.8467863 C30.8359442,5.82538336 30.4052709,5.3577814 30.4260263,4.80195759 C30.4467816,4.24613377 30.9085878,3.81781403 31.4650903,3.83438825 C34.119179,3.93683524 36.8264532,3.988646 39.506486,3.988646 C62.6551724,3.988646 77.4783744,0.144730832 77.6249589,0.105840131 C77.9259113,0.0264926591 78.2450246,0.0918760196 78.490197,0.282675367 C78.7366667,0.473213703 78.8806568,0.76776509 78.8806568,1.07993475 L78.8806568,6.22225122 C78.8949261,7.61318108 78.3630706,8.93363785 77.382381,9.92991843 C76.3965025,10.9324633 75.0798358,11.484633 73.6736617,11.484633" id="Fill-95" fill="#516066"></path>
                    <path d="M30.7996223,16.7477977 L12.2456486,16.7477977 C10.9341708,16.7477977 9.70960591,16.0378467 9.05192118,14.8946166 C8.77561576,14.4130506 8.93776683,13.7965416 9.41643678,13.5177814 C9.89510673,13.2390212 10.5073892,13.4037194 10.7849918,13.884633 C11.0859442,14.4078303 11.6450411,14.7340946 12.2456486,14.7340946 L30.7996223,14.7340946 C31.3522332,14.7340946 31.7997701,15.1843393 31.7997701,15.7402936 C31.7997701,16.296248 31.3522332,16.7477977 30.7996223,16.7477977" id="Fill-96" fill="#516066"></path>
                    <path d="M66.7673235,16.7477977 L48.4144171,16.7477977 C47.8618062,16.7477977 47.4129721,16.296248 47.4129721,15.7402936 C47.4129721,15.1843393 47.8618062,14.7340946 48.4144171,14.7340946 L66.7673235,14.7340946 C67.367931,14.7340946 67.9283251,14.4091354 68.2292775,13.8852855 C68.5068801,13.4045024 69.1191626,13.2405873 69.5978325,13.519478 C70.0752053,13.7984992 70.2386535,14.4143556 69.9610509,14.8959217 C69.3033662,16.0378467 68.0788013,16.7477977 66.7673235,16.7477977" id="Fill-97" fill="#516066"></path>
                    <path d="M62.2089327,22.3504078 L53.7044335,22.3504078 C52.0076847,22.3504078 50.6274548,20.9618271 50.6274548,19.2548124 L50.6274548,15.7402936 C50.6274548,15.1843393 51.0749918,14.7340946 51.6276026,14.7340946 C52.1802135,14.7340946 52.6290476,15.1843393 52.6290476,15.7402936 L52.6290476,19.2548124 C52.6290476,19.8512235 53.1116092,20.3367047 53.7044335,20.3367047 L62.2089327,20.3367047 C62.801757,20.3367047 63.2843186,19.8512235 63.2843186,19.2548124 L63.2843186,15.7402936 C63.2843186,15.1843393 63.7331527,14.7340946 64.2857635,14.7340946 C64.8383744,14.7340946 65.2859113,15.1843393 65.2859113,15.7402936 L65.2859113,19.2548124 C65.2859113,20.9618271 63.9056814,22.3504078 62.2089327,22.3504078" id="Fill-98" fill="#516066"></path>
                    <path d="M52.7574713,77.9314845 L63.1558949,77.9314845 L63.1558949,70.1572594 C63.1558949,69.5634584 62.6759278,69.0805873 62.0856979,69.0805873 L53.8276683,69.0805873 C53.2374384,69.0805873 52.7574713,69.5634584 52.7574713,70.1572594 L52.7574713,77.9314845 Z M64.1560427,79.9464927 L51.7573235,79.9464927 C51.2047126,79.9464927 50.7558785,79.4949429 50.7558785,78.9389886 L50.7558785,70.1572594 C50.7558785,68.4541599 52.133514,67.0668842 53.8276683,67.0668842 L62.0856979,67.0668842 C63.778555,67.0668842 65.1574877,68.4541599 65.1574877,70.1572594 L65.1574877,78.9389886 C65.1574877,79.4949429 64.7086535,79.9464927 64.1560427,79.9464927 L64.1560427,79.9464927 Z" id="Fill-99" fill="#516066"></path>
                    <path d="M32.668606,79.9464927 L10.444169,79.9464927 C9.95427923,79.9464927 9.55638752,79.4949429 9.55638752,78.9389886 C9.55638752,78.3830343 9.95427923,77.9314845 10.444169,77.9314845 L32.668606,77.9314845 C33.1596458,77.9314845 33.5563875,78.3830343 33.5563875,78.9389886 C33.5563875,79.4949429 33.1596458,79.9464927 32.668606,79.9464927" id="Fill-100" fill="#516066"></path>
                    <path d="M68.4745985,79.9464927 L46.7367855,79.9464927 C46.1122283,79.9464927 45.6049589,79.4949429 45.6049589,78.9389886 C45.6049589,78.3830343 46.1122283,77.9314845 46.7367855,77.9314845 L68.4745985,77.9314845 C69.0991557,77.9314845 69.6049589,78.3830343 69.6049589,78.9389886 C69.6049589,79.4949429 69.0991557,79.9464927 68.4745985,79.9464927" id="Fill-102" fill="#516066"></path>
                    <path d="M44.3852874,30.1442088 L34.6276847,30.1442088 C34.0750739,30.1442088 33.6275369,29.6926591 33.6275369,29.1367047 L33.6275369,22.6584013 C33.6275369,22.102447 34.0750739,21.6522023 34.6276847,21.6522023 C35.1815928,21.6522023 35.6291297,22.102447 35.6291297,22.6584013 L35.6291297,28.1305057 L43.3851396,28.1305057 L43.3851396,15.2404568 L35.6291297,15.2404568 L35.6291297,18.5422512 C35.6291297,19.0982055 35.1815928,19.5484502 34.6276847,19.5484502 C34.0750739,19.5484502 33.6275369,19.0982055 33.6275369,18.5422512 L33.6275369,14.2342577 C33.6275369,13.6779119 34.0750739,13.2270147 34.6276847,13.2270147 L44.3852874,13.2270147 C44.9378982,13.2270147 45.3867323,13.6779119 45.3867323,14.2342577 L45.3867323,29.1367047 C45.3867323,29.6926591 44.9378982,30.1442088 44.3852874,30.1442088" id="Fill-104" fill="#516066"></path>
                    <path d="M17.4630213,45.9406199 C16.9104105,45.9406199 16.4615764,45.4890701 16.4615764,44.9331158 L16.4615764,21.3429038 C16.4615764,20.7869494 16.9104105,20.3367047 17.4630213,20.3367047 C18.0156322,20.3367047 18.4631691,20.7869494 18.4631691,21.3429038 L18.4631691,44.9331158 C18.4631691,45.4890701 18.0156322,45.9406199 17.4630213,45.9406199" id="Fill-105" fill="#516066"></path>
                    <path d="M17.4630213,69.0805873 C16.9104105,69.0805873 16.4615764,68.6303426 16.4615764,68.0743883 L16.4615764,44.708646 C16.4615764,44.1526917 16.9104105,43.7011419 17.4630213,43.7011419 C18.0156322,43.7011419 18.4631691,44.1526917 18.4631691,44.708646 L18.4631691,68.0743883 C18.4631691,68.6303426 18.0156322,69.0805873 17.4630213,69.0805873" id="Fill-106" fill="#516066"></path>
                    <path d="M24.6521511,69.0805873 C24.0995402,69.0805873 23.6507061,68.6303426 23.6507061,68.0743883 L23.6507061,21.3429038 C23.6507061,20.7869494 24.0995402,20.3367047 24.6521511,20.3367047 C25.2047619,20.3367047 25.6535961,20.7869494 25.6535961,21.3429038 L25.6535961,68.0743883 C25.6535961,68.6303426 25.2047619,69.0805873 24.6521511,69.0805873" id="Fill-107" fill="#516066"></path>
                </g>
            </g>
        </g>
    </g>
</svg>